<?xml version="1.0" encoding="utf-8" standalone="no"?>
<!DOCTYPE svg PUBLIC "-//W3C//DTD SVG 1.1//EN"
  "http://www.w3.org/Graphics/SVG/1.1/DTD/svg11.dtd">
<!-- Created with matplotlib (http://matplotlib.org/) -->
<svg height="352pt" version="1.1" viewBox="0 0 491 352" width="491pt" xmlns="http://www.w3.org/2000/svg" xmlns:xlink="http://www.w3.org/1999/xlink">
 <defs>
  <style type="text/css">
*{stroke-linecap:butt;stroke-linejoin:round;}
  </style>
 </defs>
 <g id="figure_1">
  <g id="patch_1">
   <path d="M 0 352.861125 
L 491.671775 352.861125 
L 491.671775 0 
L 0 0 
z
" style="fill:#ffffff;"/>
  </g>
  <g id="axes_1">
   <g id="patch_2">
    <path d="M 40.603125 315.304875 
L 397.723125 315.304875 
L 397.723125 49.192875 
L 40.603125 49.192875 
z
" style="fill:#ffffff;"/>
   </g>
   <g id="matplotlib.axis_1">
    <g id="xtick_1">
     <g id="line2d_1">
      <path clip-path="url(#p8a0e07deb7)" d="M 40.603125 315.304875 
L 40.603125 49.192875 
" style="fill:none;stroke:#b0b0b0;stroke-linecap:square;stroke-width:0.8;"/>
     </g>
     <g id="line2d_2">
      <defs>
       <path d="M 0 0 
L 0 3.5 
" id="m9d14e6cbe0" style="stroke:#000000;stroke-width:0.8;"/>
      </defs>
      <g>
       <use style="stroke:#000000;stroke-width:0.8;" x="40.603125" xlink:href="#m9d14e6cbe0" y="315.304875"/>
      </g>
     </g>
     <g id="text_1">
      <!-- 0 -->
      <defs>
       <path d="M 31.78125 66.40625 
Q 24.171875 66.40625 20.328125 58.90625 
Q 16.5 51.421875 16.5 36.375 
Q 16.5 21.390625 20.328125 13.890625 
Q 24.171875 6.390625 31.78125 6.390625 
Q 39.453125 6.390625 43.28125 13.890625 
Q 47.125 21.390625 47.125 36.375 
Q 47.125 51.421875 43.28125 58.90625 
Q 39.453125 66.40625 31.78125 66.40625 
z
M 31.78125 74.21875 
Q 44.046875 74.21875 50.515625 64.515625 
Q 56.984375 54.828125 56.984375 36.375 
Q 56.984375 17.96875 50.515625 8.265625 
Q 44.046875 -1.421875 31.78125 -1.421875 
Q 19.53125 -1.421875 13.0625 8.265625 
Q 6.59375 17.96875 6.59375 36.375 
Q 6.59375 54.828125 13.0625 64.515625 
Q 19.53125 74.21875 31.78125 74.21875 
z
" id="DejaVuSans-30"/>
      </defs>
      <g transform="translate(37.421875 329.903312)scale(0.1 -0.1)">
       <use xlink:href="#DejaVuSans-30"/>
      </g>
     </g>
    </g>
    <g id="xtick_2">
     <g id="line2d_3">
      <path clip-path="url(#p8a0e07deb7)" d="M 84.341031 315.304875 
L 84.341031 49.192875 
" style="fill:none;stroke:#b0b0b0;stroke-linecap:square;stroke-width:0.8;"/>
     </g>
     <g id="line2d_4">
      <g>
       <use style="stroke:#000000;stroke-width:0.8;" x="84.341031" xlink:href="#m9d14e6cbe0" y="315.304875"/>
      </g>
     </g>
     <g id="text_2">
      <!-- 200 -->
      <defs>
       <path d="M 19.1875 8.296875 
L 53.609375 8.296875 
L 53.609375 0 
L 7.328125 0 
L 7.328125 8.296875 
Q 12.9375 14.109375 22.625 23.890625 
Q 32.328125 33.6875 34.8125 36.53125 
Q 39.546875 41.84375 41.421875 45.53125 
Q 43.3125 49.21875 43.3125 52.78125 
Q 43.3125 58.59375 39.234375 62.25 
Q 35.15625 65.921875 28.609375 65.921875 
Q 23.96875 65.921875 18.8125 64.3125 
Q 13.671875 62.703125 7.8125 59.421875 
L 7.8125 69.390625 
Q 13.765625 71.78125 18.9375 73 
Q 24.125 74.21875 28.421875 74.21875 
Q 39.75 74.21875 46.484375 68.546875 
Q 53.21875 62.890625 53.21875 53.421875 
Q 53.21875 48.921875 51.53125 44.890625 
Q 49.859375 40.875 45.40625 35.40625 
Q 44.1875 33.984375 37.640625 27.21875 
Q 31.109375 20.453125 19.1875 8.296875 
z
" id="DejaVuSans-32"/>
      </defs>
      <g transform="translate(74.797281 329.903312)scale(0.1 -0.1)">
       <use xlink:href="#DejaVuSans-32"/>
       <use x="63.623047" xlink:href="#DejaVuSans-30"/>
       <use x="127.246094" xlink:href="#DejaVuSans-30"/>
      </g>
     </g>
    </g>
    <g id="xtick_3">
     <g id="line2d_5">
      <path clip-path="url(#p8a0e07deb7)" d="M 128.078936 315.304875 
L 128.078936 49.192875 
" style="fill:none;stroke:#b0b0b0;stroke-linecap:square;stroke-width:0.8;"/>
     </g>
     <g id="line2d_6">
      <g>
       <use style="stroke:#000000;stroke-width:0.8;" x="128.078936" xlink:href="#m9d14e6cbe0" y="315.304875"/>
      </g>
     </g>
     <g id="text_3">
      <!-- 400 -->
      <defs>
       <path d="M 37.796875 64.3125 
L 12.890625 25.390625 
L 37.796875 25.390625 
z
M 35.203125 72.90625 
L 47.609375 72.90625 
L 47.609375 25.390625 
L 58.015625 25.390625 
L 58.015625 17.1875 
L 47.609375 17.1875 
L 47.609375 0 
L 37.796875 0 
L 37.796875 17.1875 
L 4.890625 17.1875 
L 4.890625 26.703125 
z
" id="DejaVuSans-34"/>
      </defs>
      <g transform="translate(118.535186 329.903312)scale(0.1 -0.1)">
       <use xlink:href="#DejaVuSans-34"/>
       <use x="63.623047" xlink:href="#DejaVuSans-30"/>
       <use x="127.246094" xlink:href="#DejaVuSans-30"/>
      </g>
     </g>
    </g>
    <g id="xtick_4">
     <g id="line2d_7">
      <path clip-path="url(#p8a0e07deb7)" d="M 171.816842 315.304875 
L 171.816842 49.192875 
" style="fill:none;stroke:#b0b0b0;stroke-linecap:square;stroke-width:0.8;"/>
     </g>
     <g id="line2d_8">
      <g>
       <use style="stroke:#000000;stroke-width:0.8;" x="171.816842" xlink:href="#m9d14e6cbe0" y="315.304875"/>
      </g>
     </g>
     <g id="text_4">
      <!-- 600 -->
      <defs>
       <path d="M 33.015625 40.375 
Q 26.375 40.375 22.484375 35.828125 
Q 18.609375 31.296875 18.609375 23.390625 
Q 18.609375 15.53125 22.484375 10.953125 
Q 26.375 6.390625 33.015625 6.390625 
Q 39.65625 6.390625 43.53125 10.953125 
Q 47.40625 15.53125 47.40625 23.390625 
Q 47.40625 31.296875 43.53125 35.828125 
Q 39.65625 40.375 33.015625 40.375 
z
M 52.59375 71.296875 
L 52.59375 62.3125 
Q 48.875 64.0625 45.09375 64.984375 
Q 41.3125 65.921875 37.59375 65.921875 
Q 27.828125 65.921875 22.671875 59.328125 
Q 17.53125 52.734375 16.796875 39.40625 
Q 19.671875 43.65625 24.015625 45.921875 
Q 28.375 48.1875 33.59375 48.1875 
Q 44.578125 48.1875 50.953125 41.515625 
Q 57.328125 34.859375 57.328125 23.390625 
Q 57.328125 12.15625 50.6875 5.359375 
Q 44.046875 -1.421875 33.015625 -1.421875 
Q 20.359375 -1.421875 13.671875 8.265625 
Q 6.984375 17.96875 6.984375 36.375 
Q 6.984375 53.65625 15.1875 63.9375 
Q 23.390625 74.21875 37.203125 74.21875 
Q 40.921875 74.21875 44.703125 73.484375 
Q 48.484375 72.75 52.59375 71.296875 
z
" id="DejaVuSans-36"/>
      </defs>
      <g transform="translate(162.273092 329.903312)scale(0.1 -0.1)">
       <use xlink:href="#DejaVuSans-36"/>
       <use x="63.623047" xlink:href="#DejaVuSans-30"/>
       <use x="127.246094" xlink:href="#DejaVuSans-30"/>
      </g>
     </g>
    </g>
    <g id="xtick_5">
     <g id="line2d_9">
      <path clip-path="url(#p8a0e07deb7)" d="M 215.554748 315.304875 
L 215.554748 49.192875 
" style="fill:none;stroke:#b0b0b0;stroke-linecap:square;stroke-width:0.8;"/>
     </g>
     <g id="line2d_10">
      <g>
       <use style="stroke:#000000;stroke-width:0.8;" x="215.554748" xlink:href="#m9d14e6cbe0" y="315.304875"/>
      </g>
     </g>
     <g id="text_5">
      <!-- 800 -->
      <defs>
       <path d="M 31.78125 34.625 
Q 24.75 34.625 20.71875 30.859375 
Q 16.703125 27.09375 16.703125 20.515625 
Q 16.703125 13.921875 20.71875 10.15625 
Q 24.75 6.390625 31.78125 6.390625 
Q 38.8125 6.390625 42.859375 10.171875 
Q 46.921875 13.96875 46.921875 20.515625 
Q 46.921875 27.09375 42.890625 30.859375 
Q 38.875 34.625 31.78125 34.625 
z
M 21.921875 38.8125 
Q 15.578125 40.375 12.03125 44.71875 
Q 8.5 49.078125 8.5 55.328125 
Q 8.5 64.0625 14.71875 69.140625 
Q 20.953125 74.21875 31.78125 74.21875 
Q 42.671875 74.21875 48.875 69.140625 
Q 55.078125 64.0625 55.078125 55.328125 
Q 55.078125 49.078125 51.53125 44.71875 
Q 48 40.375 41.703125 38.8125 
Q 48.828125 37.15625 52.796875 32.3125 
Q 56.78125 27.484375 56.78125 20.515625 
Q 56.78125 9.90625 50.3125 4.234375 
Q 43.84375 -1.421875 31.78125 -1.421875 
Q 19.734375 -1.421875 13.25 4.234375 
Q 6.78125 9.90625 6.78125 20.515625 
Q 6.78125 27.484375 10.78125 32.3125 
Q 14.796875 37.15625 21.921875 38.8125 
z
M 18.3125 54.390625 
Q 18.3125 48.734375 21.84375 45.5625 
Q 25.390625 42.390625 31.78125 42.390625 
Q 38.140625 42.390625 41.71875 45.5625 
Q 45.3125 48.734375 45.3125 54.390625 
Q 45.3125 60.0625 41.71875 63.234375 
Q 38.140625 66.40625 31.78125 66.40625 
Q 25.390625 66.40625 21.84375 63.234375 
Q 18.3125 60.0625 18.3125 54.390625 
z
" id="DejaVuSans-38"/>
      </defs>
      <g transform="translate(206.010998 329.903312)scale(0.1 -0.1)">
       <use xlink:href="#DejaVuSans-38"/>
       <use x="63.623047" xlink:href="#DejaVuSans-30"/>
       <use x="127.246094" xlink:href="#DejaVuSans-30"/>
      </g>
     </g>
    </g>
    <g id="xtick_6">
     <g id="line2d_11">
      <path clip-path="url(#p8a0e07deb7)" d="M 259.292653 315.304875 
L 259.292653 49.192875 
" style="fill:none;stroke:#b0b0b0;stroke-linecap:square;stroke-width:0.8;"/>
     </g>
     <g id="line2d_12">
      <g>
       <use style="stroke:#000000;stroke-width:0.8;" x="259.292653" xlink:href="#m9d14e6cbe0" y="315.304875"/>
      </g>
     </g>
     <g id="text_6">
      <!-- 1000 -->
      <defs>
       <path d="M 12.40625 8.296875 
L 28.515625 8.296875 
L 28.515625 63.921875 
L 10.984375 60.40625 
L 10.984375 69.390625 
L 28.421875 72.90625 
L 38.28125 72.90625 
L 38.28125 8.296875 
L 54.390625 8.296875 
L 54.390625 0 
L 12.40625 0 
z
" id="DejaVuSans-31"/>
      </defs>
      <g transform="translate(246.567653 329.903312)scale(0.1 -0.1)">
       <use xlink:href="#DejaVuSans-31"/>
       <use x="63.623047" xlink:href="#DejaVuSans-30"/>
       <use x="127.246094" xlink:href="#DejaVuSans-30"/>
       <use x="190.869141" xlink:href="#DejaVuSans-30"/>
      </g>
     </g>
    </g>
    <g id="xtick_7">
     <g id="line2d_13">
      <path clip-path="url(#p8a0e07deb7)" d="M 303.030559 315.304875 
L 303.030559 49.192875 
" style="fill:none;stroke:#b0b0b0;stroke-linecap:square;stroke-width:0.8;"/>
     </g>
     <g id="line2d_14">
      <g>
       <use style="stroke:#000000;stroke-width:0.8;" x="303.030559" xlink:href="#m9d14e6cbe0" y="315.304875"/>
      </g>
     </g>
     <g id="text_7">
      <!-- 1200 -->
      <g transform="translate(290.305559 329.903312)scale(0.1 -0.1)">
       <use xlink:href="#DejaVuSans-31"/>
       <use x="63.623047" xlink:href="#DejaVuSans-32"/>
       <use x="127.246094" xlink:href="#DejaVuSans-30"/>
       <use x="190.869141" xlink:href="#DejaVuSans-30"/>
      </g>
     </g>
    </g>
    <g id="xtick_8">
     <g id="line2d_15">
      <path clip-path="url(#p8a0e07deb7)" d="M 346.768465 315.304875 
L 346.768465 49.192875 
" style="fill:none;stroke:#b0b0b0;stroke-linecap:square;stroke-width:0.8;"/>
     </g>
     <g id="line2d_16">
      <g>
       <use style="stroke:#000000;stroke-width:0.8;" x="346.768465" xlink:href="#m9d14e6cbe0" y="315.304875"/>
      </g>
     </g>
     <g id="text_8">
      <!-- 1400 -->
      <g transform="translate(334.043465 329.903312)scale(0.1 -0.1)">
       <use xlink:href="#DejaVuSans-31"/>
       <use x="63.623047" xlink:href="#DejaVuSans-34"/>
       <use x="127.246094" xlink:href="#DejaVuSans-30"/>
       <use x="190.869141" xlink:href="#DejaVuSans-30"/>
      </g>
     </g>
    </g>
    <g id="xtick_9">
     <g id="line2d_17">
      <path clip-path="url(#p8a0e07deb7)" d="M 390.506371 315.304875 
L 390.506371 49.192875 
" style="fill:none;stroke:#b0b0b0;stroke-linecap:square;stroke-width:0.8;"/>
     </g>
     <g id="line2d_18">
      <g>
       <use style="stroke:#000000;stroke-width:0.8;" x="390.506371" xlink:href="#m9d14e6cbe0" y="315.304875"/>
      </g>
     </g>
     <g id="text_9">
      <!-- 1600 -->
      <g transform="translate(377.781371 329.903312)scale(0.1 -0.1)">
       <use xlink:href="#DejaVuSans-31"/>
       <use x="63.623047" xlink:href="#DejaVuSans-36"/>
       <use x="127.246094" xlink:href="#DejaVuSans-30"/>
       <use x="190.869141" xlink:href="#DejaVuSans-30"/>
      </g>
     </g>
    </g>
    <g id="text_10">
     <!-- Time(s) -->
     <defs>
      <path d="M -0.296875 72.90625 
L 61.375 72.90625 
L 61.375 64.59375 
L 35.5 64.59375 
L 35.5 0 
L 25.59375 0 
L 25.59375 64.59375 
L -0.296875 64.59375 
z
" id="DejaVuSans-54"/>
      <path d="M 9.421875 54.6875 
L 18.40625 54.6875 
L 18.40625 0 
L 9.421875 0 
z
M 9.421875 75.984375 
L 18.40625 75.984375 
L 18.40625 64.59375 
L 9.421875 64.59375 
z
" id="DejaVuSans-69"/>
      <path d="M 52 44.1875 
Q 55.375 50.25 60.0625 53.125 
Q 64.75 56 71.09375 56 
Q 79.640625 56 84.28125 50.015625 
Q 88.921875 44.046875 88.921875 33.015625 
L 88.921875 0 
L 79.890625 0 
L 79.890625 32.71875 
Q 79.890625 40.578125 77.09375 44.375 
Q 74.3125 48.1875 68.609375 48.1875 
Q 61.625 48.1875 57.5625 43.546875 
Q 53.515625 38.921875 53.515625 30.90625 
L 53.515625 0 
L 44.484375 0 
L 44.484375 32.71875 
Q 44.484375 40.625 41.703125 44.40625 
Q 38.921875 48.1875 33.109375 48.1875 
Q 26.21875 48.1875 22.15625 43.53125 
Q 18.109375 38.875 18.109375 30.90625 
L 18.109375 0 
L 9.078125 0 
L 9.078125 54.6875 
L 18.109375 54.6875 
L 18.109375 46.1875 
Q 21.1875 51.21875 25.484375 53.609375 
Q 29.78125 56 35.6875 56 
Q 41.65625 56 45.828125 52.96875 
Q 50 49.953125 52 44.1875 
z
" id="DejaVuSans-6d"/>
      <path d="M 56.203125 29.59375 
L 56.203125 25.203125 
L 14.890625 25.203125 
Q 15.484375 15.921875 20.484375 11.0625 
Q 25.484375 6.203125 34.421875 6.203125 
Q 39.59375 6.203125 44.453125 7.46875 
Q 49.3125 8.734375 54.109375 11.28125 
L 54.109375 2.78125 
Q 49.265625 0.734375 44.1875 -0.34375 
Q 39.109375 -1.421875 33.890625 -1.421875 
Q 20.796875 -1.421875 13.15625 6.1875 
Q 5.515625 13.8125 5.515625 26.8125 
Q 5.515625 40.234375 12.765625 48.109375 
Q 20.015625 56 32.328125 56 
Q 43.359375 56 49.78125 48.890625 
Q 56.203125 41.796875 56.203125 29.59375 
z
M 47.21875 32.234375 
Q 47.125 39.59375 43.09375 43.984375 
Q 39.0625 48.390625 32.421875 48.390625 
Q 24.90625 48.390625 20.390625 44.140625 
Q 15.875 39.890625 15.1875 32.171875 
z
" id="DejaVuSans-65"/>
      <path d="M 31 75.875 
Q 24.46875 64.65625 21.28125 53.65625 
Q 18.109375 42.671875 18.109375 31.390625 
Q 18.109375 20.125 21.3125 9.0625 
Q 24.515625 -2 31 -13.1875 
L 23.1875 -13.1875 
Q 15.875 -1.703125 12.234375 9.375 
Q 8.59375 20.453125 8.59375 31.390625 
Q 8.59375 42.28125 12.203125 53.3125 
Q 15.828125 64.359375 23.1875 75.875 
z
" id="DejaVuSans-28"/>
      <path d="M 44.28125 53.078125 
L 44.28125 44.578125 
Q 40.484375 46.53125 36.375 47.5 
Q 32.28125 48.484375 27.875 48.484375 
Q 21.1875 48.484375 17.84375 46.4375 
Q 14.5 44.390625 14.5 40.28125 
Q 14.5 37.15625 16.890625 35.375 
Q 19.28125 33.59375 26.515625 31.984375 
L 29.59375 31.296875 
Q 39.15625 29.25 43.1875 25.515625 
Q 47.21875 21.78125 47.21875 15.09375 
Q 47.21875 7.46875 41.1875 3.015625 
Q 35.15625 -1.421875 24.609375 -1.421875 
Q 20.21875 -1.421875 15.453125 -0.5625 
Q 10.6875 0.296875 5.421875 2 
L 5.421875 11.28125 
Q 10.40625 8.6875 15.234375 7.390625 
Q 20.0625 6.109375 24.8125 6.109375 
Q 31.15625 6.109375 34.5625 8.28125 
Q 37.984375 10.453125 37.984375 14.40625 
Q 37.984375 18.0625 35.515625 20.015625 
Q 33.0625 21.96875 24.703125 23.78125 
L 21.578125 24.515625 
Q 13.234375 26.265625 9.515625 29.90625 
Q 5.8125 33.546875 5.8125 39.890625 
Q 5.8125 47.609375 11.28125 51.796875 
Q 16.75 56 26.8125 56 
Q 31.78125 56 36.171875 55.265625 
Q 40.578125 54.546875 44.28125 53.078125 
z
" id="DejaVuSans-73"/>
      <path d="M 8.015625 75.875 
L 15.828125 75.875 
Q 23.140625 64.359375 26.78125 53.3125 
Q 30.421875 42.28125 30.421875 31.390625 
Q 30.421875 20.453125 26.78125 9.375 
Q 23.140625 -1.703125 15.828125 -13.1875 
L 8.015625 -13.1875 
Q 14.5 -2 17.703125 9.0625 
Q 20.90625 20.125 20.90625 31.390625 
Q 20.90625 42.671875 17.703125 53.65625 
Q 14.5 64.65625 8.015625 75.875 
z
" id="DejaVuSans-29"/>
     </defs>
     <g transform="translate(200.269375 343.581437)scale(0.1 -0.1)">
      <use xlink:href="#DejaVuSans-54"/>
      <use x="61.037109" xlink:href="#DejaVuSans-69"/>
      <use x="88.820312" xlink:href="#DejaVuSans-6d"/>
      <use x="186.232422" xlink:href="#DejaVuSans-65"/>
      <use x="247.755859" xlink:href="#DejaVuSans-28"/>
      <use x="286.769531" xlink:href="#DejaVuSans-73"/>
      <use x="338.869141" xlink:href="#DejaVuSans-29"/>
     </g>
    </g>
   </g>
   <g id="matplotlib.axis_2">
    <g id="ytick_1">
     <g id="line2d_19">
      <path clip-path="url(#p8a0e07deb7)" d="M 40.603125 303.208875 
L 397.723125 303.208875 
" style="fill:none;stroke:#b0b0b0;stroke-linecap:square;stroke-width:0.8;"/>
     </g>
     <g id="line2d_20">
      <defs>
       <path d="M 0 0 
L -3.5 0 
" id="m66bd2979b8" style="stroke:#000000;stroke-width:0.8;"/>
      </defs>
      <g>
       <use style="stroke:#000000;stroke-width:0.8;" x="40.603125" xlink:href="#m66bd2979b8" y="303.208875"/>
      </g>
     </g>
     <g id="text_11">
      <!-- 0 -->
      <g transform="translate(27.240625 307.008094)scale(0.1 -0.1)">
       <use xlink:href="#DejaVuSans-30"/>
      </g>
     </g>
    </g>
    <g id="ytick_2">
     <g id="line2d_21">
      <path clip-path="url(#p8a0e07deb7)" d="M 40.603125 249.448875 
L 397.723125 249.448875 
" style="fill:none;stroke:#b0b0b0;stroke-linecap:square;stroke-width:0.8;"/>
     </g>
     <g id="line2d_22">
      <g>
       <use style="stroke:#000000;stroke-width:0.8;" x="40.603125" xlink:href="#m66bd2979b8" y="249.448875"/>
      </g>
     </g>
     <g id="text_12">
      <!-- 10 -->
      <g transform="translate(20.878125 253.248094)scale(0.1 -0.1)">
       <use xlink:href="#DejaVuSans-31"/>
       <use x="63.623047" xlink:href="#DejaVuSans-30"/>
      </g>
     </g>
    </g>
    <g id="ytick_3">
     <g id="line2d_23">
      <path clip-path="url(#p8a0e07deb7)" d="M 40.603125 195.688875 
L 397.723125 195.688875 
" style="fill:none;stroke:#b0b0b0;stroke-linecap:square;stroke-width:0.8;"/>
     </g>
     <g id="line2d_24">
      <g>
       <use style="stroke:#000000;stroke-width:0.8;" x="40.603125" xlink:href="#m66bd2979b8" y="195.688875"/>
      </g>
     </g>
     <g id="text_13">
      <!-- 20 -->
      <g transform="translate(20.878125 199.488094)scale(0.1 -0.1)">
       <use xlink:href="#DejaVuSans-32"/>
       <use x="63.623047" xlink:href="#DejaVuSans-30"/>
      </g>
     </g>
    </g>
    <g id="ytick_4">
     <g id="line2d_25">
      <path clip-path="url(#p8a0e07deb7)" d="M 40.603125 141.928875 
L 397.723125 141.928875 
" style="fill:none;stroke:#b0b0b0;stroke-linecap:square;stroke-width:0.8;"/>
     </g>
     <g id="line2d_26">
      <g>
       <use style="stroke:#000000;stroke-width:0.8;" x="40.603125" xlink:href="#m66bd2979b8" y="141.928875"/>
      </g>
     </g>
     <g id="text_14">
      <!-- 30 -->
      <defs>
       <path d="M 40.578125 39.3125 
Q 47.65625 37.796875 51.625 33 
Q 55.609375 28.21875 55.609375 21.1875 
Q 55.609375 10.40625 48.1875 4.484375 
Q 40.765625 -1.421875 27.09375 -1.421875 
Q 22.515625 -1.421875 17.65625 -0.515625 
Q 12.796875 0.390625 7.625 2.203125 
L 7.625 11.71875 
Q 11.71875 9.328125 16.59375 8.109375 
Q 21.484375 6.890625 26.8125 6.890625 
Q 36.078125 6.890625 40.9375 10.546875 
Q 45.796875 14.203125 45.796875 21.1875 
Q 45.796875 27.640625 41.28125 31.265625 
Q 36.765625 34.90625 28.71875 34.90625 
L 20.21875 34.90625 
L 20.21875 43.015625 
L 29.109375 43.015625 
Q 36.375 43.015625 40.234375 45.921875 
Q 44.09375 48.828125 44.09375 54.296875 
Q 44.09375 59.90625 40.109375 62.90625 
Q 36.140625 65.921875 28.71875 65.921875 
Q 24.65625 65.921875 20.015625 65.03125 
Q 15.375 64.15625 9.8125 62.3125 
L 9.8125 71.09375 
Q 15.4375 72.65625 20.34375 73.4375 
Q 25.25 74.21875 29.59375 74.21875 
Q 40.828125 74.21875 47.359375 69.109375 
Q 53.90625 64.015625 53.90625 55.328125 
Q 53.90625 49.265625 50.4375 45.09375 
Q 46.96875 40.921875 40.578125 39.3125 
z
" id="DejaVuSans-33"/>
      </defs>
      <g transform="translate(20.878125 145.728094)scale(0.1 -0.1)">
       <use xlink:href="#DejaVuSans-33"/>
       <use x="63.623047" xlink:href="#DejaVuSans-30"/>
      </g>
     </g>
    </g>
    <g id="ytick_5">
     <g id="line2d_27">
      <path clip-path="url(#p8a0e07deb7)" d="M 40.603125 88.168875 
L 397.723125 88.168875 
" style="fill:none;stroke:#b0b0b0;stroke-linecap:square;stroke-width:0.8;"/>
     </g>
     <g id="line2d_28">
      <g>
       <use style="stroke:#000000;stroke-width:0.8;" x="40.603125" xlink:href="#m66bd2979b8" y="88.168875"/>
      </g>
     </g>
     <g id="text_15">
      <!-- 40 -->
      <g transform="translate(20.878125 91.968094)scale(0.1 -0.1)">
       <use xlink:href="#DejaVuSans-34"/>
       <use x="63.623047" xlink:href="#DejaVuSans-30"/>
      </g>
     </g>
    </g>
    <g id="text_16">
     <!-- Discovered Nodes -->
     <defs>
      <path d="M 19.671875 64.796875 
L 19.671875 8.109375 
L 31.59375 8.109375 
Q 46.6875 8.109375 53.6875 14.9375 
Q 60.6875 21.78125 60.6875 36.53125 
Q 60.6875 51.171875 53.6875 57.984375 
Q 46.6875 64.796875 31.59375 64.796875 
z
M 9.8125 72.90625 
L 30.078125 72.90625 
Q 51.265625 72.90625 61.171875 64.09375 
Q 71.09375 55.28125 71.09375 36.53125 
Q 71.09375 17.671875 61.125 8.828125 
Q 51.171875 0 30.078125 0 
L 9.8125 0 
z
" id="DejaVuSans-44"/>
      <path d="M 48.78125 52.59375 
L 48.78125 44.1875 
Q 44.96875 46.296875 41.140625 47.34375 
Q 37.3125 48.390625 33.40625 48.390625 
Q 24.65625 48.390625 19.8125 42.84375 
Q 14.984375 37.3125 14.984375 27.296875 
Q 14.984375 17.28125 19.8125 11.734375 
Q 24.65625 6.203125 33.40625 6.203125 
Q 37.3125 6.203125 41.140625 7.25 
Q 44.96875 8.296875 48.78125 10.40625 
L 48.78125 2.09375 
Q 45.015625 0.34375 40.984375 -0.53125 
Q 36.96875 -1.421875 32.421875 -1.421875 
Q 20.0625 -1.421875 12.78125 6.34375 
Q 5.515625 14.109375 5.515625 27.296875 
Q 5.515625 40.671875 12.859375 48.328125 
Q 20.21875 56 33.015625 56 
Q 37.15625 56 41.109375 55.140625 
Q 45.0625 54.296875 48.78125 52.59375 
z
" id="DejaVuSans-63"/>
      <path d="M 30.609375 48.390625 
Q 23.390625 48.390625 19.1875 42.75 
Q 14.984375 37.109375 14.984375 27.296875 
Q 14.984375 17.484375 19.15625 11.84375 
Q 23.34375 6.203125 30.609375 6.203125 
Q 37.796875 6.203125 41.984375 11.859375 
Q 46.1875 17.53125 46.1875 27.296875 
Q 46.1875 37.015625 41.984375 42.703125 
Q 37.796875 48.390625 30.609375 48.390625 
z
M 30.609375 56 
Q 42.328125 56 49.015625 48.375 
Q 55.71875 40.765625 55.71875 27.296875 
Q 55.71875 13.875 49.015625 6.21875 
Q 42.328125 -1.421875 30.609375 -1.421875 
Q 18.84375 -1.421875 12.171875 6.21875 
Q 5.515625 13.875 5.515625 27.296875 
Q 5.515625 40.765625 12.171875 48.375 
Q 18.84375 56 30.609375 56 
z
" id="DejaVuSans-6f"/>
      <path d="M 2.984375 54.6875 
L 12.5 54.6875 
L 29.59375 8.796875 
L 46.6875 54.6875 
L 56.203125 54.6875 
L 35.6875 0 
L 23.484375 0 
z
" id="DejaVuSans-76"/>
      <path d="M 41.109375 46.296875 
Q 39.59375 47.171875 37.8125 47.578125 
Q 36.03125 48 33.890625 48 
Q 26.265625 48 22.1875 43.046875 
Q 18.109375 38.09375 18.109375 28.8125 
L 18.109375 0 
L 9.078125 0 
L 9.078125 54.6875 
L 18.109375 54.6875 
L 18.109375 46.1875 
Q 20.953125 51.171875 25.484375 53.578125 
Q 30.03125 56 36.53125 56 
Q 37.453125 56 38.578125 55.875 
Q 39.703125 55.765625 41.0625 55.515625 
z
" id="DejaVuSans-72"/>
      <path d="M 45.40625 46.390625 
L 45.40625 75.984375 
L 54.390625 75.984375 
L 54.390625 0 
L 45.40625 0 
L 45.40625 8.203125 
Q 42.578125 3.328125 38.25 0.953125 
Q 33.9375 -1.421875 27.875 -1.421875 
Q 17.96875 -1.421875 11.734375 6.484375 
Q 5.515625 14.40625 5.515625 27.296875 
Q 5.515625 40.1875 11.734375 48.09375 
Q 17.96875 56 27.875 56 
Q 33.9375 56 38.25 53.625 
Q 42.578125 51.265625 45.40625 46.390625 
z
M 14.796875 27.296875 
Q 14.796875 17.390625 18.875 11.75 
Q 22.953125 6.109375 30.078125 6.109375 
Q 37.203125 6.109375 41.296875 11.75 
Q 45.40625 17.390625 45.40625 27.296875 
Q 45.40625 37.203125 41.296875 42.84375 
Q 37.203125 48.484375 30.078125 48.484375 
Q 22.953125 48.484375 18.875 42.84375 
Q 14.796875 37.203125 14.796875 27.296875 
z
" id="DejaVuSans-64"/>
      <path id="DejaVuSans-20"/>
      <path d="M 9.8125 72.90625 
L 23.09375 72.90625 
L 55.421875 11.921875 
L 55.421875 72.90625 
L 64.984375 72.90625 
L 64.984375 0 
L 51.703125 0 
L 19.390625 60.984375 
L 19.390625 0 
L 9.8125 0 
z
" id="DejaVuSans-4e"/>
     </defs>
     <g transform="translate(14.798438 227.486375)rotate(-90)scale(0.1 -0.1)">
      <use xlink:href="#DejaVuSans-44"/>
      <use x="77.001953" xlink:href="#DejaVuSans-69"/>
      <use x="104.785156" xlink:href="#DejaVuSans-73"/>
      <use x="156.884766" xlink:href="#DejaVuSans-63"/>
      <use x="211.865234" xlink:href="#DejaVuSans-6f"/>
      <use x="273.046875" xlink:href="#DejaVuSans-76"/>
      <use x="332.226562" xlink:href="#DejaVuSans-65"/>
      <use x="393.75" xlink:href="#DejaVuSans-72"/>
      <use x="434.832031" xlink:href="#DejaVuSans-65"/>
      <use x="496.355469" xlink:href="#DejaVuSans-64"/>
      <use x="559.832031" xlink:href="#DejaVuSans-20"/>
      <use x="591.619141" xlink:href="#DejaVuSans-4e"/>
      <use x="666.423828" xlink:href="#DejaVuSans-6f"/>
      <use x="727.605469" xlink:href="#DejaVuSans-64"/>
      <use x="791.082031" xlink:href="#DejaVuSans-65"/>
      <use x="852.605469" xlink:href="#DejaVuSans-73"/>
     </g>
    </g>
   </g>
   <g id="line2d_29">
    <path clip-path="url(#p8a0e07deb7)" d="M 40.603125 303.208875 
L 73.843933 303.208875 
L 74.062623 297.832875 
L 78.655103 297.832875 
L 78.873792 292.456875 
L 80.404619 292.456875 
L 80.623309 281.704875 
L 81.060688 281.704875 
L 81.279377 287.080875 
L 82.591514 287.080875 
L 82.810204 276.328875 
L 83.684962 276.328875 
L 83.903652 281.704875 
L 86.090547 281.704875 
L 86.309236 276.328875 
L 86.746616 276.328875 
L 87.183995 287.080875 
L 89.589579 287.080875 
L 89.808269 292.456875 
L 90.026958 292.456875 
L 90.245648 297.832875 
L 91.339096 297.832875 
L 91.557785 303.208875 
L 95.056818 303.208875 
L 95.275507 297.832875 
L 95.494197 297.832875 
L 95.712886 292.456875 
L 96.587644 292.456875 
L 96.806334 287.080875 
L 97.025023 287.080875 
L 97.243713 276.328875 
L 97.681092 276.328875 
L 98.118471 265.576875 
L 98.55585 265.576875 
L 98.77454 260.200875 
L 99.867987 260.200875 
L 100.086677 254.824875 
L 100.524056 254.824875 
L 100.961435 244.072875 
L 101.398814 244.072875 
L 101.617503 227.944875 
L 101.836193 227.944875 
L 102.054883 222.568875 
L 102.273572 233.320875 
L 102.492262 233.320875 
L 102.929641 244.072875 
L 103.14833 244.072875 
L 103.36702 238.696875 
L 103.585709 244.072875 
L 103.804399 233.320875 
L 104.023088 233.320875 
L 104.241778 227.944875 
L 104.460467 238.696875 
L 104.679157 233.320875 
L 105.116536 244.072875 
L 105.335225 244.072875 
L 105.553915 249.448875 
L 105.772604 249.448875 
L 105.991294 254.824875 
L 106.428673 254.824875 
L 106.647363 260.200875 
L 106.866052 260.200875 
L 107.303431 276.328875 
L 107.522121 281.704875 
L 107.9595 281.704875 
L 108.178189 287.080875 
L 108.396879 287.080875 
L 109.052947 303.208875 
L 113.645428 303.208875 
L 113.864117 297.832875 
L 114.082807 297.832875 
L 114.738875 270.952875 
L 114.957565 270.952875 
L 115.176254 265.576875 
L 115.613633 265.576875 
L 116.051012 238.696875 
L 116.269702 233.320875 
L 116.92577 206.440875 
L 117.14446 206.440875 
L 117.581839 184.936875 
L 118.237908 184.936875 
L 118.893976 152.680875 
L 119.331355 152.680875 
L 119.550045 147.304875 
L 119.768734 131.176875 
L 119.987424 125.800875 
L 120.206113 125.800875 
L 120.424803 115.048875 
L 120.643492 120.424875 
L 120.862182 98.920875 
L 121.299561 109.672875 
L 121.518251 109.672875 
L 121.73694 131.176875 
L 121.95563 125.800875 
L 122.174319 125.800875 
L 122.393009 120.424875 
L 122.611698 125.800875 
L 123.049077 125.800875 
L 123.267767 120.424875 
L 123.705146 152.680875 
L 123.923835 158.056875 
L 124.142525 152.680875 
L 124.361214 158.056875 
L 124.579904 168.808875 
L 124.798593 168.808875 
L 125.017283 163.432875 
L 125.235973 163.432875 
L 126.110731 201.064875 
L 126.32942 201.064875 
L 126.766799 222.568875 
L 126.985489 222.568875 
L 127.204178 238.696875 
L 127.422868 244.072875 
L 128.297626 281.704875 
L 128.516315 287.080875 
L 128.735005 287.080875 
L 128.953695 297.832875 
L 130.265832 297.832875 
L 130.484521 303.208875 
L 204.182892 303.208875 
L 204.401582 297.832875 
L 207.244546 297.832875 
L 207.463235 292.456875 
L 207.681925 292.456875 
L 207.900614 287.080875 
L 212.493094 287.080875 
L 212.711784 292.456875 
L 213.586542 292.456875 
L 213.805232 297.832875 
L 218.179022 297.832875 
L 218.397712 292.456875 
L 219.05378 292.456875 
L 219.27247 287.080875 
L 220.584607 287.080875 
L 220.803296 292.456875 
L 227.145293 292.456875 
L 227.363982 297.832875 
L 229.769567 297.832875 
L 229.988257 292.456875 
L 232.831221 292.456875 
L 233.04991 287.080875 
L 234.143358 287.080875 
L 234.580737 297.832875 
L 235.674184 297.832875 
L 235.892874 292.456875 
L 239.610596 292.456875 
L 239.829285 297.832875 
L 242.45356 297.832875 
L 242.672249 303.208875 
L 292.314772 303.208875 
L 292.533462 297.832875 
L 292.752151 297.832875 
L 292.970841 292.456875 
L 293.18953 292.456875 
L 293.40822 287.080875 
L 294.282978 244.072875 
L 294.501668 244.072875 
L 294.720357 238.696875 
L 295.157736 222.568875 
L 295.376426 217.192875 
L 295.813805 217.192875 
L 296.032494 211.816875 
L 296.251184 195.688875 
L 296.469873 195.688875 
L 296.907252 184.936875 
L 297.344631 163.432875 
L 297.563321 163.432875 
L 298.0007 152.680875 
L 299.094148 104.296875 
L 299.312837 104.296875 
L 299.968906 88.168875 
L 300.187595 93.544875 
L 300.406285 88.168875 
L 300.843664 98.920875 
L 301.281043 88.168875 
L 301.499732 77.416875 
L 301.718422 82.792875 
L 302.374491 82.792875 
L 302.81187 66.664875 
L 303.249249 66.664875 
L 303.467938 61.288875 
L 303.686628 66.664875 
L 305.217454 66.664875 
L 305.436144 61.288875 
L 306.092213 61.288875 
L 306.310902 66.664875 
L 306.748281 66.664875 
L 306.966971 61.288875 
L 307.40435 61.288875 
L 307.623039 66.664875 
L 310.903382 66.664875 
L 311.122072 72.040875 
L 311.340761 72.040875 
L 311.559451 66.664875 
L 311.99683 66.664875 
L 312.215519 72.040875 
L 312.434209 72.040875 
L 312.652898 77.416875 
L 313.308967 77.416875 
L 313.527657 72.040875 
L 313.746346 77.416875 
L 320.088342 77.416875 
L 320.307032 72.040875 
L 320.525721 72.040875 
L 320.744411 82.792875 
L 321.18179 82.792875 
L 321.619169 72.040875 
L 321.837859 77.416875 
L 326.430339 77.416875 
L 326.649028 82.792875 
L 327.305097 82.792875 
L 327.523786 77.416875 
L 327.742476 82.792875 
L 331.241508 82.792875 
L 331.460198 88.168875 
L 332.116266 88.168875 
L 332.334956 82.792875 
L 332.553646 82.792875 
L 332.772335 88.168875 
L 334.740541 88.168875 
L 334.95923 82.792875 
L 335.615299 82.792875 
L 335.833988 77.416875 
L 336.052678 82.792875 
L 336.708747 82.792875 
L 336.927436 77.416875 
L 337.146126 82.792875 
L 337.364815 77.416875 
L 338.895642 77.416875 
L 339.114331 82.792875 
L 339.55171 82.792875 
L 339.7704 77.416875 
L 340.645158 77.416875 
L 340.863848 82.792875 
L 341.082537 77.416875 
L 341.301227 77.416875 
L 341.519916 82.792875 
L 342.832053 82.792875 
L 343.050743 88.168875 
L 343.706811 88.168875 
L 343.925501 82.792875 
L 344.36288 93.544875 
L 344.800259 93.544875 
L 345.018949 88.168875 
L 345.237638 88.168875 
L 345.456328 93.544875 
L 346.987154 93.544875 
L 347.205844 88.168875 
L 348.517981 88.168875 
L 348.736671 82.792875 
L 348.95536 82.792875 
L 349.17405 88.168875 
L 349.830118 88.168875 
L 350.048808 82.792875 
L 350.704876 82.792875 
L 350.923566 88.168875 
L 352.017014 88.168875 
L 352.235703 93.544875 
L 352.454393 88.168875 
L 353.329151 88.168875 
L 353.54784 93.544875 
L 354.859977 93.544875 
L 355.078667 98.920875 
L 355.297356 93.544875 
L 355.516046 93.544875 
L 355.734736 98.920875 
L 355.953425 98.920875 
L 356.172115 93.544875 
L 356.609494 93.544875 
L 357.046873 104.296875 
L 357.265562 93.544875 
L 357.484252 93.544875 
L 357.702941 104.296875 
L 365.138385 104.296875 
L 365.357075 98.920875 
L 365.575764 98.920875 
L 366.013143 109.672875 
L 366.231833 109.672875 
L 366.450522 93.544875 
L 367.106591 93.544875 
L 367.325281 98.920875 
L 367.54397 93.544875 
L 367.76266 93.544875 
L 367.981349 88.168875 
L 368.637418 88.168875 
L 368.856107 93.544875 
L 369.074797 88.168875 
L 369.293486 88.168875 
L 369.512176 93.544875 
L 369.730865 93.544875 
L 369.949555 82.792875 
L 370.168244 93.544875 
L 371.043003 93.544875 
L 371.261692 88.168875 
L 371.699071 98.920875 
L 371.917761 93.544875 
L 372.13645 98.920875 
L 372.792519 98.920875 
L 373.011208 104.296875 
L 375.198104 104.296875 
L 375.416793 98.920875 
L 375.635483 98.920875 
L 375.854172 104.296875 
L 376.72893 104.296875 
L 376.94762 98.920875 
L 377.166309 98.920875 
L 377.384999 104.296875 
L 378.915826 104.296875 
L 379.134515 109.672875 
L 379.571894 93.544875 
L 379.790584 93.544875 
L 380.227963 104.296875 
L 380.446652 104.296875 
L 380.884031 93.544875 
L 381.32141 93.544875 
L 381.758789 104.296875 
L 382.196168 93.544875 
L 382.633548 93.544875 
L 382.852237 104.296875 
L 383.070927 104.296875 
L 383.289616 98.920875 
L 383.508306 98.920875 
L 383.726995 93.544875 
L 383.945685 93.544875 
L 384.164374 98.920875 
L 385.476511 98.920875 
L 385.695201 104.296875 
L 387.444717 104.296875 
L 387.663407 109.672875 
L 387.882096 104.296875 
L 388.319475 104.296875 
L 388.538165 98.920875 
L 388.975544 109.672875 
L 389.631612 109.672875 
L 389.850302 104.296875 
L 391.599818 104.296875 
L 391.818508 98.920875 
L 392.037197 98.920875 
L 392.255887 104.296875 
L 392.911955 104.296875 
L 393.130645 98.920875 
L 393.568024 98.920875 
L 393.786713 104.296875 
L 394.005403 104.296875 
L 394.224093 109.672875 
L 394.661472 98.920875 
L 395.098851 98.920875 
L 395.31754 104.296875 
L 395.754919 104.296875 
L 396.192298 88.168875 
L 396.629677 88.168875 
L 396.848367 93.544875 
L 397.067056 88.168875 
L 397.504435 88.168875 
L 397.504435 88.168875 
" style="fill:none;stroke:#008000;stroke-linecap:square;stroke-width:1.5;"/>
   </g>
   <g id="line2d_30">
    <path clip-path="url(#p8a0e07deb7)" d="M 40.603125 303.208875 
L 51.97498 303.208875 
L 52.19367 297.832875 
L 56.567461 297.832875 
L 56.78615 292.456875 
L 57.00484 292.456875 
L 57.223529 297.832875 
L 57.879598 297.832875 
L 58.098287 303.208875 
L 98.55585 303.208875 
L 98.77454 297.832875 
L 98.993229 297.832875 
L 99.211919 292.456875 
L 99.430608 292.456875 
L 99.649298 287.080875 
L 100.086677 287.080875 
L 100.305366 281.704875 
L 103.36702 281.704875 
L 103.585709 276.328875 
L 105.553915 276.328875 
L 105.772604 281.704875 
L 106.209984 281.704875 
L 106.647363 292.456875 
L 108.615568 292.456875 
L 108.834258 297.832875 
L 109.052947 297.832875 
L 109.271637 303.208875 
L 156.071196 303.208875 
L 156.289886 297.832875 
L 156.945954 297.832875 
L 157.383333 287.080875 
L 158.69547 287.080875 
L 158.91416 281.704875 
L 160.007608 281.704875 
L 160.226297 276.328875 
L 160.444987 276.328875 
L 160.663676 270.952875 
L 161.319745 270.952875 
L 161.538434 265.576875 
L 161.757124 265.576875 
L 161.975813 260.200875 
L 162.850571 260.200875 
L 163.069261 249.448875 
L 163.50664 249.448875 
L 164.162709 233.320875 
L 164.381398 238.696875 
L 165.474846 238.696875 
L 165.693535 244.072875 
L 165.912225 244.072875 
L 166.130914 249.448875 
L 166.568293 249.448875 
L 166.786983 244.072875 
L 167.005672 244.072875 
L 167.224362 249.448875 
L 167.880431 249.448875 
L 168.09912 244.072875 
L 168.536499 244.072875 
L 168.755189 249.448875 
L 168.973878 249.448875 
L 169.411257 260.200875 
L 169.848636 260.200875 
L 170.067326 265.576875 
L 170.286015 265.576875 
L 170.504705 270.952875 
L 172.91029 270.952875 
L 173.128979 276.328875 
L 173.566358 276.328875 
L 173.785048 281.704875 
L 174.441116 281.704875 
L 174.878495 292.456875 
L 175.753254 292.456875 
L 175.971943 297.832875 
L 182.313939 297.832875 
L 182.532629 292.456875 
L 182.970008 292.456875 
L 183.188698 287.080875 
L 183.407387 287.080875 
L 183.844766 276.328875 
L 184.938214 276.328875 
L 185.156903 270.952875 
L 185.812972 270.952875 
L 186.031661 265.576875 
L 186.90642 265.576875 
L 187.343799 254.824875 
L 187.781178 254.824875 
L 187.999867 249.448875 
L 188.218557 249.448875 
L 188.437246 254.824875 
L 188.655936 254.824875 
L 188.874625 260.200875 
L 189.093315 254.824875 
L 189.749383 254.824875 
L 189.968073 249.448875 
L 190.186762 249.448875 
L 190.405452 254.824875 
L 190.624142 244.072875 
L 190.842831 249.448875 
L 191.061521 249.448875 
L 191.28021 254.824875 
L 194.341864 254.824875 
L 194.560553 260.200875 
L 194.997932 260.200875 
L 195.216622 270.952875 
L 195.87269 270.952875 
L 196.09138 281.704875 
L 196.747448 281.704875 
L 197.184827 292.456875 
L 200.246481 292.456875 
L 200.68386 281.704875 
L 201.121239 265.576875 
L 201.339928 265.576875 
L 201.995997 249.448875 
L 203.089445 249.448875 
L 203.308134 254.824875 
L 205.05765 254.824875 
L 205.27634 260.200875 
L 205.713719 260.200875 
L 205.932409 265.576875 
L 206.151098 265.576875 
L 206.369788 270.952875 
L 206.588477 270.952875 
L 207.244546 287.080875 
L 209.212751 287.080875 
L 209.431441 297.832875 
L 212.274405 297.832875 
L 212.493094 292.456875 
L 212.930473 292.456875 
L 213.367852 281.704875 
L 213.805232 281.704875 
L 214.67999 260.200875 
L 215.117369 260.200875 
L 215.336058 265.576875 
L 215.554748 265.576875 
L 215.773437 270.952875 
L 215.992127 265.576875 
L 216.210816 270.952875 
L 216.429506 265.576875 
L 216.648195 265.576875 
L 216.866885 270.952875 
L 217.085574 270.952875 
L 217.304264 281.704875 
L 217.741643 281.704875 
L 217.960333 287.080875 
L 218.616401 287.080875 
L 218.835091 281.704875 
L 219.491159 281.704875 
L 220.147228 265.576875 
L 221.459365 265.576875 
L 221.678055 276.328875 
L 221.896744 276.328875 
L 222.115434 270.952875 
L 223.208881 270.952875 
L 223.427571 276.328875 
L 223.64626 276.328875 
L 223.86495 281.704875 
L 224.739708 281.704875 
L 224.958398 270.952875 
L 225.395777 270.952875 
L 225.614466 265.576875 
L 226.489224 265.576875 
L 226.707914 260.200875 
L 226.926603 260.200875 
L 227.582672 276.328875 
L 227.801361 270.952875 
L 228.676119 270.952875 
L 228.894809 276.328875 
L 229.769567 276.328875 
L 229.988257 270.952875 
L 231.081704 270.952875 
L 231.300394 265.576875 
L 231.519083 265.576875 
L 231.956462 254.824875 
L 232.393841 254.824875 
L 232.612531 260.200875 
L 233.487289 260.200875 
L 233.705979 265.576875 
L 234.362047 265.576875 
L 234.580737 276.328875 
L 234.799426 276.328875 
L 235.018116 270.952875 
L 236.330253 270.952875 
L 236.548943 265.576875 
L 236.767632 265.576875 
L 236.986322 260.200875 
L 237.423701 260.200875 
L 237.64239 254.824875 
L 237.86108 254.824875 
L 238.079769 260.200875 
L 238.298459 254.824875 
L 238.517148 260.200875 
L 238.735838 254.824875 
L 238.954527 260.200875 
L 239.610596 260.200875 
L 239.829285 265.576875 
L 240.266664 265.576875 
L 240.485354 270.952875 
L 241.578802 270.952875 
L 242.016181 254.824875 
L 242.890939 254.824875 
L 243.109628 249.448875 
L 243.328318 249.448875 
L 243.547007 233.320875 
L 243.765697 227.944875 
L 244.421766 195.688875 
L 245.296524 195.688875 
L 245.515213 179.560875 
L 245.952592 179.560875 
L 246.171282 174.184875 
L 246.389971 174.184875 
L 246.608661 168.808875 
L 247.04604 141.928875 
L 247.264729 152.680875 
L 247.483419 147.304875 
L 248.358177 147.304875 
L 248.795556 131.176875 
L 249.014246 125.800875 
L 249.451625 125.800875 
L 249.889004 104.296875 
L 250.107693 109.672875 
L 250.545072 109.672875 
L 250.763762 104.296875 
L 250.982451 109.672875 
L 251.201141 109.672875 
L 251.41983 120.424875 
L 251.85721 120.424875 
L 252.294589 136.552875 
L 252.731968 125.800875 
L 253.169347 136.552875 
L 253.825415 136.552875 
L 254.044105 141.928875 
L 254.481484 141.928875 
L 254.918863 125.800875 
L 255.356242 125.800875 
L 255.574931 131.176875 
L 255.793621 120.424875 
L 256.012311 98.920875 
L 256.44969 98.920875 
L 256.668379 93.544875 
L 256.887069 98.920875 
L 257.543137 98.920875 
L 257.761827 104.296875 
L 259.292653 104.296875 
L 259.511343 98.920875 
L 260.167412 98.920875 
L 260.386101 104.296875 
L 262.135617 104.296875 
L 262.354307 109.672875 
L 263.010375 109.672875 
L 263.229065 98.920875 
L 263.666444 109.672875 
L 263.885134 104.296875 
L 264.103823 104.296875 
L 264.322513 109.672875 
L 264.541202 104.296875 
L 264.759892 104.296875 
L 264.978581 98.920875 
L 265.197271 98.920875 
L 265.41596 104.296875 
L 265.63465 98.920875 
L 267.165477 98.920875 
L 267.384166 104.296875 
L 267.821545 104.296875 
L 268.040235 98.920875 
L 268.258924 104.296875 
L 268.477614 104.296875 
L 268.914993 115.048875 
L 269.133682 115.048875 
L 269.352372 109.672875 
L 269.789751 109.672875 
L 270.00844 115.048875 
L 271.101888 115.048875 
L 271.320578 109.672875 
L 272.195336 109.672875 
L 272.414025 115.048875 
L 272.632715 115.048875 
L 272.851404 120.424875 
L 273.070094 115.048875 
L 273.288783 115.048875 
L 273.507473 109.672875 
L 273.944852 120.424875 
L 274.163541 115.048875 
L 274.382231 115.048875 
L 274.60092 120.424875 
L 275.0383 120.424875 
L 275.256989 125.800875 
L 275.475679 125.800875 
L 275.694368 120.424875 
L 276.131747 120.424875 
L 276.350437 125.800875 
L 277.006505 125.800875 
L 277.225195 115.048875 
L 277.443884 115.048875 
L 277.662574 120.424875 
L 277.881263 120.424875 
L 278.099953 125.800875 
L 278.318642 125.800875 
L 278.756022 115.048875 
L 278.974711 120.424875 
L 279.41209 120.424875 
L 279.63078 125.800875 
L 280.068159 125.800875 
L 280.286848 120.424875 
L 280.942917 120.424875 
L 281.161606 125.800875 
L 281.598985 125.800875 
L 281.817675 120.424875 
L 282.473743 120.424875 
L 282.692433 125.800875 
L 282.911123 125.800875 
L 283.129812 120.424875 
L 284.441949 120.424875 
L 284.660639 115.048875 
L 284.879328 115.048875 
L 285.098018 120.424875 
L 285.972776 120.424875 
L 286.191465 115.048875 
L 286.847534 115.048875 
L 287.066224 120.424875 
L 287.503603 120.424875 
L 287.722292 115.048875 
L 288.378361 115.048875 
L 288.59705 120.424875 
L 288.81574 120.424875 
L 289.034429 115.048875 
L 289.909187 115.048875 
L 290.127877 120.424875 
L 290.346567 120.424875 
L 290.565256 115.048875 
L 291.221325 115.048875 
L 291.440014 109.672875 
L 291.877393 109.672875 
L 292.096083 115.048875 
L 292.314772 115.048875 
L 292.533462 109.672875 
L 292.752151 109.672875 
L 292.970841 104.296875 
L 293.18953 104.296875 
L 293.40822 109.672875 
L 294.064289 109.672875 
L 294.282978 104.296875 
L 294.720357 115.048875 
L 295.376426 98.920875 
L 295.595115 109.672875 
L 295.813805 104.296875 
L 296.251184 104.296875 
L 296.469873 109.672875 
L 296.907252 109.672875 
L 297.125942 104.296875 
L 297.78201 104.296875 
L 298.0007 109.672875 
L 298.21939 109.672875 
L 298.438079 104.296875 
L 299.968906 104.296875 
L 300.187595 98.920875 
L 300.406285 98.920875 
L 300.624974 104.296875 
L 300.843664 98.920875 
L 301.281043 82.792875 
L 301.499732 77.416875 
L 301.718422 77.416875 
L 301.937112 72.040875 
L 302.374491 72.040875 
L 302.59318 77.416875 
L 303.030559 77.416875 
L 303.467938 61.288875 
L 303.686628 66.664875 
L 304.998765 66.664875 
L 305.217454 61.288875 
L 305.873523 61.288875 
L 306.092213 66.664875 
L 306.529592 66.664875 
L 306.748281 61.288875 
L 307.40435 61.288875 
L 307.623039 66.664875 
L 308.279108 66.664875 
L 308.497797 61.288875 
L 308.716487 66.664875 
L 310.684693 66.664875 
L 310.903382 72.040875 
L 311.122072 72.040875 
L 311.340761 66.664875 
L 311.99683 66.664875 
L 312.434209 77.416875 
L 313.090277 77.416875 
L 313.308967 72.040875 
L 313.527657 77.416875 
L 319.869653 77.416875 
L 320.088342 72.040875 
L 320.525721 72.040875 
L 320.744411 82.792875 
L 320.963101 82.792875 
L 321.40048 72.040875 
L 321.619169 72.040875 
L 321.837859 77.416875 
L 326.430339 77.416875 
L 326.649028 82.792875 
L 326.867718 82.792875 
L 327.086407 77.416875 
L 327.523786 77.416875 
L 327.742476 82.792875 
L 331.241508 82.792875 
L 331.678887 93.544875 
L 331.897577 88.168875 
L 332.116266 88.168875 
L 332.334956 82.792875 
L 332.553646 82.792875 
L 332.772335 88.168875 
L 334.521851 88.168875 
L 334.740541 82.792875 
L 335.396609 82.792875 
L 335.615299 77.416875 
L 335.833988 82.792875 
L 336.490057 82.792875 
L 336.708747 77.416875 
L 336.927436 82.792875 
L 337.146126 82.792875 
L 337.364815 77.416875 
L 337.802194 77.416875 
L 338.020884 82.792875 
L 338.239573 82.792875 
L 338.458263 77.416875 
L 338.676952 77.416875 
L 338.895642 82.792875 
L 339.333021 82.792875 
L 339.55171 77.416875 
L 340.426469 77.416875 
L 340.645158 82.792875 
L 340.863848 82.792875 
L 341.082537 77.416875 
L 341.301227 77.416875 
L 341.519916 82.792875 
L 342.175985 82.792875 
L 342.394674 77.416875 
L 342.613364 82.792875 
L 342.832053 82.792875 
L 343.050743 88.168875 
L 343.269432 88.168875 
L 343.488122 82.792875 
L 343.925501 82.792875 
L 344.36288 93.544875 
L 344.58157 93.544875 
L 344.800259 88.168875 
L 345.237638 88.168875 
L 345.456328 93.544875 
L 346.987154 93.544875 
L 347.205844 88.168875 
L 347.861913 88.168875 
L 348.080602 93.544875 
L 348.517981 82.792875 
L 348.736671 82.792875 
L 348.95536 88.168875 
L 349.611429 88.168875 
L 349.830118 82.792875 
L 350.704876 82.792875 
L 350.923566 88.168875 
L 353.329151 88.168875 
L 353.54784 93.544875 
L 353.76653 93.544875 
L 353.985219 88.168875 
L 354.203909 93.544875 
L 355.297356 93.544875 
L 355.516046 98.920875 
L 355.953425 98.920875 
L 356.172115 93.544875 
L 356.390804 93.544875 
L 356.609494 104.296875 
L 356.828183 98.920875 
L 357.046873 98.920875 
L 357.265562 93.544875 
L 357.484252 93.544875 
L 357.702941 104.296875 
L 364.263627 104.296875 
L 364.482317 109.672875 
L 364.701006 104.296875 
L 365.575764 104.296875 
L 365.794454 109.672875 
L 366.013143 109.672875 
L 366.231833 104.296875 
L 366.450522 93.544875 
L 366.887901 93.544875 
L 367.325281 104.296875 
L 367.54397 93.544875 
L 367.76266 93.544875 
L 367.981349 88.168875 
L 368.418728 88.168875 
L 368.637418 93.544875 
L 368.856107 88.168875 
L 369.293486 88.168875 
L 369.512176 93.544875 
L 369.730865 93.544875 
L 369.949555 82.792875 
L 370.168244 93.544875 
L 370.386934 88.168875 
L 370.605623 88.168875 
L 370.824313 93.544875 
L 371.043003 88.168875 
L 371.480382 98.920875 
L 371.699071 93.544875 
L 371.917761 98.920875 
L 372.13645 98.920875 
L 372.35514 93.544875 
L 372.792519 104.296875 
L 374.979414 104.296875 
L 375.198104 98.920875 
L 375.635483 98.920875 
L 375.854172 104.296875 
L 376.510241 104.296875 
L 376.72893 98.920875 
L 376.94762 98.920875 
L 377.166309 104.296875 
L 377.822378 104.296875 
L 378.041067 98.920875 
L 378.259757 104.296875 
L 379.134515 104.296875 
L 379.353205 93.544875 
L 379.571894 93.544875 
L 379.790584 98.920875 
L 380.446652 98.920875 
L 380.665342 93.544875 
L 380.884031 93.544875 
L 381.102721 98.920875 
L 381.32141 93.544875 
L 381.5401 104.296875 
L 381.977479 93.544875 
L 382.633548 93.544875 
L 382.852237 104.296875 
L 383.070927 98.920875 
L 383.289616 98.920875 
L 383.508306 93.544875 
L 383.945685 93.544875 
L 384.164374 98.920875 
L 385.039132 98.920875 
L 385.257822 93.544875 
L 385.695201 104.296875 
L 388.100786 104.296875 
L 388.319475 98.920875 
L 388.538165 98.920875 
L 388.975544 109.672875 
L 389.412923 109.672875 
L 389.631612 104.296875 
L 391.599818 104.296875 
L 391.818508 98.920875 
L 392.037197 104.296875 
L 392.911955 104.296875 
L 393.130645 98.920875 
L 393.568024 98.920875 
L 393.786713 104.296875 
L 394.224093 104.296875 
L 394.442782 98.920875 
L 395.098851 98.920875 
L 395.31754 104.296875 
L 395.53623 104.296875 
L 395.973609 88.168875 
L 396.192298 88.168875 
L 396.410988 93.544875 
L 396.629677 93.544875 
L 396.848367 88.168875 
L 397.504435 88.168875 
L 397.504435 88.168875 
" style="fill:none;stroke:#0000ff;stroke-linecap:square;stroke-width:1.5;"/>
   </g>
   <g id="line2d_31">
    <path clip-path="url(#p8a0e07deb7)" d="M 40.603125 303.208875 
L 50.225464 303.208875 
L 50.444154 297.832875 
L 53.287118 297.832875 
L 53.505807 292.456875 
L 56.130082 292.456875 
L 56.567461 281.704875 
L 57.223529 281.704875 
L 57.442219 287.080875 
L 57.660908 287.080875 
L 57.879598 292.456875 
L 59.191735 292.456875 
L 59.410424 287.080875 
L 60.285183 287.080875 
L 60.503872 292.456875 
L 62.034699 292.456875 
L 62.253388 297.832875 
L 66.845868 297.832875 
L 67.064558 303.208875 
L 107.74081 303.208875 
L 107.9595 297.832875 
L 108.396879 297.832875 
L 108.615568 292.456875 
L 109.052947 292.456875 
L 109.271637 276.328875 
L 112.55198 276.328875 
L 112.770669 270.952875 
L 112.989359 276.328875 
L 113.426738 276.328875 
L 113.864117 292.456875 
L 114.082807 292.456875 
L 114.301496 297.832875 
L 114.520186 297.832875 
L 114.738875 303.208875 
L 137.045207 303.208875 
L 137.701276 287.080875 
L 138.357344 287.080875 
L 138.576034 281.704875 
L 138.794723 281.704875 
L 139.450792 265.576875 
L 140.10686 265.576875 
L 140.32555 260.200875 
L 140.54424 260.200875 
L 141.200308 233.320875 
L 141.637687 233.320875 
L 141.856377 227.944875 
L 142.293756 227.944875 
L 142.512445 222.568875 
L 142.731135 227.944875 
L 142.949824 227.944875 
L 143.168514 222.568875 
L 143.387203 222.568875 
L 143.605893 227.944875 
L 144.043272 211.816875 
L 144.261961 206.440875 
L 144.480651 217.192875 
L 144.699341 206.440875 
L 145.574099 206.440875 
L 145.792788 201.064875 
L 146.011478 201.064875 
L 146.230167 195.688875 
L 146.448857 195.688875 
L 146.667546 190.312875 
L 147.760994 190.312875 
L 147.979683 184.936875 
L 148.198373 184.936875 
L 148.417063 190.312875 
L 148.854442 179.560875 
L 149.073131 184.936875 
L 149.51051 184.936875 
L 149.7292 190.312875 
L 149.947889 190.312875 
L 151.260026 222.568875 
L 151.478716 222.568875 
L 151.916095 238.696875 
L 152.353474 249.448875 
L 152.572164 249.448875 
L 153.228232 265.576875 
L 153.446922 265.576875 
L 153.884301 276.328875 
L 156.289886 276.328875 
L 156.727265 287.080875 
L 156.945954 287.080875 
L 157.164644 297.832875 
L 157.383333 297.832875 
L 157.602023 303.208875 
L 169.411257 303.208875 
L 169.629947 297.832875 
L 169.848636 297.832875 
L 170.067326 292.456875 
L 170.286015 292.456875 
L 170.504705 281.704875 
L 170.723394 281.704875 
L 170.942084 276.328875 
L 173.566358 276.328875 
L 174.003737 265.576875 
L 175.097185 265.576875 
L 175.315875 260.200875 
L 177.721459 260.200875 
L 177.940149 265.576875 
L 179.470976 265.576875 
L 179.689665 270.952875 
L 181.220492 270.952875 
L 181.439181 265.576875 
L 181.657871 265.576875 
L 181.87656 270.952875 
L 182.09525 265.576875 
L 182.313939 265.576875 
L 182.532629 260.200875 
L 182.751319 260.200875 
L 183.188698 270.952875 
L 183.407387 270.952875 
L 183.844766 281.704875 
L 184.282145 281.704875 
L 184.500835 287.080875 
L 184.719524 287.080875 
L 184.938214 292.456875 
L 189.312004 292.456875 
L 189.530694 297.832875 
L 189.749383 297.832875 
L 189.968073 303.208875 
L 216.210816 303.208875 
L 216.429506 287.080875 
L 217.960333 287.080875 
L 218.397712 276.328875 
L 220.584607 276.328875 
L 220.803296 270.952875 
L 222.990192 270.952875 
L 223.208881 276.328875 
L 223.64626 276.328875 
L 223.86495 287.080875 
L 224.302329 287.080875 
L 224.521018 292.456875 
L 224.739708 292.456875 
L 224.958398 303.208875 
L 231.300394 303.208875 
L 231.519083 297.832875 
L 233.04991 297.832875 
L 233.2686 292.456875 
L 233.924668 292.456875 
L 234.143358 287.080875 
L 235.236805 238.696875 
L 235.455495 238.696875 
L 235.674184 233.320875 
L 236.330253 233.320875 
L 236.767632 217.192875 
L 237.205011 206.440875 
L 239.391906 206.440875 
L 239.610596 201.064875 
L 241.141423 201.064875 
L 241.360112 206.440875 
L 241.578802 206.440875 
L 241.797491 217.192875 
L 242.23487 217.192875 
L 242.45356 222.568875 
L 242.672249 217.192875 
L 243.547007 217.192875 
L 243.765697 211.816875 
L 244.421766 211.816875 
L 244.640455 217.192875 
L 244.859145 227.944875 
L 245.515213 227.944875 
L 245.733903 233.320875 
L 246.171282 249.448875 
L 246.608661 249.448875 
L 246.82735 260.200875 
L 247.483419 260.200875 
L 247.702108 265.576875 
L 247.920798 265.576875 
L 248.139488 270.952875 
L 248.576867 287.080875 
L 249.232935 287.080875 
L 249.889004 303.208875 
L 260.82348 303.208875 
L 261.04217 297.832875 
L 261.698238 297.832875 
L 261.916928 292.456875 
L 262.135617 292.456875 
L 262.354307 287.080875 
L 263.010375 287.080875 
L 263.229065 281.704875 
L 264.103823 281.704875 
L 264.322513 270.952875 
L 264.541202 270.952875 
L 264.759892 260.200875 
L 266.072029 260.200875 
L 266.290718 254.824875 
L 266.728097 254.824875 
L 266.946787 249.448875 
L 267.602856 249.448875 
L 267.821545 244.072875 
L 268.258924 244.072875 
L 268.477614 238.696875 
L 268.696303 238.696875 
L 268.914993 222.568875 
L 269.352372 222.568875 
L 269.571061 206.440875 
L 270.00844 206.440875 
L 270.445819 190.312875 
L 271.101888 190.312875 
L 271.320578 184.936875 
L 271.539267 163.432875 
L 271.757957 163.432875 
L 271.976646 158.056875 
L 273.070094 158.056875 
L 273.507473 141.928875 
L 273.726162 136.552875 
L 273.944852 136.552875 
L 274.163541 141.928875 
L 274.382231 141.928875 
L 274.60092 147.304875 
L 274.81961 147.304875 
L 275.256989 136.552875 
L 275.475679 141.928875 
L 275.913058 141.928875 
L 276.131747 136.552875 
L 276.569126 120.424875 
L 276.787816 120.424875 
L 277.006505 115.048875 
L 277.443884 115.048875 
L 277.881263 125.800875 
L 278.099953 109.672875 
L 278.537332 109.672875 
L 278.756022 115.048875 
L 278.974711 104.296875 
L 279.63078 104.296875 
L 279.849469 98.920875 
L 280.286848 98.920875 
L 280.505538 104.296875 
L 280.942917 104.296875 
L 281.161606 120.424875 
L 281.380296 125.800875 
L 281.598985 125.800875 
L 281.817675 120.424875 
L 282.036364 120.424875 
L 282.255054 125.800875 
L 284.441949 125.800875 
L 284.660639 120.424875 
L 285.754086 120.424875 
L 285.972776 125.800875 
L 286.410155 115.048875 
L 286.628845 115.048875 
L 286.847534 120.424875 
L 287.722292 120.424875 
L 287.940982 115.048875 
L 288.378361 115.048875 
L 288.59705 120.424875 
L 288.81574 120.424875 
L 289.034429 115.048875 
L 290.127877 115.048875 
L 290.346567 120.424875 
L 290.783946 109.672875 
L 291.877393 109.672875 
L 292.096083 115.048875 
L 292.314772 104.296875 
L 292.533462 109.672875 
L 292.970841 98.920875 
L 293.18953 109.672875 
L 293.40822 109.672875 
L 293.626909 104.296875 
L 293.845599 109.672875 
L 294.282978 109.672875 
L 294.720357 98.920875 
L 294.939047 98.920875 
L 295.157736 115.048875 
L 295.595115 104.296875 
L 299.531527 104.296875 
L 299.750216 109.672875 
L 299.968906 109.672875 
L 300.187595 98.920875 
L 300.624974 98.920875 
L 300.843664 93.544875 
L 301.281043 77.416875 
L 301.937112 77.416875 
L 302.155801 72.040875 
L 302.59318 72.040875 
L 302.81187 77.416875 
L 303.030559 77.416875 
L 303.249249 66.664875 
L 303.905317 66.664875 
L 304.124007 61.288875 
L 304.998765 61.288875 
L 305.217454 66.664875 
L 305.654834 66.664875 
L 305.873523 61.288875 
L 306.529592 61.288875 
L 306.748281 66.664875 
L 307.40435 66.664875 
L 307.623039 61.288875 
L 307.841729 61.288875 
L 308.060418 66.664875 
L 310.903382 66.664875 
L 311.122072 72.040875 
L 311.340761 72.040875 
L 311.559451 66.664875 
L 311.99683 66.664875 
L 312.434209 77.416875 
L 312.652898 77.416875 
L 312.871588 72.040875 
L 313.308967 72.040875 
L 313.527657 77.416875 
L 320.307032 77.416875 
L 320.525721 82.792875 
L 320.744411 82.792875 
L 321.18179 72.040875 
L 321.40048 72.040875 
L 321.837859 82.792875 
L 322.056548 82.792875 
L 322.275238 77.416875 
L 326.211649 77.416875 
L 326.430339 82.792875 
L 326.867718 82.792875 
L 327.086407 77.416875 
L 327.305097 77.416875 
L 327.523786 82.792875 
L 330.36675 82.792875 
L 330.58544 88.168875 
L 330.804129 82.792875 
L 331.678887 82.792875 
L 331.897577 93.544875 
L 332.116266 88.168875 
L 332.553646 88.168875 
L 332.772335 82.792875 
L 332.991025 88.168875 
L 333.865783 88.168875 
L 334.084472 82.792875 
L 334.303162 88.168875 
L 334.521851 88.168875 
L 334.740541 82.792875 
L 334.95923 82.792875 
L 335.17792 88.168875 
L 335.396609 82.792875 
L 335.615299 82.792875 
L 335.833988 77.416875 
L 336.052678 82.792875 
L 336.490057 82.792875 
L 336.708747 77.416875 
L 336.927436 82.792875 
L 337.364815 82.792875 
L 337.583505 77.416875 
L 337.802194 77.416875 
L 338.020884 82.792875 
L 338.239573 77.416875 
L 338.895642 77.416875 
L 339.114331 82.792875 
L 339.333021 82.792875 
L 339.55171 77.416875 
L 340.426469 77.416875 
L 340.645158 82.792875 
L 340.863848 77.416875 
L 341.082537 82.792875 
L 341.519916 82.792875 
L 341.738606 77.416875 
L 341.957295 77.416875 
L 342.175985 82.792875 
L 342.394674 82.792875 
L 342.613364 88.168875 
L 343.050743 88.168875 
L 343.269432 82.792875 
L 343.706811 82.792875 
L 343.925501 88.168875 
L 344.144191 88.168875 
L 344.36288 93.544875 
L 344.800259 93.544875 
L 345.018949 88.168875 
L 345.237638 88.168875 
L 345.456328 93.544875 
L 346.987154 93.544875 
L 347.205844 88.168875 
L 348.736671 88.168875 
L 348.95536 82.792875 
L 349.17405 82.792875 
L 349.392739 88.168875 
L 350.048808 88.168875 
L 350.267497 82.792875 
L 350.486187 82.792875 
L 350.704876 88.168875 
L 351.142255 88.168875 
L 351.360945 82.792875 
L 351.579634 82.792875 
L 351.798324 88.168875 
L 352.673082 88.168875 
L 352.891772 93.544875 
L 353.329151 93.544875 
L 353.54784 88.168875 
L 353.985219 88.168875 
L 354.203909 93.544875 
L 354.422598 93.544875 
L 354.641288 98.920875 
L 354.859977 93.544875 
L 355.078667 93.544875 
L 355.297356 98.920875 
L 355.516046 98.920875 
L 355.734736 93.544875 
L 355.953425 98.920875 
L 356.172115 93.544875 
L 356.828183 93.544875 
L 357.046873 98.920875 
L 357.702941 98.920875 
L 357.921631 104.296875 
L 366.013143 104.296875 
L 366.450522 93.544875 
L 366.887901 93.544875 
L 367.106591 88.168875 
L 367.325281 98.920875 
L 367.54397 93.544875 
L 367.76266 93.544875 
L 367.981349 88.168875 
L 368.418728 88.168875 
L 368.637418 93.544875 
L 368.856107 93.544875 
L 369.074797 88.168875 
L 369.293486 88.168875 
L 369.512176 93.544875 
L 369.949555 93.544875 
L 370.168244 88.168875 
L 370.386934 93.544875 
L 370.824313 93.544875 
L 371.043003 88.168875 
L 371.261692 88.168875 
L 371.699071 98.920875 
L 371.917761 98.920875 
L 372.13645 104.296875 
L 372.35514 98.920875 
L 372.792519 98.920875 
L 373.011208 104.296875 
L 375.416793 104.296875 
L 375.635483 98.920875 
L 376.072862 98.920875 
L 376.291551 104.296875 
L 376.72893 104.296875 
L 376.94762 98.920875 
L 377.166309 98.920875 
L 377.384999 104.296875 
L 378.259757 104.296875 
L 378.478446 109.672875 
L 378.915826 98.920875 
L 379.134515 98.920875 
L 379.353205 109.672875 
L 379.790584 109.672875 
L 380.227963 98.920875 
L 380.446652 98.920875 
L 380.665342 93.544875 
L 380.884031 98.920875 
L 381.102721 109.672875 
L 381.32141 109.672875 
L 381.5401 98.920875 
L 381.758789 98.920875 
L 381.977479 93.544875 
L 382.196168 93.544875 
L 382.414858 98.920875 
L 382.633548 98.920875 
L 382.852237 104.296875 
L 383.070927 104.296875 
L 383.508306 93.544875 
L 383.726995 93.544875 
L 383.945685 98.920875 
L 385.476511 98.920875 
L 385.695201 104.296875 
L 387.007338 104.296875 
L 387.226028 109.672875 
L 387.444717 109.672875 
L 387.663407 104.296875 
L 388.319475 104.296875 
L 388.538165 109.672875 
L 388.756854 109.672875 
L 388.975544 104.296875 
L 389.631612 104.296875 
L 389.850302 109.672875 
L 390.068992 109.672875 
L 390.287681 104.296875 
L 391.599818 104.296875 
L 391.818508 98.920875 
L 392.037197 98.920875 
L 392.255887 104.296875 
L 392.911955 104.296875 
L 393.130645 98.920875 
L 393.568024 98.920875 
L 393.786713 104.296875 
L 394.005403 104.296875 
L 394.224093 109.672875 
L 394.442782 98.920875 
L 395.31754 98.920875 
L 395.53623 104.296875 
L 396.192298 88.168875 
L 396.410988 88.168875 
L 396.629677 93.544875 
L 396.848367 88.168875 
L 397.504435 88.168875 
L 397.504435 88.168875 
" style="fill:none;stroke:#ff0000;stroke-linecap:square;stroke-width:1.5;"/>
   </g>
   <g id="line2d_32">
    <path clip-path="url(#p8a0e07deb7)" d="M 40.603125 303.208875 
L 49.350706 303.208875 
L 49.569396 297.832875 
L 55.255323 297.832875 
L 55.474013 303.208875 
L 55.692702 303.208875 
L 55.911392 297.832875 
L 62.909457 297.832875 
L 63.128146 303.208875 
L 80.18593 303.208875 
L 80.841998 287.080875 
L 81.279377 287.080875 
L 81.716756 276.328875 
L 81.935446 276.328875 
L 82.154135 265.576875 
L 82.372825 265.576875 
L 82.591514 260.200875 
L 83.028894 260.200875 
L 83.466273 249.448875 
L 84.341031 249.448875 
L 84.55972 254.824875 
L 84.77841 249.448875 
L 84.997099 249.448875 
L 85.215789 254.824875 
L 85.653168 254.824875 
L 85.871857 249.448875 
L 86.309236 249.448875 
L 86.746616 260.200875 
L 87.183995 260.200875 
L 87.402684 265.576875 
L 88.058753 265.576875 
L 88.277442 260.200875 
L 88.496132 260.200875 
L 88.714821 265.576875 
L 89.589579 265.576875 
L 89.808269 270.952875 
L 90.245648 270.952875 
L 90.683027 281.704875 
L 91.995164 281.704875 
L 92.213854 276.328875 
L 93.525991 276.328875 
L 93.74468 281.704875 
L 94.182059 281.704875 
L 94.619439 292.456875 
L 94.838128 292.456875 
L 95.275507 303.208875 
L 158.258091 303.208875 
L 158.69547 292.456875 
L 158.91416 292.456875 
L 159.351539 281.704875 
L 159.788918 281.704875 
L 160.007608 276.328875 
L 160.663676 276.328875 
L 160.882366 270.952875 
L 161.101055 270.952875 
L 161.319745 260.200875 
L 161.757124 260.200875 
L 161.975813 254.824875 
L 163.069261 254.824875 
L 163.28795 249.448875 
L 163.72533 249.448875 
L 163.944019 244.072875 
L 164.162709 244.072875 
L 164.381398 249.448875 
L 164.818777 238.696875 
L 165.037467 238.696875 
L 165.256156 244.072875 
L 165.474846 244.072875 
L 165.693535 238.696875 
L 166.786983 238.696875 
L 167.224362 249.448875 
L 167.661741 249.448875 
L 167.880431 254.824875 
L 168.09912 254.824875 
L 168.31781 249.448875 
L 169.411257 249.448875 
L 169.629947 244.072875 
L 170.723394 244.072875 
L 170.942084 260.200875 
L 172.91029 260.200875 
L 173.128979 265.576875 
L 173.347669 265.576875 
L 173.566358 276.328875 
L 173.785048 276.328875 
L 174.003737 281.704875 
L 175.097185 281.704875 
L 175.534564 297.832875 
L 176.409322 297.832875 
L 176.628012 303.208875 
L 210.08751 303.208875 
L 210.306199 297.832875 
L 210.743578 297.832875 
L 210.962268 292.456875 
L 211.837026 292.456875 
L 212.055715 287.080875 
L 219.709849 287.080875 
L 219.928538 292.456875 
L 220.365917 292.456875 
L 220.584607 297.832875 
L 224.521018 297.832875 
L 224.739708 303.208875 
L 239.610596 303.208875 
L 239.829285 297.832875 
L 240.047975 297.832875 
L 240.266664 292.456875 
L 243.765697 292.456875 
L 243.984386 297.832875 
L 248.358177 297.832875 
L 248.576867 303.208875 
L 296.469873 303.208875 
L 296.688563 297.832875 
L 297.125942 297.832875 
L 297.344631 292.456875 
L 297.78201 292.456875 
L 298.0007 287.080875 
L 298.21939 287.080875 
L 298.438079 281.704875 
L 298.656769 281.704875 
L 298.875458 270.952875 
L 299.094148 270.952875 
L 299.531527 249.448875 
L 299.750216 249.448875 
L 299.968906 244.072875 
L 300.187595 233.320875 
L 300.406285 233.320875 
L 300.624974 227.944875 
L 300.843664 227.944875 
L 301.062353 222.568875 
L 301.281043 211.816875 
L 301.499732 211.816875 
L 302.155801 195.688875 
L 302.374491 184.936875 
L 302.81187 184.936875 
L 303.030559 190.312875 
L 303.249249 184.936875 
L 303.905317 158.056875 
L 304.124007 163.432875 
L 304.342696 141.928875 
L 304.780075 131.176875 
L 305.217454 109.672875 
L 305.436144 109.672875 
L 305.654834 104.296875 
L 306.092213 88.168875 
L 306.310902 88.168875 
L 306.529592 82.792875 
L 306.748281 66.664875 
L 306.966971 66.664875 
L 307.18566 61.288875 
L 307.40435 66.664875 
L 311.340761 66.664875 
L 311.559451 72.040875 
L 311.77814 72.040875 
L 311.99683 77.416875 
L 312.215519 77.416875 
L 312.434209 66.664875 
L 312.652898 72.040875 
L 312.871588 72.040875 
L 313.090277 77.416875 
L 320.525721 77.416875 
L 320.744411 72.040875 
L 320.963101 72.040875 
L 321.18179 77.416875 
L 321.40048 77.416875 
L 321.619169 82.792875 
L 321.837859 82.792875 
L 322.056548 77.416875 
L 327.086407 77.416875 
L 327.305097 82.792875 
L 330.58544 82.792875 
L 330.804129 88.168875 
L 331.241508 88.168875 
L 331.460198 77.416875 
L 331.897577 88.168875 
L 332.116266 88.168875 
L 332.334956 93.544875 
L 332.553646 88.168875 
L 334.521851 88.168875 
L 334.740541 82.792875 
L 334.95923 82.792875 
L 335.17792 88.168875 
L 335.396609 82.792875 
L 335.833988 82.792875 
L 336.052678 77.416875 
L 336.490057 77.416875 
L 336.708747 82.792875 
L 336.927436 77.416875 
L 337.146126 77.416875 
L 337.364815 82.792875 
L 337.802194 82.792875 
L 338.020884 77.416875 
L 338.239573 82.792875 
L 338.676952 82.792875 
L 338.895642 77.416875 
L 339.7704 77.416875 
L 339.989089 82.792875 
L 340.207779 82.792875 
L 340.426469 77.416875 
L 340.645158 77.416875 
L 340.863848 82.792875 
L 341.082537 82.792875 
L 341.301227 77.416875 
L 341.519916 82.792875 
L 341.738606 77.416875 
L 341.957295 77.416875 
L 342.175985 82.792875 
L 343.488122 82.792875 
L 343.706811 88.168875 
L 344.58157 88.168875 
L 344.800259 93.544875 
L 346.331086 93.544875 
L 346.549775 88.168875 
L 346.987154 88.168875 
L 347.205844 93.544875 
L 347.643223 93.544875 
L 347.861913 88.168875 
L 349.17405 88.168875 
L 349.392739 82.792875 
L 349.830118 82.792875 
L 350.048808 88.168875 
L 350.923566 88.168875 
L 351.142255 82.792875 
L 351.360945 82.792875 
L 351.579634 88.168875 
L 352.673082 88.168875 
L 352.891772 93.544875 
L 353.110461 93.544875 
L 353.329151 88.168875 
L 353.76653 88.168875 
L 353.985219 93.544875 
L 354.641288 93.544875 
L 354.859977 98.920875 
L 355.297356 98.920875 
L 355.516046 93.544875 
L 355.734736 98.920875 
L 357.046873 98.920875 
L 357.265562 93.544875 
L 357.484252 98.920875 
L 357.921631 98.920875 
L 358.14032 104.296875 
L 365.575764 104.296875 
L 365.794454 93.544875 
L 366.013143 93.544875 
L 366.231833 98.920875 
L 366.450522 98.920875 
L 366.669212 104.296875 
L 366.887901 104.296875 
L 367.106591 88.168875 
L 367.325281 88.168875 
L 367.54397 93.544875 
L 367.76266 93.544875 
L 367.981349 88.168875 
L 368.200039 93.544875 
L 368.418728 93.544875 
L 368.637418 88.168875 
L 369.293486 88.168875 
L 369.512176 93.544875 
L 369.730865 88.168875 
L 369.949555 88.168875 
L 370.168244 93.544875 
L 370.386934 88.168875 
L 370.605623 88.168875 
L 370.824313 93.544875 
L 371.917761 93.544875 
L 372.35514 104.296875 
L 375.635483 104.296875 
L 375.854172 98.920875 
L 376.510241 98.920875 
L 376.72893 104.296875 
L 378.478446 104.296875 
L 378.697136 98.920875 
L 378.915826 98.920875 
L 379.353205 109.672875 
L 379.571894 104.296875 
L 379.790584 104.296875 
L 380.009273 98.920875 
L 380.227963 98.920875 
L 380.446652 93.544875 
L 381.102721 109.672875 
L 381.32141 93.544875 
L 381.758789 93.544875 
L 382.196168 104.296875 
L 382.414858 104.296875 
L 382.852237 93.544875 
L 383.289616 93.544875 
L 383.726995 104.296875 
L 383.945685 98.920875 
L 384.383064 98.920875 
L 384.601753 93.544875 
L 384.820443 98.920875 
L 385.039132 98.920875 
L 385.257822 104.296875 
L 385.476511 104.296875 
L 385.695201 98.920875 
L 386.13258 98.920875 
L 386.35127 104.296875 
L 387.882096 104.296875 
L 388.100786 109.672875 
L 388.756854 109.672875 
L 388.975544 104.296875 
L 389.631612 104.296875 
L 389.850302 109.672875 
L 390.068992 109.672875 
L 390.287681 104.296875 
L 390.94375 104.296875 
L 391.162439 98.920875 
L 391.381129 104.296875 
L 392.255887 104.296875 
L 392.474576 98.920875 
L 392.693266 98.920875 
L 392.911955 104.296875 
L 393.568024 104.296875 
L 393.786713 98.920875 
L 394.442782 98.920875 
L 394.661472 109.672875 
L 394.880161 109.672875 
L 395.098851 98.920875 
L 395.31754 98.920875 
L 395.53623 93.544875 
L 395.973609 93.544875 
L 396.192298 98.920875 
L 396.410988 88.168875 
L 396.629677 88.168875 
L 396.848367 93.544875 
L 397.067056 93.544875 
L 397.285746 88.168875 
L 397.504435 88.168875 
L 397.504435 88.168875 
" style="fill:none;stroke:#00ffff;stroke-linecap:square;stroke-width:1.5;"/>
   </g>
   <g id="line2d_33">
    <path clip-path="url(#p8a0e07deb7)" d="M 40.603125 303.208875 
L 57.223529 303.208875 
L 57.442219 297.832875 
L 64.877663 297.832875 
L 65.096352 292.456875 
L 68.376695 292.456875 
L 68.595385 297.832875 
L 69.251453 297.832875 
L 69.470143 303.208875 
L 76.030829 303.208875 
L 76.249518 297.832875 
L 76.905587 297.832875 
L 77.124276 303.208875 
L 139.669481 303.208875 
L 139.888171 297.832875 
L 140.32555 297.832875 
L 140.54424 292.456875 
L 141.637687 292.456875 
L 142.075066 281.704875 
L 142.731135 281.704875 
L 143.168514 270.952875 
L 144.480651 270.952875 
L 144.699341 265.576875 
L 144.91803 265.576875 
L 145.355409 254.824875 
L 148.635752 254.824875 
L 148.854442 260.200875 
L 149.073131 254.824875 
L 150.822647 254.824875 
L 151.041337 260.200875 
L 153.665611 260.200875 
L 154.10299 270.952875 
L 154.540369 270.952875 
L 154.977748 281.704875 
L 156.289886 281.704875 
L 156.508575 287.080875 
L 157.602023 287.080875 
L 157.820712 292.456875 
L 160.226297 292.456875 
L 160.663676 303.208875 
L 289.253119 303.208875 
L 289.471808 292.456875 
L 289.690498 292.456875 
L 289.909187 287.080875 
L 290.346567 270.952875 
L 290.565256 270.952875 
L 290.783946 265.576875 
L 291.221325 265.576875 
L 291.658704 254.824875 
L 292.096083 254.824875 
L 292.533462 244.072875 
L 292.752151 249.448875 
L 292.970841 238.696875 
L 293.18953 238.696875 
L 293.40822 227.944875 
L 293.626909 227.944875 
L 294.064289 217.192875 
L 294.282978 206.440875 
L 294.720357 206.440875 
L 294.939047 201.064875 
L 295.595115 201.064875 
L 296.032494 190.312875 
L 296.251184 179.560875 
L 296.469873 179.560875 
L 296.907252 163.432875 
L 297.125942 158.056875 
L 297.344631 141.928875 
L 297.563321 147.304875 
L 297.78201 131.176875 
L 298.0007 131.176875 
L 298.438079 120.424875 
L 298.656769 131.176875 
L 298.875458 120.424875 
L 299.094148 120.424875 
L 299.531527 109.672875 
L 299.968906 82.792875 
L 301.281043 82.792875 
L 301.499732 88.168875 
L 301.718422 88.168875 
L 301.937112 72.040875 
L 302.155801 66.664875 
L 302.81187 66.664875 
L 303.030559 72.040875 
L 303.249249 66.664875 
L 303.686628 66.664875 
L 303.905317 61.288875 
L 304.124007 61.288875 
L 304.342696 66.664875 
L 304.561386 66.664875 
L 304.780075 61.288875 
L 304.998765 61.288875 
L 305.217454 66.664875 
L 305.873523 66.664875 
L 306.092213 61.288875 
L 306.748281 61.288875 
L 306.966971 66.664875 
L 307.40435 66.664875 
L 307.623039 61.288875 
L 307.841729 61.288875 
L 308.060418 66.664875 
L 310.903382 66.664875 
L 311.122072 72.040875 
L 311.559451 72.040875 
L 311.77814 66.664875 
L 312.215519 66.664875 
L 312.434209 77.416875 
L 312.871588 77.416875 
L 313.090277 72.040875 
L 313.308967 72.040875 
L 313.527657 77.416875 
L 320.525721 77.416875 
L 320.744411 82.792875 
L 320.963101 82.792875 
L 321.18179 72.040875 
L 321.619169 72.040875 
L 321.837859 77.416875 
L 326.430339 77.416875 
L 326.649028 82.792875 
L 327.086407 82.792875 
L 327.305097 77.416875 
L 327.523786 77.416875 
L 327.742476 82.792875 
L 330.36675 82.792875 
L 330.58544 88.168875 
L 330.804129 88.168875 
L 331.022819 82.792875 
L 331.678887 82.792875 
L 331.897577 88.168875 
L 332.553646 88.168875 
L 332.772335 82.792875 
L 332.991025 88.168875 
L 334.521851 88.168875 
L 334.740541 82.792875 
L 335.17792 82.792875 
L 335.396609 88.168875 
L 335.833988 77.416875 
L 336.052678 82.792875 
L 336.708747 82.792875 
L 336.927436 77.416875 
L 337.146126 82.792875 
L 337.583505 82.792875 
L 337.802194 77.416875 
L 338.020884 77.416875 
L 338.239573 82.792875 
L 338.458263 77.416875 
L 338.895642 77.416875 
L 339.114331 82.792875 
L 339.55171 82.792875 
L 339.7704 77.416875 
L 340.645158 77.416875 
L 340.863848 82.792875 
L 341.082537 77.416875 
L 341.301227 82.792875 
L 341.519916 82.792875 
L 341.738606 77.416875 
L 342.175985 77.416875 
L 342.394674 82.792875 
L 342.613364 82.792875 
L 342.832053 88.168875 
L 343.050743 88.168875 
L 343.269432 82.792875 
L 343.706811 82.792875 
L 343.925501 88.168875 
L 344.144191 88.168875 
L 344.36288 93.544875 
L 345.018949 93.544875 
L 345.237638 88.168875 
L 345.456328 93.544875 
L 346.987154 93.544875 
L 347.205844 88.168875 
L 348.736671 88.168875 
L 348.95536 82.792875 
L 349.392739 82.792875 
L 349.611429 88.168875 
L 350.048808 88.168875 
L 350.267497 82.792875 
L 350.486187 82.792875 
L 350.704876 88.168875 
L 352.891772 88.168875 
L 353.110461 93.544875 
L 353.329151 93.544875 
L 353.54784 88.168875 
L 353.76653 88.168875 
L 353.985219 93.544875 
L 354.203909 88.168875 
L 354.422598 93.544875 
L 355.078667 93.544875 
L 355.297356 98.920875 
L 355.734736 98.920875 
L 355.953425 93.544875 
L 356.172115 98.920875 
L 356.390804 93.544875 
L 356.828183 93.544875 
L 357.265562 104.296875 
L 357.484252 98.920875 
L 357.702941 104.296875 
L 365.794454 104.296875 
L 366.013143 109.672875 
L 366.231833 98.920875 
L 366.450522 98.920875 
L 366.669212 93.544875 
L 366.887901 93.544875 
L 367.106591 88.168875 
L 367.325281 93.544875 
L 367.76266 93.544875 
L 367.981349 88.168875 
L 368.418728 88.168875 
L 368.637418 93.544875 
L 368.856107 88.168875 
L 369.512176 88.168875 
L 369.730865 93.544875 
L 369.949555 88.168875 
L 370.386934 88.168875 
L 370.605623 93.544875 
L 371.043003 93.544875 
L 371.261692 88.168875 
L 371.699071 98.920875 
L 371.917761 98.920875 
L 372.13645 104.296875 
L 372.35514 104.296875 
L 372.573829 98.920875 
L 372.792519 104.296875 
L 373.011208 98.920875 
L 373.229898 104.296875 
L 375.416793 104.296875 
L 375.635483 98.920875 
L 376.072862 98.920875 
L 376.291551 104.296875 
L 376.94762 104.296875 
L 377.166309 98.920875 
L 377.384999 104.296875 
L 378.697136 104.296875 
L 378.915826 98.920875 
L 379.134515 98.920875 
L 379.353205 104.296875 
L 380.009273 104.296875 
L 380.446652 93.544875 
L 381.102721 93.544875 
L 381.32141 109.672875 
L 381.758789 98.920875 
L 381.977479 98.920875 
L 382.196168 93.544875 
L 382.414858 93.544875 
L 382.633548 98.920875 
L 382.852237 98.920875 
L 383.070927 104.296875 
L 383.289616 104.296875 
L 383.508306 93.544875 
L 383.726995 93.544875 
L 383.945685 98.920875 
L 385.476511 98.920875 
L 385.695201 104.296875 
L 387.226028 104.296875 
L 387.444717 109.672875 
L 387.663407 104.296875 
L 388.319475 104.296875 
L 388.538165 109.672875 
L 388.975544 109.672875 
L 389.194233 104.296875 
L 389.850302 104.296875 
L 390.068992 109.672875 
L 390.287681 104.296875 
L 391.818508 104.296875 
L 392.037197 98.920875 
L 392.255887 98.920875 
L 392.474576 104.296875 
L 393.130645 104.296875 
L 393.349334 98.920875 
L 393.786713 98.920875 
L 394.224093 109.672875 
L 394.442782 109.672875 
L 394.661472 98.920875 
L 395.31754 98.920875 
L 395.53623 104.296875 
L 395.754919 104.296875 
L 395.973609 93.544875 
L 396.192298 93.544875 
L 396.410988 88.168875 
L 397.504435 88.168875 
L 397.504435 88.168875 
" style="fill:none;stroke:#ff00ff;stroke-linecap:square;stroke-width:1.5;"/>
   </g>
   <g id="line2d_34">
    <path clip-path="url(#p8a0e07deb7)" d="M 40.603125 303.208875 
L 66.845868 303.208875 
L 67.064558 297.832875 
L 69.470143 297.832875 
L 69.688832 292.456875 
L 70.344901 292.456875 
L 70.56359 297.832875 
L 70.78228 292.456875 
L 72.094417 292.456875 
L 72.313107 287.080875 
L 73.843933 287.080875 
L 74.062623 292.456875 
L 76.686897 292.456875 
L 76.905587 297.832875 
L 77.999034 297.832875 
L 78.217724 303.208875 
L 168.09912 303.208875 
L 168.31781 297.832875 
L 172.254221 297.832875 
L 172.472911 292.456875 
L 173.128979 292.456875 
L 173.347669 297.832875 
L 175.315875 297.832875 
L 175.534564 303.208875 
L 231.300394 303.208875 
L 231.519083 297.832875 
L 232.831221 297.832875 
L 233.04991 303.208875 
L 236.330253 303.208875 
L 236.548943 297.832875 
L 238.954527 297.832875 
L 239.173217 303.208875 
L 241.141423 303.208875 
L 241.360112 297.832875 
L 347.861913 297.832875 
L 348.080602 303.208875 
L 361.858042 303.208875 
L 362.076732 297.832875 
L 383.726995 297.832875 
L 383.945685 292.456875 
L 384.164374 297.832875 
L 384.820443 297.832875 
L 385.039132 292.456875 
L 397.504435 292.456875 
L 397.504435 292.456875 
" style="fill:none;stroke:#000000;stroke-linecap:square;stroke-width:1.5;"/>
   </g>
   <g id="patch_3">
    <path d="M 40.603125 315.304875 
L 40.603125 49.192875 
" style="fill:none;stroke:#000000;stroke-linecap:square;stroke-linejoin:miter;stroke-width:0.8;"/>
   </g>
   <g id="patch_4">
    <path d="M 397.723125 315.304875 
L 397.723125 49.192875 
" style="fill:none;stroke:#000000;stroke-linecap:square;stroke-linejoin:miter;stroke-width:0.8;"/>
   </g>
   <g id="patch_5">
    <path d="M 40.603125 315.304875 
L 397.723125 315.304875 
" style="fill:none;stroke:#000000;stroke-linecap:square;stroke-linejoin:miter;stroke-width:0.8;"/>
   </g>
   <g id="patch_6">
    <path d="M 40.603125 49.192875 
L 397.723125 49.192875 
" style="fill:none;stroke:#000000;stroke-linecap:square;stroke-linejoin:miter;stroke-width:0.8;"/>
   </g>
   <g id="text_17">
    <!-- Discovered nodes per time -->
    <defs>
     <path d="M 54.890625 33.015625 
L 54.890625 0 
L 45.90625 0 
L 45.90625 32.71875 
Q 45.90625 40.484375 42.875 44.328125 
Q 39.84375 48.1875 33.796875 48.1875 
Q 26.515625 48.1875 22.3125 43.546875 
Q 18.109375 38.921875 18.109375 30.90625 
L 18.109375 0 
L 9.078125 0 
L 9.078125 54.6875 
L 18.109375 54.6875 
L 18.109375 46.1875 
Q 21.34375 51.125 25.703125 53.5625 
Q 30.078125 56 35.796875 56 
Q 45.21875 56 50.046875 50.171875 
Q 54.890625 44.34375 54.890625 33.015625 
z
" id="DejaVuSans-6e"/>
     <path d="M 18.109375 8.203125 
L 18.109375 -20.796875 
L 9.078125 -20.796875 
L 9.078125 54.6875 
L 18.109375 54.6875 
L 18.109375 46.390625 
Q 20.953125 51.265625 25.265625 53.625 
Q 29.59375 56 35.59375 56 
Q 45.5625 56 51.78125 48.09375 
Q 58.015625 40.1875 58.015625 27.296875 
Q 58.015625 14.40625 51.78125 6.484375 
Q 45.5625 -1.421875 35.59375 -1.421875 
Q 29.59375 -1.421875 25.265625 0.953125 
Q 20.953125 3.328125 18.109375 8.203125 
z
M 48.6875 27.296875 
Q 48.6875 37.203125 44.609375 42.84375 
Q 40.53125 48.484375 33.40625 48.484375 
Q 26.265625 48.484375 22.1875 42.84375 
Q 18.109375 37.203125 18.109375 27.296875 
Q 18.109375 17.390625 22.1875 11.75 
Q 26.265625 6.109375 33.40625 6.109375 
Q 40.53125 6.109375 44.609375 11.75 
Q 48.6875 17.390625 48.6875 27.296875 
z
" id="DejaVuSans-70"/>
     <path d="M 18.3125 70.21875 
L 18.3125 54.6875 
L 36.8125 54.6875 
L 36.8125 47.703125 
L 18.3125 47.703125 
L 18.3125 18.015625 
Q 18.3125 11.328125 20.140625 9.421875 
Q 21.96875 7.515625 27.59375 7.515625 
L 36.8125 7.515625 
L 36.8125 0 
L 27.59375 0 
Q 17.1875 0 13.234375 3.875 
Q 9.28125 7.765625 9.28125 18.015625 
L 9.28125 47.703125 
L 2.6875 47.703125 
L 2.6875 54.6875 
L 9.28125 54.6875 
L 9.28125 70.21875 
z
" id="DejaVuSans-74"/>
    </defs>
    <g transform="translate(138.227813 16.318125)scale(0.12 -0.12)">
     <use xlink:href="#DejaVuSans-44"/>
     <use x="77.001953" xlink:href="#DejaVuSans-69"/>
     <use x="104.785156" xlink:href="#DejaVuSans-73"/>
     <use x="156.884766" xlink:href="#DejaVuSans-63"/>
     <use x="211.865234" xlink:href="#DejaVuSans-6f"/>
     <use x="273.046875" xlink:href="#DejaVuSans-76"/>
     <use x="332.226562" xlink:href="#DejaVuSans-65"/>
     <use x="393.75" xlink:href="#DejaVuSans-72"/>
     <use x="434.832031" xlink:href="#DejaVuSans-65"/>
     <use x="496.355469" xlink:href="#DejaVuSans-64"/>
     <use x="559.832031" xlink:href="#DejaVuSans-20"/>
     <use x="591.619141" xlink:href="#DejaVuSans-6e"/>
     <use x="654.998047" xlink:href="#DejaVuSans-6f"/>
     <use x="716.179688" xlink:href="#DejaVuSans-64"/>
     <use x="779.65625" xlink:href="#DejaVuSans-65"/>
     <use x="841.179688" xlink:href="#DejaVuSans-73"/>
     <use x="893.279297" xlink:href="#DejaVuSans-20"/>
     <use x="925.066406" xlink:href="#DejaVuSans-70"/>
     <use x="988.542969" xlink:href="#DejaVuSans-65"/>
     <use x="1050.066406" xlink:href="#DejaVuSans-72"/>
     <use x="1091.179688" xlink:href="#DejaVuSans-20"/>
     <use x="1122.966797" xlink:href="#DejaVuSans-74"/>
     <use x="1162.175781" xlink:href="#DejaVuSans-69"/>
     <use x="1189.958984" xlink:href="#DejaVuSans-6d"/>
     <use x="1287.371094" xlink:href="#DejaVuSans-65"/>
    </g>
    <!--  -->
    <g transform="translate(219.163125 29.7555)scale(0.12 -0.12)"/>
    <!--  -->
    <g transform="translate(219.163125 43.192875)scale(0.12 -0.12)"/>
   </g>
   <g id="legend_1">
    <g id="patch_7">
     <path d="M 411.865525 139.939385 
L 482.471775 139.939385 
Q 484.471775 139.939385 484.471775 137.939385 
L 484.471775 50.870635 
Q 484.471775 48.870635 482.471775 48.870635 
L 411.865525 48.870635 
Q 409.865525 48.870635 409.865525 50.870635 
L 409.865525 137.939385 
Q 409.865525 139.939385 411.865525 139.939385 
z
" style="fill:#ffffff;opacity:0.8;stroke:#cccccc;stroke-linejoin:miter;"/>
    </g>
    <g id="line2d_35">
     <path d="M 413.865525 56.969072 
L 433.865525 56.969072 
" style="fill:none;stroke:#008000;stroke-linecap:square;stroke-width:1.5;"/>
    </g>
    <g id="line2d_36"/>
    <g id="text_18">
     <!-- drone 0 -->
     <g transform="translate(441.865525 60.469072)scale(0.1 -0.1)">
      <use xlink:href="#DejaVuSans-64"/>
      <use x="63.476562" xlink:href="#DejaVuSans-72"/>
      <use x="104.558594" xlink:href="#DejaVuSans-6f"/>
      <use x="165.740234" xlink:href="#DejaVuSans-6e"/>
      <use x="229.119141" xlink:href="#DejaVuSans-65"/>
      <use x="290.642578" xlink:href="#DejaVuSans-20"/>
      <use x="322.429688" xlink:href="#DejaVuSans-30"/>
     </g>
    </g>
    <g id="line2d_37">
     <path d="M 413.865525 71.647197 
L 433.865525 71.647197 
" style="fill:none;stroke:#0000ff;stroke-linecap:square;stroke-width:1.5;"/>
    </g>
    <g id="line2d_38"/>
    <g id="text_19">
     <!-- drone 1 -->
     <g transform="translate(441.865525 75.147197)scale(0.1 -0.1)">
      <use xlink:href="#DejaVuSans-64"/>
      <use x="63.476562" xlink:href="#DejaVuSans-72"/>
      <use x="104.558594" xlink:href="#DejaVuSans-6f"/>
      <use x="165.740234" xlink:href="#DejaVuSans-6e"/>
      <use x="229.119141" xlink:href="#DejaVuSans-65"/>
      <use x="290.642578" xlink:href="#DejaVuSans-20"/>
      <use x="322.429688" xlink:href="#DejaVuSans-31"/>
     </g>
    </g>
    <g id="line2d_39">
     <path d="M 413.865525 86.325322 
L 433.865525 86.325322 
" style="fill:none;stroke:#ff0000;stroke-linecap:square;stroke-width:1.5;"/>
    </g>
    <g id="line2d_40"/>
    <g id="text_20">
     <!-- drone 2 -->
     <g transform="translate(441.865525 89.825322)scale(0.1 -0.1)">
      <use xlink:href="#DejaVuSans-64"/>
      <use x="63.476562" xlink:href="#DejaVuSans-72"/>
      <use x="104.558594" xlink:href="#DejaVuSans-6f"/>
      <use x="165.740234" xlink:href="#DejaVuSans-6e"/>
      <use x="229.119141" xlink:href="#DejaVuSans-65"/>
      <use x="290.642578" xlink:href="#DejaVuSans-20"/>
      <use x="322.429688" xlink:href="#DejaVuSans-32"/>
     </g>
    </g>
    <g id="line2d_41">
     <path d="M 413.865525 101.003447 
L 433.865525 101.003447 
" style="fill:none;stroke:#00ffff;stroke-linecap:square;stroke-width:1.5;"/>
    </g>
    <g id="line2d_42"/>
    <g id="text_21">
     <!-- drone 3 -->
     <g transform="translate(441.865525 104.503447)scale(0.1 -0.1)">
      <use xlink:href="#DejaVuSans-64"/>
      <use x="63.476562" xlink:href="#DejaVuSans-72"/>
      <use x="104.558594" xlink:href="#DejaVuSans-6f"/>
      <use x="165.740234" xlink:href="#DejaVuSans-6e"/>
      <use x="229.119141" xlink:href="#DejaVuSans-65"/>
      <use x="290.642578" xlink:href="#DejaVuSans-20"/>
      <use x="322.429688" xlink:href="#DejaVuSans-33"/>
     </g>
    </g>
    <g id="line2d_43">
     <path d="M 413.865525 115.681572 
L 433.865525 115.681572 
" style="fill:none;stroke:#ff00ff;stroke-linecap:square;stroke-width:1.5;"/>
    </g>
    <g id="line2d_44"/>
    <g id="text_22">
     <!-- drone 4 -->
     <g transform="translate(441.865525 119.181572)scale(0.1 -0.1)">
      <use xlink:href="#DejaVuSans-64"/>
      <use x="63.476562" xlink:href="#DejaVuSans-72"/>
      <use x="104.558594" xlink:href="#DejaVuSans-6f"/>
      <use x="165.740234" xlink:href="#DejaVuSans-6e"/>
      <use x="229.119141" xlink:href="#DejaVuSans-65"/>
      <use x="290.642578" xlink:href="#DejaVuSans-20"/>
      <use x="322.429688" xlink:href="#DejaVuSans-34"/>
     </g>
    </g>
    <g id="line2d_45">
     <path d="M 413.865525 130.359697 
L 433.865525 130.359697 
" style="fill:none;stroke:#000000;stroke-linecap:square;stroke-width:1.5;"/>
    </g>
    <g id="line2d_46"/>
    <g id="text_23">
     <!-- drone 5 -->
     <defs>
      <path d="M 10.796875 72.90625 
L 49.515625 72.90625 
L 49.515625 64.59375 
L 19.828125 64.59375 
L 19.828125 46.734375 
Q 21.96875 47.46875 24.109375 47.828125 
Q 26.265625 48.1875 28.421875 48.1875 
Q 40.625 48.1875 47.75 41.5 
Q 54.890625 34.8125 54.890625 23.390625 
Q 54.890625 11.625 47.5625 5.09375 
Q 40.234375 -1.421875 26.90625 -1.421875 
Q 22.3125 -1.421875 17.546875 -0.640625 
Q 12.796875 0.140625 7.71875 1.703125 
L 7.71875 11.625 
Q 12.109375 9.234375 16.796875 8.0625 
Q 21.484375 6.890625 26.703125 6.890625 
Q 35.15625 6.890625 40.078125 11.328125 
Q 45.015625 15.765625 45.015625 23.390625 
Q 45.015625 31 40.078125 35.4375 
Q 35.15625 39.890625 26.703125 39.890625 
Q 22.75 39.890625 18.8125 39.015625 
Q 14.890625 38.140625 10.796875 36.28125 
z
" id="DejaVuSans-35"/>
     </defs>
     <g transform="translate(441.865525 133.859697)scale(0.1 -0.1)">
      <use xlink:href="#DejaVuSans-64"/>
      <use x="63.476562" xlink:href="#DejaVuSans-72"/>
      <use x="104.558594" xlink:href="#DejaVuSans-6f"/>
      <use x="165.740234" xlink:href="#DejaVuSans-6e"/>
      <use x="229.119141" xlink:href="#DejaVuSans-65"/>
      <use x="290.642578" xlink:href="#DejaVuSans-20"/>
      <use x="322.429688" xlink:href="#DejaVuSans-35"/>
     </g>
    </g>
   </g>
  </g>
 </g>
 <defs>
  <clipPath id="p8a0e07deb7">
   <rect height="266.112" width="357.12" x="40.603125" y="49.192875"/>
  </clipPath>
 </defs>
</svg>
