<?xml version="1.0" encoding="utf-8" standalone="no"?>
<!DOCTYPE svg PUBLIC "-//W3C//DTD SVG 1.1//EN"
  "http://www.w3.org/Graphics/SVG/1.1/DTD/svg11.dtd">
<!-- Created with matplotlib (http://matplotlib.org/) -->
<svg height="352pt" version="1.1" viewBox="0 0 491 352" width="491pt" xmlns="http://www.w3.org/2000/svg" xmlns:xlink="http://www.w3.org/1999/xlink">
 <defs>
  <style type="text/css">
*{stroke-linecap:butt;stroke-linejoin:round;}
  </style>
 </defs>
 <g id="figure_1">
  <g id="patch_1">
   <path d="M 0 352.861125 
L 491.671775 352.861125 
L 491.671775 0 
L 0 0 
z
" style="fill:#ffffff;"/>
  </g>
  <g id="axes_1">
   <g id="patch_2">
    <path d="M 40.603125 315.304875 
L 397.723125 315.304875 
L 397.723125 49.192875 
L 40.603125 49.192875 
z
" style="fill:#ffffff;"/>
   </g>
   <g id="matplotlib.axis_1">
    <g id="xtick_1">
     <g id="line2d_1">
      <path clip-path="url(#pe363317f84)" d="M 40.603125 315.304875 
L 40.603125 49.192875 
" style="fill:none;stroke:#b0b0b0;stroke-linecap:square;stroke-width:0.8;"/>
     </g>
     <g id="line2d_2">
      <defs>
       <path d="M 0 0 
L 0 3.5 
" id="m90cdda1a24" style="stroke:#000000;stroke-width:0.8;"/>
      </defs>
      <g>
       <use style="stroke:#000000;stroke-width:0.8;" x="40.603125" xlink:href="#m90cdda1a24" y="315.304875"/>
      </g>
     </g>
     <g id="text_1">
      <!-- 0 -->
      <defs>
       <path d="M 31.78125 66.40625 
Q 24.171875 66.40625 20.328125 58.90625 
Q 16.5 51.421875 16.5 36.375 
Q 16.5 21.390625 20.328125 13.890625 
Q 24.171875 6.390625 31.78125 6.390625 
Q 39.453125 6.390625 43.28125 13.890625 
Q 47.125 21.390625 47.125 36.375 
Q 47.125 51.421875 43.28125 58.90625 
Q 39.453125 66.40625 31.78125 66.40625 
z
M 31.78125 74.21875 
Q 44.046875 74.21875 50.515625 64.515625 
Q 56.984375 54.828125 56.984375 36.375 
Q 56.984375 17.96875 50.515625 8.265625 
Q 44.046875 -1.421875 31.78125 -1.421875 
Q 19.53125 -1.421875 13.0625 8.265625 
Q 6.59375 17.96875 6.59375 36.375 
Q 6.59375 54.828125 13.0625 64.515625 
Q 19.53125 74.21875 31.78125 74.21875 
z
" id="DejaVuSans-30"/>
      </defs>
      <g transform="translate(37.421875 329.903312)scale(0.1 -0.1)">
       <use xlink:href="#DejaVuSans-30"/>
      </g>
     </g>
    </g>
    <g id="xtick_2">
     <g id="line2d_3">
      <path clip-path="url(#pe363317f84)" d="M 92.737432 315.304875 
L 92.737432 49.192875 
" style="fill:none;stroke:#b0b0b0;stroke-linecap:square;stroke-width:0.8;"/>
     </g>
     <g id="line2d_4">
      <g>
       <use style="stroke:#000000;stroke-width:0.8;" x="92.737432" xlink:href="#m90cdda1a24" y="315.304875"/>
      </g>
     </g>
     <g id="text_2">
      <!-- 200 -->
      <defs>
       <path d="M 19.1875 8.296875 
L 53.609375 8.296875 
L 53.609375 0 
L 7.328125 0 
L 7.328125 8.296875 
Q 12.9375 14.109375 22.625 23.890625 
Q 32.328125 33.6875 34.8125 36.53125 
Q 39.546875 41.84375 41.421875 45.53125 
Q 43.3125 49.21875 43.3125 52.78125 
Q 43.3125 58.59375 39.234375 62.25 
Q 35.15625 65.921875 28.609375 65.921875 
Q 23.96875 65.921875 18.8125 64.3125 
Q 13.671875 62.703125 7.8125 59.421875 
L 7.8125 69.390625 
Q 13.765625 71.78125 18.9375 73 
Q 24.125 74.21875 28.421875 74.21875 
Q 39.75 74.21875 46.484375 68.546875 
Q 53.21875 62.890625 53.21875 53.421875 
Q 53.21875 48.921875 51.53125 44.890625 
Q 49.859375 40.875 45.40625 35.40625 
Q 44.1875 33.984375 37.640625 27.21875 
Q 31.109375 20.453125 19.1875 8.296875 
z
" id="DejaVuSans-32"/>
      </defs>
      <g transform="translate(83.193682 329.903312)scale(0.1 -0.1)">
       <use xlink:href="#DejaVuSans-32"/>
       <use x="63.623047" xlink:href="#DejaVuSans-30"/>
       <use x="127.246094" xlink:href="#DejaVuSans-30"/>
      </g>
     </g>
    </g>
    <g id="xtick_3">
     <g id="line2d_5">
      <path clip-path="url(#pe363317f84)" d="M 144.871738 315.304875 
L 144.871738 49.192875 
" style="fill:none;stroke:#b0b0b0;stroke-linecap:square;stroke-width:0.8;"/>
     </g>
     <g id="line2d_6">
      <g>
       <use style="stroke:#000000;stroke-width:0.8;" x="144.871738" xlink:href="#m90cdda1a24" y="315.304875"/>
      </g>
     </g>
     <g id="text_3">
      <!-- 400 -->
      <defs>
       <path d="M 37.796875 64.3125 
L 12.890625 25.390625 
L 37.796875 25.390625 
z
M 35.203125 72.90625 
L 47.609375 72.90625 
L 47.609375 25.390625 
L 58.015625 25.390625 
L 58.015625 17.1875 
L 47.609375 17.1875 
L 47.609375 0 
L 37.796875 0 
L 37.796875 17.1875 
L 4.890625 17.1875 
L 4.890625 26.703125 
z
" id="DejaVuSans-34"/>
      </defs>
      <g transform="translate(135.327988 329.903312)scale(0.1 -0.1)">
       <use xlink:href="#DejaVuSans-34"/>
       <use x="63.623047" xlink:href="#DejaVuSans-30"/>
       <use x="127.246094" xlink:href="#DejaVuSans-30"/>
      </g>
     </g>
    </g>
    <g id="xtick_4">
     <g id="line2d_7">
      <path clip-path="url(#pe363317f84)" d="M 197.006045 315.304875 
L 197.006045 49.192875 
" style="fill:none;stroke:#b0b0b0;stroke-linecap:square;stroke-width:0.8;"/>
     </g>
     <g id="line2d_8">
      <g>
       <use style="stroke:#000000;stroke-width:0.8;" x="197.006045" xlink:href="#m90cdda1a24" y="315.304875"/>
      </g>
     </g>
     <g id="text_4">
      <!-- 600 -->
      <defs>
       <path d="M 33.015625 40.375 
Q 26.375 40.375 22.484375 35.828125 
Q 18.609375 31.296875 18.609375 23.390625 
Q 18.609375 15.53125 22.484375 10.953125 
Q 26.375 6.390625 33.015625 6.390625 
Q 39.65625 6.390625 43.53125 10.953125 
Q 47.40625 15.53125 47.40625 23.390625 
Q 47.40625 31.296875 43.53125 35.828125 
Q 39.65625 40.375 33.015625 40.375 
z
M 52.59375 71.296875 
L 52.59375 62.3125 
Q 48.875 64.0625 45.09375 64.984375 
Q 41.3125 65.921875 37.59375 65.921875 
Q 27.828125 65.921875 22.671875 59.328125 
Q 17.53125 52.734375 16.796875 39.40625 
Q 19.671875 43.65625 24.015625 45.921875 
Q 28.375 48.1875 33.59375 48.1875 
Q 44.578125 48.1875 50.953125 41.515625 
Q 57.328125 34.859375 57.328125 23.390625 
Q 57.328125 12.15625 50.6875 5.359375 
Q 44.046875 -1.421875 33.015625 -1.421875 
Q 20.359375 -1.421875 13.671875 8.265625 
Q 6.984375 17.96875 6.984375 36.375 
Q 6.984375 53.65625 15.1875 63.9375 
Q 23.390625 74.21875 37.203125 74.21875 
Q 40.921875 74.21875 44.703125 73.484375 
Q 48.484375 72.75 52.59375 71.296875 
z
" id="DejaVuSans-36"/>
      </defs>
      <g transform="translate(187.462295 329.903312)scale(0.1 -0.1)">
       <use xlink:href="#DejaVuSans-36"/>
       <use x="63.623047" xlink:href="#DejaVuSans-30"/>
       <use x="127.246094" xlink:href="#DejaVuSans-30"/>
      </g>
     </g>
    </g>
    <g id="xtick_5">
     <g id="line2d_9">
      <path clip-path="url(#pe363317f84)" d="M 249.140351 315.304875 
L 249.140351 49.192875 
" style="fill:none;stroke:#b0b0b0;stroke-linecap:square;stroke-width:0.8;"/>
     </g>
     <g id="line2d_10">
      <g>
       <use style="stroke:#000000;stroke-width:0.8;" x="249.140351" xlink:href="#m90cdda1a24" y="315.304875"/>
      </g>
     </g>
     <g id="text_5">
      <!-- 800 -->
      <defs>
       <path d="M 31.78125 34.625 
Q 24.75 34.625 20.71875 30.859375 
Q 16.703125 27.09375 16.703125 20.515625 
Q 16.703125 13.921875 20.71875 10.15625 
Q 24.75 6.390625 31.78125 6.390625 
Q 38.8125 6.390625 42.859375 10.171875 
Q 46.921875 13.96875 46.921875 20.515625 
Q 46.921875 27.09375 42.890625 30.859375 
Q 38.875 34.625 31.78125 34.625 
z
M 21.921875 38.8125 
Q 15.578125 40.375 12.03125 44.71875 
Q 8.5 49.078125 8.5 55.328125 
Q 8.5 64.0625 14.71875 69.140625 
Q 20.953125 74.21875 31.78125 74.21875 
Q 42.671875 74.21875 48.875 69.140625 
Q 55.078125 64.0625 55.078125 55.328125 
Q 55.078125 49.078125 51.53125 44.71875 
Q 48 40.375 41.703125 38.8125 
Q 48.828125 37.15625 52.796875 32.3125 
Q 56.78125 27.484375 56.78125 20.515625 
Q 56.78125 9.90625 50.3125 4.234375 
Q 43.84375 -1.421875 31.78125 -1.421875 
Q 19.734375 -1.421875 13.25 4.234375 
Q 6.78125 9.90625 6.78125 20.515625 
Q 6.78125 27.484375 10.78125 32.3125 
Q 14.796875 37.15625 21.921875 38.8125 
z
M 18.3125 54.390625 
Q 18.3125 48.734375 21.84375 45.5625 
Q 25.390625 42.390625 31.78125 42.390625 
Q 38.140625 42.390625 41.71875 45.5625 
Q 45.3125 48.734375 45.3125 54.390625 
Q 45.3125 60.0625 41.71875 63.234375 
Q 38.140625 66.40625 31.78125 66.40625 
Q 25.390625 66.40625 21.84375 63.234375 
Q 18.3125 60.0625 18.3125 54.390625 
z
" id="DejaVuSans-38"/>
      </defs>
      <g transform="translate(239.596601 329.903312)scale(0.1 -0.1)">
       <use xlink:href="#DejaVuSans-38"/>
       <use x="63.623047" xlink:href="#DejaVuSans-30"/>
       <use x="127.246094" xlink:href="#DejaVuSans-30"/>
      </g>
     </g>
    </g>
    <g id="xtick_6">
     <g id="line2d_11">
      <path clip-path="url(#pe363317f84)" d="M 301.274658 315.304875 
L 301.274658 49.192875 
" style="fill:none;stroke:#b0b0b0;stroke-linecap:square;stroke-width:0.8;"/>
     </g>
     <g id="line2d_12">
      <g>
       <use style="stroke:#000000;stroke-width:0.8;" x="301.274658" xlink:href="#m90cdda1a24" y="315.304875"/>
      </g>
     </g>
     <g id="text_6">
      <!-- 1000 -->
      <defs>
       <path d="M 12.40625 8.296875 
L 28.515625 8.296875 
L 28.515625 63.921875 
L 10.984375 60.40625 
L 10.984375 69.390625 
L 28.421875 72.90625 
L 38.28125 72.90625 
L 38.28125 8.296875 
L 54.390625 8.296875 
L 54.390625 0 
L 12.40625 0 
z
" id="DejaVuSans-31"/>
      </defs>
      <g transform="translate(288.549658 329.903312)scale(0.1 -0.1)">
       <use xlink:href="#DejaVuSans-31"/>
       <use x="63.623047" xlink:href="#DejaVuSans-30"/>
       <use x="127.246094" xlink:href="#DejaVuSans-30"/>
       <use x="190.869141" xlink:href="#DejaVuSans-30"/>
      </g>
     </g>
    </g>
    <g id="xtick_7">
     <g id="line2d_13">
      <path clip-path="url(#pe363317f84)" d="M 353.408964 315.304875 
L 353.408964 49.192875 
" style="fill:none;stroke:#b0b0b0;stroke-linecap:square;stroke-width:0.8;"/>
     </g>
     <g id="line2d_14">
      <g>
       <use style="stroke:#000000;stroke-width:0.8;" x="353.408964" xlink:href="#m90cdda1a24" y="315.304875"/>
      </g>
     </g>
     <g id="text_7">
      <!-- 1200 -->
      <g transform="translate(340.683964 329.903312)scale(0.1 -0.1)">
       <use xlink:href="#DejaVuSans-31"/>
       <use x="63.623047" xlink:href="#DejaVuSans-32"/>
       <use x="127.246094" xlink:href="#DejaVuSans-30"/>
       <use x="190.869141" xlink:href="#DejaVuSans-30"/>
      </g>
     </g>
    </g>
    <g id="text_8">
     <!-- Time(s) -->
     <defs>
      <path d="M -0.296875 72.90625 
L 61.375 72.90625 
L 61.375 64.59375 
L 35.5 64.59375 
L 35.5 0 
L 25.59375 0 
L 25.59375 64.59375 
L -0.296875 64.59375 
z
" id="DejaVuSans-54"/>
      <path d="M 9.421875 54.6875 
L 18.40625 54.6875 
L 18.40625 0 
L 9.421875 0 
z
M 9.421875 75.984375 
L 18.40625 75.984375 
L 18.40625 64.59375 
L 9.421875 64.59375 
z
" id="DejaVuSans-69"/>
      <path d="M 52 44.1875 
Q 55.375 50.25 60.0625 53.125 
Q 64.75 56 71.09375 56 
Q 79.640625 56 84.28125 50.015625 
Q 88.921875 44.046875 88.921875 33.015625 
L 88.921875 0 
L 79.890625 0 
L 79.890625 32.71875 
Q 79.890625 40.578125 77.09375 44.375 
Q 74.3125 48.1875 68.609375 48.1875 
Q 61.625 48.1875 57.5625 43.546875 
Q 53.515625 38.921875 53.515625 30.90625 
L 53.515625 0 
L 44.484375 0 
L 44.484375 32.71875 
Q 44.484375 40.625 41.703125 44.40625 
Q 38.921875 48.1875 33.109375 48.1875 
Q 26.21875 48.1875 22.15625 43.53125 
Q 18.109375 38.875 18.109375 30.90625 
L 18.109375 0 
L 9.078125 0 
L 9.078125 54.6875 
L 18.109375 54.6875 
L 18.109375 46.1875 
Q 21.1875 51.21875 25.484375 53.609375 
Q 29.78125 56 35.6875 56 
Q 41.65625 56 45.828125 52.96875 
Q 50 49.953125 52 44.1875 
z
" id="DejaVuSans-6d"/>
      <path d="M 56.203125 29.59375 
L 56.203125 25.203125 
L 14.890625 25.203125 
Q 15.484375 15.921875 20.484375 11.0625 
Q 25.484375 6.203125 34.421875 6.203125 
Q 39.59375 6.203125 44.453125 7.46875 
Q 49.3125 8.734375 54.109375 11.28125 
L 54.109375 2.78125 
Q 49.265625 0.734375 44.1875 -0.34375 
Q 39.109375 -1.421875 33.890625 -1.421875 
Q 20.796875 -1.421875 13.15625 6.1875 
Q 5.515625 13.8125 5.515625 26.8125 
Q 5.515625 40.234375 12.765625 48.109375 
Q 20.015625 56 32.328125 56 
Q 43.359375 56 49.78125 48.890625 
Q 56.203125 41.796875 56.203125 29.59375 
z
M 47.21875 32.234375 
Q 47.125 39.59375 43.09375 43.984375 
Q 39.0625 48.390625 32.421875 48.390625 
Q 24.90625 48.390625 20.390625 44.140625 
Q 15.875 39.890625 15.1875 32.171875 
z
" id="DejaVuSans-65"/>
      <path d="M 31 75.875 
Q 24.46875 64.65625 21.28125 53.65625 
Q 18.109375 42.671875 18.109375 31.390625 
Q 18.109375 20.125 21.3125 9.0625 
Q 24.515625 -2 31 -13.1875 
L 23.1875 -13.1875 
Q 15.875 -1.703125 12.234375 9.375 
Q 8.59375 20.453125 8.59375 31.390625 
Q 8.59375 42.28125 12.203125 53.3125 
Q 15.828125 64.359375 23.1875 75.875 
z
" id="DejaVuSans-28"/>
      <path d="M 44.28125 53.078125 
L 44.28125 44.578125 
Q 40.484375 46.53125 36.375 47.5 
Q 32.28125 48.484375 27.875 48.484375 
Q 21.1875 48.484375 17.84375 46.4375 
Q 14.5 44.390625 14.5 40.28125 
Q 14.5 37.15625 16.890625 35.375 
Q 19.28125 33.59375 26.515625 31.984375 
L 29.59375 31.296875 
Q 39.15625 29.25 43.1875 25.515625 
Q 47.21875 21.78125 47.21875 15.09375 
Q 47.21875 7.46875 41.1875 3.015625 
Q 35.15625 -1.421875 24.609375 -1.421875 
Q 20.21875 -1.421875 15.453125 -0.5625 
Q 10.6875 0.296875 5.421875 2 
L 5.421875 11.28125 
Q 10.40625 8.6875 15.234375 7.390625 
Q 20.0625 6.109375 24.8125 6.109375 
Q 31.15625 6.109375 34.5625 8.28125 
Q 37.984375 10.453125 37.984375 14.40625 
Q 37.984375 18.0625 35.515625 20.015625 
Q 33.0625 21.96875 24.703125 23.78125 
L 21.578125 24.515625 
Q 13.234375 26.265625 9.515625 29.90625 
Q 5.8125 33.546875 5.8125 39.890625 
Q 5.8125 47.609375 11.28125 51.796875 
Q 16.75 56 26.8125 56 
Q 31.78125 56 36.171875 55.265625 
Q 40.578125 54.546875 44.28125 53.078125 
z
" id="DejaVuSans-73"/>
      <path d="M 8.015625 75.875 
L 15.828125 75.875 
Q 23.140625 64.359375 26.78125 53.3125 
Q 30.421875 42.28125 30.421875 31.390625 
Q 30.421875 20.453125 26.78125 9.375 
Q 23.140625 -1.703125 15.828125 -13.1875 
L 8.015625 -13.1875 
Q 14.5 -2 17.703125 9.0625 
Q 20.90625 20.125 20.90625 31.390625 
Q 20.90625 42.671875 17.703125 53.65625 
Q 14.5 64.65625 8.015625 75.875 
z
" id="DejaVuSans-29"/>
     </defs>
     <g transform="translate(200.269375 343.581437)scale(0.1 -0.1)">
      <use xlink:href="#DejaVuSans-54"/>
      <use x="61.037109" xlink:href="#DejaVuSans-69"/>
      <use x="88.820312" xlink:href="#DejaVuSans-6d"/>
      <use x="186.232422" xlink:href="#DejaVuSans-65"/>
      <use x="247.755859" xlink:href="#DejaVuSans-28"/>
      <use x="286.769531" xlink:href="#DejaVuSans-73"/>
      <use x="338.869141" xlink:href="#DejaVuSans-29"/>
     </g>
    </g>
   </g>
   <g id="matplotlib.axis_2">
    <g id="ytick_1">
     <g id="line2d_15">
      <path clip-path="url(#pe363317f84)" d="M 40.603125 303.208875 
L 397.723125 303.208875 
" style="fill:none;stroke:#b0b0b0;stroke-linecap:square;stroke-width:0.8;"/>
     </g>
     <g id="line2d_16">
      <defs>
       <path d="M 0 0 
L -3.5 0 
" id="m2896c1dd49" style="stroke:#000000;stroke-width:0.8;"/>
      </defs>
      <g>
       <use style="stroke:#000000;stroke-width:0.8;" x="40.603125" xlink:href="#m2896c1dd49" y="303.208875"/>
      </g>
     </g>
     <g id="text_9">
      <!-- 0 -->
      <g transform="translate(27.240625 307.008094)scale(0.1 -0.1)">
       <use xlink:href="#DejaVuSans-30"/>
      </g>
     </g>
    </g>
    <g id="ytick_2">
     <g id="line2d_17">
      <path clip-path="url(#pe363317f84)" d="M 40.603125 258.408875 
L 397.723125 258.408875 
" style="fill:none;stroke:#b0b0b0;stroke-linecap:square;stroke-width:0.8;"/>
     </g>
     <g id="line2d_18">
      <g>
       <use style="stroke:#000000;stroke-width:0.8;" x="40.603125" xlink:href="#m2896c1dd49" y="258.408875"/>
      </g>
     </g>
     <g id="text_10">
      <!-- 10 -->
      <g transform="translate(20.878125 262.208094)scale(0.1 -0.1)">
       <use xlink:href="#DejaVuSans-31"/>
       <use x="63.623047" xlink:href="#DejaVuSans-30"/>
      </g>
     </g>
    </g>
    <g id="ytick_3">
     <g id="line2d_19">
      <path clip-path="url(#pe363317f84)" d="M 40.603125 213.608875 
L 397.723125 213.608875 
" style="fill:none;stroke:#b0b0b0;stroke-linecap:square;stroke-width:0.8;"/>
     </g>
     <g id="line2d_20">
      <g>
       <use style="stroke:#000000;stroke-width:0.8;" x="40.603125" xlink:href="#m2896c1dd49" y="213.608875"/>
      </g>
     </g>
     <g id="text_11">
      <!-- 20 -->
      <g transform="translate(20.878125 217.408094)scale(0.1 -0.1)">
       <use xlink:href="#DejaVuSans-32"/>
       <use x="63.623047" xlink:href="#DejaVuSans-30"/>
      </g>
     </g>
    </g>
    <g id="ytick_4">
     <g id="line2d_21">
      <path clip-path="url(#pe363317f84)" d="M 40.603125 168.808875 
L 397.723125 168.808875 
" style="fill:none;stroke:#b0b0b0;stroke-linecap:square;stroke-width:0.8;"/>
     </g>
     <g id="line2d_22">
      <g>
       <use style="stroke:#000000;stroke-width:0.8;" x="40.603125" xlink:href="#m2896c1dd49" y="168.808875"/>
      </g>
     </g>
     <g id="text_12">
      <!-- 30 -->
      <defs>
       <path d="M 40.578125 39.3125 
Q 47.65625 37.796875 51.625 33 
Q 55.609375 28.21875 55.609375 21.1875 
Q 55.609375 10.40625 48.1875 4.484375 
Q 40.765625 -1.421875 27.09375 -1.421875 
Q 22.515625 -1.421875 17.65625 -0.515625 
Q 12.796875 0.390625 7.625 2.203125 
L 7.625 11.71875 
Q 11.71875 9.328125 16.59375 8.109375 
Q 21.484375 6.890625 26.8125 6.890625 
Q 36.078125 6.890625 40.9375 10.546875 
Q 45.796875 14.203125 45.796875 21.1875 
Q 45.796875 27.640625 41.28125 31.265625 
Q 36.765625 34.90625 28.71875 34.90625 
L 20.21875 34.90625 
L 20.21875 43.015625 
L 29.109375 43.015625 
Q 36.375 43.015625 40.234375 45.921875 
Q 44.09375 48.828125 44.09375 54.296875 
Q 44.09375 59.90625 40.109375 62.90625 
Q 36.140625 65.921875 28.71875 65.921875 
Q 24.65625 65.921875 20.015625 65.03125 
Q 15.375 64.15625 9.8125 62.3125 
L 9.8125 71.09375 
Q 15.4375 72.65625 20.34375 73.4375 
Q 25.25 74.21875 29.59375 74.21875 
Q 40.828125 74.21875 47.359375 69.109375 
Q 53.90625 64.015625 53.90625 55.328125 
Q 53.90625 49.265625 50.4375 45.09375 
Q 46.96875 40.921875 40.578125 39.3125 
z
" id="DejaVuSans-33"/>
      </defs>
      <g transform="translate(20.878125 172.608094)scale(0.1 -0.1)">
       <use xlink:href="#DejaVuSans-33"/>
       <use x="63.623047" xlink:href="#DejaVuSans-30"/>
      </g>
     </g>
    </g>
    <g id="ytick_5">
     <g id="line2d_23">
      <path clip-path="url(#pe363317f84)" d="M 40.603125 124.008875 
L 397.723125 124.008875 
" style="fill:none;stroke:#b0b0b0;stroke-linecap:square;stroke-width:0.8;"/>
     </g>
     <g id="line2d_24">
      <g>
       <use style="stroke:#000000;stroke-width:0.8;" x="40.603125" xlink:href="#m2896c1dd49" y="124.008875"/>
      </g>
     </g>
     <g id="text_13">
      <!-- 40 -->
      <g transform="translate(20.878125 127.808094)scale(0.1 -0.1)">
       <use xlink:href="#DejaVuSans-34"/>
       <use x="63.623047" xlink:href="#DejaVuSans-30"/>
      </g>
     </g>
    </g>
    <g id="ytick_6">
     <g id="line2d_25">
      <path clip-path="url(#pe363317f84)" d="M 40.603125 79.208875 
L 397.723125 79.208875 
" style="fill:none;stroke:#b0b0b0;stroke-linecap:square;stroke-width:0.8;"/>
     </g>
     <g id="line2d_26">
      <g>
       <use style="stroke:#000000;stroke-width:0.8;" x="40.603125" xlink:href="#m2896c1dd49" y="79.208875"/>
      </g>
     </g>
     <g id="text_14">
      <!-- 50 -->
      <defs>
       <path d="M 10.796875 72.90625 
L 49.515625 72.90625 
L 49.515625 64.59375 
L 19.828125 64.59375 
L 19.828125 46.734375 
Q 21.96875 47.46875 24.109375 47.828125 
Q 26.265625 48.1875 28.421875 48.1875 
Q 40.625 48.1875 47.75 41.5 
Q 54.890625 34.8125 54.890625 23.390625 
Q 54.890625 11.625 47.5625 5.09375 
Q 40.234375 -1.421875 26.90625 -1.421875 
Q 22.3125 -1.421875 17.546875 -0.640625 
Q 12.796875 0.140625 7.71875 1.703125 
L 7.71875 11.625 
Q 12.109375 9.234375 16.796875 8.0625 
Q 21.484375 6.890625 26.703125 6.890625 
Q 35.15625 6.890625 40.078125 11.328125 
Q 45.015625 15.765625 45.015625 23.390625 
Q 45.015625 31 40.078125 35.4375 
Q 35.15625 39.890625 26.703125 39.890625 
Q 22.75 39.890625 18.8125 39.015625 
Q 14.890625 38.140625 10.796875 36.28125 
z
" id="DejaVuSans-35"/>
      </defs>
      <g transform="translate(20.878125 83.008094)scale(0.1 -0.1)">
       <use xlink:href="#DejaVuSans-35"/>
       <use x="63.623047" xlink:href="#DejaVuSans-30"/>
      </g>
     </g>
    </g>
    <g id="text_15">
     <!-- Discovered Nodes -->
     <defs>
      <path d="M 19.671875 64.796875 
L 19.671875 8.109375 
L 31.59375 8.109375 
Q 46.6875 8.109375 53.6875 14.9375 
Q 60.6875 21.78125 60.6875 36.53125 
Q 60.6875 51.171875 53.6875 57.984375 
Q 46.6875 64.796875 31.59375 64.796875 
z
M 9.8125 72.90625 
L 30.078125 72.90625 
Q 51.265625 72.90625 61.171875 64.09375 
Q 71.09375 55.28125 71.09375 36.53125 
Q 71.09375 17.671875 61.125 8.828125 
Q 51.171875 0 30.078125 0 
L 9.8125 0 
z
" id="DejaVuSans-44"/>
      <path d="M 48.78125 52.59375 
L 48.78125 44.1875 
Q 44.96875 46.296875 41.140625 47.34375 
Q 37.3125 48.390625 33.40625 48.390625 
Q 24.65625 48.390625 19.8125 42.84375 
Q 14.984375 37.3125 14.984375 27.296875 
Q 14.984375 17.28125 19.8125 11.734375 
Q 24.65625 6.203125 33.40625 6.203125 
Q 37.3125 6.203125 41.140625 7.25 
Q 44.96875 8.296875 48.78125 10.40625 
L 48.78125 2.09375 
Q 45.015625 0.34375 40.984375 -0.53125 
Q 36.96875 -1.421875 32.421875 -1.421875 
Q 20.0625 -1.421875 12.78125 6.34375 
Q 5.515625 14.109375 5.515625 27.296875 
Q 5.515625 40.671875 12.859375 48.328125 
Q 20.21875 56 33.015625 56 
Q 37.15625 56 41.109375 55.140625 
Q 45.0625 54.296875 48.78125 52.59375 
z
" id="DejaVuSans-63"/>
      <path d="M 30.609375 48.390625 
Q 23.390625 48.390625 19.1875 42.75 
Q 14.984375 37.109375 14.984375 27.296875 
Q 14.984375 17.484375 19.15625 11.84375 
Q 23.34375 6.203125 30.609375 6.203125 
Q 37.796875 6.203125 41.984375 11.859375 
Q 46.1875 17.53125 46.1875 27.296875 
Q 46.1875 37.015625 41.984375 42.703125 
Q 37.796875 48.390625 30.609375 48.390625 
z
M 30.609375 56 
Q 42.328125 56 49.015625 48.375 
Q 55.71875 40.765625 55.71875 27.296875 
Q 55.71875 13.875 49.015625 6.21875 
Q 42.328125 -1.421875 30.609375 -1.421875 
Q 18.84375 -1.421875 12.171875 6.21875 
Q 5.515625 13.875 5.515625 27.296875 
Q 5.515625 40.765625 12.171875 48.375 
Q 18.84375 56 30.609375 56 
z
" id="DejaVuSans-6f"/>
      <path d="M 2.984375 54.6875 
L 12.5 54.6875 
L 29.59375 8.796875 
L 46.6875 54.6875 
L 56.203125 54.6875 
L 35.6875 0 
L 23.484375 0 
z
" id="DejaVuSans-76"/>
      <path d="M 41.109375 46.296875 
Q 39.59375 47.171875 37.8125 47.578125 
Q 36.03125 48 33.890625 48 
Q 26.265625 48 22.1875 43.046875 
Q 18.109375 38.09375 18.109375 28.8125 
L 18.109375 0 
L 9.078125 0 
L 9.078125 54.6875 
L 18.109375 54.6875 
L 18.109375 46.1875 
Q 20.953125 51.171875 25.484375 53.578125 
Q 30.03125 56 36.53125 56 
Q 37.453125 56 38.578125 55.875 
Q 39.703125 55.765625 41.0625 55.515625 
z
" id="DejaVuSans-72"/>
      <path d="M 45.40625 46.390625 
L 45.40625 75.984375 
L 54.390625 75.984375 
L 54.390625 0 
L 45.40625 0 
L 45.40625 8.203125 
Q 42.578125 3.328125 38.25 0.953125 
Q 33.9375 -1.421875 27.875 -1.421875 
Q 17.96875 -1.421875 11.734375 6.484375 
Q 5.515625 14.40625 5.515625 27.296875 
Q 5.515625 40.1875 11.734375 48.09375 
Q 17.96875 56 27.875 56 
Q 33.9375 56 38.25 53.625 
Q 42.578125 51.265625 45.40625 46.390625 
z
M 14.796875 27.296875 
Q 14.796875 17.390625 18.875 11.75 
Q 22.953125 6.109375 30.078125 6.109375 
Q 37.203125 6.109375 41.296875 11.75 
Q 45.40625 17.390625 45.40625 27.296875 
Q 45.40625 37.203125 41.296875 42.84375 
Q 37.203125 48.484375 30.078125 48.484375 
Q 22.953125 48.484375 18.875 42.84375 
Q 14.796875 37.203125 14.796875 27.296875 
z
" id="DejaVuSans-64"/>
      <path id="DejaVuSans-20"/>
      <path d="M 9.8125 72.90625 
L 23.09375 72.90625 
L 55.421875 11.921875 
L 55.421875 72.90625 
L 64.984375 72.90625 
L 64.984375 0 
L 51.703125 0 
L 19.390625 60.984375 
L 19.390625 0 
L 9.8125 0 
z
" id="DejaVuSans-4e"/>
     </defs>
     <g transform="translate(14.798438 227.486375)rotate(-90)scale(0.1 -0.1)">
      <use xlink:href="#DejaVuSans-44"/>
      <use x="77.001953" xlink:href="#DejaVuSans-69"/>
      <use x="104.785156" xlink:href="#DejaVuSans-73"/>
      <use x="156.884766" xlink:href="#DejaVuSans-63"/>
      <use x="211.865234" xlink:href="#DejaVuSans-6f"/>
      <use x="273.046875" xlink:href="#DejaVuSans-76"/>
      <use x="332.226562" xlink:href="#DejaVuSans-65"/>
      <use x="393.75" xlink:href="#DejaVuSans-72"/>
      <use x="434.832031" xlink:href="#DejaVuSans-65"/>
      <use x="496.355469" xlink:href="#DejaVuSans-64"/>
      <use x="559.832031" xlink:href="#DejaVuSans-20"/>
      <use x="591.619141" xlink:href="#DejaVuSans-4e"/>
      <use x="666.423828" xlink:href="#DejaVuSans-6f"/>
      <use x="727.605469" xlink:href="#DejaVuSans-64"/>
      <use x="791.082031" xlink:href="#DejaVuSans-65"/>
      <use x="852.605469" xlink:href="#DejaVuSans-73"/>
     </g>
    </g>
   </g>
   <g id="line2d_27">
    <path clip-path="url(#pe363317f84)" d="M 40.603125 303.208875 
L 43.470512 303.208875 
L 43.731183 298.728875 
L 47.901928 298.728875 
L 48.162599 303.208875 
L 57.546775 303.208875 
L 57.807446 298.728875 
L 59.371475 298.728875 
L 59.632147 294.248875 
L 63.281548 294.248875 
L 63.54222 298.728875 
L 65.106249 298.728875 
L 65.366921 303.208875 
L 67.452293 303.208875 
L 67.712964 298.728875 
L 68.755651 298.728875 
L 69.016322 303.208875 
L 70.059008 303.208875 
L 70.31968 294.248875 
L 70.580351 289.768875 
L 71.101694 289.768875 
L 71.362366 285.288875 
L 73.969081 285.288875 
L 74.229753 280.808875 
L 76.315125 280.808875 
L 76.575797 285.288875 
L 77.09714 285.288875 
L 77.357811 289.768875 
L 77.879154 289.768875 
L 78.139826 294.248875 
L 78.400497 294.248875 
L 78.661169 298.728875 
L 80.225198 298.728875 
L 80.48587 294.248875 
L 80.746541 298.728875 
L 81.528556 298.728875 
L 81.789227 289.768875 
L 82.31057 289.768875 
L 82.571242 285.288875 
L 83.874599 285.288875 
L 84.135271 289.768875 
L 86.481315 289.768875 
L 86.741986 294.248875 
L 87.263329 294.248875 
L 87.784672 303.208875 
L 88.045344 303.208875 
L 88.306016 298.728875 
L 89.08803 298.728875 
L 89.348702 289.768875 
L 89.609373 289.768875 
L 89.870045 285.288875 
L 91.694745 285.288875 
L 91.955417 280.808875 
L 92.216089 280.808875 
L 92.47676 276.328875 
L 94.301461 276.328875 
L 94.562132 280.808875 
L 95.083475 280.808875 
L 95.344147 276.328875 
L 96.386833 276.328875 
L 96.647505 271.848875 
L 96.908176 280.808875 
L 97.168848 285.288875 
L 97.429519 285.288875 
L 97.690191 280.808875 
L 98.472205 280.808875 
L 98.732877 276.328875 
L 98.993548 276.328875 
L 99.25422 280.808875 
L 99.514891 280.808875 
L 99.775563 276.328875 
L 100.296906 276.328875 
L 100.557578 280.808875 
L 101.339592 280.808875 
L 101.600264 285.288875 
L 102.64295 285.288875 
L 103.164293 294.248875 
L 103.946307 294.248875 
L 104.206979 298.728875 
L 105.771008 298.728875 
L 106.03168 303.208875 
L 106.553023 303.208875 
L 106.813694 294.248875 
L 107.335037 294.248875 
L 107.595709 289.768875 
L 108.117052 289.768875 
L 108.377724 285.288875 
L 109.681081 285.288875 
L 109.941753 289.768875 
L 110.984439 289.768875 
L 111.24511 294.248875 
L 111.766453 294.248875 
L 112.027125 298.728875 
L 113.591154 298.728875 
L 113.851826 303.208875 
L 189.44657 303.208875 
L 189.707242 298.728875 
L 192.053286 298.728875 
L 192.313957 294.248875 
L 192.574629 294.248875 
L 192.8353 289.768875 
L 193.095972 280.808875 
L 193.877986 280.808875 
L 194.138658 276.328875 
L 194.660001 276.328875 
L 194.920672 271.848875 
L 195.181344 271.848875 
L 195.442016 267.368875 
L 196.484702 267.368875 
L 197.006045 258.408875 
L 198.830745 258.408875 
L 199.091417 262.888875 
L 201.176789 262.888875 
L 201.437461 267.368875 
L 201.698132 262.888875 
L 203.783505 262.888875 
L 204.044176 267.368875 
L 205.347534 267.368875 
L 205.608205 271.848875 
L 206.39022 271.848875 
L 206.650891 280.808875 
L 206.911563 285.288875 
L 207.172234 285.288875 
L 207.432906 289.768875 
L 210.821636 289.768875 
L 211.082307 294.248875 
L 212.907008 294.248875 
L 213.16768 298.728875 
L 215.253052 298.728875 
L 215.513724 303.208875 
L 219.423797 303.208875 
L 219.684468 298.728875 
L 219.94514 298.728875 
L 220.466483 289.768875 
L 220.987826 289.768875 
L 221.509169 280.808875 
L 222.291183 280.808875 
L 222.812526 289.768875 
L 223.594541 289.768875 
L 223.855213 285.288875 
L 224.115884 285.288875 
L 224.376556 280.808875 
L 224.637227 280.808875 
L 225.15857 271.848875 
L 225.419242 271.848875 
L 225.679913 258.408875 
L 226.201256 258.408875 
L 226.461928 253.928875 
L 226.983271 253.928875 
L 227.243943 249.448875 
L 227.504614 249.448875 
L 227.765286 244.968875 
L 228.025957 244.968875 
L 228.286629 249.448875 
L 228.5473 249.448875 
L 228.807972 253.928875 
L 229.068643 249.448875 
L 230.372001 249.448875 
L 230.632672 253.928875 
L 230.893344 249.448875 
L 232.196702 249.448875 
L 232.718045 267.368875 
L 233.760731 267.368875 
L 234.021402 271.848875 
L 234.542745 271.848875 
L 234.803417 276.328875 
L 236.106775 276.328875 
L 236.367446 280.808875 
L 237.149461 280.808875 
L 237.410132 285.288875 
L 240.277519 285.288875 
L 240.538191 289.768875 
L 242.362891 289.768875 
L 242.623563 298.728875 
L 244.448264 298.728875 
L 244.708935 303.208875 
L 299.9713 303.208875 
L 300.492643 294.248875 
L 301.535329 294.248875 
L 301.796001 289.768875 
L 302.056672 289.768875 
L 302.317344 280.808875 
L 302.578016 276.328875 
L 303.36003 276.328875 
L 303.620702 271.848875 
L 304.402716 271.848875 
L 304.663388 267.368875 
L 305.445402 267.368875 
L 305.706074 262.888875 
L 305.966745 262.888875 
L 306.227417 258.408875 
L 307.530775 258.408875 
L 307.791446 253.928875 
L 308.052118 258.408875 
L 308.312789 267.368875 
L 308.573461 267.368875 
L 308.834132 262.888875 
L 309.094804 262.888875 
L 309.355475 258.408875 
L 309.616147 258.408875 
L 309.876818 253.928875 
L 310.13749 258.408875 
L 311.440848 258.408875 
L 311.701519 262.888875 
L 315.350921 262.888875 
L 315.611592 267.368875 
L 315.872264 267.368875 
L 316.132935 262.888875 
L 316.91495 262.888875 
L 317.175621 267.368875 
L 317.436293 262.888875 
L 317.957636 262.888875 
L 318.218307 258.408875 
L 318.478979 258.408875 
L 318.739651 262.888875 
L 326.299125 262.888875 
L 326.559797 267.368875 
L 327.341811 267.368875 
L 327.602483 262.888875 
L 327.863154 267.368875 
L 328.123826 262.888875 
L 329.948526 262.888875 
L 330.46987 253.928875 
L 330.991213 262.888875 
L 331.512556 262.888875 
L 332.033899 253.928875 
L 332.29457 253.928875 
L 332.555242 258.408875 
L 333.597928 258.408875 
L 333.858599 253.928875 
L 334.119271 253.928875 
L 334.379943 258.408875 
L 334.901286 258.408875 
L 335.422629 249.448875 
L 335.6833 253.928875 
L 335.943972 253.928875 
L 336.204643 258.408875 
L 336.465315 253.928875 
L 336.986658 253.928875 
L 337.247329 249.448875 
L 338.550687 249.448875 
L 338.811359 253.928875 
L 339.332702 244.968875 
L 339.593373 244.968875 
L 339.854045 249.448875 
L 340.375388 249.448875 
L 340.636059 244.968875 
L 341.418074 244.968875 
L 341.939417 253.928875 
L 342.200089 253.928875 
L 342.721432 244.968875 
L 343.242775 244.968875 
L 343.503446 253.928875 
L 344.024789 253.928875 
L 344.285461 249.448875 
L 345.067475 249.448875 
L 345.328147 253.928875 
L 345.588818 253.928875 
L 345.84949 249.448875 
L 346.631505 249.448875 
L 347.152848 258.408875 
L 347.413519 258.408875 
L 347.674191 249.448875 
L 348.195534 249.448875 
L 348.456205 253.928875 
L 348.716877 253.928875 
L 348.977548 258.408875 
L 349.23822 258.408875 
L 349.498891 253.928875 
L 350.541578 253.928875 
L 350.802249 258.408875 
L 351.062921 253.928875 
L 351.323592 253.928875 
L 351.584264 258.408875 
L 351.844935 253.928875 
L 352.366278 253.928875 
L 352.62695 258.408875 
L 352.887621 253.928875 
L 353.148293 258.408875 
L 353.669636 258.408875 
L 353.930307 253.928875 
L 354.190979 253.928875 
L 354.451651 258.408875 
L 355.755008 258.408875 
L 356.01568 253.928875 
L 356.276351 258.408875 
L 357.319037 258.408875 
L 357.579709 253.928875 
L 357.84038 258.408875 
L 358.101052 253.928875 
L 358.361724 253.928875 
L 358.622395 258.408875 
L 358.883067 253.928875 
L 359.40441 253.928875 
L 359.665081 258.408875 
L 359.925753 258.408875 
L 360.186424 262.888875 
L 360.707767 262.888875 
L 360.968439 258.408875 
L 361.22911 258.408875 
L 361.489782 262.888875 
L 363.053811 262.888875 
L 363.314483 267.368875 
L 363.575154 262.888875 
L 364.61784 262.888875 
L 364.878512 267.368875 
L 365.139183 267.368875 
L 365.399855 262.888875 
L 366.442541 262.888875 
L 366.703213 267.368875 
L 366.963884 267.368875 
L 367.224556 262.888875 
L 368.267242 262.888875 
L 368.527913 267.368875 
L 368.788585 262.888875 
L 369.831271 262.888875 
L 370.091943 267.368875 
L 370.352614 267.368875 
L 370.873957 258.408875 
L 371.134629 262.888875 
L 371.655972 262.888875 
L 371.916643 267.368875 
L 372.437986 258.408875 
L 373.480672 258.408875 
L 373.741344 262.888875 
L 374.002016 262.888875 
L 374.262687 258.408875 
L 375.044702 258.408875 
L 375.305373 262.888875 
L 375.826716 262.888875 
L 376.087388 258.408875 
L 376.869402 258.408875 
L 377.130074 262.888875 
L 377.651417 262.888875 
L 377.912089 258.408875 
L 378.433432 258.408875 
L 378.694103 262.888875 
L 379.476118 262.888875 
L 379.736789 258.408875 
L 380.258132 258.408875 
L 380.518804 262.888875 
L 381.300818 262.888875 
L 381.56149 258.408875 
L 382.082833 258.408875 
L 382.343505 262.888875 
L 383.125519 262.888875 
L 383.386191 258.408875 
L 383.646862 258.408875 
L 383.907534 262.888875 
L 396.680439 262.888875 
L 396.94111 267.368875 
L 397.201782 262.888875 
L 397.462453 262.888875 
L 397.462453 262.888875 
" style="fill:none;stroke:#008000;stroke-linecap:square;stroke-width:1.5;"/>
   </g>
   <g id="line2d_28">
    <path clip-path="url(#pe363317f84)" d="M 40.603125 298.728875 
L 45.295213 298.728875 
L 45.555884 294.248875 
L 46.859242 294.248875 
L 47.119913 289.768875 
L 47.380585 294.248875 
L 48.423271 294.248875 
L 48.683943 289.768875 
L 49.205286 289.768875 
L 49.465957 285.288875 
L 50.247972 285.288875 
L 50.508643 280.808875 
L 51.290658 280.808875 
L 51.551329 276.328875 
L 52.072672 276.328875 
L 52.333344 267.368875 
L 52.594016 262.888875 
L 52.854687 262.888875 
L 53.115359 267.368875 
L 53.37603 267.368875 
L 53.636702 271.848875 
L 53.897373 271.848875 
L 54.418716 262.888875 
L 54.679388 262.888875 
L 54.940059 258.408875 
L 55.200731 249.448875 
L 55.461402 253.928875 
L 56.243417 253.928875 
L 56.504089 258.408875 
L 56.76476 258.408875 
L 57.025432 253.928875 
L 57.546775 262.888875 
L 57.807446 258.408875 
L 59.110804 258.408875 
L 59.371475 253.928875 
L 59.892818 253.928875 
L 60.414161 244.968875 
L 60.935505 253.928875 
L 61.196176 253.928875 
L 61.456848 249.448875 
L 61.717519 249.448875 
L 61.978191 253.928875 
L 62.760205 253.928875 
L 63.020877 249.448875 
L 63.54222 258.408875 
L 63.802891 253.928875 
L 64.063563 258.408875 
L 64.324234 267.368875 
L 64.845578 267.368875 
L 65.106249 262.888875 
L 66.148935 262.888875 
L 66.409607 267.368875 
L 67.452293 267.368875 
L 67.712964 271.848875 
L 67.973636 271.848875 
L 68.234307 267.368875 
L 68.755651 267.368875 
L 69.016322 271.848875 
L 69.537665 271.848875 
L 69.798337 276.328875 
L 70.059008 271.848875 
L 70.580351 271.848875 
L 70.841023 267.368875 
L 71.101694 267.368875 
L 71.362366 271.848875 
L 71.623037 271.848875 
L 71.883709 280.808875 
L 76.575797 280.808875 
L 76.836468 276.328875 
L 77.09714 276.328875 
L 77.357811 280.808875 
L 77.879154 280.808875 
L 78.139826 285.288875 
L 78.661169 285.288875 
L 78.92184 280.808875 
L 79.703855 280.808875 
L 79.964526 285.288875 
L 80.225198 276.328875 
L 80.746541 285.288875 
L 81.007213 285.288875 
L 81.267884 280.808875 
L 82.049899 280.808875 
L 82.31057 276.328875 
L 85.6993 276.328875 
L 86.220643 285.288875 
L 86.481315 285.288875 
L 87.002658 294.248875 
L 87.524001 294.248875 
L 87.784672 298.728875 
L 88.306016 298.728875 
L 88.566687 303.208875 
L 171.460234 303.208875 
L 171.720906 298.728875 
L 173.024264 298.728875 
L 173.284935 294.248875 
L 173.806278 294.248875 
L 174.06695 289.768875 
L 175.891651 289.768875 
L 176.152322 285.288875 
L 176.412994 285.288875 
L 176.673665 289.768875 
L 176.934337 289.768875 
L 177.195008 285.288875 
L 177.45568 285.288875 
L 177.716351 280.808875 
L 178.498366 280.808875 
L 178.759037 285.288875 
L 181.887096 285.288875 
L 182.147767 289.768875 
L 183.711797 289.768875 
L 184.23314 298.728875 
L 185.797169 298.728875 
L 186.05784 303.208875 
L 220.466483 303.208875 
L 220.727154 298.728875 
L 221.76984 298.728875 
L 222.291183 289.768875 
L 223.073198 289.768875 
L 223.33387 285.288875 
L 223.855213 285.288875 
L 224.115884 289.768875 
L 225.940585 289.768875 
L 226.722599 276.328875 
L 226.983271 276.328875 
L 227.504614 267.368875 
L 228.025957 267.368875 
L 228.286629 262.888875 
L 228.5473 262.888875 
L 228.807972 258.408875 
L 229.068643 258.408875 
L 229.329315 262.888875 
L 230.632672 262.888875 
L 230.893344 249.448875 
L 231.154016 253.928875 
L 231.414687 249.448875 
L 231.675359 253.928875 
L 231.93603 249.448875 
L 235.585432 249.448875 
L 236.106775 258.408875 
L 236.888789 258.408875 
L 237.149461 267.368875 
L 238.192147 267.368875 
L 238.452818 271.848875 
L 240.016848 271.848875 
L 240.277519 276.328875 
L 242.623563 276.328875 
L 242.884234 280.808875 
L 243.666249 280.808875 
L 243.926921 285.288875 
L 244.187592 285.288875 
L 244.448264 289.768875 
L 245.49095 289.768875 
L 246.272964 303.208875 
L 250.70438 303.208875 
L 250.965052 294.248875 
L 251.486395 294.248875 
L 252.26841 280.808875 
L 253.311096 280.808875 
L 253.571767 276.328875 
L 254.614453 276.328875 
L 254.875125 267.368875 
L 255.65714 267.368875 
L 256.178483 258.408875 
L 256.439154 262.888875 
L 257.48184 262.888875 
L 258.003183 253.928875 
L 258.263855 244.968875 
L 258.524526 244.968875 
L 258.785198 240.488875 
L 259.306541 240.488875 
L 259.567213 244.968875 
L 259.827884 253.928875 
L 260.088556 253.928875 
L 260.349227 249.448875 
L 260.609899 253.928875 
L 261.131242 253.928875 
L 261.391913 249.448875 
L 262.695271 249.448875 
L 262.955943 244.968875 
L 263.216614 244.968875 
L 263.477286 249.448875 
L 263.737957 249.448875 
L 263.998629 253.928875 
L 264.780643 253.928875 
L 265.041315 258.408875 
L 266.084001 258.408875 
L 266.344672 262.888875 
L 267.126687 262.888875 
L 267.387359 267.368875 
L 269.212059 267.368875 
L 269.472731 271.848875 
L 269.994074 271.848875 
L 270.515417 280.808875 
L 271.03676 280.808875 
L 271.297432 285.288875 
L 271.818775 285.288875 
L 272.079446 289.768875 
L 272.340118 289.768875 
L 272.600789 294.248875 
L 275.989519 294.248875 
L 276.250191 298.728875 
L 276.771534 298.728875 
L 277.032205 303.208875 
L 281.463621 303.208875 
L 281.724293 294.248875 
L 283.548994 294.248875 
L 284.070337 285.288875 
L 284.331008 285.288875 
L 284.59168 280.808875 
L 285.113023 280.808875 
L 285.373694 276.328875 
L 286.677052 276.328875 
L 286.937724 271.848875 
L 287.198395 271.848875 
L 287.719738 262.888875 
L 287.98041 262.888875 
L 288.501753 244.968875 
L 289.80511 244.968875 
L 290.065782 249.448875 
L 290.326453 244.968875 
L 290.587125 244.968875 
L 290.847797 240.488875 
L 291.108468 240.488875 
L 291.36914 244.968875 
L 291.890483 244.968875 
L 292.151154 249.448875 
L 292.411826 244.968875 
L 303.099359 244.968875 
L 303.36003 249.448875 
L 303.620702 249.448875 
L 303.881373 244.968875 
L 304.402716 244.968875 
L 304.663388 249.448875 
L 307.530775 249.448875 
L 307.791446 253.928875 
L 308.052118 253.928875 
L 308.312789 249.448875 
L 309.094804 249.448875 
L 309.355475 253.928875 
L 310.13749 253.928875 
L 310.398161 249.448875 
L 310.658833 253.928875 
L 311.180176 253.928875 
L 311.440848 258.408875 
L 312.222862 258.408875 
L 312.483534 253.928875 
L 312.744205 253.928875 
L 313.004877 258.408875 
L 345.84949 258.408875 
L 346.110161 253.928875 
L 350.020234 253.928875 
L 350.280906 249.448875 
L 356.537023 249.448875 
L 356.797694 244.968875 
L 357.058366 244.968875 
L 357.319037 249.448875 
L 357.579709 249.448875 
L 357.84038 253.928875 
L 358.101052 249.448875 
L 358.361724 249.448875 
L 358.622395 244.968875 
L 358.883067 244.968875 
L 359.143738 249.448875 
L 371.3953 249.448875 
L 371.655972 244.968875 
L 388.599621 244.968875 
L 388.860293 249.448875 
L 389.381636 249.448875 
L 389.642307 244.968875 
L 390.163651 244.968875 
L 390.424322 249.448875 
L 397.462453 249.448875 
L 397.462453 249.448875 
" style="fill:none;stroke:#0000ff;stroke-linecap:square;stroke-width:1.5;"/>
   </g>
   <g id="line2d_29">
    <path clip-path="url(#pe363317f84)" d="M 40.603125 298.728875 
L 45.034541 298.728875 
L 45.295213 294.248875 
L 46.337899 294.248875 
L 46.859242 285.288875 
L 47.119913 285.288875 
L 47.380585 280.808875 
L 49.465957 280.808875 
L 50.247972 267.368875 
L 51.029986 267.368875 
L 51.290658 262.888875 
L 51.551329 262.888875 
L 52.072672 271.848875 
L 52.333344 271.848875 
L 52.854687 262.888875 
L 53.636702 262.888875 
L 53.897373 267.368875 
L 54.940059 267.368875 
L 55.200731 262.888875 
L 55.461402 267.368875 
L 55.722074 267.368875 
L 56.243417 276.328875 
L 56.504089 276.328875 
L 56.76476 280.808875 
L 58.589461 280.808875 
L 59.371475 294.248875 
L 60.15349 294.248875 
L 60.414161 298.728875 
L 61.456848 298.728875 
L 61.717519 294.248875 
L 63.281548 294.248875 
L 63.54222 298.728875 
L 64.584906 298.728875 
L 64.845578 303.208875 
L 219.163125 303.208875 
L 219.423797 298.728875 
L 222.551855 298.728875 
L 223.073198 289.768875 
L 224.637227 289.768875 
L 224.897899 280.808875 
L 225.419242 280.808875 
L 225.940585 289.768875 
L 226.461928 289.768875 
L 226.722599 285.288875 
L 229.589986 285.288875 
L 229.850658 280.808875 
L 230.111329 280.808875 
L 230.372001 285.288875 
L 231.154016 271.848875 
L 231.675359 271.848875 
L 231.93603 276.328875 
L 232.718045 276.328875 
L 232.978716 280.808875 
L 234.282074 280.808875 
L 234.542745 276.328875 
L 235.585432 276.328875 
L 235.846103 271.848875 
L 236.367446 271.848875 
L 236.628118 276.328875 
L 236.888789 271.848875 
L 237.149461 271.848875 
L 237.410132 276.328875 
L 237.670804 276.328875 
L 237.931475 271.848875 
L 240.277519 271.848875 
L 240.798862 280.808875 
L 241.580877 280.808875 
L 241.841548 285.288875 
L 248.619008 285.288875 
L 248.87968 294.248875 
L 249.401023 294.248875 
L 249.661694 298.728875 
L 249.922366 298.728875 
L 250.183037 303.208875 
L 259.827884 303.208875 
L 260.088556 298.728875 
L 260.349227 289.768875 
L 261.391913 289.768875 
L 261.652585 285.288875 
L 263.737957 285.288875 
L 263.998629 280.808875 
L 264.780643 280.808875 
L 265.041315 276.328875 
L 266.344672 276.328875 
L 266.605344 271.848875 
L 266.866016 276.328875 
L 267.126687 276.328875 
L 267.387359 271.848875 
L 267.64803 271.848875 
L 267.908702 267.368875 
L 268.430045 276.328875 
L 268.951388 276.328875 
L 269.212059 280.808875 
L 270.254745 280.808875 
L 270.515417 276.328875 
L 272.079446 276.328875 
L 272.340118 280.808875 
L 273.382804 280.808875 
L 273.643475 285.288875 
L 274.686161 285.288875 
L 274.946833 280.808875 
L 275.468176 280.808875 
L 275.728848 276.328875 
L 275.989519 276.328875 
L 276.250191 280.808875 
L 278.856906 280.808875 
L 279.638921 294.248875 
L 281.20295 294.248875 
L 281.463621 289.768875 
L 282.245636 289.768875 
L 282.506307 285.288875 
L 283.027651 285.288875 
L 283.288322 280.808875 
L 283.548994 280.808875 
L 284.070337 271.848875 
L 284.59168 271.848875 
L 284.852351 258.408875 
L 286.155709 258.408875 
L 286.41638 249.448875 
L 286.677052 244.968875 
L 287.198395 244.968875 
L 287.459067 240.488875 
L 287.98041 240.488875 
L 288.241081 244.968875 
L 290.065782 244.968875 
L 290.326453 240.488875 
L 300.492643 240.488875 
L 300.753315 244.968875 
L 301.274658 244.968875 
L 301.535329 240.488875 
L 301.796001 244.968875 
L 302.056672 244.968875 
L 302.317344 249.448875 
L 302.578016 249.448875 
L 302.838687 244.968875 
L 303.099359 244.968875 
L 303.36003 249.448875 
L 326.559797 249.448875 
L 326.820468 244.968875 
L 327.08114 244.968875 
L 327.341811 249.448875 
L 327.863154 249.448875 
L 328.123826 244.968875 
L 346.892176 244.968875 
L 347.152848 249.448875 
L 356.537023 249.448875 
L 356.797694 244.968875 
L 358.361724 244.968875 
L 358.622395 249.448875 
L 364.096497 249.448875 
L 364.357169 244.968875 
L 364.61784 249.448875 
L 364.878512 249.448875 
L 365.139183 253.928875 
L 365.399855 249.448875 
L 365.660526 249.448875 
L 365.921198 253.928875 
L 366.18187 249.448875 
L 366.703213 249.448875 
L 366.963884 253.928875 
L 367.485227 253.928875 
L 367.745899 249.448875 
L 368.788585 249.448875 
L 369.049256 253.928875 
L 369.570599 253.928875 
L 369.831271 249.448875 
L 370.613286 249.448875 
L 370.873957 253.928875 
L 371.916643 253.928875 
L 372.177315 249.448875 
L 372.437986 249.448875 
L 372.698658 253.928875 
L 373.480672 253.928875 
L 373.741344 249.448875 
L 374.523359 249.448875 
L 374.78403 253.928875 
L 375.044702 249.448875 
L 376.087388 249.448875 
L 376.348059 244.968875 
L 376.608731 249.448875 
L 377.651417 249.448875 
L 377.912089 244.968875 
L 378.17276 244.968875 
L 378.433432 249.448875 
L 379.476118 249.448875 
L 379.736789 244.968875 
L 380.258132 244.968875 
L 380.518804 249.448875 
L 381.040147 249.448875 
L 381.300818 244.968875 
L 382.082833 244.968875 
L 382.343505 249.448875 
L 382.864848 249.448875 
L 383.125519 244.968875 
L 383.907534 244.968875 
L 384.168205 249.448875 
L 384.428877 249.448875 
L 384.689548 244.968875 
L 385.732234 244.968875 
L 385.992906 249.448875 
L 386.253578 249.448875 
L 386.514249 244.968875 
L 387.556935 244.968875 
L 387.817607 249.448875 
L 388.078278 244.968875 
L 389.381636 244.968875 
L 389.642307 249.448875 
L 391.206337 249.448875 
L 391.467008 253.928875 
L 391.72768 249.448875 
L 392.770366 249.448875 
L 393.031037 253.928875 
L 393.291709 253.928875 
L 393.55238 249.448875 
L 394.595067 249.448875 
L 394.855738 253.928875 
L 395.11641 249.448875 
L 396.419767 249.448875 
L 396.680439 253.928875 
L 396.94111 244.968875 
L 397.201782 244.968875 
L 397.462453 249.448875 
L 397.462453 249.448875 
" style="fill:none;stroke:#ff0000;stroke-linecap:square;stroke-width:1.5;"/>
   </g>
   <g id="line2d_30">
    <path clip-path="url(#pe363317f84)" d="M 40.603125 298.728875 
L 42.949169 298.728875 
L 43.470512 289.768875 
L 45.816556 289.768875 
L 46.077227 294.248875 
L 46.337899 289.768875 
L 51.029986 289.768875 
L 51.290658 294.248875 
L 52.072672 294.248875 
L 52.333344 303.208875 
L 177.195008 303.208875 
L 177.45568 298.728875 
L 180.583738 298.728875 
L 180.84441 303.208875 
L 227.504614 303.208875 
L 227.765286 298.728875 
L 228.5473 298.728875 
L 228.807972 294.248875 
L 229.068643 294.248875 
L 229.329315 289.768875 
L 230.893344 289.768875 
L 231.154016 294.248875 
L 231.414687 289.768875 
L 232.196702 289.768875 
L 232.457373 285.288875 
L 234.021402 285.288875 
L 234.282074 280.808875 
L 235.064089 280.808875 
L 235.32476 276.328875 
L 237.410132 276.328875 
L 237.670804 280.808875 
L 237.931475 280.808875 
L 238.192147 276.328875 
L 238.452818 280.808875 
L 238.71349 280.808875 
L 238.974161 285.288875 
L 246.794307 285.288875 
L 247.315651 294.248875 
L 248.097665 294.248875 
L 248.358337 298.728875 
L 248.619008 298.728875 
L 248.87968 303.208875 
L 259.306541 303.208875 
L 259.567213 289.768875 
L 260.349227 289.768875 
L 260.609899 285.288875 
L 263.998629 285.288875 
L 264.2593 280.808875 
L 265.562658 280.808875 
L 265.823329 285.288875 
L 266.605344 285.288875 
L 266.866016 280.808875 
L 268.169373 280.808875 
L 268.430045 285.288875 
L 268.690716 285.288875 
L 268.951388 289.768875 
L 269.733402 289.768875 
L 269.994074 294.248875 
L 275.207505 294.248875 
L 275.468176 298.728875 
L 277.553548 298.728875 
L 277.81422 303.208875 
L 279.378249 303.208875 
L 279.899592 294.248875 
L 284.331008 294.248875 
L 284.852351 285.288875 
L 287.459067 285.288875 
L 287.719738 289.768875 
L 287.98041 285.288875 
L 291.108468 285.288875 
L 291.36914 276.328875 
L 294.497198 276.328875 
L 294.75787 271.848875 
L 295.539884 271.848875 
L 295.800556 276.328875 
L 296.321899 276.328875 
L 296.58257 262.888875 
L 297.364585 262.888875 
L 297.625256 258.408875 
L 297.885928 262.888875 
L 298.146599 258.408875 
L 299.189286 258.408875 
L 299.449957 249.448875 
L 299.710629 244.968875 
L 300.753315 244.968875 
L 301.013986 240.488875 
L 301.274658 244.968875 
L 301.796001 244.968875 
L 302.056672 249.448875 
L 327.08114 249.448875 
L 327.341811 244.968875 
L 346.110161 244.968875 
L 346.370833 249.448875 
L 346.631505 249.448875 
L 346.892176 244.968875 
L 347.413519 244.968875 
L 347.674191 249.448875 
L 355.755008 249.448875 
L 356.01568 244.968875 
L 356.537023 244.968875 
L 356.797694 249.448875 
L 357.058366 249.448875 
L 357.319037 244.968875 
L 357.579709 244.968875 
L 357.84038 249.448875 
L 358.361724 249.448875 
L 358.622395 244.968875 
L 358.883067 244.968875 
L 359.143738 249.448875 
L 363.314483 249.448875 
L 363.575154 244.968875 
L 363.835826 249.448875 
L 365.660526 249.448875 
L 365.921198 253.928875 
L 366.442541 253.928875 
L 366.703213 249.448875 
L 367.485227 249.448875 
L 367.745899 253.928875 
L 368.527913 253.928875 
L 368.788585 249.448875 
L 369.570599 249.448875 
L 369.831271 253.928875 
L 370.613286 253.928875 
L 370.873957 249.448875 
L 371.134629 249.448875 
L 371.3953 253.928875 
L 372.437986 253.928875 
L 372.698658 249.448875 
L 373.220001 249.448875 
L 373.480672 253.928875 
L 374.002016 253.928875 
L 374.262687 249.448875 
L 375.044702 249.448875 
L 375.305373 244.968875 
L 375.566045 253.928875 
L 375.826716 249.448875 
L 376.608731 249.448875 
L 376.869402 244.968875 
L 377.390745 244.968875 
L 377.651417 249.448875 
L 378.433432 249.448875 
L 378.694103 244.968875 
L 379.215446 244.968875 
L 379.476118 249.448875 
L 379.997461 249.448875 
L 380.258132 244.968875 
L 381.040147 244.968875 
L 381.300818 249.448875 
L 381.822161 249.448875 
L 382.082833 244.968875 
L 382.864848 244.968875 
L 383.125519 249.448875 
L 383.386191 249.448875 
L 383.646862 244.968875 
L 384.689548 244.968875 
L 384.95022 249.448875 
L 385.210891 249.448875 
L 385.471563 244.968875 
L 386.514249 244.968875 
L 386.774921 249.448875 
L 387.035592 244.968875 
L 388.33895 244.968875 
L 388.599621 249.448875 
L 388.860293 244.968875 
L 389.120964 249.448875 
L 397.462453 249.448875 
L 397.462453 249.448875 
" style="fill:none;stroke:#00ffff;stroke-linecap:square;stroke-width:1.5;"/>
   </g>
   <g id="line2d_31">
    <path clip-path="url(#pe363317f84)" d="M 40.603125 298.728875 
L 45.295213 298.728875 
L 45.816556 289.768875 
L 47.641256 289.768875 
L 47.901928 294.248875 
L 52.333344 294.248875 
L 52.594016 298.728875 
L 53.37603 298.728875 
L 53.636702 303.208875 
L 90.391388 303.208875 
L 90.652059 298.728875 
L 93.780118 298.728875 
L 94.040789 303.208875 
L 155.298599 303.208875 
L 155.559271 294.248875 
L 155.819943 289.768875 
L 156.080614 289.768875 
L 156.601957 262.888875 
L 156.862629 262.888875 
L 157.1233 244.968875 
L 157.383972 244.968875 
L 157.644643 240.488875 
L 157.905315 240.488875 
L 158.426658 231.528875 
L 158.687329 231.528875 
L 159.208672 222.568875 
L 159.469344 227.048875 
L 159.990687 227.048875 
L 160.51203 218.088875 
L 160.772702 218.088875 
L 161.033373 222.568875 
L 161.294045 222.568875 
L 161.554716 227.048875 
L 161.815388 222.568875 
L 162.336731 222.568875 
L 163.379417 240.488875 
L 164.161432 240.488875 
L 164.422103 244.968875 
L 165.725461 244.968875 
L 166.507475 258.408875 
L 167.028818 258.408875 
L 167.28949 253.928875 
L 167.810833 253.928875 
L 168.071505 258.408875 
L 168.332176 267.368875 
L 168.592848 267.368875 
L 168.853519 271.848875 
L 169.114191 280.808875 
L 169.635534 289.768875 
L 169.896205 289.768875 
L 170.156877 294.248875 
L 172.502921 294.248875 
L 172.763592 289.768875 
L 173.024264 289.768875 
L 173.284935 276.328875 
L 174.06695 262.888875 
L 174.327621 249.448875 
L 174.588293 249.448875 
L 175.109636 227.048875 
L 175.630979 227.048875 
L 175.891651 218.088875 
L 176.152322 204.648875 
L 176.412994 200.168875 
L 176.934337 200.168875 
L 177.195008 209.128875 
L 177.977023 209.128875 
L 178.237694 213.608875 
L 179.28038 213.608875 
L 179.801724 204.648875 
L 180.062395 204.648875 
L 180.583738 195.688875 
L 180.84441 195.688875 
L 181.105081 186.728875 
L 181.365753 195.688875 
L 181.626424 195.688875 
L 181.887096 200.168875 
L 182.408439 200.168875 
L 182.66911 209.128875 
L 182.929782 213.608875 
L 183.451125 204.648875 
L 183.711797 204.648875 
L 183.972468 209.128875 
L 184.23314 222.568875 
L 184.493811 227.048875 
L 186.05784 227.048875 
L 186.318512 240.488875 
L 186.579183 244.968875 
L 186.839855 244.968875 
L 187.100526 253.928875 
L 187.361198 253.928875 
L 187.882541 262.888875 
L 188.403884 262.888875 
L 188.664556 267.368875 
L 189.185899 289.768875 
L 189.44657 294.248875 
L 189.967913 294.248875 
L 190.489256 303.208875 
L 257.48184 303.208875 
L 258.003183 294.248875 
L 258.263855 280.808875 
L 259.04587 267.368875 
L 259.306541 258.408875 
L 259.567213 244.968875 
L 260.088556 236.008875 
L 261.131242 236.008875 
L 261.391913 231.528875 
L 261.652585 218.088875 
L 261.913256 218.088875 
L 262.173928 213.608875 
L 263.216614 213.608875 
L 263.477286 209.128875 
L 264.519972 209.128875 
L 264.780643 204.648875 
L 265.041315 209.128875 
L 265.562658 209.128875 
L 265.823329 204.648875 
L 267.126687 204.648875 
L 268.169373 222.568875 
L 268.951388 222.568875 
L 269.472731 244.968875 
L 269.733402 240.488875 
L 269.994074 244.968875 
L 270.254745 244.968875 
L 270.515417 249.448875 
L 270.776089 262.888875 
L 271.297432 262.888875 
L 272.079446 276.328875 
L 272.340118 276.328875 
L 272.861461 285.288875 
L 273.122132 285.288875 
L 273.382804 289.768875 
L 273.904147 289.768875 
L 274.164818 294.248875 
L 274.686161 294.248875 
L 274.946833 298.728875 
L 275.989519 298.728875 
L 276.250191 303.208875 
L 276.510862 298.728875 
L 276.771534 298.728875 
L 277.292877 289.768875 
L 277.553548 289.768875 
L 277.81422 280.808875 
L 278.074891 276.328875 
L 278.335563 276.328875 
L 278.596234 267.368875 
L 279.378249 253.928875 
L 279.638921 240.488875 
L 279.899592 236.008875 
L 280.160264 240.488875 
L 280.420935 236.008875 
L 280.942278 209.128875 
L 281.463621 200.168875 
L 281.984964 200.168875 
L 282.245636 195.688875 
L 282.506307 195.688875 
L 282.766979 186.728875 
L 283.288322 186.728875 
L 283.548994 182.248875 
L 285.634366 182.248875 
L 285.895037 186.728875 
L 286.155709 186.728875 
L 286.41638 177.768875 
L 286.937724 177.768875 
L 287.198395 173.288875 
L 287.719738 146.408875 
L 288.241081 146.408875 
L 288.762424 137.448875 
L 289.023096 128.488875 
L 289.544439 128.488875 
L 289.80511 115.048875 
L 290.065782 115.048875 
L 290.587125 97.128875 
L 291.108468 97.128875 
L 291.36914 88.168875 
L 291.629811 92.648875 
L 297.625256 92.648875 
L 297.885928 88.168875 
L 298.146599 92.648875 
L 298.407271 92.648875 
L 298.667943 97.128875 
L 298.928614 92.648875 
L 299.189286 92.648875 
L 299.449957 88.168875 
L 299.710629 92.648875 
L 300.492643 92.648875 
L 300.753315 97.128875 
L 301.013986 92.648875 
L 301.796001 92.648875 
L 302.056672 88.168875 
L 302.317344 88.168875 
L 302.578016 92.648875 
L 303.36003 92.648875 
L 303.620702 88.168875 
L 306.74876 88.168875 
L 307.009432 92.648875 
L 307.530775 92.648875 
L 307.791446 88.168875 
L 308.312789 88.168875 
L 308.573461 92.648875 
L 312.744205 92.648875 
L 313.004877 88.168875 
L 313.786891 88.168875 
L 314.047563 92.648875 
L 314.308234 92.648875 
L 314.568906 88.168875 
L 316.91495 88.168875 
L 317.175621 83.688875 
L 317.436293 88.168875 
L 318.739651 88.168875 
L 319.000322 83.688875 
L 319.260994 101.608875 
L 319.521665 101.608875 
L 320.043008 92.648875 
L 320.564351 92.648875 
L 320.825023 97.128875 
L 321.346366 97.128875 
L 321.607037 101.608875 
L 321.867709 101.608875 
L 322.389052 92.648875 
L 322.910395 92.648875 
L 323.171067 101.608875 
L 323.69241 101.608875 
L 323.953081 92.648875 
L 324.735096 92.648875 
L 324.995767 97.128875 
L 325.256439 97.128875 
L 325.777782 88.168875 
L 326.038453 88.168875 
L 326.299125 83.688875 
L 326.559797 88.168875 
L 327.08114 88.168875 
L 327.341811 92.648875 
L 327.602483 88.168875 
L 327.863154 88.168875 
L 328.123826 83.688875 
L 328.384497 88.168875 
L 329.687855 88.168875 
L 330.209198 79.208875 
L 330.46987 83.688875 
L 330.730541 83.688875 
L 330.991213 79.208875 
L 331.251884 88.168875 
L 331.773227 79.208875 
L 332.033899 79.208875 
L 332.29457 83.688875 
L 332.555242 79.208875 
L 332.815913 79.208875 
L 333.076585 88.168875 
L 333.597928 79.208875 
L 333.858599 83.688875 
L 334.119271 83.688875 
L 334.379943 74.728875 
L 334.640614 70.248875 
L 335.161957 88.168875 
L 335.422629 79.208875 
L 335.943972 79.208875 
L 336.204643 70.248875 
L 336.465315 70.248875 
L 336.725986 79.208875 
L 337.247329 79.208875 
L 337.508001 74.728875 
L 337.768672 74.728875 
L 338.029344 70.248875 
L 338.290016 74.728875 
L 338.811359 74.728875 
L 339.07203 79.208875 
L 339.332702 79.208875 
L 339.854045 70.248875 
L 340.114716 79.208875 
L 341.418074 79.208875 
L 341.678745 74.728875 
L 341.939417 74.728875 
L 342.200089 79.208875 
L 342.982103 79.208875 
L 343.242775 70.248875 
L 343.503446 70.248875 
L 343.764118 74.728875 
L 344.024789 74.728875 
L 344.285461 79.208875 
L 344.806804 79.208875 
L 345.067475 74.728875 
L 345.84949 74.728875 
L 346.110161 79.208875 
L 346.370833 79.208875 
L 346.892176 70.248875 
L 347.152848 74.728875 
L 348.456205 74.728875 
L 348.716877 70.248875 
L 348.977548 74.728875 
L 349.23822 74.728875 
L 349.498891 70.248875 
L 349.759563 74.728875 
L 350.020234 70.248875 
L 350.280906 74.728875 
L 354.972994 74.728875 
L 355.233665 79.208875 
L 356.01568 79.208875 
L 356.276351 74.728875 
L 356.537023 79.208875 
L 357.84038 79.208875 
L 358.101052 83.688875 
L 358.361724 79.208875 
L 359.40441 79.208875 
L 359.665081 83.688875 
L 359.925753 83.688875 
L 360.186424 79.208875 
L 361.22911 79.208875 
L 361.489782 83.688875 
L 361.750453 83.688875 
L 362.011125 79.208875 
L 362.532468 79.208875 
L 362.79314 74.728875 
L 363.053811 83.688875 
L 363.575154 83.688875 
L 363.835826 79.208875 
L 364.357169 79.208875 
L 364.61784 74.728875 
L 364.878512 83.688875 
L 365.399855 83.688875 
L 365.660526 79.208875 
L 365.921198 79.208875 
L 366.18187 74.728875 
L 366.703213 83.688875 
L 367.224556 83.688875 
L 367.485227 79.208875 
L 367.745899 79.208875 
L 368.00657 74.728875 
L 368.527913 83.688875 
L 369.309928 83.688875 
L 369.570599 79.208875 
L 370.873957 79.208875 
L 371.134629 88.168875 
L 371.3953 88.168875 
L 371.655972 74.728875 
L 371.916643 74.728875 
L 372.177315 79.208875 
L 372.437986 79.208875 
L 372.698658 83.688875 
L 373.480672 70.248875 
L 374.002016 79.208875 
L 374.523359 79.208875 
L 375.305373 65.768875 
L 375.566045 74.728875 
L 375.826716 79.208875 
L 376.608731 79.208875 
L 376.869402 70.248875 
L 377.390745 79.208875 
L 378.433432 79.208875 
L 378.694103 74.728875 
L 378.954775 79.208875 
L 381.040147 79.208875 
L 381.56149 88.168875 
L 381.822161 88.168875 
L 382.082833 83.688875 
L 382.343505 74.728875 
L 382.604176 74.728875 
L 382.864848 88.168875 
L 383.646862 88.168875 
L 383.907534 83.688875 
L 384.689548 83.688875 
L 384.95022 88.168875 
L 385.210891 88.168875 
L 385.471563 83.688875 
L 385.732234 83.688875 
L 385.992906 79.208875 
L 386.253578 83.688875 
L 387.296264 83.688875 
L 387.556935 79.208875 
L 388.33895 79.208875 
L 388.599621 83.688875 
L 388.860293 83.688875 
L 389.120964 79.208875 
L 390.945665 79.208875 
L 391.206337 74.728875 
L 391.72768 74.728875 
L 391.988351 79.208875 
L 392.509694 79.208875 
L 392.770366 74.728875 
L 393.291709 74.728875 
L 393.55238 79.208875 
L 393.813052 88.168875 
L 394.334395 79.208875 
L 395.11641 79.208875 
L 395.637753 88.168875 
L 395.898424 83.688875 
L 396.159096 74.728875 
L 396.680439 74.728875 
L 397.201782 83.688875 
L 397.462453 83.688875 
L 397.462453 83.688875 
" style="fill:none;stroke:#ff00ff;stroke-linecap:square;stroke-width:1.5;"/>
   </g>
   <g id="line2d_32">
    <path clip-path="url(#pe363317f84)" d="M 40.603125 303.208875 
L 90.652059 303.208875 
L 90.912731 285.288875 
L 91.173402 280.808875 
L 91.434074 280.808875 
L 91.955417 271.848875 
L 92.998103 271.848875 
L 93.258775 262.888875 
L 93.519446 258.408875 
L 93.780118 249.448875 
L 94.040789 244.968875 
L 94.301461 249.448875 
L 94.562132 249.448875 
L 94.822804 244.968875 
L 95.604818 244.968875 
L 95.86549 240.488875 
L 96.126161 231.528875 
L 96.386833 236.008875 
L 96.647505 244.968875 
L 96.908176 240.488875 
L 97.168848 240.488875 
L 97.429519 236.008875 
L 97.690191 236.008875 
L 97.950862 240.488875 
L 98.211534 236.008875 
L 98.472205 240.488875 
L 98.732877 249.448875 
L 99.775563 249.448875 
L 100.296906 258.408875 
L 101.078921 258.408875 
L 101.339592 267.368875 
L 101.600264 271.848875 
L 101.860935 271.848875 
L 102.121607 280.808875 
L 102.382278 280.808875 
L 102.64295 285.288875 
L 103.164293 285.288875 
L 103.424964 289.768875 
L 103.685636 298.728875 
L 103.946307 303.208875 
L 175.370307 303.208875 
L 175.630979 298.728875 
L 176.412994 298.728875 
L 176.673665 289.768875 
L 177.195008 280.808875 
L 177.45568 280.808875 
L 177.716351 276.328875 
L 177.977023 276.328875 
L 178.237694 267.368875 
L 178.498366 249.448875 
L 178.759037 244.968875 
L 179.801724 195.688875 
L 180.062395 195.688875 
L 180.583738 186.728875 
L 181.105081 155.368875 
L 181.626424 146.408875 
L 181.887096 146.408875 
L 182.147767 137.448875 
L 182.408439 137.448875 
L 182.66911 132.968875 
L 182.929782 119.528875 
L 183.451125 119.528875 
L 183.711797 115.048875 
L 184.23314 83.688875 
L 184.493811 74.728875 
L 185.015154 74.728875 
L 185.275826 70.248875 
L 185.797169 88.168875 
L 186.05784 83.688875 
L 186.318512 83.688875 
L 186.579183 79.208875 
L 186.839855 83.688875 
L 187.100526 92.648875 
L 187.62187 92.648875 
L 187.882541 97.128875 
L 188.403884 97.128875 
L 188.925227 106.088875 
L 189.185899 106.088875 
L 189.44657 101.608875 
L 189.707242 101.608875 
L 189.967913 106.088875 
L 190.489256 128.488875 
L 190.749928 132.968875 
L 191.792614 186.728875 
L 192.053286 191.208875 
L 192.574629 191.208875 
L 192.8353 200.168875 
L 193.095972 200.168875 
L 193.877986 213.608875 
L 194.138658 222.568875 
L 194.399329 227.048875 
L 194.660001 236.008875 
L 195.442016 249.448875 
L 195.702687 258.408875 
L 195.963359 258.408875 
L 196.22403 262.888875 
L 196.745373 262.888875 
L 197.527388 276.328875 
L 197.788059 289.768875 
L 198.048731 294.248875 
L 199.61276 294.248875 
L 199.873432 289.768875 
L 200.134103 289.768875 
L 200.394775 276.328875 
L 200.655446 276.328875 
L 201.176789 258.408875 
L 201.437461 253.928875 
L 201.698132 240.488875 
L 201.958804 236.008875 
L 202.480147 218.088875 
L 203.00149 209.128875 
L 203.522833 209.128875 
L 204.304848 164.328875 
L 204.826191 110.568875 
L 205.086862 106.088875 
L 205.347534 106.088875 
L 206.129548 92.648875 
L 206.39022 83.688875 
L 206.650891 83.688875 
L 206.911563 74.728875 
L 207.172234 61.288875 
L 207.432906 70.248875 
L 207.954249 70.248875 
L 208.214921 79.208875 
L 208.475592 92.648875 
L 208.736264 92.648875 
L 208.996935 88.168875 
L 209.257607 88.168875 
L 209.518278 92.648875 
L 209.77895 92.648875 
L 210.039621 101.608875 
L 210.300293 106.088875 
L 210.560964 115.048875 
L 210.821636 119.528875 
L 211.342979 119.528875 
L 211.864322 141.928875 
L 212.385665 141.928875 
L 213.428351 191.208875 
L 214.210366 191.208875 
L 215.253052 209.128875 
L 215.513724 209.128875 
L 215.774395 213.608875 
L 216.295738 231.528875 
L 216.55641 236.008875 
L 216.817081 253.928875 
L 217.077753 262.888875 
L 217.338424 267.368875 
L 218.641782 267.368875 
L 219.163125 276.328875 
L 219.423797 276.328875 
L 219.684468 285.288875 
L 220.466483 285.288875 
L 220.727154 298.728875 
L 221.248497 298.728875 
L 221.509169 303.208875 
L 277.81422 303.208875 
L 278.335563 294.248875 
L 278.596234 285.288875 
L 278.856906 285.288875 
L 279.117578 280.808875 
L 279.378249 280.808875 
L 280.160264 253.928875 
L 280.420935 240.488875 
L 280.681607 236.008875 
L 280.942278 227.048875 
L 281.20295 222.568875 
L 281.463621 204.648875 
L 281.724293 195.688875 
L 282.245636 186.728875 
L 282.506307 173.288875 
L 282.766979 173.288875 
L 283.027651 164.328875 
L 283.288322 159.848875 
L 283.548994 146.408875 
L 284.59168 128.488875 
L 284.852351 110.568875 
L 285.113023 106.088875 
L 285.373694 106.088875 
L 286.41638 88.168875 
L 289.283767 88.168875 
L 289.544439 92.648875 
L 289.80511 92.648875 
L 290.065782 88.168875 
L 290.847797 88.168875 
L 291.108468 92.648875 
L 291.890483 92.648875 
L 292.151154 88.168875 
L 292.411826 92.648875 
L 293.975855 92.648875 
L 294.236526 97.128875 
L 294.497198 92.648875 
L 295.279213 92.648875 
L 295.539884 97.128875 
L 295.800556 97.128875 
L 296.061227 92.648875 
L 296.843242 92.648875 
L 297.103913 97.128875 
L 297.364585 97.128875 
L 297.625256 92.648875 
L 298.407271 92.648875 
L 298.667943 97.128875 
L 298.928614 97.128875 
L 299.189286 92.648875 
L 300.753315 92.648875 
L 301.013986 88.168875 
L 301.274658 88.168875 
L 301.535329 92.648875 
L 302.056672 92.648875 
L 302.317344 88.168875 
L 304.663388 88.168875 
L 304.924059 92.648875 
L 305.184731 92.648875 
L 305.445402 88.168875 
L 306.227417 88.168875 
L 306.488089 92.648875 
L 307.270103 92.648875 
L 307.530775 88.168875 
L 307.791446 88.168875 
L 308.052118 92.648875 
L 312.744205 92.648875 
L 313.004877 88.168875 
L 313.265548 88.168875 
L 313.52622 92.648875 
L 314.047563 92.648875 
L 314.308234 88.168875 
L 317.175621 88.168875 
L 317.436293 92.648875 
L 317.696964 88.168875 
L 318.478979 88.168875 
L 318.739651 92.648875 
L 319.000322 92.648875 
L 319.260994 101.608875 
L 319.521665 101.608875 
L 319.782337 92.648875 
L 320.30368 92.648875 
L 320.564351 101.608875 
L 320.825023 97.128875 
L 321.607037 97.128875 
L 322.12838 106.088875 
L 322.389052 101.608875 
L 322.649724 101.608875 
L 323.171067 92.648875 
L 323.69241 101.608875 
L 324.213753 101.608875 
L 324.735096 92.648875 
L 325.256439 92.648875 
L 325.51711 97.128875 
L 326.038453 97.128875 
L 326.299125 88.168875 
L 326.820468 88.168875 
L 327.08114 92.648875 
L 327.341811 88.168875 
L 328.123826 88.168875 
L 328.384497 83.688875 
L 328.645169 88.168875 
L 328.90584 83.688875 
L 329.166512 88.168875 
L 329.427183 83.688875 
L 330.209198 83.688875 
L 330.46987 88.168875 
L 330.730541 83.688875 
L 331.512556 83.688875 
L 331.773227 79.208875 
L 332.29457 88.168875 
L 332.555242 79.208875 
L 332.815913 79.208875 
L 333.076585 83.688875 
L 333.337256 79.208875 
L 333.597928 79.208875 
L 333.858599 88.168875 
L 334.119271 83.688875 
L 334.379943 74.728875 
L 334.640614 79.208875 
L 334.901286 79.208875 
L 335.161957 83.688875 
L 335.6833 83.688875 
L 335.943972 74.728875 
L 336.204643 70.248875 
L 336.725986 79.208875 
L 337.508001 79.208875 
L 337.768672 70.248875 
L 338.029344 70.248875 
L 338.290016 74.728875 
L 338.550687 74.728875 
L 338.811359 79.208875 
L 339.07203 74.728875 
L 339.332702 79.208875 
L 339.593373 70.248875 
L 339.854045 79.208875 
L 341.157402 79.208875 
L 341.418074 74.728875 
L 341.678745 79.208875 
L 342.46076 79.208875 
L 342.721432 70.248875 
L 343.242775 70.248875 
L 343.503446 79.208875 
L 343.764118 83.688875 
L 344.024789 83.688875 
L 344.546132 74.728875 
L 345.067475 74.728875 
L 345.328147 79.208875 
L 345.84949 79.208875 
L 346.110161 74.728875 
L 346.631505 74.728875 
L 346.892176 70.248875 
L 347.152848 74.728875 
L 347.413519 74.728875 
L 347.674191 79.208875 
L 348.195534 70.248875 
L 348.456205 70.248875 
L 348.716877 74.728875 
L 349.23822 74.728875 
L 349.498891 70.248875 
L 349.759563 74.728875 
L 350.541578 74.728875 
L 350.802249 70.248875 
L 351.062921 74.728875 
L 353.930307 74.728875 
L 354.190979 79.208875 
L 354.451651 74.728875 
L 355.233665 74.728875 
L 355.494337 79.208875 
L 358.361724 79.208875 
L 358.622395 83.688875 
L 358.883067 79.208875 
L 360.186424 79.208875 
L 360.447096 83.688875 
L 360.707767 79.208875 
L 361.750453 79.208875 
L 362.011125 83.688875 
L 362.271797 83.688875 
L 362.532468 79.208875 
L 363.575154 79.208875 
L 363.835826 83.688875 
L 364.096497 83.688875 
L 364.357169 79.208875 
L 365.139183 79.208875 
L 365.399855 83.688875 
L 365.921198 83.688875 
L 366.18187 79.208875 
L 366.703213 79.208875 
L 366.963884 83.688875 
L 367.745899 83.688875 
L 368.00657 79.208875 
L 368.527913 79.208875 
L 368.788585 83.688875 
L 369.049256 83.688875 
L 369.309928 79.208875 
L 369.570599 83.688875 
L 369.831271 79.208875 
L 370.352614 88.168875 
L 370.613286 79.208875 
L 371.134629 79.208875 
L 371.3953 74.728875 
L 371.655972 83.688875 
L 371.916643 88.168875 
L 372.177315 83.688875 
L 372.437986 83.688875 
L 372.698658 79.208875 
L 372.959329 79.208875 
L 373.220001 70.248875 
L 373.480672 74.728875 
L 373.741344 74.728875 
L 374.002016 79.208875 
L 374.262687 79.208875 
L 374.78403 70.248875 
L 375.044702 70.248875 
L 375.566045 79.208875 
L 380.518804 79.208875 
L 381.040147 88.168875 
L 381.56149 79.208875 
L 382.082833 79.208875 
L 382.343505 88.168875 
L 383.386191 88.168875 
L 383.646862 83.688875 
L 383.907534 83.688875 
L 384.168205 88.168875 
L 384.95022 88.168875 
L 385.210891 83.688875 
L 385.992906 83.688875 
L 386.253578 88.168875 
L 386.514249 88.168875 
L 387.035592 79.208875 
L 387.296264 79.208875 
L 387.556935 83.688875 
L 387.817607 83.688875 
L 388.078278 88.168875 
L 388.33895 88.168875 
L 388.599621 79.208875 
L 389.642307 79.208875 
L 389.902979 83.688875 
L 390.163651 79.208875 
L 391.467008 79.208875 
L 391.72768 83.688875 
L 392.249023 74.728875 
L 392.770366 74.728875 
L 393.291709 92.648875 
L 393.55238 92.648875 
L 393.813052 79.208875 
L 394.595067 79.208875 
L 394.855738 83.688875 
L 395.11641 92.648875 
L 395.377081 92.648875 
L 395.637753 83.688875 
L 396.159096 74.728875 
L 396.419767 74.728875 
L 396.680439 83.688875 
L 396.94111 88.168875 
L 397.201782 88.168875 
L 397.462453 79.208875 
L 397.462453 79.208875 
" style="fill:none;stroke:#000000;stroke-linecap:square;stroke-width:1.5;"/>
   </g>
   <g id="patch_3">
    <path d="M 40.603125 315.304875 
L 40.603125 49.192875 
" style="fill:none;stroke:#000000;stroke-linecap:square;stroke-linejoin:miter;stroke-width:0.8;"/>
   </g>
   <g id="patch_4">
    <path d="M 397.723125 315.304875 
L 397.723125 49.192875 
" style="fill:none;stroke:#000000;stroke-linecap:square;stroke-linejoin:miter;stroke-width:0.8;"/>
   </g>
   <g id="patch_5">
    <path d="M 40.603125 315.304875 
L 397.723125 315.304875 
" style="fill:none;stroke:#000000;stroke-linecap:square;stroke-linejoin:miter;stroke-width:0.8;"/>
   </g>
   <g id="patch_6">
    <path d="M 40.603125 49.192875 
L 397.723125 49.192875 
" style="fill:none;stroke:#000000;stroke-linecap:square;stroke-linejoin:miter;stroke-width:0.8;"/>
   </g>
   <g id="text_16">
    <!-- Discovered nodes per time -->
    <defs>
     <path d="M 54.890625 33.015625 
L 54.890625 0 
L 45.90625 0 
L 45.90625 32.71875 
Q 45.90625 40.484375 42.875 44.328125 
Q 39.84375 48.1875 33.796875 48.1875 
Q 26.515625 48.1875 22.3125 43.546875 
Q 18.109375 38.921875 18.109375 30.90625 
L 18.109375 0 
L 9.078125 0 
L 9.078125 54.6875 
L 18.109375 54.6875 
L 18.109375 46.1875 
Q 21.34375 51.125 25.703125 53.5625 
Q 30.078125 56 35.796875 56 
Q 45.21875 56 50.046875 50.171875 
Q 54.890625 44.34375 54.890625 33.015625 
z
" id="DejaVuSans-6e"/>
     <path d="M 18.109375 8.203125 
L 18.109375 -20.796875 
L 9.078125 -20.796875 
L 9.078125 54.6875 
L 18.109375 54.6875 
L 18.109375 46.390625 
Q 20.953125 51.265625 25.265625 53.625 
Q 29.59375 56 35.59375 56 
Q 45.5625 56 51.78125 48.09375 
Q 58.015625 40.1875 58.015625 27.296875 
Q 58.015625 14.40625 51.78125 6.484375 
Q 45.5625 -1.421875 35.59375 -1.421875 
Q 29.59375 -1.421875 25.265625 0.953125 
Q 20.953125 3.328125 18.109375 8.203125 
z
M 48.6875 27.296875 
Q 48.6875 37.203125 44.609375 42.84375 
Q 40.53125 48.484375 33.40625 48.484375 
Q 26.265625 48.484375 22.1875 42.84375 
Q 18.109375 37.203125 18.109375 27.296875 
Q 18.109375 17.390625 22.1875 11.75 
Q 26.265625 6.109375 33.40625 6.109375 
Q 40.53125 6.109375 44.609375 11.75 
Q 48.6875 17.390625 48.6875 27.296875 
z
" id="DejaVuSans-70"/>
     <path d="M 18.3125 70.21875 
L 18.3125 54.6875 
L 36.8125 54.6875 
L 36.8125 47.703125 
L 18.3125 47.703125 
L 18.3125 18.015625 
Q 18.3125 11.328125 20.140625 9.421875 
Q 21.96875 7.515625 27.59375 7.515625 
L 36.8125 7.515625 
L 36.8125 0 
L 27.59375 0 
Q 17.1875 0 13.234375 3.875 
Q 9.28125 7.765625 9.28125 18.015625 
L 9.28125 47.703125 
L 2.6875 47.703125 
L 2.6875 54.6875 
L 9.28125 54.6875 
L 9.28125 70.21875 
z
" id="DejaVuSans-74"/>
    </defs>
    <g transform="translate(138.227813 16.318125)scale(0.12 -0.12)">
     <use xlink:href="#DejaVuSans-44"/>
     <use x="77.001953" xlink:href="#DejaVuSans-69"/>
     <use x="104.785156" xlink:href="#DejaVuSans-73"/>
     <use x="156.884766" xlink:href="#DejaVuSans-63"/>
     <use x="211.865234" xlink:href="#DejaVuSans-6f"/>
     <use x="273.046875" xlink:href="#DejaVuSans-76"/>
     <use x="332.226562" xlink:href="#DejaVuSans-65"/>
     <use x="393.75" xlink:href="#DejaVuSans-72"/>
     <use x="434.832031" xlink:href="#DejaVuSans-65"/>
     <use x="496.355469" xlink:href="#DejaVuSans-64"/>
     <use x="559.832031" xlink:href="#DejaVuSans-20"/>
     <use x="591.619141" xlink:href="#DejaVuSans-6e"/>
     <use x="654.998047" xlink:href="#DejaVuSans-6f"/>
     <use x="716.179688" xlink:href="#DejaVuSans-64"/>
     <use x="779.65625" xlink:href="#DejaVuSans-65"/>
     <use x="841.179688" xlink:href="#DejaVuSans-73"/>
     <use x="893.279297" xlink:href="#DejaVuSans-20"/>
     <use x="925.066406" xlink:href="#DejaVuSans-70"/>
     <use x="988.542969" xlink:href="#DejaVuSans-65"/>
     <use x="1050.066406" xlink:href="#DejaVuSans-72"/>
     <use x="1091.179688" xlink:href="#DejaVuSans-20"/>
     <use x="1122.966797" xlink:href="#DejaVuSans-74"/>
     <use x="1162.175781" xlink:href="#DejaVuSans-69"/>
     <use x="1189.958984" xlink:href="#DejaVuSans-6d"/>
     <use x="1287.371094" xlink:href="#DejaVuSans-65"/>
    </g>
    <!--  -->
    <g transform="translate(219.163125 29.7555)scale(0.12 -0.12)"/>
    <!--  -->
    <g transform="translate(219.163125 43.192875)scale(0.12 -0.12)"/>
   </g>
   <g id="legend_1">
    <g id="patch_7">
     <path d="M 411.865525 139.939385 
L 482.471775 139.939385 
Q 484.471775 139.939385 484.471775 137.939385 
L 484.471775 50.870635 
Q 484.471775 48.870635 482.471775 48.870635 
L 411.865525 48.870635 
Q 409.865525 48.870635 409.865525 50.870635 
L 409.865525 137.939385 
Q 409.865525 139.939385 411.865525 139.939385 
z
" style="fill:#ffffff;opacity:0.8;stroke:#cccccc;stroke-linejoin:miter;"/>
    </g>
    <g id="line2d_33">
     <path d="M 413.865525 56.969072 
L 433.865525 56.969072 
" style="fill:none;stroke:#008000;stroke-linecap:square;stroke-width:1.5;"/>
    </g>
    <g id="line2d_34"/>
    <g id="text_17">
     <!-- drone 0 -->
     <g transform="translate(441.865525 60.469072)scale(0.1 -0.1)">
      <use xlink:href="#DejaVuSans-64"/>
      <use x="63.476562" xlink:href="#DejaVuSans-72"/>
      <use x="104.558594" xlink:href="#DejaVuSans-6f"/>
      <use x="165.740234" xlink:href="#DejaVuSans-6e"/>
      <use x="229.119141" xlink:href="#DejaVuSans-65"/>
      <use x="290.642578" xlink:href="#DejaVuSans-20"/>
      <use x="322.429688" xlink:href="#DejaVuSans-30"/>
     </g>
    </g>
    <g id="line2d_35">
     <path d="M 413.865525 71.647197 
L 433.865525 71.647197 
" style="fill:none;stroke:#0000ff;stroke-linecap:square;stroke-width:1.5;"/>
    </g>
    <g id="line2d_36"/>
    <g id="text_18">
     <!-- drone 1 -->
     <g transform="translate(441.865525 75.147197)scale(0.1 -0.1)">
      <use xlink:href="#DejaVuSans-64"/>
      <use x="63.476562" xlink:href="#DejaVuSans-72"/>
      <use x="104.558594" xlink:href="#DejaVuSans-6f"/>
      <use x="165.740234" xlink:href="#DejaVuSans-6e"/>
      <use x="229.119141" xlink:href="#DejaVuSans-65"/>
      <use x="290.642578" xlink:href="#DejaVuSans-20"/>
      <use x="322.429688" xlink:href="#DejaVuSans-31"/>
     </g>
    </g>
    <g id="line2d_37">
     <path d="M 413.865525 86.325322 
L 433.865525 86.325322 
" style="fill:none;stroke:#ff0000;stroke-linecap:square;stroke-width:1.5;"/>
    </g>
    <g id="line2d_38"/>
    <g id="text_19">
     <!-- drone 2 -->
     <g transform="translate(441.865525 89.825322)scale(0.1 -0.1)">
      <use xlink:href="#DejaVuSans-64"/>
      <use x="63.476562" xlink:href="#DejaVuSans-72"/>
      <use x="104.558594" xlink:href="#DejaVuSans-6f"/>
      <use x="165.740234" xlink:href="#DejaVuSans-6e"/>
      <use x="229.119141" xlink:href="#DejaVuSans-65"/>
      <use x="290.642578" xlink:href="#DejaVuSans-20"/>
      <use x="322.429688" xlink:href="#DejaVuSans-32"/>
     </g>
    </g>
    <g id="line2d_39">
     <path d="M 413.865525 101.003447 
L 433.865525 101.003447 
" style="fill:none;stroke:#00ffff;stroke-linecap:square;stroke-width:1.5;"/>
    </g>
    <g id="line2d_40"/>
    <g id="text_20">
     <!-- drone 3 -->
     <g transform="translate(441.865525 104.503447)scale(0.1 -0.1)">
      <use xlink:href="#DejaVuSans-64"/>
      <use x="63.476562" xlink:href="#DejaVuSans-72"/>
      <use x="104.558594" xlink:href="#DejaVuSans-6f"/>
      <use x="165.740234" xlink:href="#DejaVuSans-6e"/>
      <use x="229.119141" xlink:href="#DejaVuSans-65"/>
      <use x="290.642578" xlink:href="#DejaVuSans-20"/>
      <use x="322.429688" xlink:href="#DejaVuSans-33"/>
     </g>
    </g>
    <g id="line2d_41">
     <path d="M 413.865525 115.681572 
L 433.865525 115.681572 
" style="fill:none;stroke:#ff00ff;stroke-linecap:square;stroke-width:1.5;"/>
    </g>
    <g id="line2d_42"/>
    <g id="text_21">
     <!-- drone 4 -->
     <g transform="translate(441.865525 119.181572)scale(0.1 -0.1)">
      <use xlink:href="#DejaVuSans-64"/>
      <use x="63.476562" xlink:href="#DejaVuSans-72"/>
      <use x="104.558594" xlink:href="#DejaVuSans-6f"/>
      <use x="165.740234" xlink:href="#DejaVuSans-6e"/>
      <use x="229.119141" xlink:href="#DejaVuSans-65"/>
      <use x="290.642578" xlink:href="#DejaVuSans-20"/>
      <use x="322.429688" xlink:href="#DejaVuSans-34"/>
     </g>
    </g>
    <g id="line2d_43">
     <path d="M 413.865525 130.359697 
L 433.865525 130.359697 
" style="fill:none;stroke:#000000;stroke-linecap:square;stroke-width:1.5;"/>
    </g>
    <g id="line2d_44"/>
    <g id="text_22">
     <!-- drone 5 -->
     <g transform="translate(441.865525 133.859697)scale(0.1 -0.1)">
      <use xlink:href="#DejaVuSans-64"/>
      <use x="63.476562" xlink:href="#DejaVuSans-72"/>
      <use x="104.558594" xlink:href="#DejaVuSans-6f"/>
      <use x="165.740234" xlink:href="#DejaVuSans-6e"/>
      <use x="229.119141" xlink:href="#DejaVuSans-65"/>
      <use x="290.642578" xlink:href="#DejaVuSans-20"/>
      <use x="322.429688" xlink:href="#DejaVuSans-35"/>
     </g>
    </g>
   </g>
  </g>
 </g>
 <defs>
  <clipPath id="pe363317f84">
   <rect height="266.112" width="357.12" x="40.603125" y="49.192875"/>
  </clipPath>
 </defs>
</svg>
