<?xml version="1.0" encoding="utf-8" standalone="no"?>
<!DOCTYPE svg PUBLIC "-//W3C//DTD SVG 1.1//EN"
  "http://www.w3.org/Graphics/SVG/1.1/DTD/svg11.dtd">
<!-- Created with matplotlib (http://matplotlib.org/) -->
<svg height="352pt" version="1.1" viewBox="0 0 537 352" width="537pt" xmlns="http://www.w3.org/2000/svg" xmlns:xlink="http://www.w3.org/1999/xlink">
 <defs>
  <style type="text/css">
*{stroke-linecap:butt;stroke-linejoin:round;}
  </style>
 </defs>
 <g id="figure_1">
  <g id="patch_1">
   <path d="M 0 352.861125 
L 537.441576 352.861125 
L 537.441576 0 
L 0 0 
z
" style="fill:#ffffff;"/>
  </g>
  <g id="axes_1">
   <g id="patch_2">
    <path d="M 40.603125 315.304875 
L 397.723125 315.304875 
L 397.723125 49.192875 
L 40.603125 49.192875 
z
" style="fill:#ffffff;"/>
   </g>
   <g id="matplotlib.axis_1">
    <g id="xtick_1">
     <g id="line2d_1">
      <path clip-path="url(#p44cb45711f)" d="M 40.603125 315.304875 
L 40.603125 49.192875 
" style="fill:none;stroke:#b0b0b0;stroke-linecap:square;stroke-width:0.8;"/>
     </g>
     <g id="line2d_2">
      <defs>
       <path d="M 0 0 
L 0 3.5 
" id="mfd101ef0bd" style="stroke:#000000;stroke-width:0.8;"/>
      </defs>
      <g>
       <use style="stroke:#000000;stroke-width:0.8;" x="40.603125" xlink:href="#mfd101ef0bd" y="315.304875"/>
      </g>
     </g>
     <g id="text_1">
      <!-- 0 -->
      <defs>
       <path d="M 31.78125 66.40625 
Q 24.171875 66.40625 20.328125 58.90625 
Q 16.5 51.421875 16.5 36.375 
Q 16.5 21.390625 20.328125 13.890625 
Q 24.171875 6.390625 31.78125 6.390625 
Q 39.453125 6.390625 43.28125 13.890625 
Q 47.125 21.390625 47.125 36.375 
Q 47.125 51.421875 43.28125 58.90625 
Q 39.453125 66.40625 31.78125 66.40625 
z
M 31.78125 74.21875 
Q 44.046875 74.21875 50.515625 64.515625 
Q 56.984375 54.828125 56.984375 36.375 
Q 56.984375 17.96875 50.515625 8.265625 
Q 44.046875 -1.421875 31.78125 -1.421875 
Q 19.53125 -1.421875 13.0625 8.265625 
Q 6.59375 17.96875 6.59375 36.375 
Q 6.59375 54.828125 13.0625 64.515625 
Q 19.53125 74.21875 31.78125 74.21875 
z
" id="DejaVuSans-30"/>
      </defs>
      <g transform="translate(37.421875 329.903312)scale(0.1 -0.1)">
       <use xlink:href="#DejaVuSans-30"/>
      </g>
     </g>
    </g>
    <g id="xtick_2">
     <g id="line2d_3">
      <path clip-path="url(#p44cb45711f)" d="M 92.737432 315.304875 
L 92.737432 49.192875 
" style="fill:none;stroke:#b0b0b0;stroke-linecap:square;stroke-width:0.8;"/>
     </g>
     <g id="line2d_4">
      <g>
       <use style="stroke:#000000;stroke-width:0.8;" x="92.737432" xlink:href="#mfd101ef0bd" y="315.304875"/>
      </g>
     </g>
     <g id="text_2">
      <!-- 200 -->
      <defs>
       <path d="M 19.1875 8.296875 
L 53.609375 8.296875 
L 53.609375 0 
L 7.328125 0 
L 7.328125 8.296875 
Q 12.9375 14.109375 22.625 23.890625 
Q 32.328125 33.6875 34.8125 36.53125 
Q 39.546875 41.84375 41.421875 45.53125 
Q 43.3125 49.21875 43.3125 52.78125 
Q 43.3125 58.59375 39.234375 62.25 
Q 35.15625 65.921875 28.609375 65.921875 
Q 23.96875 65.921875 18.8125 64.3125 
Q 13.671875 62.703125 7.8125 59.421875 
L 7.8125 69.390625 
Q 13.765625 71.78125 18.9375 73 
Q 24.125 74.21875 28.421875 74.21875 
Q 39.75 74.21875 46.484375 68.546875 
Q 53.21875 62.890625 53.21875 53.421875 
Q 53.21875 48.921875 51.53125 44.890625 
Q 49.859375 40.875 45.40625 35.40625 
Q 44.1875 33.984375 37.640625 27.21875 
Q 31.109375 20.453125 19.1875 8.296875 
z
" id="DejaVuSans-32"/>
      </defs>
      <g transform="translate(83.193682 329.903312)scale(0.1 -0.1)">
       <use xlink:href="#DejaVuSans-32"/>
       <use x="63.623047" xlink:href="#DejaVuSans-30"/>
       <use x="127.246094" xlink:href="#DejaVuSans-30"/>
      </g>
     </g>
    </g>
    <g id="xtick_3">
     <g id="line2d_5">
      <path clip-path="url(#p44cb45711f)" d="M 144.871738 315.304875 
L 144.871738 49.192875 
" style="fill:none;stroke:#b0b0b0;stroke-linecap:square;stroke-width:0.8;"/>
     </g>
     <g id="line2d_6">
      <g>
       <use style="stroke:#000000;stroke-width:0.8;" x="144.871738" xlink:href="#mfd101ef0bd" y="315.304875"/>
      </g>
     </g>
     <g id="text_3">
      <!-- 400 -->
      <defs>
       <path d="M 37.796875 64.3125 
L 12.890625 25.390625 
L 37.796875 25.390625 
z
M 35.203125 72.90625 
L 47.609375 72.90625 
L 47.609375 25.390625 
L 58.015625 25.390625 
L 58.015625 17.1875 
L 47.609375 17.1875 
L 47.609375 0 
L 37.796875 0 
L 37.796875 17.1875 
L 4.890625 17.1875 
L 4.890625 26.703125 
z
" id="DejaVuSans-34"/>
      </defs>
      <g transform="translate(135.327988 329.903312)scale(0.1 -0.1)">
       <use xlink:href="#DejaVuSans-34"/>
       <use x="63.623047" xlink:href="#DejaVuSans-30"/>
       <use x="127.246094" xlink:href="#DejaVuSans-30"/>
      </g>
     </g>
    </g>
    <g id="xtick_4">
     <g id="line2d_7">
      <path clip-path="url(#p44cb45711f)" d="M 197.006045 315.304875 
L 197.006045 49.192875 
" style="fill:none;stroke:#b0b0b0;stroke-linecap:square;stroke-width:0.8;"/>
     </g>
     <g id="line2d_8">
      <g>
       <use style="stroke:#000000;stroke-width:0.8;" x="197.006045" xlink:href="#mfd101ef0bd" y="315.304875"/>
      </g>
     </g>
     <g id="text_4">
      <!-- 600 -->
      <defs>
       <path d="M 33.015625 40.375 
Q 26.375 40.375 22.484375 35.828125 
Q 18.609375 31.296875 18.609375 23.390625 
Q 18.609375 15.53125 22.484375 10.953125 
Q 26.375 6.390625 33.015625 6.390625 
Q 39.65625 6.390625 43.53125 10.953125 
Q 47.40625 15.53125 47.40625 23.390625 
Q 47.40625 31.296875 43.53125 35.828125 
Q 39.65625 40.375 33.015625 40.375 
z
M 52.59375 71.296875 
L 52.59375 62.3125 
Q 48.875 64.0625 45.09375 64.984375 
Q 41.3125 65.921875 37.59375 65.921875 
Q 27.828125 65.921875 22.671875 59.328125 
Q 17.53125 52.734375 16.796875 39.40625 
Q 19.671875 43.65625 24.015625 45.921875 
Q 28.375 48.1875 33.59375 48.1875 
Q 44.578125 48.1875 50.953125 41.515625 
Q 57.328125 34.859375 57.328125 23.390625 
Q 57.328125 12.15625 50.6875 5.359375 
Q 44.046875 -1.421875 33.015625 -1.421875 
Q 20.359375 -1.421875 13.671875 8.265625 
Q 6.984375 17.96875 6.984375 36.375 
Q 6.984375 53.65625 15.1875 63.9375 
Q 23.390625 74.21875 37.203125 74.21875 
Q 40.921875 74.21875 44.703125 73.484375 
Q 48.484375 72.75 52.59375 71.296875 
z
" id="DejaVuSans-36"/>
      </defs>
      <g transform="translate(187.462295 329.903312)scale(0.1 -0.1)">
       <use xlink:href="#DejaVuSans-36"/>
       <use x="63.623047" xlink:href="#DejaVuSans-30"/>
       <use x="127.246094" xlink:href="#DejaVuSans-30"/>
      </g>
     </g>
    </g>
    <g id="xtick_5">
     <g id="line2d_9">
      <path clip-path="url(#p44cb45711f)" d="M 249.140351 315.304875 
L 249.140351 49.192875 
" style="fill:none;stroke:#b0b0b0;stroke-linecap:square;stroke-width:0.8;"/>
     </g>
     <g id="line2d_10">
      <g>
       <use style="stroke:#000000;stroke-width:0.8;" x="249.140351" xlink:href="#mfd101ef0bd" y="315.304875"/>
      </g>
     </g>
     <g id="text_5">
      <!-- 800 -->
      <defs>
       <path d="M 31.78125 34.625 
Q 24.75 34.625 20.71875 30.859375 
Q 16.703125 27.09375 16.703125 20.515625 
Q 16.703125 13.921875 20.71875 10.15625 
Q 24.75 6.390625 31.78125 6.390625 
Q 38.8125 6.390625 42.859375 10.171875 
Q 46.921875 13.96875 46.921875 20.515625 
Q 46.921875 27.09375 42.890625 30.859375 
Q 38.875 34.625 31.78125 34.625 
z
M 21.921875 38.8125 
Q 15.578125 40.375 12.03125 44.71875 
Q 8.5 49.078125 8.5 55.328125 
Q 8.5 64.0625 14.71875 69.140625 
Q 20.953125 74.21875 31.78125 74.21875 
Q 42.671875 74.21875 48.875 69.140625 
Q 55.078125 64.0625 55.078125 55.328125 
Q 55.078125 49.078125 51.53125 44.71875 
Q 48 40.375 41.703125 38.8125 
Q 48.828125 37.15625 52.796875 32.3125 
Q 56.78125 27.484375 56.78125 20.515625 
Q 56.78125 9.90625 50.3125 4.234375 
Q 43.84375 -1.421875 31.78125 -1.421875 
Q 19.734375 -1.421875 13.25 4.234375 
Q 6.78125 9.90625 6.78125 20.515625 
Q 6.78125 27.484375 10.78125 32.3125 
Q 14.796875 37.15625 21.921875 38.8125 
z
M 18.3125 54.390625 
Q 18.3125 48.734375 21.84375 45.5625 
Q 25.390625 42.390625 31.78125 42.390625 
Q 38.140625 42.390625 41.71875 45.5625 
Q 45.3125 48.734375 45.3125 54.390625 
Q 45.3125 60.0625 41.71875 63.234375 
Q 38.140625 66.40625 31.78125 66.40625 
Q 25.390625 66.40625 21.84375 63.234375 
Q 18.3125 60.0625 18.3125 54.390625 
z
" id="DejaVuSans-38"/>
      </defs>
      <g transform="translate(239.596601 329.903312)scale(0.1 -0.1)">
       <use xlink:href="#DejaVuSans-38"/>
       <use x="63.623047" xlink:href="#DejaVuSans-30"/>
       <use x="127.246094" xlink:href="#DejaVuSans-30"/>
      </g>
     </g>
    </g>
    <g id="xtick_6">
     <g id="line2d_11">
      <path clip-path="url(#p44cb45711f)" d="M 301.274658 315.304875 
L 301.274658 49.192875 
" style="fill:none;stroke:#b0b0b0;stroke-linecap:square;stroke-width:0.8;"/>
     </g>
     <g id="line2d_12">
      <g>
       <use style="stroke:#000000;stroke-width:0.8;" x="301.274658" xlink:href="#mfd101ef0bd" y="315.304875"/>
      </g>
     </g>
     <g id="text_6">
      <!-- 1000 -->
      <defs>
       <path d="M 12.40625 8.296875 
L 28.515625 8.296875 
L 28.515625 63.921875 
L 10.984375 60.40625 
L 10.984375 69.390625 
L 28.421875 72.90625 
L 38.28125 72.90625 
L 38.28125 8.296875 
L 54.390625 8.296875 
L 54.390625 0 
L 12.40625 0 
z
" id="DejaVuSans-31"/>
      </defs>
      <g transform="translate(288.549658 329.903312)scale(0.1 -0.1)">
       <use xlink:href="#DejaVuSans-31"/>
       <use x="63.623047" xlink:href="#DejaVuSans-30"/>
       <use x="127.246094" xlink:href="#DejaVuSans-30"/>
       <use x="190.869141" xlink:href="#DejaVuSans-30"/>
      </g>
     </g>
    </g>
    <g id="xtick_7">
     <g id="line2d_13">
      <path clip-path="url(#p44cb45711f)" d="M 353.408964 315.304875 
L 353.408964 49.192875 
" style="fill:none;stroke:#b0b0b0;stroke-linecap:square;stroke-width:0.8;"/>
     </g>
     <g id="line2d_14">
      <g>
       <use style="stroke:#000000;stroke-width:0.8;" x="353.408964" xlink:href="#mfd101ef0bd" y="315.304875"/>
      </g>
     </g>
     <g id="text_7">
      <!-- 1200 -->
      <g transform="translate(340.683964 329.903312)scale(0.1 -0.1)">
       <use xlink:href="#DejaVuSans-31"/>
       <use x="63.623047" xlink:href="#DejaVuSans-32"/>
       <use x="127.246094" xlink:href="#DejaVuSans-30"/>
       <use x="190.869141" xlink:href="#DejaVuSans-30"/>
      </g>
     </g>
    </g>
    <g id="text_8">
     <!-- Time(s) -->
     <defs>
      <path d="M -0.296875 72.90625 
L 61.375 72.90625 
L 61.375 64.59375 
L 35.5 64.59375 
L 35.5 0 
L 25.59375 0 
L 25.59375 64.59375 
L -0.296875 64.59375 
z
" id="DejaVuSans-54"/>
      <path d="M 9.421875 54.6875 
L 18.40625 54.6875 
L 18.40625 0 
L 9.421875 0 
z
M 9.421875 75.984375 
L 18.40625 75.984375 
L 18.40625 64.59375 
L 9.421875 64.59375 
z
" id="DejaVuSans-69"/>
      <path d="M 52 44.1875 
Q 55.375 50.25 60.0625 53.125 
Q 64.75 56 71.09375 56 
Q 79.640625 56 84.28125 50.015625 
Q 88.921875 44.046875 88.921875 33.015625 
L 88.921875 0 
L 79.890625 0 
L 79.890625 32.71875 
Q 79.890625 40.578125 77.09375 44.375 
Q 74.3125 48.1875 68.609375 48.1875 
Q 61.625 48.1875 57.5625 43.546875 
Q 53.515625 38.921875 53.515625 30.90625 
L 53.515625 0 
L 44.484375 0 
L 44.484375 32.71875 
Q 44.484375 40.625 41.703125 44.40625 
Q 38.921875 48.1875 33.109375 48.1875 
Q 26.21875 48.1875 22.15625 43.53125 
Q 18.109375 38.875 18.109375 30.90625 
L 18.109375 0 
L 9.078125 0 
L 9.078125 54.6875 
L 18.109375 54.6875 
L 18.109375 46.1875 
Q 21.1875 51.21875 25.484375 53.609375 
Q 29.78125 56 35.6875 56 
Q 41.65625 56 45.828125 52.96875 
Q 50 49.953125 52 44.1875 
z
" id="DejaVuSans-6d"/>
      <path d="M 56.203125 29.59375 
L 56.203125 25.203125 
L 14.890625 25.203125 
Q 15.484375 15.921875 20.484375 11.0625 
Q 25.484375 6.203125 34.421875 6.203125 
Q 39.59375 6.203125 44.453125 7.46875 
Q 49.3125 8.734375 54.109375 11.28125 
L 54.109375 2.78125 
Q 49.265625 0.734375 44.1875 -0.34375 
Q 39.109375 -1.421875 33.890625 -1.421875 
Q 20.796875 -1.421875 13.15625 6.1875 
Q 5.515625 13.8125 5.515625 26.8125 
Q 5.515625 40.234375 12.765625 48.109375 
Q 20.015625 56 32.328125 56 
Q 43.359375 56 49.78125 48.890625 
Q 56.203125 41.796875 56.203125 29.59375 
z
M 47.21875 32.234375 
Q 47.125 39.59375 43.09375 43.984375 
Q 39.0625 48.390625 32.421875 48.390625 
Q 24.90625 48.390625 20.390625 44.140625 
Q 15.875 39.890625 15.1875 32.171875 
z
" id="DejaVuSans-65"/>
      <path d="M 31 75.875 
Q 24.46875 64.65625 21.28125 53.65625 
Q 18.109375 42.671875 18.109375 31.390625 
Q 18.109375 20.125 21.3125 9.0625 
Q 24.515625 -2 31 -13.1875 
L 23.1875 -13.1875 
Q 15.875 -1.703125 12.234375 9.375 
Q 8.59375 20.453125 8.59375 31.390625 
Q 8.59375 42.28125 12.203125 53.3125 
Q 15.828125 64.359375 23.1875 75.875 
z
" id="DejaVuSans-28"/>
      <path d="M 44.28125 53.078125 
L 44.28125 44.578125 
Q 40.484375 46.53125 36.375 47.5 
Q 32.28125 48.484375 27.875 48.484375 
Q 21.1875 48.484375 17.84375 46.4375 
Q 14.5 44.390625 14.5 40.28125 
Q 14.5 37.15625 16.890625 35.375 
Q 19.28125 33.59375 26.515625 31.984375 
L 29.59375 31.296875 
Q 39.15625 29.25 43.1875 25.515625 
Q 47.21875 21.78125 47.21875 15.09375 
Q 47.21875 7.46875 41.1875 3.015625 
Q 35.15625 -1.421875 24.609375 -1.421875 
Q 20.21875 -1.421875 15.453125 -0.5625 
Q 10.6875 0.296875 5.421875 2 
L 5.421875 11.28125 
Q 10.40625 8.6875 15.234375 7.390625 
Q 20.0625 6.109375 24.8125 6.109375 
Q 31.15625 6.109375 34.5625 8.28125 
Q 37.984375 10.453125 37.984375 14.40625 
Q 37.984375 18.0625 35.515625 20.015625 
Q 33.0625 21.96875 24.703125 23.78125 
L 21.578125 24.515625 
Q 13.234375 26.265625 9.515625 29.90625 
Q 5.8125 33.546875 5.8125 39.890625 
Q 5.8125 47.609375 11.28125 51.796875 
Q 16.75 56 26.8125 56 
Q 31.78125 56 36.171875 55.265625 
Q 40.578125 54.546875 44.28125 53.078125 
z
" id="DejaVuSans-73"/>
      <path d="M 8.015625 75.875 
L 15.828125 75.875 
Q 23.140625 64.359375 26.78125 53.3125 
Q 30.421875 42.28125 30.421875 31.390625 
Q 30.421875 20.453125 26.78125 9.375 
Q 23.140625 -1.703125 15.828125 -13.1875 
L 8.015625 -13.1875 
Q 14.5 -2 17.703125 9.0625 
Q 20.90625 20.125 20.90625 31.390625 
Q 20.90625 42.671875 17.703125 53.65625 
Q 14.5 64.65625 8.015625 75.875 
z
" id="DejaVuSans-29"/>
     </defs>
     <g transform="translate(200.269375 343.581437)scale(0.1 -0.1)">
      <use xlink:href="#DejaVuSans-54"/>
      <use x="61.037109" xlink:href="#DejaVuSans-69"/>
      <use x="88.820312" xlink:href="#DejaVuSans-6d"/>
      <use x="186.232422" xlink:href="#DejaVuSans-65"/>
      <use x="247.755859" xlink:href="#DejaVuSans-28"/>
      <use x="286.769531" xlink:href="#DejaVuSans-73"/>
      <use x="338.869141" xlink:href="#DejaVuSans-29"/>
     </g>
    </g>
   </g>
   <g id="matplotlib.axis_2">
    <g id="ytick_1">
     <g id="line2d_15">
      <path clip-path="url(#p44cb45711f)" d="M 40.603125 303.208875 
L 397.723125 303.208875 
" style="fill:none;stroke:#b0b0b0;stroke-linecap:square;stroke-width:0.8;"/>
     </g>
     <g id="line2d_16">
      <defs>
       <path d="M 0 0 
L -3.5 0 
" id="m5ec5c3c19c" style="stroke:#000000;stroke-width:0.8;"/>
      </defs>
      <g>
       <use style="stroke:#000000;stroke-width:0.8;" x="40.603125" xlink:href="#m5ec5c3c19c" y="303.208875"/>
      </g>
     </g>
     <g id="text_9">
      <!-- 0 -->
      <g transform="translate(27.240625 307.008094)scale(0.1 -0.1)">
       <use xlink:href="#DejaVuSans-30"/>
      </g>
     </g>
    </g>
    <g id="ytick_2">
     <g id="line2d_17">
      <path clip-path="url(#p44cb45711f)" d="M 40.603125 244.914899 
L 397.723125 244.914899 
" style="fill:none;stroke:#b0b0b0;stroke-linecap:square;stroke-width:0.8;"/>
     </g>
     <g id="line2d_18">
      <g>
       <use style="stroke:#000000;stroke-width:0.8;" x="40.603125" xlink:href="#m5ec5c3c19c" y="244.914899"/>
      </g>
     </g>
     <g id="text_10">
      <!-- 20 -->
      <g transform="translate(20.878125 248.714118)scale(0.1 -0.1)">
       <use xlink:href="#DejaVuSans-32"/>
       <use x="63.623047" xlink:href="#DejaVuSans-30"/>
      </g>
     </g>
    </g>
    <g id="ytick_3">
     <g id="line2d_19">
      <path clip-path="url(#p44cb45711f)" d="M 40.603125 186.620923 
L 397.723125 186.620923 
" style="fill:none;stroke:#b0b0b0;stroke-linecap:square;stroke-width:0.8;"/>
     </g>
     <g id="line2d_20">
      <g>
       <use style="stroke:#000000;stroke-width:0.8;" x="40.603125" xlink:href="#m5ec5c3c19c" y="186.620923"/>
      </g>
     </g>
     <g id="text_11">
      <!-- 40 -->
      <g transform="translate(20.878125 190.420142)scale(0.1 -0.1)">
       <use xlink:href="#DejaVuSans-34"/>
       <use x="63.623047" xlink:href="#DejaVuSans-30"/>
      </g>
     </g>
    </g>
    <g id="ytick_4">
     <g id="line2d_21">
      <path clip-path="url(#p44cb45711f)" d="M 40.603125 128.326947 
L 397.723125 128.326947 
" style="fill:none;stroke:#b0b0b0;stroke-linecap:square;stroke-width:0.8;"/>
     </g>
     <g id="line2d_22">
      <g>
       <use style="stroke:#000000;stroke-width:0.8;" x="40.603125" xlink:href="#m5ec5c3c19c" y="128.326947"/>
      </g>
     </g>
     <g id="text_12">
      <!-- 60 -->
      <g transform="translate(20.878125 132.126166)scale(0.1 -0.1)">
       <use xlink:href="#DejaVuSans-36"/>
       <use x="63.623047" xlink:href="#DejaVuSans-30"/>
      </g>
     </g>
    </g>
    <g id="ytick_5">
     <g id="line2d_23">
      <path clip-path="url(#p44cb45711f)" d="M 40.603125 70.032971 
L 397.723125 70.032971 
" style="fill:none;stroke:#b0b0b0;stroke-linecap:square;stroke-width:0.8;"/>
     </g>
     <g id="line2d_24">
      <g>
       <use style="stroke:#000000;stroke-width:0.8;" x="40.603125" xlink:href="#m5ec5c3c19c" y="70.032971"/>
      </g>
     </g>
     <g id="text_13">
      <!-- 80 -->
      <g transform="translate(20.878125 73.83219)scale(0.1 -0.1)">
       <use xlink:href="#DejaVuSans-38"/>
       <use x="63.623047" xlink:href="#DejaVuSans-30"/>
      </g>
     </g>
    </g>
    <g id="text_14">
     <!-- Number of nodes -->
     <defs>
      <path d="M 9.8125 72.90625 
L 23.09375 72.90625 
L 55.421875 11.921875 
L 55.421875 72.90625 
L 64.984375 72.90625 
L 64.984375 0 
L 51.703125 0 
L 19.390625 60.984375 
L 19.390625 0 
L 9.8125 0 
z
" id="DejaVuSans-4e"/>
      <path d="M 8.5 21.578125 
L 8.5 54.6875 
L 17.484375 54.6875 
L 17.484375 21.921875 
Q 17.484375 14.15625 20.5 10.265625 
Q 23.53125 6.390625 29.59375 6.390625 
Q 36.859375 6.390625 41.078125 11.03125 
Q 45.3125 15.671875 45.3125 23.6875 
L 45.3125 54.6875 
L 54.296875 54.6875 
L 54.296875 0 
L 45.3125 0 
L 45.3125 8.40625 
Q 42.046875 3.421875 37.71875 1 
Q 33.40625 -1.421875 27.6875 -1.421875 
Q 18.265625 -1.421875 13.375 4.4375 
Q 8.5 10.296875 8.5 21.578125 
z
M 31.109375 56 
z
" id="DejaVuSans-75"/>
      <path d="M 48.6875 27.296875 
Q 48.6875 37.203125 44.609375 42.84375 
Q 40.53125 48.484375 33.40625 48.484375 
Q 26.265625 48.484375 22.1875 42.84375 
Q 18.109375 37.203125 18.109375 27.296875 
Q 18.109375 17.390625 22.1875 11.75 
Q 26.265625 6.109375 33.40625 6.109375 
Q 40.53125 6.109375 44.609375 11.75 
Q 48.6875 17.390625 48.6875 27.296875 
z
M 18.109375 46.390625 
Q 20.953125 51.265625 25.265625 53.625 
Q 29.59375 56 35.59375 56 
Q 45.5625 56 51.78125 48.09375 
Q 58.015625 40.1875 58.015625 27.296875 
Q 58.015625 14.40625 51.78125 6.484375 
Q 45.5625 -1.421875 35.59375 -1.421875 
Q 29.59375 -1.421875 25.265625 0.953125 
Q 20.953125 3.328125 18.109375 8.203125 
L 18.109375 0 
L 9.078125 0 
L 9.078125 75.984375 
L 18.109375 75.984375 
z
" id="DejaVuSans-62"/>
      <path d="M 41.109375 46.296875 
Q 39.59375 47.171875 37.8125 47.578125 
Q 36.03125 48 33.890625 48 
Q 26.265625 48 22.1875 43.046875 
Q 18.109375 38.09375 18.109375 28.8125 
L 18.109375 0 
L 9.078125 0 
L 9.078125 54.6875 
L 18.109375 54.6875 
L 18.109375 46.1875 
Q 20.953125 51.171875 25.484375 53.578125 
Q 30.03125 56 36.53125 56 
Q 37.453125 56 38.578125 55.875 
Q 39.703125 55.765625 41.0625 55.515625 
z
" id="DejaVuSans-72"/>
      <path id="DejaVuSans-20"/>
      <path d="M 30.609375 48.390625 
Q 23.390625 48.390625 19.1875 42.75 
Q 14.984375 37.109375 14.984375 27.296875 
Q 14.984375 17.484375 19.15625 11.84375 
Q 23.34375 6.203125 30.609375 6.203125 
Q 37.796875 6.203125 41.984375 11.859375 
Q 46.1875 17.53125 46.1875 27.296875 
Q 46.1875 37.015625 41.984375 42.703125 
Q 37.796875 48.390625 30.609375 48.390625 
z
M 30.609375 56 
Q 42.328125 56 49.015625 48.375 
Q 55.71875 40.765625 55.71875 27.296875 
Q 55.71875 13.875 49.015625 6.21875 
Q 42.328125 -1.421875 30.609375 -1.421875 
Q 18.84375 -1.421875 12.171875 6.21875 
Q 5.515625 13.875 5.515625 27.296875 
Q 5.515625 40.765625 12.171875 48.375 
Q 18.84375 56 30.609375 56 
z
" id="DejaVuSans-6f"/>
      <path d="M 37.109375 75.984375 
L 37.109375 68.5 
L 28.515625 68.5 
Q 23.6875 68.5 21.796875 66.546875 
Q 19.921875 64.59375 19.921875 59.515625 
L 19.921875 54.6875 
L 34.71875 54.6875 
L 34.71875 47.703125 
L 19.921875 47.703125 
L 19.921875 0 
L 10.890625 0 
L 10.890625 47.703125 
L 2.296875 47.703125 
L 2.296875 54.6875 
L 10.890625 54.6875 
L 10.890625 58.5 
Q 10.890625 67.625 15.140625 71.796875 
Q 19.390625 75.984375 28.609375 75.984375 
z
" id="DejaVuSans-66"/>
      <path d="M 54.890625 33.015625 
L 54.890625 0 
L 45.90625 0 
L 45.90625 32.71875 
Q 45.90625 40.484375 42.875 44.328125 
Q 39.84375 48.1875 33.796875 48.1875 
Q 26.515625 48.1875 22.3125 43.546875 
Q 18.109375 38.921875 18.109375 30.90625 
L 18.109375 0 
L 9.078125 0 
L 9.078125 54.6875 
L 18.109375 54.6875 
L 18.109375 46.1875 
Q 21.34375 51.125 25.703125 53.5625 
Q 30.078125 56 35.796875 56 
Q 45.21875 56 50.046875 50.171875 
Q 54.890625 44.34375 54.890625 33.015625 
z
" id="DejaVuSans-6e"/>
      <path d="M 45.40625 46.390625 
L 45.40625 75.984375 
L 54.390625 75.984375 
L 54.390625 0 
L 45.40625 0 
L 45.40625 8.203125 
Q 42.578125 3.328125 38.25 0.953125 
Q 33.9375 -1.421875 27.875 -1.421875 
Q 17.96875 -1.421875 11.734375 6.484375 
Q 5.515625 14.40625 5.515625 27.296875 
Q 5.515625 40.1875 11.734375 48.09375 
Q 17.96875 56 27.875 56 
Q 33.9375 56 38.25 53.625 
Q 42.578125 51.265625 45.40625 46.390625 
z
M 14.796875 27.296875 
Q 14.796875 17.390625 18.875 11.75 
Q 22.953125 6.109375 30.078125 6.109375 
Q 37.203125 6.109375 41.296875 11.75 
Q 45.40625 17.390625 45.40625 27.296875 
Q 45.40625 37.203125 41.296875 42.84375 
Q 37.203125 48.484375 30.078125 48.484375 
Q 22.953125 48.484375 18.875 42.84375 
Q 14.796875 37.203125 14.796875 27.296875 
z
" id="DejaVuSans-64"/>
     </defs>
     <g transform="translate(14.798438 225.416062)rotate(-90)scale(0.1 -0.1)">
      <use xlink:href="#DejaVuSans-4e"/>
      <use x="74.804688" xlink:href="#DejaVuSans-75"/>
      <use x="138.183594" xlink:href="#DejaVuSans-6d"/>
      <use x="235.595703" xlink:href="#DejaVuSans-62"/>
      <use x="299.072266" xlink:href="#DejaVuSans-65"/>
      <use x="360.595703" xlink:href="#DejaVuSans-72"/>
      <use x="401.708984" xlink:href="#DejaVuSans-20"/>
      <use x="433.496094" xlink:href="#DejaVuSans-6f"/>
      <use x="494.677734" xlink:href="#DejaVuSans-66"/>
      <use x="529.882812" xlink:href="#DejaVuSans-20"/>
      <use x="561.669922" xlink:href="#DejaVuSans-6e"/>
      <use x="625.048828" xlink:href="#DejaVuSans-6f"/>
      <use x="686.230469" xlink:href="#DejaVuSans-64"/>
      <use x="749.707031" xlink:href="#DejaVuSans-65"/>
      <use x="811.230469" xlink:href="#DejaVuSans-73"/>
     </g>
    </g>
   </g>
   <g id="line2d_25">
    <path clip-path="url(#p44cb45711f)" d="M 40.603125 291.55008 
L 42.949169 291.55008 
L 43.731183 282.805983 
L 45.034541 282.805983 
L 45.295213 279.891285 
L 45.555884 274.061887 
L 45.816556 271.147188 
L 46.077227 274.061887 
L 47.119913 262.403092 
L 47.641256 262.403092 
L 48.162599 268.232489 
L 48.423271 268.232489 
L 48.683943 265.317791 
L 49.205286 265.317791 
L 50.508643 250.744297 
L 51.290658 250.744297 
L 51.551329 247.829598 
L 52.072672 253.658995 
L 52.333344 253.658995 
L 52.854687 247.829598 
L 53.115359 250.744297 
L 53.37603 250.744297 
L 53.636702 256.573694 
L 53.897373 259.488393 
L 54.418716 253.658995 
L 54.679388 253.658995 
L 54.940059 250.744297 
L 55.200731 242.0002 
L 55.461402 247.829598 
L 55.722074 247.829598 
L 56.76476 259.488393 
L 57.025432 256.573694 
L 57.546775 262.403092 
L 57.807446 256.573694 
L 58.589461 256.573694 
L 59.110804 262.403092 
L 59.371475 262.403092 
L 59.632147 259.488393 
L 59.892818 259.488393 
L 60.15349 256.573694 
L 60.414161 256.573694 
L 60.935505 262.403092 
L 61.196176 262.403092 
L 61.717519 256.573694 
L 61.978191 259.488393 
L 62.760205 259.488393 
L 63.020877 256.573694 
L 63.281548 259.488393 
L 63.54222 268.232489 
L 63.802891 265.317791 
L 64.063563 268.232489 
L 64.324234 274.061887 
L 64.584906 274.061887 
L 64.845578 276.976586 
L 65.106249 274.061887 
L 65.366921 276.976586 
L 66.148935 276.976586 
L 66.409607 279.891285 
L 67.973636 279.891285 
L 68.234307 276.976586 
L 68.755651 276.976586 
L 69.016322 282.805983 
L 69.537665 282.805983 
L 69.798337 285.720682 
L 70.059008 282.805983 
L 70.31968 276.976586 
L 70.841023 271.147188 
L 71.623037 271.147188 
L 71.883709 276.976586 
L 73.969081 276.976586 
L 74.229753 274.061887 
L 76.315125 274.061887 
L 76.575797 276.976586 
L 76.836468 274.061887 
L 77.09714 274.061887 
L 77.357811 279.891285 
L 77.879154 279.891285 
L 78.139826 285.720682 
L 78.400497 285.720682 
L 78.661169 288.635381 
L 78.92184 285.720682 
L 79.703855 285.720682 
L 79.964526 288.635381 
L 80.225198 282.805983 
L 80.48587 282.805983 
L 80.746541 288.635381 
L 81.007213 288.635381 
L 81.267884 285.720682 
L 81.528556 285.720682 
L 81.789227 279.891285 
L 82.049899 279.891285 
L 82.571242 274.061887 
L 83.874599 274.061887 
L 84.135271 276.976586 
L 85.6993 276.976586 
L 86.220643 282.805983 
L 86.481315 282.805983 
L 86.741986 288.635381 
L 87.002658 291.55008 
L 87.263329 291.55008 
L 87.524001 294.464779 
L 87.784672 300.294176 
L 88.045344 300.294176 
L 88.306016 297.379477 
L 88.566687 300.294176 
L 89.08803 300.294176 
L 89.348702 294.464779 
L 89.609373 294.464779 
L 89.870045 291.55008 
L 90.391388 291.55008 
L 90.652059 288.635381 
L 90.912731 276.976586 
L 91.173402 274.061887 
L 91.434074 274.061887 
L 91.694745 271.147188 
L 91.955417 265.317791 
L 92.216089 265.317791 
L 92.47676 262.403092 
L 92.998103 262.403092 
L 93.258775 256.573694 
L 93.519446 253.658995 
L 93.780118 247.829598 
L 94.040789 247.829598 
L 94.562132 253.658995 
L 94.822804 250.744297 
L 95.083475 250.744297 
L 95.344147 247.829598 
L 95.604818 247.829598 
L 95.86549 244.914899 
L 96.126161 239.085502 
L 97.168848 250.744297 
L 97.690191 244.914899 
L 97.950862 247.829598 
L 98.211534 244.914899 
L 98.732877 250.744297 
L 98.993548 250.744297 
L 99.25422 253.658995 
L 99.514891 253.658995 
L 99.775563 250.744297 
L 100.557578 259.488393 
L 101.078921 259.488393 
L 101.600264 271.147188 
L 101.860935 271.147188 
L 102.121607 276.976586 
L 102.382278 276.976586 
L 103.424964 288.635381 
L 103.685636 294.464779 
L 104.206979 300.294176 
L 105.771008 300.294176 
L 106.03168 303.208875 
L 106.553023 303.208875 
L 106.813694 297.379477 
L 107.335037 297.379477 
L 107.595709 294.464779 
L 108.117052 294.464779 
L 108.377724 291.55008 
L 109.681081 291.55008 
L 109.941753 294.464779 
L 110.984439 294.464779 
L 111.24511 297.379477 
L 111.766453 297.379477 
L 112.027125 300.294176 
L 113.591154 300.294176 
L 113.851826 303.208875 
L 155.298599 303.208875 
L 155.559271 297.379477 
L 155.819943 294.464779 
L 156.080614 294.464779 
L 156.601957 276.976586 
L 156.862629 276.976586 
L 157.1233 265.317791 
L 157.383972 265.317791 
L 157.644643 262.403092 
L 157.905315 262.403092 
L 158.426658 256.573694 
L 158.687329 256.573694 
L 158.948001 253.658995 
L 162.597402 253.658995 
L 163.379417 262.403092 
L 164.161432 262.403092 
L 164.422103 265.317791 
L 165.725461 265.317791 
L 166.507475 274.061887 
L 167.028818 274.061887 
L 167.28949 271.147188 
L 167.810833 271.147188 
L 168.071505 274.061887 
L 168.332176 279.891285 
L 168.592848 279.891285 
L 168.853519 282.805983 
L 169.114191 288.635381 
L 169.635534 294.464779 
L 169.896205 294.464779 
L 170.156877 297.379477 
L 171.460234 297.379477 
L 171.720906 294.464779 
L 172.502921 294.464779 
L 172.763592 291.55008 
L 173.024264 291.55008 
L 173.284935 279.891285 
L 173.806278 274.061887 
L 174.06695 268.232489 
L 174.327621 259.488393 
L 174.588293 259.488393 
L 175.109636 244.914899 
L 175.370307 244.914899 
L 175.630979 242.0002 
L 175.891651 242.0002 
L 176.152322 239.085502 
L 176.412994 239.085502 
L 176.934337 233.256104 
L 177.195008 227.426706 
L 177.45568 224.512008 
L 177.716351 218.68261 
L 177.977023 218.68261 
L 178.237694 212.853212 
L 178.498366 201.194417 
L 178.759037 201.194417 
L 179.019709 192.450321 
L 179.28038 189.535622 
L 180.583738 189.535622 
L 180.84441 192.450321 
L 181.887096 192.450321 
L 182.147767 195.36502 
L 183.711797 195.36502 
L 184.23314 201.194417 
L 185.797169 201.194417 
L 186.05784 204.109116 
L 186.318512 212.853212 
L 186.579183 215.767911 
L 186.839855 215.767911 
L 187.100526 221.597309 
L 187.361198 221.597309 
L 187.882541 227.426706 
L 188.403884 227.426706 
L 188.664556 230.341405 
L 189.185899 244.914899 
L 189.44657 247.829598 
L 189.707242 244.914899 
L 189.967913 244.914899 
L 190.489256 250.744297 
L 192.053286 250.744297 
L 192.313957 247.829598 
L 192.574629 247.829598 
L 192.8353 244.914899 
L 193.095972 239.085502 
L 193.877986 239.085502 
L 194.138658 236.170803 
L 194.399329 236.170803 
L 194.660001 242.0002 
L 194.920672 242.0002 
L 195.181344 244.914899 
L 195.442016 244.914899 
L 195.702687 250.744297 
L 195.963359 250.744297 
L 196.22403 253.658995 
L 196.484702 253.658995 
L 196.745373 250.744297 
L 197.006045 250.744297 
L 197.527388 256.573694 
L 197.788059 265.317791 
L 198.048731 268.232489 
L 198.830745 268.232489 
L 199.091417 271.147188 
L 199.61276 271.147188 
L 199.873432 268.232489 
L 200.134103 268.232489 
L 200.394775 259.488393 
L 200.655446 259.488393 
L 201.176789 247.829598 
L 201.437461 247.829598 
L 201.698132 236.170803 
L 201.958804 233.256104 
L 202.219475 227.426706 
L 203.783505 227.426706 
L 204.044176 230.341405 
L 205.347534 230.341405 
L 205.608205 233.256104 
L 206.39022 233.256104 
L 206.650891 239.085502 
L 206.911563 242.0002 
L 207.172234 242.0002 
L 207.432906 244.914899 
L 210.821636 244.914899 
L 211.082307 247.829598 
L 212.907008 247.829598 
L 213.16768 250.744297 
L 215.253052 250.744297 
L 215.513724 253.658995 
L 216.035067 253.658995 
L 216.55641 259.488393 
L 216.817081 271.147188 
L 217.077753 276.976586 
L 217.338424 279.891285 
L 218.641782 279.891285 
L 219.163125 285.720682 
L 219.423797 282.805983 
L 219.684468 285.720682 
L 219.94514 285.720682 
L 220.466483 279.891285 
L 220.727154 285.720682 
L 220.987826 285.720682 
L 221.248497 282.805983 
L 221.76984 282.805983 
L 222.291183 276.976586 
L 222.551855 279.891285 
L 222.812526 279.891285 
L 223.33387 274.061887 
L 223.594541 274.061887 
L 223.855213 271.147188 
L 224.115884 274.061887 
L 224.376556 271.147188 
L 224.637227 271.147188 
L 224.897899 262.403092 
L 225.15857 259.488393 
L 225.419242 259.488393 
L 225.679913 253.658995 
L 225.940585 256.573694 
L 226.201256 253.658995 
L 226.722599 242.0002 
L 226.983271 242.0002 
L 227.243943 236.170803 
L 227.504614 233.256104 
L 227.765286 227.426706 
L 228.5473 227.426706 
L 229.068643 221.597309 
L 229.589986 221.597309 
L 229.850658 218.68261 
L 230.111329 218.68261 
L 230.372001 221.597309 
L 230.632672 221.597309 
L 230.893344 207.023815 
L 231.154016 209.938514 
L 231.414687 204.109116 
L 231.675359 207.023815 
L 232.196702 207.023815 
L 232.457373 209.938514 
L 232.718045 215.767911 
L 232.978716 218.68261 
L 233.760731 218.68261 
L 234.021402 221.597309 
L 234.542745 215.767911 
L 234.803417 218.68261 
L 235.064089 218.68261 
L 235.32476 215.767911 
L 235.846103 215.767911 
L 236.628118 224.512008 
L 236.888789 221.597309 
L 237.410132 233.256104 
L 237.670804 236.170803 
L 238.192147 230.341405 
L 238.452818 236.170803 
L 238.71349 236.170803 
L 238.974161 239.085502 
L 240.016848 239.085502 
L 240.277519 242.0002 
L 240.538191 247.829598 
L 240.798862 250.744297 
L 241.580877 250.744297 
L 241.841548 253.658995 
L 242.362891 253.658995 
L 242.623563 259.488393 
L 242.884234 262.403092 
L 243.666249 262.403092 
L 243.926921 265.317791 
L 244.187592 265.317791 
L 244.708935 271.147188 
L 245.49095 271.147188 
L 246.272964 279.891285 
L 246.794307 279.891285 
L 247.315651 285.720682 
L 248.097665 285.720682 
L 248.358337 288.635381 
L 248.619008 288.635381 
L 248.87968 297.379477 
L 249.401023 297.379477 
L 249.661694 300.294176 
L 249.922366 300.294176 
L 250.183037 303.208875 
L 250.70438 303.208875 
L 250.965052 297.379477 
L 251.486395 297.379477 
L 252.26841 288.635381 
L 253.311096 288.635381 
L 253.571767 285.720682 
L 254.614453 285.720682 
L 254.875125 279.891285 
L 255.65714 279.891285 
L 256.178483 274.061887 
L 256.439154 276.976586 
L 257.48184 276.976586 
L 258.003183 265.317791 
L 258.263855 250.744297 
L 258.524526 247.829598 
L 258.785198 242.0002 
L 259.04587 239.085502 
L 259.306541 233.256104 
L 259.567213 218.68261 
L 259.827884 221.597309 
L 260.088556 215.767911 
L 260.349227 207.023815 
L 261.131242 207.023815 
L 261.652585 195.36502 
L 262.695271 195.36502 
L 262.955943 192.450321 
L 263.216614 192.450321 
L 263.477286 195.36502 
L 263.998629 195.36502 
L 264.2593 192.450321 
L 265.562658 192.450321 
L 265.823329 195.36502 
L 266.084001 195.36502 
L 266.344672 198.279718 
L 266.605344 195.36502 
L 267.64803 195.36502 
L 267.908702 192.450321 
L 268.169373 195.36502 
L 268.430045 201.194417 
L 268.690716 201.194417 
L 268.951388 204.109116 
L 269.472731 221.597309 
L 269.733402 218.68261 
L 269.994074 224.512008 
L 270.515417 230.341405 
L 270.776089 239.085502 
L 271.03676 239.085502 
L 271.818775 247.829598 
L 272.079446 253.658995 
L 272.340118 256.573694 
L 272.600789 262.403092 
L 272.861461 265.317791 
L 273.122132 265.317791 
L 273.643475 271.147188 
L 273.904147 271.147188 
L 274.164818 274.061887 
L 275.207505 274.061887 
L 275.468176 276.976586 
L 275.728848 274.061887 
L 275.989519 274.061887 
L 276.250191 282.805983 
L 276.510862 279.891285 
L 277.032205 279.891285 
L 277.292877 276.976586 
L 277.553548 276.976586 
L 277.81422 274.061887 
L 278.074891 268.232489 
L 278.335563 265.317791 
L 278.596234 253.658995 
L 279.117578 247.829598 
L 279.378249 247.829598 
L 279.899592 221.597309 
L 280.160264 218.68261 
L 280.681607 198.279718 
L 280.942278 192.450321 
L 281.20295 192.450321 
L 281.463621 189.535622 
L 281.724293 183.706224 
L 282.245636 183.706224 
L 282.506307 180.791526 
L 283.027651 180.791526 
L 283.288322 177.876827 
L 283.548994 177.876827 
L 284.070337 166.218032 
L 284.331008 166.218032 
L 284.59168 160.388634 
L 284.852351 148.729839 
L 285.113023 148.729839 
L 285.373694 145.81514 
L 286.155709 145.81514 
L 286.41638 139.985742 
L 286.937724 134.156345 
L 287.198395 134.156345 
L 287.459067 128.326947 
L 287.719738 128.326947 
L 288.241081 122.49755 
L 288.501753 116.668152 
L 289.80511 116.668152 
L 290.065782 119.582851 
L 290.326453 113.753453 
L 290.587125 113.753453 
L 290.847797 110.838755 
L 291.108468 110.838755 
L 291.36914 107.924056 
L 291.890483 107.924056 
L 292.151154 110.838755 
L 292.411826 107.924056 
L 294.497198 107.924056 
L 294.75787 105.009357 
L 295.539884 105.009357 
L 295.800556 107.924056 
L 296.321899 107.924056 
L 296.58257 99.179959 
L 297.364585 99.179959 
L 297.625256 96.265261 
L 297.885928 99.179959 
L 298.146599 96.265261 
L 299.189286 96.265261 
L 299.449957 90.435863 
L 299.710629 87.521164 
L 299.9713 87.521164 
L 300.492643 81.691767 
L 300.753315 84.606465 
L 301.013986 81.691767 
L 301.274658 84.606465 
L 301.535329 81.691767 
L 301.796001 81.691767 
L 302.056672 84.606465 
L 302.838687 75.862369 
L 303.099359 75.862369 
L 303.36003 81.691767 
L 303.881373 75.862369 
L 305.445402 75.862369 
L 305.706074 72.94767 
L 305.966745 72.94767 
L 306.227417 70.032971 
L 307.791446 70.032971 
L 308.312789 75.862369 
L 308.573461 75.862369 
L 308.834132 72.94767 
L 309.616147 72.94767 
L 309.876818 70.032971 
L 310.13749 72.94767 
L 310.398161 70.032971 
L 310.658833 72.94767 
L 311.180176 72.94767 
L 311.701519 78.777068 
L 312.222862 78.777068 
L 312.483534 75.862369 
L 312.744205 75.862369 
L 313.004877 78.777068 
L 315.350921 78.777068 
L 315.611592 81.691767 
L 315.872264 81.691767 
L 316.132935 78.777068 
L 316.91495 78.777068 
L 317.175621 81.691767 
L 317.436293 78.777068 
L 317.957636 78.777068 
L 318.218307 75.862369 
L 318.478979 75.862369 
L 318.739651 78.777068 
L 326.299125 78.777068 
L 326.559797 81.691767 
L 326.820468 78.777068 
L 327.341811 78.777068 
L 327.602483 75.862369 
L 327.863154 78.777068 
L 328.123826 72.94767 
L 329.948526 72.94767 
L 330.46987 67.118273 
L 330.991213 72.94767 
L 331.512556 72.94767 
L 332.033899 67.118273 
L 332.29457 67.118273 
L 332.555242 70.032971 
L 333.597928 70.032971 
L 333.858599 67.118273 
L 334.119271 67.118273 
L 334.379943 70.032971 
L 334.901286 70.032971 
L 335.422629 64.203574 
L 335.6833 67.118273 
L 335.943972 67.118273 
L 336.204643 70.032971 
L 336.465315 67.118273 
L 336.986658 67.118273 
L 337.247329 64.203574 
L 338.550687 64.203574 
L 338.811359 67.118273 
L 339.332702 61.288875 
L 339.593373 61.288875 
L 339.854045 64.203574 
L 340.375388 64.203574 
L 340.636059 61.288875 
L 341.418074 61.288875 
L 341.939417 67.118273 
L 342.200089 67.118273 
L 342.721432 61.288875 
L 343.242775 61.288875 
L 343.503446 67.118273 
L 344.024789 67.118273 
L 344.285461 64.203574 
L 345.067475 64.203574 
L 345.328147 67.118273 
L 345.588818 67.118273 
L 346.110161 61.288875 
L 346.370833 64.203574 
L 346.892176 64.203574 
L 347.152848 70.032971 
L 347.413519 70.032971 
L 347.674191 67.118273 
L 348.195534 67.118273 
L 348.456205 70.032971 
L 348.716877 70.032971 
L 348.977548 72.94767 
L 349.23822 72.94767 
L 349.498891 70.032971 
L 350.020234 70.032971 
L 350.280906 67.118273 
L 350.541578 67.118273 
L 350.802249 70.032971 
L 351.062921 67.118273 
L 351.323592 67.118273 
L 351.584264 70.032971 
L 351.844935 67.118273 
L 352.366278 67.118273 
L 352.62695 70.032971 
L 352.887621 67.118273 
L 353.148293 70.032971 
L 353.669636 70.032971 
L 353.930307 67.118273 
L 354.190979 67.118273 
L 354.451651 70.032971 
L 355.755008 70.032971 
L 356.01568 64.203574 
L 356.276351 67.118273 
L 356.537023 67.118273 
L 356.797694 64.203574 
L 357.319037 64.203574 
L 357.579709 61.288875 
L 357.84038 70.032971 
L 358.101052 64.203574 
L 358.622395 64.203574 
L 358.883067 61.288875 
L 359.143738 67.118273 
L 359.40441 67.118273 
L 359.665081 70.032971 
L 359.925753 70.032971 
L 360.186424 72.94767 
L 360.707767 72.94767 
L 360.968439 70.032971 
L 361.22911 70.032971 
L 361.489782 72.94767 
L 363.053811 72.94767 
L 363.314483 75.862369 
L 363.575154 70.032971 
L 363.835826 72.94767 
L 364.096497 72.94767 
L 364.357169 70.032971 
L 365.139183 78.777068 
L 365.399855 72.94767 
L 365.660526 72.94767 
L 365.921198 78.777068 
L 366.18187 75.862369 
L 366.703213 75.862369 
L 366.963884 78.777068 
L 367.224556 75.862369 
L 368.267242 75.862369 
L 368.527913 78.777068 
L 368.788585 72.94767 
L 369.049256 75.862369 
L 369.831271 75.862369 
L 370.091943 78.777068 
L 370.352614 78.777068 
L 370.873957 72.94767 
L 371.3953 78.777068 
L 371.655972 75.862369 
L 371.916643 78.777068 
L 372.177315 72.94767 
L 372.437986 70.032971 
L 373.220001 70.032971 
L 373.480672 72.94767 
L 374.002016 72.94767 
L 374.262687 67.118273 
L 374.523359 67.118273 
L 374.78403 70.032971 
L 375.044702 67.118273 
L 375.305373 67.118273 
L 375.566045 72.94767 
L 376.348059 64.203574 
L 376.608731 67.118273 
L 376.869402 64.203574 
L 377.130074 67.118273 
L 377.390745 67.118273 
L 377.651417 70.032971 
L 377.912089 64.203574 
L 378.17276 64.203574 
L 378.433432 67.118273 
L 379.215446 67.118273 
L 379.476118 70.032971 
L 379.736789 64.203574 
L 379.997461 64.203574 
L 380.258132 61.288875 
L 380.518804 67.118273 
L 381.300818 67.118273 
L 381.56149 64.203574 
L 381.822161 64.203574 
L 382.082833 61.288875 
L 382.343505 67.118273 
L 383.125519 67.118273 
L 383.646862 61.288875 
L 384.168205 67.118273 
L 384.428877 67.118273 
L 384.689548 64.203574 
L 384.95022 67.118273 
L 385.210891 67.118273 
L 385.471563 64.203574 
L 385.732234 64.203574 
L 385.992906 67.118273 
L 386.253578 67.118273 
L 386.514249 64.203574 
L 386.774921 67.118273 
L 387.035592 64.203574 
L 387.556935 64.203574 
L 387.817607 67.118273 
L 388.078278 64.203574 
L 388.33895 64.203574 
L 388.599621 67.118273 
L 388.860293 67.118273 
L 389.120964 70.032971 
L 390.163651 70.032971 
L 390.424322 72.94767 
L 391.206337 72.94767 
L 391.467008 75.862369 
L 391.72768 72.94767 
L 392.770366 72.94767 
L 393.031037 75.862369 
L 393.291709 75.862369 
L 393.55238 72.94767 
L 394.595067 72.94767 
L 394.855738 75.862369 
L 395.11641 72.94767 
L 396.419767 72.94767 
L 396.680439 75.862369 
L 397.201782 70.032971 
L 397.462453 72.94767 
L 397.462453 72.94767 
" style="fill:none;stroke:#008000;stroke-linecap:square;stroke-width:1.5;"/>
   </g>
   <g id="patch_3">
    <path d="M 40.603125 315.304875 
L 40.603125 49.192875 
" style="fill:none;stroke:#000000;stroke-linecap:square;stroke-linejoin:miter;stroke-width:0.8;"/>
   </g>
   <g id="patch_4">
    <path d="M 397.723125 315.304875 
L 397.723125 49.192875 
" style="fill:none;stroke:#000000;stroke-linecap:square;stroke-linejoin:miter;stroke-width:0.8;"/>
   </g>
   <g id="patch_5">
    <path d="M 40.603125 315.304875 
L 397.723125 315.304875 
" style="fill:none;stroke:#000000;stroke-linecap:square;stroke-linejoin:miter;stroke-width:0.8;"/>
   </g>
   <g id="patch_6">
    <path d="M 40.603125 49.192875 
L 397.723125 49.192875 
" style="fill:none;stroke:#000000;stroke-linecap:square;stroke-linejoin:miter;stroke-width:0.8;"/>
   </g>
   <g id="text_15">
    <!-- Total discovered: 39.50 % -->
    <defs>
     <path d="M 18.3125 70.21875 
L 18.3125 54.6875 
L 36.8125 54.6875 
L 36.8125 47.703125 
L 18.3125 47.703125 
L 18.3125 18.015625 
Q 18.3125 11.328125 20.140625 9.421875 
Q 21.96875 7.515625 27.59375 7.515625 
L 36.8125 7.515625 
L 36.8125 0 
L 27.59375 0 
Q 17.1875 0 13.234375 3.875 
Q 9.28125 7.765625 9.28125 18.015625 
L 9.28125 47.703125 
L 2.6875 47.703125 
L 2.6875 54.6875 
L 9.28125 54.6875 
L 9.28125 70.21875 
z
" id="DejaVuSans-74"/>
     <path d="M 34.28125 27.484375 
Q 23.390625 27.484375 19.1875 25 
Q 14.984375 22.515625 14.984375 16.5 
Q 14.984375 11.71875 18.140625 8.90625 
Q 21.296875 6.109375 26.703125 6.109375 
Q 34.1875 6.109375 38.703125 11.40625 
Q 43.21875 16.703125 43.21875 25.484375 
L 43.21875 27.484375 
z
M 52.203125 31.203125 
L 52.203125 0 
L 43.21875 0 
L 43.21875 8.296875 
Q 40.140625 3.328125 35.546875 0.953125 
Q 30.953125 -1.421875 24.3125 -1.421875 
Q 15.921875 -1.421875 10.953125 3.296875 
Q 6 8.015625 6 15.921875 
Q 6 25.140625 12.171875 29.828125 
Q 18.359375 34.515625 30.609375 34.515625 
L 43.21875 34.515625 
L 43.21875 35.40625 
Q 43.21875 41.609375 39.140625 45 
Q 35.0625 48.390625 27.6875 48.390625 
Q 23 48.390625 18.546875 47.265625 
Q 14.109375 46.140625 10.015625 43.890625 
L 10.015625 52.203125 
Q 14.9375 54.109375 19.578125 55.046875 
Q 24.21875 56 28.609375 56 
Q 40.484375 56 46.34375 49.84375 
Q 52.203125 43.703125 52.203125 31.203125 
z
" id="DejaVuSans-61"/>
     <path d="M 9.421875 75.984375 
L 18.40625 75.984375 
L 18.40625 0 
L 9.421875 0 
z
" id="DejaVuSans-6c"/>
     <path d="M 48.78125 52.59375 
L 48.78125 44.1875 
Q 44.96875 46.296875 41.140625 47.34375 
Q 37.3125 48.390625 33.40625 48.390625 
Q 24.65625 48.390625 19.8125 42.84375 
Q 14.984375 37.3125 14.984375 27.296875 
Q 14.984375 17.28125 19.8125 11.734375 
Q 24.65625 6.203125 33.40625 6.203125 
Q 37.3125 6.203125 41.140625 7.25 
Q 44.96875 8.296875 48.78125 10.40625 
L 48.78125 2.09375 
Q 45.015625 0.34375 40.984375 -0.53125 
Q 36.96875 -1.421875 32.421875 -1.421875 
Q 20.0625 -1.421875 12.78125 6.34375 
Q 5.515625 14.109375 5.515625 27.296875 
Q 5.515625 40.671875 12.859375 48.328125 
Q 20.21875 56 33.015625 56 
Q 37.15625 56 41.109375 55.140625 
Q 45.0625 54.296875 48.78125 52.59375 
z
" id="DejaVuSans-63"/>
     <path d="M 2.984375 54.6875 
L 12.5 54.6875 
L 29.59375 8.796875 
L 46.6875 54.6875 
L 56.203125 54.6875 
L 35.6875 0 
L 23.484375 0 
z
" id="DejaVuSans-76"/>
     <path d="M 11.71875 12.40625 
L 22.015625 12.40625 
L 22.015625 0 
L 11.71875 0 
z
M 11.71875 51.703125 
L 22.015625 51.703125 
L 22.015625 39.3125 
L 11.71875 39.3125 
z
" id="DejaVuSans-3a"/>
     <path d="M 40.578125 39.3125 
Q 47.65625 37.796875 51.625 33 
Q 55.609375 28.21875 55.609375 21.1875 
Q 55.609375 10.40625 48.1875 4.484375 
Q 40.765625 -1.421875 27.09375 -1.421875 
Q 22.515625 -1.421875 17.65625 -0.515625 
Q 12.796875 0.390625 7.625 2.203125 
L 7.625 11.71875 
Q 11.71875 9.328125 16.59375 8.109375 
Q 21.484375 6.890625 26.8125 6.890625 
Q 36.078125 6.890625 40.9375 10.546875 
Q 45.796875 14.203125 45.796875 21.1875 
Q 45.796875 27.640625 41.28125 31.265625 
Q 36.765625 34.90625 28.71875 34.90625 
L 20.21875 34.90625 
L 20.21875 43.015625 
L 29.109375 43.015625 
Q 36.375 43.015625 40.234375 45.921875 
Q 44.09375 48.828125 44.09375 54.296875 
Q 44.09375 59.90625 40.109375 62.90625 
Q 36.140625 65.921875 28.71875 65.921875 
Q 24.65625 65.921875 20.015625 65.03125 
Q 15.375 64.15625 9.8125 62.3125 
L 9.8125 71.09375 
Q 15.4375 72.65625 20.34375 73.4375 
Q 25.25 74.21875 29.59375 74.21875 
Q 40.828125 74.21875 47.359375 69.109375 
Q 53.90625 64.015625 53.90625 55.328125 
Q 53.90625 49.265625 50.4375 45.09375 
Q 46.96875 40.921875 40.578125 39.3125 
z
" id="DejaVuSans-33"/>
     <path d="M 10.984375 1.515625 
L 10.984375 10.5 
Q 14.703125 8.734375 18.5 7.8125 
Q 22.3125 6.890625 25.984375 6.890625 
Q 35.75 6.890625 40.890625 13.453125 
Q 46.046875 20.015625 46.78125 33.40625 
Q 43.953125 29.203125 39.59375 26.953125 
Q 35.25 24.703125 29.984375 24.703125 
Q 19.046875 24.703125 12.671875 31.3125 
Q 6.296875 37.9375 6.296875 49.421875 
Q 6.296875 60.640625 12.9375 67.421875 
Q 19.578125 74.21875 30.609375 74.21875 
Q 43.265625 74.21875 49.921875 64.515625 
Q 56.59375 54.828125 56.59375 36.375 
Q 56.59375 19.140625 48.40625 8.859375 
Q 40.234375 -1.421875 26.421875 -1.421875 
Q 22.703125 -1.421875 18.890625 -0.6875 
Q 15.09375 0.046875 10.984375 1.515625 
z
M 30.609375 32.421875 
Q 37.25 32.421875 41.125 36.953125 
Q 45.015625 41.5 45.015625 49.421875 
Q 45.015625 57.28125 41.125 61.84375 
Q 37.25 66.40625 30.609375 66.40625 
Q 23.96875 66.40625 20.09375 61.84375 
Q 16.21875 57.28125 16.21875 49.421875 
Q 16.21875 41.5 20.09375 36.953125 
Q 23.96875 32.421875 30.609375 32.421875 
z
" id="DejaVuSans-39"/>
     <path d="M 10.6875 12.40625 
L 21 12.40625 
L 21 0 
L 10.6875 0 
z
" id="DejaVuSans-2e"/>
     <path d="M 10.796875 72.90625 
L 49.515625 72.90625 
L 49.515625 64.59375 
L 19.828125 64.59375 
L 19.828125 46.734375 
Q 21.96875 47.46875 24.109375 47.828125 
Q 26.265625 48.1875 28.421875 48.1875 
Q 40.625 48.1875 47.75 41.5 
Q 54.890625 34.8125 54.890625 23.390625 
Q 54.890625 11.625 47.5625 5.09375 
Q 40.234375 -1.421875 26.90625 -1.421875 
Q 22.3125 -1.421875 17.546875 -0.640625 
Q 12.796875 0.140625 7.71875 1.703125 
L 7.71875 11.625 
Q 12.109375 9.234375 16.796875 8.0625 
Q 21.484375 6.890625 26.703125 6.890625 
Q 35.15625 6.890625 40.078125 11.328125 
Q 45.015625 15.765625 45.015625 23.390625 
Q 45.015625 31 40.078125 35.4375 
Q 35.15625 39.890625 26.703125 39.890625 
Q 22.75 39.890625 18.8125 39.015625 
Q 14.890625 38.140625 10.796875 36.28125 
z
" id="DejaVuSans-35"/>
     <path d="M 72.703125 32.078125 
Q 68.453125 32.078125 66.03125 28.46875 
Q 63.625 24.859375 63.625 18.40625 
Q 63.625 12.0625 66.03125 8.421875 
Q 68.453125 4.78125 72.703125 4.78125 
Q 76.859375 4.78125 79.265625 8.421875 
Q 81.6875 12.0625 81.6875 18.40625 
Q 81.6875 24.8125 79.265625 28.4375 
Q 76.859375 32.078125 72.703125 32.078125 
z
M 72.703125 38.28125 
Q 80.421875 38.28125 84.953125 32.90625 
Q 89.5 27.546875 89.5 18.40625 
Q 89.5 9.28125 84.9375 3.921875 
Q 80.375 -1.421875 72.703125 -1.421875 
Q 64.890625 -1.421875 60.34375 3.921875 
Q 55.8125 9.28125 55.8125 18.40625 
Q 55.8125 27.59375 60.375 32.9375 
Q 64.9375 38.28125 72.703125 38.28125 
z
M 22.3125 68.015625 
Q 18.109375 68.015625 15.6875 64.375 
Q 13.28125 60.75 13.28125 54.390625 
Q 13.28125 47.953125 15.671875 44.328125 
Q 18.0625 40.71875 22.3125 40.71875 
Q 26.5625 40.71875 28.96875 44.328125 
Q 31.390625 47.953125 31.390625 54.390625 
Q 31.390625 60.6875 28.953125 64.34375 
Q 26.515625 68.015625 22.3125 68.015625 
z
M 66.40625 74.21875 
L 74.21875 74.21875 
L 28.609375 -1.421875 
L 20.796875 -1.421875 
z
M 22.3125 74.21875 
Q 30.03125 74.21875 34.609375 68.875 
Q 39.203125 63.53125 39.203125 54.390625 
Q 39.203125 45.171875 34.640625 39.84375 
Q 30.078125 34.515625 22.3125 34.515625 
Q 14.546875 34.515625 10.03125 39.859375 
Q 5.515625 45.21875 5.515625 54.390625 
Q 5.515625 63.484375 10.046875 68.84375 
Q 14.59375 74.21875 22.3125 74.21875 
z
" id="DejaVuSans-25"/>
    </defs>
    <g transform="translate(399.547826 292.011062)scale(0.1 -0.1)">
     <use xlink:href="#DejaVuSans-54"/>
     <use x="60.818359" xlink:href="#DejaVuSans-6f"/>
     <use x="122" xlink:href="#DejaVuSans-74"/>
     <use x="161.208984" xlink:href="#DejaVuSans-61"/>
     <use x="222.488281" xlink:href="#DejaVuSans-6c"/>
     <use x="250.271484" xlink:href="#DejaVuSans-20"/>
     <use x="282.058594" xlink:href="#DejaVuSans-64"/>
     <use x="345.535156" xlink:href="#DejaVuSans-69"/>
     <use x="373.318359" xlink:href="#DejaVuSans-73"/>
     <use x="425.417969" xlink:href="#DejaVuSans-63"/>
     <use x="480.398438" xlink:href="#DejaVuSans-6f"/>
     <use x="541.580078" xlink:href="#DejaVuSans-76"/>
     <use x="600.759766" xlink:href="#DejaVuSans-65"/>
     <use x="662.283203" xlink:href="#DejaVuSans-72"/>
     <use x="703.365234" xlink:href="#DejaVuSans-65"/>
     <use x="764.888672" xlink:href="#DejaVuSans-64"/>
     <use x="828.365234" xlink:href="#DejaVuSans-3a"/>
     <use x="862.056641" xlink:href="#DejaVuSans-20"/>
     <use x="893.84375" xlink:href="#DejaVuSans-33"/>
     <use x="957.466797" xlink:href="#DejaVuSans-39"/>
     <use x="1021.089844" xlink:href="#DejaVuSans-2e"/>
     <use x="1052.876953" xlink:href="#DejaVuSans-35"/>
     <use x="1116.5" xlink:href="#DejaVuSans-30"/>
     <use x="1180.123047" xlink:href="#DejaVuSans-20"/>
     <use x="1211.910156" xlink:href="#DejaVuSans-25"/>
    </g>
    <!-- Total: 79 nodes -->
    <defs>
     <path d="M 8.203125 72.90625 
L 55.078125 72.90625 
L 55.078125 68.703125 
L 28.609375 0 
L 18.3125 0 
L 43.21875 64.59375 
L 8.203125 64.59375 
z
" id="DejaVuSans-37"/>
    </defs>
    <g transform="translate(399.547826 303.208875)scale(0.1 -0.1)">
     <use xlink:href="#DejaVuSans-54"/>
     <use x="60.818359" xlink:href="#DejaVuSans-6f"/>
     <use x="122" xlink:href="#DejaVuSans-74"/>
     <use x="161.208984" xlink:href="#DejaVuSans-61"/>
     <use x="222.488281" xlink:href="#DejaVuSans-6c"/>
     <use x="250.271484" xlink:href="#DejaVuSans-3a"/>
     <use x="283.962891" xlink:href="#DejaVuSans-20"/>
     <use x="315.75" xlink:href="#DejaVuSans-37"/>
     <use x="379.373047" xlink:href="#DejaVuSans-39"/>
     <use x="442.996094" xlink:href="#DejaVuSans-20"/>
     <use x="474.783203" xlink:href="#DejaVuSans-6e"/>
     <use x="538.162109" xlink:href="#DejaVuSans-6f"/>
     <use x="599.34375" xlink:href="#DejaVuSans-64"/>
     <use x="662.820312" xlink:href="#DejaVuSans-65"/>
     <use x="724.34375" xlink:href="#DejaVuSans-73"/>
    </g>
   </g>
   <g id="text_16">
    <!-- Discovered nodes per time -->
    <defs>
     <path d="M 19.671875 64.796875 
L 19.671875 8.109375 
L 31.59375 8.109375 
Q 46.6875 8.109375 53.6875 14.9375 
Q 60.6875 21.78125 60.6875 36.53125 
Q 60.6875 51.171875 53.6875 57.984375 
Q 46.6875 64.796875 31.59375 64.796875 
z
M 9.8125 72.90625 
L 30.078125 72.90625 
Q 51.265625 72.90625 61.171875 64.09375 
Q 71.09375 55.28125 71.09375 36.53125 
Q 71.09375 17.671875 61.125 8.828125 
Q 51.171875 0 30.078125 0 
L 9.8125 0 
z
" id="DejaVuSans-44"/>
     <path d="M 18.109375 8.203125 
L 18.109375 -20.796875 
L 9.078125 -20.796875 
L 9.078125 54.6875 
L 18.109375 54.6875 
L 18.109375 46.390625 
Q 20.953125 51.265625 25.265625 53.625 
Q 29.59375 56 35.59375 56 
Q 45.5625 56 51.78125 48.09375 
Q 58.015625 40.1875 58.015625 27.296875 
Q 58.015625 14.40625 51.78125 6.484375 
Q 45.5625 -1.421875 35.59375 -1.421875 
Q 29.59375 -1.421875 25.265625 0.953125 
Q 20.953125 3.328125 18.109375 8.203125 
z
M 48.6875 27.296875 
Q 48.6875 37.203125 44.609375 42.84375 
Q 40.53125 48.484375 33.40625 48.484375 
Q 26.265625 48.484375 22.1875 42.84375 
Q 18.109375 37.203125 18.109375 27.296875 
Q 18.109375 17.390625 22.1875 11.75 
Q 26.265625 6.109375 33.40625 6.109375 
Q 40.53125 6.109375 44.609375 11.75 
Q 48.6875 17.390625 48.6875 27.296875 
z
" id="DejaVuSans-70"/>
    </defs>
    <g transform="translate(138.227813 16.318125)scale(0.12 -0.12)">
     <use xlink:href="#DejaVuSans-44"/>
     <use x="77.001953" xlink:href="#DejaVuSans-69"/>
     <use x="104.785156" xlink:href="#DejaVuSans-73"/>
     <use x="156.884766" xlink:href="#DejaVuSans-63"/>
     <use x="211.865234" xlink:href="#DejaVuSans-6f"/>
     <use x="273.046875" xlink:href="#DejaVuSans-76"/>
     <use x="332.226562" xlink:href="#DejaVuSans-65"/>
     <use x="393.75" xlink:href="#DejaVuSans-72"/>
     <use x="434.832031" xlink:href="#DejaVuSans-65"/>
     <use x="496.355469" xlink:href="#DejaVuSans-64"/>
     <use x="559.832031" xlink:href="#DejaVuSans-20"/>
     <use x="591.619141" xlink:href="#DejaVuSans-6e"/>
     <use x="654.998047" xlink:href="#DejaVuSans-6f"/>
     <use x="716.179688" xlink:href="#DejaVuSans-64"/>
     <use x="779.65625" xlink:href="#DejaVuSans-65"/>
     <use x="841.179688" xlink:href="#DejaVuSans-73"/>
     <use x="893.279297" xlink:href="#DejaVuSans-20"/>
     <use x="925.066406" xlink:href="#DejaVuSans-70"/>
     <use x="988.542969" xlink:href="#DejaVuSans-65"/>
     <use x="1050.066406" xlink:href="#DejaVuSans-72"/>
     <use x="1091.179688" xlink:href="#DejaVuSans-20"/>
     <use x="1122.966797" xlink:href="#DejaVuSans-74"/>
     <use x="1162.175781" xlink:href="#DejaVuSans-69"/>
     <use x="1189.958984" xlink:href="#DejaVuSans-6d"/>
     <use x="1287.371094" xlink:href="#DejaVuSans-65"/>
    </g>
    <!--  -->
    <g transform="translate(219.163125 29.7555)scale(0.12 -0.12)"/>
    <!--  -->
    <g transform="translate(219.163125 43.192875)scale(0.12 -0.12)"/>
   </g>
  </g>
 </g>
 <defs>
  <clipPath id="p44cb45711f">
   <rect height="266.112" width="357.12" x="40.603125" y="49.192875"/>
  </clipPath>
 </defs>
</svg>
