<?xml version="1.0" encoding="utf-8" standalone="no"?>
<!DOCTYPE svg PUBLIC "-//W3C//DTD SVG 1.1//EN"
  "http://www.w3.org/Graphics/SVG/1.1/DTD/svg11.dtd">
<!-- Created with matplotlib (http://matplotlib.org/) -->
<svg height="352pt" version="1.1" viewBox="0 0 491 352" width="491pt" xmlns="http://www.w3.org/2000/svg" xmlns:xlink="http://www.w3.org/1999/xlink">
 <defs>
  <style type="text/css">
*{stroke-linecap:butt;stroke-linejoin:round;}
  </style>
 </defs>
 <g id="figure_1">
  <g id="patch_1">
   <path d="M 0 352.861125 
L 491.671775 352.861125 
L 491.671775 0 
L 0 0 
z
" style="fill:#ffffff;"/>
  </g>
  <g id="axes_1">
   <g id="patch_2">
    <path d="M 40.603125 315.304875 
L 397.723125 315.304875 
L 397.723125 49.192875 
L 40.603125 49.192875 
z
" style="fill:#ffffff;"/>
   </g>
   <g id="matplotlib.axis_1">
    <g id="xtick_1">
     <g id="line2d_1">
      <path clip-path="url(#pe0e7dae68e)" d="M 40.603125 315.304875 
L 40.603125 49.192875 
" style="fill:none;stroke:#b0b0b0;stroke-linecap:square;stroke-width:0.8;"/>
     </g>
     <g id="line2d_2">
      <defs>
       <path d="M 0 0 
L 0 3.5 
" id="m0f06e0a6dd" style="stroke:#000000;stroke-width:0.8;"/>
      </defs>
      <g>
       <use style="stroke:#000000;stroke-width:0.8;" x="40.603125" xlink:href="#m0f06e0a6dd" y="315.304875"/>
      </g>
     </g>
     <g id="text_1">
      <!-- 0 -->
      <defs>
       <path d="M 31.78125 66.40625 
Q 24.171875 66.40625 20.328125 58.90625 
Q 16.5 51.421875 16.5 36.375 
Q 16.5 21.390625 20.328125 13.890625 
Q 24.171875 6.390625 31.78125 6.390625 
Q 39.453125 6.390625 43.28125 13.890625 
Q 47.125 21.390625 47.125 36.375 
Q 47.125 51.421875 43.28125 58.90625 
Q 39.453125 66.40625 31.78125 66.40625 
z
M 31.78125 74.21875 
Q 44.046875 74.21875 50.515625 64.515625 
Q 56.984375 54.828125 56.984375 36.375 
Q 56.984375 17.96875 50.515625 8.265625 
Q 44.046875 -1.421875 31.78125 -1.421875 
Q 19.53125 -1.421875 13.0625 8.265625 
Q 6.59375 17.96875 6.59375 36.375 
Q 6.59375 54.828125 13.0625 64.515625 
Q 19.53125 74.21875 31.78125 74.21875 
z
" id="DejaVuSans-30"/>
      </defs>
      <g transform="translate(37.421875 329.903312)scale(0.1 -0.1)">
       <use xlink:href="#DejaVuSans-30"/>
      </g>
     </g>
    </g>
    <g id="xtick_2">
     <g id="line2d_3">
      <path clip-path="url(#pe0e7dae68e)" d="M 88.862584 315.304875 
L 88.862584 49.192875 
" style="fill:none;stroke:#b0b0b0;stroke-linecap:square;stroke-width:0.8;"/>
     </g>
     <g id="line2d_4">
      <g>
       <use style="stroke:#000000;stroke-width:0.8;" x="88.862584" xlink:href="#m0f06e0a6dd" y="315.304875"/>
      </g>
     </g>
     <g id="text_2">
      <!-- 50 -->
      <defs>
       <path d="M 10.796875 72.90625 
L 49.515625 72.90625 
L 49.515625 64.59375 
L 19.828125 64.59375 
L 19.828125 46.734375 
Q 21.96875 47.46875 24.109375 47.828125 
Q 26.265625 48.1875 28.421875 48.1875 
Q 40.625 48.1875 47.75 41.5 
Q 54.890625 34.8125 54.890625 23.390625 
Q 54.890625 11.625 47.5625 5.09375 
Q 40.234375 -1.421875 26.90625 -1.421875 
Q 22.3125 -1.421875 17.546875 -0.640625 
Q 12.796875 0.140625 7.71875 1.703125 
L 7.71875 11.625 
Q 12.109375 9.234375 16.796875 8.0625 
Q 21.484375 6.890625 26.703125 6.890625 
Q 35.15625 6.890625 40.078125 11.328125 
Q 45.015625 15.765625 45.015625 23.390625 
Q 45.015625 31 40.078125 35.4375 
Q 35.15625 39.890625 26.703125 39.890625 
Q 22.75 39.890625 18.8125 39.015625 
Q 14.890625 38.140625 10.796875 36.28125 
z
" id="DejaVuSans-35"/>
      </defs>
      <g transform="translate(82.500084 329.903312)scale(0.1 -0.1)">
       <use xlink:href="#DejaVuSans-35"/>
       <use x="63.623047" xlink:href="#DejaVuSans-30"/>
      </g>
     </g>
    </g>
    <g id="xtick_3">
     <g id="line2d_5">
      <path clip-path="url(#pe0e7dae68e)" d="M 137.122044 315.304875 
L 137.122044 49.192875 
" style="fill:none;stroke:#b0b0b0;stroke-linecap:square;stroke-width:0.8;"/>
     </g>
     <g id="line2d_6">
      <g>
       <use style="stroke:#000000;stroke-width:0.8;" x="137.122044" xlink:href="#m0f06e0a6dd" y="315.304875"/>
      </g>
     </g>
     <g id="text_3">
      <!-- 100 -->
      <defs>
       <path d="M 12.40625 8.296875 
L 28.515625 8.296875 
L 28.515625 63.921875 
L 10.984375 60.40625 
L 10.984375 69.390625 
L 28.421875 72.90625 
L 38.28125 72.90625 
L 38.28125 8.296875 
L 54.390625 8.296875 
L 54.390625 0 
L 12.40625 0 
z
" id="DejaVuSans-31"/>
      </defs>
      <g transform="translate(127.578294 329.903312)scale(0.1 -0.1)">
       <use xlink:href="#DejaVuSans-31"/>
       <use x="63.623047" xlink:href="#DejaVuSans-30"/>
       <use x="127.246094" xlink:href="#DejaVuSans-30"/>
      </g>
     </g>
    </g>
    <g id="xtick_4">
     <g id="line2d_7">
      <path clip-path="url(#pe0e7dae68e)" d="M 185.381503 315.304875 
L 185.381503 49.192875 
" style="fill:none;stroke:#b0b0b0;stroke-linecap:square;stroke-width:0.8;"/>
     </g>
     <g id="line2d_8">
      <g>
       <use style="stroke:#000000;stroke-width:0.8;" x="185.381503" xlink:href="#m0f06e0a6dd" y="315.304875"/>
      </g>
     </g>
     <g id="text_4">
      <!-- 150 -->
      <g transform="translate(175.837753 329.903312)scale(0.1 -0.1)">
       <use xlink:href="#DejaVuSans-31"/>
       <use x="63.623047" xlink:href="#DejaVuSans-35"/>
       <use x="127.246094" xlink:href="#DejaVuSans-30"/>
      </g>
     </g>
    </g>
    <g id="xtick_5">
     <g id="line2d_9">
      <path clip-path="url(#pe0e7dae68e)" d="M 233.640963 315.304875 
L 233.640963 49.192875 
" style="fill:none;stroke:#b0b0b0;stroke-linecap:square;stroke-width:0.8;"/>
     </g>
     <g id="line2d_10">
      <g>
       <use style="stroke:#000000;stroke-width:0.8;" x="233.640963" xlink:href="#m0f06e0a6dd" y="315.304875"/>
      </g>
     </g>
     <g id="text_5">
      <!-- 200 -->
      <defs>
       <path d="M 19.1875 8.296875 
L 53.609375 8.296875 
L 53.609375 0 
L 7.328125 0 
L 7.328125 8.296875 
Q 12.9375 14.109375 22.625 23.890625 
Q 32.328125 33.6875 34.8125 36.53125 
Q 39.546875 41.84375 41.421875 45.53125 
Q 43.3125 49.21875 43.3125 52.78125 
Q 43.3125 58.59375 39.234375 62.25 
Q 35.15625 65.921875 28.609375 65.921875 
Q 23.96875 65.921875 18.8125 64.3125 
Q 13.671875 62.703125 7.8125 59.421875 
L 7.8125 69.390625 
Q 13.765625 71.78125 18.9375 73 
Q 24.125 74.21875 28.421875 74.21875 
Q 39.75 74.21875 46.484375 68.546875 
Q 53.21875 62.890625 53.21875 53.421875 
Q 53.21875 48.921875 51.53125 44.890625 
Q 49.859375 40.875 45.40625 35.40625 
Q 44.1875 33.984375 37.640625 27.21875 
Q 31.109375 20.453125 19.1875 8.296875 
z
" id="DejaVuSans-32"/>
      </defs>
      <g transform="translate(224.097213 329.903312)scale(0.1 -0.1)">
       <use xlink:href="#DejaVuSans-32"/>
       <use x="63.623047" xlink:href="#DejaVuSans-30"/>
       <use x="127.246094" xlink:href="#DejaVuSans-30"/>
      </g>
     </g>
    </g>
    <g id="xtick_6">
     <g id="line2d_11">
      <path clip-path="url(#pe0e7dae68e)" d="M 281.900422 315.304875 
L 281.900422 49.192875 
" style="fill:none;stroke:#b0b0b0;stroke-linecap:square;stroke-width:0.8;"/>
     </g>
     <g id="line2d_12">
      <g>
       <use style="stroke:#000000;stroke-width:0.8;" x="281.900422" xlink:href="#m0f06e0a6dd" y="315.304875"/>
      </g>
     </g>
     <g id="text_6">
      <!-- 250 -->
      <g transform="translate(272.356672 329.903312)scale(0.1 -0.1)">
       <use xlink:href="#DejaVuSans-32"/>
       <use x="63.623047" xlink:href="#DejaVuSans-35"/>
       <use x="127.246094" xlink:href="#DejaVuSans-30"/>
      </g>
     </g>
    </g>
    <g id="xtick_7">
     <g id="line2d_13">
      <path clip-path="url(#pe0e7dae68e)" d="M 330.159882 315.304875 
L 330.159882 49.192875 
" style="fill:none;stroke:#b0b0b0;stroke-linecap:square;stroke-width:0.8;"/>
     </g>
     <g id="line2d_14">
      <g>
       <use style="stroke:#000000;stroke-width:0.8;" x="330.159882" xlink:href="#m0f06e0a6dd" y="315.304875"/>
      </g>
     </g>
     <g id="text_7">
      <!-- 300 -->
      <defs>
       <path d="M 40.578125 39.3125 
Q 47.65625 37.796875 51.625 33 
Q 55.609375 28.21875 55.609375 21.1875 
Q 55.609375 10.40625 48.1875 4.484375 
Q 40.765625 -1.421875 27.09375 -1.421875 
Q 22.515625 -1.421875 17.65625 -0.515625 
Q 12.796875 0.390625 7.625 2.203125 
L 7.625 11.71875 
Q 11.71875 9.328125 16.59375 8.109375 
Q 21.484375 6.890625 26.8125 6.890625 
Q 36.078125 6.890625 40.9375 10.546875 
Q 45.796875 14.203125 45.796875 21.1875 
Q 45.796875 27.640625 41.28125 31.265625 
Q 36.765625 34.90625 28.71875 34.90625 
L 20.21875 34.90625 
L 20.21875 43.015625 
L 29.109375 43.015625 
Q 36.375 43.015625 40.234375 45.921875 
Q 44.09375 48.828125 44.09375 54.296875 
Q 44.09375 59.90625 40.109375 62.90625 
Q 36.140625 65.921875 28.71875 65.921875 
Q 24.65625 65.921875 20.015625 65.03125 
Q 15.375 64.15625 9.8125 62.3125 
L 9.8125 71.09375 
Q 15.4375 72.65625 20.34375 73.4375 
Q 25.25 74.21875 29.59375 74.21875 
Q 40.828125 74.21875 47.359375 69.109375 
Q 53.90625 64.015625 53.90625 55.328125 
Q 53.90625 49.265625 50.4375 45.09375 
Q 46.96875 40.921875 40.578125 39.3125 
z
" id="DejaVuSans-33"/>
      </defs>
      <g transform="translate(320.616132 329.903312)scale(0.1 -0.1)">
       <use xlink:href="#DejaVuSans-33"/>
       <use x="63.623047" xlink:href="#DejaVuSans-30"/>
       <use x="127.246094" xlink:href="#DejaVuSans-30"/>
      </g>
     </g>
    </g>
    <g id="xtick_8">
     <g id="line2d_15">
      <path clip-path="url(#pe0e7dae68e)" d="M 378.419341 315.304875 
L 378.419341 49.192875 
" style="fill:none;stroke:#b0b0b0;stroke-linecap:square;stroke-width:0.8;"/>
     </g>
     <g id="line2d_16">
      <g>
       <use style="stroke:#000000;stroke-width:0.8;" x="378.419341" xlink:href="#m0f06e0a6dd" y="315.304875"/>
      </g>
     </g>
     <g id="text_8">
      <!-- 350 -->
      <g transform="translate(368.875591 329.903312)scale(0.1 -0.1)">
       <use xlink:href="#DejaVuSans-33"/>
       <use x="63.623047" xlink:href="#DejaVuSans-35"/>
       <use x="127.246094" xlink:href="#DejaVuSans-30"/>
      </g>
     </g>
    </g>
    <g id="text_9">
     <!-- Time(s) -->
     <defs>
      <path d="M -0.296875 72.90625 
L 61.375 72.90625 
L 61.375 64.59375 
L 35.5 64.59375 
L 35.5 0 
L 25.59375 0 
L 25.59375 64.59375 
L -0.296875 64.59375 
z
" id="DejaVuSans-54"/>
      <path d="M 9.421875 54.6875 
L 18.40625 54.6875 
L 18.40625 0 
L 9.421875 0 
z
M 9.421875 75.984375 
L 18.40625 75.984375 
L 18.40625 64.59375 
L 9.421875 64.59375 
z
" id="DejaVuSans-69"/>
      <path d="M 52 44.1875 
Q 55.375 50.25 60.0625 53.125 
Q 64.75 56 71.09375 56 
Q 79.640625 56 84.28125 50.015625 
Q 88.921875 44.046875 88.921875 33.015625 
L 88.921875 0 
L 79.890625 0 
L 79.890625 32.71875 
Q 79.890625 40.578125 77.09375 44.375 
Q 74.3125 48.1875 68.609375 48.1875 
Q 61.625 48.1875 57.5625 43.546875 
Q 53.515625 38.921875 53.515625 30.90625 
L 53.515625 0 
L 44.484375 0 
L 44.484375 32.71875 
Q 44.484375 40.625 41.703125 44.40625 
Q 38.921875 48.1875 33.109375 48.1875 
Q 26.21875 48.1875 22.15625 43.53125 
Q 18.109375 38.875 18.109375 30.90625 
L 18.109375 0 
L 9.078125 0 
L 9.078125 54.6875 
L 18.109375 54.6875 
L 18.109375 46.1875 
Q 21.1875 51.21875 25.484375 53.609375 
Q 29.78125 56 35.6875 56 
Q 41.65625 56 45.828125 52.96875 
Q 50 49.953125 52 44.1875 
z
" id="DejaVuSans-6d"/>
      <path d="M 56.203125 29.59375 
L 56.203125 25.203125 
L 14.890625 25.203125 
Q 15.484375 15.921875 20.484375 11.0625 
Q 25.484375 6.203125 34.421875 6.203125 
Q 39.59375 6.203125 44.453125 7.46875 
Q 49.3125 8.734375 54.109375 11.28125 
L 54.109375 2.78125 
Q 49.265625 0.734375 44.1875 -0.34375 
Q 39.109375 -1.421875 33.890625 -1.421875 
Q 20.796875 -1.421875 13.15625 6.1875 
Q 5.515625 13.8125 5.515625 26.8125 
Q 5.515625 40.234375 12.765625 48.109375 
Q 20.015625 56 32.328125 56 
Q 43.359375 56 49.78125 48.890625 
Q 56.203125 41.796875 56.203125 29.59375 
z
M 47.21875 32.234375 
Q 47.125 39.59375 43.09375 43.984375 
Q 39.0625 48.390625 32.421875 48.390625 
Q 24.90625 48.390625 20.390625 44.140625 
Q 15.875 39.890625 15.1875 32.171875 
z
" id="DejaVuSans-65"/>
      <path d="M 31 75.875 
Q 24.46875 64.65625 21.28125 53.65625 
Q 18.109375 42.671875 18.109375 31.390625 
Q 18.109375 20.125 21.3125 9.0625 
Q 24.515625 -2 31 -13.1875 
L 23.1875 -13.1875 
Q 15.875 -1.703125 12.234375 9.375 
Q 8.59375 20.453125 8.59375 31.390625 
Q 8.59375 42.28125 12.203125 53.3125 
Q 15.828125 64.359375 23.1875 75.875 
z
" id="DejaVuSans-28"/>
      <path d="M 44.28125 53.078125 
L 44.28125 44.578125 
Q 40.484375 46.53125 36.375 47.5 
Q 32.28125 48.484375 27.875 48.484375 
Q 21.1875 48.484375 17.84375 46.4375 
Q 14.5 44.390625 14.5 40.28125 
Q 14.5 37.15625 16.890625 35.375 
Q 19.28125 33.59375 26.515625 31.984375 
L 29.59375 31.296875 
Q 39.15625 29.25 43.1875 25.515625 
Q 47.21875 21.78125 47.21875 15.09375 
Q 47.21875 7.46875 41.1875 3.015625 
Q 35.15625 -1.421875 24.609375 -1.421875 
Q 20.21875 -1.421875 15.453125 -0.5625 
Q 10.6875 0.296875 5.421875 2 
L 5.421875 11.28125 
Q 10.40625 8.6875 15.234375 7.390625 
Q 20.0625 6.109375 24.8125 6.109375 
Q 31.15625 6.109375 34.5625 8.28125 
Q 37.984375 10.453125 37.984375 14.40625 
Q 37.984375 18.0625 35.515625 20.015625 
Q 33.0625 21.96875 24.703125 23.78125 
L 21.578125 24.515625 
Q 13.234375 26.265625 9.515625 29.90625 
Q 5.8125 33.546875 5.8125 39.890625 
Q 5.8125 47.609375 11.28125 51.796875 
Q 16.75 56 26.8125 56 
Q 31.78125 56 36.171875 55.265625 
Q 40.578125 54.546875 44.28125 53.078125 
z
" id="DejaVuSans-73"/>
      <path d="M 8.015625 75.875 
L 15.828125 75.875 
Q 23.140625 64.359375 26.78125 53.3125 
Q 30.421875 42.28125 30.421875 31.390625 
Q 30.421875 20.453125 26.78125 9.375 
Q 23.140625 -1.703125 15.828125 -13.1875 
L 8.015625 -13.1875 
Q 14.5 -2 17.703125 9.0625 
Q 20.90625 20.125 20.90625 31.390625 
Q 20.90625 42.671875 17.703125 53.65625 
Q 14.5 64.65625 8.015625 75.875 
z
" id="DejaVuSans-29"/>
     </defs>
     <g transform="translate(200.269375 343.581437)scale(0.1 -0.1)">
      <use xlink:href="#DejaVuSans-54"/>
      <use x="61.037109" xlink:href="#DejaVuSans-69"/>
      <use x="88.820312" xlink:href="#DejaVuSans-6d"/>
      <use x="186.232422" xlink:href="#DejaVuSans-65"/>
      <use x="247.755859" xlink:href="#DejaVuSans-28"/>
      <use x="286.769531" xlink:href="#DejaVuSans-73"/>
      <use x="338.869141" xlink:href="#DejaVuSans-29"/>
     </g>
    </g>
   </g>
   <g id="matplotlib.axis_2">
    <g id="ytick_1">
     <g id="line2d_17">
      <path clip-path="url(#pe0e7dae68e)" d="M 40.603125 303.208875 
L 397.723125 303.208875 
" style="fill:none;stroke:#b0b0b0;stroke-linecap:square;stroke-width:0.8;"/>
     </g>
     <g id="line2d_18">
      <defs>
       <path d="M 0 0 
L -3.5 0 
" id="mfa8003efd6" style="stroke:#000000;stroke-width:0.8;"/>
      </defs>
      <g>
       <use style="stroke:#000000;stroke-width:0.8;" x="40.603125" xlink:href="#mfa8003efd6" y="303.208875"/>
      </g>
     </g>
     <g id="text_10">
      <!-- 0 -->
      <g transform="translate(27.240625 307.008094)scale(0.1 -0.1)">
       <use xlink:href="#DejaVuSans-30"/>
      </g>
     </g>
    </g>
    <g id="ytick_2">
     <g id="line2d_19">
      <path clip-path="url(#pe0e7dae68e)" d="M 40.603125 244.203997 
L 397.723125 244.203997 
" style="fill:none;stroke:#b0b0b0;stroke-linecap:square;stroke-width:0.8;"/>
     </g>
     <g id="line2d_20">
      <g>
       <use style="stroke:#000000;stroke-width:0.8;" x="40.603125" xlink:href="#mfa8003efd6" y="244.203997"/>
      </g>
     </g>
     <g id="text_11">
      <!-- 10 -->
      <g transform="translate(20.878125 248.003216)scale(0.1 -0.1)">
       <use xlink:href="#DejaVuSans-31"/>
       <use x="63.623047" xlink:href="#DejaVuSans-30"/>
      </g>
     </g>
    </g>
    <g id="ytick_3">
     <g id="line2d_21">
      <path clip-path="url(#pe0e7dae68e)" d="M 40.603125 185.199119 
L 397.723125 185.199119 
" style="fill:none;stroke:#b0b0b0;stroke-linecap:square;stroke-width:0.8;"/>
     </g>
     <g id="line2d_22">
      <g>
       <use style="stroke:#000000;stroke-width:0.8;" x="40.603125" xlink:href="#mfa8003efd6" y="185.199119"/>
      </g>
     </g>
     <g id="text_12">
      <!-- 20 -->
      <g transform="translate(20.878125 188.998338)scale(0.1 -0.1)">
       <use xlink:href="#DejaVuSans-32"/>
       <use x="63.623047" xlink:href="#DejaVuSans-30"/>
      </g>
     </g>
    </g>
    <g id="ytick_4">
     <g id="line2d_23">
      <path clip-path="url(#pe0e7dae68e)" d="M 40.603125 126.194241 
L 397.723125 126.194241 
" style="fill:none;stroke:#b0b0b0;stroke-linecap:square;stroke-width:0.8;"/>
     </g>
     <g id="line2d_24">
      <g>
       <use style="stroke:#000000;stroke-width:0.8;" x="40.603125" xlink:href="#mfa8003efd6" y="126.194241"/>
      </g>
     </g>
     <g id="text_13">
      <!-- 30 -->
      <g transform="translate(20.878125 129.99346)scale(0.1 -0.1)">
       <use xlink:href="#DejaVuSans-33"/>
       <use x="63.623047" xlink:href="#DejaVuSans-30"/>
      </g>
     </g>
    </g>
    <g id="ytick_5">
     <g id="line2d_25">
      <path clip-path="url(#pe0e7dae68e)" d="M 40.603125 67.189363 
L 397.723125 67.189363 
" style="fill:none;stroke:#b0b0b0;stroke-linecap:square;stroke-width:0.8;"/>
     </g>
     <g id="line2d_26">
      <g>
       <use style="stroke:#000000;stroke-width:0.8;" x="40.603125" xlink:href="#mfa8003efd6" y="67.189363"/>
      </g>
     </g>
     <g id="text_14">
      <!-- 40 -->
      <defs>
       <path d="M 37.796875 64.3125 
L 12.890625 25.390625 
L 37.796875 25.390625 
z
M 35.203125 72.90625 
L 47.609375 72.90625 
L 47.609375 25.390625 
L 58.015625 25.390625 
L 58.015625 17.1875 
L 47.609375 17.1875 
L 47.609375 0 
L 37.796875 0 
L 37.796875 17.1875 
L 4.890625 17.1875 
L 4.890625 26.703125 
z
" id="DejaVuSans-34"/>
      </defs>
      <g transform="translate(20.878125 70.988582)scale(0.1 -0.1)">
       <use xlink:href="#DejaVuSans-34"/>
       <use x="63.623047" xlink:href="#DejaVuSans-30"/>
      </g>
     </g>
    </g>
    <g id="text_15">
     <!-- Discovered Nodes -->
     <defs>
      <path d="M 19.671875 64.796875 
L 19.671875 8.109375 
L 31.59375 8.109375 
Q 46.6875 8.109375 53.6875 14.9375 
Q 60.6875 21.78125 60.6875 36.53125 
Q 60.6875 51.171875 53.6875 57.984375 
Q 46.6875 64.796875 31.59375 64.796875 
z
M 9.8125 72.90625 
L 30.078125 72.90625 
Q 51.265625 72.90625 61.171875 64.09375 
Q 71.09375 55.28125 71.09375 36.53125 
Q 71.09375 17.671875 61.125 8.828125 
Q 51.171875 0 30.078125 0 
L 9.8125 0 
z
" id="DejaVuSans-44"/>
      <path d="M 48.78125 52.59375 
L 48.78125 44.1875 
Q 44.96875 46.296875 41.140625 47.34375 
Q 37.3125 48.390625 33.40625 48.390625 
Q 24.65625 48.390625 19.8125 42.84375 
Q 14.984375 37.3125 14.984375 27.296875 
Q 14.984375 17.28125 19.8125 11.734375 
Q 24.65625 6.203125 33.40625 6.203125 
Q 37.3125 6.203125 41.140625 7.25 
Q 44.96875 8.296875 48.78125 10.40625 
L 48.78125 2.09375 
Q 45.015625 0.34375 40.984375 -0.53125 
Q 36.96875 -1.421875 32.421875 -1.421875 
Q 20.0625 -1.421875 12.78125 6.34375 
Q 5.515625 14.109375 5.515625 27.296875 
Q 5.515625 40.671875 12.859375 48.328125 
Q 20.21875 56 33.015625 56 
Q 37.15625 56 41.109375 55.140625 
Q 45.0625 54.296875 48.78125 52.59375 
z
" id="DejaVuSans-63"/>
      <path d="M 30.609375 48.390625 
Q 23.390625 48.390625 19.1875 42.75 
Q 14.984375 37.109375 14.984375 27.296875 
Q 14.984375 17.484375 19.15625 11.84375 
Q 23.34375 6.203125 30.609375 6.203125 
Q 37.796875 6.203125 41.984375 11.859375 
Q 46.1875 17.53125 46.1875 27.296875 
Q 46.1875 37.015625 41.984375 42.703125 
Q 37.796875 48.390625 30.609375 48.390625 
z
M 30.609375 56 
Q 42.328125 56 49.015625 48.375 
Q 55.71875 40.765625 55.71875 27.296875 
Q 55.71875 13.875 49.015625 6.21875 
Q 42.328125 -1.421875 30.609375 -1.421875 
Q 18.84375 -1.421875 12.171875 6.21875 
Q 5.515625 13.875 5.515625 27.296875 
Q 5.515625 40.765625 12.171875 48.375 
Q 18.84375 56 30.609375 56 
z
" id="DejaVuSans-6f"/>
      <path d="M 2.984375 54.6875 
L 12.5 54.6875 
L 29.59375 8.796875 
L 46.6875 54.6875 
L 56.203125 54.6875 
L 35.6875 0 
L 23.484375 0 
z
" id="DejaVuSans-76"/>
      <path d="M 41.109375 46.296875 
Q 39.59375 47.171875 37.8125 47.578125 
Q 36.03125 48 33.890625 48 
Q 26.265625 48 22.1875 43.046875 
Q 18.109375 38.09375 18.109375 28.8125 
L 18.109375 0 
L 9.078125 0 
L 9.078125 54.6875 
L 18.109375 54.6875 
L 18.109375 46.1875 
Q 20.953125 51.171875 25.484375 53.578125 
Q 30.03125 56 36.53125 56 
Q 37.453125 56 38.578125 55.875 
Q 39.703125 55.765625 41.0625 55.515625 
z
" id="DejaVuSans-72"/>
      <path d="M 45.40625 46.390625 
L 45.40625 75.984375 
L 54.390625 75.984375 
L 54.390625 0 
L 45.40625 0 
L 45.40625 8.203125 
Q 42.578125 3.328125 38.25 0.953125 
Q 33.9375 -1.421875 27.875 -1.421875 
Q 17.96875 -1.421875 11.734375 6.484375 
Q 5.515625 14.40625 5.515625 27.296875 
Q 5.515625 40.1875 11.734375 48.09375 
Q 17.96875 56 27.875 56 
Q 33.9375 56 38.25 53.625 
Q 42.578125 51.265625 45.40625 46.390625 
z
M 14.796875 27.296875 
Q 14.796875 17.390625 18.875 11.75 
Q 22.953125 6.109375 30.078125 6.109375 
Q 37.203125 6.109375 41.296875 11.75 
Q 45.40625 17.390625 45.40625 27.296875 
Q 45.40625 37.203125 41.296875 42.84375 
Q 37.203125 48.484375 30.078125 48.484375 
Q 22.953125 48.484375 18.875 42.84375 
Q 14.796875 37.203125 14.796875 27.296875 
z
" id="DejaVuSans-64"/>
      <path id="DejaVuSans-20"/>
      <path d="M 9.8125 72.90625 
L 23.09375 72.90625 
L 55.421875 11.921875 
L 55.421875 72.90625 
L 64.984375 72.90625 
L 64.984375 0 
L 51.703125 0 
L 19.390625 60.984375 
L 19.390625 0 
L 9.8125 0 
z
" id="DejaVuSans-4e"/>
     </defs>
     <g transform="translate(14.798438 227.486375)rotate(-90)scale(0.1 -0.1)">
      <use xlink:href="#DejaVuSans-44"/>
      <use x="77.001953" xlink:href="#DejaVuSans-69"/>
      <use x="104.785156" xlink:href="#DejaVuSans-73"/>
      <use x="156.884766" xlink:href="#DejaVuSans-63"/>
      <use x="211.865234" xlink:href="#DejaVuSans-6f"/>
      <use x="273.046875" xlink:href="#DejaVuSans-76"/>
      <use x="332.226562" xlink:href="#DejaVuSans-65"/>
      <use x="393.75" xlink:href="#DejaVuSans-72"/>
      <use x="434.832031" xlink:href="#DejaVuSans-65"/>
      <use x="496.355469" xlink:href="#DejaVuSans-64"/>
      <use x="559.832031" xlink:href="#DejaVuSans-20"/>
      <use x="591.619141" xlink:href="#DejaVuSans-4e"/>
      <use x="666.423828" xlink:href="#DejaVuSans-6f"/>
      <use x="727.605469" xlink:href="#DejaVuSans-64"/>
      <use x="791.082031" xlink:href="#DejaVuSans-65"/>
      <use x="852.605469" xlink:href="#DejaVuSans-73"/>
     </g>
    </g>
   </g>
   <g id="line2d_27">
    <path clip-path="url(#pe0e7dae68e)" d="M 40.603125 297.308387 
L 48.324639 297.308387 
L 49.289828 285.507412 
L 51.220206 273.706436 
L 52.185395 273.706436 
L 53.150584 261.90546 
L 55.080963 261.90546 
L 56.046152 267.805948 
L 57.011341 261.90546 
L 57.97653 244.203997 
L 59.906909 244.203997 
L 60.872098 232.403021 
L 62.802476 232.403021 
L 64.732855 208.80107 
L 65.698044 208.80107 
L 66.663233 214.701558 
L 68.593611 214.701558 
L 69.558801 208.80107 
L 70.52399 208.80107 
L 71.489179 214.701558 
L 72.454368 208.80107 
L 75.349936 208.80107 
L 76.315125 197.000095 
L 77.280314 202.900582 
L 78.245503 214.701558 
L 79.210693 202.900582 
L 80.175882 202.900582 
L 81.141071 208.80107 
L 82.10626 202.900582 
L 84.036639 202.900582 
L 85.001828 208.80107 
L 85.967017 208.80107 
L 86.932206 202.900582 
L 87.897395 208.80107 
L 89.827774 208.80107 
L 90.792963 226.502534 
L 92.723341 226.502534 
L 94.65372 238.303509 
L 96.584098 238.303509 
L 97.549287 244.203997 
L 98.514476 244.203997 
L 99.479666 250.104485 
L 101.410044 250.104485 
L 102.375233 261.90546 
L 103.340422 261.90546 
L 104.305611 273.706436 
L 106.23599 285.507412 
L 108.166368 285.507412 
L 109.131557 291.407899 
L 110.096747 291.407899 
L 111.061936 303.208875 
L 396.757936 303.208875 
L 396.757936 303.208875 
" style="fill:none;stroke:#008000;stroke-linecap:square;stroke-width:1.5;"/>
   </g>
   <g id="line2d_28">
    <path clip-path="url(#pe0e7dae68e)" d="M 40.603125 279.606924 
L 41.568314 279.606924 
L 42.533503 267.805948 
L 44.463882 256.004973 
L 46.39426 256.004973 
L 47.359449 238.303509 
L 49.289828 226.502534 
L 51.220206 226.502534 
L 52.185395 214.701558 
L 53.150584 208.80107 
L 54.115774 208.80107 
L 55.080963 191.099607 
L 57.97653 191.099607 
L 58.94172 185.199119 
L 59.906909 173.398143 
L 60.872098 179.298631 
L 62.802476 155.69668 
L 65.698044 155.69668 
L 66.663233 149.796192 
L 67.628422 155.69668 
L 68.593611 155.69668 
L 69.558801 161.597168 
L 70.52399 161.597168 
L 71.489179 149.796192 
L 72.454368 126.194241 
L 73.419557 126.194241 
L 74.384747 120.293753 
L 75.349936 126.194241 
L 76.315125 126.194241 
L 77.280314 114.393265 
L 78.245503 114.393265 
L 79.210693 126.194241 
L 80.175882 126.194241 
L 81.141071 132.094729 
L 82.10626 149.796192 
L 83.071449 149.796192 
L 85.001828 161.597168 
L 85.967017 173.398143 
L 86.932206 197.000095 
L 90.792963 220.602046 
L 91.758152 232.403021 
L 93.68853 232.403021 
L 94.65372 238.303509 
L 95.618909 238.303509 
L 100.444855 267.805948 
L 101.410044 279.606924 
L 102.375233 279.606924 
L 106.23599 303.208875 
L 396.757936 303.208875 
L 396.757936 303.208875 
" style="fill:none;stroke:#0000ff;stroke-linecap:square;stroke-width:1.5;"/>
   </g>
   <g id="line2d_29">
    <path clip-path="url(#pe0e7dae68e)" d="M 40.603125 285.507412 
L 41.568314 279.606924 
L 42.533503 279.606924 
L 43.498693 267.805948 
L 44.463882 267.805948 
L 45.429071 256.004973 
L 46.39426 256.004973 
L 47.359449 250.104485 
L 48.324639 238.303509 
L 50.255017 226.502534 
L 51.220206 214.701558 
L 52.185395 214.701558 
L 53.150584 197.000095 
L 54.115774 191.099607 
L 55.080963 191.099607 
L 56.046152 179.298631 
L 57.011341 179.298631 
L 57.97653 167.497655 
L 58.94172 149.796192 
L 60.872098 126.194241 
L 61.837287 132.094729 
L 62.802476 126.194241 
L 63.767666 108.492777 
L 64.732855 102.59229 
L 65.698044 108.492777 
L 68.593611 108.492777 
L 70.52399 96.691802 
L 71.489179 114.393265 
L 72.454368 120.293753 
L 73.419557 108.492777 
L 74.384747 120.293753 
L 75.349936 114.393265 
L 76.315125 120.293753 
L 77.280314 120.293753 
L 79.210693 132.094729 
L 80.175882 120.293753 
L 81.141071 114.393265 
L 82.10626 120.293753 
L 85.001828 120.293753 
L 85.967017 137.995216 
L 86.932206 132.094729 
L 87.897395 132.094729 
L 88.862584 137.995216 
L 90.792963 161.597168 
L 91.758152 179.298631 
L 92.723341 179.298631 
L 93.68853 185.199119 
L 94.65372 202.900582 
L 96.584098 226.502534 
L 97.549287 232.403021 
L 98.514476 232.403021 
L 100.444855 244.203997 
L 102.375233 244.203997 
L 103.340422 256.004973 
L 104.305611 261.90546 
L 105.270801 291.407899 
L 108.166368 291.407899 
L 109.131557 297.308387 
L 111.061936 297.308387 
L 112.027125 303.208875 
L 396.757936 303.208875 
L 396.757936 303.208875 
" style="fill:none;stroke:#ff0000;stroke-linecap:square;stroke-width:1.5;"/>
   </g>
   <g id="line2d_30">
    <path clip-path="url(#pe0e7dae68e)" d="M 40.603125 303.208875 
L 47.359449 303.208875 
L 48.324639 297.308387 
L 50.255017 297.308387 
L 54.115774 273.706436 
L 55.080963 273.706436 
L 56.046152 261.90546 
L 57.011341 256.004973 
L 57.97653 256.004973 
L 58.94172 250.104485 
L 59.906909 232.403021 
L 62.802476 214.701558 
L 63.767666 214.701558 
L 64.732855 208.80107 
L 65.698044 191.099607 
L 66.663233 179.298631 
L 68.593611 167.497655 
L 69.558801 155.69668 
L 70.52399 149.796192 
L 71.489179 149.796192 
L 72.454368 137.995216 
L 73.419557 143.895704 
L 75.349936 143.895704 
L 76.315125 120.293753 
L 78.245503 120.293753 
L 79.210693 108.492777 
L 80.175882 102.59229 
L 81.141071 108.492777 
L 82.10626 102.59229 
L 83.071449 108.492777 
L 84.036639 102.59229 
L 85.001828 108.492777 
L 85.967017 120.293753 
L 86.932206 114.393265 
L 87.897395 114.393265 
L 88.862584 126.194241 
L 89.827774 120.293753 
L 90.792963 120.293753 
L 91.758152 126.194241 
L 92.723341 126.194241 
L 93.68853 108.492777 
L 94.65372 96.691802 
L 95.618909 96.691802 
L 96.584098 126.194241 
L 98.514476 126.194241 
L 99.479666 132.094729 
L 100.444855 126.194241 
L 101.410044 143.895704 
L 102.375233 143.895704 
L 103.340422 149.796192 
L 104.305611 149.796192 
L 105.270801 155.69668 
L 106.23599 155.69668 
L 109.131557 137.995216 
L 110.096747 137.995216 
L 111.061936 149.796192 
L 112.027125 155.69668 
L 112.992314 167.497655 
L 117.81826 197.000095 
L 118.783449 208.80107 
L 119.748639 232.403021 
L 120.713828 238.303509 
L 121.679017 238.303509 
L 122.644206 250.104485 
L 123.609395 256.004973 
L 124.574584 267.805948 
L 125.539774 267.805948 
L 127.470152 279.606924 
L 128.435341 279.606924 
L 129.40053 285.507412 
L 135.191666 285.507412 
L 136.156855 297.308387 
L 138.087233 297.308387 
L 139.052422 303.208875 
L 386.140855 303.208875 
L 387.106044 291.407899 
L 388.071233 291.407899 
L 390.966801 273.706436 
L 392.897179 273.706436 
L 395.792747 256.004973 
L 396.757936 256.004973 
L 396.757936 256.004973 
" style="fill:none;stroke:#00ffff;stroke-linecap:square;stroke-width:1.5;"/>
   </g>
   <g id="line2d_31">
    <path clip-path="url(#pe0e7dae68e)" d="M 40.603125 279.606924 
L 41.568314 273.706436 
L 43.498693 273.706436 
L 44.463882 267.805948 
L 45.429071 267.805948 
L 48.324639 250.104485 
L 49.289828 238.303509 
L 50.255017 232.403021 
L 51.220206 220.602046 
L 53.150584 208.80107 
L 54.115774 208.80107 
L 55.080963 202.900582 
L 56.046152 191.099607 
L 57.011341 185.199119 
L 57.97653 173.398143 
L 58.94172 173.398143 
L 59.906909 167.497655 
L 60.872098 155.69668 
L 62.802476 155.69668 
L 63.767666 173.398143 
L 64.732855 173.398143 
L 65.698044 161.597168 
L 66.663233 167.497655 
L 67.628422 161.597168 
L 70.52399 161.597168 
L 71.489179 155.69668 
L 72.454368 155.69668 
L 73.419557 149.796192 
L 74.384747 149.796192 
L 76.315125 137.995216 
L 77.280314 149.796192 
L 78.245503 137.995216 
L 79.210693 137.995216 
L 80.175882 126.194241 
L 81.141071 137.995216 
L 82.10626 126.194241 
L 83.071449 120.293753 
L 84.036639 108.492777 
L 85.001828 120.293753 
L 85.967017 120.293753 
L 86.932206 137.995216 
L 87.897395 137.995216 
L 88.862584 132.094729 
L 89.827774 114.393265 
L 90.792963 120.293753 
L 91.758152 120.293753 
L 92.723341 137.995216 
L 93.68853 137.995216 
L 94.65372 149.796192 
L 95.618909 149.796192 
L 97.549287 161.597168 
L 98.514476 161.597168 
L 99.479666 179.298631 
L 100.444855 185.199119 
L 103.340422 185.199119 
L 105.270801 197.000095 
L 106.23599 214.701558 
L 107.201179 226.502534 
L 109.131557 226.502534 
L 110.096747 238.303509 
L 112.027125 238.303509 
L 113.957503 250.104485 
L 114.922693 261.90546 
L 115.887882 261.90546 
L 119.748639 285.507412 
L 120.713828 285.507412 
L 121.679017 291.407899 
L 124.574584 291.407899 
L 125.539774 297.308387 
L 126.504963 297.308387 
L 127.470152 303.208875 
L 149.669503 303.208875 
L 151.599882 291.407899 
L 152.565071 279.606924 
L 153.53026 279.606924 
L 155.460639 267.805948 
L 156.425828 267.805948 
L 157.391017 256.004973 
L 158.356206 256.004973 
L 159.321395 250.104485 
L 160.286584 238.303509 
L 161.251774 238.303509 
L 162.216963 232.403021 
L 164.147341 208.80107 
L 165.11253 191.099607 
L 166.07772 191.099607 
L 167.042909 173.398143 
L 168.008098 173.398143 
L 170.903666 155.69668 
L 172.834044 155.69668 
L 174.764422 132.094729 
L 175.729611 126.194241 
L 176.694801 126.194241 
L 177.65999 114.393265 
L 178.625179 114.393265 
L 181.520747 96.691802 
L 182.485936 84.890826 
L 183.451125 78.990338 
L 185.381503 78.990338 
L 186.346693 73.089851 
L 187.311882 73.089851 
L 188.277071 67.189363 
L 189.24226 67.189363 
L 190.207449 61.288875 
L 191.172639 84.890826 
L 192.137828 90.791314 
L 195.033395 90.791314 
L 195.998584 84.890826 
L 196.963774 84.890826 
L 197.928963 102.59229 
L 199.859341 102.59229 
L 200.82453 108.492777 
L 201.78972 102.59229 
L 202.754909 102.59229 
L 204.685287 114.393265 
L 205.650476 108.492777 
L 206.615666 108.492777 
L 207.580855 114.393265 
L 208.546044 108.492777 
L 209.511233 108.492777 
L 210.476422 102.59229 
L 211.441611 108.492777 
L 212.406801 137.995216 
L 213.37199 143.895704 
L 214.337179 161.597168 
L 215.302368 173.398143 
L 216.267557 173.398143 
L 217.232747 179.298631 
L 218.197936 173.398143 
L 220.128314 173.398143 
L 221.093503 167.497655 
L 223.989071 185.199119 
L 224.95426 185.199119 
L 225.919449 191.099607 
L 227.849828 191.099607 
L 228.815017 202.900582 
L 229.780206 208.80107 
L 231.710584 232.403021 
L 232.675774 232.403021 
L 233.640963 238.303509 
L 236.53653 238.303509 
L 237.50172 244.203997 
L 238.466909 244.203997 
L 239.432098 261.90546 
L 245.223233 261.90546 
L 246.188422 273.706436 
L 254.875125 273.706436 
L 255.840314 279.606924 
L 256.805503 291.407899 
L 259.701071 291.407899 
L 260.66626 297.308387 
L 263.561828 297.308387 
L 264.527017 303.208875 
L 295.413071 303.208875 
L 296.37826 297.308387 
L 298.308639 297.308387 
L 299.273828 285.507412 
L 301.204206 285.507412 
L 302.169395 273.706436 
L 308.92572 273.706436 
L 309.890909 267.805948 
L 310.856098 267.805948 
L 311.821287 256.004973 
L 312.786476 256.004973 
L 313.751666 244.203997 
L 315.682044 232.403021 
L 316.647233 208.80107 
L 317.612422 197.000095 
L 319.542801 197.000095 
L 320.50799 191.099607 
L 321.473179 179.298631 
L 322.438368 179.298631 
L 323.403557 167.497655 
L 324.368747 161.597168 
L 325.333936 143.895704 
L 326.299125 137.995216 
L 327.264314 143.895704 
L 328.229503 137.995216 
L 331.125071 137.995216 
L 332.09026 132.094729 
L 333.055449 120.293753 
L 334.020639 102.59229 
L 335.951017 90.791314 
L 336.916206 96.691802 
L 337.881395 90.791314 
L 338.846584 90.791314 
L 339.811774 78.990338 
L 340.776963 73.089851 
L 341.742152 73.089851 
L 342.707341 78.990338 
L 346.568098 78.990338 
L 347.533287 84.890826 
L 349.463666 84.890826 
L 350.428855 73.089851 
L 351.394044 73.089851 
L 353.324422 84.890826 
L 356.21999 84.890826 
L 357.185179 73.089851 
L 358.150368 78.990338 
L 359.115557 78.990338 
L 360.080747 84.890826 
L 374.558584 84.890826 
L 375.523774 73.089851 
L 376.488963 73.089851 
L 377.454152 78.990338 
L 380.34972 78.990338 
L 381.314909 73.089851 
L 396.757936 73.089851 
L 396.757936 73.089851 
" style="fill:none;stroke:#ff00ff;stroke-linecap:square;stroke-width:1.5;"/>
   </g>
   <g id="line2d_32">
    <path clip-path="url(#pe0e7dae68e)" d="M 40.603125 303.208875 
L 44.463882 303.208875 
L 45.429071 297.308387 
L 51.220206 297.308387 
L 52.185395 291.407899 
L 55.080963 291.407899 
L 56.046152 285.507412 
L 57.011341 285.507412 
L 57.97653 279.606924 
L 58.94172 279.606924 
L 60.872098 267.805948 
L 64.732855 267.805948 
L 65.698044 261.90546 
L 69.558801 261.90546 
L 70.52399 256.004973 
L 73.419557 256.004973 
L 74.384747 244.203997 
L 77.280314 244.203997 
L 78.245503 250.104485 
L 79.210693 244.203997 
L 81.141071 244.203997 
L 83.071449 256.004973 
L 84.036639 267.805948 
L 85.001828 261.90546 
L 86.932206 273.706436 
L 89.827774 273.706436 
L 90.792963 267.805948 
L 92.723341 267.805948 
L 93.68853 261.90546 
L 94.65372 267.805948 
L 99.479666 267.805948 
L 102.375233 285.507412 
L 103.340422 285.507412 
L 104.305611 291.407899 
L 105.270801 291.407899 
L 106.23599 297.308387 
L 116.853071 297.308387 
L 117.81826 303.208875 
L 311.821287 303.208875 
L 312.786476 297.308387 
L 320.50799 297.308387 
L 321.473179 291.407899 
L 322.438368 291.407899 
L 323.403557 285.507412 
L 331.125071 285.507412 
L 332.09026 291.407899 
L 333.055449 285.507412 
L 338.846584 285.507412 
L 339.811774 279.606924 
L 340.776963 279.606924 
L 341.742152 291.407899 
L 342.707341 291.407899 
L 343.67253 297.308387 
L 358.150368 297.308387 
L 359.115557 303.208875 
L 389.036422 303.208875 
L 390.001611 297.308387 
L 396.757936 297.308387 
L 396.757936 297.308387 
" style="fill:none;stroke:#000000;stroke-linecap:square;stroke-width:1.5;"/>
   </g>
   <g id="patch_3">
    <path d="M 40.603125 315.304875 
L 40.603125 49.192875 
" style="fill:none;stroke:#000000;stroke-linecap:square;stroke-linejoin:miter;stroke-width:0.8;"/>
   </g>
   <g id="patch_4">
    <path d="M 397.723125 315.304875 
L 397.723125 49.192875 
" style="fill:none;stroke:#000000;stroke-linecap:square;stroke-linejoin:miter;stroke-width:0.8;"/>
   </g>
   <g id="patch_5">
    <path d="M 40.603125 315.304875 
L 397.723125 315.304875 
" style="fill:none;stroke:#000000;stroke-linecap:square;stroke-linejoin:miter;stroke-width:0.8;"/>
   </g>
   <g id="patch_6">
    <path d="M 40.603125 49.192875 
L 397.723125 49.192875 
" style="fill:none;stroke:#000000;stroke-linecap:square;stroke-linejoin:miter;stroke-width:0.8;"/>
   </g>
   <g id="text_16">
    <!-- Discovered nodes per time -->
    <defs>
     <path d="M 54.890625 33.015625 
L 54.890625 0 
L 45.90625 0 
L 45.90625 32.71875 
Q 45.90625 40.484375 42.875 44.328125 
Q 39.84375 48.1875 33.796875 48.1875 
Q 26.515625 48.1875 22.3125 43.546875 
Q 18.109375 38.921875 18.109375 30.90625 
L 18.109375 0 
L 9.078125 0 
L 9.078125 54.6875 
L 18.109375 54.6875 
L 18.109375 46.1875 
Q 21.34375 51.125 25.703125 53.5625 
Q 30.078125 56 35.796875 56 
Q 45.21875 56 50.046875 50.171875 
Q 54.890625 44.34375 54.890625 33.015625 
z
" id="DejaVuSans-6e"/>
     <path d="M 18.109375 8.203125 
L 18.109375 -20.796875 
L 9.078125 -20.796875 
L 9.078125 54.6875 
L 18.109375 54.6875 
L 18.109375 46.390625 
Q 20.953125 51.265625 25.265625 53.625 
Q 29.59375 56 35.59375 56 
Q 45.5625 56 51.78125 48.09375 
Q 58.015625 40.1875 58.015625 27.296875 
Q 58.015625 14.40625 51.78125 6.484375 
Q 45.5625 -1.421875 35.59375 -1.421875 
Q 29.59375 -1.421875 25.265625 0.953125 
Q 20.953125 3.328125 18.109375 8.203125 
z
M 48.6875 27.296875 
Q 48.6875 37.203125 44.609375 42.84375 
Q 40.53125 48.484375 33.40625 48.484375 
Q 26.265625 48.484375 22.1875 42.84375 
Q 18.109375 37.203125 18.109375 27.296875 
Q 18.109375 17.390625 22.1875 11.75 
Q 26.265625 6.109375 33.40625 6.109375 
Q 40.53125 6.109375 44.609375 11.75 
Q 48.6875 17.390625 48.6875 27.296875 
z
" id="DejaVuSans-70"/>
     <path d="M 18.3125 70.21875 
L 18.3125 54.6875 
L 36.8125 54.6875 
L 36.8125 47.703125 
L 18.3125 47.703125 
L 18.3125 18.015625 
Q 18.3125 11.328125 20.140625 9.421875 
Q 21.96875 7.515625 27.59375 7.515625 
L 36.8125 7.515625 
L 36.8125 0 
L 27.59375 0 
Q 17.1875 0 13.234375 3.875 
Q 9.28125 7.765625 9.28125 18.015625 
L 9.28125 47.703125 
L 2.6875 47.703125 
L 2.6875 54.6875 
L 9.28125 54.6875 
L 9.28125 70.21875 
z
" id="DejaVuSans-74"/>
    </defs>
    <g transform="translate(138.227813 16.318125)scale(0.12 -0.12)">
     <use xlink:href="#DejaVuSans-44"/>
     <use x="77.001953" xlink:href="#DejaVuSans-69"/>
     <use x="104.785156" xlink:href="#DejaVuSans-73"/>
     <use x="156.884766" xlink:href="#DejaVuSans-63"/>
     <use x="211.865234" xlink:href="#DejaVuSans-6f"/>
     <use x="273.046875" xlink:href="#DejaVuSans-76"/>
     <use x="332.226562" xlink:href="#DejaVuSans-65"/>
     <use x="393.75" xlink:href="#DejaVuSans-72"/>
     <use x="434.832031" xlink:href="#DejaVuSans-65"/>
     <use x="496.355469" xlink:href="#DejaVuSans-64"/>
     <use x="559.832031" xlink:href="#DejaVuSans-20"/>
     <use x="591.619141" xlink:href="#DejaVuSans-6e"/>
     <use x="654.998047" xlink:href="#DejaVuSans-6f"/>
     <use x="716.179688" xlink:href="#DejaVuSans-64"/>
     <use x="779.65625" xlink:href="#DejaVuSans-65"/>
     <use x="841.179688" xlink:href="#DejaVuSans-73"/>
     <use x="893.279297" xlink:href="#DejaVuSans-20"/>
     <use x="925.066406" xlink:href="#DejaVuSans-70"/>
     <use x="988.542969" xlink:href="#DejaVuSans-65"/>
     <use x="1050.066406" xlink:href="#DejaVuSans-72"/>
     <use x="1091.179688" xlink:href="#DejaVuSans-20"/>
     <use x="1122.966797" xlink:href="#DejaVuSans-74"/>
     <use x="1162.175781" xlink:href="#DejaVuSans-69"/>
     <use x="1189.958984" xlink:href="#DejaVuSans-6d"/>
     <use x="1287.371094" xlink:href="#DejaVuSans-65"/>
    </g>
    <!--  -->
    <g transform="translate(219.163125 29.7555)scale(0.12 -0.12)"/>
    <!--  -->
    <g transform="translate(219.163125 43.192875)scale(0.12 -0.12)"/>
   </g>
   <g id="legend_1">
    <g id="patch_7">
     <path d="M 411.865525 139.939385 
L 482.471775 139.939385 
Q 484.471775 139.939385 484.471775 137.939385 
L 484.471775 50.870635 
Q 484.471775 48.870635 482.471775 48.870635 
L 411.865525 48.870635 
Q 409.865525 48.870635 409.865525 50.870635 
L 409.865525 137.939385 
Q 409.865525 139.939385 411.865525 139.939385 
z
" style="fill:#ffffff;opacity:0.8;stroke:#cccccc;stroke-linejoin:miter;"/>
    </g>
    <g id="line2d_33">
     <path d="M 413.865525 56.969072 
L 433.865525 56.969072 
" style="fill:none;stroke:#008000;stroke-linecap:square;stroke-width:1.5;"/>
    </g>
    <g id="line2d_34"/>
    <g id="text_17">
     <!-- drone 0 -->
     <g transform="translate(441.865525 60.469072)scale(0.1 -0.1)">
      <use xlink:href="#DejaVuSans-64"/>
      <use x="63.476562" xlink:href="#DejaVuSans-72"/>
      <use x="104.558594" xlink:href="#DejaVuSans-6f"/>
      <use x="165.740234" xlink:href="#DejaVuSans-6e"/>
      <use x="229.119141" xlink:href="#DejaVuSans-65"/>
      <use x="290.642578" xlink:href="#DejaVuSans-20"/>
      <use x="322.429688" xlink:href="#DejaVuSans-30"/>
     </g>
    </g>
    <g id="line2d_35">
     <path d="M 413.865525 71.647197 
L 433.865525 71.647197 
" style="fill:none;stroke:#0000ff;stroke-linecap:square;stroke-width:1.5;"/>
    </g>
    <g id="line2d_36"/>
    <g id="text_18">
     <!-- drone 1 -->
     <g transform="translate(441.865525 75.147197)scale(0.1 -0.1)">
      <use xlink:href="#DejaVuSans-64"/>
      <use x="63.476562" xlink:href="#DejaVuSans-72"/>
      <use x="104.558594" xlink:href="#DejaVuSans-6f"/>
      <use x="165.740234" xlink:href="#DejaVuSans-6e"/>
      <use x="229.119141" xlink:href="#DejaVuSans-65"/>
      <use x="290.642578" xlink:href="#DejaVuSans-20"/>
      <use x="322.429688" xlink:href="#DejaVuSans-31"/>
     </g>
    </g>
    <g id="line2d_37">
     <path d="M 413.865525 86.325322 
L 433.865525 86.325322 
" style="fill:none;stroke:#ff0000;stroke-linecap:square;stroke-width:1.5;"/>
    </g>
    <g id="line2d_38"/>
    <g id="text_19">
     <!-- drone 2 -->
     <g transform="translate(441.865525 89.825322)scale(0.1 -0.1)">
      <use xlink:href="#DejaVuSans-64"/>
      <use x="63.476562" xlink:href="#DejaVuSans-72"/>
      <use x="104.558594" xlink:href="#DejaVuSans-6f"/>
      <use x="165.740234" xlink:href="#DejaVuSans-6e"/>
      <use x="229.119141" xlink:href="#DejaVuSans-65"/>
      <use x="290.642578" xlink:href="#DejaVuSans-20"/>
      <use x="322.429688" xlink:href="#DejaVuSans-32"/>
     </g>
    </g>
    <g id="line2d_39">
     <path d="M 413.865525 101.003447 
L 433.865525 101.003447 
" style="fill:none;stroke:#00ffff;stroke-linecap:square;stroke-width:1.5;"/>
    </g>
    <g id="line2d_40"/>
    <g id="text_20">
     <!-- drone 3 -->
     <g transform="translate(441.865525 104.503447)scale(0.1 -0.1)">
      <use xlink:href="#DejaVuSans-64"/>
      <use x="63.476562" xlink:href="#DejaVuSans-72"/>
      <use x="104.558594" xlink:href="#DejaVuSans-6f"/>
      <use x="165.740234" xlink:href="#DejaVuSans-6e"/>
      <use x="229.119141" xlink:href="#DejaVuSans-65"/>
      <use x="290.642578" xlink:href="#DejaVuSans-20"/>
      <use x="322.429688" xlink:href="#DejaVuSans-33"/>
     </g>
    </g>
    <g id="line2d_41">
     <path d="M 413.865525 115.681572 
L 433.865525 115.681572 
" style="fill:none;stroke:#ff00ff;stroke-linecap:square;stroke-width:1.5;"/>
    </g>
    <g id="line2d_42"/>
    <g id="text_21">
     <!-- drone 4 -->
     <g transform="translate(441.865525 119.181572)scale(0.1 -0.1)">
      <use xlink:href="#DejaVuSans-64"/>
      <use x="63.476562" xlink:href="#DejaVuSans-72"/>
      <use x="104.558594" xlink:href="#DejaVuSans-6f"/>
      <use x="165.740234" xlink:href="#DejaVuSans-6e"/>
      <use x="229.119141" xlink:href="#DejaVuSans-65"/>
      <use x="290.642578" xlink:href="#DejaVuSans-20"/>
      <use x="322.429688" xlink:href="#DejaVuSans-34"/>
     </g>
    </g>
    <g id="line2d_43">
     <path d="M 413.865525 130.359697 
L 433.865525 130.359697 
" style="fill:none;stroke:#000000;stroke-linecap:square;stroke-width:1.5;"/>
    </g>
    <g id="line2d_44"/>
    <g id="text_22">
     <!-- drone 5 -->
     <g transform="translate(441.865525 133.859697)scale(0.1 -0.1)">
      <use xlink:href="#DejaVuSans-64"/>
      <use x="63.476562" xlink:href="#DejaVuSans-72"/>
      <use x="104.558594" xlink:href="#DejaVuSans-6f"/>
      <use x="165.740234" xlink:href="#DejaVuSans-6e"/>
      <use x="229.119141" xlink:href="#DejaVuSans-65"/>
      <use x="290.642578" xlink:href="#DejaVuSans-20"/>
      <use x="322.429688" xlink:href="#DejaVuSans-35"/>
     </g>
    </g>
   </g>
  </g>
 </g>
 <defs>
  <clipPath id="pe0e7dae68e">
   <rect height="266.112" width="357.12" x="40.603125" y="49.192875"/>
  </clipPath>
 </defs>
</svg>
