<?xml version="1.0" encoding="utf-8" standalone="no"?>
<!DOCTYPE svg PUBLIC "-//W3C//DTD SVG 1.1//EN"
  "http://www.w3.org/Graphics/SVG/1.1/DTD/svg11.dtd">
<!-- Created with matplotlib (http://matplotlib.org/) -->
<svg height="641pt" version="1.1" viewBox="0 0 1186 641" width="1186pt" xmlns="http://www.w3.org/2000/svg" xmlns:xlink="http://www.w3.org/1999/xlink">
 <defs>
  <style type="text/css">
*{stroke-linecap:butt;stroke-linejoin:round;}
  </style>
 </defs>
 <g id="figure_1">
  <g id="patch_1">
   <path d="M 0 641.149125 
L 1186.071875 641.149125 
L 1186.071875 0 
L 0 0 
z
" style="fill:#ffffff;"/>
  </g>
  <g id="axes_1">
   <g id="patch_2">
    <path d="M 53.328125 603.592875 
L 1169.328125 603.592875 
L 1169.328125 49.192875 
L 53.328125 49.192875 
z
" style="fill:#ffffff;"/>
   </g>
   <g id="patch_3">
    <path clip-path="url(#p2638728bf8)" d="M 89.328125 603.592875 
L 92.928125 603.592875 
L 92.928125 603.592875 
L 89.328125 603.592875 
z
" style="fill:#1f77b4;"/>
   </g>
   <g id="patch_4">
    <path clip-path="url(#p2638728bf8)" d="M 92.928125 603.592875 
L 96.528125 603.592875 
L 96.528125 75.592875 
L 92.928125 75.592875 
z
" style="fill:#1f77b4;"/>
   </g>
   <g id="patch_5">
    <path clip-path="url(#p2638728bf8)" d="M 96.528125 603.592875 
L 100.128125 603.592875 
L 100.128125 603.343936 
L 96.528125 603.343936 
z
" style="fill:#1f77b4;"/>
   </g>
   <g id="patch_6">
    <path clip-path="url(#p2638728bf8)" d="M 100.128125 603.592875 
L 103.728125 603.592875 
L 103.728125 602.348179 
L 100.128125 602.348179 
z
" style="fill:#1f77b4;"/>
   </g>
   <g id="patch_7">
    <path clip-path="url(#p2638728bf8)" d="M 103.728125 603.592875 
L 107.328125 603.592875 
L 107.328125 603.343936 
L 103.728125 603.343936 
z
" style="fill:#1f77b4;"/>
   </g>
   <g id="patch_8">
    <path clip-path="url(#p2638728bf8)" d="M 107.328125 603.592875 
L 110.928125 603.592875 
L 110.928125 603.343936 
L 107.328125 603.343936 
z
" style="fill:#1f77b4;"/>
   </g>
   <g id="patch_9">
    <path clip-path="url(#p2638728bf8)" d="M 110.928125 603.592875 
L 114.528125 603.592875 
L 114.528125 603.343936 
L 110.928125 603.343936 
z
" style="fill:#1f77b4;"/>
   </g>
   <g id="patch_10">
    <path clip-path="url(#p2638728bf8)" d="M 114.528125 603.592875 
L 118.128125 603.592875 
L 118.128125 603.343936 
L 114.528125 603.343936 
z
" style="fill:#1f77b4;"/>
   </g>
   <g id="patch_11">
    <path clip-path="url(#p2638728bf8)" d="M 118.128125 603.592875 
L 121.728125 603.592875 
L 121.728125 603.592875 
L 118.128125 603.592875 
z
" style="fill:#1f77b4;"/>
   </g>
   <g id="patch_12">
    <path clip-path="url(#p2638728bf8)" d="M 121.728125 603.592875 
L 125.328125 603.592875 
L 125.328125 603.592875 
L 121.728125 603.592875 
z
" style="fill:#1f77b4;"/>
   </g>
   <g id="patch_13">
    <path clip-path="url(#p2638728bf8)" d="M 125.328125 603.592875 
L 128.928125 603.592875 
L 128.928125 603.592875 
L 125.328125 603.592875 
z
" style="fill:#1f77b4;"/>
   </g>
   <g id="patch_14">
    <path clip-path="url(#p2638728bf8)" d="M 128.928125 603.592875 
L 132.528125 603.592875 
L 132.528125 603.343936 
L 128.928125 603.343936 
z
" style="fill:#1f77b4;"/>
   </g>
   <g id="patch_15">
    <path clip-path="url(#p2638728bf8)" d="M 132.528125 603.592875 
L 136.128125 603.592875 
L 136.128125 603.592875 
L 132.528125 603.592875 
z
" style="fill:#1f77b4;"/>
   </g>
   <g id="patch_16">
    <path clip-path="url(#p2638728bf8)" d="M 136.128125 603.592875 
L 139.728125 603.592875 
L 139.728125 603.592875 
L 136.128125 603.592875 
z
" style="fill:#1f77b4;"/>
   </g>
   <g id="patch_17">
    <path clip-path="url(#p2638728bf8)" d="M 139.728125 603.592875 
L 143.328125 603.592875 
L 143.328125 603.592875 
L 139.728125 603.592875 
z
" style="fill:#1f77b4;"/>
   </g>
   <g id="patch_18">
    <path clip-path="url(#p2638728bf8)" d="M 143.328125 603.592875 
L 146.928125 603.592875 
L 146.928125 603.343936 
L 143.328125 603.343936 
z
" style="fill:#1f77b4;"/>
   </g>
   <g id="patch_19">
    <path clip-path="url(#p2638728bf8)" d="M 146.928125 603.592875 
L 150.528125 603.592875 
L 150.528125 603.592875 
L 146.928125 603.592875 
z
" style="fill:#1f77b4;"/>
   </g>
   <g id="patch_20">
    <path clip-path="url(#p2638728bf8)" d="M 150.528125 603.592875 
L 154.128125 603.592875 
L 154.128125 603.592875 
L 150.528125 603.592875 
z
" style="fill:#1f77b4;"/>
   </g>
   <g id="patch_21">
    <path clip-path="url(#p2638728bf8)" d="M 154.128125 603.592875 
L 157.728125 603.592875 
L 157.728125 603.592875 
L 154.128125 603.592875 
z
" style="fill:#1f77b4;"/>
   </g>
   <g id="patch_22">
    <path clip-path="url(#p2638728bf8)" d="M 157.728125 603.592875 
L 161.328125 603.592875 
L 161.328125 603.343936 
L 157.728125 603.343936 
z
" style="fill:#1f77b4;"/>
   </g>
   <g id="patch_23">
    <path clip-path="url(#p2638728bf8)" d="M 161.328125 603.592875 
L 164.928125 603.592875 
L 164.928125 603.343936 
L 161.328125 603.343936 
z
" style="fill:#1f77b4;"/>
   </g>
   <g id="patch_24">
    <path clip-path="url(#p2638728bf8)" d="M 164.928125 603.592875 
L 168.528125 603.592875 
L 168.528125 603.592875 
L 164.928125 603.592875 
z
" style="fill:#1f77b4;"/>
   </g>
   <g id="patch_25">
    <path clip-path="url(#p2638728bf8)" d="M 168.528125 603.592875 
L 172.128125 603.592875 
L 172.128125 603.592875 
L 168.528125 603.592875 
z
" style="fill:#1f77b4;"/>
   </g>
   <g id="patch_26">
    <path clip-path="url(#p2638728bf8)" d="M 172.128125 603.592875 
L 175.728125 603.592875 
L 175.728125 603.592875 
L 172.128125 603.592875 
z
" style="fill:#1f77b4;"/>
   </g>
   <g id="patch_27">
    <path clip-path="url(#p2638728bf8)" d="M 175.728125 603.592875 
L 179.328125 603.592875 
L 179.328125 603.592875 
L 175.728125 603.592875 
z
" style="fill:#1f77b4;"/>
   </g>
   <g id="patch_28">
    <path clip-path="url(#p2638728bf8)" d="M 179.328125 603.592875 
L 182.928125 603.592875 
L 182.928125 603.592875 
L 179.328125 603.592875 
z
" style="fill:#1f77b4;"/>
   </g>
   <g id="patch_29">
    <path clip-path="url(#p2638728bf8)" d="M 182.928125 603.592875 
L 186.528125 603.592875 
L 186.528125 603.592875 
L 182.928125 603.592875 
z
" style="fill:#1f77b4;"/>
   </g>
   <g id="patch_30">
    <path clip-path="url(#p2638728bf8)" d="M 186.528125 603.592875 
L 190.128125 603.592875 
L 190.128125 603.592875 
L 186.528125 603.592875 
z
" style="fill:#1f77b4;"/>
   </g>
   <g id="patch_31">
    <path clip-path="url(#p2638728bf8)" d="M 190.128125 603.592875 
L 193.728125 603.592875 
L 193.728125 603.592875 
L 190.128125 603.592875 
z
" style="fill:#1f77b4;"/>
   </g>
   <g id="patch_32">
    <path clip-path="url(#p2638728bf8)" d="M 193.728125 603.592875 
L 197.328125 603.592875 
L 197.328125 603.592875 
L 193.728125 603.592875 
z
" style="fill:#1f77b4;"/>
   </g>
   <g id="patch_33">
    <path clip-path="url(#p2638728bf8)" d="M 197.328125 603.592875 
L 200.928125 603.592875 
L 200.928125 603.592875 
L 197.328125 603.592875 
z
" style="fill:#1f77b4;"/>
   </g>
   <g id="patch_34">
    <path clip-path="url(#p2638728bf8)" d="M 200.928125 603.592875 
L 204.528125 603.592875 
L 204.528125 603.592875 
L 200.928125 603.592875 
z
" style="fill:#1f77b4;"/>
   </g>
   <g id="patch_35">
    <path clip-path="url(#p2638728bf8)" d="M 204.528125 603.592875 
L 208.128125 603.592875 
L 208.128125 603.592875 
L 204.528125 603.592875 
z
" style="fill:#1f77b4;"/>
   </g>
   <g id="patch_36">
    <path clip-path="url(#p2638728bf8)" d="M 208.128125 603.592875 
L 211.728125 603.592875 
L 211.728125 603.592875 
L 208.128125 603.592875 
z
" style="fill:#1f77b4;"/>
   </g>
   <g id="patch_37">
    <path clip-path="url(#p2638728bf8)" d="M 211.728125 603.592875 
L 215.328125 603.592875 
L 215.328125 603.592875 
L 211.728125 603.592875 
z
" style="fill:#1f77b4;"/>
   </g>
   <g id="patch_38">
    <path clip-path="url(#p2638728bf8)" d="M 215.328125 603.592875 
L 218.928125 603.592875 
L 218.928125 603.592875 
L 215.328125 603.592875 
z
" style="fill:#1f77b4;"/>
   </g>
   <g id="patch_39">
    <path clip-path="url(#p2638728bf8)" d="M 218.928125 603.592875 
L 222.528125 603.592875 
L 222.528125 603.592875 
L 218.928125 603.592875 
z
" style="fill:#1f77b4;"/>
   </g>
   <g id="patch_40">
    <path clip-path="url(#p2638728bf8)" d="M 222.528125 603.592875 
L 226.128125 603.592875 
L 226.128125 603.592875 
L 222.528125 603.592875 
z
" style="fill:#1f77b4;"/>
   </g>
   <g id="patch_41">
    <path clip-path="url(#p2638728bf8)" d="M 226.128125 603.592875 
L 229.728125 603.592875 
L 229.728125 603.592875 
L 226.128125 603.592875 
z
" style="fill:#1f77b4;"/>
   </g>
   <g id="patch_42">
    <path clip-path="url(#p2638728bf8)" d="M 229.728125 603.592875 
L 233.328125 603.592875 
L 233.328125 603.592875 
L 229.728125 603.592875 
z
" style="fill:#1f77b4;"/>
   </g>
   <g id="patch_43">
    <path clip-path="url(#p2638728bf8)" d="M 233.328125 603.592875 
L 236.928125 603.592875 
L 236.928125 603.592875 
L 233.328125 603.592875 
z
" style="fill:#1f77b4;"/>
   </g>
   <g id="patch_44">
    <path clip-path="url(#p2638728bf8)" d="M 236.928125 603.592875 
L 240.528125 603.592875 
L 240.528125 603.592875 
L 236.928125 603.592875 
z
" style="fill:#1f77b4;"/>
   </g>
   <g id="patch_45">
    <path clip-path="url(#p2638728bf8)" d="M 240.528125 603.592875 
L 244.128125 603.592875 
L 244.128125 603.592875 
L 240.528125 603.592875 
z
" style="fill:#1f77b4;"/>
   </g>
   <g id="patch_46">
    <path clip-path="url(#p2638728bf8)" d="M 244.128125 603.592875 
L 247.728125 603.592875 
L 247.728125 603.592875 
L 244.128125 603.592875 
z
" style="fill:#1f77b4;"/>
   </g>
   <g id="patch_47">
    <path clip-path="url(#p2638728bf8)" d="M 247.728125 603.592875 
L 251.328125 603.592875 
L 251.328125 603.592875 
L 247.728125 603.592875 
z
" style="fill:#1f77b4;"/>
   </g>
   <g id="patch_48">
    <path clip-path="url(#p2638728bf8)" d="M 251.328125 603.592875 
L 254.928125 603.592875 
L 254.928125 603.592875 
L 251.328125 603.592875 
z
" style="fill:#1f77b4;"/>
   </g>
   <g id="patch_49">
    <path clip-path="url(#p2638728bf8)" d="M 254.928125 603.592875 
L 258.528125 603.592875 
L 258.528125 603.592875 
L 254.928125 603.592875 
z
" style="fill:#1f77b4;"/>
   </g>
   <g id="patch_50">
    <path clip-path="url(#p2638728bf8)" d="M 258.528125 603.592875 
L 262.128125 603.592875 
L 262.128125 603.592875 
L 258.528125 603.592875 
z
" style="fill:#1f77b4;"/>
   </g>
   <g id="patch_51">
    <path clip-path="url(#p2638728bf8)" d="M 262.128125 603.592875 
L 265.728125 603.592875 
L 265.728125 603.592875 
L 262.128125 603.592875 
z
" style="fill:#1f77b4;"/>
   </g>
   <g id="patch_52">
    <path clip-path="url(#p2638728bf8)" d="M 265.728125 603.592875 
L 269.328125 603.592875 
L 269.328125 603.592875 
L 265.728125 603.592875 
z
" style="fill:#1f77b4;"/>
   </g>
   <g id="patch_53">
    <path clip-path="url(#p2638728bf8)" d="M 269.328125 603.592875 
L 272.928125 603.592875 
L 272.928125 603.592875 
L 269.328125 603.592875 
z
" style="fill:#1f77b4;"/>
   </g>
   <g id="patch_54">
    <path clip-path="url(#p2638728bf8)" d="M 272.928125 603.592875 
L 276.528125 603.592875 
L 276.528125 603.592875 
L 272.928125 603.592875 
z
" style="fill:#1f77b4;"/>
   </g>
   <g id="patch_55">
    <path clip-path="url(#p2638728bf8)" d="M 276.528125 603.592875 
L 280.128125 603.592875 
L 280.128125 603.592875 
L 276.528125 603.592875 
z
" style="fill:#1f77b4;"/>
   </g>
   <g id="patch_56">
    <path clip-path="url(#p2638728bf8)" d="M 280.128125 603.592875 
L 283.728125 603.592875 
L 283.728125 603.592875 
L 280.128125 603.592875 
z
" style="fill:#1f77b4;"/>
   </g>
   <g id="patch_57">
    <path clip-path="url(#p2638728bf8)" d="M 283.728125 603.592875 
L 287.328125 603.592875 
L 287.328125 603.592875 
L 283.728125 603.592875 
z
" style="fill:#1f77b4;"/>
   </g>
   <g id="patch_58">
    <path clip-path="url(#p2638728bf8)" d="M 287.328125 603.592875 
L 290.928125 603.592875 
L 290.928125 603.592875 
L 287.328125 603.592875 
z
" style="fill:#1f77b4;"/>
   </g>
   <g id="patch_59">
    <path clip-path="url(#p2638728bf8)" d="M 290.928125 603.592875 
L 294.528125 603.592875 
L 294.528125 603.592875 
L 290.928125 603.592875 
z
" style="fill:#1f77b4;"/>
   </g>
   <g id="patch_60">
    <path clip-path="url(#p2638728bf8)" d="M 294.528125 603.592875 
L 298.128125 603.592875 
L 298.128125 603.592875 
L 294.528125 603.592875 
z
" style="fill:#1f77b4;"/>
   </g>
   <g id="patch_61">
    <path clip-path="url(#p2638728bf8)" d="M 298.128125 603.592875 
L 301.728125 603.592875 
L 301.728125 603.592875 
L 298.128125 603.592875 
z
" style="fill:#1f77b4;"/>
   </g>
   <g id="patch_62">
    <path clip-path="url(#p2638728bf8)" d="M 301.728125 603.592875 
L 305.328125 603.592875 
L 305.328125 603.592875 
L 301.728125 603.592875 
z
" style="fill:#1f77b4;"/>
   </g>
   <g id="patch_63">
    <path clip-path="url(#p2638728bf8)" d="M 305.328125 603.592875 
L 308.928125 603.592875 
L 308.928125 603.592875 
L 305.328125 603.592875 
z
" style="fill:#1f77b4;"/>
   </g>
   <g id="patch_64">
    <path clip-path="url(#p2638728bf8)" d="M 308.928125 603.592875 
L 312.528125 603.592875 
L 312.528125 603.592875 
L 308.928125 603.592875 
z
" style="fill:#1f77b4;"/>
   </g>
   <g id="patch_65">
    <path clip-path="url(#p2638728bf8)" d="M 312.528125 603.592875 
L 316.128125 603.592875 
L 316.128125 603.592875 
L 312.528125 603.592875 
z
" style="fill:#1f77b4;"/>
   </g>
   <g id="patch_66">
    <path clip-path="url(#p2638728bf8)" d="M 316.128125 603.592875 
L 319.728125 603.592875 
L 319.728125 603.592875 
L 316.128125 603.592875 
z
" style="fill:#1f77b4;"/>
   </g>
   <g id="patch_67">
    <path clip-path="url(#p2638728bf8)" d="M 319.728125 603.592875 
L 323.328125 603.592875 
L 323.328125 603.592875 
L 319.728125 603.592875 
z
" style="fill:#1f77b4;"/>
   </g>
   <g id="patch_68">
    <path clip-path="url(#p2638728bf8)" d="M 323.328125 603.592875 
L 326.928125 603.592875 
L 326.928125 603.592875 
L 323.328125 603.592875 
z
" style="fill:#1f77b4;"/>
   </g>
   <g id="patch_69">
    <path clip-path="url(#p2638728bf8)" d="M 326.928125 603.592875 
L 330.528125 603.592875 
L 330.528125 603.592875 
L 326.928125 603.592875 
z
" style="fill:#1f77b4;"/>
   </g>
   <g id="patch_70">
    <path clip-path="url(#p2638728bf8)" d="M 330.528125 603.592875 
L 334.128125 603.592875 
L 334.128125 603.592875 
L 330.528125 603.592875 
z
" style="fill:#1f77b4;"/>
   </g>
   <g id="patch_71">
    <path clip-path="url(#p2638728bf8)" d="M 334.128125 603.592875 
L 337.728125 603.592875 
L 337.728125 603.592875 
L 334.128125 603.592875 
z
" style="fill:#1f77b4;"/>
   </g>
   <g id="patch_72">
    <path clip-path="url(#p2638728bf8)" d="M 337.728125 603.592875 
L 341.328125 603.592875 
L 341.328125 603.592875 
L 337.728125 603.592875 
z
" style="fill:#1f77b4;"/>
   </g>
   <g id="patch_73">
    <path clip-path="url(#p2638728bf8)" d="M 341.328125 603.592875 
L 344.928125 603.592875 
L 344.928125 603.592875 
L 341.328125 603.592875 
z
" style="fill:#1f77b4;"/>
   </g>
   <g id="patch_74">
    <path clip-path="url(#p2638728bf8)" d="M 344.928125 603.592875 
L 348.528125 603.592875 
L 348.528125 603.592875 
L 344.928125 603.592875 
z
" style="fill:#1f77b4;"/>
   </g>
   <g id="patch_75">
    <path clip-path="url(#p2638728bf8)" d="M 348.528125 603.592875 
L 352.128125 603.592875 
L 352.128125 603.592875 
L 348.528125 603.592875 
z
" style="fill:#1f77b4;"/>
   </g>
   <g id="patch_76">
    <path clip-path="url(#p2638728bf8)" d="M 352.128125 603.592875 
L 355.728125 603.592875 
L 355.728125 603.592875 
L 352.128125 603.592875 
z
" style="fill:#1f77b4;"/>
   </g>
   <g id="patch_77">
    <path clip-path="url(#p2638728bf8)" d="M 355.728125 603.592875 
L 359.328125 603.592875 
L 359.328125 603.592875 
L 355.728125 603.592875 
z
" style="fill:#1f77b4;"/>
   </g>
   <g id="patch_78">
    <path clip-path="url(#p2638728bf8)" d="M 359.328125 603.592875 
L 362.928125 603.592875 
L 362.928125 603.592875 
L 359.328125 603.592875 
z
" style="fill:#1f77b4;"/>
   </g>
   <g id="patch_79">
    <path clip-path="url(#p2638728bf8)" d="M 362.928125 603.592875 
L 366.528125 603.592875 
L 366.528125 603.592875 
L 362.928125 603.592875 
z
" style="fill:#1f77b4;"/>
   </g>
   <g id="patch_80">
    <path clip-path="url(#p2638728bf8)" d="M 366.528125 603.592875 
L 370.128125 603.592875 
L 370.128125 603.592875 
L 366.528125 603.592875 
z
" style="fill:#1f77b4;"/>
   </g>
   <g id="patch_81">
    <path clip-path="url(#p2638728bf8)" d="M 370.128125 603.592875 
L 373.728125 603.592875 
L 373.728125 603.592875 
L 370.128125 603.592875 
z
" style="fill:#1f77b4;"/>
   </g>
   <g id="patch_82">
    <path clip-path="url(#p2638728bf8)" d="M 373.728125 603.592875 
L 377.328125 603.592875 
L 377.328125 603.592875 
L 373.728125 603.592875 
z
" style="fill:#1f77b4;"/>
   </g>
   <g id="patch_83">
    <path clip-path="url(#p2638728bf8)" d="M 377.328125 603.592875 
L 380.928125 603.592875 
L 380.928125 603.592875 
L 377.328125 603.592875 
z
" style="fill:#1f77b4;"/>
   </g>
   <g id="patch_84">
    <path clip-path="url(#p2638728bf8)" d="M 380.928125 603.592875 
L 384.528125 603.592875 
L 384.528125 603.592875 
L 380.928125 603.592875 
z
" style="fill:#1f77b4;"/>
   </g>
   <g id="patch_85">
    <path clip-path="url(#p2638728bf8)" d="M 384.528125 603.592875 
L 388.128125 603.592875 
L 388.128125 603.592875 
L 384.528125 603.592875 
z
" style="fill:#1f77b4;"/>
   </g>
   <g id="patch_86">
    <path clip-path="url(#p2638728bf8)" d="M 388.128125 603.592875 
L 391.728125 603.592875 
L 391.728125 603.592875 
L 388.128125 603.592875 
z
" style="fill:#1f77b4;"/>
   </g>
   <g id="patch_87">
    <path clip-path="url(#p2638728bf8)" d="M 391.728125 603.592875 
L 395.328125 603.592875 
L 395.328125 603.592875 
L 391.728125 603.592875 
z
" style="fill:#1f77b4;"/>
   </g>
   <g id="patch_88">
    <path clip-path="url(#p2638728bf8)" d="M 395.328125 603.592875 
L 398.928125 603.592875 
L 398.928125 603.592875 
L 395.328125 603.592875 
z
" style="fill:#1f77b4;"/>
   </g>
   <g id="patch_89">
    <path clip-path="url(#p2638728bf8)" d="M 398.928125 603.592875 
L 402.528125 603.592875 
L 402.528125 603.592875 
L 398.928125 603.592875 
z
" style="fill:#1f77b4;"/>
   </g>
   <g id="patch_90">
    <path clip-path="url(#p2638728bf8)" d="M 402.528125 603.592875 
L 406.128125 603.592875 
L 406.128125 603.592875 
L 402.528125 603.592875 
z
" style="fill:#1f77b4;"/>
   </g>
   <g id="patch_91">
    <path clip-path="url(#p2638728bf8)" d="M 406.128125 603.592875 
L 409.728125 603.592875 
L 409.728125 603.592875 
L 406.128125 603.592875 
z
" style="fill:#1f77b4;"/>
   </g>
   <g id="patch_92">
    <path clip-path="url(#p2638728bf8)" d="M 409.728125 603.592875 
L 413.328125 603.592875 
L 413.328125 603.592875 
L 409.728125 603.592875 
z
" style="fill:#1f77b4;"/>
   </g>
   <g id="patch_93">
    <path clip-path="url(#p2638728bf8)" d="M 413.328125 603.592875 
L 416.928125 603.592875 
L 416.928125 603.592875 
L 413.328125 603.592875 
z
" style="fill:#1f77b4;"/>
   </g>
   <g id="patch_94">
    <path clip-path="url(#p2638728bf8)" d="M 416.928125 603.592875 
L 420.528125 603.592875 
L 420.528125 603.592875 
L 416.928125 603.592875 
z
" style="fill:#1f77b4;"/>
   </g>
   <g id="patch_95">
    <path clip-path="url(#p2638728bf8)" d="M 420.528125 603.592875 
L 424.128125 603.592875 
L 424.128125 603.592875 
L 420.528125 603.592875 
z
" style="fill:#1f77b4;"/>
   </g>
   <g id="patch_96">
    <path clip-path="url(#p2638728bf8)" d="M 424.128125 603.592875 
L 427.728125 603.592875 
L 427.728125 603.592875 
L 424.128125 603.592875 
z
" style="fill:#1f77b4;"/>
   </g>
   <g id="patch_97">
    <path clip-path="url(#p2638728bf8)" d="M 427.728125 603.592875 
L 431.328125 603.592875 
L 431.328125 603.592875 
L 427.728125 603.592875 
z
" style="fill:#1f77b4;"/>
   </g>
   <g id="patch_98">
    <path clip-path="url(#p2638728bf8)" d="M 431.328125 603.592875 
L 434.928125 603.592875 
L 434.928125 603.592875 
L 431.328125 603.592875 
z
" style="fill:#1f77b4;"/>
   </g>
   <g id="patch_99">
    <path clip-path="url(#p2638728bf8)" d="M 434.928125 603.592875 
L 438.528125 603.592875 
L 438.528125 603.592875 
L 434.928125 603.592875 
z
" style="fill:#1f77b4;"/>
   </g>
   <g id="patch_100">
    <path clip-path="url(#p2638728bf8)" d="M 438.528125 603.592875 
L 442.128125 603.592875 
L 442.128125 603.592875 
L 438.528125 603.592875 
z
" style="fill:#1f77b4;"/>
   </g>
   <g id="patch_101">
    <path clip-path="url(#p2638728bf8)" d="M 442.128125 603.592875 
L 445.728125 603.592875 
L 445.728125 603.592875 
L 442.128125 603.592875 
z
" style="fill:#1f77b4;"/>
   </g>
   <g id="patch_102">
    <path clip-path="url(#p2638728bf8)" d="M 445.728125 603.592875 
L 449.328125 603.592875 
L 449.328125 603.592875 
L 445.728125 603.592875 
z
" style="fill:#1f77b4;"/>
   </g>
   <g id="patch_103">
    <path clip-path="url(#p2638728bf8)" d="M 449.328125 603.592875 
L 452.928125 603.592875 
L 452.928125 603.592875 
L 449.328125 603.592875 
z
" style="fill:#1f77b4;"/>
   </g>
   <g id="patch_104">
    <path clip-path="url(#p2638728bf8)" d="M 452.928125 603.592875 
L 456.528125 603.592875 
L 456.528125 603.592875 
L 452.928125 603.592875 
z
" style="fill:#1f77b4;"/>
   </g>
   <g id="patch_105">
    <path clip-path="url(#p2638728bf8)" d="M 456.528125 603.592875 
L 460.128125 603.592875 
L 460.128125 603.592875 
L 456.528125 603.592875 
z
" style="fill:#1f77b4;"/>
   </g>
   <g id="patch_106">
    <path clip-path="url(#p2638728bf8)" d="M 460.128125 603.592875 
L 463.728125 603.592875 
L 463.728125 603.592875 
L 460.128125 603.592875 
z
" style="fill:#1f77b4;"/>
   </g>
   <g id="patch_107">
    <path clip-path="url(#p2638728bf8)" d="M 463.728125 603.592875 
L 467.328125 603.592875 
L 467.328125 603.592875 
L 463.728125 603.592875 
z
" style="fill:#1f77b4;"/>
   </g>
   <g id="patch_108">
    <path clip-path="url(#p2638728bf8)" d="M 467.328125 603.592875 
L 470.928125 603.592875 
L 470.928125 603.592875 
L 467.328125 603.592875 
z
" style="fill:#1f77b4;"/>
   </g>
   <g id="patch_109">
    <path clip-path="url(#p2638728bf8)" d="M 470.928125 603.592875 
L 474.528125 603.592875 
L 474.528125 603.592875 
L 470.928125 603.592875 
z
" style="fill:#1f77b4;"/>
   </g>
   <g id="patch_110">
    <path clip-path="url(#p2638728bf8)" d="M 474.528125 603.592875 
L 478.128125 603.592875 
L 478.128125 603.592875 
L 474.528125 603.592875 
z
" style="fill:#1f77b4;"/>
   </g>
   <g id="patch_111">
    <path clip-path="url(#p2638728bf8)" d="M 478.128125 603.592875 
L 481.728125 603.592875 
L 481.728125 603.592875 
L 478.128125 603.592875 
z
" style="fill:#1f77b4;"/>
   </g>
   <g id="patch_112">
    <path clip-path="url(#p2638728bf8)" d="M 481.728125 603.592875 
L 485.328125 603.592875 
L 485.328125 603.592875 
L 481.728125 603.592875 
z
" style="fill:#1f77b4;"/>
   </g>
   <g id="patch_113">
    <path clip-path="url(#p2638728bf8)" d="M 485.328125 603.592875 
L 488.928125 603.592875 
L 488.928125 603.592875 
L 485.328125 603.592875 
z
" style="fill:#1f77b4;"/>
   </g>
   <g id="patch_114">
    <path clip-path="url(#p2638728bf8)" d="M 488.928125 603.592875 
L 492.528125 603.592875 
L 492.528125 603.592875 
L 488.928125 603.592875 
z
" style="fill:#1f77b4;"/>
   </g>
   <g id="patch_115">
    <path clip-path="url(#p2638728bf8)" d="M 492.528125 603.592875 
L 496.128125 603.592875 
L 496.128125 603.592875 
L 492.528125 603.592875 
z
" style="fill:#1f77b4;"/>
   </g>
   <g id="patch_116">
    <path clip-path="url(#p2638728bf8)" d="M 496.128125 603.592875 
L 499.728125 603.592875 
L 499.728125 603.592875 
L 496.128125 603.592875 
z
" style="fill:#1f77b4;"/>
   </g>
   <g id="patch_117">
    <path clip-path="url(#p2638728bf8)" d="M 499.728125 603.592875 
L 503.328125 603.592875 
L 503.328125 603.592875 
L 499.728125 603.592875 
z
" style="fill:#1f77b4;"/>
   </g>
   <g id="patch_118">
    <path clip-path="url(#p2638728bf8)" d="M 503.328125 603.592875 
L 506.928125 603.592875 
L 506.928125 603.592875 
L 503.328125 603.592875 
z
" style="fill:#1f77b4;"/>
   </g>
   <g id="patch_119">
    <path clip-path="url(#p2638728bf8)" d="M 506.928125 603.592875 
L 510.528125 603.592875 
L 510.528125 603.592875 
L 506.928125 603.592875 
z
" style="fill:#1f77b4;"/>
   </g>
   <g id="patch_120">
    <path clip-path="url(#p2638728bf8)" d="M 510.528125 603.592875 
L 514.128125 603.592875 
L 514.128125 603.592875 
L 510.528125 603.592875 
z
" style="fill:#1f77b4;"/>
   </g>
   <g id="patch_121">
    <path clip-path="url(#p2638728bf8)" d="M 514.128125 603.592875 
L 517.728125 603.592875 
L 517.728125 603.592875 
L 514.128125 603.592875 
z
" style="fill:#1f77b4;"/>
   </g>
   <g id="patch_122">
    <path clip-path="url(#p2638728bf8)" d="M 517.728125 603.592875 
L 521.328125 603.592875 
L 521.328125 603.592875 
L 517.728125 603.592875 
z
" style="fill:#1f77b4;"/>
   </g>
   <g id="patch_123">
    <path clip-path="url(#p2638728bf8)" d="M 521.328125 603.592875 
L 524.928125 603.592875 
L 524.928125 603.592875 
L 521.328125 603.592875 
z
" style="fill:#1f77b4;"/>
   </g>
   <g id="patch_124">
    <path clip-path="url(#p2638728bf8)" d="M 524.928125 603.592875 
L 528.528125 603.592875 
L 528.528125 603.592875 
L 524.928125 603.592875 
z
" style="fill:#1f77b4;"/>
   </g>
   <g id="patch_125">
    <path clip-path="url(#p2638728bf8)" d="M 528.528125 603.592875 
L 532.128125 603.592875 
L 532.128125 603.592875 
L 528.528125 603.592875 
z
" style="fill:#1f77b4;"/>
   </g>
   <g id="patch_126">
    <path clip-path="url(#p2638728bf8)" d="M 532.128125 603.592875 
L 535.728125 603.592875 
L 535.728125 603.592875 
L 532.128125 603.592875 
z
" style="fill:#1f77b4;"/>
   </g>
   <g id="patch_127">
    <path clip-path="url(#p2638728bf8)" d="M 535.728125 603.592875 
L 539.328125 603.592875 
L 539.328125 603.592875 
L 535.728125 603.592875 
z
" style="fill:#1f77b4;"/>
   </g>
   <g id="patch_128">
    <path clip-path="url(#p2638728bf8)" d="M 539.328125 603.592875 
L 542.928125 603.592875 
L 542.928125 603.592875 
L 539.328125 603.592875 
z
" style="fill:#1f77b4;"/>
   </g>
   <g id="patch_129">
    <path clip-path="url(#p2638728bf8)" d="M 542.928125 603.592875 
L 546.528125 603.592875 
L 546.528125 603.592875 
L 542.928125 603.592875 
z
" style="fill:#1f77b4;"/>
   </g>
   <g id="patch_130">
    <path clip-path="url(#p2638728bf8)" d="M 546.528125 603.592875 
L 550.128125 603.592875 
L 550.128125 603.592875 
L 546.528125 603.592875 
z
" style="fill:#1f77b4;"/>
   </g>
   <g id="patch_131">
    <path clip-path="url(#p2638728bf8)" d="M 550.128125 603.592875 
L 553.728125 603.592875 
L 553.728125 603.592875 
L 550.128125 603.592875 
z
" style="fill:#1f77b4;"/>
   </g>
   <g id="patch_132">
    <path clip-path="url(#p2638728bf8)" d="M 553.728125 603.592875 
L 557.328125 603.592875 
L 557.328125 603.592875 
L 553.728125 603.592875 
z
" style="fill:#1f77b4;"/>
   </g>
   <g id="patch_133">
    <path clip-path="url(#p2638728bf8)" d="M 557.328125 603.592875 
L 560.928125 603.592875 
L 560.928125 603.592875 
L 557.328125 603.592875 
z
" style="fill:#1f77b4;"/>
   </g>
   <g id="patch_134">
    <path clip-path="url(#p2638728bf8)" d="M 560.928125 603.592875 
L 564.528125 603.592875 
L 564.528125 603.592875 
L 560.928125 603.592875 
z
" style="fill:#1f77b4;"/>
   </g>
   <g id="patch_135">
    <path clip-path="url(#p2638728bf8)" d="M 564.528125 603.592875 
L 568.128125 603.592875 
L 568.128125 603.592875 
L 564.528125 603.592875 
z
" style="fill:#1f77b4;"/>
   </g>
   <g id="patch_136">
    <path clip-path="url(#p2638728bf8)" d="M 568.128125 603.592875 
L 571.728125 603.592875 
L 571.728125 603.592875 
L 568.128125 603.592875 
z
" style="fill:#1f77b4;"/>
   </g>
   <g id="patch_137">
    <path clip-path="url(#p2638728bf8)" d="M 571.728125 603.592875 
L 575.328125 603.592875 
L 575.328125 603.592875 
L 571.728125 603.592875 
z
" style="fill:#1f77b4;"/>
   </g>
   <g id="patch_138">
    <path clip-path="url(#p2638728bf8)" d="M 575.328125 603.592875 
L 578.928125 603.592875 
L 578.928125 603.592875 
L 575.328125 603.592875 
z
" style="fill:#1f77b4;"/>
   </g>
   <g id="patch_139">
    <path clip-path="url(#p2638728bf8)" d="M 578.928125 603.592875 
L 582.528125 603.592875 
L 582.528125 603.592875 
L 578.928125 603.592875 
z
" style="fill:#1f77b4;"/>
   </g>
   <g id="patch_140">
    <path clip-path="url(#p2638728bf8)" d="M 582.528125 603.592875 
L 586.128125 603.592875 
L 586.128125 603.592875 
L 582.528125 603.592875 
z
" style="fill:#1f77b4;"/>
   </g>
   <g id="patch_141">
    <path clip-path="url(#p2638728bf8)" d="M 586.128125 603.592875 
L 589.728125 603.592875 
L 589.728125 603.592875 
L 586.128125 603.592875 
z
" style="fill:#1f77b4;"/>
   </g>
   <g id="patch_142">
    <path clip-path="url(#p2638728bf8)" d="M 589.728125 603.592875 
L 593.328125 603.592875 
L 593.328125 603.592875 
L 589.728125 603.592875 
z
" style="fill:#1f77b4;"/>
   </g>
   <g id="patch_143">
    <path clip-path="url(#p2638728bf8)" d="M 593.328125 603.592875 
L 596.928125 603.592875 
L 596.928125 603.592875 
L 593.328125 603.592875 
z
" style="fill:#1f77b4;"/>
   </g>
   <g id="patch_144">
    <path clip-path="url(#p2638728bf8)" d="M 596.928125 603.592875 
L 600.528125 603.592875 
L 600.528125 603.592875 
L 596.928125 603.592875 
z
" style="fill:#1f77b4;"/>
   </g>
   <g id="patch_145">
    <path clip-path="url(#p2638728bf8)" d="M 600.528125 603.592875 
L 604.128125 603.592875 
L 604.128125 603.592875 
L 600.528125 603.592875 
z
" style="fill:#1f77b4;"/>
   </g>
   <g id="patch_146">
    <path clip-path="url(#p2638728bf8)" d="M 604.128125 603.592875 
L 607.728125 603.592875 
L 607.728125 603.592875 
L 604.128125 603.592875 
z
" style="fill:#1f77b4;"/>
   </g>
   <g id="patch_147">
    <path clip-path="url(#p2638728bf8)" d="M 607.728125 603.592875 
L 611.328125 603.592875 
L 611.328125 603.592875 
L 607.728125 603.592875 
z
" style="fill:#1f77b4;"/>
   </g>
   <g id="patch_148">
    <path clip-path="url(#p2638728bf8)" d="M 611.328125 603.592875 
L 614.928125 603.592875 
L 614.928125 603.592875 
L 611.328125 603.592875 
z
" style="fill:#1f77b4;"/>
   </g>
   <g id="patch_149">
    <path clip-path="url(#p2638728bf8)" d="M 614.928125 603.592875 
L 618.528125 603.592875 
L 618.528125 603.592875 
L 614.928125 603.592875 
z
" style="fill:#1f77b4;"/>
   </g>
   <g id="patch_150">
    <path clip-path="url(#p2638728bf8)" d="M 618.528125 603.592875 
L 622.128125 603.592875 
L 622.128125 603.592875 
L 618.528125 603.592875 
z
" style="fill:#1f77b4;"/>
   </g>
   <g id="patch_151">
    <path clip-path="url(#p2638728bf8)" d="M 622.128125 603.592875 
L 625.728125 603.592875 
L 625.728125 603.592875 
L 622.128125 603.592875 
z
" style="fill:#1f77b4;"/>
   </g>
   <g id="patch_152">
    <path clip-path="url(#p2638728bf8)" d="M 625.728125 603.592875 
L 629.328125 603.592875 
L 629.328125 603.592875 
L 625.728125 603.592875 
z
" style="fill:#1f77b4;"/>
   </g>
   <g id="patch_153">
    <path clip-path="url(#p2638728bf8)" d="M 629.328125 603.592875 
L 632.928125 603.592875 
L 632.928125 603.592875 
L 629.328125 603.592875 
z
" style="fill:#1f77b4;"/>
   </g>
   <g id="patch_154">
    <path clip-path="url(#p2638728bf8)" d="M 632.928125 603.592875 
L 636.528125 603.592875 
L 636.528125 603.592875 
L 632.928125 603.592875 
z
" style="fill:#1f77b4;"/>
   </g>
   <g id="patch_155">
    <path clip-path="url(#p2638728bf8)" d="M 636.528125 603.592875 
L 640.128125 603.592875 
L 640.128125 603.592875 
L 636.528125 603.592875 
z
" style="fill:#1f77b4;"/>
   </g>
   <g id="patch_156">
    <path clip-path="url(#p2638728bf8)" d="M 640.128125 603.592875 
L 643.728125 603.592875 
L 643.728125 603.592875 
L 640.128125 603.592875 
z
" style="fill:#1f77b4;"/>
   </g>
   <g id="patch_157">
    <path clip-path="url(#p2638728bf8)" d="M 643.728125 603.592875 
L 647.328125 603.592875 
L 647.328125 603.592875 
L 643.728125 603.592875 
z
" style="fill:#1f77b4;"/>
   </g>
   <g id="patch_158">
    <path clip-path="url(#p2638728bf8)" d="M 647.328125 603.592875 
L 650.928125 603.592875 
L 650.928125 603.592875 
L 647.328125 603.592875 
z
" style="fill:#1f77b4;"/>
   </g>
   <g id="patch_159">
    <path clip-path="url(#p2638728bf8)" d="M 650.928125 603.592875 
L 654.528125 603.592875 
L 654.528125 603.592875 
L 650.928125 603.592875 
z
" style="fill:#1f77b4;"/>
   </g>
   <g id="patch_160">
    <path clip-path="url(#p2638728bf8)" d="M 654.528125 603.592875 
L 658.128125 603.592875 
L 658.128125 603.592875 
L 654.528125 603.592875 
z
" style="fill:#1f77b4;"/>
   </g>
   <g id="patch_161">
    <path clip-path="url(#p2638728bf8)" d="M 658.128125 603.592875 
L 661.728125 603.592875 
L 661.728125 603.592875 
L 658.128125 603.592875 
z
" style="fill:#1f77b4;"/>
   </g>
   <g id="patch_162">
    <path clip-path="url(#p2638728bf8)" d="M 661.728125 603.592875 
L 665.328125 603.592875 
L 665.328125 603.592875 
L 661.728125 603.592875 
z
" style="fill:#1f77b4;"/>
   </g>
   <g id="patch_163">
    <path clip-path="url(#p2638728bf8)" d="M 665.328125 603.592875 
L 668.928125 603.592875 
L 668.928125 603.592875 
L 665.328125 603.592875 
z
" style="fill:#1f77b4;"/>
   </g>
   <g id="patch_164">
    <path clip-path="url(#p2638728bf8)" d="M 668.928125 603.592875 
L 672.528125 603.592875 
L 672.528125 603.592875 
L 668.928125 603.592875 
z
" style="fill:#1f77b4;"/>
   </g>
   <g id="patch_165">
    <path clip-path="url(#p2638728bf8)" d="M 672.528125 603.592875 
L 676.128125 603.592875 
L 676.128125 603.592875 
L 672.528125 603.592875 
z
" style="fill:#1f77b4;"/>
   </g>
   <g id="patch_166">
    <path clip-path="url(#p2638728bf8)" d="M 676.128125 603.592875 
L 679.728125 603.592875 
L 679.728125 603.592875 
L 676.128125 603.592875 
z
" style="fill:#1f77b4;"/>
   </g>
   <g id="patch_167">
    <path clip-path="url(#p2638728bf8)" d="M 679.728125 603.592875 
L 683.328125 603.592875 
L 683.328125 603.592875 
L 679.728125 603.592875 
z
" style="fill:#1f77b4;"/>
   </g>
   <g id="patch_168">
    <path clip-path="url(#p2638728bf8)" d="M 683.328125 603.592875 
L 686.928125 603.592875 
L 686.928125 603.592875 
L 683.328125 603.592875 
z
" style="fill:#1f77b4;"/>
   </g>
   <g id="patch_169">
    <path clip-path="url(#p2638728bf8)" d="M 686.928125 603.592875 
L 690.528125 603.592875 
L 690.528125 603.592875 
L 686.928125 603.592875 
z
" style="fill:#1f77b4;"/>
   </g>
   <g id="patch_170">
    <path clip-path="url(#p2638728bf8)" d="M 690.528125 603.592875 
L 694.128125 603.592875 
L 694.128125 603.592875 
L 690.528125 603.592875 
z
" style="fill:#1f77b4;"/>
   </g>
   <g id="patch_171">
    <path clip-path="url(#p2638728bf8)" d="M 694.128125 603.592875 
L 697.728125 603.592875 
L 697.728125 603.592875 
L 694.128125 603.592875 
z
" style="fill:#1f77b4;"/>
   </g>
   <g id="patch_172">
    <path clip-path="url(#p2638728bf8)" d="M 697.728125 603.592875 
L 701.328125 603.592875 
L 701.328125 603.592875 
L 697.728125 603.592875 
z
" style="fill:#1f77b4;"/>
   </g>
   <g id="patch_173">
    <path clip-path="url(#p2638728bf8)" d="M 701.328125 603.592875 
L 704.928125 603.592875 
L 704.928125 603.592875 
L 701.328125 603.592875 
z
" style="fill:#1f77b4;"/>
   </g>
   <g id="patch_174">
    <path clip-path="url(#p2638728bf8)" d="M 704.928125 603.592875 
L 708.528125 603.592875 
L 708.528125 603.592875 
L 704.928125 603.592875 
z
" style="fill:#1f77b4;"/>
   </g>
   <g id="patch_175">
    <path clip-path="url(#p2638728bf8)" d="M 708.528125 603.592875 
L 712.128125 603.592875 
L 712.128125 603.592875 
L 708.528125 603.592875 
z
" style="fill:#1f77b4;"/>
   </g>
   <g id="patch_176">
    <path clip-path="url(#p2638728bf8)" d="M 712.128125 603.592875 
L 715.728125 603.592875 
L 715.728125 603.592875 
L 712.128125 603.592875 
z
" style="fill:#1f77b4;"/>
   </g>
   <g id="patch_177">
    <path clip-path="url(#p2638728bf8)" d="M 715.728125 603.592875 
L 719.328125 603.592875 
L 719.328125 603.592875 
L 715.728125 603.592875 
z
" style="fill:#1f77b4;"/>
   </g>
   <g id="patch_178">
    <path clip-path="url(#p2638728bf8)" d="M 719.328125 603.592875 
L 722.928125 603.592875 
L 722.928125 603.592875 
L 719.328125 603.592875 
z
" style="fill:#1f77b4;"/>
   </g>
   <g id="patch_179">
    <path clip-path="url(#p2638728bf8)" d="M 722.928125 603.592875 
L 726.528125 603.592875 
L 726.528125 603.592875 
L 722.928125 603.592875 
z
" style="fill:#1f77b4;"/>
   </g>
   <g id="patch_180">
    <path clip-path="url(#p2638728bf8)" d="M 726.528125 603.592875 
L 730.128125 603.592875 
L 730.128125 603.592875 
L 726.528125 603.592875 
z
" style="fill:#1f77b4;"/>
   </g>
   <g id="patch_181">
    <path clip-path="url(#p2638728bf8)" d="M 730.128125 603.592875 
L 733.728125 603.592875 
L 733.728125 603.592875 
L 730.128125 603.592875 
z
" style="fill:#1f77b4;"/>
   </g>
   <g id="patch_182">
    <path clip-path="url(#p2638728bf8)" d="M 733.728125 603.592875 
L 737.328125 603.592875 
L 737.328125 603.592875 
L 733.728125 603.592875 
z
" style="fill:#1f77b4;"/>
   </g>
   <g id="patch_183">
    <path clip-path="url(#p2638728bf8)" d="M 737.328125 603.592875 
L 740.928125 603.592875 
L 740.928125 603.592875 
L 737.328125 603.592875 
z
" style="fill:#1f77b4;"/>
   </g>
   <g id="patch_184">
    <path clip-path="url(#p2638728bf8)" d="M 740.928125 603.592875 
L 744.528125 603.592875 
L 744.528125 603.592875 
L 740.928125 603.592875 
z
" style="fill:#1f77b4;"/>
   </g>
   <g id="patch_185">
    <path clip-path="url(#p2638728bf8)" d="M 744.528125 603.592875 
L 748.128125 603.592875 
L 748.128125 603.592875 
L 744.528125 603.592875 
z
" style="fill:#1f77b4;"/>
   </g>
   <g id="patch_186">
    <path clip-path="url(#p2638728bf8)" d="M 748.128125 603.592875 
L 751.728125 603.592875 
L 751.728125 603.592875 
L 748.128125 603.592875 
z
" style="fill:#1f77b4;"/>
   </g>
   <g id="patch_187">
    <path clip-path="url(#p2638728bf8)" d="M 751.728125 603.592875 
L 755.328125 603.592875 
L 755.328125 603.592875 
L 751.728125 603.592875 
z
" style="fill:#1f77b4;"/>
   </g>
   <g id="patch_188">
    <path clip-path="url(#p2638728bf8)" d="M 755.328125 603.592875 
L 758.928125 603.592875 
L 758.928125 603.592875 
L 755.328125 603.592875 
z
" style="fill:#1f77b4;"/>
   </g>
   <g id="patch_189">
    <path clip-path="url(#p2638728bf8)" d="M 758.928125 603.592875 
L 762.528125 603.592875 
L 762.528125 603.592875 
L 758.928125 603.592875 
z
" style="fill:#1f77b4;"/>
   </g>
   <g id="patch_190">
    <path clip-path="url(#p2638728bf8)" d="M 762.528125 603.592875 
L 766.128125 603.592875 
L 766.128125 603.592875 
L 762.528125 603.592875 
z
" style="fill:#1f77b4;"/>
   </g>
   <g id="patch_191">
    <path clip-path="url(#p2638728bf8)" d="M 766.128125 603.592875 
L 769.728125 603.592875 
L 769.728125 603.592875 
L 766.128125 603.592875 
z
" style="fill:#1f77b4;"/>
   </g>
   <g id="patch_192">
    <path clip-path="url(#p2638728bf8)" d="M 769.728125 603.592875 
L 773.328125 603.592875 
L 773.328125 603.592875 
L 769.728125 603.592875 
z
" style="fill:#1f77b4;"/>
   </g>
   <g id="patch_193">
    <path clip-path="url(#p2638728bf8)" d="M 773.328125 603.592875 
L 776.928125 603.592875 
L 776.928125 603.592875 
L 773.328125 603.592875 
z
" style="fill:#1f77b4;"/>
   </g>
   <g id="patch_194">
    <path clip-path="url(#p2638728bf8)" d="M 776.928125 603.592875 
L 780.528125 603.592875 
L 780.528125 603.592875 
L 776.928125 603.592875 
z
" style="fill:#1f77b4;"/>
   </g>
   <g id="patch_195">
    <path clip-path="url(#p2638728bf8)" d="M 780.528125 603.592875 
L 784.128125 603.592875 
L 784.128125 603.592875 
L 780.528125 603.592875 
z
" style="fill:#1f77b4;"/>
   </g>
   <g id="patch_196">
    <path clip-path="url(#p2638728bf8)" d="M 784.128125 603.592875 
L 787.728125 603.592875 
L 787.728125 603.592875 
L 784.128125 603.592875 
z
" style="fill:#1f77b4;"/>
   </g>
   <g id="patch_197">
    <path clip-path="url(#p2638728bf8)" d="M 787.728125 603.592875 
L 791.328125 603.592875 
L 791.328125 603.592875 
L 787.728125 603.592875 
z
" style="fill:#1f77b4;"/>
   </g>
   <g id="patch_198">
    <path clip-path="url(#p2638728bf8)" d="M 791.328125 603.592875 
L 794.928125 603.592875 
L 794.928125 603.592875 
L 791.328125 603.592875 
z
" style="fill:#1f77b4;"/>
   </g>
   <g id="patch_199">
    <path clip-path="url(#p2638728bf8)" d="M 794.928125 603.592875 
L 798.528125 603.592875 
L 798.528125 603.592875 
L 794.928125 603.592875 
z
" style="fill:#1f77b4;"/>
   </g>
   <g id="patch_200">
    <path clip-path="url(#p2638728bf8)" d="M 798.528125 603.592875 
L 802.128125 603.592875 
L 802.128125 603.592875 
L 798.528125 603.592875 
z
" style="fill:#1f77b4;"/>
   </g>
   <g id="patch_201">
    <path clip-path="url(#p2638728bf8)" d="M 802.128125 603.592875 
L 805.728125 603.592875 
L 805.728125 603.592875 
L 802.128125 603.592875 
z
" style="fill:#1f77b4;"/>
   </g>
   <g id="patch_202">
    <path clip-path="url(#p2638728bf8)" d="M 805.728125 603.592875 
L 809.328125 603.592875 
L 809.328125 603.592875 
L 805.728125 603.592875 
z
" style="fill:#1f77b4;"/>
   </g>
   <g id="patch_203">
    <path clip-path="url(#p2638728bf8)" d="M 809.328125 603.592875 
L 812.928125 603.592875 
L 812.928125 603.592875 
L 809.328125 603.592875 
z
" style="fill:#1f77b4;"/>
   </g>
   <g id="patch_204">
    <path clip-path="url(#p2638728bf8)" d="M 812.928125 603.592875 
L 816.528125 603.592875 
L 816.528125 603.592875 
L 812.928125 603.592875 
z
" style="fill:#1f77b4;"/>
   </g>
   <g id="patch_205">
    <path clip-path="url(#p2638728bf8)" d="M 816.528125 603.592875 
L 820.128125 603.592875 
L 820.128125 603.592875 
L 816.528125 603.592875 
z
" style="fill:#1f77b4;"/>
   </g>
   <g id="patch_206">
    <path clip-path="url(#p2638728bf8)" d="M 820.128125 603.592875 
L 823.728125 603.592875 
L 823.728125 603.592875 
L 820.128125 603.592875 
z
" style="fill:#1f77b4;"/>
   </g>
   <g id="patch_207">
    <path clip-path="url(#p2638728bf8)" d="M 823.728125 603.592875 
L 827.328125 603.592875 
L 827.328125 603.592875 
L 823.728125 603.592875 
z
" style="fill:#1f77b4;"/>
   </g>
   <g id="patch_208">
    <path clip-path="url(#p2638728bf8)" d="M 827.328125 603.592875 
L 830.928125 603.592875 
L 830.928125 603.592875 
L 827.328125 603.592875 
z
" style="fill:#1f77b4;"/>
   </g>
   <g id="patch_209">
    <path clip-path="url(#p2638728bf8)" d="M 830.928125 603.592875 
L 834.528125 603.592875 
L 834.528125 603.592875 
L 830.928125 603.592875 
z
" style="fill:#1f77b4;"/>
   </g>
   <g id="patch_210">
    <path clip-path="url(#p2638728bf8)" d="M 834.528125 603.592875 
L 838.128125 603.592875 
L 838.128125 603.592875 
L 834.528125 603.592875 
z
" style="fill:#1f77b4;"/>
   </g>
   <g id="patch_211">
    <path clip-path="url(#p2638728bf8)" d="M 838.128125 603.592875 
L 841.728125 603.592875 
L 841.728125 603.592875 
L 838.128125 603.592875 
z
" style="fill:#1f77b4;"/>
   </g>
   <g id="patch_212">
    <path clip-path="url(#p2638728bf8)" d="M 841.728125 603.592875 
L 845.328125 603.592875 
L 845.328125 603.592875 
L 841.728125 603.592875 
z
" style="fill:#1f77b4;"/>
   </g>
   <g id="patch_213">
    <path clip-path="url(#p2638728bf8)" d="M 845.328125 603.592875 
L 848.928125 603.592875 
L 848.928125 603.592875 
L 845.328125 603.592875 
z
" style="fill:#1f77b4;"/>
   </g>
   <g id="patch_214">
    <path clip-path="url(#p2638728bf8)" d="M 848.928125 603.592875 
L 852.528125 603.592875 
L 852.528125 603.592875 
L 848.928125 603.592875 
z
" style="fill:#1f77b4;"/>
   </g>
   <g id="patch_215">
    <path clip-path="url(#p2638728bf8)" d="M 852.528125 603.592875 
L 856.128125 603.592875 
L 856.128125 603.592875 
L 852.528125 603.592875 
z
" style="fill:#1f77b4;"/>
   </g>
   <g id="patch_216">
    <path clip-path="url(#p2638728bf8)" d="M 856.128125 603.592875 
L 859.728125 603.592875 
L 859.728125 603.592875 
L 856.128125 603.592875 
z
" style="fill:#1f77b4;"/>
   </g>
   <g id="patch_217">
    <path clip-path="url(#p2638728bf8)" d="M 859.728125 603.592875 
L 863.328125 603.592875 
L 863.328125 603.592875 
L 859.728125 603.592875 
z
" style="fill:#1f77b4;"/>
   </g>
   <g id="patch_218">
    <path clip-path="url(#p2638728bf8)" d="M 863.328125 603.592875 
L 866.928125 603.592875 
L 866.928125 603.592875 
L 863.328125 603.592875 
z
" style="fill:#1f77b4;"/>
   </g>
   <g id="patch_219">
    <path clip-path="url(#p2638728bf8)" d="M 866.928125 603.592875 
L 870.528125 603.592875 
L 870.528125 603.592875 
L 866.928125 603.592875 
z
" style="fill:#1f77b4;"/>
   </g>
   <g id="patch_220">
    <path clip-path="url(#p2638728bf8)" d="M 870.528125 603.592875 
L 874.128125 603.592875 
L 874.128125 603.592875 
L 870.528125 603.592875 
z
" style="fill:#1f77b4;"/>
   </g>
   <g id="patch_221">
    <path clip-path="url(#p2638728bf8)" d="M 874.128125 603.592875 
L 877.728125 603.592875 
L 877.728125 603.592875 
L 874.128125 603.592875 
z
" style="fill:#1f77b4;"/>
   </g>
   <g id="patch_222">
    <path clip-path="url(#p2638728bf8)" d="M 877.728125 603.592875 
L 881.328125 603.592875 
L 881.328125 603.592875 
L 877.728125 603.592875 
z
" style="fill:#1f77b4;"/>
   </g>
   <g id="patch_223">
    <path clip-path="url(#p2638728bf8)" d="M 881.328125 603.592875 
L 884.928125 603.592875 
L 884.928125 603.592875 
L 881.328125 603.592875 
z
" style="fill:#1f77b4;"/>
   </g>
   <g id="patch_224">
    <path clip-path="url(#p2638728bf8)" d="M 884.928125 603.592875 
L 888.528125 603.592875 
L 888.528125 603.592875 
L 884.928125 603.592875 
z
" style="fill:#1f77b4;"/>
   </g>
   <g id="patch_225">
    <path clip-path="url(#p2638728bf8)" d="M 888.528125 603.592875 
L 892.128125 603.592875 
L 892.128125 603.592875 
L 888.528125 603.592875 
z
" style="fill:#1f77b4;"/>
   </g>
   <g id="patch_226">
    <path clip-path="url(#p2638728bf8)" d="M 892.128125 603.592875 
L 895.728125 603.592875 
L 895.728125 603.592875 
L 892.128125 603.592875 
z
" style="fill:#1f77b4;"/>
   </g>
   <g id="patch_227">
    <path clip-path="url(#p2638728bf8)" d="M 895.728125 603.592875 
L 899.328125 603.592875 
L 899.328125 603.592875 
L 895.728125 603.592875 
z
" style="fill:#1f77b4;"/>
   </g>
   <g id="patch_228">
    <path clip-path="url(#p2638728bf8)" d="M 899.328125 603.592875 
L 902.928125 603.592875 
L 902.928125 603.592875 
L 899.328125 603.592875 
z
" style="fill:#1f77b4;"/>
   </g>
   <g id="patch_229">
    <path clip-path="url(#p2638728bf8)" d="M 902.928125 603.592875 
L 906.528125 603.592875 
L 906.528125 603.592875 
L 902.928125 603.592875 
z
" style="fill:#1f77b4;"/>
   </g>
   <g id="patch_230">
    <path clip-path="url(#p2638728bf8)" d="M 906.528125 603.592875 
L 910.128125 603.592875 
L 910.128125 603.592875 
L 906.528125 603.592875 
z
" style="fill:#1f77b4;"/>
   </g>
   <g id="patch_231">
    <path clip-path="url(#p2638728bf8)" d="M 910.128125 603.592875 
L 913.728125 603.592875 
L 913.728125 603.592875 
L 910.128125 603.592875 
z
" style="fill:#1f77b4;"/>
   </g>
   <g id="patch_232">
    <path clip-path="url(#p2638728bf8)" d="M 913.728125 603.592875 
L 917.328125 603.592875 
L 917.328125 603.592875 
L 913.728125 603.592875 
z
" style="fill:#1f77b4;"/>
   </g>
   <g id="patch_233">
    <path clip-path="url(#p2638728bf8)" d="M 917.328125 603.592875 
L 920.928125 603.592875 
L 920.928125 603.592875 
L 917.328125 603.592875 
z
" style="fill:#1f77b4;"/>
   </g>
   <g id="patch_234">
    <path clip-path="url(#p2638728bf8)" d="M 920.928125 603.592875 
L 924.528125 603.592875 
L 924.528125 603.592875 
L 920.928125 603.592875 
z
" style="fill:#1f77b4;"/>
   </g>
   <g id="patch_235">
    <path clip-path="url(#p2638728bf8)" d="M 924.528125 603.592875 
L 928.128125 603.592875 
L 928.128125 603.592875 
L 924.528125 603.592875 
z
" style="fill:#1f77b4;"/>
   </g>
   <g id="patch_236">
    <path clip-path="url(#p2638728bf8)" d="M 928.128125 603.592875 
L 931.728125 603.592875 
L 931.728125 603.592875 
L 928.128125 603.592875 
z
" style="fill:#1f77b4;"/>
   </g>
   <g id="patch_237">
    <path clip-path="url(#p2638728bf8)" d="M 931.728125 603.592875 
L 935.328125 603.592875 
L 935.328125 603.592875 
L 931.728125 603.592875 
z
" style="fill:#1f77b4;"/>
   </g>
   <g id="patch_238">
    <path clip-path="url(#p2638728bf8)" d="M 935.328125 603.592875 
L 938.928125 603.592875 
L 938.928125 603.592875 
L 935.328125 603.592875 
z
" style="fill:#1f77b4;"/>
   </g>
   <g id="patch_239">
    <path clip-path="url(#p2638728bf8)" d="M 938.928125 603.592875 
L 942.528125 603.592875 
L 942.528125 603.592875 
L 938.928125 603.592875 
z
" style="fill:#1f77b4;"/>
   </g>
   <g id="patch_240">
    <path clip-path="url(#p2638728bf8)" d="M 942.528125 603.592875 
L 946.128125 603.592875 
L 946.128125 603.592875 
L 942.528125 603.592875 
z
" style="fill:#1f77b4;"/>
   </g>
   <g id="patch_241">
    <path clip-path="url(#p2638728bf8)" d="M 946.128125 603.592875 
L 949.728125 603.592875 
L 949.728125 603.592875 
L 946.128125 603.592875 
z
" style="fill:#1f77b4;"/>
   </g>
   <g id="patch_242">
    <path clip-path="url(#p2638728bf8)" d="M 949.728125 603.592875 
L 953.328125 603.592875 
L 953.328125 603.592875 
L 949.728125 603.592875 
z
" style="fill:#1f77b4;"/>
   </g>
   <g id="patch_243">
    <path clip-path="url(#p2638728bf8)" d="M 953.328125 603.592875 
L 956.928125 603.592875 
L 956.928125 603.592875 
L 953.328125 603.592875 
z
" style="fill:#1f77b4;"/>
   </g>
   <g id="patch_244">
    <path clip-path="url(#p2638728bf8)" d="M 956.928125 603.592875 
L 960.528125 603.592875 
L 960.528125 603.592875 
L 956.928125 603.592875 
z
" style="fill:#1f77b4;"/>
   </g>
   <g id="patch_245">
    <path clip-path="url(#p2638728bf8)" d="M 960.528125 603.592875 
L 964.128125 603.592875 
L 964.128125 603.592875 
L 960.528125 603.592875 
z
" style="fill:#1f77b4;"/>
   </g>
   <g id="patch_246">
    <path clip-path="url(#p2638728bf8)" d="M 964.128125 603.592875 
L 967.728125 603.592875 
L 967.728125 603.592875 
L 964.128125 603.592875 
z
" style="fill:#1f77b4;"/>
   </g>
   <g id="patch_247">
    <path clip-path="url(#p2638728bf8)" d="M 967.728125 603.592875 
L 971.328125 603.592875 
L 971.328125 603.592875 
L 967.728125 603.592875 
z
" style="fill:#1f77b4;"/>
   </g>
   <g id="patch_248">
    <path clip-path="url(#p2638728bf8)" d="M 971.328125 603.592875 
L 974.928125 603.592875 
L 974.928125 603.592875 
L 971.328125 603.592875 
z
" style="fill:#1f77b4;"/>
   </g>
   <g id="patch_249">
    <path clip-path="url(#p2638728bf8)" d="M 974.928125 603.592875 
L 978.528125 603.592875 
L 978.528125 603.592875 
L 974.928125 603.592875 
z
" style="fill:#1f77b4;"/>
   </g>
   <g id="patch_250">
    <path clip-path="url(#p2638728bf8)" d="M 978.528125 603.592875 
L 982.128125 603.592875 
L 982.128125 603.592875 
L 978.528125 603.592875 
z
" style="fill:#1f77b4;"/>
   </g>
   <g id="patch_251">
    <path clip-path="url(#p2638728bf8)" d="M 982.128125 603.592875 
L 985.728125 603.592875 
L 985.728125 603.592875 
L 982.128125 603.592875 
z
" style="fill:#1f77b4;"/>
   </g>
   <g id="patch_252">
    <path clip-path="url(#p2638728bf8)" d="M 985.728125 603.592875 
L 989.328125 603.592875 
L 989.328125 574.466991 
L 985.728125 574.466991 
z
" style="fill:#1f77b4;"/>
   </g>
   <g id="matplotlib.axis_1">
    <g id="xtick_1">
     <g id="line2d_1">
      <defs>
       <path d="M 0 0 
L 0 3.5 
" id="md7706b4876" style="stroke:#000000;stroke-width:0.8;"/>
      </defs>
      <g>
       <use style="stroke:#000000;stroke-width:0.8;" x="53.328125" xlink:href="#md7706b4876" y="603.592875"/>
      </g>
     </g>
    </g>
    <g id="xtick_2">
     <g id="line2d_2">
      <g>
       <use style="stroke:#000000;stroke-width:0.8;" x="92.928125" xlink:href="#md7706b4876" y="603.592875"/>
      </g>
     </g>
     <g id="text_1">
      <!-- 1 -->
      <defs>
       <path d="M 12.40625 8.296875 
L 28.515625 8.296875 
L 28.515625 63.921875 
L 10.984375 60.40625 
L 10.984375 69.390625 
L 28.421875 72.90625 
L 38.28125 72.90625 
L 38.28125 8.296875 
L 54.390625 8.296875 
L 54.390625 0 
L 12.40625 0 
z
" id="DejaVuSans-31"/>
      </defs>
      <g transform="translate(89.746875 618.191313)scale(0.1 -0.1)">
       <use xlink:href="#DejaVuSans-31"/>
      </g>
     </g>
    </g>
    <g id="xtick_3">
     <g id="line2d_3">
      <g>
       <use style="stroke:#000000;stroke-width:0.8;" x="269.328125" xlink:href="#md7706b4876" y="603.592875"/>
      </g>
     </g>
     <g id="text_2">
      <!-- 50 -->
      <defs>
       <path d="M 10.796875 72.90625 
L 49.515625 72.90625 
L 49.515625 64.59375 
L 19.828125 64.59375 
L 19.828125 46.734375 
Q 21.96875 47.46875 24.109375 47.828125 
Q 26.265625 48.1875 28.421875 48.1875 
Q 40.625 48.1875 47.75 41.5 
Q 54.890625 34.8125 54.890625 23.390625 
Q 54.890625 11.625 47.5625 5.09375 
Q 40.234375 -1.421875 26.90625 -1.421875 
Q 22.3125 -1.421875 17.546875 -0.640625 
Q 12.796875 0.140625 7.71875 1.703125 
L 7.71875 11.625 
Q 12.109375 9.234375 16.796875 8.0625 
Q 21.484375 6.890625 26.703125 6.890625 
Q 35.15625 6.890625 40.078125 11.328125 
Q 45.015625 15.765625 45.015625 23.390625 
Q 45.015625 31 40.078125 35.4375 
Q 35.15625 39.890625 26.703125 39.890625 
Q 22.75 39.890625 18.8125 39.015625 
Q 14.890625 38.140625 10.796875 36.28125 
z
" id="DejaVuSans-35"/>
       <path d="M 31.78125 66.40625 
Q 24.171875 66.40625 20.328125 58.90625 
Q 16.5 51.421875 16.5 36.375 
Q 16.5 21.390625 20.328125 13.890625 
Q 24.171875 6.390625 31.78125 6.390625 
Q 39.453125 6.390625 43.28125 13.890625 
Q 47.125 21.390625 47.125 36.375 
Q 47.125 51.421875 43.28125 58.90625 
Q 39.453125 66.40625 31.78125 66.40625 
z
M 31.78125 74.21875 
Q 44.046875 74.21875 50.515625 64.515625 
Q 56.984375 54.828125 56.984375 36.375 
Q 56.984375 17.96875 50.515625 8.265625 
Q 44.046875 -1.421875 31.78125 -1.421875 
Q 19.53125 -1.421875 13.0625 8.265625 
Q 6.59375 17.96875 6.59375 36.375 
Q 6.59375 54.828125 13.0625 64.515625 
Q 19.53125 74.21875 31.78125 74.21875 
z
" id="DejaVuSans-30"/>
      </defs>
      <g transform="translate(262.965625 618.191313)scale(0.1 -0.1)">
       <use xlink:href="#DejaVuSans-35"/>
       <use x="63.623047" xlink:href="#DejaVuSans-30"/>
      </g>
     </g>
    </g>
    <g id="xtick_4">
     <g id="line2d_4">
      <g>
       <use style="stroke:#000000;stroke-width:0.8;" x="449.328125" xlink:href="#md7706b4876" y="603.592875"/>
      </g>
     </g>
     <g id="text_3">
      <!-- 100 -->
      <g transform="translate(439.784375 618.191313)scale(0.1 -0.1)">
       <use xlink:href="#DejaVuSans-31"/>
       <use x="63.623047" xlink:href="#DejaVuSans-30"/>
       <use x="127.246094" xlink:href="#DejaVuSans-30"/>
      </g>
     </g>
    </g>
    <g id="xtick_5">
     <g id="line2d_5">
      <g>
       <use style="stroke:#000000;stroke-width:0.8;" x="629.328125" xlink:href="#md7706b4876" y="603.592875"/>
      </g>
     </g>
     <g id="text_4">
      <!-- 150 -->
      <g transform="translate(619.784375 618.191313)scale(0.1 -0.1)">
       <use xlink:href="#DejaVuSans-31"/>
       <use x="63.623047" xlink:href="#DejaVuSans-35"/>
       <use x="127.246094" xlink:href="#DejaVuSans-30"/>
      </g>
     </g>
    </g>
    <g id="xtick_6">
     <g id="line2d_6">
      <g>
       <use style="stroke:#000000;stroke-width:0.8;" x="809.328125" xlink:href="#md7706b4876" y="603.592875"/>
      </g>
     </g>
     <g id="text_5">
      <!-- 200 -->
      <defs>
       <path d="M 19.1875 8.296875 
L 53.609375 8.296875 
L 53.609375 0 
L 7.328125 0 
L 7.328125 8.296875 
Q 12.9375 14.109375 22.625 23.890625 
Q 32.328125 33.6875 34.8125 36.53125 
Q 39.546875 41.84375 41.421875 45.53125 
Q 43.3125 49.21875 43.3125 52.78125 
Q 43.3125 58.59375 39.234375 62.25 
Q 35.15625 65.921875 28.609375 65.921875 
Q 23.96875 65.921875 18.8125 64.3125 
Q 13.671875 62.703125 7.8125 59.421875 
L 7.8125 69.390625 
Q 13.765625 71.78125 18.9375 73 
Q 24.125 74.21875 28.421875 74.21875 
Q 39.75 74.21875 46.484375 68.546875 
Q 53.21875 62.890625 53.21875 53.421875 
Q 53.21875 48.921875 51.53125 44.890625 
Q 49.859375 40.875 45.40625 35.40625 
Q 44.1875 33.984375 37.640625 27.21875 
Q 31.109375 20.453125 19.1875 8.296875 
z
" id="DejaVuSans-32"/>
      </defs>
      <g transform="translate(799.784375 618.191313)scale(0.1 -0.1)">
       <use xlink:href="#DejaVuSans-32"/>
       <use x="63.623047" xlink:href="#DejaVuSans-30"/>
       <use x="127.246094" xlink:href="#DejaVuSans-30"/>
      </g>
     </g>
    </g>
    <g id="xtick_7">
     <g id="line2d_7">
      <g>
       <use style="stroke:#000000;stroke-width:0.8;" x="989.328125" xlink:href="#md7706b4876" y="603.592875"/>
      </g>
     </g>
     <g id="text_6">
      <!-- 250 -->
      <g transform="translate(979.784375 618.191313)scale(0.1 -0.1)">
       <use xlink:href="#DejaVuSans-32"/>
       <use x="63.623047" xlink:href="#DejaVuSans-35"/>
       <use x="127.246094" xlink:href="#DejaVuSans-30"/>
      </g>
     </g>
    </g>
    <g id="xtick_8">
     <g id="line2d_8">
      <g>
       <use style="stroke:#000000;stroke-width:0.8;" x="1169.328125" xlink:href="#md7706b4876" y="603.592875"/>
      </g>
     </g>
     <g id="text_7">
      <!-- 300 -->
      <defs>
       <path d="M 40.578125 39.3125 
Q 47.65625 37.796875 51.625 33 
Q 55.609375 28.21875 55.609375 21.1875 
Q 55.609375 10.40625 48.1875 4.484375 
Q 40.765625 -1.421875 27.09375 -1.421875 
Q 22.515625 -1.421875 17.65625 -0.515625 
Q 12.796875 0.390625 7.625 2.203125 
L 7.625 11.71875 
Q 11.71875 9.328125 16.59375 8.109375 
Q 21.484375 6.890625 26.8125 6.890625 
Q 36.078125 6.890625 40.9375 10.546875 
Q 45.796875 14.203125 45.796875 21.1875 
Q 45.796875 27.640625 41.28125 31.265625 
Q 36.765625 34.90625 28.71875 34.90625 
L 20.21875 34.90625 
L 20.21875 43.015625 
L 29.109375 43.015625 
Q 36.375 43.015625 40.234375 45.921875 
Q 44.09375 48.828125 44.09375 54.296875 
Q 44.09375 59.90625 40.109375 62.90625 
Q 36.140625 65.921875 28.71875 65.921875 
Q 24.65625 65.921875 20.015625 65.03125 
Q 15.375 64.15625 9.8125 62.3125 
L 9.8125 71.09375 
Q 15.4375 72.65625 20.34375 73.4375 
Q 25.25 74.21875 29.59375 74.21875 
Q 40.828125 74.21875 47.359375 69.109375 
Q 53.90625 64.015625 53.90625 55.328125 
Q 53.90625 49.265625 50.4375 45.09375 
Q 46.96875 40.921875 40.578125 39.3125 
z
" id="DejaVuSans-33"/>
      </defs>
      <g transform="translate(1159.784375 618.191313)scale(0.1 -0.1)">
       <use xlink:href="#DejaVuSans-33"/>
       <use x="63.623047" xlink:href="#DejaVuSans-30"/>
       <use x="127.246094" xlink:href="#DejaVuSans-30"/>
      </g>
     </g>
    </g>
    <g id="text_8">
     <!-- Time between consecutive nodes connections events -->
     <defs>
      <path d="M -0.296875 72.90625 
L 61.375 72.90625 
L 61.375 64.59375 
L 35.5 64.59375 
L 35.5 0 
L 25.59375 0 
L 25.59375 64.59375 
L -0.296875 64.59375 
z
" id="DejaVuSans-54"/>
      <path d="M 9.421875 54.6875 
L 18.40625 54.6875 
L 18.40625 0 
L 9.421875 0 
z
M 9.421875 75.984375 
L 18.40625 75.984375 
L 18.40625 64.59375 
L 9.421875 64.59375 
z
" id="DejaVuSans-69"/>
      <path d="M 52 44.1875 
Q 55.375 50.25 60.0625 53.125 
Q 64.75 56 71.09375 56 
Q 79.640625 56 84.28125 50.015625 
Q 88.921875 44.046875 88.921875 33.015625 
L 88.921875 0 
L 79.890625 0 
L 79.890625 32.71875 
Q 79.890625 40.578125 77.09375 44.375 
Q 74.3125 48.1875 68.609375 48.1875 
Q 61.625 48.1875 57.5625 43.546875 
Q 53.515625 38.921875 53.515625 30.90625 
L 53.515625 0 
L 44.484375 0 
L 44.484375 32.71875 
Q 44.484375 40.625 41.703125 44.40625 
Q 38.921875 48.1875 33.109375 48.1875 
Q 26.21875 48.1875 22.15625 43.53125 
Q 18.109375 38.875 18.109375 30.90625 
L 18.109375 0 
L 9.078125 0 
L 9.078125 54.6875 
L 18.109375 54.6875 
L 18.109375 46.1875 
Q 21.1875 51.21875 25.484375 53.609375 
Q 29.78125 56 35.6875 56 
Q 41.65625 56 45.828125 52.96875 
Q 50 49.953125 52 44.1875 
z
" id="DejaVuSans-6d"/>
      <path d="M 56.203125 29.59375 
L 56.203125 25.203125 
L 14.890625 25.203125 
Q 15.484375 15.921875 20.484375 11.0625 
Q 25.484375 6.203125 34.421875 6.203125 
Q 39.59375 6.203125 44.453125 7.46875 
Q 49.3125 8.734375 54.109375 11.28125 
L 54.109375 2.78125 
Q 49.265625 0.734375 44.1875 -0.34375 
Q 39.109375 -1.421875 33.890625 -1.421875 
Q 20.796875 -1.421875 13.15625 6.1875 
Q 5.515625 13.8125 5.515625 26.8125 
Q 5.515625 40.234375 12.765625 48.109375 
Q 20.015625 56 32.328125 56 
Q 43.359375 56 49.78125 48.890625 
Q 56.203125 41.796875 56.203125 29.59375 
z
M 47.21875 32.234375 
Q 47.125 39.59375 43.09375 43.984375 
Q 39.0625 48.390625 32.421875 48.390625 
Q 24.90625 48.390625 20.390625 44.140625 
Q 15.875 39.890625 15.1875 32.171875 
z
" id="DejaVuSans-65"/>
      <path id="DejaVuSans-20"/>
      <path d="M 48.6875 27.296875 
Q 48.6875 37.203125 44.609375 42.84375 
Q 40.53125 48.484375 33.40625 48.484375 
Q 26.265625 48.484375 22.1875 42.84375 
Q 18.109375 37.203125 18.109375 27.296875 
Q 18.109375 17.390625 22.1875 11.75 
Q 26.265625 6.109375 33.40625 6.109375 
Q 40.53125 6.109375 44.609375 11.75 
Q 48.6875 17.390625 48.6875 27.296875 
z
M 18.109375 46.390625 
Q 20.953125 51.265625 25.265625 53.625 
Q 29.59375 56 35.59375 56 
Q 45.5625 56 51.78125 48.09375 
Q 58.015625 40.1875 58.015625 27.296875 
Q 58.015625 14.40625 51.78125 6.484375 
Q 45.5625 -1.421875 35.59375 -1.421875 
Q 29.59375 -1.421875 25.265625 0.953125 
Q 20.953125 3.328125 18.109375 8.203125 
L 18.109375 0 
L 9.078125 0 
L 9.078125 75.984375 
L 18.109375 75.984375 
z
" id="DejaVuSans-62"/>
      <path d="M 18.3125 70.21875 
L 18.3125 54.6875 
L 36.8125 54.6875 
L 36.8125 47.703125 
L 18.3125 47.703125 
L 18.3125 18.015625 
Q 18.3125 11.328125 20.140625 9.421875 
Q 21.96875 7.515625 27.59375 7.515625 
L 36.8125 7.515625 
L 36.8125 0 
L 27.59375 0 
Q 17.1875 0 13.234375 3.875 
Q 9.28125 7.765625 9.28125 18.015625 
L 9.28125 47.703125 
L 2.6875 47.703125 
L 2.6875 54.6875 
L 9.28125 54.6875 
L 9.28125 70.21875 
z
" id="DejaVuSans-74"/>
      <path d="M 4.203125 54.6875 
L 13.1875 54.6875 
L 24.421875 12.015625 
L 35.59375 54.6875 
L 46.1875 54.6875 
L 57.421875 12.015625 
L 68.609375 54.6875 
L 77.59375 54.6875 
L 63.28125 0 
L 52.6875 0 
L 40.921875 44.828125 
L 29.109375 0 
L 18.5 0 
z
" id="DejaVuSans-77"/>
      <path d="M 54.890625 33.015625 
L 54.890625 0 
L 45.90625 0 
L 45.90625 32.71875 
Q 45.90625 40.484375 42.875 44.328125 
Q 39.84375 48.1875 33.796875 48.1875 
Q 26.515625 48.1875 22.3125 43.546875 
Q 18.109375 38.921875 18.109375 30.90625 
L 18.109375 0 
L 9.078125 0 
L 9.078125 54.6875 
L 18.109375 54.6875 
L 18.109375 46.1875 
Q 21.34375 51.125 25.703125 53.5625 
Q 30.078125 56 35.796875 56 
Q 45.21875 56 50.046875 50.171875 
Q 54.890625 44.34375 54.890625 33.015625 
z
" id="DejaVuSans-6e"/>
      <path d="M 48.78125 52.59375 
L 48.78125 44.1875 
Q 44.96875 46.296875 41.140625 47.34375 
Q 37.3125 48.390625 33.40625 48.390625 
Q 24.65625 48.390625 19.8125 42.84375 
Q 14.984375 37.3125 14.984375 27.296875 
Q 14.984375 17.28125 19.8125 11.734375 
Q 24.65625 6.203125 33.40625 6.203125 
Q 37.3125 6.203125 41.140625 7.25 
Q 44.96875 8.296875 48.78125 10.40625 
L 48.78125 2.09375 
Q 45.015625 0.34375 40.984375 -0.53125 
Q 36.96875 -1.421875 32.421875 -1.421875 
Q 20.0625 -1.421875 12.78125 6.34375 
Q 5.515625 14.109375 5.515625 27.296875 
Q 5.515625 40.671875 12.859375 48.328125 
Q 20.21875 56 33.015625 56 
Q 37.15625 56 41.109375 55.140625 
Q 45.0625 54.296875 48.78125 52.59375 
z
" id="DejaVuSans-63"/>
      <path d="M 30.609375 48.390625 
Q 23.390625 48.390625 19.1875 42.75 
Q 14.984375 37.109375 14.984375 27.296875 
Q 14.984375 17.484375 19.15625 11.84375 
Q 23.34375 6.203125 30.609375 6.203125 
Q 37.796875 6.203125 41.984375 11.859375 
Q 46.1875 17.53125 46.1875 27.296875 
Q 46.1875 37.015625 41.984375 42.703125 
Q 37.796875 48.390625 30.609375 48.390625 
z
M 30.609375 56 
Q 42.328125 56 49.015625 48.375 
Q 55.71875 40.765625 55.71875 27.296875 
Q 55.71875 13.875 49.015625 6.21875 
Q 42.328125 -1.421875 30.609375 -1.421875 
Q 18.84375 -1.421875 12.171875 6.21875 
Q 5.515625 13.875 5.515625 27.296875 
Q 5.515625 40.765625 12.171875 48.375 
Q 18.84375 56 30.609375 56 
z
" id="DejaVuSans-6f"/>
      <path d="M 44.28125 53.078125 
L 44.28125 44.578125 
Q 40.484375 46.53125 36.375 47.5 
Q 32.28125 48.484375 27.875 48.484375 
Q 21.1875 48.484375 17.84375 46.4375 
Q 14.5 44.390625 14.5 40.28125 
Q 14.5 37.15625 16.890625 35.375 
Q 19.28125 33.59375 26.515625 31.984375 
L 29.59375 31.296875 
Q 39.15625 29.25 43.1875 25.515625 
Q 47.21875 21.78125 47.21875 15.09375 
Q 47.21875 7.46875 41.1875 3.015625 
Q 35.15625 -1.421875 24.609375 -1.421875 
Q 20.21875 -1.421875 15.453125 -0.5625 
Q 10.6875 0.296875 5.421875 2 
L 5.421875 11.28125 
Q 10.40625 8.6875 15.234375 7.390625 
Q 20.0625 6.109375 24.8125 6.109375 
Q 31.15625 6.109375 34.5625 8.28125 
Q 37.984375 10.453125 37.984375 14.40625 
Q 37.984375 18.0625 35.515625 20.015625 
Q 33.0625 21.96875 24.703125 23.78125 
L 21.578125 24.515625 
Q 13.234375 26.265625 9.515625 29.90625 
Q 5.8125 33.546875 5.8125 39.890625 
Q 5.8125 47.609375 11.28125 51.796875 
Q 16.75 56 26.8125 56 
Q 31.78125 56 36.171875 55.265625 
Q 40.578125 54.546875 44.28125 53.078125 
z
" id="DejaVuSans-73"/>
      <path d="M 8.5 21.578125 
L 8.5 54.6875 
L 17.484375 54.6875 
L 17.484375 21.921875 
Q 17.484375 14.15625 20.5 10.265625 
Q 23.53125 6.390625 29.59375 6.390625 
Q 36.859375 6.390625 41.078125 11.03125 
Q 45.3125 15.671875 45.3125 23.6875 
L 45.3125 54.6875 
L 54.296875 54.6875 
L 54.296875 0 
L 45.3125 0 
L 45.3125 8.40625 
Q 42.046875 3.421875 37.71875 1 
Q 33.40625 -1.421875 27.6875 -1.421875 
Q 18.265625 -1.421875 13.375 4.4375 
Q 8.5 10.296875 8.5 21.578125 
z
M 31.109375 56 
z
" id="DejaVuSans-75"/>
      <path d="M 2.984375 54.6875 
L 12.5 54.6875 
L 29.59375 8.796875 
L 46.6875 54.6875 
L 56.203125 54.6875 
L 35.6875 0 
L 23.484375 0 
z
" id="DejaVuSans-76"/>
      <path d="M 45.40625 46.390625 
L 45.40625 75.984375 
L 54.390625 75.984375 
L 54.390625 0 
L 45.40625 0 
L 45.40625 8.203125 
Q 42.578125 3.328125 38.25 0.953125 
Q 33.9375 -1.421875 27.875 -1.421875 
Q 17.96875 -1.421875 11.734375 6.484375 
Q 5.515625 14.40625 5.515625 27.296875 
Q 5.515625 40.1875 11.734375 48.09375 
Q 17.96875 56 27.875 56 
Q 33.9375 56 38.25 53.625 
Q 42.578125 51.265625 45.40625 46.390625 
z
M 14.796875 27.296875 
Q 14.796875 17.390625 18.875 11.75 
Q 22.953125 6.109375 30.078125 6.109375 
Q 37.203125 6.109375 41.296875 11.75 
Q 45.40625 17.390625 45.40625 27.296875 
Q 45.40625 37.203125 41.296875 42.84375 
Q 37.203125 48.484375 30.078125 48.484375 
Q 22.953125 48.484375 18.875 42.84375 
Q 14.796875 37.203125 14.796875 27.296875 
z
" id="DejaVuSans-64"/>
     </defs>
     <g transform="translate(477.328125 631.869438)scale(0.1 -0.1)">
      <use xlink:href="#DejaVuSans-54"/>
      <use x="61.037109" xlink:href="#DejaVuSans-69"/>
      <use x="88.820312" xlink:href="#DejaVuSans-6d"/>
      <use x="186.232422" xlink:href="#DejaVuSans-65"/>
      <use x="247.755859" xlink:href="#DejaVuSans-20"/>
      <use x="279.542969" xlink:href="#DejaVuSans-62"/>
      <use x="343.019531" xlink:href="#DejaVuSans-65"/>
      <use x="404.542969" xlink:href="#DejaVuSans-74"/>
      <use x="443.751953" xlink:href="#DejaVuSans-77"/>
      <use x="525.539062" xlink:href="#DejaVuSans-65"/>
      <use x="587.0625" xlink:href="#DejaVuSans-65"/>
      <use x="648.585938" xlink:href="#DejaVuSans-6e"/>
      <use x="711.964844" xlink:href="#DejaVuSans-20"/>
      <use x="743.751953" xlink:href="#DejaVuSans-63"/>
      <use x="798.732422" xlink:href="#DejaVuSans-6f"/>
      <use x="859.914062" xlink:href="#DejaVuSans-6e"/>
      <use x="923.292969" xlink:href="#DejaVuSans-73"/>
      <use x="975.392578" xlink:href="#DejaVuSans-65"/>
      <use x="1036.916016" xlink:href="#DejaVuSans-63"/>
      <use x="1091.896484" xlink:href="#DejaVuSans-75"/>
      <use x="1155.275391" xlink:href="#DejaVuSans-74"/>
      <use x="1194.484375" xlink:href="#DejaVuSans-69"/>
      <use x="1222.267578" xlink:href="#DejaVuSans-76"/>
      <use x="1281.447266" xlink:href="#DejaVuSans-65"/>
      <use x="1342.970703" xlink:href="#DejaVuSans-20"/>
      <use x="1374.757812" xlink:href="#DejaVuSans-6e"/>
      <use x="1438.136719" xlink:href="#DejaVuSans-6f"/>
      <use x="1499.318359" xlink:href="#DejaVuSans-64"/>
      <use x="1562.794922" xlink:href="#DejaVuSans-65"/>
      <use x="1624.318359" xlink:href="#DejaVuSans-73"/>
      <use x="1676.417969" xlink:href="#DejaVuSans-20"/>
      <use x="1708.205078" xlink:href="#DejaVuSans-63"/>
      <use x="1763.185547" xlink:href="#DejaVuSans-6f"/>
      <use x="1824.367188" xlink:href="#DejaVuSans-6e"/>
      <use x="1887.746094" xlink:href="#DejaVuSans-6e"/>
      <use x="1951.125" xlink:href="#DejaVuSans-65"/>
      <use x="2012.648438" xlink:href="#DejaVuSans-63"/>
      <use x="2067.628906" xlink:href="#DejaVuSans-74"/>
      <use x="2106.837891" xlink:href="#DejaVuSans-69"/>
      <use x="2134.621094" xlink:href="#DejaVuSans-6f"/>
      <use x="2195.802734" xlink:href="#DejaVuSans-6e"/>
      <use x="2259.181641" xlink:href="#DejaVuSans-73"/>
      <use x="2311.28125" xlink:href="#DejaVuSans-20"/>
      <use x="2343.068359" xlink:href="#DejaVuSans-65"/>
      <use x="2404.591797" xlink:href="#DejaVuSans-76"/>
      <use x="2463.771484" xlink:href="#DejaVuSans-65"/>
      <use x="2525.294922" xlink:href="#DejaVuSans-6e"/>
      <use x="2588.673828" xlink:href="#DejaVuSans-74"/>
      <use x="2627.882812" xlink:href="#DejaVuSans-73"/>
     </g>
    </g>
   </g>
   <g id="matplotlib.axis_2">
    <g id="ytick_1">
     <g id="line2d_9">
      <defs>
       <path d="M 0 0 
L -3.5 0 
" id="m5150e5853b" style="stroke:#000000;stroke-width:0.8;"/>
      </defs>
      <g>
       <use style="stroke:#000000;stroke-width:0.8;" x="53.328125" xlink:href="#m5150e5853b" y="603.592875"/>
      </g>
     </g>
     <g id="text_9">
      <!-- 0 -->
      <g transform="translate(39.965625 607.392094)scale(0.1 -0.1)">
       <use xlink:href="#DejaVuSans-30"/>
      </g>
     </g>
    </g>
    <g id="ytick_2">
     <g id="line2d_10">
      <g>
       <use style="stroke:#000000;stroke-width:0.8;" x="53.328125" xlink:href="#m5150e5853b" y="541.35808"/>
      </g>
     </g>
     <g id="text_10">
      <!-- 250 -->
      <g transform="translate(27.240625 545.157299)scale(0.1 -0.1)">
       <use xlink:href="#DejaVuSans-32"/>
       <use x="63.623047" xlink:href="#DejaVuSans-35"/>
       <use x="127.246094" xlink:href="#DejaVuSans-30"/>
      </g>
     </g>
    </g>
    <g id="ytick_3">
     <g id="line2d_11">
      <g>
       <use style="stroke:#000000;stroke-width:0.8;" x="53.328125" xlink:href="#m5150e5853b" y="479.123285"/>
      </g>
     </g>
     <g id="text_11">
      <!-- 500 -->
      <g transform="translate(27.240625 482.922504)scale(0.1 -0.1)">
       <use xlink:href="#DejaVuSans-35"/>
       <use x="63.623047" xlink:href="#DejaVuSans-30"/>
       <use x="127.246094" xlink:href="#DejaVuSans-30"/>
      </g>
     </g>
    </g>
    <g id="ytick_4">
     <g id="line2d_12">
      <g>
       <use style="stroke:#000000;stroke-width:0.8;" x="53.328125" xlink:href="#m5150e5853b" y="416.88849"/>
      </g>
     </g>
     <g id="text_12">
      <!-- 750 -->
      <defs>
       <path d="M 8.203125 72.90625 
L 55.078125 72.90625 
L 55.078125 68.703125 
L 28.609375 0 
L 18.3125 0 
L 43.21875 64.59375 
L 8.203125 64.59375 
z
" id="DejaVuSans-37"/>
      </defs>
      <g transform="translate(27.240625 420.687709)scale(0.1 -0.1)">
       <use xlink:href="#DejaVuSans-37"/>
       <use x="63.623047" xlink:href="#DejaVuSans-35"/>
       <use x="127.246094" xlink:href="#DejaVuSans-30"/>
      </g>
     </g>
    </g>
    <g id="ytick_5">
     <g id="line2d_13">
      <g>
       <use style="stroke:#000000;stroke-width:0.8;" x="53.328125" xlink:href="#m5150e5853b" y="354.653695"/>
      </g>
     </g>
     <g id="text_13">
      <!-- 1000 -->
      <g transform="translate(20.878125 358.452914)scale(0.1 -0.1)">
       <use xlink:href="#DejaVuSans-31"/>
       <use x="63.623047" xlink:href="#DejaVuSans-30"/>
       <use x="127.246094" xlink:href="#DejaVuSans-30"/>
       <use x="190.869141" xlink:href="#DejaVuSans-30"/>
      </g>
     </g>
    </g>
    <g id="ytick_6">
     <g id="line2d_14">
      <g>
       <use style="stroke:#000000;stroke-width:0.8;" x="53.328125" xlink:href="#m5150e5853b" y="292.4189"/>
      </g>
     </g>
     <g id="text_14">
      <!-- 1250 -->
      <g transform="translate(20.878125 296.218119)scale(0.1 -0.1)">
       <use xlink:href="#DejaVuSans-31"/>
       <use x="63.623047" xlink:href="#DejaVuSans-32"/>
       <use x="127.246094" xlink:href="#DejaVuSans-35"/>
       <use x="190.869141" xlink:href="#DejaVuSans-30"/>
      </g>
     </g>
    </g>
    <g id="ytick_7">
     <g id="line2d_15">
      <g>
       <use style="stroke:#000000;stroke-width:0.8;" x="53.328125" xlink:href="#m5150e5853b" y="230.184106"/>
      </g>
     </g>
     <g id="text_15">
      <!-- 1500 -->
      <g transform="translate(20.878125 233.983324)scale(0.1 -0.1)">
       <use xlink:href="#DejaVuSans-31"/>
       <use x="63.623047" xlink:href="#DejaVuSans-35"/>
       <use x="127.246094" xlink:href="#DejaVuSans-30"/>
       <use x="190.869141" xlink:href="#DejaVuSans-30"/>
      </g>
     </g>
    </g>
    <g id="ytick_8">
     <g id="line2d_16">
      <g>
       <use style="stroke:#000000;stroke-width:0.8;" x="53.328125" xlink:href="#m5150e5853b" y="167.949311"/>
      </g>
     </g>
     <g id="text_16">
      <!-- 1750 -->
      <g transform="translate(20.878125 171.748529)scale(0.1 -0.1)">
       <use xlink:href="#DejaVuSans-31"/>
       <use x="63.623047" xlink:href="#DejaVuSans-37"/>
       <use x="127.246094" xlink:href="#DejaVuSans-35"/>
       <use x="190.869141" xlink:href="#DejaVuSans-30"/>
      </g>
     </g>
    </g>
    <g id="ytick_9">
     <g id="line2d_17">
      <g>
       <use style="stroke:#000000;stroke-width:0.8;" x="53.328125" xlink:href="#m5150e5853b" y="105.714516"/>
      </g>
     </g>
     <g id="text_17">
      <!-- 2000 -->
      <g transform="translate(20.878125 109.513734)scale(0.1 -0.1)">
       <use xlink:href="#DejaVuSans-32"/>
       <use x="63.623047" xlink:href="#DejaVuSans-30"/>
       <use x="127.246094" xlink:href="#DejaVuSans-30"/>
       <use x="190.869141" xlink:href="#DejaVuSans-30"/>
      </g>
     </g>
    </g>
    <g id="text_18">
     <!-- Number of nodes -->
     <defs>
      <path d="M 9.8125 72.90625 
L 23.09375 72.90625 
L 55.421875 11.921875 
L 55.421875 72.90625 
L 64.984375 72.90625 
L 64.984375 0 
L 51.703125 0 
L 19.390625 60.984375 
L 19.390625 0 
L 9.8125 0 
z
" id="DejaVuSans-4e"/>
      <path d="M 41.109375 46.296875 
Q 39.59375 47.171875 37.8125 47.578125 
Q 36.03125 48 33.890625 48 
Q 26.265625 48 22.1875 43.046875 
Q 18.109375 38.09375 18.109375 28.8125 
L 18.109375 0 
L 9.078125 0 
L 9.078125 54.6875 
L 18.109375 54.6875 
L 18.109375 46.1875 
Q 20.953125 51.171875 25.484375 53.578125 
Q 30.03125 56 36.53125 56 
Q 37.453125 56 38.578125 55.875 
Q 39.703125 55.765625 41.0625 55.515625 
z
" id="DejaVuSans-72"/>
      <path d="M 37.109375 75.984375 
L 37.109375 68.5 
L 28.515625 68.5 
Q 23.6875 68.5 21.796875 66.546875 
Q 19.921875 64.59375 19.921875 59.515625 
L 19.921875 54.6875 
L 34.71875 54.6875 
L 34.71875 47.703125 
L 19.921875 47.703125 
L 19.921875 0 
L 10.890625 0 
L 10.890625 47.703125 
L 2.296875 47.703125 
L 2.296875 54.6875 
L 10.890625 54.6875 
L 10.890625 58.5 
Q 10.890625 67.625 15.140625 71.796875 
Q 19.390625 75.984375 28.609375 75.984375 
z
" id="DejaVuSans-66"/>
     </defs>
     <g transform="translate(14.798437 369.560063)rotate(-90)scale(0.1 -0.1)">
      <use xlink:href="#DejaVuSans-4e"/>
      <use x="74.804688" xlink:href="#DejaVuSans-75"/>
      <use x="138.183594" xlink:href="#DejaVuSans-6d"/>
      <use x="235.595703" xlink:href="#DejaVuSans-62"/>
      <use x="299.072266" xlink:href="#DejaVuSans-65"/>
      <use x="360.595703" xlink:href="#DejaVuSans-72"/>
      <use x="401.708984" xlink:href="#DejaVuSans-20"/>
      <use x="433.496094" xlink:href="#DejaVuSans-6f"/>
      <use x="494.677734" xlink:href="#DejaVuSans-66"/>
      <use x="529.882812" xlink:href="#DejaVuSans-20"/>
      <use x="561.669922" xlink:href="#DejaVuSans-6e"/>
      <use x="625.048828" xlink:href="#DejaVuSans-6f"/>
      <use x="686.230469" xlink:href="#DejaVuSans-64"/>
      <use x="749.707031" xlink:href="#DejaVuSans-65"/>
      <use x="811.230469" xlink:href="#DejaVuSans-73"/>
     </g>
    </g>
   </g>
   <g id="patch_253">
    <path d="M 53.328125 603.592875 
L 53.328125 49.192875 
" style="fill:none;stroke:#000000;stroke-linecap:square;stroke-linejoin:miter;stroke-width:0.8;"/>
   </g>
   <g id="patch_254">
    <path d="M 1169.328125 603.592875 
L 1169.328125 49.192875 
" style="fill:none;stroke:#000000;stroke-linecap:square;stroke-linejoin:miter;stroke-width:0.8;"/>
   </g>
   <g id="patch_255">
    <path d="M 53.328125 603.592875 
L 1169.328125 603.592875 
" style="fill:none;stroke:#000000;stroke-linecap:square;stroke-linejoin:miter;stroke-width:0.8;"/>
   </g>
   <g id="patch_256">
    <path d="M 53.328125 49.192875 
L 1169.328125 49.192875 
" style="fill:none;stroke:#000000;stroke-linecap:square;stroke-linejoin:miter;stroke-width:0.8;"/>
   </g>
   <g id="patch_257">
    <path d="M 265.328297 71.211098 
Q 180.129161 73.376546 96.047698 75.513587 
" style="fill:none;stroke:#000000;stroke-linecap:round;"/>
    <path d="M 100.097223 77.411309 
L 96.047698 75.513587 
L 99.995591 73.4126 
" style="fill:none;stroke:#000000;stroke-linecap:round;"/>
   </g>
   <g id="text_19">
    <!-- Value: 2121 -->
    <defs>
     <path d="M 28.609375 0 
L 0.78125 72.90625 
L 11.078125 72.90625 
L 34.1875 11.53125 
L 57.328125 72.90625 
L 67.578125 72.90625 
L 39.796875 0 
z
" id="DejaVuSans-56"/>
     <path d="M 34.28125 27.484375 
Q 23.390625 27.484375 19.1875 25 
Q 14.984375 22.515625 14.984375 16.5 
Q 14.984375 11.71875 18.140625 8.90625 
Q 21.296875 6.109375 26.703125 6.109375 
Q 34.1875 6.109375 38.703125 11.40625 
Q 43.21875 16.703125 43.21875 25.484375 
L 43.21875 27.484375 
z
M 52.203125 31.203125 
L 52.203125 0 
L 43.21875 0 
L 43.21875 8.296875 
Q 40.140625 3.328125 35.546875 0.953125 
Q 30.953125 -1.421875 24.3125 -1.421875 
Q 15.921875 -1.421875 10.953125 3.296875 
Q 6 8.015625 6 15.921875 
Q 6 25.140625 12.171875 29.828125 
Q 18.359375 34.515625 30.609375 34.515625 
L 43.21875 34.515625 
L 43.21875 35.40625 
Q 43.21875 41.609375 39.140625 45 
Q 35.0625 48.390625 27.6875 48.390625 
Q 23 48.390625 18.546875 47.265625 
Q 14.109375 46.140625 10.015625 43.890625 
L 10.015625 52.203125 
Q 14.9375 54.109375 19.578125 55.046875 
Q 24.21875 56 28.609375 56 
Q 40.484375 56 46.34375 49.84375 
Q 52.203125 43.703125 52.203125 31.203125 
z
" id="DejaVuSans-61"/>
     <path d="M 9.421875 75.984375 
L 18.40625 75.984375 
L 18.40625 0 
L 9.421875 0 
z
" id="DejaVuSans-6c"/>
     <path d="M 11.71875 12.40625 
L 22.015625 12.40625 
L 22.015625 0 
L 11.71875 0 
z
M 11.71875 51.703125 
L 22.015625 51.703125 
L 22.015625 39.3125 
L 11.71875 39.3125 
z
" id="DejaVuSans-3a"/>
    </defs>
    <g transform="translate(269.328125 73.103483)scale(0.1 -0.1)">
     <use xlink:href="#DejaVuSans-56"/>
     <use x="68.298828" xlink:href="#DejaVuSans-61"/>
     <use x="129.578125" xlink:href="#DejaVuSans-6c"/>
     <use x="157.361328" xlink:href="#DejaVuSans-75"/>
     <use x="220.740234" xlink:href="#DejaVuSans-65"/>
     <use x="282.263672" xlink:href="#DejaVuSans-3a"/>
     <use x="315.955078" xlink:href="#DejaVuSans-20"/>
     <use x="347.742188" xlink:href="#DejaVuSans-32"/>
     <use x="411.365234" xlink:href="#DejaVuSans-31"/>
     <use x="474.988281" xlink:href="#DejaVuSans-32"/>
     <use x="538.611328" xlink:href="#DejaVuSans-31"/>
    </g>
   </g>
   <g id="patch_258">
    <path d="M 838.934172 82.580151 
Q 913.839131 327.568484 988.417191 571.487641 
" style="fill:none;stroke:#000000;stroke-linecap:round;"/>
    <path d="M 989.16024 567.077666 
L 988.417191 571.487641 
L 985.33504 568.247217 
" style="fill:none;stroke:#000000;stroke-linecap:round;"/>
   </g>
   <g id="text_20">
    <!-- Value: 117 -->
    <g transform="translate(809.328125 76.588632)scale(0.1 -0.1)">
     <use xlink:href="#DejaVuSans-56"/>
     <use x="68.298828" xlink:href="#DejaVuSans-61"/>
     <use x="129.578125" xlink:href="#DejaVuSans-6c"/>
     <use x="157.361328" xlink:href="#DejaVuSans-75"/>
     <use x="220.740234" xlink:href="#DejaVuSans-65"/>
     <use x="282.263672" xlink:href="#DejaVuSans-3a"/>
     <use x="315.955078" xlink:href="#DejaVuSans-20"/>
     <use x="347.742188" xlink:href="#DejaVuSans-31"/>
     <use x="411.365234" xlink:href="#DejaVuSans-31"/>
     <use x="474.988281" xlink:href="#DejaVuSans-37"/>
    </g>
   </g>
   <g id="text_21">
    <!-- Time between consecutive nodes connections to UAVs -->
    <defs>
     <path d="M 8.6875 72.90625 
L 18.609375 72.90625 
L 18.609375 28.609375 
Q 18.609375 16.890625 22.84375 11.734375 
Q 27.09375 6.59375 36.625 6.59375 
Q 46.09375 6.59375 50.34375 11.734375 
Q 54.59375 16.890625 54.59375 28.609375 
L 54.59375 72.90625 
L 64.5 72.90625 
L 64.5 27.390625 
Q 64.5 13.140625 57.4375 5.859375 
Q 50.390625 -1.421875 36.625 -1.421875 
Q 22.796875 -1.421875 15.734375 5.859375 
Q 8.6875 13.140625 8.6875 27.390625 
z
" id="DejaVuSans-55"/>
     <path d="M 34.1875 63.1875 
L 20.796875 26.90625 
L 47.609375 26.90625 
z
M 28.609375 72.90625 
L 39.796875 72.90625 
L 67.578125 0 
L 57.328125 0 
L 50.6875 18.703125 
L 17.828125 18.703125 
L 11.1875 0 
L 0.78125 0 
z
" id="DejaVuSans-41"/>
    </defs>
    <g transform="translate(447.093125 16.318125)scale(0.12 -0.12)">
     <use xlink:href="#DejaVuSans-54"/>
     <use x="61.037109" xlink:href="#DejaVuSans-69"/>
     <use x="88.820312" xlink:href="#DejaVuSans-6d"/>
     <use x="186.232422" xlink:href="#DejaVuSans-65"/>
     <use x="247.755859" xlink:href="#DejaVuSans-20"/>
     <use x="279.542969" xlink:href="#DejaVuSans-62"/>
     <use x="343.019531" xlink:href="#DejaVuSans-65"/>
     <use x="404.542969" xlink:href="#DejaVuSans-74"/>
     <use x="443.751953" xlink:href="#DejaVuSans-77"/>
     <use x="525.539062" xlink:href="#DejaVuSans-65"/>
     <use x="587.0625" xlink:href="#DejaVuSans-65"/>
     <use x="648.585938" xlink:href="#DejaVuSans-6e"/>
     <use x="711.964844" xlink:href="#DejaVuSans-20"/>
     <use x="743.751953" xlink:href="#DejaVuSans-63"/>
     <use x="798.732422" xlink:href="#DejaVuSans-6f"/>
     <use x="859.914062" xlink:href="#DejaVuSans-6e"/>
     <use x="923.292969" xlink:href="#DejaVuSans-73"/>
     <use x="975.392578" xlink:href="#DejaVuSans-65"/>
     <use x="1036.916016" xlink:href="#DejaVuSans-63"/>
     <use x="1091.896484" xlink:href="#DejaVuSans-75"/>
     <use x="1155.275391" xlink:href="#DejaVuSans-74"/>
     <use x="1194.484375" xlink:href="#DejaVuSans-69"/>
     <use x="1222.267578" xlink:href="#DejaVuSans-76"/>
     <use x="1281.447266" xlink:href="#DejaVuSans-65"/>
     <use x="1342.970703" xlink:href="#DejaVuSans-20"/>
     <use x="1374.757812" xlink:href="#DejaVuSans-6e"/>
     <use x="1438.136719" xlink:href="#DejaVuSans-6f"/>
     <use x="1499.318359" xlink:href="#DejaVuSans-64"/>
     <use x="1562.794922" xlink:href="#DejaVuSans-65"/>
     <use x="1624.318359" xlink:href="#DejaVuSans-73"/>
     <use x="1676.417969" xlink:href="#DejaVuSans-20"/>
     <use x="1708.205078" xlink:href="#DejaVuSans-63"/>
     <use x="1763.185547" xlink:href="#DejaVuSans-6f"/>
     <use x="1824.367188" xlink:href="#DejaVuSans-6e"/>
     <use x="1887.746094" xlink:href="#DejaVuSans-6e"/>
     <use x="1951.125" xlink:href="#DejaVuSans-65"/>
     <use x="2012.648438" xlink:href="#DejaVuSans-63"/>
     <use x="2067.628906" xlink:href="#DejaVuSans-74"/>
     <use x="2106.837891" xlink:href="#DejaVuSans-69"/>
     <use x="2134.621094" xlink:href="#DejaVuSans-6f"/>
     <use x="2195.802734" xlink:href="#DejaVuSans-6e"/>
     <use x="2259.181641" xlink:href="#DejaVuSans-73"/>
     <use x="2311.28125" xlink:href="#DejaVuSans-20"/>
     <use x="2343.068359" xlink:href="#DejaVuSans-74"/>
     <use x="2382.277344" xlink:href="#DejaVuSans-6f"/>
     <use x="2443.458984" xlink:href="#DejaVuSans-20"/>
     <use x="2475.246094" xlink:href="#DejaVuSans-55"/>
     <use x="2548.439453" xlink:href="#DejaVuSans-41"/>
     <use x="2616.753906" xlink:href="#DejaVuSans-56"/>
     <use x="2685.162109" xlink:href="#DejaVuSans-73"/>
    </g>
    <!--  -->
    <g transform="translate(611.328125 29.7555)scale(0.12 -0.12)"/>
    <!--  -->
    <g transform="translate(611.328125 43.192875)scale(0.12 -0.12)"/>
   </g>
  </g>
 </g>
 <defs>
  <clipPath id="p2638728bf8">
   <rect height="554.4" width="1116" x="53.328125" y="49.192875"/>
  </clipPath>
 </defs>
</svg>
