<?xml version="1.0" encoding="utf-8" standalone="no"?>
<!DOCTYPE svg PUBLIC "-//W3C//DTD SVG 1.1//EN"
  "http://www.w3.org/Graphics/SVG/1.1/DTD/svg11.dtd">
<!-- Created with matplotlib (http://matplotlib.org/) -->
<svg height="627pt" version="1.1" viewBox="0 0 1173 627" width="1173pt" xmlns="http://www.w3.org/2000/svg" xmlns:xlink="http://www.w3.org/1999/xlink">
 <defs>
  <style type="text/css">
*{stroke-linecap:butt;stroke-linejoin:round;}
  </style>
 </defs>
 <g id="figure_1">
  <g id="patch_1">
   <path d="M 0 627.71175 
L 1173.665625 627.71175 
L 1173.665625 0 
L 0 0 
z
" style="fill:#ffffff;"/>
  </g>
  <g id="axes_1">
   <g id="patch_2">
    <path d="M 46.965625 590.1555 
L 1162.965625 590.1555 
L 1162.965625 35.7555 
L 46.965625 35.7555 
z
" style="fill:#ffffff;"/>
   </g>
   <g id="patch_3">
    <path clip-path="url(#p98c7bfef03)" d="M 88.298958 590.1555 
L 92.432292 590.1555 
L 92.432292 62.1555 
L 88.298958 62.1555 
z
" style="fill:#1f77b4;"/>
   </g>
   <g id="patch_4">
    <path clip-path="url(#p98c7bfef03)" d="M 92.432292 590.1555 
L 96.565625 590.1555 
L 96.565625 590.1555 
L 92.432292 590.1555 
z
" style="fill:#1f77b4;"/>
   </g>
   <g id="patch_5">
    <path clip-path="url(#p98c7bfef03)" d="M 96.565625 590.1555 
L 100.698958 590.1555 
L 100.698958 590.1555 
L 96.565625 590.1555 
z
" style="fill:#1f77b4;"/>
   </g>
   <g id="patch_6">
    <path clip-path="url(#p98c7bfef03)" d="M 100.698958 590.1555 
L 104.832292 590.1555 
L 104.832292 590.1555 
L 100.698958 590.1555 
z
" style="fill:#1f77b4;"/>
   </g>
   <g id="patch_7">
    <path clip-path="url(#p98c7bfef03)" d="M 104.832292 590.1555 
L 108.965625 590.1555 
L 108.965625 585.642679 
L 104.832292 585.642679 
z
" style="fill:#1f77b4;"/>
   </g>
   <g id="patch_8">
    <path clip-path="url(#p98c7bfef03)" d="M 108.965625 590.1555 
L 113.098958 590.1555 
L 113.098958 585.642679 
L 108.965625 585.642679 
z
" style="fill:#1f77b4;"/>
   </g>
   <g id="patch_9">
    <path clip-path="url(#p98c7bfef03)" d="M 113.098958 590.1555 
L 117.232292 590.1555 
L 117.232292 590.1555 
L 113.098958 590.1555 
z
" style="fill:#1f77b4;"/>
   </g>
   <g id="patch_10">
    <path clip-path="url(#p98c7bfef03)" d="M 117.232292 590.1555 
L 121.365625 590.1555 
L 121.365625 585.642679 
L 117.232292 585.642679 
z
" style="fill:#1f77b4;"/>
   </g>
   <g id="patch_11">
    <path clip-path="url(#p98c7bfef03)" d="M 121.365625 590.1555 
L 125.498958 590.1555 
L 125.498958 590.1555 
L 121.365625 590.1555 
z
" style="fill:#1f77b4;"/>
   </g>
   <g id="patch_12">
    <path clip-path="url(#p98c7bfef03)" d="M 125.498958 590.1555 
L 129.632292 590.1555 
L 129.632292 581.129859 
L 125.498958 581.129859 
z
" style="fill:#1f77b4;"/>
   </g>
   <g id="patch_13">
    <path clip-path="url(#p98c7bfef03)" d="M 129.632292 590.1555 
L 133.765625 590.1555 
L 133.765625 585.642679 
L 129.632292 585.642679 
z
" style="fill:#1f77b4;"/>
   </g>
   <g id="patch_14">
    <path clip-path="url(#p98c7bfef03)" d="M 133.765625 590.1555 
L 137.898958 590.1555 
L 137.898958 585.642679 
L 133.765625 585.642679 
z
" style="fill:#1f77b4;"/>
   </g>
   <g id="patch_15">
    <path clip-path="url(#p98c7bfef03)" d="M 137.898958 590.1555 
L 142.032292 590.1555 
L 142.032292 590.1555 
L 137.898958 590.1555 
z
" style="fill:#1f77b4;"/>
   </g>
   <g id="patch_16">
    <path clip-path="url(#p98c7bfef03)" d="M 142.032292 590.1555 
L 146.165625 590.1555 
L 146.165625 585.642679 
L 142.032292 585.642679 
z
" style="fill:#1f77b4;"/>
   </g>
   <g id="patch_17">
    <path clip-path="url(#p98c7bfef03)" d="M 146.165625 590.1555 
L 150.298958 590.1555 
L 150.298958 590.1555 
L 146.165625 590.1555 
z
" style="fill:#1f77b4;"/>
   </g>
   <g id="patch_18">
    <path clip-path="url(#p98c7bfef03)" d="M 150.298958 590.1555 
L 154.432292 590.1555 
L 154.432292 581.129859 
L 150.298958 581.129859 
z
" style="fill:#1f77b4;"/>
   </g>
   <g id="patch_19">
    <path clip-path="url(#p98c7bfef03)" d="M 154.432292 590.1555 
L 158.565625 590.1555 
L 158.565625 581.129859 
L 154.432292 581.129859 
z
" style="fill:#1f77b4;"/>
   </g>
   <g id="patch_20">
    <path clip-path="url(#p98c7bfef03)" d="M 158.565625 590.1555 
L 162.698958 590.1555 
L 162.698958 576.617038 
L 158.565625 576.617038 
z
" style="fill:#1f77b4;"/>
   </g>
   <g id="patch_21">
    <path clip-path="url(#p98c7bfef03)" d="M 162.698958 590.1555 
L 166.832292 590.1555 
L 166.832292 585.642679 
L 162.698958 585.642679 
z
" style="fill:#1f77b4;"/>
   </g>
   <g id="patch_22">
    <path clip-path="url(#p98c7bfef03)" d="M 166.832292 590.1555 
L 170.965625 590.1555 
L 170.965625 585.642679 
L 166.832292 585.642679 
z
" style="fill:#1f77b4;"/>
   </g>
   <g id="patch_23">
    <path clip-path="url(#p98c7bfef03)" d="M 170.965625 590.1555 
L 175.098958 590.1555 
L 175.098958 590.1555 
L 170.965625 590.1555 
z
" style="fill:#1f77b4;"/>
   </g>
   <g id="patch_24">
    <path clip-path="url(#p98c7bfef03)" d="M 175.098958 590.1555 
L 179.232292 590.1555 
L 179.232292 585.642679 
L 175.098958 585.642679 
z
" style="fill:#1f77b4;"/>
   </g>
   <g id="patch_25">
    <path clip-path="url(#p98c7bfef03)" d="M 179.232292 590.1555 
L 183.365625 590.1555 
L 183.365625 590.1555 
L 179.232292 590.1555 
z
" style="fill:#1f77b4;"/>
   </g>
   <g id="patch_26">
    <path clip-path="url(#p98c7bfef03)" d="M 183.365625 590.1555 
L 187.498958 590.1555 
L 187.498958 576.617038 
L 183.365625 576.617038 
z
" style="fill:#1f77b4;"/>
   </g>
   <g id="patch_27">
    <path clip-path="url(#p98c7bfef03)" d="M 187.498958 590.1555 
L 191.632292 590.1555 
L 191.632292 585.642679 
L 187.498958 585.642679 
z
" style="fill:#1f77b4;"/>
   </g>
   <g id="patch_28">
    <path clip-path="url(#p98c7bfef03)" d="M 191.632292 590.1555 
L 195.765625 590.1555 
L 195.765625 576.617038 
L 191.632292 576.617038 
z
" style="fill:#1f77b4;"/>
   </g>
   <g id="patch_29">
    <path clip-path="url(#p98c7bfef03)" d="M 195.765625 590.1555 
L 199.898958 590.1555 
L 199.898958 581.129859 
L 195.765625 581.129859 
z
" style="fill:#1f77b4;"/>
   </g>
   <g id="patch_30">
    <path clip-path="url(#p98c7bfef03)" d="M 199.898958 590.1555 
L 204.032292 590.1555 
L 204.032292 590.1555 
L 199.898958 590.1555 
z
" style="fill:#1f77b4;"/>
   </g>
   <g id="patch_31">
    <path clip-path="url(#p98c7bfef03)" d="M 204.032292 590.1555 
L 208.165625 590.1555 
L 208.165625 576.617038 
L 204.032292 576.617038 
z
" style="fill:#1f77b4;"/>
   </g>
   <g id="patch_32">
    <path clip-path="url(#p98c7bfef03)" d="M 208.165625 590.1555 
L 212.298958 590.1555 
L 212.298958 563.078577 
L 208.165625 563.078577 
z
" style="fill:#1f77b4;"/>
   </g>
   <g id="patch_33">
    <path clip-path="url(#p98c7bfef03)" d="M 212.298958 590.1555 
L 216.432292 590.1555 
L 216.432292 549.540115 
L 212.298958 549.540115 
z
" style="fill:#1f77b4;"/>
   </g>
   <g id="patch_34">
    <path clip-path="url(#p98c7bfef03)" d="M 216.432292 590.1555 
L 220.565625 590.1555 
L 220.565625 540.514474 
L 216.432292 540.514474 
z
" style="fill:#1f77b4;"/>
   </g>
   <g id="patch_35">
    <path clip-path="url(#p98c7bfef03)" d="M 220.565625 590.1555 
L 224.698958 590.1555 
L 224.698958 545.027295 
L 220.565625 545.027295 
z
" style="fill:#1f77b4;"/>
   </g>
   <g id="patch_36">
    <path clip-path="url(#p98c7bfef03)" d="M 224.698958 590.1555 
L 228.832292 590.1555 
L 228.832292 540.514474 
L 224.698958 540.514474 
z
" style="fill:#1f77b4;"/>
   </g>
   <g id="patch_37">
    <path clip-path="url(#p98c7bfef03)" d="M 228.832292 590.1555 
L 232.965625 590.1555 
L 232.965625 572.104218 
L 228.832292 572.104218 
z
" style="fill:#1f77b4;"/>
   </g>
   <g id="patch_38">
    <path clip-path="url(#p98c7bfef03)" d="M 232.965625 590.1555 
L 237.098958 590.1555 
L 237.098958 585.642679 
L 232.965625 585.642679 
z
" style="fill:#1f77b4;"/>
   </g>
   <g id="patch_39">
    <path clip-path="url(#p98c7bfef03)" d="M 237.098958 590.1555 
L 241.232292 590.1555 
L 241.232292 585.642679 
L 237.098958 585.642679 
z
" style="fill:#1f77b4;"/>
   </g>
   <g id="patch_40">
    <path clip-path="url(#p98c7bfef03)" d="M 241.232292 590.1555 
L 245.365625 590.1555 
L 245.365625 590.1555 
L 241.232292 590.1555 
z
" style="fill:#1f77b4;"/>
   </g>
   <g id="patch_41">
    <path clip-path="url(#p98c7bfef03)" d="M 245.365625 590.1555 
L 249.498958 590.1555 
L 249.498958 590.1555 
L 245.365625 590.1555 
z
" style="fill:#1f77b4;"/>
   </g>
   <g id="patch_42">
    <path clip-path="url(#p98c7bfef03)" d="M 249.498958 590.1555 
L 253.632292 590.1555 
L 253.632292 590.1555 
L 249.498958 590.1555 
z
" style="fill:#1f77b4;"/>
   </g>
   <g id="patch_43">
    <path clip-path="url(#p98c7bfef03)" d="M 253.632292 590.1555 
L 257.765625 590.1555 
L 257.765625 590.1555 
L 253.632292 590.1555 
z
" style="fill:#1f77b4;"/>
   </g>
   <g id="patch_44">
    <path clip-path="url(#p98c7bfef03)" d="M 257.765625 590.1555 
L 261.898958 590.1555 
L 261.898958 590.1555 
L 257.765625 590.1555 
z
" style="fill:#1f77b4;"/>
   </g>
   <g id="patch_45">
    <path clip-path="url(#p98c7bfef03)" d="M 261.898958 590.1555 
L 266.032292 590.1555 
L 266.032292 590.1555 
L 261.898958 590.1555 
z
" style="fill:#1f77b4;"/>
   </g>
   <g id="patch_46">
    <path clip-path="url(#p98c7bfef03)" d="M 266.032292 590.1555 
L 270.165625 590.1555 
L 270.165625 590.1555 
L 266.032292 590.1555 
z
" style="fill:#1f77b4;"/>
   </g>
   <g id="patch_47">
    <path clip-path="url(#p98c7bfef03)" d="M 270.165625 590.1555 
L 274.298958 590.1555 
L 274.298958 590.1555 
L 270.165625 590.1555 
z
" style="fill:#1f77b4;"/>
   </g>
   <g id="patch_48">
    <path clip-path="url(#p98c7bfef03)" d="M 274.298958 590.1555 
L 278.432292 590.1555 
L 278.432292 590.1555 
L 274.298958 590.1555 
z
" style="fill:#1f77b4;"/>
   </g>
   <g id="patch_49">
    <path clip-path="url(#p98c7bfef03)" d="M 278.432292 590.1555 
L 282.565625 590.1555 
L 282.565625 590.1555 
L 278.432292 590.1555 
z
" style="fill:#1f77b4;"/>
   </g>
   <g id="patch_50">
    <path clip-path="url(#p98c7bfef03)" d="M 282.565625 590.1555 
L 286.698958 590.1555 
L 286.698958 590.1555 
L 282.565625 590.1555 
z
" style="fill:#1f77b4;"/>
   </g>
   <g id="patch_51">
    <path clip-path="url(#p98c7bfef03)" d="M 286.698958 590.1555 
L 290.832292 590.1555 
L 290.832292 590.1555 
L 286.698958 590.1555 
z
" style="fill:#1f77b4;"/>
   </g>
   <g id="patch_52">
    <path clip-path="url(#p98c7bfef03)" d="M 290.832292 590.1555 
L 294.965625 590.1555 
L 294.965625 590.1555 
L 290.832292 590.1555 
z
" style="fill:#1f77b4;"/>
   </g>
   <g id="patch_53">
    <path clip-path="url(#p98c7bfef03)" d="M 294.965625 590.1555 
L 299.098958 590.1555 
L 299.098958 590.1555 
L 294.965625 590.1555 
z
" style="fill:#1f77b4;"/>
   </g>
   <g id="patch_54">
    <path clip-path="url(#p98c7bfef03)" d="M 299.098958 590.1555 
L 303.232292 590.1555 
L 303.232292 590.1555 
L 299.098958 590.1555 
z
" style="fill:#1f77b4;"/>
   </g>
   <g id="patch_55">
    <path clip-path="url(#p98c7bfef03)" d="M 303.232292 590.1555 
L 307.365625 590.1555 
L 307.365625 590.1555 
L 303.232292 590.1555 
z
" style="fill:#1f77b4;"/>
   </g>
   <g id="patch_56">
    <path clip-path="url(#p98c7bfef03)" d="M 307.365625 590.1555 
L 311.498958 590.1555 
L 311.498958 590.1555 
L 307.365625 590.1555 
z
" style="fill:#1f77b4;"/>
   </g>
   <g id="patch_57">
    <path clip-path="url(#p98c7bfef03)" d="M 311.498958 590.1555 
L 315.632292 590.1555 
L 315.632292 590.1555 
L 311.498958 590.1555 
z
" style="fill:#1f77b4;"/>
   </g>
   <g id="patch_58">
    <path clip-path="url(#p98c7bfef03)" d="M 315.632292 590.1555 
L 319.765625 590.1555 
L 319.765625 590.1555 
L 315.632292 590.1555 
z
" style="fill:#1f77b4;"/>
   </g>
   <g id="patch_59">
    <path clip-path="url(#p98c7bfef03)" d="M 319.765625 590.1555 
L 323.898958 590.1555 
L 323.898958 590.1555 
L 319.765625 590.1555 
z
" style="fill:#1f77b4;"/>
   </g>
   <g id="patch_60">
    <path clip-path="url(#p98c7bfef03)" d="M 323.898958 590.1555 
L 328.032292 590.1555 
L 328.032292 590.1555 
L 323.898958 590.1555 
z
" style="fill:#1f77b4;"/>
   </g>
   <g id="patch_61">
    <path clip-path="url(#p98c7bfef03)" d="M 328.032292 590.1555 
L 332.165625 590.1555 
L 332.165625 590.1555 
L 328.032292 590.1555 
z
" style="fill:#1f77b4;"/>
   </g>
   <g id="patch_62">
    <path clip-path="url(#p98c7bfef03)" d="M 332.165625 590.1555 
L 336.298958 590.1555 
L 336.298958 590.1555 
L 332.165625 590.1555 
z
" style="fill:#1f77b4;"/>
   </g>
   <g id="patch_63">
    <path clip-path="url(#p98c7bfef03)" d="M 336.298958 590.1555 
L 340.432292 590.1555 
L 340.432292 590.1555 
L 336.298958 590.1555 
z
" style="fill:#1f77b4;"/>
   </g>
   <g id="patch_64">
    <path clip-path="url(#p98c7bfef03)" d="M 340.432292 590.1555 
L 344.565625 590.1555 
L 344.565625 590.1555 
L 340.432292 590.1555 
z
" style="fill:#1f77b4;"/>
   </g>
   <g id="patch_65">
    <path clip-path="url(#p98c7bfef03)" d="M 344.565625 590.1555 
L 348.698958 590.1555 
L 348.698958 590.1555 
L 344.565625 590.1555 
z
" style="fill:#1f77b4;"/>
   </g>
   <g id="patch_66">
    <path clip-path="url(#p98c7bfef03)" d="M 348.698958 590.1555 
L 352.832292 590.1555 
L 352.832292 590.1555 
L 348.698958 590.1555 
z
" style="fill:#1f77b4;"/>
   </g>
   <g id="patch_67">
    <path clip-path="url(#p98c7bfef03)" d="M 352.832292 590.1555 
L 356.965625 590.1555 
L 356.965625 590.1555 
L 352.832292 590.1555 
z
" style="fill:#1f77b4;"/>
   </g>
   <g id="patch_68">
    <path clip-path="url(#p98c7bfef03)" d="M 356.965625 590.1555 
L 361.098958 590.1555 
L 361.098958 590.1555 
L 356.965625 590.1555 
z
" style="fill:#1f77b4;"/>
   </g>
   <g id="patch_69">
    <path clip-path="url(#p98c7bfef03)" d="M 361.098958 590.1555 
L 365.232292 590.1555 
L 365.232292 590.1555 
L 361.098958 590.1555 
z
" style="fill:#1f77b4;"/>
   </g>
   <g id="patch_70">
    <path clip-path="url(#p98c7bfef03)" d="M 365.232292 590.1555 
L 369.365625 590.1555 
L 369.365625 590.1555 
L 365.232292 590.1555 
z
" style="fill:#1f77b4;"/>
   </g>
   <g id="patch_71">
    <path clip-path="url(#p98c7bfef03)" d="M 369.365625 590.1555 
L 373.498958 590.1555 
L 373.498958 590.1555 
L 369.365625 590.1555 
z
" style="fill:#1f77b4;"/>
   </g>
   <g id="patch_72">
    <path clip-path="url(#p98c7bfef03)" d="M 373.498958 590.1555 
L 377.632292 590.1555 
L 377.632292 590.1555 
L 373.498958 590.1555 
z
" style="fill:#1f77b4;"/>
   </g>
   <g id="patch_73">
    <path clip-path="url(#p98c7bfef03)" d="M 377.632292 590.1555 
L 381.765625 590.1555 
L 381.765625 590.1555 
L 377.632292 590.1555 
z
" style="fill:#1f77b4;"/>
   </g>
   <g id="patch_74">
    <path clip-path="url(#p98c7bfef03)" d="M 381.765625 590.1555 
L 385.898958 590.1555 
L 385.898958 590.1555 
L 381.765625 590.1555 
z
" style="fill:#1f77b4;"/>
   </g>
   <g id="patch_75">
    <path clip-path="url(#p98c7bfef03)" d="M 385.898958 590.1555 
L 390.032292 590.1555 
L 390.032292 590.1555 
L 385.898958 590.1555 
z
" style="fill:#1f77b4;"/>
   </g>
   <g id="patch_76">
    <path clip-path="url(#p98c7bfef03)" d="M 390.032292 590.1555 
L 394.165625 590.1555 
L 394.165625 590.1555 
L 390.032292 590.1555 
z
" style="fill:#1f77b4;"/>
   </g>
   <g id="patch_77">
    <path clip-path="url(#p98c7bfef03)" d="M 394.165625 590.1555 
L 398.298958 590.1555 
L 398.298958 590.1555 
L 394.165625 590.1555 
z
" style="fill:#1f77b4;"/>
   </g>
   <g id="patch_78">
    <path clip-path="url(#p98c7bfef03)" d="M 398.298958 590.1555 
L 402.432292 590.1555 
L 402.432292 590.1555 
L 398.298958 590.1555 
z
" style="fill:#1f77b4;"/>
   </g>
   <g id="patch_79">
    <path clip-path="url(#p98c7bfef03)" d="M 402.432292 590.1555 
L 406.565625 590.1555 
L 406.565625 590.1555 
L 402.432292 590.1555 
z
" style="fill:#1f77b4;"/>
   </g>
   <g id="patch_80">
    <path clip-path="url(#p98c7bfef03)" d="M 406.565625 590.1555 
L 410.698958 590.1555 
L 410.698958 590.1555 
L 406.565625 590.1555 
z
" style="fill:#1f77b4;"/>
   </g>
   <g id="patch_81">
    <path clip-path="url(#p98c7bfef03)" d="M 410.698958 590.1555 
L 414.832292 590.1555 
L 414.832292 590.1555 
L 410.698958 590.1555 
z
" style="fill:#1f77b4;"/>
   </g>
   <g id="patch_82">
    <path clip-path="url(#p98c7bfef03)" d="M 414.832292 590.1555 
L 418.965625 590.1555 
L 418.965625 590.1555 
L 414.832292 590.1555 
z
" style="fill:#1f77b4;"/>
   </g>
   <g id="patch_83">
    <path clip-path="url(#p98c7bfef03)" d="M 418.965625 590.1555 
L 423.098958 590.1555 
L 423.098958 590.1555 
L 418.965625 590.1555 
z
" style="fill:#1f77b4;"/>
   </g>
   <g id="patch_84">
    <path clip-path="url(#p98c7bfef03)" d="M 423.098958 590.1555 
L 427.232292 590.1555 
L 427.232292 590.1555 
L 423.098958 590.1555 
z
" style="fill:#1f77b4;"/>
   </g>
   <g id="patch_85">
    <path clip-path="url(#p98c7bfef03)" d="M 427.232292 590.1555 
L 431.365625 590.1555 
L 431.365625 590.1555 
L 427.232292 590.1555 
z
" style="fill:#1f77b4;"/>
   </g>
   <g id="patch_86">
    <path clip-path="url(#p98c7bfef03)" d="M 431.365625 590.1555 
L 435.498958 590.1555 
L 435.498958 590.1555 
L 431.365625 590.1555 
z
" style="fill:#1f77b4;"/>
   </g>
   <g id="patch_87">
    <path clip-path="url(#p98c7bfef03)" d="M 435.498958 590.1555 
L 439.632292 590.1555 
L 439.632292 590.1555 
L 435.498958 590.1555 
z
" style="fill:#1f77b4;"/>
   </g>
   <g id="patch_88">
    <path clip-path="url(#p98c7bfef03)" d="M 439.632292 590.1555 
L 443.765625 590.1555 
L 443.765625 590.1555 
L 439.632292 590.1555 
z
" style="fill:#1f77b4;"/>
   </g>
   <g id="patch_89">
    <path clip-path="url(#p98c7bfef03)" d="M 443.765625 590.1555 
L 447.898958 590.1555 
L 447.898958 590.1555 
L 443.765625 590.1555 
z
" style="fill:#1f77b4;"/>
   </g>
   <g id="patch_90">
    <path clip-path="url(#p98c7bfef03)" d="M 447.898958 590.1555 
L 452.032292 590.1555 
L 452.032292 590.1555 
L 447.898958 590.1555 
z
" style="fill:#1f77b4;"/>
   </g>
   <g id="patch_91">
    <path clip-path="url(#p98c7bfef03)" d="M 452.032292 590.1555 
L 456.165625 590.1555 
L 456.165625 590.1555 
L 452.032292 590.1555 
z
" style="fill:#1f77b4;"/>
   </g>
   <g id="patch_92">
    <path clip-path="url(#p98c7bfef03)" d="M 456.165625 590.1555 
L 460.298958 590.1555 
L 460.298958 590.1555 
L 456.165625 590.1555 
z
" style="fill:#1f77b4;"/>
   </g>
   <g id="patch_93">
    <path clip-path="url(#p98c7bfef03)" d="M 460.298958 590.1555 
L 464.432292 590.1555 
L 464.432292 590.1555 
L 460.298958 590.1555 
z
" style="fill:#1f77b4;"/>
   </g>
   <g id="patch_94">
    <path clip-path="url(#p98c7bfef03)" d="M 464.432292 590.1555 
L 468.565625 590.1555 
L 468.565625 590.1555 
L 464.432292 590.1555 
z
" style="fill:#1f77b4;"/>
   </g>
   <g id="patch_95">
    <path clip-path="url(#p98c7bfef03)" d="M 468.565625 590.1555 
L 472.698958 590.1555 
L 472.698958 590.1555 
L 468.565625 590.1555 
z
" style="fill:#1f77b4;"/>
   </g>
   <g id="patch_96">
    <path clip-path="url(#p98c7bfef03)" d="M 472.698958 590.1555 
L 476.832292 590.1555 
L 476.832292 590.1555 
L 472.698958 590.1555 
z
" style="fill:#1f77b4;"/>
   </g>
   <g id="patch_97">
    <path clip-path="url(#p98c7bfef03)" d="M 476.832292 590.1555 
L 480.965625 590.1555 
L 480.965625 590.1555 
L 476.832292 590.1555 
z
" style="fill:#1f77b4;"/>
   </g>
   <g id="patch_98">
    <path clip-path="url(#p98c7bfef03)" d="M 480.965625 590.1555 
L 485.098958 590.1555 
L 485.098958 590.1555 
L 480.965625 590.1555 
z
" style="fill:#1f77b4;"/>
   </g>
   <g id="patch_99">
    <path clip-path="url(#p98c7bfef03)" d="M 485.098958 590.1555 
L 489.232292 590.1555 
L 489.232292 590.1555 
L 485.098958 590.1555 
z
" style="fill:#1f77b4;"/>
   </g>
   <g id="patch_100">
    <path clip-path="url(#p98c7bfef03)" d="M 489.232292 590.1555 
L 493.365625 590.1555 
L 493.365625 590.1555 
L 489.232292 590.1555 
z
" style="fill:#1f77b4;"/>
   </g>
   <g id="patch_101">
    <path clip-path="url(#p98c7bfef03)" d="M 493.365625 590.1555 
L 497.498958 590.1555 
L 497.498958 590.1555 
L 493.365625 590.1555 
z
" style="fill:#1f77b4;"/>
   </g>
   <g id="patch_102">
    <path clip-path="url(#p98c7bfef03)" d="M 497.498958 590.1555 
L 501.632292 590.1555 
L 501.632292 590.1555 
L 497.498958 590.1555 
z
" style="fill:#1f77b4;"/>
   </g>
   <g id="patch_103">
    <path clip-path="url(#p98c7bfef03)" d="M 501.632292 590.1555 
L 505.765625 590.1555 
L 505.765625 590.1555 
L 501.632292 590.1555 
z
" style="fill:#1f77b4;"/>
   </g>
   <g id="patch_104">
    <path clip-path="url(#p98c7bfef03)" d="M 505.765625 590.1555 
L 509.898958 590.1555 
L 509.898958 590.1555 
L 505.765625 590.1555 
z
" style="fill:#1f77b4;"/>
   </g>
   <g id="patch_105">
    <path clip-path="url(#p98c7bfef03)" d="M 509.898958 590.1555 
L 514.032292 590.1555 
L 514.032292 590.1555 
L 509.898958 590.1555 
z
" style="fill:#1f77b4;"/>
   </g>
   <g id="patch_106">
    <path clip-path="url(#p98c7bfef03)" d="M 514.032292 590.1555 
L 518.165625 590.1555 
L 518.165625 590.1555 
L 514.032292 590.1555 
z
" style="fill:#1f77b4;"/>
   </g>
   <g id="patch_107">
    <path clip-path="url(#p98c7bfef03)" d="M 518.165625 590.1555 
L 522.298958 590.1555 
L 522.298958 590.1555 
L 518.165625 590.1555 
z
" style="fill:#1f77b4;"/>
   </g>
   <g id="patch_108">
    <path clip-path="url(#p98c7bfef03)" d="M 522.298958 590.1555 
L 526.432292 590.1555 
L 526.432292 590.1555 
L 522.298958 590.1555 
z
" style="fill:#1f77b4;"/>
   </g>
   <g id="patch_109">
    <path clip-path="url(#p98c7bfef03)" d="M 526.432292 590.1555 
L 530.565625 590.1555 
L 530.565625 590.1555 
L 526.432292 590.1555 
z
" style="fill:#1f77b4;"/>
   </g>
   <g id="patch_110">
    <path clip-path="url(#p98c7bfef03)" d="M 530.565625 590.1555 
L 534.698958 590.1555 
L 534.698958 590.1555 
L 530.565625 590.1555 
z
" style="fill:#1f77b4;"/>
   </g>
   <g id="patch_111">
    <path clip-path="url(#p98c7bfef03)" d="M 534.698958 590.1555 
L 538.832292 590.1555 
L 538.832292 590.1555 
L 534.698958 590.1555 
z
" style="fill:#1f77b4;"/>
   </g>
   <g id="patch_112">
    <path clip-path="url(#p98c7bfef03)" d="M 538.832292 590.1555 
L 542.965625 590.1555 
L 542.965625 590.1555 
L 538.832292 590.1555 
z
" style="fill:#1f77b4;"/>
   </g>
   <g id="patch_113">
    <path clip-path="url(#p98c7bfef03)" d="M 542.965625 590.1555 
L 547.098958 590.1555 
L 547.098958 590.1555 
L 542.965625 590.1555 
z
" style="fill:#1f77b4;"/>
   </g>
   <g id="patch_114">
    <path clip-path="url(#p98c7bfef03)" d="M 547.098958 590.1555 
L 551.232292 590.1555 
L 551.232292 590.1555 
L 547.098958 590.1555 
z
" style="fill:#1f77b4;"/>
   </g>
   <g id="patch_115">
    <path clip-path="url(#p98c7bfef03)" d="M 551.232292 590.1555 
L 555.365625 590.1555 
L 555.365625 590.1555 
L 551.232292 590.1555 
z
" style="fill:#1f77b4;"/>
   </g>
   <g id="patch_116">
    <path clip-path="url(#p98c7bfef03)" d="M 555.365625 590.1555 
L 559.498958 590.1555 
L 559.498958 590.1555 
L 555.365625 590.1555 
z
" style="fill:#1f77b4;"/>
   </g>
   <g id="patch_117">
    <path clip-path="url(#p98c7bfef03)" d="M 559.498958 590.1555 
L 563.632292 590.1555 
L 563.632292 590.1555 
L 559.498958 590.1555 
z
" style="fill:#1f77b4;"/>
   </g>
   <g id="patch_118">
    <path clip-path="url(#p98c7bfef03)" d="M 563.632292 590.1555 
L 567.765625 590.1555 
L 567.765625 590.1555 
L 563.632292 590.1555 
z
" style="fill:#1f77b4;"/>
   </g>
   <g id="patch_119">
    <path clip-path="url(#p98c7bfef03)" d="M 567.765625 590.1555 
L 571.898958 590.1555 
L 571.898958 590.1555 
L 567.765625 590.1555 
z
" style="fill:#1f77b4;"/>
   </g>
   <g id="patch_120">
    <path clip-path="url(#p98c7bfef03)" d="M 571.898958 590.1555 
L 576.032292 590.1555 
L 576.032292 590.1555 
L 571.898958 590.1555 
z
" style="fill:#1f77b4;"/>
   </g>
   <g id="patch_121">
    <path clip-path="url(#p98c7bfef03)" d="M 576.032292 590.1555 
L 580.165625 590.1555 
L 580.165625 590.1555 
L 576.032292 590.1555 
z
" style="fill:#1f77b4;"/>
   </g>
   <g id="patch_122">
    <path clip-path="url(#p98c7bfef03)" d="M 580.165625 590.1555 
L 584.298958 590.1555 
L 584.298958 590.1555 
L 580.165625 590.1555 
z
" style="fill:#1f77b4;"/>
   </g>
   <g id="patch_123">
    <path clip-path="url(#p98c7bfef03)" d="M 584.298958 590.1555 
L 588.432292 590.1555 
L 588.432292 590.1555 
L 584.298958 590.1555 
z
" style="fill:#1f77b4;"/>
   </g>
   <g id="patch_124">
    <path clip-path="url(#p98c7bfef03)" d="M 588.432292 590.1555 
L 592.565625 590.1555 
L 592.565625 590.1555 
L 588.432292 590.1555 
z
" style="fill:#1f77b4;"/>
   </g>
   <g id="patch_125">
    <path clip-path="url(#p98c7bfef03)" d="M 592.565625 590.1555 
L 596.698958 590.1555 
L 596.698958 590.1555 
L 592.565625 590.1555 
z
" style="fill:#1f77b4;"/>
   </g>
   <g id="patch_126">
    <path clip-path="url(#p98c7bfef03)" d="M 596.698958 590.1555 
L 600.832292 590.1555 
L 600.832292 590.1555 
L 596.698958 590.1555 
z
" style="fill:#1f77b4;"/>
   </g>
   <g id="patch_127">
    <path clip-path="url(#p98c7bfef03)" d="M 600.832292 590.1555 
L 604.965625 590.1555 
L 604.965625 590.1555 
L 600.832292 590.1555 
z
" style="fill:#1f77b4;"/>
   </g>
   <g id="patch_128">
    <path clip-path="url(#p98c7bfef03)" d="M 604.965625 590.1555 
L 609.098958 590.1555 
L 609.098958 590.1555 
L 604.965625 590.1555 
z
" style="fill:#1f77b4;"/>
   </g>
   <g id="patch_129">
    <path clip-path="url(#p98c7bfef03)" d="M 609.098958 590.1555 
L 613.232292 590.1555 
L 613.232292 590.1555 
L 609.098958 590.1555 
z
" style="fill:#1f77b4;"/>
   </g>
   <g id="patch_130">
    <path clip-path="url(#p98c7bfef03)" d="M 613.232292 590.1555 
L 617.365625 590.1555 
L 617.365625 590.1555 
L 613.232292 590.1555 
z
" style="fill:#1f77b4;"/>
   </g>
   <g id="patch_131">
    <path clip-path="url(#p98c7bfef03)" d="M 617.365625 590.1555 
L 621.498958 590.1555 
L 621.498958 590.1555 
L 617.365625 590.1555 
z
" style="fill:#1f77b4;"/>
   </g>
   <g id="patch_132">
    <path clip-path="url(#p98c7bfef03)" d="M 621.498958 590.1555 
L 625.632292 590.1555 
L 625.632292 590.1555 
L 621.498958 590.1555 
z
" style="fill:#1f77b4;"/>
   </g>
   <g id="patch_133">
    <path clip-path="url(#p98c7bfef03)" d="M 625.632292 590.1555 
L 629.765625 590.1555 
L 629.765625 590.1555 
L 625.632292 590.1555 
z
" style="fill:#1f77b4;"/>
   </g>
   <g id="patch_134">
    <path clip-path="url(#p98c7bfef03)" d="M 629.765625 590.1555 
L 633.898958 590.1555 
L 633.898958 590.1555 
L 629.765625 590.1555 
z
" style="fill:#1f77b4;"/>
   </g>
   <g id="patch_135">
    <path clip-path="url(#p98c7bfef03)" d="M 633.898958 590.1555 
L 638.032292 590.1555 
L 638.032292 590.1555 
L 633.898958 590.1555 
z
" style="fill:#1f77b4;"/>
   </g>
   <g id="patch_136">
    <path clip-path="url(#p98c7bfef03)" d="M 638.032292 590.1555 
L 642.165625 590.1555 
L 642.165625 590.1555 
L 638.032292 590.1555 
z
" style="fill:#1f77b4;"/>
   </g>
   <g id="patch_137">
    <path clip-path="url(#p98c7bfef03)" d="M 642.165625 590.1555 
L 646.298958 590.1555 
L 646.298958 590.1555 
L 642.165625 590.1555 
z
" style="fill:#1f77b4;"/>
   </g>
   <g id="patch_138">
    <path clip-path="url(#p98c7bfef03)" d="M 646.298958 590.1555 
L 650.432292 590.1555 
L 650.432292 590.1555 
L 646.298958 590.1555 
z
" style="fill:#1f77b4;"/>
   </g>
   <g id="patch_139">
    <path clip-path="url(#p98c7bfef03)" d="M 650.432292 590.1555 
L 654.565625 590.1555 
L 654.565625 590.1555 
L 650.432292 590.1555 
z
" style="fill:#1f77b4;"/>
   </g>
   <g id="patch_140">
    <path clip-path="url(#p98c7bfef03)" d="M 654.565625 590.1555 
L 658.698958 590.1555 
L 658.698958 590.1555 
L 654.565625 590.1555 
z
" style="fill:#1f77b4;"/>
   </g>
   <g id="patch_141">
    <path clip-path="url(#p98c7bfef03)" d="M 658.698958 590.1555 
L 662.832292 590.1555 
L 662.832292 590.1555 
L 658.698958 590.1555 
z
" style="fill:#1f77b4;"/>
   </g>
   <g id="patch_142">
    <path clip-path="url(#p98c7bfef03)" d="M 662.832292 590.1555 
L 666.965625 590.1555 
L 666.965625 590.1555 
L 662.832292 590.1555 
z
" style="fill:#1f77b4;"/>
   </g>
   <g id="patch_143">
    <path clip-path="url(#p98c7bfef03)" d="M 666.965625 590.1555 
L 671.098958 590.1555 
L 671.098958 590.1555 
L 666.965625 590.1555 
z
" style="fill:#1f77b4;"/>
   </g>
   <g id="patch_144">
    <path clip-path="url(#p98c7bfef03)" d="M 671.098958 590.1555 
L 675.232292 590.1555 
L 675.232292 590.1555 
L 671.098958 590.1555 
z
" style="fill:#1f77b4;"/>
   </g>
   <g id="patch_145">
    <path clip-path="url(#p98c7bfef03)" d="M 675.232292 590.1555 
L 679.365625 590.1555 
L 679.365625 590.1555 
L 675.232292 590.1555 
z
" style="fill:#1f77b4;"/>
   </g>
   <g id="patch_146">
    <path clip-path="url(#p98c7bfef03)" d="M 679.365625 590.1555 
L 683.498958 590.1555 
L 683.498958 590.1555 
L 679.365625 590.1555 
z
" style="fill:#1f77b4;"/>
   </g>
   <g id="patch_147">
    <path clip-path="url(#p98c7bfef03)" d="M 683.498958 590.1555 
L 687.632292 590.1555 
L 687.632292 590.1555 
L 683.498958 590.1555 
z
" style="fill:#1f77b4;"/>
   </g>
   <g id="patch_148">
    <path clip-path="url(#p98c7bfef03)" d="M 687.632292 590.1555 
L 691.765625 590.1555 
L 691.765625 590.1555 
L 687.632292 590.1555 
z
" style="fill:#1f77b4;"/>
   </g>
   <g id="patch_149">
    <path clip-path="url(#p98c7bfef03)" d="M 691.765625 590.1555 
L 695.898958 590.1555 
L 695.898958 590.1555 
L 691.765625 590.1555 
z
" style="fill:#1f77b4;"/>
   </g>
   <g id="patch_150">
    <path clip-path="url(#p98c7bfef03)" d="M 695.898958 590.1555 
L 700.032292 590.1555 
L 700.032292 590.1555 
L 695.898958 590.1555 
z
" style="fill:#1f77b4;"/>
   </g>
   <g id="patch_151">
    <path clip-path="url(#p98c7bfef03)" d="M 700.032292 590.1555 
L 704.165625 590.1555 
L 704.165625 590.1555 
L 700.032292 590.1555 
z
" style="fill:#1f77b4;"/>
   </g>
   <g id="patch_152">
    <path clip-path="url(#p98c7bfef03)" d="M 704.165625 590.1555 
L 708.298958 590.1555 
L 708.298958 590.1555 
L 704.165625 590.1555 
z
" style="fill:#1f77b4;"/>
   </g>
   <g id="patch_153">
    <path clip-path="url(#p98c7bfef03)" d="M 708.298958 590.1555 
L 712.432292 590.1555 
L 712.432292 590.1555 
L 708.298958 590.1555 
z
" style="fill:#1f77b4;"/>
   </g>
   <g id="patch_154">
    <path clip-path="url(#p98c7bfef03)" d="M 712.432292 590.1555 
L 716.565625 590.1555 
L 716.565625 590.1555 
L 712.432292 590.1555 
z
" style="fill:#1f77b4;"/>
   </g>
   <g id="patch_155">
    <path clip-path="url(#p98c7bfef03)" d="M 716.565625 590.1555 
L 720.698958 590.1555 
L 720.698958 590.1555 
L 716.565625 590.1555 
z
" style="fill:#1f77b4;"/>
   </g>
   <g id="patch_156">
    <path clip-path="url(#p98c7bfef03)" d="M 720.698958 590.1555 
L 724.832292 590.1555 
L 724.832292 590.1555 
L 720.698958 590.1555 
z
" style="fill:#1f77b4;"/>
   </g>
   <g id="patch_157">
    <path clip-path="url(#p98c7bfef03)" d="M 724.832292 590.1555 
L 728.965625 590.1555 
L 728.965625 590.1555 
L 724.832292 590.1555 
z
" style="fill:#1f77b4;"/>
   </g>
   <g id="patch_158">
    <path clip-path="url(#p98c7bfef03)" d="M 728.965625 590.1555 
L 733.098958 590.1555 
L 733.098958 590.1555 
L 728.965625 590.1555 
z
" style="fill:#1f77b4;"/>
   </g>
   <g id="patch_159">
    <path clip-path="url(#p98c7bfef03)" d="M 733.098958 590.1555 
L 737.232292 590.1555 
L 737.232292 590.1555 
L 733.098958 590.1555 
z
" style="fill:#1f77b4;"/>
   </g>
   <g id="patch_160">
    <path clip-path="url(#p98c7bfef03)" d="M 737.232292 590.1555 
L 741.365625 590.1555 
L 741.365625 590.1555 
L 737.232292 590.1555 
z
" style="fill:#1f77b4;"/>
   </g>
   <g id="patch_161">
    <path clip-path="url(#p98c7bfef03)" d="M 741.365625 590.1555 
L 745.498958 590.1555 
L 745.498958 590.1555 
L 741.365625 590.1555 
z
" style="fill:#1f77b4;"/>
   </g>
   <g id="patch_162">
    <path clip-path="url(#p98c7bfef03)" d="M 745.498958 590.1555 
L 749.632292 590.1555 
L 749.632292 590.1555 
L 745.498958 590.1555 
z
" style="fill:#1f77b4;"/>
   </g>
   <g id="patch_163">
    <path clip-path="url(#p98c7bfef03)" d="M 749.632292 590.1555 
L 753.765625 590.1555 
L 753.765625 590.1555 
L 749.632292 590.1555 
z
" style="fill:#1f77b4;"/>
   </g>
   <g id="patch_164">
    <path clip-path="url(#p98c7bfef03)" d="M 753.765625 590.1555 
L 757.898958 590.1555 
L 757.898958 590.1555 
L 753.765625 590.1555 
z
" style="fill:#1f77b4;"/>
   </g>
   <g id="patch_165">
    <path clip-path="url(#p98c7bfef03)" d="M 757.898958 590.1555 
L 762.032292 590.1555 
L 762.032292 590.1555 
L 757.898958 590.1555 
z
" style="fill:#1f77b4;"/>
   </g>
   <g id="patch_166">
    <path clip-path="url(#p98c7bfef03)" d="M 762.032292 590.1555 
L 766.165625 590.1555 
L 766.165625 590.1555 
L 762.032292 590.1555 
z
" style="fill:#1f77b4;"/>
   </g>
   <g id="patch_167">
    <path clip-path="url(#p98c7bfef03)" d="M 766.165625 590.1555 
L 770.298958 590.1555 
L 770.298958 590.1555 
L 766.165625 590.1555 
z
" style="fill:#1f77b4;"/>
   </g>
   <g id="patch_168">
    <path clip-path="url(#p98c7bfef03)" d="M 770.298958 590.1555 
L 774.432292 590.1555 
L 774.432292 590.1555 
L 770.298958 590.1555 
z
" style="fill:#1f77b4;"/>
   </g>
   <g id="patch_169">
    <path clip-path="url(#p98c7bfef03)" d="M 774.432292 590.1555 
L 778.565625 590.1555 
L 778.565625 590.1555 
L 774.432292 590.1555 
z
" style="fill:#1f77b4;"/>
   </g>
   <g id="patch_170">
    <path clip-path="url(#p98c7bfef03)" d="M 778.565625 590.1555 
L 782.698958 590.1555 
L 782.698958 590.1555 
L 778.565625 590.1555 
z
" style="fill:#1f77b4;"/>
   </g>
   <g id="patch_171">
    <path clip-path="url(#p98c7bfef03)" d="M 782.698958 590.1555 
L 786.832292 590.1555 
L 786.832292 590.1555 
L 782.698958 590.1555 
z
" style="fill:#1f77b4;"/>
   </g>
   <g id="patch_172">
    <path clip-path="url(#p98c7bfef03)" d="M 786.832292 590.1555 
L 790.965625 590.1555 
L 790.965625 590.1555 
L 786.832292 590.1555 
z
" style="fill:#1f77b4;"/>
   </g>
   <g id="patch_173">
    <path clip-path="url(#p98c7bfef03)" d="M 790.965625 590.1555 
L 795.098958 590.1555 
L 795.098958 590.1555 
L 790.965625 590.1555 
z
" style="fill:#1f77b4;"/>
   </g>
   <g id="patch_174">
    <path clip-path="url(#p98c7bfef03)" d="M 795.098958 590.1555 
L 799.232292 590.1555 
L 799.232292 590.1555 
L 795.098958 590.1555 
z
" style="fill:#1f77b4;"/>
   </g>
   <g id="patch_175">
    <path clip-path="url(#p98c7bfef03)" d="M 799.232292 590.1555 
L 803.365625 590.1555 
L 803.365625 590.1555 
L 799.232292 590.1555 
z
" style="fill:#1f77b4;"/>
   </g>
   <g id="patch_176">
    <path clip-path="url(#p98c7bfef03)" d="M 803.365625 590.1555 
L 807.498958 590.1555 
L 807.498958 590.1555 
L 803.365625 590.1555 
z
" style="fill:#1f77b4;"/>
   </g>
   <g id="patch_177">
    <path clip-path="url(#p98c7bfef03)" d="M 807.498958 590.1555 
L 811.632292 590.1555 
L 811.632292 590.1555 
L 807.498958 590.1555 
z
" style="fill:#1f77b4;"/>
   </g>
   <g id="patch_178">
    <path clip-path="url(#p98c7bfef03)" d="M 811.632292 590.1555 
L 815.765625 590.1555 
L 815.765625 590.1555 
L 811.632292 590.1555 
z
" style="fill:#1f77b4;"/>
   </g>
   <g id="patch_179">
    <path clip-path="url(#p98c7bfef03)" d="M 815.765625 590.1555 
L 819.898958 590.1555 
L 819.898958 590.1555 
L 815.765625 590.1555 
z
" style="fill:#1f77b4;"/>
   </g>
   <g id="patch_180">
    <path clip-path="url(#p98c7bfef03)" d="M 819.898958 590.1555 
L 824.032292 590.1555 
L 824.032292 590.1555 
L 819.898958 590.1555 
z
" style="fill:#1f77b4;"/>
   </g>
   <g id="patch_181">
    <path clip-path="url(#p98c7bfef03)" d="M 824.032292 590.1555 
L 828.165625 590.1555 
L 828.165625 590.1555 
L 824.032292 590.1555 
z
" style="fill:#1f77b4;"/>
   </g>
   <g id="patch_182">
    <path clip-path="url(#p98c7bfef03)" d="M 828.165625 590.1555 
L 832.298958 590.1555 
L 832.298958 590.1555 
L 828.165625 590.1555 
z
" style="fill:#1f77b4;"/>
   </g>
   <g id="patch_183">
    <path clip-path="url(#p98c7bfef03)" d="M 832.298958 590.1555 
L 836.432292 590.1555 
L 836.432292 590.1555 
L 832.298958 590.1555 
z
" style="fill:#1f77b4;"/>
   </g>
   <g id="patch_184">
    <path clip-path="url(#p98c7bfef03)" d="M 836.432292 590.1555 
L 840.565625 590.1555 
L 840.565625 590.1555 
L 836.432292 590.1555 
z
" style="fill:#1f77b4;"/>
   </g>
   <g id="patch_185">
    <path clip-path="url(#p98c7bfef03)" d="M 840.565625 590.1555 
L 844.698958 590.1555 
L 844.698958 590.1555 
L 840.565625 590.1555 
z
" style="fill:#1f77b4;"/>
   </g>
   <g id="patch_186">
    <path clip-path="url(#p98c7bfef03)" d="M 844.698958 590.1555 
L 848.832292 590.1555 
L 848.832292 590.1555 
L 844.698958 590.1555 
z
" style="fill:#1f77b4;"/>
   </g>
   <g id="patch_187">
    <path clip-path="url(#p98c7bfef03)" d="M 848.832292 590.1555 
L 852.965625 590.1555 
L 852.965625 590.1555 
L 848.832292 590.1555 
z
" style="fill:#1f77b4;"/>
   </g>
   <g id="patch_188">
    <path clip-path="url(#p98c7bfef03)" d="M 852.965625 590.1555 
L 857.098958 590.1555 
L 857.098958 590.1555 
L 852.965625 590.1555 
z
" style="fill:#1f77b4;"/>
   </g>
   <g id="patch_189">
    <path clip-path="url(#p98c7bfef03)" d="M 857.098958 590.1555 
L 861.232292 590.1555 
L 861.232292 590.1555 
L 857.098958 590.1555 
z
" style="fill:#1f77b4;"/>
   </g>
   <g id="patch_190">
    <path clip-path="url(#p98c7bfef03)" d="M 861.232292 590.1555 
L 865.365625 590.1555 
L 865.365625 590.1555 
L 861.232292 590.1555 
z
" style="fill:#1f77b4;"/>
   </g>
   <g id="patch_191">
    <path clip-path="url(#p98c7bfef03)" d="M 865.365625 590.1555 
L 869.498958 590.1555 
L 869.498958 590.1555 
L 865.365625 590.1555 
z
" style="fill:#1f77b4;"/>
   </g>
   <g id="patch_192">
    <path clip-path="url(#p98c7bfef03)" d="M 869.498958 590.1555 
L 873.632292 590.1555 
L 873.632292 590.1555 
L 869.498958 590.1555 
z
" style="fill:#1f77b4;"/>
   </g>
   <g id="patch_193">
    <path clip-path="url(#p98c7bfef03)" d="M 873.632292 590.1555 
L 877.765625 590.1555 
L 877.765625 590.1555 
L 873.632292 590.1555 
z
" style="fill:#1f77b4;"/>
   </g>
   <g id="patch_194">
    <path clip-path="url(#p98c7bfef03)" d="M 877.765625 590.1555 
L 881.898958 590.1555 
L 881.898958 590.1555 
L 877.765625 590.1555 
z
" style="fill:#1f77b4;"/>
   </g>
   <g id="patch_195">
    <path clip-path="url(#p98c7bfef03)" d="M 881.898958 590.1555 
L 886.032292 590.1555 
L 886.032292 590.1555 
L 881.898958 590.1555 
z
" style="fill:#1f77b4;"/>
   </g>
   <g id="patch_196">
    <path clip-path="url(#p98c7bfef03)" d="M 886.032292 590.1555 
L 890.165625 590.1555 
L 890.165625 590.1555 
L 886.032292 590.1555 
z
" style="fill:#1f77b4;"/>
   </g>
   <g id="patch_197">
    <path clip-path="url(#p98c7bfef03)" d="M 890.165625 590.1555 
L 894.298958 590.1555 
L 894.298958 590.1555 
L 890.165625 590.1555 
z
" style="fill:#1f77b4;"/>
   </g>
   <g id="patch_198">
    <path clip-path="url(#p98c7bfef03)" d="M 894.298958 590.1555 
L 898.432292 590.1555 
L 898.432292 590.1555 
L 894.298958 590.1555 
z
" style="fill:#1f77b4;"/>
   </g>
   <g id="patch_199">
    <path clip-path="url(#p98c7bfef03)" d="M 898.432292 590.1555 
L 902.565625 590.1555 
L 902.565625 590.1555 
L 898.432292 590.1555 
z
" style="fill:#1f77b4;"/>
   </g>
   <g id="patch_200">
    <path clip-path="url(#p98c7bfef03)" d="M 902.565625 590.1555 
L 906.698958 590.1555 
L 906.698958 590.1555 
L 902.565625 590.1555 
z
" style="fill:#1f77b4;"/>
   </g>
   <g id="patch_201">
    <path clip-path="url(#p98c7bfef03)" d="M 906.698958 590.1555 
L 910.832292 590.1555 
L 910.832292 590.1555 
L 906.698958 590.1555 
z
" style="fill:#1f77b4;"/>
   </g>
   <g id="patch_202">
    <path clip-path="url(#p98c7bfef03)" d="M 910.832292 590.1555 
L 914.965625 590.1555 
L 914.965625 590.1555 
L 910.832292 590.1555 
z
" style="fill:#1f77b4;"/>
   </g>
   <g id="patch_203">
    <path clip-path="url(#p98c7bfef03)" d="M 914.965625 590.1555 
L 919.098958 590.1555 
L 919.098958 590.1555 
L 914.965625 590.1555 
z
" style="fill:#1f77b4;"/>
   </g>
   <g id="patch_204">
    <path clip-path="url(#p98c7bfef03)" d="M 919.098958 590.1555 
L 923.232292 590.1555 
L 923.232292 590.1555 
L 919.098958 590.1555 
z
" style="fill:#1f77b4;"/>
   </g>
   <g id="patch_205">
    <path clip-path="url(#p98c7bfef03)" d="M 923.232292 590.1555 
L 927.365625 590.1555 
L 927.365625 590.1555 
L 923.232292 590.1555 
z
" style="fill:#1f77b4;"/>
   </g>
   <g id="patch_206">
    <path clip-path="url(#p98c7bfef03)" d="M 927.365625 590.1555 
L 931.498958 590.1555 
L 931.498958 590.1555 
L 927.365625 590.1555 
z
" style="fill:#1f77b4;"/>
   </g>
   <g id="patch_207">
    <path clip-path="url(#p98c7bfef03)" d="M 931.498958 590.1555 
L 935.632292 590.1555 
L 935.632292 590.1555 
L 931.498958 590.1555 
z
" style="fill:#1f77b4;"/>
   </g>
   <g id="patch_208">
    <path clip-path="url(#p98c7bfef03)" d="M 935.632292 590.1555 
L 939.765625 590.1555 
L 939.765625 590.1555 
L 935.632292 590.1555 
z
" style="fill:#1f77b4;"/>
   </g>
   <g id="patch_209">
    <path clip-path="url(#p98c7bfef03)" d="M 939.765625 590.1555 
L 943.898958 590.1555 
L 943.898958 590.1555 
L 939.765625 590.1555 
z
" style="fill:#1f77b4;"/>
   </g>
   <g id="patch_210">
    <path clip-path="url(#p98c7bfef03)" d="M 943.898958 590.1555 
L 948.032292 590.1555 
L 948.032292 590.1555 
L 943.898958 590.1555 
z
" style="fill:#1f77b4;"/>
   </g>
   <g id="patch_211">
    <path clip-path="url(#p98c7bfef03)" d="M 948.032292 590.1555 
L 952.165625 590.1555 
L 952.165625 590.1555 
L 948.032292 590.1555 
z
" style="fill:#1f77b4;"/>
   </g>
   <g id="patch_212">
    <path clip-path="url(#p98c7bfef03)" d="M 952.165625 590.1555 
L 956.298958 590.1555 
L 956.298958 590.1555 
L 952.165625 590.1555 
z
" style="fill:#1f77b4;"/>
   </g>
   <g id="patch_213">
    <path clip-path="url(#p98c7bfef03)" d="M 956.298958 590.1555 
L 960.432292 590.1555 
L 960.432292 590.1555 
L 956.298958 590.1555 
z
" style="fill:#1f77b4;"/>
   </g>
   <g id="patch_214">
    <path clip-path="url(#p98c7bfef03)" d="M 960.432292 590.1555 
L 964.565625 590.1555 
L 964.565625 590.1555 
L 960.432292 590.1555 
z
" style="fill:#1f77b4;"/>
   </g>
   <g id="patch_215">
    <path clip-path="url(#p98c7bfef03)" d="M 964.565625 590.1555 
L 968.698958 590.1555 
L 968.698958 590.1555 
L 964.565625 590.1555 
z
" style="fill:#1f77b4;"/>
   </g>
   <g id="patch_216">
    <path clip-path="url(#p98c7bfef03)" d="M 968.698958 590.1555 
L 972.832292 590.1555 
L 972.832292 590.1555 
L 968.698958 590.1555 
z
" style="fill:#1f77b4;"/>
   </g>
   <g id="patch_217">
    <path clip-path="url(#p98c7bfef03)" d="M 972.832292 590.1555 
L 976.965625 590.1555 
L 976.965625 590.1555 
L 972.832292 590.1555 
z
" style="fill:#1f77b4;"/>
   </g>
   <g id="patch_218">
    <path clip-path="url(#p98c7bfef03)" d="M 976.965625 590.1555 
L 981.098958 590.1555 
L 981.098958 590.1555 
L 976.965625 590.1555 
z
" style="fill:#1f77b4;"/>
   </g>
   <g id="patch_219">
    <path clip-path="url(#p98c7bfef03)" d="M 981.098958 590.1555 
L 985.232292 590.1555 
L 985.232292 590.1555 
L 981.098958 590.1555 
z
" style="fill:#1f77b4;"/>
   </g>
   <g id="patch_220">
    <path clip-path="url(#p98c7bfef03)" d="M 985.232292 590.1555 
L 989.365625 590.1555 
L 989.365625 590.1555 
L 985.232292 590.1555 
z
" style="fill:#1f77b4;"/>
   </g>
   <g id="patch_221">
    <path clip-path="url(#p98c7bfef03)" d="M 989.365625 590.1555 
L 993.498958 590.1555 
L 993.498958 590.1555 
L 989.365625 590.1555 
z
" style="fill:#1f77b4;"/>
   </g>
   <g id="patch_222">
    <path clip-path="url(#p98c7bfef03)" d="M 993.498958 590.1555 
L 997.632292 590.1555 
L 997.632292 590.1555 
L 993.498958 590.1555 
z
" style="fill:#1f77b4;"/>
   </g>
   <g id="patch_223">
    <path clip-path="url(#p98c7bfef03)" d="M 997.632292 590.1555 
L 1001.765625 590.1555 
L 1001.765625 590.1555 
L 997.632292 590.1555 
z
" style="fill:#1f77b4;"/>
   </g>
   <g id="patch_224">
    <path clip-path="url(#p98c7bfef03)" d="M 1001.765625 590.1555 
L 1005.898958 590.1555 
L 1005.898958 590.1555 
L 1001.765625 590.1555 
z
" style="fill:#1f77b4;"/>
   </g>
   <g id="patch_225">
    <path clip-path="url(#p98c7bfef03)" d="M 1005.898958 590.1555 
L 1010.032292 590.1555 
L 1010.032292 590.1555 
L 1005.898958 590.1555 
z
" style="fill:#1f77b4;"/>
   </g>
   <g id="patch_226">
    <path clip-path="url(#p98c7bfef03)" d="M 1010.032292 590.1555 
L 1014.165625 590.1555 
L 1014.165625 590.1555 
L 1010.032292 590.1555 
z
" style="fill:#1f77b4;"/>
   </g>
   <g id="patch_227">
    <path clip-path="url(#p98c7bfef03)" d="M 1014.165625 590.1555 
L 1018.298958 590.1555 
L 1018.298958 590.1555 
L 1014.165625 590.1555 
z
" style="fill:#1f77b4;"/>
   </g>
   <g id="patch_228">
    <path clip-path="url(#p98c7bfef03)" d="M 1018.298958 590.1555 
L 1022.432292 590.1555 
L 1022.432292 590.1555 
L 1018.298958 590.1555 
z
" style="fill:#1f77b4;"/>
   </g>
   <g id="patch_229">
    <path clip-path="url(#p98c7bfef03)" d="M 1022.432292 590.1555 
L 1026.565625 590.1555 
L 1026.565625 590.1555 
L 1022.432292 590.1555 
z
" style="fill:#1f77b4;"/>
   </g>
   <g id="patch_230">
    <path clip-path="url(#p98c7bfef03)" d="M 1026.565625 590.1555 
L 1030.698958 590.1555 
L 1030.698958 590.1555 
L 1026.565625 590.1555 
z
" style="fill:#1f77b4;"/>
   </g>
   <g id="patch_231">
    <path clip-path="url(#p98c7bfef03)" d="M 1030.698958 590.1555 
L 1034.832292 590.1555 
L 1034.832292 590.1555 
L 1030.698958 590.1555 
z
" style="fill:#1f77b4;"/>
   </g>
   <g id="patch_232">
    <path clip-path="url(#p98c7bfef03)" d="M 1034.832292 590.1555 
L 1038.965625 590.1555 
L 1038.965625 590.1555 
L 1034.832292 590.1555 
z
" style="fill:#1f77b4;"/>
   </g>
   <g id="patch_233">
    <path clip-path="url(#p98c7bfef03)" d="M 1038.965625 590.1555 
L 1043.098958 590.1555 
L 1043.098958 590.1555 
L 1038.965625 590.1555 
z
" style="fill:#1f77b4;"/>
   </g>
   <g id="patch_234">
    <path clip-path="url(#p98c7bfef03)" d="M 1043.098958 590.1555 
L 1047.232292 590.1555 
L 1047.232292 590.1555 
L 1043.098958 590.1555 
z
" style="fill:#1f77b4;"/>
   </g>
   <g id="patch_235">
    <path clip-path="url(#p98c7bfef03)" d="M 1047.232292 590.1555 
L 1051.365625 590.1555 
L 1051.365625 590.1555 
L 1047.232292 590.1555 
z
" style="fill:#1f77b4;"/>
   </g>
   <g id="patch_236">
    <path clip-path="url(#p98c7bfef03)" d="M 1051.365625 590.1555 
L 1055.498958 590.1555 
L 1055.498958 590.1555 
L 1051.365625 590.1555 
z
" style="fill:#1f77b4;"/>
   </g>
   <g id="patch_237">
    <path clip-path="url(#p98c7bfef03)" d="M 1055.498958 590.1555 
L 1059.632292 590.1555 
L 1059.632292 590.1555 
L 1055.498958 590.1555 
z
" style="fill:#1f77b4;"/>
   </g>
   <g id="patch_238">
    <path clip-path="url(#p98c7bfef03)" d="M 1059.632292 590.1555 
L 1063.765625 590.1555 
L 1063.765625 590.1555 
L 1059.632292 590.1555 
z
" style="fill:#1f77b4;"/>
   </g>
   <g id="patch_239">
    <path clip-path="url(#p98c7bfef03)" d="M 1063.765625 590.1555 
L 1067.898958 590.1555 
L 1067.898958 590.1555 
L 1063.765625 590.1555 
z
" style="fill:#1f77b4;"/>
   </g>
   <g id="patch_240">
    <path clip-path="url(#p98c7bfef03)" d="M 1067.898958 590.1555 
L 1072.032292 590.1555 
L 1072.032292 590.1555 
L 1067.898958 590.1555 
z
" style="fill:#1f77b4;"/>
   </g>
   <g id="patch_241">
    <path clip-path="url(#p98c7bfef03)" d="M 1072.032292 590.1555 
L 1076.165625 590.1555 
L 1076.165625 590.1555 
L 1072.032292 590.1555 
z
" style="fill:#1f77b4;"/>
   </g>
   <g id="patch_242">
    <path clip-path="url(#p98c7bfef03)" d="M 1076.165625 590.1555 
L 1080.298958 590.1555 
L 1080.298958 590.1555 
L 1076.165625 590.1555 
z
" style="fill:#1f77b4;"/>
   </g>
   <g id="patch_243">
    <path clip-path="url(#p98c7bfef03)" d="M 1080.298958 590.1555 
L 1084.432292 590.1555 
L 1084.432292 590.1555 
L 1080.298958 590.1555 
z
" style="fill:#1f77b4;"/>
   </g>
   <g id="patch_244">
    <path clip-path="url(#p98c7bfef03)" d="M 1084.432292 590.1555 
L 1088.565625 590.1555 
L 1088.565625 590.1555 
L 1084.432292 590.1555 
z
" style="fill:#1f77b4;"/>
   </g>
   <g id="patch_245">
    <path clip-path="url(#p98c7bfef03)" d="M 1088.565625 590.1555 
L 1092.698958 590.1555 
L 1092.698958 590.1555 
L 1088.565625 590.1555 
z
" style="fill:#1f77b4;"/>
   </g>
   <g id="patch_246">
    <path clip-path="url(#p98c7bfef03)" d="M 1092.698958 590.1555 
L 1096.832292 590.1555 
L 1096.832292 590.1555 
L 1092.698958 590.1555 
z
" style="fill:#1f77b4;"/>
   </g>
   <g id="patch_247">
    <path clip-path="url(#p98c7bfef03)" d="M 1096.832292 590.1555 
L 1100.965625 590.1555 
L 1100.965625 590.1555 
L 1096.832292 590.1555 
z
" style="fill:#1f77b4;"/>
   </g>
   <g id="patch_248">
    <path clip-path="url(#p98c7bfef03)" d="M 1100.965625 590.1555 
L 1105.098958 590.1555 
L 1105.098958 590.1555 
L 1100.965625 590.1555 
z
" style="fill:#1f77b4;"/>
   </g>
   <g id="patch_249">
    <path clip-path="url(#p98c7bfef03)" d="M 1105.098958 590.1555 
L 1109.232292 590.1555 
L 1109.232292 590.1555 
L 1105.098958 590.1555 
z
" style="fill:#1f77b4;"/>
   </g>
   <g id="patch_250">
    <path clip-path="url(#p98c7bfef03)" d="M 1109.232292 590.1555 
L 1113.365625 590.1555 
L 1113.365625 590.1555 
L 1109.232292 590.1555 
z
" style="fill:#1f77b4;"/>
   </g>
   <g id="patch_251">
    <path clip-path="url(#p98c7bfef03)" d="M 1113.365625 590.1555 
L 1117.498958 590.1555 
L 1117.498958 590.1555 
L 1113.365625 590.1555 
z
" style="fill:#1f77b4;"/>
   </g>
   <g id="patch_252">
    <path clip-path="url(#p98c7bfef03)" d="M 1117.498958 590.1555 
L 1121.632292 590.1555 
L 1121.632292 590.1555 
L 1117.498958 590.1555 
z
" style="fill:#1f77b4;"/>
   </g>
   <g id="matplotlib.axis_1">
    <g id="xtick_1">
     <g id="line2d_1">
      <defs>
       <path d="M 0 0 
L 0 3.5 
" id="mcd499794a1" style="stroke:#000000;stroke-width:0.8;"/>
      </defs>
      <g>
       <use style="stroke:#000000;stroke-width:0.8;" x="88.298958" xlink:href="#mcd499794a1" y="590.1555"/>
      </g>
     </g>
     <g id="text_1">
      <!-- 0 -->
      <defs>
       <path d="M 31.78125 66.40625 
Q 24.171875 66.40625 20.328125 58.90625 
Q 16.5 51.421875 16.5 36.375 
Q 16.5 21.390625 20.328125 13.890625 
Q 24.171875 6.390625 31.78125 6.390625 
Q 39.453125 6.390625 43.28125 13.890625 
Q 47.125 21.390625 47.125 36.375 
Q 47.125 51.421875 43.28125 58.90625 
Q 39.453125 66.40625 31.78125 66.40625 
z
M 31.78125 74.21875 
Q 44.046875 74.21875 50.515625 64.515625 
Q 56.984375 54.828125 56.984375 36.375 
Q 56.984375 17.96875 50.515625 8.265625 
Q 44.046875 -1.421875 31.78125 -1.421875 
Q 19.53125 -1.421875 13.0625 8.265625 
Q 6.59375 17.96875 6.59375 36.375 
Q 6.59375 54.828125 13.0625 64.515625 
Q 19.53125 74.21875 31.78125 74.21875 
z
" id="DejaVuSans-30"/>
      </defs>
      <g transform="translate(85.117708 604.753938)scale(0.1 -0.1)">
       <use xlink:href="#DejaVuSans-30"/>
      </g>
     </g>
    </g>
    <g id="xtick_2">
     <g id="line2d_2">
      <g>
       <use style="stroke:#000000;stroke-width:0.8;" x="294.965625" xlink:href="#mcd499794a1" y="590.1555"/>
      </g>
     </g>
     <g id="text_2">
      <!-- 50 -->
      <defs>
       <path d="M 10.796875 72.90625 
L 49.515625 72.90625 
L 49.515625 64.59375 
L 19.828125 64.59375 
L 19.828125 46.734375 
Q 21.96875 47.46875 24.109375 47.828125 
Q 26.265625 48.1875 28.421875 48.1875 
Q 40.625 48.1875 47.75 41.5 
Q 54.890625 34.8125 54.890625 23.390625 
Q 54.890625 11.625 47.5625 5.09375 
Q 40.234375 -1.421875 26.90625 -1.421875 
Q 22.3125 -1.421875 17.546875 -0.640625 
Q 12.796875 0.140625 7.71875 1.703125 
L 7.71875 11.625 
Q 12.109375 9.234375 16.796875 8.0625 
Q 21.484375 6.890625 26.703125 6.890625 
Q 35.15625 6.890625 40.078125 11.328125 
Q 45.015625 15.765625 45.015625 23.390625 
Q 45.015625 31 40.078125 35.4375 
Q 35.15625 39.890625 26.703125 39.890625 
Q 22.75 39.890625 18.8125 39.015625 
Q 14.890625 38.140625 10.796875 36.28125 
z
" id="DejaVuSans-35"/>
      </defs>
      <g transform="translate(288.603125 604.753938)scale(0.1 -0.1)">
       <use xlink:href="#DejaVuSans-35"/>
       <use x="63.623047" xlink:href="#DejaVuSans-30"/>
      </g>
     </g>
    </g>
    <g id="xtick_3">
     <g id="line2d_3">
      <g>
       <use style="stroke:#000000;stroke-width:0.8;" x="501.632292" xlink:href="#mcd499794a1" y="590.1555"/>
      </g>
     </g>
     <g id="text_3">
      <!-- 100 -->
      <defs>
       <path d="M 12.40625 8.296875 
L 28.515625 8.296875 
L 28.515625 63.921875 
L 10.984375 60.40625 
L 10.984375 69.390625 
L 28.421875 72.90625 
L 38.28125 72.90625 
L 38.28125 8.296875 
L 54.390625 8.296875 
L 54.390625 0 
L 12.40625 0 
z
" id="DejaVuSans-31"/>
      </defs>
      <g transform="translate(492.088542 604.753938)scale(0.1 -0.1)">
       <use xlink:href="#DejaVuSans-31"/>
       <use x="63.623047" xlink:href="#DejaVuSans-30"/>
       <use x="127.246094" xlink:href="#DejaVuSans-30"/>
      </g>
     </g>
    </g>
    <g id="xtick_4">
     <g id="line2d_4">
      <g>
       <use style="stroke:#000000;stroke-width:0.8;" x="708.298958" xlink:href="#mcd499794a1" y="590.1555"/>
      </g>
     </g>
     <g id="text_4">
      <!-- 150 -->
      <g transform="translate(698.755208 604.753938)scale(0.1 -0.1)">
       <use xlink:href="#DejaVuSans-31"/>
       <use x="63.623047" xlink:href="#DejaVuSans-35"/>
       <use x="127.246094" xlink:href="#DejaVuSans-30"/>
      </g>
     </g>
    </g>
    <g id="xtick_5">
     <g id="line2d_5">
      <g>
       <use style="stroke:#000000;stroke-width:0.8;" x="914.965625" xlink:href="#mcd499794a1" y="590.1555"/>
      </g>
     </g>
     <g id="text_5">
      <!-- 200 -->
      <defs>
       <path d="M 19.1875 8.296875 
L 53.609375 8.296875 
L 53.609375 0 
L 7.328125 0 
L 7.328125 8.296875 
Q 12.9375 14.109375 22.625 23.890625 
Q 32.328125 33.6875 34.8125 36.53125 
Q 39.546875 41.84375 41.421875 45.53125 
Q 43.3125 49.21875 43.3125 52.78125 
Q 43.3125 58.59375 39.234375 62.25 
Q 35.15625 65.921875 28.609375 65.921875 
Q 23.96875 65.921875 18.8125 64.3125 
Q 13.671875 62.703125 7.8125 59.421875 
L 7.8125 69.390625 
Q 13.765625 71.78125 18.9375 73 
Q 24.125 74.21875 28.421875 74.21875 
Q 39.75 74.21875 46.484375 68.546875 
Q 53.21875 62.890625 53.21875 53.421875 
Q 53.21875 48.921875 51.53125 44.890625 
Q 49.859375 40.875 45.40625 35.40625 
Q 44.1875 33.984375 37.640625 27.21875 
Q 31.109375 20.453125 19.1875 8.296875 
z
" id="DejaVuSans-32"/>
      </defs>
      <g transform="translate(905.421875 604.753938)scale(0.1 -0.1)">
       <use xlink:href="#DejaVuSans-32"/>
       <use x="63.623047" xlink:href="#DejaVuSans-30"/>
       <use x="127.246094" xlink:href="#DejaVuSans-30"/>
      </g>
     </g>
    </g>
    <g id="xtick_6">
     <g id="line2d_6">
      <g>
       <use style="stroke:#000000;stroke-width:0.8;" x="1121.632292" xlink:href="#mcd499794a1" y="590.1555"/>
      </g>
     </g>
     <g id="text_6">
      <!-- 250 -->
      <g transform="translate(1112.088542 604.753938)scale(0.1 -0.1)">
       <use xlink:href="#DejaVuSans-32"/>
       <use x="63.623047" xlink:href="#DejaVuSans-35"/>
       <use x="127.246094" xlink:href="#DejaVuSans-30"/>
      </g>
     </g>
    </g>
    <g id="text_7">
     <!-- Number of nodes connections events -->
     <defs>
      <path d="M 9.8125 72.90625 
L 23.09375 72.90625 
L 55.421875 11.921875 
L 55.421875 72.90625 
L 64.984375 72.90625 
L 64.984375 0 
L 51.703125 0 
L 19.390625 60.984375 
L 19.390625 0 
L 9.8125 0 
z
" id="DejaVuSans-4e"/>
      <path d="M 8.5 21.578125 
L 8.5 54.6875 
L 17.484375 54.6875 
L 17.484375 21.921875 
Q 17.484375 14.15625 20.5 10.265625 
Q 23.53125 6.390625 29.59375 6.390625 
Q 36.859375 6.390625 41.078125 11.03125 
Q 45.3125 15.671875 45.3125 23.6875 
L 45.3125 54.6875 
L 54.296875 54.6875 
L 54.296875 0 
L 45.3125 0 
L 45.3125 8.40625 
Q 42.046875 3.421875 37.71875 1 
Q 33.40625 -1.421875 27.6875 -1.421875 
Q 18.265625 -1.421875 13.375 4.4375 
Q 8.5 10.296875 8.5 21.578125 
z
M 31.109375 56 
z
" id="DejaVuSans-75"/>
      <path d="M 52 44.1875 
Q 55.375 50.25 60.0625 53.125 
Q 64.75 56 71.09375 56 
Q 79.640625 56 84.28125 50.015625 
Q 88.921875 44.046875 88.921875 33.015625 
L 88.921875 0 
L 79.890625 0 
L 79.890625 32.71875 
Q 79.890625 40.578125 77.09375 44.375 
Q 74.3125 48.1875 68.609375 48.1875 
Q 61.625 48.1875 57.5625 43.546875 
Q 53.515625 38.921875 53.515625 30.90625 
L 53.515625 0 
L 44.484375 0 
L 44.484375 32.71875 
Q 44.484375 40.625 41.703125 44.40625 
Q 38.921875 48.1875 33.109375 48.1875 
Q 26.21875 48.1875 22.15625 43.53125 
Q 18.109375 38.875 18.109375 30.90625 
L 18.109375 0 
L 9.078125 0 
L 9.078125 54.6875 
L 18.109375 54.6875 
L 18.109375 46.1875 
Q 21.1875 51.21875 25.484375 53.609375 
Q 29.78125 56 35.6875 56 
Q 41.65625 56 45.828125 52.96875 
Q 50 49.953125 52 44.1875 
z
" id="DejaVuSans-6d"/>
      <path d="M 48.6875 27.296875 
Q 48.6875 37.203125 44.609375 42.84375 
Q 40.53125 48.484375 33.40625 48.484375 
Q 26.265625 48.484375 22.1875 42.84375 
Q 18.109375 37.203125 18.109375 27.296875 
Q 18.109375 17.390625 22.1875 11.75 
Q 26.265625 6.109375 33.40625 6.109375 
Q 40.53125 6.109375 44.609375 11.75 
Q 48.6875 17.390625 48.6875 27.296875 
z
M 18.109375 46.390625 
Q 20.953125 51.265625 25.265625 53.625 
Q 29.59375 56 35.59375 56 
Q 45.5625 56 51.78125 48.09375 
Q 58.015625 40.1875 58.015625 27.296875 
Q 58.015625 14.40625 51.78125 6.484375 
Q 45.5625 -1.421875 35.59375 -1.421875 
Q 29.59375 -1.421875 25.265625 0.953125 
Q 20.953125 3.328125 18.109375 8.203125 
L 18.109375 0 
L 9.078125 0 
L 9.078125 75.984375 
L 18.109375 75.984375 
z
" id="DejaVuSans-62"/>
      <path d="M 56.203125 29.59375 
L 56.203125 25.203125 
L 14.890625 25.203125 
Q 15.484375 15.921875 20.484375 11.0625 
Q 25.484375 6.203125 34.421875 6.203125 
Q 39.59375 6.203125 44.453125 7.46875 
Q 49.3125 8.734375 54.109375 11.28125 
L 54.109375 2.78125 
Q 49.265625 0.734375 44.1875 -0.34375 
Q 39.109375 -1.421875 33.890625 -1.421875 
Q 20.796875 -1.421875 13.15625 6.1875 
Q 5.515625 13.8125 5.515625 26.8125 
Q 5.515625 40.234375 12.765625 48.109375 
Q 20.015625 56 32.328125 56 
Q 43.359375 56 49.78125 48.890625 
Q 56.203125 41.796875 56.203125 29.59375 
z
M 47.21875 32.234375 
Q 47.125 39.59375 43.09375 43.984375 
Q 39.0625 48.390625 32.421875 48.390625 
Q 24.90625 48.390625 20.390625 44.140625 
Q 15.875 39.890625 15.1875 32.171875 
z
" id="DejaVuSans-65"/>
      <path d="M 41.109375 46.296875 
Q 39.59375 47.171875 37.8125 47.578125 
Q 36.03125 48 33.890625 48 
Q 26.265625 48 22.1875 43.046875 
Q 18.109375 38.09375 18.109375 28.8125 
L 18.109375 0 
L 9.078125 0 
L 9.078125 54.6875 
L 18.109375 54.6875 
L 18.109375 46.1875 
Q 20.953125 51.171875 25.484375 53.578125 
Q 30.03125 56 36.53125 56 
Q 37.453125 56 38.578125 55.875 
Q 39.703125 55.765625 41.0625 55.515625 
z
" id="DejaVuSans-72"/>
      <path id="DejaVuSans-20"/>
      <path d="M 30.609375 48.390625 
Q 23.390625 48.390625 19.1875 42.75 
Q 14.984375 37.109375 14.984375 27.296875 
Q 14.984375 17.484375 19.15625 11.84375 
Q 23.34375 6.203125 30.609375 6.203125 
Q 37.796875 6.203125 41.984375 11.859375 
Q 46.1875 17.53125 46.1875 27.296875 
Q 46.1875 37.015625 41.984375 42.703125 
Q 37.796875 48.390625 30.609375 48.390625 
z
M 30.609375 56 
Q 42.328125 56 49.015625 48.375 
Q 55.71875 40.765625 55.71875 27.296875 
Q 55.71875 13.875 49.015625 6.21875 
Q 42.328125 -1.421875 30.609375 -1.421875 
Q 18.84375 -1.421875 12.171875 6.21875 
Q 5.515625 13.875 5.515625 27.296875 
Q 5.515625 40.765625 12.171875 48.375 
Q 18.84375 56 30.609375 56 
z
" id="DejaVuSans-6f"/>
      <path d="M 37.109375 75.984375 
L 37.109375 68.5 
L 28.515625 68.5 
Q 23.6875 68.5 21.796875 66.546875 
Q 19.921875 64.59375 19.921875 59.515625 
L 19.921875 54.6875 
L 34.71875 54.6875 
L 34.71875 47.703125 
L 19.921875 47.703125 
L 19.921875 0 
L 10.890625 0 
L 10.890625 47.703125 
L 2.296875 47.703125 
L 2.296875 54.6875 
L 10.890625 54.6875 
L 10.890625 58.5 
Q 10.890625 67.625 15.140625 71.796875 
Q 19.390625 75.984375 28.609375 75.984375 
z
" id="DejaVuSans-66"/>
      <path d="M 54.890625 33.015625 
L 54.890625 0 
L 45.90625 0 
L 45.90625 32.71875 
Q 45.90625 40.484375 42.875 44.328125 
Q 39.84375 48.1875 33.796875 48.1875 
Q 26.515625 48.1875 22.3125 43.546875 
Q 18.109375 38.921875 18.109375 30.90625 
L 18.109375 0 
L 9.078125 0 
L 9.078125 54.6875 
L 18.109375 54.6875 
L 18.109375 46.1875 
Q 21.34375 51.125 25.703125 53.5625 
Q 30.078125 56 35.796875 56 
Q 45.21875 56 50.046875 50.171875 
Q 54.890625 44.34375 54.890625 33.015625 
z
" id="DejaVuSans-6e"/>
      <path d="M 45.40625 46.390625 
L 45.40625 75.984375 
L 54.390625 75.984375 
L 54.390625 0 
L 45.40625 0 
L 45.40625 8.203125 
Q 42.578125 3.328125 38.25 0.953125 
Q 33.9375 -1.421875 27.875 -1.421875 
Q 17.96875 -1.421875 11.734375 6.484375 
Q 5.515625 14.40625 5.515625 27.296875 
Q 5.515625 40.1875 11.734375 48.09375 
Q 17.96875 56 27.875 56 
Q 33.9375 56 38.25 53.625 
Q 42.578125 51.265625 45.40625 46.390625 
z
M 14.796875 27.296875 
Q 14.796875 17.390625 18.875 11.75 
Q 22.953125 6.109375 30.078125 6.109375 
Q 37.203125 6.109375 41.296875 11.75 
Q 45.40625 17.390625 45.40625 27.296875 
Q 45.40625 37.203125 41.296875 42.84375 
Q 37.203125 48.484375 30.078125 48.484375 
Q 22.953125 48.484375 18.875 42.84375 
Q 14.796875 37.203125 14.796875 27.296875 
z
" id="DejaVuSans-64"/>
      <path d="M 44.28125 53.078125 
L 44.28125 44.578125 
Q 40.484375 46.53125 36.375 47.5 
Q 32.28125 48.484375 27.875 48.484375 
Q 21.1875 48.484375 17.84375 46.4375 
Q 14.5 44.390625 14.5 40.28125 
Q 14.5 37.15625 16.890625 35.375 
Q 19.28125 33.59375 26.515625 31.984375 
L 29.59375 31.296875 
Q 39.15625 29.25 43.1875 25.515625 
Q 47.21875 21.78125 47.21875 15.09375 
Q 47.21875 7.46875 41.1875 3.015625 
Q 35.15625 -1.421875 24.609375 -1.421875 
Q 20.21875 -1.421875 15.453125 -0.5625 
Q 10.6875 0.296875 5.421875 2 
L 5.421875 11.28125 
Q 10.40625 8.6875 15.234375 7.390625 
Q 20.0625 6.109375 24.8125 6.109375 
Q 31.15625 6.109375 34.5625 8.28125 
Q 37.984375 10.453125 37.984375 14.40625 
Q 37.984375 18.0625 35.515625 20.015625 
Q 33.0625 21.96875 24.703125 23.78125 
L 21.578125 24.515625 
Q 13.234375 26.265625 9.515625 29.90625 
Q 5.8125 33.546875 5.8125 39.890625 
Q 5.8125 47.609375 11.28125 51.796875 
Q 16.75 56 26.8125 56 
Q 31.78125 56 36.171875 55.265625 
Q 40.578125 54.546875 44.28125 53.078125 
z
" id="DejaVuSans-73"/>
      <path d="M 48.78125 52.59375 
L 48.78125 44.1875 
Q 44.96875 46.296875 41.140625 47.34375 
Q 37.3125 48.390625 33.40625 48.390625 
Q 24.65625 48.390625 19.8125 42.84375 
Q 14.984375 37.3125 14.984375 27.296875 
Q 14.984375 17.28125 19.8125 11.734375 
Q 24.65625 6.203125 33.40625 6.203125 
Q 37.3125 6.203125 41.140625 7.25 
Q 44.96875 8.296875 48.78125 10.40625 
L 48.78125 2.09375 
Q 45.015625 0.34375 40.984375 -0.53125 
Q 36.96875 -1.421875 32.421875 -1.421875 
Q 20.0625 -1.421875 12.78125 6.34375 
Q 5.515625 14.109375 5.515625 27.296875 
Q 5.515625 40.671875 12.859375 48.328125 
Q 20.21875 56 33.015625 56 
Q 37.15625 56 41.109375 55.140625 
Q 45.0625 54.296875 48.78125 52.59375 
z
" id="DejaVuSans-63"/>
      <path d="M 18.3125 70.21875 
L 18.3125 54.6875 
L 36.8125 54.6875 
L 36.8125 47.703125 
L 18.3125 47.703125 
L 18.3125 18.015625 
Q 18.3125 11.328125 20.140625 9.421875 
Q 21.96875 7.515625 27.59375 7.515625 
L 36.8125 7.515625 
L 36.8125 0 
L 27.59375 0 
Q 17.1875 0 13.234375 3.875 
Q 9.28125 7.765625 9.28125 18.015625 
L 9.28125 47.703125 
L 2.6875 47.703125 
L 2.6875 54.6875 
L 9.28125 54.6875 
L 9.28125 70.21875 
z
" id="DejaVuSans-74"/>
      <path d="M 9.421875 54.6875 
L 18.40625 54.6875 
L 18.40625 0 
L 9.421875 0 
z
M 9.421875 75.984375 
L 18.40625 75.984375 
L 18.40625 64.59375 
L 9.421875 64.59375 
z
" id="DejaVuSans-69"/>
      <path d="M 2.984375 54.6875 
L 12.5 54.6875 
L 29.59375 8.796875 
L 46.6875 54.6875 
L 56.203125 54.6875 
L 35.6875 0 
L 23.484375 0 
z
" id="DejaVuSans-76"/>
     </defs>
     <g transform="translate(511.620313 618.432063)scale(0.1 -0.1)">
      <use xlink:href="#DejaVuSans-4e"/>
      <use x="74.804688" xlink:href="#DejaVuSans-75"/>
      <use x="138.183594" xlink:href="#DejaVuSans-6d"/>
      <use x="235.595703" xlink:href="#DejaVuSans-62"/>
      <use x="299.072266" xlink:href="#DejaVuSans-65"/>
      <use x="360.595703" xlink:href="#DejaVuSans-72"/>
      <use x="401.708984" xlink:href="#DejaVuSans-20"/>
      <use x="433.496094" xlink:href="#DejaVuSans-6f"/>
      <use x="494.677734" xlink:href="#DejaVuSans-66"/>
      <use x="529.882812" xlink:href="#DejaVuSans-20"/>
      <use x="561.669922" xlink:href="#DejaVuSans-6e"/>
      <use x="625.048828" xlink:href="#DejaVuSans-6f"/>
      <use x="686.230469" xlink:href="#DejaVuSans-64"/>
      <use x="749.707031" xlink:href="#DejaVuSans-65"/>
      <use x="811.230469" xlink:href="#DejaVuSans-73"/>
      <use x="863.330078" xlink:href="#DejaVuSans-20"/>
      <use x="895.117188" xlink:href="#DejaVuSans-63"/>
      <use x="950.097656" xlink:href="#DejaVuSans-6f"/>
      <use x="1011.279297" xlink:href="#DejaVuSans-6e"/>
      <use x="1074.658203" xlink:href="#DejaVuSans-6e"/>
      <use x="1138.037109" xlink:href="#DejaVuSans-65"/>
      <use x="1199.560547" xlink:href="#DejaVuSans-63"/>
      <use x="1254.541016" xlink:href="#DejaVuSans-74"/>
      <use x="1293.75" xlink:href="#DejaVuSans-69"/>
      <use x="1321.533203" xlink:href="#DejaVuSans-6f"/>
      <use x="1382.714844" xlink:href="#DejaVuSans-6e"/>
      <use x="1446.09375" xlink:href="#DejaVuSans-73"/>
      <use x="1498.193359" xlink:href="#DejaVuSans-20"/>
      <use x="1529.980469" xlink:href="#DejaVuSans-65"/>
      <use x="1591.503906" xlink:href="#DejaVuSans-76"/>
      <use x="1650.683594" xlink:href="#DejaVuSans-65"/>
      <use x="1712.207031" xlink:href="#DejaVuSans-6e"/>
      <use x="1775.585938" xlink:href="#DejaVuSans-74"/>
      <use x="1814.794922" xlink:href="#DejaVuSans-73"/>
     </g>
    </g>
   </g>
   <g id="matplotlib.axis_2">
    <g id="ytick_1">
     <g id="line2d_7">
      <defs>
       <path d="M 0 0 
L -3.5 0 
" id="m84d91594b7" style="stroke:#000000;stroke-width:0.8;"/>
      </defs>
      <g>
       <use style="stroke:#000000;stroke-width:0.8;" x="46.965625" xlink:href="#m84d91594b7" y="590.1555"/>
      </g>
     </g>
     <g id="text_8">
      <!-- 0 -->
      <g transform="translate(33.603125 593.954719)scale(0.1 -0.1)">
       <use xlink:href="#DejaVuSans-30"/>
      </g>
     </g>
    </g>
    <g id="ytick_2">
     <g id="line2d_8">
      <g>
       <use style="stroke:#000000;stroke-width:0.8;" x="46.965625" xlink:href="#m84d91594b7" y="499.89909"/>
      </g>
     </g>
     <g id="text_9">
      <!-- 20 -->
      <g transform="translate(27.240625 503.698308)scale(0.1 -0.1)">
       <use xlink:href="#DejaVuSans-32"/>
       <use x="63.623047" xlink:href="#DejaVuSans-30"/>
      </g>
     </g>
    </g>
    <g id="ytick_3">
     <g id="line2d_9">
      <g>
       <use style="stroke:#000000;stroke-width:0.8;" x="46.965625" xlink:href="#m84d91594b7" y="409.642679"/>
      </g>
     </g>
     <g id="text_10">
      <!-- 40 -->
      <defs>
       <path d="M 37.796875 64.3125 
L 12.890625 25.390625 
L 37.796875 25.390625 
z
M 35.203125 72.90625 
L 47.609375 72.90625 
L 47.609375 25.390625 
L 58.015625 25.390625 
L 58.015625 17.1875 
L 47.609375 17.1875 
L 47.609375 0 
L 37.796875 0 
L 37.796875 17.1875 
L 4.890625 17.1875 
L 4.890625 26.703125 
z
" id="DejaVuSans-34"/>
      </defs>
      <g transform="translate(27.240625 413.441898)scale(0.1 -0.1)">
       <use xlink:href="#DejaVuSans-34"/>
       <use x="63.623047" xlink:href="#DejaVuSans-30"/>
      </g>
     </g>
    </g>
    <g id="ytick_4">
     <g id="line2d_10">
      <g>
       <use style="stroke:#000000;stroke-width:0.8;" x="46.965625" xlink:href="#m84d91594b7" y="319.386269"/>
      </g>
     </g>
     <g id="text_11">
      <!-- 60 -->
      <defs>
       <path d="M 33.015625 40.375 
Q 26.375 40.375 22.484375 35.828125 
Q 18.609375 31.296875 18.609375 23.390625 
Q 18.609375 15.53125 22.484375 10.953125 
Q 26.375 6.390625 33.015625 6.390625 
Q 39.65625 6.390625 43.53125 10.953125 
Q 47.40625 15.53125 47.40625 23.390625 
Q 47.40625 31.296875 43.53125 35.828125 
Q 39.65625 40.375 33.015625 40.375 
z
M 52.59375 71.296875 
L 52.59375 62.3125 
Q 48.875 64.0625 45.09375 64.984375 
Q 41.3125 65.921875 37.59375 65.921875 
Q 27.828125 65.921875 22.671875 59.328125 
Q 17.53125 52.734375 16.796875 39.40625 
Q 19.671875 43.65625 24.015625 45.921875 
Q 28.375 48.1875 33.59375 48.1875 
Q 44.578125 48.1875 50.953125 41.515625 
Q 57.328125 34.859375 57.328125 23.390625 
Q 57.328125 12.15625 50.6875 5.359375 
Q 44.046875 -1.421875 33.015625 -1.421875 
Q 20.359375 -1.421875 13.671875 8.265625 
Q 6.984375 17.96875 6.984375 36.375 
Q 6.984375 53.65625 15.1875 63.9375 
Q 23.390625 74.21875 37.203125 74.21875 
Q 40.921875 74.21875 44.703125 73.484375 
Q 48.484375 72.75 52.59375 71.296875 
z
" id="DejaVuSans-36"/>
      </defs>
      <g transform="translate(27.240625 323.185488)scale(0.1 -0.1)">
       <use xlink:href="#DejaVuSans-36"/>
       <use x="63.623047" xlink:href="#DejaVuSans-30"/>
      </g>
     </g>
    </g>
    <g id="ytick_5">
     <g id="line2d_11">
      <g>
       <use style="stroke:#000000;stroke-width:0.8;" x="46.965625" xlink:href="#m84d91594b7" y="229.129859"/>
      </g>
     </g>
     <g id="text_12">
      <!-- 80 -->
      <defs>
       <path d="M 31.78125 34.625 
Q 24.75 34.625 20.71875 30.859375 
Q 16.703125 27.09375 16.703125 20.515625 
Q 16.703125 13.921875 20.71875 10.15625 
Q 24.75 6.390625 31.78125 6.390625 
Q 38.8125 6.390625 42.859375 10.171875 
Q 46.921875 13.96875 46.921875 20.515625 
Q 46.921875 27.09375 42.890625 30.859375 
Q 38.875 34.625 31.78125 34.625 
z
M 21.921875 38.8125 
Q 15.578125 40.375 12.03125 44.71875 
Q 8.5 49.078125 8.5 55.328125 
Q 8.5 64.0625 14.71875 69.140625 
Q 20.953125 74.21875 31.78125 74.21875 
Q 42.671875 74.21875 48.875 69.140625 
Q 55.078125 64.0625 55.078125 55.328125 
Q 55.078125 49.078125 51.53125 44.71875 
Q 48 40.375 41.703125 38.8125 
Q 48.828125 37.15625 52.796875 32.3125 
Q 56.78125 27.484375 56.78125 20.515625 
Q 56.78125 9.90625 50.3125 4.234375 
Q 43.84375 -1.421875 31.78125 -1.421875 
Q 19.734375 -1.421875 13.25 4.234375 
Q 6.78125 9.90625 6.78125 20.515625 
Q 6.78125 27.484375 10.78125 32.3125 
Q 14.796875 37.15625 21.921875 38.8125 
z
M 18.3125 54.390625 
Q 18.3125 48.734375 21.84375 45.5625 
Q 25.390625 42.390625 31.78125 42.390625 
Q 38.140625 42.390625 41.71875 45.5625 
Q 45.3125 48.734375 45.3125 54.390625 
Q 45.3125 60.0625 41.71875 63.234375 
Q 38.140625 66.40625 31.78125 66.40625 
Q 25.390625 66.40625 21.84375 63.234375 
Q 18.3125 60.0625 18.3125 54.390625 
z
" id="DejaVuSans-38"/>
      </defs>
      <g transform="translate(27.240625 232.929078)scale(0.1 -0.1)">
       <use xlink:href="#DejaVuSans-38"/>
       <use x="63.623047" xlink:href="#DejaVuSans-30"/>
      </g>
     </g>
    </g>
    <g id="ytick_6">
     <g id="line2d_12">
      <g>
       <use style="stroke:#000000;stroke-width:0.8;" x="46.965625" xlink:href="#m84d91594b7" y="138.873449"/>
      </g>
     </g>
     <g id="text_13">
      <!-- 100 -->
      <g transform="translate(20.878125 142.672667)scale(0.1 -0.1)">
       <use xlink:href="#DejaVuSans-31"/>
       <use x="63.623047" xlink:href="#DejaVuSans-30"/>
       <use x="127.246094" xlink:href="#DejaVuSans-30"/>
      </g>
     </g>
    </g>
    <g id="ytick_7">
     <g id="line2d_13">
      <g>
       <use style="stroke:#000000;stroke-width:0.8;" x="46.965625" xlink:href="#m84d91594b7" y="48.617038"/>
      </g>
     </g>
     <g id="text_14">
      <!-- 120 -->
      <g transform="translate(20.878125 52.416257)scale(0.1 -0.1)">
       <use xlink:href="#DejaVuSans-31"/>
       <use x="63.623047" xlink:href="#DejaVuSans-32"/>
       <use x="127.246094" xlink:href="#DejaVuSans-30"/>
      </g>
     </g>
    </g>
    <g id="text_15">
     <!-- Number of nodes -->
     <g transform="translate(14.798438 356.122688)rotate(-90)scale(0.1 -0.1)">
      <use xlink:href="#DejaVuSans-4e"/>
      <use x="74.804688" xlink:href="#DejaVuSans-75"/>
      <use x="138.183594" xlink:href="#DejaVuSans-6d"/>
      <use x="235.595703" xlink:href="#DejaVuSans-62"/>
      <use x="299.072266" xlink:href="#DejaVuSans-65"/>
      <use x="360.595703" xlink:href="#DejaVuSans-72"/>
      <use x="401.708984" xlink:href="#DejaVuSans-20"/>
      <use x="433.496094" xlink:href="#DejaVuSans-6f"/>
      <use x="494.677734" xlink:href="#DejaVuSans-66"/>
      <use x="529.882812" xlink:href="#DejaVuSans-20"/>
      <use x="561.669922" xlink:href="#DejaVuSans-6e"/>
      <use x="625.048828" xlink:href="#DejaVuSans-6f"/>
      <use x="686.230469" xlink:href="#DejaVuSans-64"/>
      <use x="749.707031" xlink:href="#DejaVuSans-65"/>
      <use x="811.230469" xlink:href="#DejaVuSans-73"/>
     </g>
    </g>
   </g>
   <g id="patch_253">
    <path d="M 46.965625 590.1555 
L 46.965625 35.7555 
" style="fill:none;stroke:#000000;stroke-linecap:square;stroke-linejoin:miter;stroke-width:0.8;"/>
   </g>
   <g id="patch_254">
    <path d="M 1162.965625 590.1555 
L 1162.965625 35.7555 
" style="fill:none;stroke:#000000;stroke-linecap:square;stroke-linejoin:miter;stroke-width:0.8;"/>
   </g>
   <g id="patch_255">
    <path d="M 46.965625 590.1555 
L 1162.965625 590.1555 
" style="fill:none;stroke:#000000;stroke-linecap:square;stroke-linejoin:miter;stroke-width:0.8;"/>
   </g>
   <g id="patch_256">
    <path d="M 46.965625 35.7555 
L 1162.965625 35.7555 
" style="fill:none;stroke:#000000;stroke-linecap:square;stroke-linejoin:miter;stroke-width:0.8;"/>
   </g>
   <g id="patch_257">
    <path d="M 290.96198 59.761535 
Q 190.630858 60.946701 91.417692 62.11866 
" style="fill:none;stroke:#000000;stroke-linecap:round;"/>
    <path d="M 95.441037 64.071273 
L 91.417692 62.11866 
L 95.39379 60.071553 
" style="fill:none;stroke:#000000;stroke-linecap:round;"/>
   </g>
   <g id="text_16">
    <!-- Value: 117 -->
    <defs>
     <path d="M 28.609375 0 
L 0.78125 72.90625 
L 11.078125 72.90625 
L 34.1875 11.53125 
L 57.328125 72.90625 
L 67.578125 72.90625 
L 39.796875 0 
z
" id="DejaVuSans-56"/>
     <path d="M 34.28125 27.484375 
Q 23.390625 27.484375 19.1875 25 
Q 14.984375 22.515625 14.984375 16.5 
Q 14.984375 11.71875 18.140625 8.90625 
Q 21.296875 6.109375 26.703125 6.109375 
Q 34.1875 6.109375 38.703125 11.40625 
Q 43.21875 16.703125 43.21875 25.484375 
L 43.21875 27.484375 
z
M 52.203125 31.203125 
L 52.203125 0 
L 43.21875 0 
L 43.21875 8.296875 
Q 40.140625 3.328125 35.546875 0.953125 
Q 30.953125 -1.421875 24.3125 -1.421875 
Q 15.921875 -1.421875 10.953125 3.296875 
Q 6 8.015625 6 15.921875 
Q 6 25.140625 12.171875 29.828125 
Q 18.359375 34.515625 30.609375 34.515625 
L 43.21875 34.515625 
L 43.21875 35.40625 
Q 43.21875 41.609375 39.140625 45 
Q 35.0625 48.390625 27.6875 48.390625 
Q 23 48.390625 18.546875 47.265625 
Q 14.109375 46.140625 10.015625 43.890625 
L 10.015625 52.203125 
Q 14.9375 54.109375 19.578125 55.046875 
Q 24.21875 56 28.609375 56 
Q 40.484375 56 46.34375 49.84375 
Q 52.203125 43.703125 52.203125 31.203125 
z
" id="DejaVuSans-61"/>
     <path d="M 9.421875 75.984375 
L 18.40625 75.984375 
L 18.40625 0 
L 9.421875 0 
z
" id="DejaVuSans-6c"/>
     <path d="M 11.71875 12.40625 
L 22.015625 12.40625 
L 22.015625 0 
L 11.71875 0 
z
M 11.71875 51.703125 
L 22.015625 51.703125 
L 22.015625 39.3125 
L 11.71875 39.3125 
z
" id="DejaVuSans-3a"/>
     <path d="M 8.203125 72.90625 
L 55.078125 72.90625 
L 55.078125 68.703125 
L 28.609375 0 
L 18.3125 0 
L 43.21875 64.59375 
L 8.203125 64.59375 
z
" id="DejaVuSans-37"/>
    </defs>
    <g transform="translate(294.965625 62.1555)scale(0.1 -0.1)">
     <use xlink:href="#DejaVuSans-56"/>
     <use x="68.298828" xlink:href="#DejaVuSans-61"/>
     <use x="129.578125" xlink:href="#DejaVuSans-6c"/>
     <use x="157.361328" xlink:href="#DejaVuSans-75"/>
     <use x="220.740234" xlink:href="#DejaVuSans-65"/>
     <use x="282.263672" xlink:href="#DejaVuSans-3a"/>
     <use x="315.955078" xlink:href="#DejaVuSans-20"/>
     <use x="347.742188" xlink:href="#DejaVuSans-31"/>
     <use x="411.365234" xlink:href="#DejaVuSans-31"/>
     <use x="474.988281" xlink:href="#DejaVuSans-37"/>
    </g>
   </g>
   <g id="text_17">
    <!-- Frequency of the number of nodes connection to UAVs -->
    <defs>
     <path d="M 9.8125 72.90625 
L 51.703125 72.90625 
L 51.703125 64.59375 
L 19.671875 64.59375 
L 19.671875 43.109375 
L 48.578125 43.109375 
L 48.578125 34.8125 
L 19.671875 34.8125 
L 19.671875 0 
L 9.8125 0 
z
" id="DejaVuSans-46"/>
     <path d="M 14.796875 27.296875 
Q 14.796875 17.390625 18.875 11.75 
Q 22.953125 6.109375 30.078125 6.109375 
Q 37.203125 6.109375 41.296875 11.75 
Q 45.40625 17.390625 45.40625 27.296875 
Q 45.40625 37.203125 41.296875 42.84375 
Q 37.203125 48.484375 30.078125 48.484375 
Q 22.953125 48.484375 18.875 42.84375 
Q 14.796875 37.203125 14.796875 27.296875 
z
M 45.40625 8.203125 
Q 42.578125 3.328125 38.25 0.953125 
Q 33.9375 -1.421875 27.875 -1.421875 
Q 17.96875 -1.421875 11.734375 6.484375 
Q 5.515625 14.40625 5.515625 27.296875 
Q 5.515625 40.1875 11.734375 48.09375 
Q 17.96875 56 27.875 56 
Q 33.9375 56 38.25 53.625 
Q 42.578125 51.265625 45.40625 46.390625 
L 45.40625 54.6875 
L 54.390625 54.6875 
L 54.390625 -20.796875 
L 45.40625 -20.796875 
z
" id="DejaVuSans-71"/>
     <path d="M 32.171875 -5.078125 
Q 28.375 -14.84375 24.75 -17.8125 
Q 21.140625 -20.796875 15.09375 -20.796875 
L 7.90625 -20.796875 
L 7.90625 -13.28125 
L 13.1875 -13.28125 
Q 16.890625 -13.28125 18.9375 -11.515625 
Q 21 -9.765625 23.484375 -3.21875 
L 25.09375 0.875 
L 2.984375 54.6875 
L 12.5 54.6875 
L 29.59375 11.921875 
L 46.6875 54.6875 
L 56.203125 54.6875 
z
" id="DejaVuSans-79"/>
     <path d="M 54.890625 33.015625 
L 54.890625 0 
L 45.90625 0 
L 45.90625 32.71875 
Q 45.90625 40.484375 42.875 44.328125 
Q 39.84375 48.1875 33.796875 48.1875 
Q 26.515625 48.1875 22.3125 43.546875 
Q 18.109375 38.921875 18.109375 30.90625 
L 18.109375 0 
L 9.078125 0 
L 9.078125 75.984375 
L 18.109375 75.984375 
L 18.109375 46.1875 
Q 21.34375 51.125 25.703125 53.5625 
Q 30.078125 56 35.796875 56 
Q 45.21875 56 50.046875 50.171875 
Q 54.890625 44.34375 54.890625 33.015625 
z
" id="DejaVuSans-68"/>
     <path d="M 8.6875 72.90625 
L 18.609375 72.90625 
L 18.609375 28.609375 
Q 18.609375 16.890625 22.84375 11.734375 
Q 27.09375 6.59375 36.625 6.59375 
Q 46.09375 6.59375 50.34375 11.734375 
Q 54.59375 16.890625 54.59375 28.609375 
L 54.59375 72.90625 
L 64.5 72.90625 
L 64.5 27.390625 
Q 64.5 13.140625 57.4375 5.859375 
Q 50.390625 -1.421875 36.625 -1.421875 
Q 22.796875 -1.421875 15.734375 5.859375 
Q 8.6875 13.140625 8.6875 27.390625 
z
" id="DejaVuSans-55"/>
     <path d="M 34.1875 63.1875 
L 20.796875 26.90625 
L 47.609375 26.90625 
z
M 28.609375 72.90625 
L 39.796875 72.90625 
L 67.578125 0 
L 57.328125 0 
L 50.6875 18.703125 
L 17.828125 18.703125 
L 11.1875 0 
L 0.78125 0 
z
" id="DejaVuSans-41"/>
    </defs>
    <g transform="translate(440.420313 16.318125)scale(0.12 -0.12)">
     <use xlink:href="#DejaVuSans-46"/>
     <use x="57.410156" xlink:href="#DejaVuSans-72"/>
     <use x="98.492188" xlink:href="#DejaVuSans-65"/>
     <use x="160.015625" xlink:href="#DejaVuSans-71"/>
     <use x="223.492188" xlink:href="#DejaVuSans-75"/>
     <use x="286.871094" xlink:href="#DejaVuSans-65"/>
     <use x="348.394531" xlink:href="#DejaVuSans-6e"/>
     <use x="411.773438" xlink:href="#DejaVuSans-63"/>
     <use x="466.753906" xlink:href="#DejaVuSans-79"/>
     <use x="525.933594" xlink:href="#DejaVuSans-20"/>
     <use x="557.720703" xlink:href="#DejaVuSans-6f"/>
     <use x="618.902344" xlink:href="#DejaVuSans-66"/>
     <use x="654.107422" xlink:href="#DejaVuSans-20"/>
     <use x="685.894531" xlink:href="#DejaVuSans-74"/>
     <use x="725.103516" xlink:href="#DejaVuSans-68"/>
     <use x="788.482422" xlink:href="#DejaVuSans-65"/>
     <use x="850.005859" xlink:href="#DejaVuSans-20"/>
     <use x="881.792969" xlink:href="#DejaVuSans-6e"/>
     <use x="945.171875" xlink:href="#DejaVuSans-75"/>
     <use x="1008.550781" xlink:href="#DejaVuSans-6d"/>
     <use x="1105.962891" xlink:href="#DejaVuSans-62"/>
     <use x="1169.439453" xlink:href="#DejaVuSans-65"/>
     <use x="1230.962891" xlink:href="#DejaVuSans-72"/>
     <use x="1272.076172" xlink:href="#DejaVuSans-20"/>
     <use x="1303.863281" xlink:href="#DejaVuSans-6f"/>
     <use x="1365.044922" xlink:href="#DejaVuSans-66"/>
     <use x="1400.25" xlink:href="#DejaVuSans-20"/>
     <use x="1432.037109" xlink:href="#DejaVuSans-6e"/>
     <use x="1495.416016" xlink:href="#DejaVuSans-6f"/>
     <use x="1556.597656" xlink:href="#DejaVuSans-64"/>
     <use x="1620.074219" xlink:href="#DejaVuSans-65"/>
     <use x="1681.597656" xlink:href="#DejaVuSans-73"/>
     <use x="1733.697266" xlink:href="#DejaVuSans-20"/>
     <use x="1765.484375" xlink:href="#DejaVuSans-63"/>
     <use x="1820.464844" xlink:href="#DejaVuSans-6f"/>
     <use x="1881.646484" xlink:href="#DejaVuSans-6e"/>
     <use x="1945.025391" xlink:href="#DejaVuSans-6e"/>
     <use x="2008.404297" xlink:href="#DejaVuSans-65"/>
     <use x="2069.927734" xlink:href="#DejaVuSans-63"/>
     <use x="2124.908203" xlink:href="#DejaVuSans-74"/>
     <use x="2164.117188" xlink:href="#DejaVuSans-69"/>
     <use x="2191.900391" xlink:href="#DejaVuSans-6f"/>
     <use x="2253.082031" xlink:href="#DejaVuSans-6e"/>
     <use x="2316.460938" xlink:href="#DejaVuSans-20"/>
     <use x="2348.248047" xlink:href="#DejaVuSans-74"/>
     <use x="2387.457031" xlink:href="#DejaVuSans-6f"/>
     <use x="2448.638672" xlink:href="#DejaVuSans-20"/>
     <use x="2480.425781" xlink:href="#DejaVuSans-55"/>
     <use x="2553.619141" xlink:href="#DejaVuSans-41"/>
     <use x="2621.933594" xlink:href="#DejaVuSans-56"/>
     <use x="2690.341797" xlink:href="#DejaVuSans-73"/>
    </g>
    <!--  -->
    <g transform="translate(604.965625 29.7555)scale(0.12 -0.12)"/>
   </g>
  </g>
 </g>
 <defs>
  <clipPath id="p98c7bfef03">
   <rect height="554.4" width="1116" x="46.965625" y="35.7555"/>
  </clipPath>
 </defs>
</svg>
