<?xml version="1.0" encoding="utf-8" standalone="no"?>
<!DOCTYPE svg PUBLIC "-//W3C//DTD SVG 1.1//EN"
  "http://www.w3.org/Graphics/SVG/1.1/DTD/svg11.dtd">
<!-- Created with matplotlib (http://matplotlib.org/) -->
<svg height="339pt" version="1.1" viewBox="0 0 594 339" width="594pt" xmlns="http://www.w3.org/2000/svg" xmlns:xlink="http://www.w3.org/1999/xlink">
 <defs>
  <style type="text/css">
*{stroke-linecap:butt;stroke-linejoin:round;}
  </style>
 </defs>
 <g id="figure_1">
  <g id="patch_1">
   <path d="M 0 339.42375 
L 594.160375 339.42375 
L 594.160375 0 
L 0 0 
z
" style="fill:#ffffff;"/>
  </g>
  <g id="axes_1">
   <g id="patch_2">
    <path d="M 42.620313 301.8675 
L 399.740313 301.8675 
L 399.740313 35.7555 
L 42.620313 35.7555 
z
" style="fill:#ffffff;"/>
   </g>
   <g id="PolyCollection_1">
    <defs>
     <path d="M 42.620313 -292.005971 
L 42.620313 -292.005971 
L 43.640655 -292.005971 
L 44.660998 -292.005971 
L 45.681341 -292.005971 
L 46.701684 -292.005971 
L 47.722027 -292.005971 
L 48.74237 -292.005971 
L 49.762713 -292.005971 
L 50.783055 -292.005971 
L 51.803398 -292.005971 
L 52.823741 -292.005971 
L 53.844084 -292.005971 
L 54.864427 -292.005971 
L 55.88477 -292.005971 
L 56.905113 -292.005971 
L 57.925455 -292.005971 
L 58.945798 -292.005971 
L 59.966141 -292.005971 
L 60.986484 -292.005971 
L 62.006827 -292.005971 
L 63.02717 -292.005971 
L 64.047513 -292.005971 
L 65.067855 -292.005971 
L 66.088198 -292.005971 
L 67.108541 -292.005971 
L 68.128884 -292.005971 
L 69.149227 -292.005971 
L 70.16957 -292.005971 
L 71.189913 -292.005971 
L 72.210255 -292.005971 
L 73.230598 -292.005971 
L 74.250941 -292.005971 
L 75.271284 -292.005971 
L 76.291627 -292.005971 
L 77.31197 -292.005971 
L 78.332313 -292.005971 
L 79.352655 -292.005971 
L 80.372998 -292.005971 
L 81.393341 -292.005971 
L 82.413684 -292.005971 
L 83.434027 -292.005971 
L 84.45437 -292.005971 
L 85.474713 -292.005971 
L 86.495055 -292.005971 
L 87.515398 -292.005971 
L 88.535741 -292.005971 
L 89.556084 -292.005971 
L 90.576427 -292.005971 
L 91.59677 -292.005971 
L 92.617113 -292.005971 
L 93.637455 -292.005971 
L 94.657798 -292.005971 
L 95.678141 -292.005971 
L 96.698484 -292.005971 
L 97.718827 -292.005971 
L 98.73917 -292.005971 
L 99.759512 -292.005971 
L 100.779855 -292.005971 
L 101.800198 -292.005971 
L 102.820541 -292.005971 
L 103.840884 -292.005971 
L 104.861227 -292.005971 
L 105.88157 -292.005971 
L 106.901913 -292.005971 
L 107.922255 -292.005971 
L 108.942598 -292.005971 
L 109.962941 -292.005971 
L 110.983284 -292.005971 
L 112.003627 -292.005971 
L 113.02397 -292.005971 
L 114.044313 -292.005971 
L 115.064655 -292.005971 
L 116.084998 -292.005971 
L 117.105341 -292.005971 
L 118.125684 -292.005971 
L 119.146027 -292.005971 
L 120.16637 -292.005971 
L 121.186712 -292.005971 
L 122.207055 -292.005971 
L 123.227398 -292.005971 
L 124.247741 -292.005971 
L 125.268084 -292.005971 
L 126.288427 -292.005971 
L 127.30877 -292.005971 
L 128.329113 -292.005971 
L 129.349455 -292.005971 
L 130.369798 -292.005971 
L 131.390141 -292.005971 
L 132.410484 -292.005971 
L 133.430827 -292.005971 
L 134.45117 -292.005971 
L 135.471513 -292.005971 
L 136.491855 -292.005971 
L 137.512198 -292.005971 
L 138.532541 -292.005971 
L 139.552884 -292.005971 
L 140.573227 -292.005971 
L 141.59357 -292.005971 
L 142.613912 -292.005971 
L 143.634255 -292.005971 
L 144.654598 -292.005971 
L 145.674941 -292.005971 
L 146.695284 -292.005971 
L 147.715627 -292.005971 
L 148.73597 -292.005971 
L 149.756313 -292.005971 
L 150.776655 -292.005971 
L 151.796998 -292.005971 
L 152.817341 -292.005971 
L 153.837684 -292.005971 
L 154.858027 -292.005971 
L 155.87837 -292.005971 
L 156.898713 -292.005971 
L 157.919055 -292.005971 
L 158.939398 -292.005971 
L 159.959741 -292.005971 
L 160.980084 -292.005971 
L 162.000427 -292.005971 
L 163.02077 -292.005971 
L 164.041113 -292.005971 
L 165.061455 -292.005971 
L 166.081798 -292.005971 
L 167.102141 -292.005971 
L 168.122484 -292.005971 
L 169.142827 -292.005971 
L 170.16317 -292.005971 
L 171.183513 -292.005971 
L 172.203855 -292.005971 
L 173.224198 -292.005971 
L 174.244541 -292.005971 
L 175.264884 -292.005971 
L 176.285227 -292.005971 
L 177.30557 -292.005971 
L 178.325913 -292.005971 
L 179.346255 -292.005971 
L 180.366598 -292.005971 
L 181.386941 -292.005971 
L 182.407284 -292.005971 
L 183.427627 -292.005971 
L 184.44797 -292.005971 
L 185.468313 -292.005971 
L 186.488655 -292.005971 
L 187.508998 -292.005971 
L 188.529341 -292.005971 
L 189.549684 -292.005971 
L 190.570027 -292.005971 
L 191.59037 -292.005971 
L 192.610713 -292.005971 
L 193.631055 -292.005971 
L 194.651398 -292.005971 
L 195.671741 -292.005971 
L 196.692084 -292.005971 
L 197.712427 -292.005971 
L 198.73277 -292.005971 
L 199.753113 -292.005971 
L 200.773455 -292.005971 
L 201.793798 -292.005971 
L 202.814141 -292.005971 
L 203.834484 -292.005971 
L 204.854827 -292.005971 
L 205.87517 -292.005971 
L 206.895513 -292.005971 
L 207.915855 -292.005971 
L 208.936198 -292.005971 
L 209.956541 -292.005971 
L 210.976884 -292.005971 
L 211.997227 -292.005971 
L 213.01757 -292.005971 
L 214.037913 -292.005971 
L 215.058255 -292.005971 
L 216.078598 -292.005971 
L 217.098941 -292.005971 
L 218.119284 -292.005971 
L 219.139627 -292.005971 
L 220.15997 -292.005971 
L 221.180313 -292.005971 
L 222.200655 -292.005971 
L 223.220998 -292.005971 
L 224.241341 -292.005971 
L 225.261684 -292.005971 
L 226.282027 -292.005971 
L 227.30237 -292.005971 
L 228.322713 -292.005971 
L 229.343055 -292.005971 
L 230.363398 -292.005971 
L 231.383741 -292.005971 
L 232.404084 -292.005971 
L 233.424427 -292.005971 
L 234.44477 -292.005971 
L 235.465113 -292.005971 
L 236.485455 -292.005971 
L 237.505798 -292.005971 
L 238.526141 -292.005971 
L 239.546484 -292.005971 
L 240.566827 -292.005971 
L 241.58717 -292.005971 
L 242.607513 -292.005971 
L 243.627855 -292.005971 
L 244.648198 -292.005971 
L 245.668541 -292.005971 
L 246.688884 -292.005971 
L 247.709227 -292.005971 
L 248.72957 -292.005971 
L 249.749913 -292.005971 
L 250.770255 -292.005971 
L 251.790598 -292.005971 
L 252.810941 -292.005971 
L 253.831284 -292.005971 
L 254.851627 -292.005971 
L 255.87197 -292.005971 
L 256.892313 -292.005971 
L 257.912655 -292.005971 
L 258.932998 -292.005971 
L 259.953341 -292.005971 
L 260.973684 -292.005971 
L 261.994027 -292.005971 
L 263.01437 -292.005971 
L 264.034713 -292.005971 
L 265.055055 -292.005971 
L 266.075398 -292.005971 
L 267.095741 -292.005971 
L 268.116084 -292.005971 
L 269.136427 -292.005971 
L 270.15677 -292.005971 
L 271.177113 -292.005971 
L 272.197455 -292.005971 
L 273.217798 -292.005971 
L 274.238141 -292.005971 
L 275.258484 -292.005971 
L 276.278827 -292.005971 
L 277.29917 -292.005971 
L 278.319513 -292.005971 
L 279.339855 -292.005971 
L 280.360198 -292.005971 
L 281.380541 -292.005971 
L 282.400884 -292.005971 
L 283.421227 -292.005971 
L 284.44157 -292.005971 
L 285.461913 -292.005971 
L 286.482255 -292.005971 
L 287.502598 -292.005971 
L 288.522941 -292.005971 
L 289.543284 -292.005971 
L 290.563627 -292.005971 
L 291.58397 -292.005971 
L 292.604312 -292.005971 
L 293.624655 -292.005971 
L 294.644998 -292.005971 
L 295.665341 -292.005971 
L 296.685684 -292.005971 
L 297.706027 -292.005971 
L 298.72637 -292.005971 
L 299.746713 -292.005971 
L 300.767055 -292.005971 
L 301.787398 -292.005971 
L 302.807741 -292.005971 
L 303.828084 -292.005971 
L 304.848427 -292.005971 
L 305.86877 -292.005971 
L 306.889113 -292.005971 
L 307.909455 -292.005971 
L 308.929798 -292.005971 
L 309.950141 -292.005971 
L 310.970484 -292.005971 
L 311.990827 -292.005971 
L 313.01117 -292.005971 
L 314.031513 -292.005971 
L 315.051855 -292.005971 
L 316.072198 -292.005971 
L 317.092541 -292.005971 
L 318.112884 -292.005971 
L 319.133227 -292.005971 
L 320.15357 -292.005971 
L 321.173913 -292.005971 
L 322.194255 -292.005971 
L 323.214598 -292.005971 
L 324.234941 -292.005971 
L 325.255284 -292.005971 
L 326.275627 -292.005971 
L 327.29597 -292.005971 
L 328.316313 -292.005971 
L 329.336655 -292.005971 
L 330.356998 -292.005971 
L 331.377341 -292.005971 
L 332.397684 -292.005971 
L 333.418027 -292.005971 
L 334.43837 -292.005971 
L 335.458713 -292.005971 
L 336.479055 -292.005971 
L 337.499398 -292.005971 
L 338.519741 -292.005971 
L 339.540084 -292.005971 
L 340.560427 -292.005971 
L 341.58077 -292.005971 
L 342.601113 -292.005971 
L 343.621455 -292.005971 
L 344.641798 -292.005971 
L 345.662141 -292.005971 
L 346.682484 -292.005971 
L 347.702827 -292.005971 
L 348.72317 -292.005971 
L 349.743513 -292.005971 
L 350.763855 -292.005971 
L 351.784198 -292.005971 
L 352.804541 -292.005971 
L 353.824884 -292.005971 
L 354.845227 -292.005971 
L 355.86557 -292.005971 
L 356.885913 -292.005971 
L 357.906255 -292.005971 
L 358.926598 -292.005971 
L 359.946941 -292.005971 
L 360.967284 -292.005971 
L 361.987627 -292.005971 
L 363.00797 -292.005971 
L 364.028313 -292.005971 
L 365.048655 -292.005971 
L 366.068998 -292.005971 
L 367.089341 -292.005971 
L 368.109684 -292.005971 
L 369.130027 -292.005971 
L 370.15037 -292.005971 
L 371.170713 -292.005971 
L 372.191055 -292.005971 
L 373.211398 -292.005971 
L 374.231741 -292.005971 
L 375.252084 -292.005971 
L 376.272427 -292.005971 
L 377.29277 -292.005971 
L 378.313113 -292.005971 
L 379.333455 -292.005971 
L 380.353798 -292.005971 
L 381.374141 -292.005971 
L 382.394484 -292.005971 
L 383.414827 -292.005971 
L 384.43517 -292.005971 
L 385.455513 -292.005971 
L 386.475855 -292.005971 
L 387.496198 -292.005971 
L 388.516541 -292.005971 
L 389.536884 -292.005971 
L 390.557227 -292.005971 
L 391.57757 -292.005971 
L 392.597913 -292.005971 
L 393.618255 -292.005971 
L 394.638598 -292.005971 
L 395.658941 -292.005971 
L 396.679284 -292.005971 
L 397.699627 -292.005971 
L 398.71997 -292.005971 
L 398.71997 -292.005971 
L 398.71997 -292.005971 
L 397.699627 -292.005971 
L 396.679284 -292.005971 
L 395.658941 -292.005971 
L 394.638598 -292.005971 
L 393.618255 -292.005971 
L 392.597913 -292.005971 
L 391.57757 -292.005971 
L 390.557227 -292.005971 
L 389.536884 -292.005971 
L 388.516541 -292.005971 
L 387.496198 -292.005971 
L 386.475855 -292.005971 
L 385.455513 -292.005971 
L 384.43517 -292.005971 
L 383.414827 -292.005971 
L 382.394484 -292.005971 
L 381.374141 -292.005971 
L 380.353798 -292.005971 
L 379.333455 -292.005971 
L 378.313113 -292.005971 
L 377.29277 -292.005971 
L 376.272427 -292.005971 
L 375.252084 -292.005971 
L 374.231741 -292.005971 
L 373.211398 -292.005971 
L 372.191055 -292.005971 
L 371.170713 -292.005971 
L 370.15037 -292.005971 
L 369.130027 -292.005971 
L 368.109684 -292.005971 
L 367.089341 -292.005971 
L 366.068998 -292.005971 
L 365.048655 -292.005971 
L 364.028313 -292.005971 
L 363.00797 -292.005971 
L 361.987627 -292.005971 
L 360.967284 -292.005971 
L 359.946941 -292.005971 
L 358.926598 -292.005971 
L 357.906255 -292.005971 
L 356.885913 -292.005971 
L 355.86557 -292.005971 
L 354.845227 -292.005971 
L 353.824884 -292.005971 
L 352.804541 -292.005971 
L 351.784198 -292.005971 
L 350.763855 -292.005971 
L 349.743513 -292.005971 
L 348.72317 -292.005971 
L 347.702827 -292.005971 
L 346.682484 -292.005971 
L 345.662141 -292.005971 
L 344.641798 -292.005971 
L 343.621455 -292.005971 
L 342.601113 -292.005971 
L 341.58077 -292.005971 
L 340.560427 -292.005971 
L 339.540084 -292.005971 
L 338.519741 -292.005971 
L 337.499398 -292.005971 
L 336.479055 -292.005971 
L 335.458713 -292.005971 
L 334.43837 -292.005971 
L 333.418027 -292.005971 
L 332.397684 -292.005971 
L 331.377341 -292.005971 
L 330.356998 -292.005971 
L 329.336655 -292.005971 
L 328.316313 -292.005971 
L 327.29597 -292.005971 
L 326.275627 -292.005971 
L 325.255284 -292.005971 
L 324.234941 -292.005971 
L 323.214598 -292.005971 
L 322.194255 -292.005971 
L 321.173913 -292.005971 
L 320.15357 -292.005971 
L 319.133227 -292.005971 
L 318.112884 -292.005971 
L 317.092541 -292.005971 
L 316.072198 -292.005971 
L 315.051855 -292.005971 
L 314.031513 -292.005971 
L 313.01117 -292.005971 
L 311.990827 -292.005971 
L 310.970484 -292.005971 
L 309.950141 -292.005971 
L 308.929798 -292.005971 
L 307.909455 -292.005971 
L 306.889113 -292.005971 
L 305.86877 -292.005971 
L 304.848427 -292.005971 
L 303.828084 -292.005971 
L 302.807741 -292.005971 
L 301.787398 -292.005971 
L 300.767055 -292.005971 
L 299.746713 -292.005971 
L 298.72637 -292.005971 
L 297.706027 -292.005971 
L 296.685684 -292.005971 
L 295.665341 -292.005971 
L 294.644998 -292.005971 
L 293.624655 -292.005971 
L 292.604312 -292.005971 
L 291.58397 -292.005971 
L 290.563627 -292.005971 
L 289.543284 -292.005971 
L 288.522941 -292.005971 
L 287.502598 -292.005971 
L 286.482255 -292.005971 
L 285.461913 -292.005971 
L 284.44157 -292.005971 
L 283.421227 -292.005971 
L 282.400884 -292.005971 
L 281.380541 -292.005971 
L 280.360198 -292.005971 
L 279.339855 -292.005971 
L 278.319513 -292.005971 
L 277.29917 -292.005971 
L 276.278827 -292.005971 
L 275.258484 -292.005971 
L 274.238141 -292.005971 
L 273.217798 -292.005971 
L 272.197455 -292.005971 
L 271.177113 -292.005971 
L 270.15677 -292.005971 
L 269.136427 -292.005971 
L 268.116084 -292.005971 
L 267.095741 -292.005971 
L 266.075398 -292.005971 
L 265.055055 -292.005971 
L 264.034713 -292.005971 
L 263.01437 -292.005971 
L 261.994027 -292.005971 
L 260.973684 -292.005971 
L 259.953341 -292.005971 
L 258.932998 -292.005971 
L 257.912655 -292.005971 
L 256.892313 -292.005971 
L 255.87197 -292.005971 
L 254.851627 -292.005971 
L 253.831284 -292.005971 
L 252.810941 -292.005971 
L 251.790598 -292.005971 
L 250.770255 -292.005971 
L 249.749913 -292.005971 
L 248.72957 -292.005971 
L 247.709227 -292.005971 
L 246.688884 -292.005971 
L 245.668541 -292.005971 
L 244.648198 -292.005971 
L 243.627855 -292.005971 
L 242.607513 -292.005971 
L 241.58717 -292.005971 
L 240.566827 -292.005971 
L 239.546484 -292.005971 
L 238.526141 -292.005971 
L 237.505798 -292.005971 
L 236.485455 -292.005971 
L 235.465113 -292.005971 
L 234.44477 -292.005971 
L 233.424427 -292.005971 
L 232.404084 -292.005971 
L 231.383741 -292.005971 
L 230.363398 -292.005971 
L 229.343055 -292.005971 
L 228.322713 -292.005971 
L 227.30237 -292.005971 
L 226.282027 -292.005971 
L 225.261684 -292.005971 
L 224.241341 -292.005971 
L 223.220998 -292.005971 
L 222.200655 -292.005971 
L 221.180313 -292.005971 
L 220.15997 -292.005971 
L 219.139627 -292.005971 
L 218.119284 -292.005971 
L 217.098941 -292.005971 
L 216.078598 -292.005971 
L 215.058255 -292.005971 
L 214.037913 -292.005971 
L 213.01757 -292.005971 
L 211.997227 -292.005971 
L 210.976884 -292.005971 
L 209.956541 -292.005971 
L 208.936198 -292.005971 
L 207.915855 -292.005971 
L 206.895513 -292.005971 
L 205.87517 -292.005971 
L 204.854827 -292.005971 
L 203.834484 -292.005971 
L 202.814141 -292.005971 
L 201.793798 -292.005971 
L 200.773455 -292.005971 
L 199.753113 -292.005971 
L 198.73277 -292.005971 
L 197.712427 -292.005971 
L 196.692084 -292.005971 
L 195.671741 -292.005971 
L 194.651398 -292.005971 
L 193.631055 -292.005971 
L 192.610713 -292.005971 
L 191.59037 -292.005971 
L 190.570027 -292.005971 
L 189.549684 -292.005971 
L 188.529341 -292.005971 
L 187.508998 -292.005971 
L 186.488655 -292.005971 
L 185.468313 -292.005971 
L 184.44797 -292.005971 
L 183.427627 -292.005971 
L 182.407284 -292.005971 
L 181.386941 -292.005971 
L 180.366598 -292.005971 
L 179.346255 -292.005971 
L 178.325913 -292.005971 
L 177.30557 -292.005971 
L 176.285227 -292.005971 
L 175.264884 -292.005971 
L 174.244541 -292.005971 
L 173.224198 -292.005971 
L 172.203855 -292.005971 
L 171.183513 -292.005971 
L 170.16317 -292.005971 
L 169.142827 -292.005971 
L 168.122484 -292.005971 
L 167.102141 -292.005971 
L 166.081798 -292.005971 
L 165.061455 -292.005971 
L 164.041113 -292.005971 
L 163.02077 -292.005971 
L 162.000427 -292.005971 
L 160.980084 -292.005971 
L 159.959741 -292.005971 
L 158.939398 -292.005971 
L 157.919055 -292.005971 
L 156.898713 -292.005971 
L 155.87837 -292.005971 
L 154.858027 -292.005971 
L 153.837684 -292.005971 
L 152.817341 -292.005971 
L 151.796998 -292.005971 
L 150.776655 -292.005971 
L 149.756313 -292.005971 
L 148.73597 -292.005971 
L 147.715627 -292.005971 
L 146.695284 -292.005971 
L 145.674941 -292.005971 
L 144.654598 -292.005971 
L 143.634255 -292.005971 
L 142.613912 -292.005971 
L 141.59357 -292.005971 
L 140.573227 -292.005971 
L 139.552884 -292.005971 
L 138.532541 -292.005971 
L 137.512198 -292.005971 
L 136.491855 -292.005971 
L 135.471513 -292.005971 
L 134.45117 -292.005971 
L 133.430827 -292.005971 
L 132.410484 -292.005971 
L 131.390141 -292.005971 
L 130.369798 -292.005971 
L 129.349455 -292.005971 
L 128.329113 -292.005971 
L 127.30877 -292.005971 
L 126.288427 -292.005971 
L 125.268084 -292.005971 
L 124.247741 -292.005971 
L 123.227398 -292.005971 
L 122.207055 -292.005971 
L 121.186712 -292.005971 
L 120.16637 -292.005971 
L 119.146027 -292.005971 
L 118.125684 -292.005971 
L 117.105341 -292.005971 
L 116.084998 -292.005971 
L 115.064655 -292.005971 
L 114.044313 -292.005971 
L 113.02397 -292.005971 
L 112.003627 -292.005971 
L 110.983284 -292.005971 
L 109.962941 -292.005971 
L 108.942598 -292.005971 
L 107.922255 -292.005971 
L 106.901913 -292.005971 
L 105.88157 -292.005971 
L 104.861227 -292.005971 
L 103.840884 -292.005971 
L 102.820541 -292.005971 
L 101.800198 -292.005971 
L 100.779855 -292.005971 
L 99.759512 -292.005971 
L 98.73917 -292.005971 
L 97.718827 -292.005971 
L 96.698484 -292.005971 
L 95.678141 -292.005971 
L 94.657798 -292.005971 
L 93.637455 -292.005971 
L 92.617113 -292.005971 
L 91.59677 -292.005971 
L 90.576427 -292.005971 
L 89.556084 -292.005971 
L 88.535741 -292.005971 
L 87.515398 -292.005971 
L 86.495055 -292.005971 
L 85.474713 -292.005971 
L 84.45437 -292.005971 
L 83.434027 -292.005971 
L 82.413684 -292.005971 
L 81.393341 -292.005971 
L 80.372998 -292.005971 
L 79.352655 -292.005971 
L 78.332313 -292.005971 
L 77.31197 -292.005971 
L 76.291627 -292.005971 
L 75.271284 -292.005971 
L 74.250941 -292.005971 
L 73.230598 -292.005971 
L 72.210255 -292.005971 
L 71.189913 -292.005971 
L 70.16957 -292.005971 
L 69.149227 -292.005971 
L 68.128884 -292.005971 
L 67.108541 -292.005971 
L 66.088198 -292.005971 
L 65.067855 -292.005971 
L 64.047513 -292.005971 
L 63.02717 -292.005971 
L 62.006827 -292.005971 
L 60.986484 -292.005971 
L 59.966141 -292.005971 
L 58.945798 -292.005971 
L 57.925455 -292.005971 
L 56.905113 -292.005971 
L 55.88477 -292.005971 
L 54.864427 -292.005971 
L 53.844084 -292.005971 
L 52.823741 -292.005971 
L 51.803398 -292.005971 
L 50.783055 -292.005971 
L 49.762713 -292.005971 
L 48.74237 -292.005971 
L 47.722027 -292.005971 
L 46.701684 -292.005971 
L 45.681341 -292.005971 
L 44.660998 -292.005971 
L 43.640655 -292.005971 
L 42.620313 -292.005971 
z
" id="m8ea49cea2a" style="stroke:#adff2f;"/>
    </defs>
    <g clip-path="url(#p91e3d70b5f)">
     <use style="fill:#adff2f;stroke:#adff2f;" x="0" xlink:href="#m8ea49cea2a" y="339.42375"/>
    </g>
   </g>
   <g id="matplotlib.axis_1">
    <g id="xtick_1">
     <g id="line2d_1">
      <path clip-path="url(#p91e3d70b5f)" d="M 42.620313 301.8675 
L 42.620313 35.7555 
" style="fill:none;stroke:#b0b0b0;stroke-linecap:square;stroke-width:0.8;"/>
     </g>
     <g id="line2d_2">
      <defs>
       <path d="M 0 0 
L 0 3.5 
" id="m90fe6229b8" style="stroke:#000000;stroke-width:0.8;"/>
      </defs>
      <g>
       <use style="stroke:#000000;stroke-width:0.8;" x="42.620313" xlink:href="#m90fe6229b8" y="301.8675"/>
      </g>
     </g>
     <g id="text_1">
      <!-- 0 -->
      <defs>
       <path d="M 31.78125 66.40625 
Q 24.171875 66.40625 20.328125 58.90625 
Q 16.5 51.421875 16.5 36.375 
Q 16.5 21.390625 20.328125 13.890625 
Q 24.171875 6.390625 31.78125 6.390625 
Q 39.453125 6.390625 43.28125 13.890625 
Q 47.125 21.390625 47.125 36.375 
Q 47.125 51.421875 43.28125 58.90625 
Q 39.453125 66.40625 31.78125 66.40625 
z
M 31.78125 74.21875 
Q 44.046875 74.21875 50.515625 64.515625 
Q 56.984375 54.828125 56.984375 36.375 
Q 56.984375 17.96875 50.515625 8.265625 
Q 44.046875 -1.421875 31.78125 -1.421875 
Q 19.53125 -1.421875 13.0625 8.265625 
Q 6.59375 17.96875 6.59375 36.375 
Q 6.59375 54.828125 13.0625 64.515625 
Q 19.53125 74.21875 31.78125 74.21875 
z
" id="DejaVuSans-30"/>
      </defs>
      <g transform="translate(39.439063 316.465937)scale(0.1 -0.1)">
       <use xlink:href="#DejaVuSans-30"/>
      </g>
     </g>
    </g>
    <g id="xtick_2">
     <g id="line2d_3">
      <path clip-path="url(#p91e3d70b5f)" d="M 93.637455 301.8675 
L 93.637455 35.7555 
" style="fill:none;stroke:#b0b0b0;stroke-linecap:square;stroke-width:0.8;"/>
     </g>
     <g id="line2d_4">
      <g>
       <use style="stroke:#000000;stroke-width:0.8;" x="93.637455" xlink:href="#m90fe6229b8" y="301.8675"/>
      </g>
     </g>
     <g id="text_2">
      <!-- 50 -->
      <defs>
       <path d="M 10.796875 72.90625 
L 49.515625 72.90625 
L 49.515625 64.59375 
L 19.828125 64.59375 
L 19.828125 46.734375 
Q 21.96875 47.46875 24.109375 47.828125 
Q 26.265625 48.1875 28.421875 48.1875 
Q 40.625 48.1875 47.75 41.5 
Q 54.890625 34.8125 54.890625 23.390625 
Q 54.890625 11.625 47.5625 5.09375 
Q 40.234375 -1.421875 26.90625 -1.421875 
Q 22.3125 -1.421875 17.546875 -0.640625 
Q 12.796875 0.140625 7.71875 1.703125 
L 7.71875 11.625 
Q 12.109375 9.234375 16.796875 8.0625 
Q 21.484375 6.890625 26.703125 6.890625 
Q 35.15625 6.890625 40.078125 11.328125 
Q 45.015625 15.765625 45.015625 23.390625 
Q 45.015625 31 40.078125 35.4375 
Q 35.15625 39.890625 26.703125 39.890625 
Q 22.75 39.890625 18.8125 39.015625 
Q 14.890625 38.140625 10.796875 36.28125 
z
" id="DejaVuSans-35"/>
      </defs>
      <g transform="translate(87.274955 316.465937)scale(0.1 -0.1)">
       <use xlink:href="#DejaVuSans-35"/>
       <use x="63.623047" xlink:href="#DejaVuSans-30"/>
      </g>
     </g>
    </g>
    <g id="xtick_3">
     <g id="line2d_5">
      <path clip-path="url(#p91e3d70b5f)" d="M 144.654598 301.8675 
L 144.654598 35.7555 
" style="fill:none;stroke:#b0b0b0;stroke-linecap:square;stroke-width:0.8;"/>
     </g>
     <g id="line2d_6">
      <g>
       <use style="stroke:#000000;stroke-width:0.8;" x="144.654598" xlink:href="#m90fe6229b8" y="301.8675"/>
      </g>
     </g>
     <g id="text_3">
      <!-- 100 -->
      <defs>
       <path d="M 12.40625 8.296875 
L 28.515625 8.296875 
L 28.515625 63.921875 
L 10.984375 60.40625 
L 10.984375 69.390625 
L 28.421875 72.90625 
L 38.28125 72.90625 
L 38.28125 8.296875 
L 54.390625 8.296875 
L 54.390625 0 
L 12.40625 0 
z
" id="DejaVuSans-31"/>
      </defs>
      <g transform="translate(135.110848 316.465937)scale(0.1 -0.1)">
       <use xlink:href="#DejaVuSans-31"/>
       <use x="63.623047" xlink:href="#DejaVuSans-30"/>
       <use x="127.246094" xlink:href="#DejaVuSans-30"/>
      </g>
     </g>
    </g>
    <g id="xtick_4">
     <g id="line2d_7">
      <path clip-path="url(#p91e3d70b5f)" d="M 195.671741 301.8675 
L 195.671741 35.7555 
" style="fill:none;stroke:#b0b0b0;stroke-linecap:square;stroke-width:0.8;"/>
     </g>
     <g id="line2d_8">
      <g>
       <use style="stroke:#000000;stroke-width:0.8;" x="195.671741" xlink:href="#m90fe6229b8" y="301.8675"/>
      </g>
     </g>
     <g id="text_4">
      <!-- 150 -->
      <g transform="translate(186.127991 316.465937)scale(0.1 -0.1)">
       <use xlink:href="#DejaVuSans-31"/>
       <use x="63.623047" xlink:href="#DejaVuSans-35"/>
       <use x="127.246094" xlink:href="#DejaVuSans-30"/>
      </g>
     </g>
    </g>
    <g id="xtick_5">
     <g id="line2d_9">
      <path clip-path="url(#p91e3d70b5f)" d="M 246.688884 301.8675 
L 246.688884 35.7555 
" style="fill:none;stroke:#b0b0b0;stroke-linecap:square;stroke-width:0.8;"/>
     </g>
     <g id="line2d_10">
      <g>
       <use style="stroke:#000000;stroke-width:0.8;" x="246.688884" xlink:href="#m90fe6229b8" y="301.8675"/>
      </g>
     </g>
     <g id="text_5">
      <!-- 200 -->
      <defs>
       <path d="M 19.1875 8.296875 
L 53.609375 8.296875 
L 53.609375 0 
L 7.328125 0 
L 7.328125 8.296875 
Q 12.9375 14.109375 22.625 23.890625 
Q 32.328125 33.6875 34.8125 36.53125 
Q 39.546875 41.84375 41.421875 45.53125 
Q 43.3125 49.21875 43.3125 52.78125 
Q 43.3125 58.59375 39.234375 62.25 
Q 35.15625 65.921875 28.609375 65.921875 
Q 23.96875 65.921875 18.8125 64.3125 
Q 13.671875 62.703125 7.8125 59.421875 
L 7.8125 69.390625 
Q 13.765625 71.78125 18.9375 73 
Q 24.125 74.21875 28.421875 74.21875 
Q 39.75 74.21875 46.484375 68.546875 
Q 53.21875 62.890625 53.21875 53.421875 
Q 53.21875 48.921875 51.53125 44.890625 
Q 49.859375 40.875 45.40625 35.40625 
Q 44.1875 33.984375 37.640625 27.21875 
Q 31.109375 20.453125 19.1875 8.296875 
z
" id="DejaVuSans-32"/>
      </defs>
      <g transform="translate(237.145134 316.465937)scale(0.1 -0.1)">
       <use xlink:href="#DejaVuSans-32"/>
       <use x="63.623047" xlink:href="#DejaVuSans-30"/>
       <use x="127.246094" xlink:href="#DejaVuSans-30"/>
      </g>
     </g>
    </g>
    <g id="xtick_6">
     <g id="line2d_11">
      <path clip-path="url(#p91e3d70b5f)" d="M 297.706027 301.8675 
L 297.706027 35.7555 
" style="fill:none;stroke:#b0b0b0;stroke-linecap:square;stroke-width:0.8;"/>
     </g>
     <g id="line2d_12">
      <g>
       <use style="stroke:#000000;stroke-width:0.8;" x="297.706027" xlink:href="#m90fe6229b8" y="301.8675"/>
      </g>
     </g>
     <g id="text_6">
      <!-- 250 -->
      <g transform="translate(288.162277 316.465937)scale(0.1 -0.1)">
       <use xlink:href="#DejaVuSans-32"/>
       <use x="63.623047" xlink:href="#DejaVuSans-35"/>
       <use x="127.246094" xlink:href="#DejaVuSans-30"/>
      </g>
     </g>
    </g>
    <g id="xtick_7">
     <g id="line2d_13">
      <path clip-path="url(#p91e3d70b5f)" d="M 348.72317 301.8675 
L 348.72317 35.7555 
" style="fill:none;stroke:#b0b0b0;stroke-linecap:square;stroke-width:0.8;"/>
     </g>
     <g id="line2d_14">
      <g>
       <use style="stroke:#000000;stroke-width:0.8;" x="348.72317" xlink:href="#m90fe6229b8" y="301.8675"/>
      </g>
     </g>
     <g id="text_7">
      <!-- 300 -->
      <defs>
       <path d="M 40.578125 39.3125 
Q 47.65625 37.796875 51.625 33 
Q 55.609375 28.21875 55.609375 21.1875 
Q 55.609375 10.40625 48.1875 4.484375 
Q 40.765625 -1.421875 27.09375 -1.421875 
Q 22.515625 -1.421875 17.65625 -0.515625 
Q 12.796875 0.390625 7.625 2.203125 
L 7.625 11.71875 
Q 11.71875 9.328125 16.59375 8.109375 
Q 21.484375 6.890625 26.8125 6.890625 
Q 36.078125 6.890625 40.9375 10.546875 
Q 45.796875 14.203125 45.796875 21.1875 
Q 45.796875 27.640625 41.28125 31.265625 
Q 36.765625 34.90625 28.71875 34.90625 
L 20.21875 34.90625 
L 20.21875 43.015625 
L 29.109375 43.015625 
Q 36.375 43.015625 40.234375 45.921875 
Q 44.09375 48.828125 44.09375 54.296875 
Q 44.09375 59.90625 40.109375 62.90625 
Q 36.140625 65.921875 28.71875 65.921875 
Q 24.65625 65.921875 20.015625 65.03125 
Q 15.375 64.15625 9.8125 62.3125 
L 9.8125 71.09375 
Q 15.4375 72.65625 20.34375 73.4375 
Q 25.25 74.21875 29.59375 74.21875 
Q 40.828125 74.21875 47.359375 69.109375 
Q 53.90625 64.015625 53.90625 55.328125 
Q 53.90625 49.265625 50.4375 45.09375 
Q 46.96875 40.921875 40.578125 39.3125 
z
" id="DejaVuSans-33"/>
      </defs>
      <g transform="translate(339.17942 316.465937)scale(0.1 -0.1)">
       <use xlink:href="#DejaVuSans-33"/>
       <use x="63.623047" xlink:href="#DejaVuSans-30"/>
       <use x="127.246094" xlink:href="#DejaVuSans-30"/>
      </g>
     </g>
    </g>
    <g id="xtick_8">
     <g id="line2d_15">
      <path clip-path="url(#p91e3d70b5f)" d="M 399.740313 301.8675 
L 399.740313 35.7555 
" style="fill:none;stroke:#b0b0b0;stroke-linecap:square;stroke-width:0.8;"/>
     </g>
     <g id="line2d_16">
      <g>
       <use style="stroke:#000000;stroke-width:0.8;" x="399.740313" xlink:href="#m90fe6229b8" y="301.8675"/>
      </g>
     </g>
     <g id="text_8">
      <!-- 350 -->
      <g transform="translate(390.196563 316.465937)scale(0.1 -0.1)">
       <use xlink:href="#DejaVuSans-33"/>
       <use x="63.623047" xlink:href="#DejaVuSans-35"/>
       <use x="127.246094" xlink:href="#DejaVuSans-30"/>
      </g>
     </g>
    </g>
    <g id="text_9">
     <!-- Time(s) -->
     <defs>
      <path d="M -0.296875 72.90625 
L 61.375 72.90625 
L 61.375 64.59375 
L 35.5 64.59375 
L 35.5 0 
L 25.59375 0 
L 25.59375 64.59375 
L -0.296875 64.59375 
z
" id="DejaVuSans-54"/>
      <path d="M 9.421875 54.6875 
L 18.40625 54.6875 
L 18.40625 0 
L 9.421875 0 
z
M 9.421875 75.984375 
L 18.40625 75.984375 
L 18.40625 64.59375 
L 9.421875 64.59375 
z
" id="DejaVuSans-69"/>
      <path d="M 52 44.1875 
Q 55.375 50.25 60.0625 53.125 
Q 64.75 56 71.09375 56 
Q 79.640625 56 84.28125 50.015625 
Q 88.921875 44.046875 88.921875 33.015625 
L 88.921875 0 
L 79.890625 0 
L 79.890625 32.71875 
Q 79.890625 40.578125 77.09375 44.375 
Q 74.3125 48.1875 68.609375 48.1875 
Q 61.625 48.1875 57.5625 43.546875 
Q 53.515625 38.921875 53.515625 30.90625 
L 53.515625 0 
L 44.484375 0 
L 44.484375 32.71875 
Q 44.484375 40.625 41.703125 44.40625 
Q 38.921875 48.1875 33.109375 48.1875 
Q 26.21875 48.1875 22.15625 43.53125 
Q 18.109375 38.875 18.109375 30.90625 
L 18.109375 0 
L 9.078125 0 
L 9.078125 54.6875 
L 18.109375 54.6875 
L 18.109375 46.1875 
Q 21.1875 51.21875 25.484375 53.609375 
Q 29.78125 56 35.6875 56 
Q 41.65625 56 45.828125 52.96875 
Q 50 49.953125 52 44.1875 
z
" id="DejaVuSans-6d"/>
      <path d="M 56.203125 29.59375 
L 56.203125 25.203125 
L 14.890625 25.203125 
Q 15.484375 15.921875 20.484375 11.0625 
Q 25.484375 6.203125 34.421875 6.203125 
Q 39.59375 6.203125 44.453125 7.46875 
Q 49.3125 8.734375 54.109375 11.28125 
L 54.109375 2.78125 
Q 49.265625 0.734375 44.1875 -0.34375 
Q 39.109375 -1.421875 33.890625 -1.421875 
Q 20.796875 -1.421875 13.15625 6.1875 
Q 5.515625 13.8125 5.515625 26.8125 
Q 5.515625 40.234375 12.765625 48.109375 
Q 20.015625 56 32.328125 56 
Q 43.359375 56 49.78125 48.890625 
Q 56.203125 41.796875 56.203125 29.59375 
z
M 47.21875 32.234375 
Q 47.125 39.59375 43.09375 43.984375 
Q 39.0625 48.390625 32.421875 48.390625 
Q 24.90625 48.390625 20.390625 44.140625 
Q 15.875 39.890625 15.1875 32.171875 
z
" id="DejaVuSans-65"/>
      <path d="M 31 75.875 
Q 24.46875 64.65625 21.28125 53.65625 
Q 18.109375 42.671875 18.109375 31.390625 
Q 18.109375 20.125 21.3125 9.0625 
Q 24.515625 -2 31 -13.1875 
L 23.1875 -13.1875 
Q 15.875 -1.703125 12.234375 9.375 
Q 8.59375 20.453125 8.59375 31.390625 
Q 8.59375 42.28125 12.203125 53.3125 
Q 15.828125 64.359375 23.1875 75.875 
z
" id="DejaVuSans-28"/>
      <path d="M 44.28125 53.078125 
L 44.28125 44.578125 
Q 40.484375 46.53125 36.375 47.5 
Q 32.28125 48.484375 27.875 48.484375 
Q 21.1875 48.484375 17.84375 46.4375 
Q 14.5 44.390625 14.5 40.28125 
Q 14.5 37.15625 16.890625 35.375 
Q 19.28125 33.59375 26.515625 31.984375 
L 29.59375 31.296875 
Q 39.15625 29.25 43.1875 25.515625 
Q 47.21875 21.78125 47.21875 15.09375 
Q 47.21875 7.46875 41.1875 3.015625 
Q 35.15625 -1.421875 24.609375 -1.421875 
Q 20.21875 -1.421875 15.453125 -0.5625 
Q 10.6875 0.296875 5.421875 2 
L 5.421875 11.28125 
Q 10.40625 8.6875 15.234375 7.390625 
Q 20.0625 6.109375 24.8125 6.109375 
Q 31.15625 6.109375 34.5625 8.28125 
Q 37.984375 10.453125 37.984375 14.40625 
Q 37.984375 18.0625 35.515625 20.015625 
Q 33.0625 21.96875 24.703125 23.78125 
L 21.578125 24.515625 
Q 13.234375 26.265625 9.515625 29.90625 
Q 5.8125 33.546875 5.8125 39.890625 
Q 5.8125 47.609375 11.28125 51.796875 
Q 16.75 56 26.8125 56 
Q 31.78125 56 36.171875 55.265625 
Q 40.578125 54.546875 44.28125 53.078125 
z
" id="DejaVuSans-73"/>
      <path d="M 8.015625 75.875 
L 15.828125 75.875 
Q 23.140625 64.359375 26.78125 53.3125 
Q 30.421875 42.28125 30.421875 31.390625 
Q 30.421875 20.453125 26.78125 9.375 
Q 23.140625 -1.703125 15.828125 -13.1875 
L 8.015625 -13.1875 
Q 14.5 -2 17.703125 9.0625 
Q 20.90625 20.125 20.90625 31.390625 
Q 20.90625 42.671875 17.703125 53.65625 
Q 14.5 64.65625 8.015625 75.875 
z
" id="DejaVuSans-29"/>
     </defs>
     <g transform="translate(202.286563 330.144062)scale(0.1 -0.1)">
      <use xlink:href="#DejaVuSans-54"/>
      <use x="61.037109" xlink:href="#DejaVuSans-69"/>
      <use x="88.820312" xlink:href="#DejaVuSans-6d"/>
      <use x="186.232422" xlink:href="#DejaVuSans-65"/>
      <use x="247.755859" xlink:href="#DejaVuSans-28"/>
      <use x="286.769531" xlink:href="#DejaVuSans-73"/>
      <use x="338.869141" xlink:href="#DejaVuSans-29"/>
     </g>
    </g>
   </g>
   <g id="matplotlib.axis_2">
    <g id="ytick_1">
     <g id="line2d_17">
      <path clip-path="url(#p91e3d70b5f)" d="M 42.620313 301.8675 
L 399.740313 301.8675 
" style="fill:none;stroke:#b0b0b0;stroke-linecap:square;stroke-width:0.8;"/>
     </g>
     <g id="line2d_18">
      <defs>
       <path d="M 0 0 
L -3.5 0 
" id="m049f1254b6" style="stroke:#000000;stroke-width:0.8;"/>
      </defs>
      <g>
       <use style="stroke:#000000;stroke-width:0.8;" x="42.620313" xlink:href="#m049f1254b6" y="301.8675"/>
      </g>
     </g>
     <g id="text_10">
      <!-- −1 -->
      <defs>
       <path d="M 10.59375 35.5 
L 73.1875 35.5 
L 73.1875 27.203125 
L 10.59375 27.203125 
z
" id="DejaVuSans-2212"/>
      </defs>
      <g transform="translate(20.878125 305.666719)scale(0.1 -0.1)">
       <use xlink:href="#DejaVuSans-2212"/>
       <use x="83.789062" xlink:href="#DejaVuSans-31"/>
      </g>
     </g>
    </g>
    <g id="ytick_2">
     <g id="line2d_19">
      <path clip-path="url(#p91e3d70b5f)" d="M 42.620313 259.459213 
L 399.740313 259.459213 
" style="fill:none;stroke:#b0b0b0;stroke-linecap:square;stroke-width:0.8;"/>
     </g>
     <g id="line2d_20">
      <g>
       <use style="stroke:#000000;stroke-width:0.8;" x="42.620313" xlink:href="#m049f1254b6" y="259.459213"/>
      </g>
     </g>
     <g id="text_11">
      <!-- 0 -->
      <g transform="translate(29.257813 263.258432)scale(0.1 -0.1)">
       <use xlink:href="#DejaVuSans-30"/>
      </g>
     </g>
    </g>
    <g id="ytick_3">
     <g id="line2d_21">
      <path clip-path="url(#p91e3d70b5f)" d="M 42.620313 217.050926 
L 399.740313 217.050926 
" style="fill:none;stroke:#b0b0b0;stroke-linecap:square;stroke-width:0.8;"/>
     </g>
     <g id="line2d_22">
      <g>
       <use style="stroke:#000000;stroke-width:0.8;" x="42.620313" xlink:href="#m049f1254b6" y="217.050926"/>
      </g>
     </g>
     <g id="text_12">
      <!-- 1 -->
      <g transform="translate(29.257813 220.850145)scale(0.1 -0.1)">
       <use xlink:href="#DejaVuSans-31"/>
      </g>
     </g>
    </g>
    <g id="ytick_4">
     <g id="line2d_23">
      <path clip-path="url(#p91e3d70b5f)" d="M 42.620313 174.642639 
L 399.740313 174.642639 
" style="fill:none;stroke:#b0b0b0;stroke-linecap:square;stroke-width:0.8;"/>
     </g>
     <g id="line2d_24">
      <g>
       <use style="stroke:#000000;stroke-width:0.8;" x="42.620313" xlink:href="#m049f1254b6" y="174.642639"/>
      </g>
     </g>
     <g id="text_13">
      <!-- 2 -->
      <g transform="translate(29.257813 178.441858)scale(0.1 -0.1)">
       <use xlink:href="#DejaVuSans-32"/>
      </g>
     </g>
    </g>
    <g id="ytick_5">
     <g id="line2d_25">
      <path clip-path="url(#p91e3d70b5f)" d="M 42.620313 132.234353 
L 399.740313 132.234353 
" style="fill:none;stroke:#b0b0b0;stroke-linecap:square;stroke-width:0.8;"/>
     </g>
     <g id="line2d_26">
      <g>
       <use style="stroke:#000000;stroke-width:0.8;" x="42.620313" xlink:href="#m049f1254b6" y="132.234353"/>
      </g>
     </g>
     <g id="text_14">
      <!-- 3 -->
      <g transform="translate(29.257813 136.033571)scale(0.1 -0.1)">
       <use xlink:href="#DejaVuSans-33"/>
      </g>
     </g>
    </g>
    <g id="ytick_6">
     <g id="line2d_27">
      <path clip-path="url(#p91e3d70b5f)" d="M 42.620313 89.826066 
L 399.740313 89.826066 
" style="fill:none;stroke:#b0b0b0;stroke-linecap:square;stroke-width:0.8;"/>
     </g>
     <g id="line2d_28">
      <g>
       <use style="stroke:#000000;stroke-width:0.8;" x="42.620313" xlink:href="#m049f1254b6" y="89.826066"/>
      </g>
     </g>
     <g id="text_15">
      <!-- 4 -->
      <defs>
       <path d="M 37.796875 64.3125 
L 12.890625 25.390625 
L 37.796875 25.390625 
z
M 35.203125 72.90625 
L 47.609375 72.90625 
L 47.609375 25.390625 
L 58.015625 25.390625 
L 58.015625 17.1875 
L 47.609375 17.1875 
L 47.609375 0 
L 37.796875 0 
L 37.796875 17.1875 
L 4.890625 17.1875 
L 4.890625 26.703125 
z
" id="DejaVuSans-34"/>
      </defs>
      <g transform="translate(29.257813 93.625284)scale(0.1 -0.1)">
       <use xlink:href="#DejaVuSans-34"/>
      </g>
     </g>
    </g>
    <g id="ytick_7">
     <g id="line2d_29">
      <path clip-path="url(#p91e3d70b5f)" d="M 42.620313 47.417779 
L 399.740313 47.417779 
" style="fill:none;stroke:#b0b0b0;stroke-linecap:square;stroke-width:0.8;"/>
     </g>
     <g id="line2d_30">
      <g>
       <use style="stroke:#000000;stroke-width:0.8;" x="42.620313" xlink:href="#m049f1254b6" y="47.417779"/>
      </g>
     </g>
     <g id="text_16">
      <!-- 5 -->
      <g transform="translate(29.257813 51.216998)scale(0.1 -0.1)">
       <use xlink:href="#DejaVuSans-35"/>
      </g>
     </g>
    </g>
    <g id="text_17">
     <!-- Number of drone encounters -->
     <defs>
      <path d="M 9.8125 72.90625 
L 23.09375 72.90625 
L 55.421875 11.921875 
L 55.421875 72.90625 
L 64.984375 72.90625 
L 64.984375 0 
L 51.703125 0 
L 19.390625 60.984375 
L 19.390625 0 
L 9.8125 0 
z
" id="DejaVuSans-4e"/>
      <path d="M 8.5 21.578125 
L 8.5 54.6875 
L 17.484375 54.6875 
L 17.484375 21.921875 
Q 17.484375 14.15625 20.5 10.265625 
Q 23.53125 6.390625 29.59375 6.390625 
Q 36.859375 6.390625 41.078125 11.03125 
Q 45.3125 15.671875 45.3125 23.6875 
L 45.3125 54.6875 
L 54.296875 54.6875 
L 54.296875 0 
L 45.3125 0 
L 45.3125 8.40625 
Q 42.046875 3.421875 37.71875 1 
Q 33.40625 -1.421875 27.6875 -1.421875 
Q 18.265625 -1.421875 13.375 4.4375 
Q 8.5 10.296875 8.5 21.578125 
z
M 31.109375 56 
z
" id="DejaVuSans-75"/>
      <path d="M 48.6875 27.296875 
Q 48.6875 37.203125 44.609375 42.84375 
Q 40.53125 48.484375 33.40625 48.484375 
Q 26.265625 48.484375 22.1875 42.84375 
Q 18.109375 37.203125 18.109375 27.296875 
Q 18.109375 17.390625 22.1875 11.75 
Q 26.265625 6.109375 33.40625 6.109375 
Q 40.53125 6.109375 44.609375 11.75 
Q 48.6875 17.390625 48.6875 27.296875 
z
M 18.109375 46.390625 
Q 20.953125 51.265625 25.265625 53.625 
Q 29.59375 56 35.59375 56 
Q 45.5625 56 51.78125 48.09375 
Q 58.015625 40.1875 58.015625 27.296875 
Q 58.015625 14.40625 51.78125 6.484375 
Q 45.5625 -1.421875 35.59375 -1.421875 
Q 29.59375 -1.421875 25.265625 0.953125 
Q 20.953125 3.328125 18.109375 8.203125 
L 18.109375 0 
L 9.078125 0 
L 9.078125 75.984375 
L 18.109375 75.984375 
z
" id="DejaVuSans-62"/>
      <path d="M 41.109375 46.296875 
Q 39.59375 47.171875 37.8125 47.578125 
Q 36.03125 48 33.890625 48 
Q 26.265625 48 22.1875 43.046875 
Q 18.109375 38.09375 18.109375 28.8125 
L 18.109375 0 
L 9.078125 0 
L 9.078125 54.6875 
L 18.109375 54.6875 
L 18.109375 46.1875 
Q 20.953125 51.171875 25.484375 53.578125 
Q 30.03125 56 36.53125 56 
Q 37.453125 56 38.578125 55.875 
Q 39.703125 55.765625 41.0625 55.515625 
z
" id="DejaVuSans-72"/>
      <path id="DejaVuSans-20"/>
      <path d="M 30.609375 48.390625 
Q 23.390625 48.390625 19.1875 42.75 
Q 14.984375 37.109375 14.984375 27.296875 
Q 14.984375 17.484375 19.15625 11.84375 
Q 23.34375 6.203125 30.609375 6.203125 
Q 37.796875 6.203125 41.984375 11.859375 
Q 46.1875 17.53125 46.1875 27.296875 
Q 46.1875 37.015625 41.984375 42.703125 
Q 37.796875 48.390625 30.609375 48.390625 
z
M 30.609375 56 
Q 42.328125 56 49.015625 48.375 
Q 55.71875 40.765625 55.71875 27.296875 
Q 55.71875 13.875 49.015625 6.21875 
Q 42.328125 -1.421875 30.609375 -1.421875 
Q 18.84375 -1.421875 12.171875 6.21875 
Q 5.515625 13.875 5.515625 27.296875 
Q 5.515625 40.765625 12.171875 48.375 
Q 18.84375 56 30.609375 56 
z
" id="DejaVuSans-6f"/>
      <path d="M 37.109375 75.984375 
L 37.109375 68.5 
L 28.515625 68.5 
Q 23.6875 68.5 21.796875 66.546875 
Q 19.921875 64.59375 19.921875 59.515625 
L 19.921875 54.6875 
L 34.71875 54.6875 
L 34.71875 47.703125 
L 19.921875 47.703125 
L 19.921875 0 
L 10.890625 0 
L 10.890625 47.703125 
L 2.296875 47.703125 
L 2.296875 54.6875 
L 10.890625 54.6875 
L 10.890625 58.5 
Q 10.890625 67.625 15.140625 71.796875 
Q 19.390625 75.984375 28.609375 75.984375 
z
" id="DejaVuSans-66"/>
      <path d="M 45.40625 46.390625 
L 45.40625 75.984375 
L 54.390625 75.984375 
L 54.390625 0 
L 45.40625 0 
L 45.40625 8.203125 
Q 42.578125 3.328125 38.25 0.953125 
Q 33.9375 -1.421875 27.875 -1.421875 
Q 17.96875 -1.421875 11.734375 6.484375 
Q 5.515625 14.40625 5.515625 27.296875 
Q 5.515625 40.1875 11.734375 48.09375 
Q 17.96875 56 27.875 56 
Q 33.9375 56 38.25 53.625 
Q 42.578125 51.265625 45.40625 46.390625 
z
M 14.796875 27.296875 
Q 14.796875 17.390625 18.875 11.75 
Q 22.953125 6.109375 30.078125 6.109375 
Q 37.203125 6.109375 41.296875 11.75 
Q 45.40625 17.390625 45.40625 27.296875 
Q 45.40625 37.203125 41.296875 42.84375 
Q 37.203125 48.484375 30.078125 48.484375 
Q 22.953125 48.484375 18.875 42.84375 
Q 14.796875 37.203125 14.796875 27.296875 
z
" id="DejaVuSans-64"/>
      <path d="M 54.890625 33.015625 
L 54.890625 0 
L 45.90625 0 
L 45.90625 32.71875 
Q 45.90625 40.484375 42.875 44.328125 
Q 39.84375 48.1875 33.796875 48.1875 
Q 26.515625 48.1875 22.3125 43.546875 
Q 18.109375 38.921875 18.109375 30.90625 
L 18.109375 0 
L 9.078125 0 
L 9.078125 54.6875 
L 18.109375 54.6875 
L 18.109375 46.1875 
Q 21.34375 51.125 25.703125 53.5625 
Q 30.078125 56 35.796875 56 
Q 45.21875 56 50.046875 50.171875 
Q 54.890625 44.34375 54.890625 33.015625 
z
" id="DejaVuSans-6e"/>
      <path d="M 48.78125 52.59375 
L 48.78125 44.1875 
Q 44.96875 46.296875 41.140625 47.34375 
Q 37.3125 48.390625 33.40625 48.390625 
Q 24.65625 48.390625 19.8125 42.84375 
Q 14.984375 37.3125 14.984375 27.296875 
Q 14.984375 17.28125 19.8125 11.734375 
Q 24.65625 6.203125 33.40625 6.203125 
Q 37.3125 6.203125 41.140625 7.25 
Q 44.96875 8.296875 48.78125 10.40625 
L 48.78125 2.09375 
Q 45.015625 0.34375 40.984375 -0.53125 
Q 36.96875 -1.421875 32.421875 -1.421875 
Q 20.0625 -1.421875 12.78125 6.34375 
Q 5.515625 14.109375 5.515625 27.296875 
Q 5.515625 40.671875 12.859375 48.328125 
Q 20.21875 56 33.015625 56 
Q 37.15625 56 41.109375 55.140625 
Q 45.0625 54.296875 48.78125 52.59375 
z
" id="DejaVuSans-63"/>
      <path d="M 18.3125 70.21875 
L 18.3125 54.6875 
L 36.8125 54.6875 
L 36.8125 47.703125 
L 18.3125 47.703125 
L 18.3125 18.015625 
Q 18.3125 11.328125 20.140625 9.421875 
Q 21.96875 7.515625 27.59375 7.515625 
L 36.8125 7.515625 
L 36.8125 0 
L 27.59375 0 
Q 17.1875 0 13.234375 3.875 
Q 9.28125 7.765625 9.28125 18.015625 
L 9.28125 47.703125 
L 2.6875 47.703125 
L 2.6875 54.6875 
L 9.28125 54.6875 
L 9.28125 70.21875 
z
" id="DejaVuSans-74"/>
     </defs>
     <g transform="translate(14.798438 241.10525)rotate(-90)scale(0.1 -0.1)">
      <use xlink:href="#DejaVuSans-4e"/>
      <use x="74.804688" xlink:href="#DejaVuSans-75"/>
      <use x="138.183594" xlink:href="#DejaVuSans-6d"/>
      <use x="235.595703" xlink:href="#DejaVuSans-62"/>
      <use x="299.072266" xlink:href="#DejaVuSans-65"/>
      <use x="360.595703" xlink:href="#DejaVuSans-72"/>
      <use x="401.708984" xlink:href="#DejaVuSans-20"/>
      <use x="433.496094" xlink:href="#DejaVuSans-6f"/>
      <use x="494.677734" xlink:href="#DejaVuSans-66"/>
      <use x="529.882812" xlink:href="#DejaVuSans-20"/>
      <use x="561.669922" xlink:href="#DejaVuSans-64"/>
      <use x="625.146484" xlink:href="#DejaVuSans-72"/>
      <use x="666.228516" xlink:href="#DejaVuSans-6f"/>
      <use x="727.410156" xlink:href="#DejaVuSans-6e"/>
      <use x="790.789062" xlink:href="#DejaVuSans-65"/>
      <use x="852.3125" xlink:href="#DejaVuSans-20"/>
      <use x="884.099609" xlink:href="#DejaVuSans-65"/>
      <use x="945.623047" xlink:href="#DejaVuSans-6e"/>
      <use x="1009.001953" xlink:href="#DejaVuSans-63"/>
      <use x="1063.982422" xlink:href="#DejaVuSans-6f"/>
      <use x="1125.164062" xlink:href="#DejaVuSans-75"/>
      <use x="1188.542969" xlink:href="#DejaVuSans-6e"/>
      <use x="1251.921875" xlink:href="#DejaVuSans-74"/>
      <use x="1291.130859" xlink:href="#DejaVuSans-65"/>
      <use x="1352.654297" xlink:href="#DejaVuSans-72"/>
      <use x="1393.767578" xlink:href="#DejaVuSans-73"/>
     </g>
    </g>
   </g>
   <g id="line2d_31">
    <path clip-path="url(#p91e3d70b5f)" d="M 42.620313 47.417779 
L 398.71997 47.417779 
L 398.71997 47.417779 
" style="fill:none;stroke:#008000;stroke-linecap:square;stroke-width:1.5;"/>
   </g>
   <g id="patch_3">
    <path d="M 42.620313 301.8675 
L 42.620313 35.7555 
" style="fill:none;stroke:#000000;stroke-linecap:square;stroke-linejoin:miter;stroke-width:0.8;"/>
   </g>
   <g id="patch_4">
    <path d="M 399.740313 301.8675 
L 399.740313 35.7555 
" style="fill:none;stroke:#000000;stroke-linecap:square;stroke-linejoin:miter;stroke-width:0.8;"/>
   </g>
   <g id="patch_5">
    <path d="M 42.620313 301.8675 
L 399.740313 301.8675 
" style="fill:none;stroke:#000000;stroke-linecap:square;stroke-linejoin:miter;stroke-width:0.8;"/>
   </g>
   <g id="patch_6">
    <path d="M 42.620313 35.7555 
L 399.740313 35.7555 
" style="fill:none;stroke:#000000;stroke-linecap:square;stroke-linejoin:miter;stroke-width:0.8;"/>
   </g>
   <g id="text_18">
    <!-- 1st stage max (x,y): (115.0,  5.0) -->
    <defs>
     <path d="M 34.28125 27.484375 
Q 23.390625 27.484375 19.1875 25 
Q 14.984375 22.515625 14.984375 16.5 
Q 14.984375 11.71875 18.140625 8.90625 
Q 21.296875 6.109375 26.703125 6.109375 
Q 34.1875 6.109375 38.703125 11.40625 
Q 43.21875 16.703125 43.21875 25.484375 
L 43.21875 27.484375 
z
M 52.203125 31.203125 
L 52.203125 0 
L 43.21875 0 
L 43.21875 8.296875 
Q 40.140625 3.328125 35.546875 0.953125 
Q 30.953125 -1.421875 24.3125 -1.421875 
Q 15.921875 -1.421875 10.953125 3.296875 
Q 6 8.015625 6 15.921875 
Q 6 25.140625 12.171875 29.828125 
Q 18.359375 34.515625 30.609375 34.515625 
L 43.21875 34.515625 
L 43.21875 35.40625 
Q 43.21875 41.609375 39.140625 45 
Q 35.0625 48.390625 27.6875 48.390625 
Q 23 48.390625 18.546875 47.265625 
Q 14.109375 46.140625 10.015625 43.890625 
L 10.015625 52.203125 
Q 14.9375 54.109375 19.578125 55.046875 
Q 24.21875 56 28.609375 56 
Q 40.484375 56 46.34375 49.84375 
Q 52.203125 43.703125 52.203125 31.203125 
z
" id="DejaVuSans-61"/>
     <path d="M 45.40625 27.984375 
Q 45.40625 37.75 41.375 43.109375 
Q 37.359375 48.484375 30.078125 48.484375 
Q 22.859375 48.484375 18.828125 43.109375 
Q 14.796875 37.75 14.796875 27.984375 
Q 14.796875 18.265625 18.828125 12.890625 
Q 22.859375 7.515625 30.078125 7.515625 
Q 37.359375 7.515625 41.375 12.890625 
Q 45.40625 18.265625 45.40625 27.984375 
z
M 54.390625 6.78125 
Q 54.390625 -7.171875 48.1875 -13.984375 
Q 42 -20.796875 29.203125 -20.796875 
Q 24.46875 -20.796875 20.265625 -20.09375 
Q 16.0625 -19.390625 12.109375 -17.921875 
L 12.109375 -9.1875 
Q 16.0625 -11.328125 19.921875 -12.34375 
Q 23.78125 -13.375 27.78125 -13.375 
Q 36.625 -13.375 41.015625 -8.765625 
Q 45.40625 -4.15625 45.40625 5.171875 
L 45.40625 9.625 
Q 42.625 4.78125 38.28125 2.390625 
Q 33.9375 0 27.875 0 
Q 17.828125 0 11.671875 7.65625 
Q 5.515625 15.328125 5.515625 27.984375 
Q 5.515625 40.671875 11.671875 48.328125 
Q 17.828125 56 27.875 56 
Q 33.9375 56 38.28125 53.609375 
Q 42.625 51.21875 45.40625 46.390625 
L 45.40625 54.6875 
L 54.390625 54.6875 
z
" id="DejaVuSans-67"/>
     <path d="M 54.890625 54.6875 
L 35.109375 28.078125 
L 55.90625 0 
L 45.3125 0 
L 29.390625 21.484375 
L 13.484375 0 
L 2.875 0 
L 24.125 28.609375 
L 4.6875 54.6875 
L 15.28125 54.6875 
L 29.78125 35.203125 
L 44.28125 54.6875 
z
" id="DejaVuSans-78"/>
     <path d="M 11.71875 12.40625 
L 22.015625 12.40625 
L 22.015625 4 
L 14.015625 -11.625 
L 7.71875 -11.625 
L 11.71875 4 
z
" id="DejaVuSans-2c"/>
     <path d="M 32.171875 -5.078125 
Q 28.375 -14.84375 24.75 -17.8125 
Q 21.140625 -20.796875 15.09375 -20.796875 
L 7.90625 -20.796875 
L 7.90625 -13.28125 
L 13.1875 -13.28125 
Q 16.890625 -13.28125 18.9375 -11.515625 
Q 21 -9.765625 23.484375 -3.21875 
L 25.09375 0.875 
L 2.984375 54.6875 
L 12.5 54.6875 
L 29.59375 11.921875 
L 46.6875 54.6875 
L 56.203125 54.6875 
z
" id="DejaVuSans-79"/>
     <path d="M 11.71875 12.40625 
L 22.015625 12.40625 
L 22.015625 0 
L 11.71875 0 
z
M 11.71875 51.703125 
L 22.015625 51.703125 
L 22.015625 39.3125 
L 11.71875 39.3125 
z
" id="DejaVuSans-3a"/>
     <path d="M 10.6875 12.40625 
L 21 12.40625 
L 21 0 
L 10.6875 0 
z
" id="DejaVuSans-2e"/>
    </defs>
    <g transform="translate(417.596313 245.878437)scale(0.1 -0.1)">
     <use xlink:href="#DejaVuSans-31"/>
     <use x="63.623047" xlink:href="#DejaVuSans-73"/>
     <use x="115.722656" xlink:href="#DejaVuSans-74"/>
     <use x="154.931641" xlink:href="#DejaVuSans-20"/>
     <use x="186.71875" xlink:href="#DejaVuSans-73"/>
     <use x="238.818359" xlink:href="#DejaVuSans-74"/>
     <use x="278.027344" xlink:href="#DejaVuSans-61"/>
     <use x="339.306641" xlink:href="#DejaVuSans-67"/>
     <use x="402.783203" xlink:href="#DejaVuSans-65"/>
     <use x="464.306641" xlink:href="#DejaVuSans-20"/>
     <use x="496.09375" xlink:href="#DejaVuSans-6d"/>
     <use x="593.505859" xlink:href="#DejaVuSans-61"/>
     <use x="654.785156" xlink:href="#DejaVuSans-78"/>
     <use x="713.964844" xlink:href="#DejaVuSans-20"/>
     <use x="745.751953" xlink:href="#DejaVuSans-28"/>
     <use x="784.765625" xlink:href="#DejaVuSans-78"/>
     <use x="843.945312" xlink:href="#DejaVuSans-2c"/>
     <use x="875.732422" xlink:href="#DejaVuSans-79"/>
     <use x="934.912109" xlink:href="#DejaVuSans-29"/>
     <use x="973.925781" xlink:href="#DejaVuSans-3a"/>
     <use x="1007.617188" xlink:href="#DejaVuSans-20"/>
     <use x="1039.404297" xlink:href="#DejaVuSans-28"/>
     <use x="1078.417969" xlink:href="#DejaVuSans-31"/>
     <use x="1142.041016" xlink:href="#DejaVuSans-31"/>
     <use x="1205.664062" xlink:href="#DejaVuSans-35"/>
     <use x="1269.287109" xlink:href="#DejaVuSans-2e"/>
     <use x="1301.074219" xlink:href="#DejaVuSans-30"/>
     <use x="1364.697266" xlink:href="#DejaVuSans-2c"/>
     <use x="1396.484375" xlink:href="#DejaVuSans-20"/>
     <use x="1428.271484" xlink:href="#DejaVuSans-20"/>
     <use x="1460.058594" xlink:href="#DejaVuSans-35"/>
     <use x="1523.681641" xlink:href="#DejaVuSans-2e"/>
     <use x="1555.46875" xlink:href="#DejaVuSans-30"/>
     <use x="1619.091797" xlink:href="#DejaVuSans-29"/>
    </g>
    <!-- 2nd stage max (x,y): (231.0,  5.0) -->
    <g transform="translate(417.596313 257.07625)scale(0.1 -0.1)">
     <use xlink:href="#DejaVuSans-32"/>
     <use x="63.623047" xlink:href="#DejaVuSans-6e"/>
     <use x="127.001953" xlink:href="#DejaVuSans-64"/>
     <use x="190.478516" xlink:href="#DejaVuSans-20"/>
     <use x="222.265625" xlink:href="#DejaVuSans-73"/>
     <use x="274.365234" xlink:href="#DejaVuSans-74"/>
     <use x="313.574219" xlink:href="#DejaVuSans-61"/>
     <use x="374.853516" xlink:href="#DejaVuSans-67"/>
     <use x="438.330078" xlink:href="#DejaVuSans-65"/>
     <use x="499.853516" xlink:href="#DejaVuSans-20"/>
     <use x="531.640625" xlink:href="#DejaVuSans-6d"/>
     <use x="629.052734" xlink:href="#DejaVuSans-61"/>
     <use x="690.332031" xlink:href="#DejaVuSans-78"/>
     <use x="749.511719" xlink:href="#DejaVuSans-20"/>
     <use x="781.298828" xlink:href="#DejaVuSans-28"/>
     <use x="820.3125" xlink:href="#DejaVuSans-78"/>
     <use x="879.492188" xlink:href="#DejaVuSans-2c"/>
     <use x="911.279297" xlink:href="#DejaVuSans-79"/>
     <use x="970.458984" xlink:href="#DejaVuSans-29"/>
     <use x="1009.472656" xlink:href="#DejaVuSans-3a"/>
     <use x="1043.164062" xlink:href="#DejaVuSans-20"/>
     <use x="1074.951172" xlink:href="#DejaVuSans-28"/>
     <use x="1113.964844" xlink:href="#DejaVuSans-32"/>
     <use x="1177.587891" xlink:href="#DejaVuSans-33"/>
     <use x="1241.210938" xlink:href="#DejaVuSans-31"/>
     <use x="1304.833984" xlink:href="#DejaVuSans-2e"/>
     <use x="1336.621094" xlink:href="#DejaVuSans-30"/>
     <use x="1400.244141" xlink:href="#DejaVuSans-2c"/>
     <use x="1432.03125" xlink:href="#DejaVuSans-20"/>
     <use x="1463.818359" xlink:href="#DejaVuSans-20"/>
     <use x="1495.605469" xlink:href="#DejaVuSans-35"/>
     <use x="1559.228516" xlink:href="#DejaVuSans-2e"/>
     <use x="1591.015625" xlink:href="#DejaVuSans-30"/>
     <use x="1654.638672" xlink:href="#DejaVuSans-29"/>
    </g>
    <!-- 3rd stage max (x,y): (349.0,  5.0) -->
    <defs>
     <path d="M 10.984375 1.515625 
L 10.984375 10.5 
Q 14.703125 8.734375 18.5 7.8125 
Q 22.3125 6.890625 25.984375 6.890625 
Q 35.75 6.890625 40.890625 13.453125 
Q 46.046875 20.015625 46.78125 33.40625 
Q 43.953125 29.203125 39.59375 26.953125 
Q 35.25 24.703125 29.984375 24.703125 
Q 19.046875 24.703125 12.671875 31.3125 
Q 6.296875 37.9375 6.296875 49.421875 
Q 6.296875 60.640625 12.9375 67.421875 
Q 19.578125 74.21875 30.609375 74.21875 
Q 43.265625 74.21875 49.921875 64.515625 
Q 56.59375 54.828125 56.59375 36.375 
Q 56.59375 19.140625 48.40625 8.859375 
Q 40.234375 -1.421875 26.421875 -1.421875 
Q 22.703125 -1.421875 18.890625 -0.6875 
Q 15.09375 0.046875 10.984375 1.515625 
z
M 30.609375 32.421875 
Q 37.25 32.421875 41.125 36.953125 
Q 45.015625 41.5 45.015625 49.421875 
Q 45.015625 57.28125 41.125 61.84375 
Q 37.25 66.40625 30.609375 66.40625 
Q 23.96875 66.40625 20.09375 61.84375 
Q 16.21875 57.28125 16.21875 49.421875 
Q 16.21875 41.5 20.09375 36.953125 
Q 23.96875 32.421875 30.609375 32.421875 
z
" id="DejaVuSans-39"/>
    </defs>
    <g transform="translate(417.596313 268.274062)scale(0.1 -0.1)">
     <use xlink:href="#DejaVuSans-33"/>
     <use x="63.623047" xlink:href="#DejaVuSans-72"/>
     <use x="104.720703" xlink:href="#DejaVuSans-64"/>
     <use x="168.197266" xlink:href="#DejaVuSans-20"/>
     <use x="199.984375" xlink:href="#DejaVuSans-73"/>
     <use x="252.083984" xlink:href="#DejaVuSans-74"/>
     <use x="291.292969" xlink:href="#DejaVuSans-61"/>
     <use x="352.572266" xlink:href="#DejaVuSans-67"/>
     <use x="416.048828" xlink:href="#DejaVuSans-65"/>
     <use x="477.572266" xlink:href="#DejaVuSans-20"/>
     <use x="509.359375" xlink:href="#DejaVuSans-6d"/>
     <use x="606.771484" xlink:href="#DejaVuSans-61"/>
     <use x="668.050781" xlink:href="#DejaVuSans-78"/>
     <use x="727.230469" xlink:href="#DejaVuSans-20"/>
     <use x="759.017578" xlink:href="#DejaVuSans-28"/>
     <use x="798.03125" xlink:href="#DejaVuSans-78"/>
     <use x="857.210938" xlink:href="#DejaVuSans-2c"/>
     <use x="888.998047" xlink:href="#DejaVuSans-79"/>
     <use x="948.177734" xlink:href="#DejaVuSans-29"/>
     <use x="987.191406" xlink:href="#DejaVuSans-3a"/>
     <use x="1020.882812" xlink:href="#DejaVuSans-20"/>
     <use x="1052.669922" xlink:href="#DejaVuSans-28"/>
     <use x="1091.683594" xlink:href="#DejaVuSans-33"/>
     <use x="1155.306641" xlink:href="#DejaVuSans-34"/>
     <use x="1218.929688" xlink:href="#DejaVuSans-39"/>
     <use x="1282.552734" xlink:href="#DejaVuSans-2e"/>
     <use x="1314.339844" xlink:href="#DejaVuSans-30"/>
     <use x="1377.962891" xlink:href="#DejaVuSans-2c"/>
     <use x="1409.75" xlink:href="#DejaVuSans-20"/>
     <use x="1441.537109" xlink:href="#DejaVuSans-20"/>
     <use x="1473.324219" xlink:href="#DejaVuSans-35"/>
     <use x="1536.947266" xlink:href="#DejaVuSans-2e"/>
     <use x="1568.734375" xlink:href="#DejaVuSans-30"/>
     <use x="1632.357422" xlink:href="#DejaVuSans-29"/>
    </g>
    <!-- Total encounters (avg): 1750.0 -->
    <defs>
     <path d="M 9.421875 75.984375 
L 18.40625 75.984375 
L 18.40625 0 
L 9.421875 0 
z
" id="DejaVuSans-6c"/>
     <path d="M 2.984375 54.6875 
L 12.5 54.6875 
L 29.59375 8.796875 
L 46.6875 54.6875 
L 56.203125 54.6875 
L 35.6875 0 
L 23.484375 0 
z
" id="DejaVuSans-76"/>
     <path d="M 8.203125 72.90625 
L 55.078125 72.90625 
L 55.078125 68.703125 
L 28.609375 0 
L 18.3125 0 
L 43.21875 64.59375 
L 8.203125 64.59375 
z
" id="DejaVuSans-37"/>
    </defs>
    <g transform="translate(417.596313 279.471875)scale(0.1 -0.1)">
     <use xlink:href="#DejaVuSans-54"/>
     <use x="60.818359" xlink:href="#DejaVuSans-6f"/>
     <use x="122" xlink:href="#DejaVuSans-74"/>
     <use x="161.208984" xlink:href="#DejaVuSans-61"/>
     <use x="222.488281" xlink:href="#DejaVuSans-6c"/>
     <use x="250.271484" xlink:href="#DejaVuSans-20"/>
     <use x="282.058594" xlink:href="#DejaVuSans-65"/>
     <use x="343.582031" xlink:href="#DejaVuSans-6e"/>
     <use x="406.960938" xlink:href="#DejaVuSans-63"/>
     <use x="461.941406" xlink:href="#DejaVuSans-6f"/>
     <use x="523.123047" xlink:href="#DejaVuSans-75"/>
     <use x="586.501953" xlink:href="#DejaVuSans-6e"/>
     <use x="649.880859" xlink:href="#DejaVuSans-74"/>
     <use x="689.089844" xlink:href="#DejaVuSans-65"/>
     <use x="750.613281" xlink:href="#DejaVuSans-72"/>
     <use x="791.726562" xlink:href="#DejaVuSans-73"/>
     <use x="843.826172" xlink:href="#DejaVuSans-20"/>
     <use x="875.613281" xlink:href="#DejaVuSans-28"/>
     <use x="914.626953" xlink:href="#DejaVuSans-61"/>
     <use x="975.90625" xlink:href="#DejaVuSans-76"/>
     <use x="1035.085938" xlink:href="#DejaVuSans-67"/>
     <use x="1098.5625" xlink:href="#DejaVuSans-29"/>
     <use x="1137.576172" xlink:href="#DejaVuSans-3a"/>
     <use x="1171.267578" xlink:href="#DejaVuSans-20"/>
     <use x="1203.054688" xlink:href="#DejaVuSans-31"/>
     <use x="1266.677734" xlink:href="#DejaVuSans-37"/>
     <use x="1330.300781" xlink:href="#DejaVuSans-35"/>
     <use x="1393.923828" xlink:href="#DejaVuSans-30"/>
     <use x="1457.546875" xlink:href="#DejaVuSans-2e"/>
     <use x="1489.333984" xlink:href="#DejaVuSans-30"/>
    </g>
    <!-- dev : 0.00 -->
    <g transform="translate(417.596313 290.669687)scale(0.1 -0.1)">
     <use xlink:href="#DejaVuSans-64"/>
     <use x="63.476562" xlink:href="#DejaVuSans-65"/>
     <use x="125" xlink:href="#DejaVuSans-76"/>
     <use x="184.179688" xlink:href="#DejaVuSans-20"/>
     <use x="215.966797" xlink:href="#DejaVuSans-3a"/>
     <use x="249.658203" xlink:href="#DejaVuSans-20"/>
     <use x="281.445312" xlink:href="#DejaVuSans-30"/>
     <use x="345.068359" xlink:href="#DejaVuSans-2e"/>
     <use x="376.855469" xlink:href="#DejaVuSans-30"/>
     <use x="440.478516" xlink:href="#DejaVuSans-30"/>
    </g>
    <!-- Mean of encounters: 5.0 -->
    <defs>
     <path d="M 9.8125 72.90625 
L 24.515625 72.90625 
L 43.109375 23.296875 
L 61.8125 72.90625 
L 76.515625 72.90625 
L 76.515625 0 
L 66.890625 0 
L 66.890625 64.015625 
L 48.09375 14.015625 
L 38.1875 14.015625 
L 19.390625 64.015625 
L 19.390625 0 
L 9.8125 0 
z
" id="DejaVuSans-4d"/>
    </defs>
    <g transform="translate(417.596313 301.8675)scale(0.1 -0.1)">
     <use xlink:href="#DejaVuSans-4d"/>
     <use x="86.279297" xlink:href="#DejaVuSans-65"/>
     <use x="147.802734" xlink:href="#DejaVuSans-61"/>
     <use x="209.082031" xlink:href="#DejaVuSans-6e"/>
     <use x="272.460938" xlink:href="#DejaVuSans-20"/>
     <use x="304.248047" xlink:href="#DejaVuSans-6f"/>
     <use x="365.429688" xlink:href="#DejaVuSans-66"/>
     <use x="400.634766" xlink:href="#DejaVuSans-20"/>
     <use x="432.421875" xlink:href="#DejaVuSans-65"/>
     <use x="493.945312" xlink:href="#DejaVuSans-6e"/>
     <use x="557.324219" xlink:href="#DejaVuSans-63"/>
     <use x="612.304688" xlink:href="#DejaVuSans-6f"/>
     <use x="673.486328" xlink:href="#DejaVuSans-75"/>
     <use x="736.865234" xlink:href="#DejaVuSans-6e"/>
     <use x="800.244141" xlink:href="#DejaVuSans-74"/>
     <use x="839.453125" xlink:href="#DejaVuSans-65"/>
     <use x="900.976562" xlink:href="#DejaVuSans-72"/>
     <use x="942.089844" xlink:href="#DejaVuSans-73"/>
     <use x="994.189453" xlink:href="#DejaVuSans-3a"/>
     <use x="1027.880859" xlink:href="#DejaVuSans-20"/>
     <use x="1059.667969" xlink:href="#DejaVuSans-35"/>
     <use x="1123.291016" xlink:href="#DejaVuSans-2e"/>
     <use x="1155.078125" xlink:href="#DejaVuSans-30"/>
    </g>
   </g>
   <g id="text_19">
    <!-- Drone encounters per time [avg] -->
    <defs>
     <path d="M 19.671875 64.796875 
L 19.671875 8.109375 
L 31.59375 8.109375 
Q 46.6875 8.109375 53.6875 14.9375 
Q 60.6875 21.78125 60.6875 36.53125 
Q 60.6875 51.171875 53.6875 57.984375 
Q 46.6875 64.796875 31.59375 64.796875 
z
M 9.8125 72.90625 
L 30.078125 72.90625 
Q 51.265625 72.90625 61.171875 64.09375 
Q 71.09375 55.28125 71.09375 36.53125 
Q 71.09375 17.671875 61.125 8.828125 
Q 51.171875 0 30.078125 0 
L 9.8125 0 
z
" id="DejaVuSans-44"/>
     <path d="M 18.109375 8.203125 
L 18.109375 -20.796875 
L 9.078125 -20.796875 
L 9.078125 54.6875 
L 18.109375 54.6875 
L 18.109375 46.390625 
Q 20.953125 51.265625 25.265625 53.625 
Q 29.59375 56 35.59375 56 
Q 45.5625 56 51.78125 48.09375 
Q 58.015625 40.1875 58.015625 27.296875 
Q 58.015625 14.40625 51.78125 6.484375 
Q 45.5625 -1.421875 35.59375 -1.421875 
Q 29.59375 -1.421875 25.265625 0.953125 
Q 20.953125 3.328125 18.109375 8.203125 
z
M 48.6875 27.296875 
Q 48.6875 37.203125 44.609375 42.84375 
Q 40.53125 48.484375 33.40625 48.484375 
Q 26.265625 48.484375 22.1875 42.84375 
Q 18.109375 37.203125 18.109375 27.296875 
Q 18.109375 17.390625 22.1875 11.75 
Q 26.265625 6.109375 33.40625 6.109375 
Q 40.53125 6.109375 44.609375 11.75 
Q 48.6875 17.390625 48.6875 27.296875 
z
" id="DejaVuSans-70"/>
     <path d="M 8.59375 75.984375 
L 29.296875 75.984375 
L 29.296875 69 
L 17.578125 69 
L 17.578125 -6.203125 
L 29.296875 -6.203125 
L 29.296875 -13.1875 
L 8.59375 -13.1875 
z
" id="DejaVuSans-5b"/>
     <path d="M 30.421875 75.984375 
L 30.421875 -13.1875 
L 9.71875 -13.1875 
L 9.71875 -6.203125 
L 21.390625 -6.203125 
L 21.390625 69 
L 9.71875 69 
L 9.71875 75.984375 
z
" id="DejaVuSans-5d"/>
    </defs>
    <g transform="translate(122.354688 16.318125)scale(0.12 -0.12)">
     <use xlink:href="#DejaVuSans-44"/>
     <use x="77.001953" xlink:href="#DejaVuSans-72"/>
     <use x="118.083984" xlink:href="#DejaVuSans-6f"/>
     <use x="179.265625" xlink:href="#DejaVuSans-6e"/>
     <use x="242.644531" xlink:href="#DejaVuSans-65"/>
     <use x="304.167969" xlink:href="#DejaVuSans-20"/>
     <use x="335.955078" xlink:href="#DejaVuSans-65"/>
     <use x="397.478516" xlink:href="#DejaVuSans-6e"/>
     <use x="460.857422" xlink:href="#DejaVuSans-63"/>
     <use x="515.837891" xlink:href="#DejaVuSans-6f"/>
     <use x="577.019531" xlink:href="#DejaVuSans-75"/>
     <use x="640.398438" xlink:href="#DejaVuSans-6e"/>
     <use x="703.777344" xlink:href="#DejaVuSans-74"/>
     <use x="742.986328" xlink:href="#DejaVuSans-65"/>
     <use x="804.509766" xlink:href="#DejaVuSans-72"/>
     <use x="845.623047" xlink:href="#DejaVuSans-73"/>
     <use x="897.722656" xlink:href="#DejaVuSans-20"/>
     <use x="929.509766" xlink:href="#DejaVuSans-70"/>
     <use x="992.986328" xlink:href="#DejaVuSans-65"/>
     <use x="1054.509766" xlink:href="#DejaVuSans-72"/>
     <use x="1095.623047" xlink:href="#DejaVuSans-20"/>
     <use x="1127.410156" xlink:href="#DejaVuSans-74"/>
     <use x="1166.619141" xlink:href="#DejaVuSans-69"/>
     <use x="1194.402344" xlink:href="#DejaVuSans-6d"/>
     <use x="1291.814453" xlink:href="#DejaVuSans-65"/>
     <use x="1353.337891" xlink:href="#DejaVuSans-20"/>
     <use x="1385.125" xlink:href="#DejaVuSans-5b"/>
     <use x="1424.138672" xlink:href="#DejaVuSans-61"/>
     <use x="1485.417969" xlink:href="#DejaVuSans-76"/>
     <use x="1544.597656" xlink:href="#DejaVuSans-67"/>
     <use x="1608.074219" xlink:href="#DejaVuSans-5d"/>
    </g>
    <!-- lawn mower -->
    <defs>
     <path d="M 4.203125 54.6875 
L 13.1875 54.6875 
L 24.421875 12.015625 
L 35.59375 54.6875 
L 46.1875 54.6875 
L 57.421875 12.015625 
L 68.609375 54.6875 
L 77.59375 54.6875 
L 63.28125 0 
L 52.6875 0 
L 40.921875 44.828125 
L 29.109375 0 
L 18.5 0 
z
" id="DejaVuSans-77"/>
    </defs>
    <g transform="translate(184.639375 29.7555)scale(0.12 -0.12)">
     <use xlink:href="#DejaVuSans-6c"/>
     <use x="27.783203" xlink:href="#DejaVuSans-61"/>
     <use x="89.0625" xlink:href="#DejaVuSans-77"/>
     <use x="170.849609" xlink:href="#DejaVuSans-6e"/>
     <use x="234.228516" xlink:href="#DejaVuSans-20"/>
     <use x="266.015625" xlink:href="#DejaVuSans-6d"/>
     <use x="363.427734" xlink:href="#DejaVuSans-6f"/>
     <use x="424.609375" xlink:href="#DejaVuSans-77"/>
     <use x="506.396484" xlink:href="#DejaVuSans-65"/>
     <use x="567.919922" xlink:href="#DejaVuSans-72"/>
    </g>
   </g>
  </g>
 </g>
 <defs>
  <clipPath id="p91e3d70b5f">
   <rect height="266.112" width="357.12" x="42.620313" y="35.7555"/>
  </clipPath>
 </defs>
</svg>
