<?xml version="1.0" encoding="utf-8" standalone="no"?>
<!DOCTYPE svg PUBLIC "-//W3C//DTD SVG 1.1//EN"
  "http://www.w3.org/Graphics/SVG/1.1/DTD/svg11.dtd">
<!-- Created with matplotlib (http://matplotlib.org/) -->
<svg height="339pt" version="1.1" viewBox="0 0 571 339" width="571pt" xmlns="http://www.w3.org/2000/svg" xmlns:xlink="http://www.w3.org/1999/xlink">
 <defs>
  <style type="text/css">
*{stroke-linecap:butt;stroke-linejoin:round;}
  </style>
 </defs>
 <g id="figure_1">
  <g id="patch_1">
   <path d="M 0 339.42375 
L 571.711937 339.42375 
L 571.711937 0 
L 0 0 
z
" style="fill:#ffffff;"/>
  </g>
  <g id="axes_1">
   <g id="patch_2">
    <path d="M 40.603125 301.8675 
L 397.723125 301.8675 
L 397.723125 35.7555 
L 40.603125 35.7555 
z
" style="fill:#ffffff;"/>
   </g>
   <g id="PolyCollection_1">
    <defs>
     <path d="M 40.603125 -291.803384 
L 40.603125 -291.803384 
L 41.623468 -274.853575 
L 42.643811 -257.903766 
L 43.664154 -257.903766 
L 44.684496 -240.953957 
L 45.704839 -240.953957 
L 46.725182 -224.004148 
L 47.745525 -224.004148 
L 48.765868 -207.054339 
L 49.786211 -207.054339 
L 50.806554 -190.10453 
L 51.826896 -190.10453 
L 52.847239 -173.154721 
L 53.867582 -173.154721 
L 54.887925 -173.154721 
L 55.908268 -173.154721 
L 56.928611 -156.204912 
L 57.948954 -156.204912 
L 58.969296 -156.204912 
L 59.989639 -156.204912 
L 61.009982 -156.204912 
L 62.030325 -156.204912 
L 63.050668 -122.305295 
L 64.071011 -122.305295 
L 65.091354 -122.305295 
L 66.111696 -122.305295 
L 67.132039 -122.305295 
L 68.152382 -122.305295 
L 69.172725 -122.305295 
L 70.193068 -122.305295 
L 71.213411 -122.305295 
L 72.233754 -122.305295 
L 73.254096 -122.305295 
L 74.274439 -105.355486 
L 75.294782 -105.355486 
L 76.315125 -105.355486 
L 77.335468 -105.355486 
L 78.355811 -88.405677 
L 79.376154 -88.405677 
L 80.396496 -88.405677 
L 81.416839 -88.405677 
L 82.437182 -88.405677 
L 83.457525 -88.405677 
L 84.477868 -88.405677 
L 85.498211 -88.405677 
L 86.518554 -88.405677 
L 87.538896 -88.405677 
L 88.559239 -88.405677 
L 89.579582 -88.405677 
L 90.599925 -88.405677 
L 91.620268 -88.405677 
L 92.640611 -88.405677 
L 93.660954 -88.405677 
L 94.681296 -71.455868 
L 95.701639 -71.455868 
L 96.721982 -71.455868 
L 97.742325 -71.455868 
L 98.762668 -71.455868 
L 99.783011 -71.455868 
L 100.803354 -71.455868 
L 101.823696 -54.506059 
L 102.844039 -54.506059 
L 103.864382 -54.506059 
L 104.884725 -54.506059 
L 105.905068 -54.506059 
L 106.925411 -54.506059 
L 107.945754 -54.506059 
L 108.966096 -54.506059 
L 109.986439 -54.506059 
L 111.006782 -54.506059 
L 112.027125 -54.506059 
L 113.047468 -54.506059 
L 114.067811 -54.506059 
L 115.088154 -54.506059 
L 116.108496 -54.506059 
L 117.128839 -54.506059 
L 118.149182 -54.506059 
L 119.169525 -54.506059 
L 120.189868 -54.506059 
L 121.210211 -54.506059 
L 122.230554 -54.506059 
L 123.250896 -54.506059 
L 124.271239 -54.506059 
L 125.291582 -54.506059 
L 126.311925 -54.506059 
L 127.332268 -54.506059 
L 128.352611 -54.506059 
L 129.372954 -54.506059 
L 130.393296 -54.506059 
L 131.413639 -54.506059 
L 132.433982 -54.506059 
L 133.454325 -54.506059 
L 134.474668 -54.506059 
L 135.495011 -54.506059 
L 136.515354 -54.506059 
L 137.535696 -54.506059 
L 138.556039 -54.506059 
L 139.576382 -54.506059 
L 140.596725 -54.506059 
L 141.617068 -54.506059 
L 142.637411 -54.506059 
L 143.657754 -54.506059 
L 144.678096 -54.506059 
L 145.698439 -54.506059 
L 146.718782 -54.506059 
L 147.739125 -54.506059 
L 148.759468 -54.506059 
L 149.779811 -54.506059 
L 150.800154 -54.506059 
L 151.820496 -54.506059 
L 152.840839 -54.506059 
L 153.861182 -54.506059 
L 154.881525 -54.506059 
L 155.901868 -54.506059 
L 156.922211 -54.506059 
L 157.942554 -54.506059 
L 158.962896 -54.506059 
L 159.983239 -54.506059 
L 161.003582 -54.506059 
L 162.023925 -54.506059 
L 163.044268 -54.506059 
L 164.064611 -54.506059 
L 165.084954 -54.506059 
L 166.105296 -54.506059 
L 167.125639 -54.506059 
L 168.145982 -54.506059 
L 169.166325 -54.506059 
L 170.186668 -54.506059 
L 171.207011 -54.506059 
L 172.227354 -54.506059 
L 173.247696 -54.506059 
L 174.268039 -54.506059 
L 175.288382 -54.506059 
L 176.308725 -54.506059 
L 177.329068 -54.506059 
L 178.349411 -54.506059 
L 179.369754 -54.506059 
L 180.390096 -54.506059 
L 181.410439 -54.506059 
L 182.430782 -54.506059 
L 183.451125 -54.506059 
L 184.471468 -54.506059 
L 185.491811 -54.506059 
L 186.512154 -54.506059 
L 187.532496 -54.506059 
L 188.552839 -54.506059 
L 189.573182 -54.506059 
L 190.593525 -54.506059 
L 191.613868 -54.506059 
L 192.634211 -54.506059 
L 193.654554 -54.506059 
L 194.674896 -54.506059 
L 195.695239 -54.506059 
L 196.715582 -54.506059 
L 197.735925 -54.506059 
L 198.756268 -54.506059 
L 199.776611 -54.506059 
L 200.796954 -54.506059 
L 201.817296 -54.506059 
L 202.837639 -54.506059 
L 203.857982 -54.506059 
L 204.878325 -54.506059 
L 205.898668 -54.506059 
L 206.919011 -54.506059 
L 207.939354 -54.506059 
L 208.959696 -54.506059 
L 209.980039 -54.506059 
L 211.000382 -54.506059 
L 212.020725 -54.506059 
L 213.041068 -54.506059 
L 214.061411 -54.506059 
L 215.081754 -54.506059 
L 216.102096 -54.506059 
L 217.122439 -54.506059 
L 218.142782 -54.506059 
L 219.163125 -54.506059 
L 220.183468 -54.506059 
L 221.203811 -54.506059 
L 222.224154 -54.506059 
L 223.244496 -54.506059 
L 224.264839 -54.506059 
L 225.285182 -54.506059 
L 226.305525 -54.506059 
L 227.325868 -54.506059 
L 228.346211 -54.506059 
L 229.366554 -54.506059 
L 230.386896 -54.506059 
L 231.407239 -54.506059 
L 232.427582 -54.506059 
L 233.447925 -54.506059 
L 234.468268 -54.506059 
L 235.488611 -54.506059 
L 236.508954 -54.506059 
L 237.529296 -54.506059 
L 238.549639 -54.506059 
L 239.569982 -54.506059 
L 240.590325 -54.506059 
L 241.610668 -54.506059 
L 242.631011 -54.506059 
L 243.651354 -54.506059 
L 244.671696 -54.506059 
L 245.692039 -54.506059 
L 246.712382 -54.506059 
L 247.732725 -54.506059 
L 248.753068 -54.506059 
L 249.773411 -54.506059 
L 250.793754 -54.506059 
L 251.814096 -54.506059 
L 252.834439 -54.506059 
L 253.854782 -54.506059 
L 254.875125 -54.506059 
L 255.895468 -54.506059 
L 256.915811 -54.506059 
L 257.936154 -54.506059 
L 258.956496 -54.506059 
L 259.976839 -54.506059 
L 260.997182 -54.506059 
L 262.017525 -54.506059 
L 263.037868 -54.506059 
L 264.058211 -54.506059 
L 265.078554 -54.506059 
L 266.098896 -54.506059 
L 267.119239 -54.506059 
L 268.139582 -54.506059 
L 269.159925 -54.506059 
L 270.180268 -54.506059 
L 271.200611 -54.506059 
L 272.220954 -54.506059 
L 273.241296 -54.506059 
L 274.261639 -54.506059 
L 275.281982 -71.455868 
L 276.302325 -71.455868 
L 277.322668 -71.455868 
L 278.343011 -71.455868 
L 279.363354 -71.455868 
L 280.383696 -71.455868 
L 281.404039 -71.455868 
L 282.424382 -71.455868 
L 283.444725 -71.455868 
L 284.465068 -71.455868 
L 285.485411 -71.455868 
L 286.505754 -71.455868 
L 287.526096 -71.455868 
L 288.546439 -71.455868 
L 289.566782 -71.455868 
L 290.587125 -71.455868 
L 291.607468 -71.455868 
L 292.627811 -71.455868 
L 293.648154 -88.405677 
L 294.668496 -88.405677 
L 295.688839 -88.405677 
L 296.709182 -88.405677 
L 297.729525 -88.405677 
L 298.749868 -88.405677 
L 299.770211 -88.405677 
L 300.790554 -88.405677 
L 301.810896 -88.405677 
L 302.831239 -88.405677 
L 303.851582 -88.405677 
L 304.871925 -88.405677 
L 305.892268 -88.405677 
L 306.912611 -88.405677 
L 307.932954 -88.405677 
L 308.953296 -88.405677 
L 309.973639 -88.405677 
L 310.993982 -88.405677 
L 312.014325 -88.405677 
L 313.034668 -88.405677 
L 314.055011 -88.405677 
L 315.075354 -88.405677 
L 316.095696 -88.405677 
L 317.116039 -88.405677 
L 318.136382 -88.405677 
L 319.156725 -88.405677 
L 320.177068 -88.405677 
L 321.197411 -88.405677 
L 322.217754 -88.405677 
L 323.238096 -88.405677 
L 324.258439 -88.405677 
L 325.278782 -88.405677 
L 326.299125 -88.405677 
L 327.319468 -88.405677 
L 328.339811 -88.405677 
L 329.360154 -88.405677 
L 330.380496 -88.405677 
L 331.400839 -88.405677 
L 332.421182 -88.405677 
L 333.441525 -88.405677 
L 334.461868 -88.405677 
L 335.482211 -105.355486 
L 336.502554 -105.355486 
L 337.522896 -105.355486 
L 338.543239 -105.355486 
L 339.563582 -105.355486 
L 340.583925 -105.355486 
L 341.604268 -105.355486 
L 342.624611 -105.355486 
L 343.644954 -105.355486 
L 344.665296 -105.355486 
L 345.685639 -105.355486 
L 346.705982 -105.355486 
L 347.726325 -105.355486 
L 348.746668 -105.355486 
L 349.767011 -105.355486 
L 350.787354 -105.355486 
L 351.807696 -105.355486 
L 352.828039 -105.355486 
L 353.848382 -105.355486 
L 354.868725 -105.355486 
L 355.889068 -105.355486 
L 356.909411 -105.355486 
L 357.929754 -105.355486 
L 358.950096 -105.355486 
L 359.970439 -105.355486 
L 360.990782 -105.355486 
L 362.011125 -105.355486 
L 363.031468 -105.355486 
L 364.051811 -105.355486 
L 365.072154 -105.355486 
L 366.092496 -105.355486 
L 367.112839 -105.355486 
L 368.133182 -105.355486 
L 369.153525 -105.355486 
L 370.173868 -105.355486 
L 371.194211 -105.355486 
L 372.214554 -105.355486 
L 373.234896 -105.355486 
L 374.255239 -105.355486 
L 375.275582 -105.355486 
L 376.295925 -105.355486 
L 377.316268 -105.355486 
L 378.336611 -105.355486 
L 379.356954 -105.355486 
L 380.377296 -105.355486 
L 381.397639 -105.355486 
L 382.417982 -105.355486 
L 383.438325 -105.355486 
L 384.458668 -105.355486 
L 385.479011 -105.355486 
L 386.499354 -105.355486 
L 387.519696 -105.355486 
L 388.540039 -105.355486 
L 389.560382 -105.355486 
L 390.580725 -105.355486 
L 391.601068 -105.355486 
L 392.621411 -105.355486 
L 393.641754 -105.355486 
L 394.662096 -105.355486 
L 395.682439 -105.355486 
L 396.702782 -105.355486 
L 396.702782 -105.355486 
L 396.702782 -105.355486 
L 395.682439 -105.355486 
L 394.662096 -105.355486 
L 393.641754 -105.355486 
L 392.621411 -105.355486 
L 391.601068 -105.355486 
L 390.580725 -105.355486 
L 389.560382 -105.355486 
L 388.540039 -105.355486 
L 387.519696 -105.355486 
L 386.499354 -105.355486 
L 385.479011 -105.355486 
L 384.458668 -105.355486 
L 383.438325 -105.355486 
L 382.417982 -105.355486 
L 381.397639 -105.355486 
L 380.377296 -105.355486 
L 379.356954 -105.355486 
L 378.336611 -105.355486 
L 377.316268 -105.355486 
L 376.295925 -105.355486 
L 375.275582 -105.355486 
L 374.255239 -105.355486 
L 373.234896 -105.355486 
L 372.214554 -105.355486 
L 371.194211 -105.355486 
L 370.173868 -105.355486 
L 369.153525 -105.355486 
L 368.133182 -105.355486 
L 367.112839 -105.355486 
L 366.092496 -105.355486 
L 365.072154 -105.355486 
L 364.051811 -105.355486 
L 363.031468 -105.355486 
L 362.011125 -105.355486 
L 360.990782 -105.355486 
L 359.970439 -105.355486 
L 358.950096 -105.355486 
L 357.929754 -105.355486 
L 356.909411 -105.355486 
L 355.889068 -105.355486 
L 354.868725 -105.355486 
L 353.848382 -105.355486 
L 352.828039 -105.355486 
L 351.807696 -105.355486 
L 350.787354 -105.355486 
L 349.767011 -105.355486 
L 348.746668 -105.355486 
L 347.726325 -105.355486 
L 346.705982 -105.355486 
L 345.685639 -105.355486 
L 344.665296 -105.355486 
L 343.644954 -105.355486 
L 342.624611 -105.355486 
L 341.604268 -105.355486 
L 340.583925 -105.355486 
L 339.563582 -105.355486 
L 338.543239 -105.355486 
L 337.522896 -105.355486 
L 336.502554 -105.355486 
L 335.482211 -105.355486 
L 334.461868 -88.405677 
L 333.441525 -88.405677 
L 332.421182 -88.405677 
L 331.400839 -88.405677 
L 330.380496 -88.405677 
L 329.360154 -88.405677 
L 328.339811 -88.405677 
L 327.319468 -88.405677 
L 326.299125 -88.405677 
L 325.278782 -88.405677 
L 324.258439 -88.405677 
L 323.238096 -88.405677 
L 322.217754 -88.405677 
L 321.197411 -88.405677 
L 320.177068 -88.405677 
L 319.156725 -88.405677 
L 318.136382 -88.405677 
L 317.116039 -88.405677 
L 316.095696 -88.405677 
L 315.075354 -88.405677 
L 314.055011 -88.405677 
L 313.034668 -88.405677 
L 312.014325 -88.405677 
L 310.993982 -88.405677 
L 309.973639 -88.405677 
L 308.953296 -88.405677 
L 307.932954 -88.405677 
L 306.912611 -88.405677 
L 305.892268 -88.405677 
L 304.871925 -88.405677 
L 303.851582 -88.405677 
L 302.831239 -88.405677 
L 301.810896 -88.405677 
L 300.790554 -88.405677 
L 299.770211 -88.405677 
L 298.749868 -88.405677 
L 297.729525 -88.405677 
L 296.709182 -88.405677 
L 295.688839 -88.405677 
L 294.668496 -88.405677 
L 293.648154 -88.405677 
L 292.627811 -71.455868 
L 291.607468 -71.455868 
L 290.587125 -71.455868 
L 289.566782 -71.455868 
L 288.546439 -71.455868 
L 287.526096 -71.455868 
L 286.505754 -71.455868 
L 285.485411 -71.455868 
L 284.465068 -71.455868 
L 283.444725 -71.455868 
L 282.424382 -71.455868 
L 281.404039 -71.455868 
L 280.383696 -71.455868 
L 279.363354 -71.455868 
L 278.343011 -71.455868 
L 277.322668 -71.455868 
L 276.302325 -71.455868 
L 275.281982 -71.455868 
L 274.261639 -54.506059 
L 273.241296 -54.506059 
L 272.220954 -54.506059 
L 271.200611 -54.506059 
L 270.180268 -54.506059 
L 269.159925 -54.506059 
L 268.139582 -54.506059 
L 267.119239 -54.506059 
L 266.098896 -54.506059 
L 265.078554 -54.506059 
L 264.058211 -54.506059 
L 263.037868 -54.506059 
L 262.017525 -54.506059 
L 260.997182 -54.506059 
L 259.976839 -54.506059 
L 258.956496 -54.506059 
L 257.936154 -54.506059 
L 256.915811 -54.506059 
L 255.895468 -54.506059 
L 254.875125 -54.506059 
L 253.854782 -54.506059 
L 252.834439 -54.506059 
L 251.814096 -54.506059 
L 250.793754 -54.506059 
L 249.773411 -54.506059 
L 248.753068 -54.506059 
L 247.732725 -54.506059 
L 246.712382 -54.506059 
L 245.692039 -54.506059 
L 244.671696 -54.506059 
L 243.651354 -54.506059 
L 242.631011 -54.506059 
L 241.610668 -54.506059 
L 240.590325 -54.506059 
L 239.569982 -54.506059 
L 238.549639 -54.506059 
L 237.529296 -54.506059 
L 236.508954 -54.506059 
L 235.488611 -54.506059 
L 234.468268 -54.506059 
L 233.447925 -54.506059 
L 232.427582 -54.506059 
L 231.407239 -54.506059 
L 230.386896 -54.506059 
L 229.366554 -54.506059 
L 228.346211 -54.506059 
L 227.325868 -54.506059 
L 226.305525 -54.506059 
L 225.285182 -54.506059 
L 224.264839 -54.506059 
L 223.244496 -54.506059 
L 222.224154 -54.506059 
L 221.203811 -54.506059 
L 220.183468 -54.506059 
L 219.163125 -54.506059 
L 218.142782 -54.506059 
L 217.122439 -54.506059 
L 216.102096 -54.506059 
L 215.081754 -54.506059 
L 214.061411 -54.506059 
L 213.041068 -54.506059 
L 212.020725 -54.506059 
L 211.000382 -54.506059 
L 209.980039 -54.506059 
L 208.959696 -54.506059 
L 207.939354 -54.506059 
L 206.919011 -54.506059 
L 205.898668 -54.506059 
L 204.878325 -54.506059 
L 203.857982 -54.506059 
L 202.837639 -54.506059 
L 201.817296 -54.506059 
L 200.796954 -54.506059 
L 199.776611 -54.506059 
L 198.756268 -54.506059 
L 197.735925 -54.506059 
L 196.715582 -54.506059 
L 195.695239 -54.506059 
L 194.674896 -54.506059 
L 193.654554 -54.506059 
L 192.634211 -54.506059 
L 191.613868 -54.506059 
L 190.593525 -54.506059 
L 189.573182 -54.506059 
L 188.552839 -54.506059 
L 187.532496 -54.506059 
L 186.512154 -54.506059 
L 185.491811 -54.506059 
L 184.471468 -54.506059 
L 183.451125 -54.506059 
L 182.430782 -54.506059 
L 181.410439 -54.506059 
L 180.390096 -54.506059 
L 179.369754 -54.506059 
L 178.349411 -54.506059 
L 177.329068 -54.506059 
L 176.308725 -54.506059 
L 175.288382 -54.506059 
L 174.268039 -54.506059 
L 173.247696 -54.506059 
L 172.227354 -54.506059 
L 171.207011 -54.506059 
L 170.186668 -54.506059 
L 169.166325 -54.506059 
L 168.145982 -54.506059 
L 167.125639 -54.506059 
L 166.105296 -54.506059 
L 165.084954 -54.506059 
L 164.064611 -54.506059 
L 163.044268 -54.506059 
L 162.023925 -54.506059 
L 161.003582 -54.506059 
L 159.983239 -54.506059 
L 158.962896 -54.506059 
L 157.942554 -54.506059 
L 156.922211 -54.506059 
L 155.901868 -54.506059 
L 154.881525 -54.506059 
L 153.861182 -54.506059 
L 152.840839 -54.506059 
L 151.820496 -54.506059 
L 150.800154 -54.506059 
L 149.779811 -54.506059 
L 148.759468 -54.506059 
L 147.739125 -54.506059 
L 146.718782 -54.506059 
L 145.698439 -54.506059 
L 144.678096 -54.506059 
L 143.657754 -54.506059 
L 142.637411 -54.506059 
L 141.617068 -54.506059 
L 140.596725 -54.506059 
L 139.576382 -54.506059 
L 138.556039 -54.506059 
L 137.535696 -54.506059 
L 136.515354 -54.506059 
L 135.495011 -54.506059 
L 134.474668 -54.506059 
L 133.454325 -54.506059 
L 132.433982 -54.506059 
L 131.413639 -54.506059 
L 130.393296 -54.506059 
L 129.372954 -54.506059 
L 128.352611 -54.506059 
L 127.332268 -54.506059 
L 126.311925 -54.506059 
L 125.291582 -54.506059 
L 124.271239 -54.506059 
L 123.250896 -54.506059 
L 122.230554 -54.506059 
L 121.210211 -54.506059 
L 120.189868 -54.506059 
L 119.169525 -54.506059 
L 118.149182 -54.506059 
L 117.128839 -54.506059 
L 116.108496 -54.506059 
L 115.088154 -54.506059 
L 114.067811 -54.506059 
L 113.047468 -54.506059 
L 112.027125 -54.506059 
L 111.006782 -54.506059 
L 109.986439 -54.506059 
L 108.966096 -54.506059 
L 107.945754 -54.506059 
L 106.925411 -54.506059 
L 105.905068 -54.506059 
L 104.884725 -54.506059 
L 103.864382 -54.506059 
L 102.844039 -54.506059 
L 101.823696 -54.506059 
L 100.803354 -71.455868 
L 99.783011 -71.455868 
L 98.762668 -71.455868 
L 97.742325 -71.455868 
L 96.721982 -71.455868 
L 95.701639 -71.455868 
L 94.681296 -71.455868 
L 93.660954 -88.405677 
L 92.640611 -88.405677 
L 91.620268 -88.405677 
L 90.599925 -88.405677 
L 89.579582 -88.405677 
L 88.559239 -88.405677 
L 87.538896 -88.405677 
L 86.518554 -88.405677 
L 85.498211 -88.405677 
L 84.477868 -88.405677 
L 83.457525 -88.405677 
L 82.437182 -88.405677 
L 81.416839 -88.405677 
L 80.396496 -88.405677 
L 79.376154 -88.405677 
L 78.355811 -88.405677 
L 77.335468 -105.355486 
L 76.315125 -105.355486 
L 75.294782 -105.355486 
L 74.274439 -105.355486 
L 73.254096 -122.305295 
L 72.233754 -122.305295 
L 71.213411 -122.305295 
L 70.193068 -122.305295 
L 69.172725 -122.305295 
L 68.152382 -122.305295 
L 67.132039 -122.305295 
L 66.111696 -122.305295 
L 65.091354 -122.305295 
L 64.071011 -122.305295 
L 63.050668 -122.305295 
L 62.030325 -156.204912 
L 61.009982 -156.204912 
L 59.989639 -156.204912 
L 58.969296 -156.204912 
L 57.948954 -156.204912 
L 56.928611 -156.204912 
L 55.908268 -173.154721 
L 54.887925 -173.154721 
L 53.867582 -173.154721 
L 52.847239 -173.154721 
L 51.826896 -190.10453 
L 50.806554 -190.10453 
L 49.786211 -207.054339 
L 48.765868 -207.054339 
L 47.745525 -224.004148 
L 46.725182 -224.004148 
L 45.704839 -240.953957 
L 44.684496 -240.953957 
L 43.664154 -257.903766 
L 42.643811 -257.903766 
L 41.623468 -274.853575 
L 40.603125 -291.803384 
z
" id="m60fd1d5a67" style="stroke:#adff2f;"/>
    </defs>
    <g clip-path="url(#pcff4753d16)">
     <use style="fill:#adff2f;stroke:#adff2f;" x="0" xlink:href="#m60fd1d5a67" y="339.42375"/>
    </g>
   </g>
   <g id="matplotlib.axis_1">
    <g id="xtick_1">
     <g id="line2d_1">
      <path clip-path="url(#pcff4753d16)" d="M 40.603125 301.8675 
L 40.603125 35.7555 
" style="fill:none;stroke:#b0b0b0;stroke-linecap:square;stroke-width:0.8;"/>
     </g>
     <g id="line2d_2">
      <defs>
       <path d="M 0 0 
L 0 3.5 
" id="m0237f8b7d5" style="stroke:#000000;stroke-width:0.8;"/>
      </defs>
      <g>
       <use style="stroke:#000000;stroke-width:0.8;" x="40.603125" xlink:href="#m0237f8b7d5" y="301.8675"/>
      </g>
     </g>
     <g id="text_1">
      <!-- 0 -->
      <defs>
       <path d="M 31.78125 66.40625 
Q 24.171875 66.40625 20.328125 58.90625 
Q 16.5 51.421875 16.5 36.375 
Q 16.5 21.390625 20.328125 13.890625 
Q 24.171875 6.390625 31.78125 6.390625 
Q 39.453125 6.390625 43.28125 13.890625 
Q 47.125 21.390625 47.125 36.375 
Q 47.125 51.421875 43.28125 58.90625 
Q 39.453125 66.40625 31.78125 66.40625 
z
M 31.78125 74.21875 
Q 44.046875 74.21875 50.515625 64.515625 
Q 56.984375 54.828125 56.984375 36.375 
Q 56.984375 17.96875 50.515625 8.265625 
Q 44.046875 -1.421875 31.78125 -1.421875 
Q 19.53125 -1.421875 13.0625 8.265625 
Q 6.59375 17.96875 6.59375 36.375 
Q 6.59375 54.828125 13.0625 64.515625 
Q 19.53125 74.21875 31.78125 74.21875 
z
" id="DejaVuSans-30"/>
      </defs>
      <g transform="translate(37.421875 316.465937)scale(0.1 -0.1)">
       <use xlink:href="#DejaVuSans-30"/>
      </g>
     </g>
    </g>
    <g id="xtick_2">
     <g id="line2d_3">
      <path clip-path="url(#pcff4753d16)" d="M 91.620268 301.8675 
L 91.620268 35.7555 
" style="fill:none;stroke:#b0b0b0;stroke-linecap:square;stroke-width:0.8;"/>
     </g>
     <g id="line2d_4">
      <g>
       <use style="stroke:#000000;stroke-width:0.8;" x="91.620268" xlink:href="#m0237f8b7d5" y="301.8675"/>
      </g>
     </g>
     <g id="text_2">
      <!-- 50 -->
      <defs>
       <path d="M 10.796875 72.90625 
L 49.515625 72.90625 
L 49.515625 64.59375 
L 19.828125 64.59375 
L 19.828125 46.734375 
Q 21.96875 47.46875 24.109375 47.828125 
Q 26.265625 48.1875 28.421875 48.1875 
Q 40.625 48.1875 47.75 41.5 
Q 54.890625 34.8125 54.890625 23.390625 
Q 54.890625 11.625 47.5625 5.09375 
Q 40.234375 -1.421875 26.90625 -1.421875 
Q 22.3125 -1.421875 17.546875 -0.640625 
Q 12.796875 0.140625 7.71875 1.703125 
L 7.71875 11.625 
Q 12.109375 9.234375 16.796875 8.0625 
Q 21.484375 6.890625 26.703125 6.890625 
Q 35.15625 6.890625 40.078125 11.328125 
Q 45.015625 15.765625 45.015625 23.390625 
Q 45.015625 31 40.078125 35.4375 
Q 35.15625 39.890625 26.703125 39.890625 
Q 22.75 39.890625 18.8125 39.015625 
Q 14.890625 38.140625 10.796875 36.28125 
z
" id="DejaVuSans-35"/>
      </defs>
      <g transform="translate(85.257768 316.465937)scale(0.1 -0.1)">
       <use xlink:href="#DejaVuSans-35"/>
       <use x="63.623047" xlink:href="#DejaVuSans-30"/>
      </g>
     </g>
    </g>
    <g id="xtick_3">
     <g id="line2d_5">
      <path clip-path="url(#pcff4753d16)" d="M 142.637411 301.8675 
L 142.637411 35.7555 
" style="fill:none;stroke:#b0b0b0;stroke-linecap:square;stroke-width:0.8;"/>
     </g>
     <g id="line2d_6">
      <g>
       <use style="stroke:#000000;stroke-width:0.8;" x="142.637411" xlink:href="#m0237f8b7d5" y="301.8675"/>
      </g>
     </g>
     <g id="text_3">
      <!-- 100 -->
      <defs>
       <path d="M 12.40625 8.296875 
L 28.515625 8.296875 
L 28.515625 63.921875 
L 10.984375 60.40625 
L 10.984375 69.390625 
L 28.421875 72.90625 
L 38.28125 72.90625 
L 38.28125 8.296875 
L 54.390625 8.296875 
L 54.390625 0 
L 12.40625 0 
z
" id="DejaVuSans-31"/>
      </defs>
      <g transform="translate(133.093661 316.465937)scale(0.1 -0.1)">
       <use xlink:href="#DejaVuSans-31"/>
       <use x="63.623047" xlink:href="#DejaVuSans-30"/>
       <use x="127.246094" xlink:href="#DejaVuSans-30"/>
      </g>
     </g>
    </g>
    <g id="xtick_4">
     <g id="line2d_7">
      <path clip-path="url(#pcff4753d16)" d="M 193.654554 301.8675 
L 193.654554 35.7555 
" style="fill:none;stroke:#b0b0b0;stroke-linecap:square;stroke-width:0.8;"/>
     </g>
     <g id="line2d_8">
      <g>
       <use style="stroke:#000000;stroke-width:0.8;" x="193.654554" xlink:href="#m0237f8b7d5" y="301.8675"/>
      </g>
     </g>
     <g id="text_4">
      <!-- 150 -->
      <g transform="translate(184.110804 316.465937)scale(0.1 -0.1)">
       <use xlink:href="#DejaVuSans-31"/>
       <use x="63.623047" xlink:href="#DejaVuSans-35"/>
       <use x="127.246094" xlink:href="#DejaVuSans-30"/>
      </g>
     </g>
    </g>
    <g id="xtick_5">
     <g id="line2d_9">
      <path clip-path="url(#pcff4753d16)" d="M 244.671696 301.8675 
L 244.671696 35.7555 
" style="fill:none;stroke:#b0b0b0;stroke-linecap:square;stroke-width:0.8;"/>
     </g>
     <g id="line2d_10">
      <g>
       <use style="stroke:#000000;stroke-width:0.8;" x="244.671696" xlink:href="#m0237f8b7d5" y="301.8675"/>
      </g>
     </g>
     <g id="text_5">
      <!-- 200 -->
      <defs>
       <path d="M 19.1875 8.296875 
L 53.609375 8.296875 
L 53.609375 0 
L 7.328125 0 
L 7.328125 8.296875 
Q 12.9375 14.109375 22.625 23.890625 
Q 32.328125 33.6875 34.8125 36.53125 
Q 39.546875 41.84375 41.421875 45.53125 
Q 43.3125 49.21875 43.3125 52.78125 
Q 43.3125 58.59375 39.234375 62.25 
Q 35.15625 65.921875 28.609375 65.921875 
Q 23.96875 65.921875 18.8125 64.3125 
Q 13.671875 62.703125 7.8125 59.421875 
L 7.8125 69.390625 
Q 13.765625 71.78125 18.9375 73 
Q 24.125 74.21875 28.421875 74.21875 
Q 39.75 74.21875 46.484375 68.546875 
Q 53.21875 62.890625 53.21875 53.421875 
Q 53.21875 48.921875 51.53125 44.890625 
Q 49.859375 40.875 45.40625 35.40625 
Q 44.1875 33.984375 37.640625 27.21875 
Q 31.109375 20.453125 19.1875 8.296875 
z
" id="DejaVuSans-32"/>
      </defs>
      <g transform="translate(235.127946 316.465937)scale(0.1 -0.1)">
       <use xlink:href="#DejaVuSans-32"/>
       <use x="63.623047" xlink:href="#DejaVuSans-30"/>
       <use x="127.246094" xlink:href="#DejaVuSans-30"/>
      </g>
     </g>
    </g>
    <g id="xtick_6">
     <g id="line2d_11">
      <path clip-path="url(#pcff4753d16)" d="M 295.688839 301.8675 
L 295.688839 35.7555 
" style="fill:none;stroke:#b0b0b0;stroke-linecap:square;stroke-width:0.8;"/>
     </g>
     <g id="line2d_12">
      <g>
       <use style="stroke:#000000;stroke-width:0.8;" x="295.688839" xlink:href="#m0237f8b7d5" y="301.8675"/>
      </g>
     </g>
     <g id="text_6">
      <!-- 250 -->
      <g transform="translate(286.145089 316.465937)scale(0.1 -0.1)">
       <use xlink:href="#DejaVuSans-32"/>
       <use x="63.623047" xlink:href="#DejaVuSans-35"/>
       <use x="127.246094" xlink:href="#DejaVuSans-30"/>
      </g>
     </g>
    </g>
    <g id="xtick_7">
     <g id="line2d_13">
      <path clip-path="url(#pcff4753d16)" d="M 346.705982 301.8675 
L 346.705982 35.7555 
" style="fill:none;stroke:#b0b0b0;stroke-linecap:square;stroke-width:0.8;"/>
     </g>
     <g id="line2d_14">
      <g>
       <use style="stroke:#000000;stroke-width:0.8;" x="346.705982" xlink:href="#m0237f8b7d5" y="301.8675"/>
      </g>
     </g>
     <g id="text_7">
      <!-- 300 -->
      <defs>
       <path d="M 40.578125 39.3125 
Q 47.65625 37.796875 51.625 33 
Q 55.609375 28.21875 55.609375 21.1875 
Q 55.609375 10.40625 48.1875 4.484375 
Q 40.765625 -1.421875 27.09375 -1.421875 
Q 22.515625 -1.421875 17.65625 -0.515625 
Q 12.796875 0.390625 7.625 2.203125 
L 7.625 11.71875 
Q 11.71875 9.328125 16.59375 8.109375 
Q 21.484375 6.890625 26.8125 6.890625 
Q 36.078125 6.890625 40.9375 10.546875 
Q 45.796875 14.203125 45.796875 21.1875 
Q 45.796875 27.640625 41.28125 31.265625 
Q 36.765625 34.90625 28.71875 34.90625 
L 20.21875 34.90625 
L 20.21875 43.015625 
L 29.109375 43.015625 
Q 36.375 43.015625 40.234375 45.921875 
Q 44.09375 48.828125 44.09375 54.296875 
Q 44.09375 59.90625 40.109375 62.90625 
Q 36.140625 65.921875 28.71875 65.921875 
Q 24.65625 65.921875 20.015625 65.03125 
Q 15.375 64.15625 9.8125 62.3125 
L 9.8125 71.09375 
Q 15.4375 72.65625 20.34375 73.4375 
Q 25.25 74.21875 29.59375 74.21875 
Q 40.828125 74.21875 47.359375 69.109375 
Q 53.90625 64.015625 53.90625 55.328125 
Q 53.90625 49.265625 50.4375 45.09375 
Q 46.96875 40.921875 40.578125 39.3125 
z
" id="DejaVuSans-33"/>
      </defs>
      <g transform="translate(337.162232 316.465937)scale(0.1 -0.1)">
       <use xlink:href="#DejaVuSans-33"/>
       <use x="63.623047" xlink:href="#DejaVuSans-30"/>
       <use x="127.246094" xlink:href="#DejaVuSans-30"/>
      </g>
     </g>
    </g>
    <g id="xtick_8">
     <g id="line2d_15">
      <path clip-path="url(#pcff4753d16)" d="M 397.723125 301.8675 
L 397.723125 35.7555 
" style="fill:none;stroke:#b0b0b0;stroke-linecap:square;stroke-width:0.8;"/>
     </g>
     <g id="line2d_16">
      <g>
       <use style="stroke:#000000;stroke-width:0.8;" x="397.723125" xlink:href="#m0237f8b7d5" y="301.8675"/>
      </g>
     </g>
     <g id="text_8">
      <!-- 350 -->
      <g transform="translate(388.179375 316.465937)scale(0.1 -0.1)">
       <use xlink:href="#DejaVuSans-33"/>
       <use x="63.623047" xlink:href="#DejaVuSans-35"/>
       <use x="127.246094" xlink:href="#DejaVuSans-30"/>
      </g>
     </g>
    </g>
    <g id="text_9">
     <!-- Time(s) -->
     <defs>
      <path d="M -0.296875 72.90625 
L 61.375 72.90625 
L 61.375 64.59375 
L 35.5 64.59375 
L 35.5 0 
L 25.59375 0 
L 25.59375 64.59375 
L -0.296875 64.59375 
z
" id="DejaVuSans-54"/>
      <path d="M 9.421875 54.6875 
L 18.40625 54.6875 
L 18.40625 0 
L 9.421875 0 
z
M 9.421875 75.984375 
L 18.40625 75.984375 
L 18.40625 64.59375 
L 9.421875 64.59375 
z
" id="DejaVuSans-69"/>
      <path d="M 52 44.1875 
Q 55.375 50.25 60.0625 53.125 
Q 64.75 56 71.09375 56 
Q 79.640625 56 84.28125 50.015625 
Q 88.921875 44.046875 88.921875 33.015625 
L 88.921875 0 
L 79.890625 0 
L 79.890625 32.71875 
Q 79.890625 40.578125 77.09375 44.375 
Q 74.3125 48.1875 68.609375 48.1875 
Q 61.625 48.1875 57.5625 43.546875 
Q 53.515625 38.921875 53.515625 30.90625 
L 53.515625 0 
L 44.484375 0 
L 44.484375 32.71875 
Q 44.484375 40.625 41.703125 44.40625 
Q 38.921875 48.1875 33.109375 48.1875 
Q 26.21875 48.1875 22.15625 43.53125 
Q 18.109375 38.875 18.109375 30.90625 
L 18.109375 0 
L 9.078125 0 
L 9.078125 54.6875 
L 18.109375 54.6875 
L 18.109375 46.1875 
Q 21.1875 51.21875 25.484375 53.609375 
Q 29.78125 56 35.6875 56 
Q 41.65625 56 45.828125 52.96875 
Q 50 49.953125 52 44.1875 
z
" id="DejaVuSans-6d"/>
      <path d="M 56.203125 29.59375 
L 56.203125 25.203125 
L 14.890625 25.203125 
Q 15.484375 15.921875 20.484375 11.0625 
Q 25.484375 6.203125 34.421875 6.203125 
Q 39.59375 6.203125 44.453125 7.46875 
Q 49.3125 8.734375 54.109375 11.28125 
L 54.109375 2.78125 
Q 49.265625 0.734375 44.1875 -0.34375 
Q 39.109375 -1.421875 33.890625 -1.421875 
Q 20.796875 -1.421875 13.15625 6.1875 
Q 5.515625 13.8125 5.515625 26.8125 
Q 5.515625 40.234375 12.765625 48.109375 
Q 20.015625 56 32.328125 56 
Q 43.359375 56 49.78125 48.890625 
Q 56.203125 41.796875 56.203125 29.59375 
z
M 47.21875 32.234375 
Q 47.125 39.59375 43.09375 43.984375 
Q 39.0625 48.390625 32.421875 48.390625 
Q 24.90625 48.390625 20.390625 44.140625 
Q 15.875 39.890625 15.1875 32.171875 
z
" id="DejaVuSans-65"/>
      <path d="M 31 75.875 
Q 24.46875 64.65625 21.28125 53.65625 
Q 18.109375 42.671875 18.109375 31.390625 
Q 18.109375 20.125 21.3125 9.0625 
Q 24.515625 -2 31 -13.1875 
L 23.1875 -13.1875 
Q 15.875 -1.703125 12.234375 9.375 
Q 8.59375 20.453125 8.59375 31.390625 
Q 8.59375 42.28125 12.203125 53.3125 
Q 15.828125 64.359375 23.1875 75.875 
z
" id="DejaVuSans-28"/>
      <path d="M 44.28125 53.078125 
L 44.28125 44.578125 
Q 40.484375 46.53125 36.375 47.5 
Q 32.28125 48.484375 27.875 48.484375 
Q 21.1875 48.484375 17.84375 46.4375 
Q 14.5 44.390625 14.5 40.28125 
Q 14.5 37.15625 16.890625 35.375 
Q 19.28125 33.59375 26.515625 31.984375 
L 29.59375 31.296875 
Q 39.15625 29.25 43.1875 25.515625 
Q 47.21875 21.78125 47.21875 15.09375 
Q 47.21875 7.46875 41.1875 3.015625 
Q 35.15625 -1.421875 24.609375 -1.421875 
Q 20.21875 -1.421875 15.453125 -0.5625 
Q 10.6875 0.296875 5.421875 2 
L 5.421875 11.28125 
Q 10.40625 8.6875 15.234375 7.390625 
Q 20.0625 6.109375 24.8125 6.109375 
Q 31.15625 6.109375 34.5625 8.28125 
Q 37.984375 10.453125 37.984375 14.40625 
Q 37.984375 18.0625 35.515625 20.015625 
Q 33.0625 21.96875 24.703125 23.78125 
L 21.578125 24.515625 
Q 13.234375 26.265625 9.515625 29.90625 
Q 5.8125 33.546875 5.8125 39.890625 
Q 5.8125 47.609375 11.28125 51.796875 
Q 16.75 56 26.8125 56 
Q 31.78125 56 36.171875 55.265625 
Q 40.578125 54.546875 44.28125 53.078125 
z
" id="DejaVuSans-73"/>
      <path d="M 8.015625 75.875 
L 15.828125 75.875 
Q 23.140625 64.359375 26.78125 53.3125 
Q 30.421875 42.28125 30.421875 31.390625 
Q 30.421875 20.453125 26.78125 9.375 
Q 23.140625 -1.703125 15.828125 -13.1875 
L 8.015625 -13.1875 
Q 14.5 -2 17.703125 9.0625 
Q 20.90625 20.125 20.90625 31.390625 
Q 20.90625 42.671875 17.703125 53.65625 
Q 14.5 64.65625 8.015625 75.875 
z
" id="DejaVuSans-29"/>
     </defs>
     <g transform="translate(200.269375 330.144062)scale(0.1 -0.1)">
      <use xlink:href="#DejaVuSans-54"/>
      <use x="61.037109" xlink:href="#DejaVuSans-69"/>
      <use x="88.820312" xlink:href="#DejaVuSans-6d"/>
      <use x="186.232422" xlink:href="#DejaVuSans-65"/>
      <use x="247.755859" xlink:href="#DejaVuSans-28"/>
      <use x="286.769531" xlink:href="#DejaVuSans-73"/>
      <use x="338.869141" xlink:href="#DejaVuSans-29"/>
     </g>
    </g>
   </g>
   <g id="matplotlib.axis_2">
    <g id="ytick_1">
     <g id="line2d_17">
      <path clip-path="url(#pcff4753d16)" d="M 40.603125 284.917691 
L 397.723125 284.917691 
" style="fill:none;stroke:#b0b0b0;stroke-linecap:square;stroke-width:0.8;"/>
     </g>
     <g id="line2d_18">
      <defs>
       <path d="M 0 0 
L -3.5 0 
" id="m16bd02e6b0" style="stroke:#000000;stroke-width:0.8;"/>
      </defs>
      <g>
       <use style="stroke:#000000;stroke-width:0.8;" x="40.603125" xlink:href="#m16bd02e6b0" y="284.917691"/>
      </g>
     </g>
     <g id="text_10">
      <!-- 0 -->
      <g transform="translate(27.240625 288.71691)scale(0.1 -0.1)">
       <use xlink:href="#DejaVuSans-30"/>
      </g>
     </g>
    </g>
    <g id="ytick_2">
     <g id="line2d_19">
      <path clip-path="url(#pcff4753d16)" d="M 40.603125 251.018073 
L 397.723125 251.018073 
" style="fill:none;stroke:#b0b0b0;stroke-linecap:square;stroke-width:0.8;"/>
     </g>
     <g id="line2d_20">
      <g>
       <use style="stroke:#000000;stroke-width:0.8;" x="40.603125" xlink:href="#m16bd02e6b0" y="251.018073"/>
      </g>
     </g>
     <g id="text_11">
      <!-- 2 -->
      <g transform="translate(27.240625 254.817292)scale(0.1 -0.1)">
       <use xlink:href="#DejaVuSans-32"/>
      </g>
     </g>
    </g>
    <g id="ytick_3">
     <g id="line2d_21">
      <path clip-path="url(#pcff4753d16)" d="M 40.603125 217.118455 
L 397.723125 217.118455 
" style="fill:none;stroke:#b0b0b0;stroke-linecap:square;stroke-width:0.8;"/>
     </g>
     <g id="line2d_22">
      <g>
       <use style="stroke:#000000;stroke-width:0.8;" x="40.603125" xlink:href="#m16bd02e6b0" y="217.118455"/>
      </g>
     </g>
     <g id="text_12">
      <!-- 4 -->
      <defs>
       <path d="M 37.796875 64.3125 
L 12.890625 25.390625 
L 37.796875 25.390625 
z
M 35.203125 72.90625 
L 47.609375 72.90625 
L 47.609375 25.390625 
L 58.015625 25.390625 
L 58.015625 17.1875 
L 47.609375 17.1875 
L 47.609375 0 
L 37.796875 0 
L 37.796875 17.1875 
L 4.890625 17.1875 
L 4.890625 26.703125 
z
" id="DejaVuSans-34"/>
      </defs>
      <g transform="translate(27.240625 220.917674)scale(0.1 -0.1)">
       <use xlink:href="#DejaVuSans-34"/>
      </g>
     </g>
    </g>
    <g id="ytick_4">
     <g id="line2d_23">
      <path clip-path="url(#pcff4753d16)" d="M 40.603125 183.218838 
L 397.723125 183.218838 
" style="fill:none;stroke:#b0b0b0;stroke-linecap:square;stroke-width:0.8;"/>
     </g>
     <g id="line2d_24">
      <g>
       <use style="stroke:#000000;stroke-width:0.8;" x="40.603125" xlink:href="#m16bd02e6b0" y="183.218838"/>
      </g>
     </g>
     <g id="text_13">
      <!-- 6 -->
      <defs>
       <path d="M 33.015625 40.375 
Q 26.375 40.375 22.484375 35.828125 
Q 18.609375 31.296875 18.609375 23.390625 
Q 18.609375 15.53125 22.484375 10.953125 
Q 26.375 6.390625 33.015625 6.390625 
Q 39.65625 6.390625 43.53125 10.953125 
Q 47.40625 15.53125 47.40625 23.390625 
Q 47.40625 31.296875 43.53125 35.828125 
Q 39.65625 40.375 33.015625 40.375 
z
M 52.59375 71.296875 
L 52.59375 62.3125 
Q 48.875 64.0625 45.09375 64.984375 
Q 41.3125 65.921875 37.59375 65.921875 
Q 27.828125 65.921875 22.671875 59.328125 
Q 17.53125 52.734375 16.796875 39.40625 
Q 19.671875 43.65625 24.015625 45.921875 
Q 28.375 48.1875 33.59375 48.1875 
Q 44.578125 48.1875 50.953125 41.515625 
Q 57.328125 34.859375 57.328125 23.390625 
Q 57.328125 12.15625 50.6875 5.359375 
Q 44.046875 -1.421875 33.015625 -1.421875 
Q 20.359375 -1.421875 13.671875 8.265625 
Q 6.984375 17.96875 6.984375 36.375 
Q 6.984375 53.65625 15.1875 63.9375 
Q 23.390625 74.21875 37.203125 74.21875 
Q 40.921875 74.21875 44.703125 73.484375 
Q 48.484375 72.75 52.59375 71.296875 
z
" id="DejaVuSans-36"/>
      </defs>
      <g transform="translate(27.240625 187.018056)scale(0.1 -0.1)">
       <use xlink:href="#DejaVuSans-36"/>
      </g>
     </g>
    </g>
    <g id="ytick_5">
     <g id="line2d_25">
      <path clip-path="url(#pcff4753d16)" d="M 40.603125 149.31922 
L 397.723125 149.31922 
" style="fill:none;stroke:#b0b0b0;stroke-linecap:square;stroke-width:0.8;"/>
     </g>
     <g id="line2d_26">
      <g>
       <use style="stroke:#000000;stroke-width:0.8;" x="40.603125" xlink:href="#m16bd02e6b0" y="149.31922"/>
      </g>
     </g>
     <g id="text_14">
      <!-- 8 -->
      <defs>
       <path d="M 31.78125 34.625 
Q 24.75 34.625 20.71875 30.859375 
Q 16.703125 27.09375 16.703125 20.515625 
Q 16.703125 13.921875 20.71875 10.15625 
Q 24.75 6.390625 31.78125 6.390625 
Q 38.8125 6.390625 42.859375 10.171875 
Q 46.921875 13.96875 46.921875 20.515625 
Q 46.921875 27.09375 42.890625 30.859375 
Q 38.875 34.625 31.78125 34.625 
z
M 21.921875 38.8125 
Q 15.578125 40.375 12.03125 44.71875 
Q 8.5 49.078125 8.5 55.328125 
Q 8.5 64.0625 14.71875 69.140625 
Q 20.953125 74.21875 31.78125 74.21875 
Q 42.671875 74.21875 48.875 69.140625 
Q 55.078125 64.0625 55.078125 55.328125 
Q 55.078125 49.078125 51.53125 44.71875 
Q 48 40.375 41.703125 38.8125 
Q 48.828125 37.15625 52.796875 32.3125 
Q 56.78125 27.484375 56.78125 20.515625 
Q 56.78125 9.90625 50.3125 4.234375 
Q 43.84375 -1.421875 31.78125 -1.421875 
Q 19.734375 -1.421875 13.25 4.234375 
Q 6.78125 9.90625 6.78125 20.515625 
Q 6.78125 27.484375 10.78125 32.3125 
Q 14.796875 37.15625 21.921875 38.8125 
z
M 18.3125 54.390625 
Q 18.3125 48.734375 21.84375 45.5625 
Q 25.390625 42.390625 31.78125 42.390625 
Q 38.140625 42.390625 41.71875 45.5625 
Q 45.3125 48.734375 45.3125 54.390625 
Q 45.3125 60.0625 41.71875 63.234375 
Q 38.140625 66.40625 31.78125 66.40625 
Q 25.390625 66.40625 21.84375 63.234375 
Q 18.3125 60.0625 18.3125 54.390625 
z
" id="DejaVuSans-38"/>
      </defs>
      <g transform="translate(27.240625 153.118438)scale(0.1 -0.1)">
       <use xlink:href="#DejaVuSans-38"/>
      </g>
     </g>
    </g>
    <g id="ytick_6">
     <g id="line2d_27">
      <path clip-path="url(#pcff4753d16)" d="M 40.603125 115.419602 
L 397.723125 115.419602 
" style="fill:none;stroke:#b0b0b0;stroke-linecap:square;stroke-width:0.8;"/>
     </g>
     <g id="line2d_28">
      <g>
       <use style="stroke:#000000;stroke-width:0.8;" x="40.603125" xlink:href="#m16bd02e6b0" y="115.419602"/>
      </g>
     </g>
     <g id="text_15">
      <!-- 10 -->
      <g transform="translate(20.878125 119.218821)scale(0.1 -0.1)">
       <use xlink:href="#DejaVuSans-31"/>
       <use x="63.623047" xlink:href="#DejaVuSans-30"/>
      </g>
     </g>
    </g>
    <g id="ytick_7">
     <g id="line2d_29">
      <path clip-path="url(#pcff4753d16)" d="M 40.603125 81.519984 
L 397.723125 81.519984 
" style="fill:none;stroke:#b0b0b0;stroke-linecap:square;stroke-width:0.8;"/>
     </g>
     <g id="line2d_30">
      <g>
       <use style="stroke:#000000;stroke-width:0.8;" x="40.603125" xlink:href="#m16bd02e6b0" y="81.519984"/>
      </g>
     </g>
     <g id="text_16">
      <!-- 12 -->
      <g transform="translate(20.878125 85.319203)scale(0.1 -0.1)">
       <use xlink:href="#DejaVuSans-31"/>
       <use x="63.623047" xlink:href="#DejaVuSans-32"/>
      </g>
     </g>
    </g>
    <g id="ytick_8">
     <g id="line2d_31">
      <path clip-path="url(#pcff4753d16)" d="M 40.603125 47.620366 
L 397.723125 47.620366 
" style="fill:none;stroke:#b0b0b0;stroke-linecap:square;stroke-width:0.8;"/>
     </g>
     <g id="line2d_32">
      <g>
       <use style="stroke:#000000;stroke-width:0.8;" x="40.603125" xlink:href="#m16bd02e6b0" y="47.620366"/>
      </g>
     </g>
     <g id="text_17">
      <!-- 14 -->
      <g transform="translate(20.878125 51.419585)scale(0.1 -0.1)">
       <use xlink:href="#DejaVuSans-31"/>
       <use x="63.623047" xlink:href="#DejaVuSans-34"/>
      </g>
     </g>
    </g>
    <g id="text_18">
     <!-- Number of drone encounters -->
     <defs>
      <path d="M 9.8125 72.90625 
L 23.09375 72.90625 
L 55.421875 11.921875 
L 55.421875 72.90625 
L 64.984375 72.90625 
L 64.984375 0 
L 51.703125 0 
L 19.390625 60.984375 
L 19.390625 0 
L 9.8125 0 
z
" id="DejaVuSans-4e"/>
      <path d="M 8.5 21.578125 
L 8.5 54.6875 
L 17.484375 54.6875 
L 17.484375 21.921875 
Q 17.484375 14.15625 20.5 10.265625 
Q 23.53125 6.390625 29.59375 6.390625 
Q 36.859375 6.390625 41.078125 11.03125 
Q 45.3125 15.671875 45.3125 23.6875 
L 45.3125 54.6875 
L 54.296875 54.6875 
L 54.296875 0 
L 45.3125 0 
L 45.3125 8.40625 
Q 42.046875 3.421875 37.71875 1 
Q 33.40625 -1.421875 27.6875 -1.421875 
Q 18.265625 -1.421875 13.375 4.4375 
Q 8.5 10.296875 8.5 21.578125 
z
M 31.109375 56 
z
" id="DejaVuSans-75"/>
      <path d="M 48.6875 27.296875 
Q 48.6875 37.203125 44.609375 42.84375 
Q 40.53125 48.484375 33.40625 48.484375 
Q 26.265625 48.484375 22.1875 42.84375 
Q 18.109375 37.203125 18.109375 27.296875 
Q 18.109375 17.390625 22.1875 11.75 
Q 26.265625 6.109375 33.40625 6.109375 
Q 40.53125 6.109375 44.609375 11.75 
Q 48.6875 17.390625 48.6875 27.296875 
z
M 18.109375 46.390625 
Q 20.953125 51.265625 25.265625 53.625 
Q 29.59375 56 35.59375 56 
Q 45.5625 56 51.78125 48.09375 
Q 58.015625 40.1875 58.015625 27.296875 
Q 58.015625 14.40625 51.78125 6.484375 
Q 45.5625 -1.421875 35.59375 -1.421875 
Q 29.59375 -1.421875 25.265625 0.953125 
Q 20.953125 3.328125 18.109375 8.203125 
L 18.109375 0 
L 9.078125 0 
L 9.078125 75.984375 
L 18.109375 75.984375 
z
" id="DejaVuSans-62"/>
      <path d="M 41.109375 46.296875 
Q 39.59375 47.171875 37.8125 47.578125 
Q 36.03125 48 33.890625 48 
Q 26.265625 48 22.1875 43.046875 
Q 18.109375 38.09375 18.109375 28.8125 
L 18.109375 0 
L 9.078125 0 
L 9.078125 54.6875 
L 18.109375 54.6875 
L 18.109375 46.1875 
Q 20.953125 51.171875 25.484375 53.578125 
Q 30.03125 56 36.53125 56 
Q 37.453125 56 38.578125 55.875 
Q 39.703125 55.765625 41.0625 55.515625 
z
" id="DejaVuSans-72"/>
      <path id="DejaVuSans-20"/>
      <path d="M 30.609375 48.390625 
Q 23.390625 48.390625 19.1875 42.75 
Q 14.984375 37.109375 14.984375 27.296875 
Q 14.984375 17.484375 19.15625 11.84375 
Q 23.34375 6.203125 30.609375 6.203125 
Q 37.796875 6.203125 41.984375 11.859375 
Q 46.1875 17.53125 46.1875 27.296875 
Q 46.1875 37.015625 41.984375 42.703125 
Q 37.796875 48.390625 30.609375 48.390625 
z
M 30.609375 56 
Q 42.328125 56 49.015625 48.375 
Q 55.71875 40.765625 55.71875 27.296875 
Q 55.71875 13.875 49.015625 6.21875 
Q 42.328125 -1.421875 30.609375 -1.421875 
Q 18.84375 -1.421875 12.171875 6.21875 
Q 5.515625 13.875 5.515625 27.296875 
Q 5.515625 40.765625 12.171875 48.375 
Q 18.84375 56 30.609375 56 
z
" id="DejaVuSans-6f"/>
      <path d="M 37.109375 75.984375 
L 37.109375 68.5 
L 28.515625 68.5 
Q 23.6875 68.5 21.796875 66.546875 
Q 19.921875 64.59375 19.921875 59.515625 
L 19.921875 54.6875 
L 34.71875 54.6875 
L 34.71875 47.703125 
L 19.921875 47.703125 
L 19.921875 0 
L 10.890625 0 
L 10.890625 47.703125 
L 2.296875 47.703125 
L 2.296875 54.6875 
L 10.890625 54.6875 
L 10.890625 58.5 
Q 10.890625 67.625 15.140625 71.796875 
Q 19.390625 75.984375 28.609375 75.984375 
z
" id="DejaVuSans-66"/>
      <path d="M 45.40625 46.390625 
L 45.40625 75.984375 
L 54.390625 75.984375 
L 54.390625 0 
L 45.40625 0 
L 45.40625 8.203125 
Q 42.578125 3.328125 38.25 0.953125 
Q 33.9375 -1.421875 27.875 -1.421875 
Q 17.96875 -1.421875 11.734375 6.484375 
Q 5.515625 14.40625 5.515625 27.296875 
Q 5.515625 40.1875 11.734375 48.09375 
Q 17.96875 56 27.875 56 
Q 33.9375 56 38.25 53.625 
Q 42.578125 51.265625 45.40625 46.390625 
z
M 14.796875 27.296875 
Q 14.796875 17.390625 18.875 11.75 
Q 22.953125 6.109375 30.078125 6.109375 
Q 37.203125 6.109375 41.296875 11.75 
Q 45.40625 17.390625 45.40625 27.296875 
Q 45.40625 37.203125 41.296875 42.84375 
Q 37.203125 48.484375 30.078125 48.484375 
Q 22.953125 48.484375 18.875 42.84375 
Q 14.796875 37.203125 14.796875 27.296875 
z
" id="DejaVuSans-64"/>
      <path d="M 54.890625 33.015625 
L 54.890625 0 
L 45.90625 0 
L 45.90625 32.71875 
Q 45.90625 40.484375 42.875 44.328125 
Q 39.84375 48.1875 33.796875 48.1875 
Q 26.515625 48.1875 22.3125 43.546875 
Q 18.109375 38.921875 18.109375 30.90625 
L 18.109375 0 
L 9.078125 0 
L 9.078125 54.6875 
L 18.109375 54.6875 
L 18.109375 46.1875 
Q 21.34375 51.125 25.703125 53.5625 
Q 30.078125 56 35.796875 56 
Q 45.21875 56 50.046875 50.171875 
Q 54.890625 44.34375 54.890625 33.015625 
z
" id="DejaVuSans-6e"/>
      <path d="M 48.78125 52.59375 
L 48.78125 44.1875 
Q 44.96875 46.296875 41.140625 47.34375 
Q 37.3125 48.390625 33.40625 48.390625 
Q 24.65625 48.390625 19.8125 42.84375 
Q 14.984375 37.3125 14.984375 27.296875 
Q 14.984375 17.28125 19.8125 11.734375 
Q 24.65625 6.203125 33.40625 6.203125 
Q 37.3125 6.203125 41.140625 7.25 
Q 44.96875 8.296875 48.78125 10.40625 
L 48.78125 2.09375 
Q 45.015625 0.34375 40.984375 -0.53125 
Q 36.96875 -1.421875 32.421875 -1.421875 
Q 20.0625 -1.421875 12.78125 6.34375 
Q 5.515625 14.109375 5.515625 27.296875 
Q 5.515625 40.671875 12.859375 48.328125 
Q 20.21875 56 33.015625 56 
Q 37.15625 56 41.109375 55.140625 
Q 45.0625 54.296875 48.78125 52.59375 
z
" id="DejaVuSans-63"/>
      <path d="M 18.3125 70.21875 
L 18.3125 54.6875 
L 36.8125 54.6875 
L 36.8125 47.703125 
L 18.3125 47.703125 
L 18.3125 18.015625 
Q 18.3125 11.328125 20.140625 9.421875 
Q 21.96875 7.515625 27.59375 7.515625 
L 36.8125 7.515625 
L 36.8125 0 
L 27.59375 0 
Q 17.1875 0 13.234375 3.875 
Q 9.28125 7.765625 9.28125 18.015625 
L 9.28125 47.703125 
L 2.6875 47.703125 
L 2.6875 54.6875 
L 9.28125 54.6875 
L 9.28125 70.21875 
z
" id="DejaVuSans-74"/>
     </defs>
     <g transform="translate(14.798438 241.10525)rotate(-90)scale(0.1 -0.1)">
      <use xlink:href="#DejaVuSans-4e"/>
      <use x="74.804688" xlink:href="#DejaVuSans-75"/>
      <use x="138.183594" xlink:href="#DejaVuSans-6d"/>
      <use x="235.595703" xlink:href="#DejaVuSans-62"/>
      <use x="299.072266" xlink:href="#DejaVuSans-65"/>
      <use x="360.595703" xlink:href="#DejaVuSans-72"/>
      <use x="401.708984" xlink:href="#DejaVuSans-20"/>
      <use x="433.496094" xlink:href="#DejaVuSans-6f"/>
      <use x="494.677734" xlink:href="#DejaVuSans-66"/>
      <use x="529.882812" xlink:href="#DejaVuSans-20"/>
      <use x="561.669922" xlink:href="#DejaVuSans-64"/>
      <use x="625.146484" xlink:href="#DejaVuSans-72"/>
      <use x="666.228516" xlink:href="#DejaVuSans-6f"/>
      <use x="727.410156" xlink:href="#DejaVuSans-6e"/>
      <use x="790.789062" xlink:href="#DejaVuSans-65"/>
      <use x="852.3125" xlink:href="#DejaVuSans-20"/>
      <use x="884.099609" xlink:href="#DejaVuSans-65"/>
      <use x="945.623047" xlink:href="#DejaVuSans-6e"/>
      <use x="1009.001953" xlink:href="#DejaVuSans-63"/>
      <use x="1063.982422" xlink:href="#DejaVuSans-6f"/>
      <use x="1125.164062" xlink:href="#DejaVuSans-75"/>
      <use x="1188.542969" xlink:href="#DejaVuSans-6e"/>
      <use x="1251.921875" xlink:href="#DejaVuSans-74"/>
      <use x="1291.130859" xlink:href="#DejaVuSans-65"/>
      <use x="1352.654297" xlink:href="#DejaVuSans-72"/>
      <use x="1393.767578" xlink:href="#DejaVuSans-73"/>
     </g>
    </g>
   </g>
   <g id="line2d_33">
    <path clip-path="url(#pcff4753d16)" d="M 40.603125 47.620366 
L 42.643811 81.519984 
L 43.664154 81.519984 
L 44.684496 98.469793 
L 45.704839 98.469793 
L 46.725182 115.419602 
L 47.745525 115.419602 
L 48.765868 132.369411 
L 49.786211 132.369411 
L 50.806554 149.31922 
L 51.826896 149.31922 
L 52.847239 166.269029 
L 55.908268 166.269029 
L 56.928611 183.218838 
L 62.030325 183.218838 
L 63.050668 217.118455 
L 73.254096 217.118455 
L 74.274439 234.068264 
L 77.335468 234.068264 
L 78.355811 251.018073 
L 93.660954 251.018073 
L 94.681296 267.967882 
L 100.803354 267.967882 
L 101.823696 284.917691 
L 274.261639 284.917691 
L 275.281982 267.967882 
L 292.627811 267.967882 
L 293.648154 251.018073 
L 334.461868 251.018073 
L 335.482211 234.068264 
L 396.702782 234.068264 
L 396.702782 234.068264 
" style="fill:none;stroke:#008000;stroke-linecap:square;stroke-width:1.5;"/>
   </g>
   <g id="patch_3">
    <path d="M 40.603125 301.8675 
L 40.603125 35.7555 
" style="fill:none;stroke:#000000;stroke-linecap:square;stroke-linejoin:miter;stroke-width:0.8;"/>
   </g>
   <g id="patch_4">
    <path d="M 397.723125 301.8675 
L 397.723125 35.7555 
" style="fill:none;stroke:#000000;stroke-linecap:square;stroke-linejoin:miter;stroke-width:0.8;"/>
   </g>
   <g id="patch_5">
    <path d="M 40.603125 301.8675 
L 397.723125 301.8675 
" style="fill:none;stroke:#000000;stroke-linecap:square;stroke-linejoin:miter;stroke-width:0.8;"/>
   </g>
   <g id="patch_6">
    <path d="M 40.603125 35.7555 
L 397.723125 35.7555 
" style="fill:none;stroke:#000000;stroke-linecap:square;stroke-linejoin:miter;stroke-width:0.8;"/>
   </g>
   <g id="text_19">
    <!-- inertia max (x,y): (0.0,  14.0) -->
    <defs>
     <path d="M 34.28125 27.484375 
Q 23.390625 27.484375 19.1875 25 
Q 14.984375 22.515625 14.984375 16.5 
Q 14.984375 11.71875 18.140625 8.90625 
Q 21.296875 6.109375 26.703125 6.109375 
Q 34.1875 6.109375 38.703125 11.40625 
Q 43.21875 16.703125 43.21875 25.484375 
L 43.21875 27.484375 
z
M 52.203125 31.203125 
L 52.203125 0 
L 43.21875 0 
L 43.21875 8.296875 
Q 40.140625 3.328125 35.546875 0.953125 
Q 30.953125 -1.421875 24.3125 -1.421875 
Q 15.921875 -1.421875 10.953125 3.296875 
Q 6 8.015625 6 15.921875 
Q 6 25.140625 12.171875 29.828125 
Q 18.359375 34.515625 30.609375 34.515625 
L 43.21875 34.515625 
L 43.21875 35.40625 
Q 43.21875 41.609375 39.140625 45 
Q 35.0625 48.390625 27.6875 48.390625 
Q 23 48.390625 18.546875 47.265625 
Q 14.109375 46.140625 10.015625 43.890625 
L 10.015625 52.203125 
Q 14.9375 54.109375 19.578125 55.046875 
Q 24.21875 56 28.609375 56 
Q 40.484375 56 46.34375 49.84375 
Q 52.203125 43.703125 52.203125 31.203125 
z
" id="DejaVuSans-61"/>
     <path d="M 54.890625 54.6875 
L 35.109375 28.078125 
L 55.90625 0 
L 45.3125 0 
L 29.390625 21.484375 
L 13.484375 0 
L 2.875 0 
L 24.125 28.609375 
L 4.6875 54.6875 
L 15.28125 54.6875 
L 29.78125 35.203125 
L 44.28125 54.6875 
z
" id="DejaVuSans-78"/>
     <path d="M 11.71875 12.40625 
L 22.015625 12.40625 
L 22.015625 4 
L 14.015625 -11.625 
L 7.71875 -11.625 
L 11.71875 4 
z
" id="DejaVuSans-2c"/>
     <path d="M 32.171875 -5.078125 
Q 28.375 -14.84375 24.75 -17.8125 
Q 21.140625 -20.796875 15.09375 -20.796875 
L 7.90625 -20.796875 
L 7.90625 -13.28125 
L 13.1875 -13.28125 
Q 16.890625 -13.28125 18.9375 -11.515625 
Q 21 -9.765625 23.484375 -3.21875 
L 25.09375 0.875 
L 2.984375 54.6875 
L 12.5 54.6875 
L 29.59375 11.921875 
L 46.6875 54.6875 
L 56.203125 54.6875 
z
" id="DejaVuSans-79"/>
     <path d="M 11.71875 12.40625 
L 22.015625 12.40625 
L 22.015625 0 
L 11.71875 0 
z
M 11.71875 51.703125 
L 22.015625 51.703125 
L 22.015625 39.3125 
L 11.71875 39.3125 
z
" id="DejaVuSans-3a"/>
     <path d="M 10.6875 12.40625 
L 21 12.40625 
L 21 0 
L 10.6875 0 
z
" id="DejaVuSans-2e"/>
    </defs>
    <g transform="translate(415.579125 245.878437)scale(0.1 -0.1)">
     <use xlink:href="#DejaVuSans-69"/>
     <use x="27.783203" xlink:href="#DejaVuSans-6e"/>
     <use x="91.162109" xlink:href="#DejaVuSans-65"/>
     <use x="152.685547" xlink:href="#DejaVuSans-72"/>
     <use x="193.798828" xlink:href="#DejaVuSans-74"/>
     <use x="233.007812" xlink:href="#DejaVuSans-69"/>
     <use x="260.791016" xlink:href="#DejaVuSans-61"/>
     <use x="322.070312" xlink:href="#DejaVuSans-20"/>
     <use x="353.857422" xlink:href="#DejaVuSans-6d"/>
     <use x="451.269531" xlink:href="#DejaVuSans-61"/>
     <use x="512.548828" xlink:href="#DejaVuSans-78"/>
     <use x="571.728516" xlink:href="#DejaVuSans-20"/>
     <use x="603.515625" xlink:href="#DejaVuSans-28"/>
     <use x="642.529297" xlink:href="#DejaVuSans-78"/>
     <use x="701.708984" xlink:href="#DejaVuSans-2c"/>
     <use x="733.496094" xlink:href="#DejaVuSans-79"/>
     <use x="792.675781" xlink:href="#DejaVuSans-29"/>
     <use x="831.689453" xlink:href="#DejaVuSans-3a"/>
     <use x="865.380859" xlink:href="#DejaVuSans-20"/>
     <use x="897.167969" xlink:href="#DejaVuSans-28"/>
     <use x="936.181641" xlink:href="#DejaVuSans-30"/>
     <use x="999.804688" xlink:href="#DejaVuSans-2e"/>
     <use x="1031.591797" xlink:href="#DejaVuSans-30"/>
     <use x="1095.214844" xlink:href="#DejaVuSans-2c"/>
     <use x="1127.001953" xlink:href="#DejaVuSans-20"/>
     <use x="1158.789062" xlink:href="#DejaVuSans-20"/>
     <use x="1190.576172" xlink:href="#DejaVuSans-31"/>
     <use x="1254.199219" xlink:href="#DejaVuSans-34"/>
     <use x="1317.822266" xlink:href="#DejaVuSans-2e"/>
     <use x="1349.609375" xlink:href="#DejaVuSans-30"/>
     <use x="1413.232422" xlink:href="#DejaVuSans-29"/>
    </g>
    <!-- lb max (x,y): (231.0,  1.0) -->
    <defs>
     <path d="M 9.421875 75.984375 
L 18.40625 75.984375 
L 18.40625 0 
L 9.421875 0 
z
" id="DejaVuSans-6c"/>
    </defs>
    <g transform="translate(415.579125 257.07625)scale(0.1 -0.1)">
     <use xlink:href="#DejaVuSans-6c"/>
     <use x="27.783203" xlink:href="#DejaVuSans-62"/>
     <use x="91.259766" xlink:href="#DejaVuSans-20"/>
     <use x="123.046875" xlink:href="#DejaVuSans-6d"/>
     <use x="220.458984" xlink:href="#DejaVuSans-61"/>
     <use x="281.738281" xlink:href="#DejaVuSans-78"/>
     <use x="340.917969" xlink:href="#DejaVuSans-20"/>
     <use x="372.705078" xlink:href="#DejaVuSans-28"/>
     <use x="411.71875" xlink:href="#DejaVuSans-78"/>
     <use x="470.898438" xlink:href="#DejaVuSans-2c"/>
     <use x="502.685547" xlink:href="#DejaVuSans-79"/>
     <use x="561.865234" xlink:href="#DejaVuSans-29"/>
     <use x="600.878906" xlink:href="#DejaVuSans-3a"/>
     <use x="634.570312" xlink:href="#DejaVuSans-20"/>
     <use x="666.357422" xlink:href="#DejaVuSans-28"/>
     <use x="705.371094" xlink:href="#DejaVuSans-32"/>
     <use x="768.994141" xlink:href="#DejaVuSans-33"/>
     <use x="832.617188" xlink:href="#DejaVuSans-31"/>
     <use x="896.240234" xlink:href="#DejaVuSans-2e"/>
     <use x="928.027344" xlink:href="#DejaVuSans-30"/>
     <use x="991.650391" xlink:href="#DejaVuSans-2c"/>
     <use x="1023.4375" xlink:href="#DejaVuSans-20"/>
     <use x="1055.224609" xlink:href="#DejaVuSans-20"/>
     <use x="1087.011719" xlink:href="#DejaVuSans-31"/>
     <use x="1150.634766" xlink:href="#DejaVuSans-2e"/>
     <use x="1182.421875" xlink:href="#DejaVuSans-30"/>
     <use x="1246.044922" xlink:href="#DejaVuSans-29"/>
    </g>
    <!-- nb max (x,y): (349.0,  3.0) -->
    <defs>
     <path d="M 10.984375 1.515625 
L 10.984375 10.5 
Q 14.703125 8.734375 18.5 7.8125 
Q 22.3125 6.890625 25.984375 6.890625 
Q 35.75 6.890625 40.890625 13.453125 
Q 46.046875 20.015625 46.78125 33.40625 
Q 43.953125 29.203125 39.59375 26.953125 
Q 35.25 24.703125 29.984375 24.703125 
Q 19.046875 24.703125 12.671875 31.3125 
Q 6.296875 37.9375 6.296875 49.421875 
Q 6.296875 60.640625 12.9375 67.421875 
Q 19.578125 74.21875 30.609375 74.21875 
Q 43.265625 74.21875 49.921875 64.515625 
Q 56.59375 54.828125 56.59375 36.375 
Q 56.59375 19.140625 48.40625 8.859375 
Q 40.234375 -1.421875 26.421875 -1.421875 
Q 22.703125 -1.421875 18.890625 -0.6875 
Q 15.09375 0.046875 10.984375 1.515625 
z
M 30.609375 32.421875 
Q 37.25 32.421875 41.125 36.953125 
Q 45.015625 41.5 45.015625 49.421875 
Q 45.015625 57.28125 41.125 61.84375 
Q 37.25 66.40625 30.609375 66.40625 
Q 23.96875 66.40625 20.09375 61.84375 
Q 16.21875 57.28125 16.21875 49.421875 
Q 16.21875 41.5 20.09375 36.953125 
Q 23.96875 32.421875 30.609375 32.421875 
z
" id="DejaVuSans-39"/>
    </defs>
    <g transform="translate(415.579125 268.274062)scale(0.1 -0.1)">
     <use xlink:href="#DejaVuSans-6e"/>
     <use x="63.378906" xlink:href="#DejaVuSans-62"/>
     <use x="126.855469" xlink:href="#DejaVuSans-20"/>
     <use x="158.642578" xlink:href="#DejaVuSans-6d"/>
     <use x="256.054688" xlink:href="#DejaVuSans-61"/>
     <use x="317.333984" xlink:href="#DejaVuSans-78"/>
     <use x="376.513672" xlink:href="#DejaVuSans-20"/>
     <use x="408.300781" xlink:href="#DejaVuSans-28"/>
     <use x="447.314453" xlink:href="#DejaVuSans-78"/>
     <use x="506.494141" xlink:href="#DejaVuSans-2c"/>
     <use x="538.28125" xlink:href="#DejaVuSans-79"/>
     <use x="597.460938" xlink:href="#DejaVuSans-29"/>
     <use x="636.474609" xlink:href="#DejaVuSans-3a"/>
     <use x="670.166016" xlink:href="#DejaVuSans-20"/>
     <use x="701.953125" xlink:href="#DejaVuSans-28"/>
     <use x="740.966797" xlink:href="#DejaVuSans-33"/>
     <use x="804.589844" xlink:href="#DejaVuSans-34"/>
     <use x="868.212891" xlink:href="#DejaVuSans-39"/>
     <use x="931.835938" xlink:href="#DejaVuSans-2e"/>
     <use x="963.623047" xlink:href="#DejaVuSans-30"/>
     <use x="1027.246094" xlink:href="#DejaVuSans-2c"/>
     <use x="1059.033203" xlink:href="#DejaVuSans-20"/>
     <use x="1090.820312" xlink:href="#DejaVuSans-20"/>
     <use x="1122.607422" xlink:href="#DejaVuSans-33"/>
     <use x="1186.230469" xlink:href="#DejaVuSans-2e"/>
     <use x="1218.017578" xlink:href="#DejaVuSans-30"/>
     <use x="1281.640625" xlink:href="#DejaVuSans-29"/>
    </g>
    <!-- Total encounters (avg): 569.0 -->
    <defs>
     <path d="M 2.984375 54.6875 
L 12.5 54.6875 
L 29.59375 8.796875 
L 46.6875 54.6875 
L 56.203125 54.6875 
L 35.6875 0 
L 23.484375 0 
z
" id="DejaVuSans-76"/>
     <path d="M 45.40625 27.984375 
Q 45.40625 37.75 41.375 43.109375 
Q 37.359375 48.484375 30.078125 48.484375 
Q 22.859375 48.484375 18.828125 43.109375 
Q 14.796875 37.75 14.796875 27.984375 
Q 14.796875 18.265625 18.828125 12.890625 
Q 22.859375 7.515625 30.078125 7.515625 
Q 37.359375 7.515625 41.375 12.890625 
Q 45.40625 18.265625 45.40625 27.984375 
z
M 54.390625 6.78125 
Q 54.390625 -7.171875 48.1875 -13.984375 
Q 42 -20.796875 29.203125 -20.796875 
Q 24.46875 -20.796875 20.265625 -20.09375 
Q 16.0625 -19.390625 12.109375 -17.921875 
L 12.109375 -9.1875 
Q 16.0625 -11.328125 19.921875 -12.34375 
Q 23.78125 -13.375 27.78125 -13.375 
Q 36.625 -13.375 41.015625 -8.765625 
Q 45.40625 -4.15625 45.40625 5.171875 
L 45.40625 9.625 
Q 42.625 4.78125 38.28125 2.390625 
Q 33.9375 0 27.875 0 
Q 17.828125 0 11.671875 7.65625 
Q 5.515625 15.328125 5.515625 27.984375 
Q 5.515625 40.671875 11.671875 48.328125 
Q 17.828125 56 27.875 56 
Q 33.9375 56 38.28125 53.609375 
Q 42.625 51.21875 45.40625 46.390625 
L 45.40625 54.6875 
L 54.390625 54.6875 
z
" id="DejaVuSans-67"/>
    </defs>
    <g transform="translate(415.579125 279.471875)scale(0.1 -0.1)">
     <use xlink:href="#DejaVuSans-54"/>
     <use x="60.818359" xlink:href="#DejaVuSans-6f"/>
     <use x="122" xlink:href="#DejaVuSans-74"/>
     <use x="161.208984" xlink:href="#DejaVuSans-61"/>
     <use x="222.488281" xlink:href="#DejaVuSans-6c"/>
     <use x="250.271484" xlink:href="#DejaVuSans-20"/>
     <use x="282.058594" xlink:href="#DejaVuSans-65"/>
     <use x="343.582031" xlink:href="#DejaVuSans-6e"/>
     <use x="406.960938" xlink:href="#DejaVuSans-63"/>
     <use x="461.941406" xlink:href="#DejaVuSans-6f"/>
     <use x="523.123047" xlink:href="#DejaVuSans-75"/>
     <use x="586.501953" xlink:href="#DejaVuSans-6e"/>
     <use x="649.880859" xlink:href="#DejaVuSans-74"/>
     <use x="689.089844" xlink:href="#DejaVuSans-65"/>
     <use x="750.613281" xlink:href="#DejaVuSans-72"/>
     <use x="791.726562" xlink:href="#DejaVuSans-73"/>
     <use x="843.826172" xlink:href="#DejaVuSans-20"/>
     <use x="875.613281" xlink:href="#DejaVuSans-28"/>
     <use x="914.626953" xlink:href="#DejaVuSans-61"/>
     <use x="975.90625" xlink:href="#DejaVuSans-76"/>
     <use x="1035.085938" xlink:href="#DejaVuSans-67"/>
     <use x="1098.5625" xlink:href="#DejaVuSans-29"/>
     <use x="1137.576172" xlink:href="#DejaVuSans-3a"/>
     <use x="1171.267578" xlink:href="#DejaVuSans-20"/>
     <use x="1203.054688" xlink:href="#DejaVuSans-35"/>
     <use x="1266.677734" xlink:href="#DejaVuSans-36"/>
     <use x="1330.300781" xlink:href="#DejaVuSans-39"/>
     <use x="1393.923828" xlink:href="#DejaVuSans-2e"/>
     <use x="1425.710938" xlink:href="#DejaVuSans-30"/>
    </g>
    <!-- dev : 0.00 -->
    <g transform="translate(415.579125 290.669687)scale(0.1 -0.1)">
     <use xlink:href="#DejaVuSans-64"/>
     <use x="63.476562" xlink:href="#DejaVuSans-65"/>
     <use x="125" xlink:href="#DejaVuSans-76"/>
     <use x="184.179688" xlink:href="#DejaVuSans-20"/>
     <use x="215.966797" xlink:href="#DejaVuSans-3a"/>
     <use x="249.658203" xlink:href="#DejaVuSans-20"/>
     <use x="281.445312" xlink:href="#DejaVuSans-30"/>
     <use x="345.068359" xlink:href="#DejaVuSans-2e"/>
     <use x="376.855469" xlink:href="#DejaVuSans-30"/>
     <use x="440.478516" xlink:href="#DejaVuSans-30"/>
    </g>
    <!-- Mean of encounters: 1.6 -->
    <defs>
     <path d="M 9.8125 72.90625 
L 24.515625 72.90625 
L 43.109375 23.296875 
L 61.8125 72.90625 
L 76.515625 72.90625 
L 76.515625 0 
L 66.890625 0 
L 66.890625 64.015625 
L 48.09375 14.015625 
L 38.1875 14.015625 
L 19.390625 64.015625 
L 19.390625 0 
L 9.8125 0 
z
" id="DejaVuSans-4d"/>
    </defs>
    <g transform="translate(415.579125 301.8675)scale(0.1 -0.1)">
     <use xlink:href="#DejaVuSans-4d"/>
     <use x="86.279297" xlink:href="#DejaVuSans-65"/>
     <use x="147.802734" xlink:href="#DejaVuSans-61"/>
     <use x="209.082031" xlink:href="#DejaVuSans-6e"/>
     <use x="272.460938" xlink:href="#DejaVuSans-20"/>
     <use x="304.248047" xlink:href="#DejaVuSans-6f"/>
     <use x="365.429688" xlink:href="#DejaVuSans-66"/>
     <use x="400.634766" xlink:href="#DejaVuSans-20"/>
     <use x="432.421875" xlink:href="#DejaVuSans-65"/>
     <use x="493.945312" xlink:href="#DejaVuSans-6e"/>
     <use x="557.324219" xlink:href="#DejaVuSans-63"/>
     <use x="612.304688" xlink:href="#DejaVuSans-6f"/>
     <use x="673.486328" xlink:href="#DejaVuSans-75"/>
     <use x="736.865234" xlink:href="#DejaVuSans-6e"/>
     <use x="800.244141" xlink:href="#DejaVuSans-74"/>
     <use x="839.453125" xlink:href="#DejaVuSans-65"/>
     <use x="900.976562" xlink:href="#DejaVuSans-72"/>
     <use x="942.089844" xlink:href="#DejaVuSans-73"/>
     <use x="994.189453" xlink:href="#DejaVuSans-3a"/>
     <use x="1027.880859" xlink:href="#DejaVuSans-20"/>
     <use x="1059.667969" xlink:href="#DejaVuSans-31"/>
     <use x="1123.291016" xlink:href="#DejaVuSans-2e"/>
     <use x="1155.078125" xlink:href="#DejaVuSans-36"/>
    </g>
   </g>
   <g id="text_20">
    <!-- Drone encounters per time [avg] -->
    <defs>
     <path d="M 19.671875 64.796875 
L 19.671875 8.109375 
L 31.59375 8.109375 
Q 46.6875 8.109375 53.6875 14.9375 
Q 60.6875 21.78125 60.6875 36.53125 
Q 60.6875 51.171875 53.6875 57.984375 
Q 46.6875 64.796875 31.59375 64.796875 
z
M 9.8125 72.90625 
L 30.078125 72.90625 
Q 51.265625 72.90625 61.171875 64.09375 
Q 71.09375 55.28125 71.09375 36.53125 
Q 71.09375 17.671875 61.125 8.828125 
Q 51.171875 0 30.078125 0 
L 9.8125 0 
z
" id="DejaVuSans-44"/>
     <path d="M 18.109375 8.203125 
L 18.109375 -20.796875 
L 9.078125 -20.796875 
L 9.078125 54.6875 
L 18.109375 54.6875 
L 18.109375 46.390625 
Q 20.953125 51.265625 25.265625 53.625 
Q 29.59375 56 35.59375 56 
Q 45.5625 56 51.78125 48.09375 
Q 58.015625 40.1875 58.015625 27.296875 
Q 58.015625 14.40625 51.78125 6.484375 
Q 45.5625 -1.421875 35.59375 -1.421875 
Q 29.59375 -1.421875 25.265625 0.953125 
Q 20.953125 3.328125 18.109375 8.203125 
z
M 48.6875 27.296875 
Q 48.6875 37.203125 44.609375 42.84375 
Q 40.53125 48.484375 33.40625 48.484375 
Q 26.265625 48.484375 22.1875 42.84375 
Q 18.109375 37.203125 18.109375 27.296875 
Q 18.109375 17.390625 22.1875 11.75 
Q 26.265625 6.109375 33.40625 6.109375 
Q 40.53125 6.109375 44.609375 11.75 
Q 48.6875 17.390625 48.6875 27.296875 
z
" id="DejaVuSans-70"/>
     <path d="M 8.59375 75.984375 
L 29.296875 75.984375 
L 29.296875 69 
L 17.578125 69 
L 17.578125 -6.203125 
L 29.296875 -6.203125 
L 29.296875 -13.1875 
L 8.59375 -13.1875 
z
" id="DejaVuSans-5b"/>
     <path d="M 30.421875 75.984375 
L 30.421875 -13.1875 
L 9.71875 -13.1875 
L 9.71875 -6.203125 
L 21.390625 -6.203125 
L 21.390625 69 
L 9.71875 69 
L 9.71875 75.984375 
z
" id="DejaVuSans-5d"/>
    </defs>
    <g transform="translate(120.3375 16.318125)scale(0.12 -0.12)">
     <use xlink:href="#DejaVuSans-44"/>
     <use x="77.001953" xlink:href="#DejaVuSans-72"/>
     <use x="118.083984" xlink:href="#DejaVuSans-6f"/>
     <use x="179.265625" xlink:href="#DejaVuSans-6e"/>
     <use x="242.644531" xlink:href="#DejaVuSans-65"/>
     <use x="304.167969" xlink:href="#DejaVuSans-20"/>
     <use x="335.955078" xlink:href="#DejaVuSans-65"/>
     <use x="397.478516" xlink:href="#DejaVuSans-6e"/>
     <use x="460.857422" xlink:href="#DejaVuSans-63"/>
     <use x="515.837891" xlink:href="#DejaVuSans-6f"/>
     <use x="577.019531" xlink:href="#DejaVuSans-75"/>
     <use x="640.398438" xlink:href="#DejaVuSans-6e"/>
     <use x="703.777344" xlink:href="#DejaVuSans-74"/>
     <use x="742.986328" xlink:href="#DejaVuSans-65"/>
     <use x="804.509766" xlink:href="#DejaVuSans-72"/>
     <use x="845.623047" xlink:href="#DejaVuSans-73"/>
     <use x="897.722656" xlink:href="#DejaVuSans-20"/>
     <use x="929.509766" xlink:href="#DejaVuSans-70"/>
     <use x="992.986328" xlink:href="#DejaVuSans-65"/>
     <use x="1054.509766" xlink:href="#DejaVuSans-72"/>
     <use x="1095.623047" xlink:href="#DejaVuSans-20"/>
     <use x="1127.410156" xlink:href="#DejaVuSans-74"/>
     <use x="1166.619141" xlink:href="#DejaVuSans-69"/>
     <use x="1194.402344" xlink:href="#DejaVuSans-6d"/>
     <use x="1291.814453" xlink:href="#DejaVuSans-65"/>
     <use x="1353.337891" xlink:href="#DejaVuSans-20"/>
     <use x="1385.125" xlink:href="#DejaVuSans-5b"/>
     <use x="1424.138672" xlink:href="#DejaVuSans-61"/>
     <use x="1485.417969" xlink:href="#DejaVuSans-76"/>
     <use x="1544.597656" xlink:href="#DejaVuSans-67"/>
     <use x="1608.074219" xlink:href="#DejaVuSans-5d"/>
    </g>
    <!-- pso: 180115-182334 -->
    <defs>
     <path d="M 4.890625 31.390625 
L 31.203125 31.390625 
L 31.203125 23.390625 
L 4.890625 23.390625 
z
" id="DejaVuSans-2d"/>
    </defs>
    <g transform="translate(156.654375 29.7555)scale(0.12 -0.12)">
     <use xlink:href="#DejaVuSans-70"/>
     <use x="63.476562" xlink:href="#DejaVuSans-73"/>
     <use x="115.576172" xlink:href="#DejaVuSans-6f"/>
     <use x="176.757812" xlink:href="#DejaVuSans-3a"/>
     <use x="210.449219" xlink:href="#DejaVuSans-20"/>
     <use x="242.236328" xlink:href="#DejaVuSans-31"/>
     <use x="305.859375" xlink:href="#DejaVuSans-38"/>
     <use x="369.482422" xlink:href="#DejaVuSans-30"/>
     <use x="433.105469" xlink:href="#DejaVuSans-31"/>
     <use x="496.728516" xlink:href="#DejaVuSans-31"/>
     <use x="560.351562" xlink:href="#DejaVuSans-35"/>
     <use x="623.974609" xlink:href="#DejaVuSans-2d"/>
     <use x="660.058594" xlink:href="#DejaVuSans-31"/>
     <use x="723.681641" xlink:href="#DejaVuSans-38"/>
     <use x="787.304688" xlink:href="#DejaVuSans-32"/>
     <use x="850.927734" xlink:href="#DejaVuSans-33"/>
     <use x="914.550781" xlink:href="#DejaVuSans-33"/>
     <use x="978.173828" xlink:href="#DejaVuSans-34"/>
    </g>
   </g>
  </g>
 </g>
 <defs>
  <clipPath id="pcff4753d16">
   <rect height="266.112" width="357.12" x="40.603125" y="35.7555"/>
  </clipPath>
 </defs>
</svg>
