<?xml version="1.0" encoding="utf-8" standalone="no"?>
<!DOCTYPE svg PUBLIC "-//W3C//DTD SVG 1.1//EN"
  "http://www.w3.org/Graphics/SVG/1.1/DTD/svg11.dtd">
<!-- Created with matplotlib (http://matplotlib.org/) -->
<svg height="339pt" version="1.1" viewBox="0 0 573 339" width="573pt" xmlns="http://www.w3.org/2000/svg" xmlns:xlink="http://www.w3.org/1999/xlink">
 <defs>
  <style type="text/css">
*{stroke-linecap:butt;stroke-linejoin:round;}
  </style>
 </defs>
 <g id="figure_1">
  <g id="patch_1">
   <path d="M 0 339.42375 
L 573.686937 339.42375 
L 573.686937 0 
L 0 0 
z
" style="fill:#ffffff;"/>
  </g>
  <g id="axes_1">
   <g id="patch_2">
    <path d="M 46.965625 301.8675 
L 404.085625 301.8675 
L 404.085625 35.7555 
L 46.965625 35.7555 
z
" style="fill:#ffffff;"/>
   </g>
   <g id="PolyCollection_1">
    <defs>
     <path d="M 46.965625 -37.55625 
L 46.965625 -37.55625 
L 47.985968 -37.55625 
L 49.006311 -37.55625 
L 50.026654 -37.55625 
L 51.046996 -37.55625 
L 52.067339 -37.55625 
L 53.087682 -37.55625 
L 54.108025 -37.55625 
L 55.128368 -38.88681 
L 56.148711 -40.21737 
L 57.169054 -40.21737 
L 58.189396 -40.21737 
L 59.209739 -40.21737 
L 60.230082 -40.21737 
L 61.250425 -40.21737 
L 62.270768 -40.21737 
L 63.291111 -40.21737 
L 64.311454 -40.21737 
L 65.331796 -40.21737 
L 66.352139 -40.21737 
L 67.372482 -40.21737 
L 68.392825 -40.21737 
L 69.413168 -40.21737 
L 70.433511 -40.21737 
L 71.453854 -40.21737 
L 72.474196 -40.21737 
L 73.494539 -40.21737 
L 74.514882 -40.21737 
L 75.535225 -41.54793 
L 76.555568 -42.87849 
L 77.575911 -42.87849 
L 78.596254 -42.87849 
L 79.616596 -42.87849 
L 80.636939 -44.20905 
L 81.657282 -45.53961 
L 82.677625 -45.53961 
L 83.697968 -45.53961 
L 84.718311 -46.87017 
L 85.738654 -46.87017 
L 86.758996 -46.87017 
L 87.779339 -48.20073 
L 88.799682 -48.20073 
L 89.820025 -48.20073 
L 90.840368 -48.20073 
L 91.860711 -48.20073 
L 92.881054 -49.53129 
L 93.901396 -49.53129 
L 94.921739 -49.53129 
L 95.942082 -49.53129 
L 96.962425 -49.53129 
L 97.982768 -49.53129 
L 99.003111 -49.53129 
L 100.023454 -49.53129 
L 101.043796 -49.53129 
L 102.064139 -50.86185 
L 103.084482 -50.86185 
L 104.104825 -52.19241 
L 105.125168 -52.19241 
L 106.145511 -52.19241 
L 107.165854 -52.19241 
L 108.186196 -52.19241 
L 109.206539 -52.19241 
L 110.226882 -52.19241 
L 111.247225 -53.52297 
L 112.267568 -53.52297 
L 113.287911 -53.52297 
L 114.308254 -54.85353 
L 115.328596 -56.18409 
L 116.348939 -56.18409 
L 117.369282 -57.51465 
L 118.389625 -57.51465 
L 119.409968 -58.84521 
L 120.430311 -58.84521 
L 121.450654 -58.84521 
L 122.470996 -58.84521 
L 123.491339 -60.17577 
L 124.511682 -60.17577 
L 125.532025 -60.17577 
L 126.552368 -60.17577 
L 127.572711 -60.17577 
L 128.593054 -60.17577 
L 129.613396 -60.17577 
L 130.633739 -61.50633 
L 131.654082 -62.83689 
L 132.674425 -64.16745 
L 133.694768 -65.49801 
L 134.715111 -66.82857 
L 135.735454 -66.82857 
L 136.755796 -66.82857 
L 137.776139 -66.82857 
L 138.796482 -66.82857 
L 139.816825 -68.15913 
L 140.837168 -68.15913 
L 141.857511 -68.15913 
L 142.877854 -69.48969 
L 143.898196 -72.15081 
L 144.918539 -72.15081 
L 145.938882 -72.15081 
L 146.959225 -73.48137 
L 147.979568 -74.81193 
L 148.999911 -78.80361 
L 150.020254 -80.13417 
L 151.040596 -80.13417 
L 152.060939 -80.13417 
L 153.081282 -81.46473 
L 154.101625 -82.79529 
L 155.121968 -82.79529 
L 156.142311 -82.79529 
L 157.162654 -84.12585 
L 158.182996 -84.12585 
L 159.203339 -84.12585 
L 160.223682 -84.12585 
L 161.244025 -84.12585 
L 162.264368 -85.45641 
L 163.284711 -85.45641 
L 164.305054 -86.78697 
L 165.325396 -86.78697 
L 166.345739 -86.78697 
L 167.366082 -89.44809 
L 168.386425 -90.77865 
L 169.406768 -90.77865 
L 170.427111 -92.10921 
L 171.447454 -93.43977 
L 172.467796 -93.43977 
L 173.488139 -94.77033 
L 174.508482 -94.77033 
L 175.528825 -94.77033 
L 176.549168 -94.77033 
L 177.569511 -94.77033 
L 178.589854 -94.77033 
L 179.610196 -94.77033 
L 180.630539 -94.77033 
L 181.650882 -96.10089 
L 182.671225 -96.10089 
L 183.691568 -96.10089 
L 184.711911 -96.10089 
L 185.732254 -96.10089 
L 186.752596 -96.10089 
L 187.772939 -96.10089 
L 188.793282 -97.43145 
L 189.813625 -97.43145 
L 190.833968 -97.43145 
L 191.854311 -97.43145 
L 192.874654 -97.43145 
L 193.894996 -97.43145 
L 194.915339 -97.43145 
L 195.935682 -97.43145 
L 196.956025 -97.43145 
L 197.976368 -97.43145 
L 198.996711 -97.43145 
L 200.017054 -97.43145 
L 201.037396 -98.76201 
L 202.057739 -98.76201 
L 203.078082 -98.76201 
L 204.098425 -98.76201 
L 205.118768 -98.76201 
L 206.139111 -98.76201 
L 207.159454 -98.76201 
L 208.179796 -98.76201 
L 209.200139 -98.76201 
L 210.220482 -98.76201 
L 211.240825 -98.76201 
L 212.261168 -98.76201 
L 213.281511 -98.76201 
L 214.301854 -98.76201 
L 215.322196 -98.76201 
L 216.342539 -98.76201 
L 217.362882 -98.76201 
L 218.383225 -98.76201 
L 219.403568 -98.76201 
L 220.423911 -98.76201 
L 221.444254 -98.76201 
L 222.464596 -98.76201 
L 223.484939 -98.76201 
L 224.505282 -98.76201 
L 225.525625 -98.76201 
L 226.545968 -98.76201 
L 227.566311 -98.76201 
L 228.586654 -98.76201 
L 229.606996 -98.76201 
L 230.627339 -98.76201 
L 231.647682 -98.76201 
L 232.668025 -98.76201 
L 233.688368 -98.76201 
L 234.708711 -100.09257 
L 235.729054 -100.09257 
L 236.749396 -100.09257 
L 237.769739 -100.09257 
L 238.790082 -100.09257 
L 239.810425 -100.09257 
L 240.830768 -100.09257 
L 241.851111 -100.09257 
L 242.871454 -100.09257 
L 243.891796 -100.09257 
L 244.912139 -100.09257 
L 245.932482 -100.09257 
L 246.952825 -100.09257 
L 247.973168 -100.09257 
L 248.993511 -100.09257 
L 250.013854 -100.09257 
L 251.034196 -100.09257 
L 252.054539 -100.09257 
L 253.074882 -100.09257 
L 254.095225 -100.09257 
L 255.115568 -100.09257 
L 256.135911 -100.09257 
L 257.156254 -100.09257 
L 258.176596 -100.09257 
L 259.196939 -100.09257 
L 260.217282 -100.09257 
L 261.237625 -100.09257 
L 262.257968 -100.09257 
L 263.278311 -100.09257 
L 264.298654 -100.09257 
L 265.318996 -100.09257 
L 266.339339 -100.09257 
L 267.359682 -100.09257 
L 268.380025 -100.09257 
L 269.400368 -100.09257 
L 270.420711 -100.09257 
L 271.441054 -100.09257 
L 272.461396 -100.09257 
L 273.481739 -100.09257 
L 274.502082 -100.09257 
L 275.522425 -100.09257 
L 276.542768 -100.09257 
L 277.563111 -100.09257 
L 278.583454 -100.09257 
L 279.603796 -100.09257 
L 280.624139 -100.09257 
L 281.644482 -100.09257 
L 282.664825 -100.09257 
L 283.685168 -100.09257 
L 284.705511 -100.09257 
L 285.725854 -100.09257 
L 286.746196 -100.09257 
L 287.766539 -100.09257 
L 288.786882 -100.09257 
L 289.807225 -100.09257 
L 290.827568 -100.09257 
L 291.847911 -100.09257 
L 292.868254 -100.09257 
L 293.888596 -100.09257 
L 294.908939 -100.09257 
L 295.929282 -100.09257 
L 296.949625 -100.09257 
L 297.969968 -100.09257 
L 298.990311 -100.09257 
L 300.010654 -100.09257 
L 301.030996 -100.09257 
L 302.051339 -100.09257 
L 303.071682 -100.09257 
L 304.092025 -100.09257 
L 305.112368 -100.09257 
L 306.132711 -100.09257 
L 307.153054 -100.09257 
L 308.173396 -100.09257 
L 309.193739 -100.09257 
L 310.214082 -100.09257 
L 311.234425 -100.09257 
L 312.254768 -100.09257 
L 313.275111 -100.09257 
L 314.295454 -100.09257 
L 315.315796 -100.09257 
L 316.336139 -100.09257 
L 317.356482 -100.09257 
L 318.376825 -100.09257 
L 319.397168 -100.09257 
L 320.417511 -100.09257 
L 321.437854 -100.09257 
L 322.458196 -100.09257 
L 323.478539 -100.09257 
L 324.498882 -100.09257 
L 325.519225 -100.09257 
L 326.539568 -100.09257 
L 327.559911 -100.09257 
L 328.580254 -100.09257 
L 329.600596 -100.09257 
L 330.620939 -100.09257 
L 331.641282 -100.09257 
L 332.661625 -100.09257 
L 333.681968 -100.09257 
L 334.702311 -100.09257 
L 335.722654 -100.09257 
L 336.742996 -100.09257 
L 337.763339 -100.09257 
L 338.783682 -100.09257 
L 339.804025 -100.09257 
L 340.824368 -100.09257 
L 341.844711 -100.09257 
L 342.865054 -100.09257 
L 343.885396 -100.09257 
L 344.905739 -100.09257 
L 345.926082 -100.09257 
L 346.946425 -100.09257 
L 347.966768 -100.09257 
L 348.987111 -100.09257 
L 350.007454 -100.09257 
L 351.027796 -100.09257 
L 352.048139 -100.09257 
L 353.068482 -100.09257 
L 354.088825 -100.09257 
L 355.109168 -100.09257 
L 356.129511 -100.09257 
L 357.149854 -100.09257 
L 358.170196 -100.09257 
L 359.190539 -100.09257 
L 360.210882 -100.09257 
L 361.231225 -100.09257 
L 362.251568 -100.09257 
L 363.271911 -100.09257 
L 364.292254 -100.09257 
L 365.312596 -100.09257 
L 366.332939 -100.09257 
L 367.353282 -100.09257 
L 368.373625 -100.09257 
L 369.393968 -100.09257 
L 370.414311 -100.09257 
L 371.434654 -100.09257 
L 372.454996 -100.09257 
L 373.475339 -100.09257 
L 374.495682 -100.09257 
L 375.516025 -100.09257 
L 376.536368 -100.09257 
L 377.556711 -100.09257 
L 378.577054 -100.09257 
L 379.597396 -100.09257 
L 380.617739 -100.09257 
L 381.638082 -100.09257 
L 382.658425 -100.09257 
L 383.678768 -100.09257 
L 384.699111 -100.09257 
L 385.719454 -100.09257 
L 386.739796 -100.09257 
L 387.760139 -100.09257 
L 388.780482 -100.09257 
L 389.800825 -100.09257 
L 390.821168 -100.09257 
L 391.841511 -100.09257 
L 392.861854 -100.09257 
L 393.882196 -100.09257 
L 394.902539 -100.09257 
L 395.922882 -100.09257 
L 396.943225 -100.09257 
L 397.963568 -100.09257 
L 398.983911 -100.09257 
L 400.004254 -100.09257 
L 401.024596 -100.09257 
L 402.044939 -100.09257 
L 403.065282 -100.09257 
L 403.065282 -100.09257 
L 403.065282 -100.09257 
L 402.044939 -100.09257 
L 401.024596 -100.09257 
L 400.004254 -100.09257 
L 398.983911 -100.09257 
L 397.963568 -100.09257 
L 396.943225 -100.09257 
L 395.922882 -100.09257 
L 394.902539 -100.09257 
L 393.882196 -100.09257 
L 392.861854 -100.09257 
L 391.841511 -100.09257 
L 390.821168 -100.09257 
L 389.800825 -100.09257 
L 388.780482 -100.09257 
L 387.760139 -100.09257 
L 386.739796 -100.09257 
L 385.719454 -100.09257 
L 384.699111 -100.09257 
L 383.678768 -100.09257 
L 382.658425 -100.09257 
L 381.638082 -100.09257 
L 380.617739 -100.09257 
L 379.597396 -100.09257 
L 378.577054 -100.09257 
L 377.556711 -100.09257 
L 376.536368 -100.09257 
L 375.516025 -100.09257 
L 374.495682 -100.09257 
L 373.475339 -100.09257 
L 372.454996 -100.09257 
L 371.434654 -100.09257 
L 370.414311 -100.09257 
L 369.393968 -100.09257 
L 368.373625 -100.09257 
L 367.353282 -100.09257 
L 366.332939 -100.09257 
L 365.312596 -100.09257 
L 364.292254 -100.09257 
L 363.271911 -100.09257 
L 362.251568 -100.09257 
L 361.231225 -100.09257 
L 360.210882 -100.09257 
L 359.190539 -100.09257 
L 358.170196 -100.09257 
L 357.149854 -100.09257 
L 356.129511 -100.09257 
L 355.109168 -100.09257 
L 354.088825 -100.09257 
L 353.068482 -100.09257 
L 352.048139 -100.09257 
L 351.027796 -100.09257 
L 350.007454 -100.09257 
L 348.987111 -100.09257 
L 347.966768 -100.09257 
L 346.946425 -100.09257 
L 345.926082 -100.09257 
L 344.905739 -100.09257 
L 343.885396 -100.09257 
L 342.865054 -100.09257 
L 341.844711 -100.09257 
L 340.824368 -100.09257 
L 339.804025 -100.09257 
L 338.783682 -100.09257 
L 337.763339 -100.09257 
L 336.742996 -100.09257 
L 335.722654 -100.09257 
L 334.702311 -100.09257 
L 333.681968 -100.09257 
L 332.661625 -100.09257 
L 331.641282 -100.09257 
L 330.620939 -100.09257 
L 329.600596 -100.09257 
L 328.580254 -100.09257 
L 327.559911 -100.09257 
L 326.539568 -100.09257 
L 325.519225 -100.09257 
L 324.498882 -100.09257 
L 323.478539 -100.09257 
L 322.458196 -100.09257 
L 321.437854 -100.09257 
L 320.417511 -100.09257 
L 319.397168 -100.09257 
L 318.376825 -100.09257 
L 317.356482 -100.09257 
L 316.336139 -100.09257 
L 315.315796 -100.09257 
L 314.295454 -100.09257 
L 313.275111 -100.09257 
L 312.254768 -100.09257 
L 311.234425 -100.09257 
L 310.214082 -100.09257 
L 309.193739 -100.09257 
L 308.173396 -100.09257 
L 307.153054 -100.09257 
L 306.132711 -100.09257 
L 305.112368 -100.09257 
L 304.092025 -100.09257 
L 303.071682 -100.09257 
L 302.051339 -100.09257 
L 301.030996 -100.09257 
L 300.010654 -100.09257 
L 298.990311 -100.09257 
L 297.969968 -100.09257 
L 296.949625 -100.09257 
L 295.929282 -100.09257 
L 294.908939 -100.09257 
L 293.888596 -100.09257 
L 292.868254 -100.09257 
L 291.847911 -100.09257 
L 290.827568 -100.09257 
L 289.807225 -100.09257 
L 288.786882 -100.09257 
L 287.766539 -100.09257 
L 286.746196 -100.09257 
L 285.725854 -100.09257 
L 284.705511 -100.09257 
L 283.685168 -100.09257 
L 282.664825 -100.09257 
L 281.644482 -100.09257 
L 280.624139 -100.09257 
L 279.603796 -100.09257 
L 278.583454 -100.09257 
L 277.563111 -100.09257 
L 276.542768 -100.09257 
L 275.522425 -100.09257 
L 274.502082 -100.09257 
L 273.481739 -100.09257 
L 272.461396 -100.09257 
L 271.441054 -100.09257 
L 270.420711 -100.09257 
L 269.400368 -100.09257 
L 268.380025 -100.09257 
L 267.359682 -100.09257 
L 266.339339 -100.09257 
L 265.318996 -100.09257 
L 264.298654 -100.09257 
L 263.278311 -100.09257 
L 262.257968 -100.09257 
L 261.237625 -100.09257 
L 260.217282 -100.09257 
L 259.196939 -100.09257 
L 258.176596 -100.09257 
L 257.156254 -100.09257 
L 256.135911 -100.09257 
L 255.115568 -100.09257 
L 254.095225 -100.09257 
L 253.074882 -100.09257 
L 252.054539 -100.09257 
L 251.034196 -100.09257 
L 250.013854 -100.09257 
L 248.993511 -100.09257 
L 247.973168 -100.09257 
L 246.952825 -100.09257 
L 245.932482 -100.09257 
L 244.912139 -100.09257 
L 243.891796 -100.09257 
L 242.871454 -100.09257 
L 241.851111 -100.09257 
L 240.830768 -100.09257 
L 239.810425 -100.09257 
L 238.790082 -100.09257 
L 237.769739 -100.09257 
L 236.749396 -100.09257 
L 235.729054 -100.09257 
L 234.708711 -100.09257 
L 233.688368 -98.76201 
L 232.668025 -98.76201 
L 231.647682 -98.76201 
L 230.627339 -98.76201 
L 229.606996 -98.76201 
L 228.586654 -98.76201 
L 227.566311 -98.76201 
L 226.545968 -98.76201 
L 225.525625 -98.76201 
L 224.505282 -98.76201 
L 223.484939 -98.76201 
L 222.464596 -98.76201 
L 221.444254 -98.76201 
L 220.423911 -98.76201 
L 219.403568 -98.76201 
L 218.383225 -98.76201 
L 217.362882 -98.76201 
L 216.342539 -98.76201 
L 215.322196 -98.76201 
L 214.301854 -98.76201 
L 213.281511 -98.76201 
L 212.261168 -98.76201 
L 211.240825 -98.76201 
L 210.220482 -98.76201 
L 209.200139 -98.76201 
L 208.179796 -98.76201 
L 207.159454 -98.76201 
L 206.139111 -98.76201 
L 205.118768 -98.76201 
L 204.098425 -98.76201 
L 203.078082 -98.76201 
L 202.057739 -98.76201 
L 201.037396 -98.76201 
L 200.017054 -97.43145 
L 198.996711 -97.43145 
L 197.976368 -97.43145 
L 196.956025 -97.43145 
L 195.935682 -97.43145 
L 194.915339 -97.43145 
L 193.894996 -97.43145 
L 192.874654 -97.43145 
L 191.854311 -97.43145 
L 190.833968 -97.43145 
L 189.813625 -97.43145 
L 188.793282 -97.43145 
L 187.772939 -96.10089 
L 186.752596 -96.10089 
L 185.732254 -96.10089 
L 184.711911 -96.10089 
L 183.691568 -96.10089 
L 182.671225 -96.10089 
L 181.650882 -96.10089 
L 180.630539 -94.77033 
L 179.610196 -94.77033 
L 178.589854 -94.77033 
L 177.569511 -94.77033 
L 176.549168 -94.77033 
L 175.528825 -94.77033 
L 174.508482 -94.77033 
L 173.488139 -94.77033 
L 172.467796 -93.43977 
L 171.447454 -93.43977 
L 170.427111 -92.10921 
L 169.406768 -90.77865 
L 168.386425 -90.77865 
L 167.366082 -89.44809 
L 166.345739 -86.78697 
L 165.325396 -86.78697 
L 164.305054 -86.78697 
L 163.284711 -85.45641 
L 162.264368 -85.45641 
L 161.244025 -84.12585 
L 160.223682 -84.12585 
L 159.203339 -84.12585 
L 158.182996 -84.12585 
L 157.162654 -84.12585 
L 156.142311 -82.79529 
L 155.121968 -82.79529 
L 154.101625 -82.79529 
L 153.081282 -81.46473 
L 152.060939 -80.13417 
L 151.040596 -80.13417 
L 150.020254 -80.13417 
L 148.999911 -78.80361 
L 147.979568 -74.81193 
L 146.959225 -73.48137 
L 145.938882 -72.15081 
L 144.918539 -72.15081 
L 143.898196 -72.15081 
L 142.877854 -69.48969 
L 141.857511 -68.15913 
L 140.837168 -68.15913 
L 139.816825 -68.15913 
L 138.796482 -66.82857 
L 137.776139 -66.82857 
L 136.755796 -66.82857 
L 135.735454 -66.82857 
L 134.715111 -66.82857 
L 133.694768 -65.49801 
L 132.674425 -64.16745 
L 131.654082 -62.83689 
L 130.633739 -61.50633 
L 129.613396 -60.17577 
L 128.593054 -60.17577 
L 127.572711 -60.17577 
L 126.552368 -60.17577 
L 125.532025 -60.17577 
L 124.511682 -60.17577 
L 123.491339 -60.17577 
L 122.470996 -58.84521 
L 121.450654 -58.84521 
L 120.430311 -58.84521 
L 119.409968 -58.84521 
L 118.389625 -57.51465 
L 117.369282 -57.51465 
L 116.348939 -56.18409 
L 115.328596 -56.18409 
L 114.308254 -54.85353 
L 113.287911 -53.52297 
L 112.267568 -53.52297 
L 111.247225 -53.52297 
L 110.226882 -52.19241 
L 109.206539 -52.19241 
L 108.186196 -52.19241 
L 107.165854 -52.19241 
L 106.145511 -52.19241 
L 105.125168 -52.19241 
L 104.104825 -52.19241 
L 103.084482 -50.86185 
L 102.064139 -50.86185 
L 101.043796 -49.53129 
L 100.023454 -49.53129 
L 99.003111 -49.53129 
L 97.982768 -49.53129 
L 96.962425 -49.53129 
L 95.942082 -49.53129 
L 94.921739 -49.53129 
L 93.901396 -49.53129 
L 92.881054 -49.53129 
L 91.860711 -48.20073 
L 90.840368 -48.20073 
L 89.820025 -48.20073 
L 88.799682 -48.20073 
L 87.779339 -48.20073 
L 86.758996 -46.87017 
L 85.738654 -46.87017 
L 84.718311 -46.87017 
L 83.697968 -45.53961 
L 82.677625 -45.53961 
L 81.657282 -45.53961 
L 80.636939 -44.20905 
L 79.616596 -42.87849 
L 78.596254 -42.87849 
L 77.575911 -42.87849 
L 76.555568 -42.87849 
L 75.535225 -41.54793 
L 74.514882 -40.21737 
L 73.494539 -40.21737 
L 72.474196 -40.21737 
L 71.453854 -40.21737 
L 70.433511 -40.21737 
L 69.413168 -40.21737 
L 68.392825 -40.21737 
L 67.372482 -40.21737 
L 66.352139 -40.21737 
L 65.331796 -40.21737 
L 64.311454 -40.21737 
L 63.291111 -40.21737 
L 62.270768 -40.21737 
L 61.250425 -40.21737 
L 60.230082 -40.21737 
L 59.209739 -40.21737 
L 58.189396 -40.21737 
L 57.169054 -40.21737 
L 56.148711 -40.21737 
L 55.128368 -38.88681 
L 54.108025 -37.55625 
L 53.087682 -37.55625 
L 52.067339 -37.55625 
L 51.046996 -37.55625 
L 50.026654 -37.55625 
L 49.006311 -37.55625 
L 47.985968 -37.55625 
L 46.965625 -37.55625 
z
" id="mbdb6fc5ef2" style="stroke:#adff2f;"/>
    </defs>
    <g clip-path="url(#p573dbd3a47)">
     <use style="fill:#adff2f;stroke:#adff2f;" x="0" xlink:href="#mbdb6fc5ef2" y="339.42375"/>
    </g>
   </g>
   <g id="matplotlib.axis_1">
    <g id="xtick_1">
     <g id="line2d_1">
      <path clip-path="url(#p573dbd3a47)" d="M 46.965625 301.8675 
L 46.965625 35.7555 
" style="fill:none;stroke:#b0b0b0;stroke-linecap:square;stroke-width:0.8;"/>
     </g>
     <g id="line2d_2">
      <defs>
       <path d="M 0 0 
L 0 3.5 
" id="m8ea8a02c4a" style="stroke:#000000;stroke-width:0.8;"/>
      </defs>
      <g>
       <use style="stroke:#000000;stroke-width:0.8;" x="46.965625" xlink:href="#m8ea8a02c4a" y="301.8675"/>
      </g>
     </g>
     <g id="text_1">
      <!-- 0 -->
      <defs>
       <path d="M 31.78125 66.40625 
Q 24.171875 66.40625 20.328125 58.90625 
Q 16.5 51.421875 16.5 36.375 
Q 16.5 21.390625 20.328125 13.890625 
Q 24.171875 6.390625 31.78125 6.390625 
Q 39.453125 6.390625 43.28125 13.890625 
Q 47.125 21.390625 47.125 36.375 
Q 47.125 51.421875 43.28125 58.90625 
Q 39.453125 66.40625 31.78125 66.40625 
z
M 31.78125 74.21875 
Q 44.046875 74.21875 50.515625 64.515625 
Q 56.984375 54.828125 56.984375 36.375 
Q 56.984375 17.96875 50.515625 8.265625 
Q 44.046875 -1.421875 31.78125 -1.421875 
Q 19.53125 -1.421875 13.0625 8.265625 
Q 6.59375 17.96875 6.59375 36.375 
Q 6.59375 54.828125 13.0625 64.515625 
Q 19.53125 74.21875 31.78125 74.21875 
z
" id="DejaVuSans-30"/>
      </defs>
      <g transform="translate(43.784375 316.465937)scale(0.1 -0.1)">
       <use xlink:href="#DejaVuSans-30"/>
      </g>
     </g>
    </g>
    <g id="xtick_2">
     <g id="line2d_3">
      <path clip-path="url(#p573dbd3a47)" d="M 97.982768 301.8675 
L 97.982768 35.7555 
" style="fill:none;stroke:#b0b0b0;stroke-linecap:square;stroke-width:0.8;"/>
     </g>
     <g id="line2d_4">
      <g>
       <use style="stroke:#000000;stroke-width:0.8;" x="97.982768" xlink:href="#m8ea8a02c4a" y="301.8675"/>
      </g>
     </g>
     <g id="text_2">
      <!-- 50 -->
      <defs>
       <path d="M 10.796875 72.90625 
L 49.515625 72.90625 
L 49.515625 64.59375 
L 19.828125 64.59375 
L 19.828125 46.734375 
Q 21.96875 47.46875 24.109375 47.828125 
Q 26.265625 48.1875 28.421875 48.1875 
Q 40.625 48.1875 47.75 41.5 
Q 54.890625 34.8125 54.890625 23.390625 
Q 54.890625 11.625 47.5625 5.09375 
Q 40.234375 -1.421875 26.90625 -1.421875 
Q 22.3125 -1.421875 17.546875 -0.640625 
Q 12.796875 0.140625 7.71875 1.703125 
L 7.71875 11.625 
Q 12.109375 9.234375 16.796875 8.0625 
Q 21.484375 6.890625 26.703125 6.890625 
Q 35.15625 6.890625 40.078125 11.328125 
Q 45.015625 15.765625 45.015625 23.390625 
Q 45.015625 31 40.078125 35.4375 
Q 35.15625 39.890625 26.703125 39.890625 
Q 22.75 39.890625 18.8125 39.015625 
Q 14.890625 38.140625 10.796875 36.28125 
z
" id="DejaVuSans-35"/>
      </defs>
      <g transform="translate(91.620268 316.465937)scale(0.1 -0.1)">
       <use xlink:href="#DejaVuSans-35"/>
       <use x="63.623047" xlink:href="#DejaVuSans-30"/>
      </g>
     </g>
    </g>
    <g id="xtick_3">
     <g id="line2d_5">
      <path clip-path="url(#p573dbd3a47)" d="M 148.999911 301.8675 
L 148.999911 35.7555 
" style="fill:none;stroke:#b0b0b0;stroke-linecap:square;stroke-width:0.8;"/>
     </g>
     <g id="line2d_6">
      <g>
       <use style="stroke:#000000;stroke-width:0.8;" x="148.999911" xlink:href="#m8ea8a02c4a" y="301.8675"/>
      </g>
     </g>
     <g id="text_3">
      <!-- 100 -->
      <defs>
       <path d="M 12.40625 8.296875 
L 28.515625 8.296875 
L 28.515625 63.921875 
L 10.984375 60.40625 
L 10.984375 69.390625 
L 28.421875 72.90625 
L 38.28125 72.90625 
L 38.28125 8.296875 
L 54.390625 8.296875 
L 54.390625 0 
L 12.40625 0 
z
" id="DejaVuSans-31"/>
      </defs>
      <g transform="translate(139.456161 316.465937)scale(0.1 -0.1)">
       <use xlink:href="#DejaVuSans-31"/>
       <use x="63.623047" xlink:href="#DejaVuSans-30"/>
       <use x="127.246094" xlink:href="#DejaVuSans-30"/>
      </g>
     </g>
    </g>
    <g id="xtick_4">
     <g id="line2d_7">
      <path clip-path="url(#p573dbd3a47)" d="M 200.017054 301.8675 
L 200.017054 35.7555 
" style="fill:none;stroke:#b0b0b0;stroke-linecap:square;stroke-width:0.8;"/>
     </g>
     <g id="line2d_8">
      <g>
       <use style="stroke:#000000;stroke-width:0.8;" x="200.017054" xlink:href="#m8ea8a02c4a" y="301.8675"/>
      </g>
     </g>
     <g id="text_4">
      <!-- 150 -->
      <g transform="translate(190.473304 316.465937)scale(0.1 -0.1)">
       <use xlink:href="#DejaVuSans-31"/>
       <use x="63.623047" xlink:href="#DejaVuSans-35"/>
       <use x="127.246094" xlink:href="#DejaVuSans-30"/>
      </g>
     </g>
    </g>
    <g id="xtick_5">
     <g id="line2d_9">
      <path clip-path="url(#p573dbd3a47)" d="M 251.034196 301.8675 
L 251.034196 35.7555 
" style="fill:none;stroke:#b0b0b0;stroke-linecap:square;stroke-width:0.8;"/>
     </g>
     <g id="line2d_10">
      <g>
       <use style="stroke:#000000;stroke-width:0.8;" x="251.034196" xlink:href="#m8ea8a02c4a" y="301.8675"/>
      </g>
     </g>
     <g id="text_5">
      <!-- 200 -->
      <defs>
       <path d="M 19.1875 8.296875 
L 53.609375 8.296875 
L 53.609375 0 
L 7.328125 0 
L 7.328125 8.296875 
Q 12.9375 14.109375 22.625 23.890625 
Q 32.328125 33.6875 34.8125 36.53125 
Q 39.546875 41.84375 41.421875 45.53125 
Q 43.3125 49.21875 43.3125 52.78125 
Q 43.3125 58.59375 39.234375 62.25 
Q 35.15625 65.921875 28.609375 65.921875 
Q 23.96875 65.921875 18.8125 64.3125 
Q 13.671875 62.703125 7.8125 59.421875 
L 7.8125 69.390625 
Q 13.765625 71.78125 18.9375 73 
Q 24.125 74.21875 28.421875 74.21875 
Q 39.75 74.21875 46.484375 68.546875 
Q 53.21875 62.890625 53.21875 53.421875 
Q 53.21875 48.921875 51.53125 44.890625 
Q 49.859375 40.875 45.40625 35.40625 
Q 44.1875 33.984375 37.640625 27.21875 
Q 31.109375 20.453125 19.1875 8.296875 
z
" id="DejaVuSans-32"/>
      </defs>
      <g transform="translate(241.490446 316.465937)scale(0.1 -0.1)">
       <use xlink:href="#DejaVuSans-32"/>
       <use x="63.623047" xlink:href="#DejaVuSans-30"/>
       <use x="127.246094" xlink:href="#DejaVuSans-30"/>
      </g>
     </g>
    </g>
    <g id="xtick_6">
     <g id="line2d_11">
      <path clip-path="url(#p573dbd3a47)" d="M 302.051339 301.8675 
L 302.051339 35.7555 
" style="fill:none;stroke:#b0b0b0;stroke-linecap:square;stroke-width:0.8;"/>
     </g>
     <g id="line2d_12">
      <g>
       <use style="stroke:#000000;stroke-width:0.8;" x="302.051339" xlink:href="#m8ea8a02c4a" y="301.8675"/>
      </g>
     </g>
     <g id="text_6">
      <!-- 250 -->
      <g transform="translate(292.507589 316.465937)scale(0.1 -0.1)">
       <use xlink:href="#DejaVuSans-32"/>
       <use x="63.623047" xlink:href="#DejaVuSans-35"/>
       <use x="127.246094" xlink:href="#DejaVuSans-30"/>
      </g>
     </g>
    </g>
    <g id="xtick_7">
     <g id="line2d_13">
      <path clip-path="url(#p573dbd3a47)" d="M 353.068482 301.8675 
L 353.068482 35.7555 
" style="fill:none;stroke:#b0b0b0;stroke-linecap:square;stroke-width:0.8;"/>
     </g>
     <g id="line2d_14">
      <g>
       <use style="stroke:#000000;stroke-width:0.8;" x="353.068482" xlink:href="#m8ea8a02c4a" y="301.8675"/>
      </g>
     </g>
     <g id="text_7">
      <!-- 300 -->
      <defs>
       <path d="M 40.578125 39.3125 
Q 47.65625 37.796875 51.625 33 
Q 55.609375 28.21875 55.609375 21.1875 
Q 55.609375 10.40625 48.1875 4.484375 
Q 40.765625 -1.421875 27.09375 -1.421875 
Q 22.515625 -1.421875 17.65625 -0.515625 
Q 12.796875 0.390625 7.625 2.203125 
L 7.625 11.71875 
Q 11.71875 9.328125 16.59375 8.109375 
Q 21.484375 6.890625 26.8125 6.890625 
Q 36.078125 6.890625 40.9375 10.546875 
Q 45.796875 14.203125 45.796875 21.1875 
Q 45.796875 27.640625 41.28125 31.265625 
Q 36.765625 34.90625 28.71875 34.90625 
L 20.21875 34.90625 
L 20.21875 43.015625 
L 29.109375 43.015625 
Q 36.375 43.015625 40.234375 45.921875 
Q 44.09375 48.828125 44.09375 54.296875 
Q 44.09375 59.90625 40.109375 62.90625 
Q 36.140625 65.921875 28.71875 65.921875 
Q 24.65625 65.921875 20.015625 65.03125 
Q 15.375 64.15625 9.8125 62.3125 
L 9.8125 71.09375 
Q 15.4375 72.65625 20.34375 73.4375 
Q 25.25 74.21875 29.59375 74.21875 
Q 40.828125 74.21875 47.359375 69.109375 
Q 53.90625 64.015625 53.90625 55.328125 
Q 53.90625 49.265625 50.4375 45.09375 
Q 46.96875 40.921875 40.578125 39.3125 
z
" id="DejaVuSans-33"/>
      </defs>
      <g transform="translate(343.524732 316.465937)scale(0.1 -0.1)">
       <use xlink:href="#DejaVuSans-33"/>
       <use x="63.623047" xlink:href="#DejaVuSans-30"/>
       <use x="127.246094" xlink:href="#DejaVuSans-30"/>
      </g>
     </g>
    </g>
    <g id="xtick_8">
     <g id="line2d_15">
      <path clip-path="url(#p573dbd3a47)" d="M 404.085625 301.8675 
L 404.085625 35.7555 
" style="fill:none;stroke:#b0b0b0;stroke-linecap:square;stroke-width:0.8;"/>
     </g>
     <g id="line2d_16">
      <g>
       <use style="stroke:#000000;stroke-width:0.8;" x="404.085625" xlink:href="#m8ea8a02c4a" y="301.8675"/>
      </g>
     </g>
     <g id="text_8">
      <!-- 350 -->
      <g transform="translate(394.541875 316.465937)scale(0.1 -0.1)">
       <use xlink:href="#DejaVuSans-33"/>
       <use x="63.623047" xlink:href="#DejaVuSans-35"/>
       <use x="127.246094" xlink:href="#DejaVuSans-30"/>
      </g>
     </g>
    </g>
    <g id="text_9">
     <!-- Time (s) -->
     <defs>
      <path d="M -0.296875 72.90625 
L 61.375 72.90625 
L 61.375 64.59375 
L 35.5 64.59375 
L 35.5 0 
L 25.59375 0 
L 25.59375 64.59375 
L -0.296875 64.59375 
z
" id="DejaVuSans-54"/>
      <path d="M 9.421875 54.6875 
L 18.40625 54.6875 
L 18.40625 0 
L 9.421875 0 
z
M 9.421875 75.984375 
L 18.40625 75.984375 
L 18.40625 64.59375 
L 9.421875 64.59375 
z
" id="DejaVuSans-69"/>
      <path d="M 52 44.1875 
Q 55.375 50.25 60.0625 53.125 
Q 64.75 56 71.09375 56 
Q 79.640625 56 84.28125 50.015625 
Q 88.921875 44.046875 88.921875 33.015625 
L 88.921875 0 
L 79.890625 0 
L 79.890625 32.71875 
Q 79.890625 40.578125 77.09375 44.375 
Q 74.3125 48.1875 68.609375 48.1875 
Q 61.625 48.1875 57.5625 43.546875 
Q 53.515625 38.921875 53.515625 30.90625 
L 53.515625 0 
L 44.484375 0 
L 44.484375 32.71875 
Q 44.484375 40.625 41.703125 44.40625 
Q 38.921875 48.1875 33.109375 48.1875 
Q 26.21875 48.1875 22.15625 43.53125 
Q 18.109375 38.875 18.109375 30.90625 
L 18.109375 0 
L 9.078125 0 
L 9.078125 54.6875 
L 18.109375 54.6875 
L 18.109375 46.1875 
Q 21.1875 51.21875 25.484375 53.609375 
Q 29.78125 56 35.6875 56 
Q 41.65625 56 45.828125 52.96875 
Q 50 49.953125 52 44.1875 
z
" id="DejaVuSans-6d"/>
      <path d="M 56.203125 29.59375 
L 56.203125 25.203125 
L 14.890625 25.203125 
Q 15.484375 15.921875 20.484375 11.0625 
Q 25.484375 6.203125 34.421875 6.203125 
Q 39.59375 6.203125 44.453125 7.46875 
Q 49.3125 8.734375 54.109375 11.28125 
L 54.109375 2.78125 
Q 49.265625 0.734375 44.1875 -0.34375 
Q 39.109375 -1.421875 33.890625 -1.421875 
Q 20.796875 -1.421875 13.15625 6.1875 
Q 5.515625 13.8125 5.515625 26.8125 
Q 5.515625 40.234375 12.765625 48.109375 
Q 20.015625 56 32.328125 56 
Q 43.359375 56 49.78125 48.890625 
Q 56.203125 41.796875 56.203125 29.59375 
z
M 47.21875 32.234375 
Q 47.125 39.59375 43.09375 43.984375 
Q 39.0625 48.390625 32.421875 48.390625 
Q 24.90625 48.390625 20.390625 44.140625 
Q 15.875 39.890625 15.1875 32.171875 
z
" id="DejaVuSans-65"/>
      <path id="DejaVuSans-20"/>
      <path d="M 31 75.875 
Q 24.46875 64.65625 21.28125 53.65625 
Q 18.109375 42.671875 18.109375 31.390625 
Q 18.109375 20.125 21.3125 9.0625 
Q 24.515625 -2 31 -13.1875 
L 23.1875 -13.1875 
Q 15.875 -1.703125 12.234375 9.375 
Q 8.59375 20.453125 8.59375 31.390625 
Q 8.59375 42.28125 12.203125 53.3125 
Q 15.828125 64.359375 23.1875 75.875 
z
" id="DejaVuSans-28"/>
      <path d="M 44.28125 53.078125 
L 44.28125 44.578125 
Q 40.484375 46.53125 36.375 47.5 
Q 32.28125 48.484375 27.875 48.484375 
Q 21.1875 48.484375 17.84375 46.4375 
Q 14.5 44.390625 14.5 40.28125 
Q 14.5 37.15625 16.890625 35.375 
Q 19.28125 33.59375 26.515625 31.984375 
L 29.59375 31.296875 
Q 39.15625 29.25 43.1875 25.515625 
Q 47.21875 21.78125 47.21875 15.09375 
Q 47.21875 7.46875 41.1875 3.015625 
Q 35.15625 -1.421875 24.609375 -1.421875 
Q 20.21875 -1.421875 15.453125 -0.5625 
Q 10.6875 0.296875 5.421875 2 
L 5.421875 11.28125 
Q 10.40625 8.6875 15.234375 7.390625 
Q 20.0625 6.109375 24.8125 6.109375 
Q 31.15625 6.109375 34.5625 8.28125 
Q 37.984375 10.453125 37.984375 14.40625 
Q 37.984375 18.0625 35.515625 20.015625 
Q 33.0625 21.96875 24.703125 23.78125 
L 21.578125 24.515625 
Q 13.234375 26.265625 9.515625 29.90625 
Q 5.8125 33.546875 5.8125 39.890625 
Q 5.8125 47.609375 11.28125 51.796875 
Q 16.75 56 26.8125 56 
Q 31.78125 56 36.171875 55.265625 
Q 40.578125 54.546875 44.28125 53.078125 
z
" id="DejaVuSans-73"/>
      <path d="M 8.015625 75.875 
L 15.828125 75.875 
Q 23.140625 64.359375 26.78125 53.3125 
Q 30.421875 42.28125 30.421875 31.390625 
Q 30.421875 20.453125 26.78125 9.375 
Q 23.140625 -1.703125 15.828125 -13.1875 
L 8.015625 -13.1875 
Q 14.5 -2 17.703125 9.0625 
Q 20.90625 20.125 20.90625 31.390625 
Q 20.90625 42.671875 17.703125 53.65625 
Q 14.5 64.65625 8.015625 75.875 
z
" id="DejaVuSans-29"/>
     </defs>
     <g transform="translate(205.042813 330.144062)scale(0.1 -0.1)">
      <use xlink:href="#DejaVuSans-54"/>
      <use x="61.037109" xlink:href="#DejaVuSans-69"/>
      <use x="88.820312" xlink:href="#DejaVuSans-6d"/>
      <use x="186.232422" xlink:href="#DejaVuSans-65"/>
      <use x="247.755859" xlink:href="#DejaVuSans-20"/>
      <use x="279.542969" xlink:href="#DejaVuSans-28"/>
      <use x="318.556641" xlink:href="#DejaVuSans-73"/>
      <use x="370.65625" xlink:href="#DejaVuSans-29"/>
     </g>
    </g>
   </g>
   <g id="matplotlib.axis_2">
    <g id="ytick_1">
     <g id="line2d_17">
      <path clip-path="url(#p573dbd3a47)" d="M 46.965625 301.8675 
L 404.085625 301.8675 
" style="fill:none;stroke:#b0b0b0;stroke-linecap:square;stroke-width:0.8;"/>
     </g>
     <g id="line2d_18">
      <defs>
       <path d="M 0 0 
L -3.5 0 
" id="m7fb8810830" style="stroke:#000000;stroke-width:0.8;"/>
      </defs>
      <g>
       <use style="stroke:#000000;stroke-width:0.8;" x="46.965625" xlink:href="#m7fb8810830" y="301.8675"/>
      </g>
     </g>
     <g id="text_10">
      <!-- 0 -->
      <g transform="translate(33.603125 305.666719)scale(0.1 -0.1)">
       <use xlink:href="#DejaVuSans-30"/>
      </g>
     </g>
    </g>
    <g id="ytick_2">
     <g id="line2d_19">
      <path clip-path="url(#p573dbd3a47)" d="M 46.965625 268.6035 
L 404.085625 268.6035 
" style="fill:none;stroke:#b0b0b0;stroke-linecap:square;stroke-width:0.8;"/>
     </g>
     <g id="line2d_20">
      <g>
       <use style="stroke:#000000;stroke-width:0.8;" x="46.965625" xlink:href="#m7fb8810830" y="268.6035"/>
      </g>
     </g>
     <g id="text_11">
      <!-- 25 -->
      <g transform="translate(27.240625 272.402719)scale(0.1 -0.1)">
       <use xlink:href="#DejaVuSans-32"/>
       <use x="63.623047" xlink:href="#DejaVuSans-35"/>
      </g>
     </g>
    </g>
    <g id="ytick_3">
     <g id="line2d_21">
      <path clip-path="url(#p573dbd3a47)" d="M 46.965625 235.3395 
L 404.085625 235.3395 
" style="fill:none;stroke:#b0b0b0;stroke-linecap:square;stroke-width:0.8;"/>
     </g>
     <g id="line2d_22">
      <g>
       <use style="stroke:#000000;stroke-width:0.8;" x="46.965625" xlink:href="#m7fb8810830" y="235.3395"/>
      </g>
     </g>
     <g id="text_12">
      <!-- 50 -->
      <g transform="translate(27.240625 239.138719)scale(0.1 -0.1)">
       <use xlink:href="#DejaVuSans-35"/>
       <use x="63.623047" xlink:href="#DejaVuSans-30"/>
      </g>
     </g>
    </g>
    <g id="ytick_4">
     <g id="line2d_23">
      <path clip-path="url(#p573dbd3a47)" d="M 46.965625 202.0755 
L 404.085625 202.0755 
" style="fill:none;stroke:#b0b0b0;stroke-linecap:square;stroke-width:0.8;"/>
     </g>
     <g id="line2d_24">
      <g>
       <use style="stroke:#000000;stroke-width:0.8;" x="46.965625" xlink:href="#m7fb8810830" y="202.0755"/>
      </g>
     </g>
     <g id="text_13">
      <!-- 75 -->
      <defs>
       <path d="M 8.203125 72.90625 
L 55.078125 72.90625 
L 55.078125 68.703125 
L 28.609375 0 
L 18.3125 0 
L 43.21875 64.59375 
L 8.203125 64.59375 
z
" id="DejaVuSans-37"/>
      </defs>
      <g transform="translate(27.240625 205.874719)scale(0.1 -0.1)">
       <use xlink:href="#DejaVuSans-37"/>
       <use x="63.623047" xlink:href="#DejaVuSans-35"/>
      </g>
     </g>
    </g>
    <g id="ytick_5">
     <g id="line2d_25">
      <path clip-path="url(#p573dbd3a47)" d="M 46.965625 168.8115 
L 404.085625 168.8115 
" style="fill:none;stroke:#b0b0b0;stroke-linecap:square;stroke-width:0.8;"/>
     </g>
     <g id="line2d_26">
      <g>
       <use style="stroke:#000000;stroke-width:0.8;" x="46.965625" xlink:href="#m7fb8810830" y="168.8115"/>
      </g>
     </g>
     <g id="text_14">
      <!-- 100 -->
      <g transform="translate(20.878125 172.610719)scale(0.1 -0.1)">
       <use xlink:href="#DejaVuSans-31"/>
       <use x="63.623047" xlink:href="#DejaVuSans-30"/>
       <use x="127.246094" xlink:href="#DejaVuSans-30"/>
      </g>
     </g>
    </g>
    <g id="ytick_6">
     <g id="line2d_27">
      <path clip-path="url(#p573dbd3a47)" d="M 46.965625 135.5475 
L 404.085625 135.5475 
" style="fill:none;stroke:#b0b0b0;stroke-linecap:square;stroke-width:0.8;"/>
     </g>
     <g id="line2d_28">
      <g>
       <use style="stroke:#000000;stroke-width:0.8;" x="46.965625" xlink:href="#m7fb8810830" y="135.5475"/>
      </g>
     </g>
     <g id="text_15">
      <!-- 125 -->
      <g transform="translate(20.878125 139.346719)scale(0.1 -0.1)">
       <use xlink:href="#DejaVuSans-31"/>
       <use x="63.623047" xlink:href="#DejaVuSans-32"/>
       <use x="127.246094" xlink:href="#DejaVuSans-35"/>
      </g>
     </g>
    </g>
    <g id="ytick_7">
     <g id="line2d_29">
      <path clip-path="url(#p573dbd3a47)" d="M 46.965625 102.2835 
L 404.085625 102.2835 
" style="fill:none;stroke:#b0b0b0;stroke-linecap:square;stroke-width:0.8;"/>
     </g>
     <g id="line2d_30">
      <g>
       <use style="stroke:#000000;stroke-width:0.8;" x="46.965625" xlink:href="#m7fb8810830" y="102.2835"/>
      </g>
     </g>
     <g id="text_16">
      <!-- 150 -->
      <g transform="translate(20.878125 106.082719)scale(0.1 -0.1)">
       <use xlink:href="#DejaVuSans-31"/>
       <use x="63.623047" xlink:href="#DejaVuSans-35"/>
       <use x="127.246094" xlink:href="#DejaVuSans-30"/>
      </g>
     </g>
    </g>
    <g id="ytick_8">
     <g id="line2d_31">
      <path clip-path="url(#p573dbd3a47)" d="M 46.965625 69.0195 
L 404.085625 69.0195 
" style="fill:none;stroke:#b0b0b0;stroke-linecap:square;stroke-width:0.8;"/>
     </g>
     <g id="line2d_32">
      <g>
       <use style="stroke:#000000;stroke-width:0.8;" x="46.965625" xlink:href="#m7fb8810830" y="69.0195"/>
      </g>
     </g>
     <g id="text_17">
      <!-- 175 -->
      <g transform="translate(20.878125 72.818719)scale(0.1 -0.1)">
       <use xlink:href="#DejaVuSans-31"/>
       <use x="63.623047" xlink:href="#DejaVuSans-37"/>
       <use x="127.246094" xlink:href="#DejaVuSans-35"/>
      </g>
     </g>
    </g>
    <g id="ytick_9">
     <g id="line2d_33">
      <path clip-path="url(#p573dbd3a47)" d="M 46.965625 35.7555 
L 404.085625 35.7555 
" style="fill:none;stroke:#b0b0b0;stroke-linecap:square;stroke-width:0.8;"/>
     </g>
     <g id="line2d_34">
      <g>
       <use style="stroke:#000000;stroke-width:0.8;" x="46.965625" xlink:href="#m7fb8810830" y="35.7555"/>
      </g>
     </g>
     <g id="text_18">
      <!-- 200 -->
      <g transform="translate(20.878125 39.554719)scale(0.1 -0.1)">
       <use xlink:href="#DejaVuSans-32"/>
       <use x="63.623047" xlink:href="#DejaVuSans-30"/>
       <use x="127.246094" xlink:href="#DejaVuSans-30"/>
      </g>
     </g>
    </g>
    <g id="text_19">
     <!-- Number of nodes (accumulated) -->
     <defs>
      <path d="M 9.8125 72.90625 
L 23.09375 72.90625 
L 55.421875 11.921875 
L 55.421875 72.90625 
L 64.984375 72.90625 
L 64.984375 0 
L 51.703125 0 
L 19.390625 60.984375 
L 19.390625 0 
L 9.8125 0 
z
" id="DejaVuSans-4e"/>
      <path d="M 8.5 21.578125 
L 8.5 54.6875 
L 17.484375 54.6875 
L 17.484375 21.921875 
Q 17.484375 14.15625 20.5 10.265625 
Q 23.53125 6.390625 29.59375 6.390625 
Q 36.859375 6.390625 41.078125 11.03125 
Q 45.3125 15.671875 45.3125 23.6875 
L 45.3125 54.6875 
L 54.296875 54.6875 
L 54.296875 0 
L 45.3125 0 
L 45.3125 8.40625 
Q 42.046875 3.421875 37.71875 1 
Q 33.40625 -1.421875 27.6875 -1.421875 
Q 18.265625 -1.421875 13.375 4.4375 
Q 8.5 10.296875 8.5 21.578125 
z
M 31.109375 56 
z
" id="DejaVuSans-75"/>
      <path d="M 48.6875 27.296875 
Q 48.6875 37.203125 44.609375 42.84375 
Q 40.53125 48.484375 33.40625 48.484375 
Q 26.265625 48.484375 22.1875 42.84375 
Q 18.109375 37.203125 18.109375 27.296875 
Q 18.109375 17.390625 22.1875 11.75 
Q 26.265625 6.109375 33.40625 6.109375 
Q 40.53125 6.109375 44.609375 11.75 
Q 48.6875 17.390625 48.6875 27.296875 
z
M 18.109375 46.390625 
Q 20.953125 51.265625 25.265625 53.625 
Q 29.59375 56 35.59375 56 
Q 45.5625 56 51.78125 48.09375 
Q 58.015625 40.1875 58.015625 27.296875 
Q 58.015625 14.40625 51.78125 6.484375 
Q 45.5625 -1.421875 35.59375 -1.421875 
Q 29.59375 -1.421875 25.265625 0.953125 
Q 20.953125 3.328125 18.109375 8.203125 
L 18.109375 0 
L 9.078125 0 
L 9.078125 75.984375 
L 18.109375 75.984375 
z
" id="DejaVuSans-62"/>
      <path d="M 41.109375 46.296875 
Q 39.59375 47.171875 37.8125 47.578125 
Q 36.03125 48 33.890625 48 
Q 26.265625 48 22.1875 43.046875 
Q 18.109375 38.09375 18.109375 28.8125 
L 18.109375 0 
L 9.078125 0 
L 9.078125 54.6875 
L 18.109375 54.6875 
L 18.109375 46.1875 
Q 20.953125 51.171875 25.484375 53.578125 
Q 30.03125 56 36.53125 56 
Q 37.453125 56 38.578125 55.875 
Q 39.703125 55.765625 41.0625 55.515625 
z
" id="DejaVuSans-72"/>
      <path d="M 30.609375 48.390625 
Q 23.390625 48.390625 19.1875 42.75 
Q 14.984375 37.109375 14.984375 27.296875 
Q 14.984375 17.484375 19.15625 11.84375 
Q 23.34375 6.203125 30.609375 6.203125 
Q 37.796875 6.203125 41.984375 11.859375 
Q 46.1875 17.53125 46.1875 27.296875 
Q 46.1875 37.015625 41.984375 42.703125 
Q 37.796875 48.390625 30.609375 48.390625 
z
M 30.609375 56 
Q 42.328125 56 49.015625 48.375 
Q 55.71875 40.765625 55.71875 27.296875 
Q 55.71875 13.875 49.015625 6.21875 
Q 42.328125 -1.421875 30.609375 -1.421875 
Q 18.84375 -1.421875 12.171875 6.21875 
Q 5.515625 13.875 5.515625 27.296875 
Q 5.515625 40.765625 12.171875 48.375 
Q 18.84375 56 30.609375 56 
z
" id="DejaVuSans-6f"/>
      <path d="M 37.109375 75.984375 
L 37.109375 68.5 
L 28.515625 68.5 
Q 23.6875 68.5 21.796875 66.546875 
Q 19.921875 64.59375 19.921875 59.515625 
L 19.921875 54.6875 
L 34.71875 54.6875 
L 34.71875 47.703125 
L 19.921875 47.703125 
L 19.921875 0 
L 10.890625 0 
L 10.890625 47.703125 
L 2.296875 47.703125 
L 2.296875 54.6875 
L 10.890625 54.6875 
L 10.890625 58.5 
Q 10.890625 67.625 15.140625 71.796875 
Q 19.390625 75.984375 28.609375 75.984375 
z
" id="DejaVuSans-66"/>
      <path d="M 54.890625 33.015625 
L 54.890625 0 
L 45.90625 0 
L 45.90625 32.71875 
Q 45.90625 40.484375 42.875 44.328125 
Q 39.84375 48.1875 33.796875 48.1875 
Q 26.515625 48.1875 22.3125 43.546875 
Q 18.109375 38.921875 18.109375 30.90625 
L 18.109375 0 
L 9.078125 0 
L 9.078125 54.6875 
L 18.109375 54.6875 
L 18.109375 46.1875 
Q 21.34375 51.125 25.703125 53.5625 
Q 30.078125 56 35.796875 56 
Q 45.21875 56 50.046875 50.171875 
Q 54.890625 44.34375 54.890625 33.015625 
z
" id="DejaVuSans-6e"/>
      <path d="M 45.40625 46.390625 
L 45.40625 75.984375 
L 54.390625 75.984375 
L 54.390625 0 
L 45.40625 0 
L 45.40625 8.203125 
Q 42.578125 3.328125 38.25 0.953125 
Q 33.9375 -1.421875 27.875 -1.421875 
Q 17.96875 -1.421875 11.734375 6.484375 
Q 5.515625 14.40625 5.515625 27.296875 
Q 5.515625 40.1875 11.734375 48.09375 
Q 17.96875 56 27.875 56 
Q 33.9375 56 38.25 53.625 
Q 42.578125 51.265625 45.40625 46.390625 
z
M 14.796875 27.296875 
Q 14.796875 17.390625 18.875 11.75 
Q 22.953125 6.109375 30.078125 6.109375 
Q 37.203125 6.109375 41.296875 11.75 
Q 45.40625 17.390625 45.40625 27.296875 
Q 45.40625 37.203125 41.296875 42.84375 
Q 37.203125 48.484375 30.078125 48.484375 
Q 22.953125 48.484375 18.875 42.84375 
Q 14.796875 37.203125 14.796875 27.296875 
z
" id="DejaVuSans-64"/>
      <path d="M 34.28125 27.484375 
Q 23.390625 27.484375 19.1875 25 
Q 14.984375 22.515625 14.984375 16.5 
Q 14.984375 11.71875 18.140625 8.90625 
Q 21.296875 6.109375 26.703125 6.109375 
Q 34.1875 6.109375 38.703125 11.40625 
Q 43.21875 16.703125 43.21875 25.484375 
L 43.21875 27.484375 
z
M 52.203125 31.203125 
L 52.203125 0 
L 43.21875 0 
L 43.21875 8.296875 
Q 40.140625 3.328125 35.546875 0.953125 
Q 30.953125 -1.421875 24.3125 -1.421875 
Q 15.921875 -1.421875 10.953125 3.296875 
Q 6 8.015625 6 15.921875 
Q 6 25.140625 12.171875 29.828125 
Q 18.359375 34.515625 30.609375 34.515625 
L 43.21875 34.515625 
L 43.21875 35.40625 
Q 43.21875 41.609375 39.140625 45 
Q 35.0625 48.390625 27.6875 48.390625 
Q 23 48.390625 18.546875 47.265625 
Q 14.109375 46.140625 10.015625 43.890625 
L 10.015625 52.203125 
Q 14.9375 54.109375 19.578125 55.046875 
Q 24.21875 56 28.609375 56 
Q 40.484375 56 46.34375 49.84375 
Q 52.203125 43.703125 52.203125 31.203125 
z
" id="DejaVuSans-61"/>
      <path d="M 48.78125 52.59375 
L 48.78125 44.1875 
Q 44.96875 46.296875 41.140625 47.34375 
Q 37.3125 48.390625 33.40625 48.390625 
Q 24.65625 48.390625 19.8125 42.84375 
Q 14.984375 37.3125 14.984375 27.296875 
Q 14.984375 17.28125 19.8125 11.734375 
Q 24.65625 6.203125 33.40625 6.203125 
Q 37.3125 6.203125 41.140625 7.25 
Q 44.96875 8.296875 48.78125 10.40625 
L 48.78125 2.09375 
Q 45.015625 0.34375 40.984375 -0.53125 
Q 36.96875 -1.421875 32.421875 -1.421875 
Q 20.0625 -1.421875 12.78125 6.34375 
Q 5.515625 14.109375 5.515625 27.296875 
Q 5.515625 40.671875 12.859375 48.328125 
Q 20.21875 56 33.015625 56 
Q 37.15625 56 41.109375 55.140625 
Q 45.0625 54.296875 48.78125 52.59375 
z
" id="DejaVuSans-63"/>
      <path d="M 9.421875 75.984375 
L 18.40625 75.984375 
L 18.40625 0 
L 9.421875 0 
z
" id="DejaVuSans-6c"/>
      <path d="M 18.3125 70.21875 
L 18.3125 54.6875 
L 36.8125 54.6875 
L 36.8125 47.703125 
L 18.3125 47.703125 
L 18.3125 18.015625 
Q 18.3125 11.328125 20.140625 9.421875 
Q 21.96875 7.515625 27.59375 7.515625 
L 36.8125 7.515625 
L 36.8125 0 
L 27.59375 0 
Q 17.1875 0 13.234375 3.875 
Q 9.28125 7.765625 9.28125 18.015625 
L 9.28125 47.703125 
L 2.6875 47.703125 
L 2.6875 54.6875 
L 9.28125 54.6875 
L 9.28125 70.21875 
z
" id="DejaVuSans-74"/>
     </defs>
     <g transform="translate(14.798438 249.903687)rotate(-90)scale(0.1 -0.1)">
      <use xlink:href="#DejaVuSans-4e"/>
      <use x="74.804688" xlink:href="#DejaVuSans-75"/>
      <use x="138.183594" xlink:href="#DejaVuSans-6d"/>
      <use x="235.595703" xlink:href="#DejaVuSans-62"/>
      <use x="299.072266" xlink:href="#DejaVuSans-65"/>
      <use x="360.595703" xlink:href="#DejaVuSans-72"/>
      <use x="401.708984" xlink:href="#DejaVuSans-20"/>
      <use x="433.496094" xlink:href="#DejaVuSans-6f"/>
      <use x="494.677734" xlink:href="#DejaVuSans-66"/>
      <use x="529.882812" xlink:href="#DejaVuSans-20"/>
      <use x="561.669922" xlink:href="#DejaVuSans-6e"/>
      <use x="625.048828" xlink:href="#DejaVuSans-6f"/>
      <use x="686.230469" xlink:href="#DejaVuSans-64"/>
      <use x="749.707031" xlink:href="#DejaVuSans-65"/>
      <use x="811.230469" xlink:href="#DejaVuSans-73"/>
      <use x="863.330078" xlink:href="#DejaVuSans-20"/>
      <use x="895.117188" xlink:href="#DejaVuSans-28"/>
      <use x="934.130859" xlink:href="#DejaVuSans-61"/>
      <use x="995.410156" xlink:href="#DejaVuSans-63"/>
      <use x="1050.390625" xlink:href="#DejaVuSans-63"/>
      <use x="1105.371094" xlink:href="#DejaVuSans-75"/>
      <use x="1168.75" xlink:href="#DejaVuSans-6d"/>
      <use x="1266.162109" xlink:href="#DejaVuSans-75"/>
      <use x="1329.541016" xlink:href="#DejaVuSans-6c"/>
      <use x="1357.324219" xlink:href="#DejaVuSans-61"/>
      <use x="1418.603516" xlink:href="#DejaVuSans-74"/>
      <use x="1457.8125" xlink:href="#DejaVuSans-65"/>
      <use x="1519.335938" xlink:href="#DejaVuSans-64"/>
      <use x="1582.8125" xlink:href="#DejaVuSans-29"/>
     </g>
    </g>
   </g>
   <g id="line2d_35">
    <path clip-path="url(#p573dbd3a47)" d="M 46.965625 301.8675 
L 54.108025 301.8675 
L 56.148711 299.20638 
L 74.514882 299.20638 
L 76.555568 296.54526 
L 79.616596 296.54526 
L 81.657282 293.88414 
L 83.697968 293.88414 
L 84.718311 292.55358 
L 86.758996 292.55358 
L 87.779339 291.22302 
L 91.860711 291.22302 
L 92.881054 289.89246 
L 101.043796 289.89246 
L 102.064139 288.5619 
L 103.084482 288.5619 
L 104.104825 287.23134 
L 110.226882 287.23134 
L 111.247225 285.90078 
L 113.287911 285.90078 
L 115.328596 283.23966 
L 116.348939 283.23966 
L 117.369282 281.9091 
L 118.389625 281.9091 
L 119.409968 280.57854 
L 122.470996 280.57854 
L 123.491339 279.24798 
L 129.613396 279.24798 
L 134.715111 272.59518 
L 138.796482 272.59518 
L 139.816825 271.26462 
L 141.857511 271.26462 
L 142.877854 269.93406 
L 143.898196 267.27294 
L 145.938882 267.27294 
L 147.979568 264.61182 
L 148.999911 260.62014 
L 150.020254 259.28958 
L 152.060939 259.28958 
L 154.101625 256.62846 
L 156.142311 256.62846 
L 157.162654 255.2979 
L 161.244025 255.2979 
L 162.264368 253.96734 
L 163.284711 253.96734 
L 164.305054 252.63678 
L 166.345739 252.63678 
L 167.366082 249.97566 
L 168.386425 248.6451 
L 169.406768 248.6451 
L 171.447454 245.98398 
L 172.467796 245.98398 
L 173.488139 244.65342 
L 180.630539 244.65342 
L 181.650882 243.32286 
L 187.772939 243.32286 
L 188.793282 241.9923 
L 200.017054 241.9923 
L 201.037396 240.66174 
L 233.688368 240.66174 
L 234.708711 239.33118 
L 403.065282 239.33118 
L 403.065282 239.33118 
" style="fill:none;stroke:#008000;stroke-linecap:square;stroke-width:1.5;"/>
   </g>
   <g id="patch_3">
    <path d="M 46.965625 301.8675 
L 46.965625 35.7555 
" style="fill:none;stroke:#000000;stroke-linecap:square;stroke-linejoin:miter;stroke-width:0.8;"/>
   </g>
   <g id="patch_4">
    <path d="M 404.085625 301.8675 
L 404.085625 35.7555 
" style="fill:none;stroke:#000000;stroke-linecap:square;stroke-linejoin:miter;stroke-width:0.8;"/>
   </g>
   <g id="patch_5">
    <path d="M 46.965625 301.8675 
L 404.085625 301.8675 
" style="fill:none;stroke:#000000;stroke-linecap:square;stroke-linejoin:miter;stroke-width:0.8;"/>
   </g>
   <g id="patch_6">
    <path d="M 46.965625 35.7555 
L 404.085625 35.7555 
" style="fill:none;stroke:#000000;stroke-linecap:square;stroke-linejoin:miter;stroke-width:0.8;"/>
   </g>
   <g id="text_20">
    <!-- % discovered (avg): 23.50 % -->
    <defs>
     <path d="M 72.703125 32.078125 
Q 68.453125 32.078125 66.03125 28.46875 
Q 63.625 24.859375 63.625 18.40625 
Q 63.625 12.0625 66.03125 8.421875 
Q 68.453125 4.78125 72.703125 4.78125 
Q 76.859375 4.78125 79.265625 8.421875 
Q 81.6875 12.0625 81.6875 18.40625 
Q 81.6875 24.8125 79.265625 28.4375 
Q 76.859375 32.078125 72.703125 32.078125 
z
M 72.703125 38.28125 
Q 80.421875 38.28125 84.953125 32.90625 
Q 89.5 27.546875 89.5 18.40625 
Q 89.5 9.28125 84.9375 3.921875 
Q 80.375 -1.421875 72.703125 -1.421875 
Q 64.890625 -1.421875 60.34375 3.921875 
Q 55.8125 9.28125 55.8125 18.40625 
Q 55.8125 27.59375 60.375 32.9375 
Q 64.9375 38.28125 72.703125 38.28125 
z
M 22.3125 68.015625 
Q 18.109375 68.015625 15.6875 64.375 
Q 13.28125 60.75 13.28125 54.390625 
Q 13.28125 47.953125 15.671875 44.328125 
Q 18.0625 40.71875 22.3125 40.71875 
Q 26.5625 40.71875 28.96875 44.328125 
Q 31.390625 47.953125 31.390625 54.390625 
Q 31.390625 60.6875 28.953125 64.34375 
Q 26.515625 68.015625 22.3125 68.015625 
z
M 66.40625 74.21875 
L 74.21875 74.21875 
L 28.609375 -1.421875 
L 20.796875 -1.421875 
z
M 22.3125 74.21875 
Q 30.03125 74.21875 34.609375 68.875 
Q 39.203125 63.53125 39.203125 54.390625 
Q 39.203125 45.171875 34.640625 39.84375 
Q 30.078125 34.515625 22.3125 34.515625 
Q 14.546875 34.515625 10.03125 39.859375 
Q 5.515625 45.21875 5.515625 54.390625 
Q 5.515625 63.484375 10.046875 68.84375 
Q 14.59375 74.21875 22.3125 74.21875 
z
" id="DejaVuSans-25"/>
     <path d="M 2.984375 54.6875 
L 12.5 54.6875 
L 29.59375 8.796875 
L 46.6875 54.6875 
L 56.203125 54.6875 
L 35.6875 0 
L 23.484375 0 
z
" id="DejaVuSans-76"/>
     <path d="M 45.40625 27.984375 
Q 45.40625 37.75 41.375 43.109375 
Q 37.359375 48.484375 30.078125 48.484375 
Q 22.859375 48.484375 18.828125 43.109375 
Q 14.796875 37.75 14.796875 27.984375 
Q 14.796875 18.265625 18.828125 12.890625 
Q 22.859375 7.515625 30.078125 7.515625 
Q 37.359375 7.515625 41.375 12.890625 
Q 45.40625 18.265625 45.40625 27.984375 
z
M 54.390625 6.78125 
Q 54.390625 -7.171875 48.1875 -13.984375 
Q 42 -20.796875 29.203125 -20.796875 
Q 24.46875 -20.796875 20.265625 -20.09375 
Q 16.0625 -19.390625 12.109375 -17.921875 
L 12.109375 -9.1875 
Q 16.0625 -11.328125 19.921875 -12.34375 
Q 23.78125 -13.375 27.78125 -13.375 
Q 36.625 -13.375 41.015625 -8.765625 
Q 45.40625 -4.15625 45.40625 5.171875 
L 45.40625 9.625 
Q 42.625 4.78125 38.28125 2.390625 
Q 33.9375 0 27.875 0 
Q 17.828125 0 11.671875 7.65625 
Q 5.515625 15.328125 5.515625 27.984375 
Q 5.515625 40.671875 11.671875 48.328125 
Q 17.828125 56 27.875 56 
Q 33.9375 56 38.28125 53.609375 
Q 42.625 51.21875 45.40625 46.390625 
L 45.40625 54.6875 
L 54.390625 54.6875 
z
" id="DejaVuSans-67"/>
     <path d="M 11.71875 12.40625 
L 22.015625 12.40625 
L 22.015625 0 
L 11.71875 0 
z
M 11.71875 51.703125 
L 22.015625 51.703125 
L 22.015625 39.3125 
L 11.71875 39.3125 
z
" id="DejaVuSans-3a"/>
     <path d="M 10.6875 12.40625 
L 21 12.40625 
L 21 0 
L 10.6875 0 
z
" id="DejaVuSans-2e"/>
    </defs>
    <g transform="translate(421.941625 279.471875)scale(0.1 -0.1)">
     <use xlink:href="#DejaVuSans-25"/>
     <use x="95.019531" xlink:href="#DejaVuSans-20"/>
     <use x="126.806641" xlink:href="#DejaVuSans-64"/>
     <use x="190.283203" xlink:href="#DejaVuSans-69"/>
     <use x="218.066406" xlink:href="#DejaVuSans-73"/>
     <use x="270.166016" xlink:href="#DejaVuSans-63"/>
     <use x="325.146484" xlink:href="#DejaVuSans-6f"/>
     <use x="386.328125" xlink:href="#DejaVuSans-76"/>
     <use x="445.507812" xlink:href="#DejaVuSans-65"/>
     <use x="507.03125" xlink:href="#DejaVuSans-72"/>
     <use x="548.113281" xlink:href="#DejaVuSans-65"/>
     <use x="609.636719" xlink:href="#DejaVuSans-64"/>
     <use x="673.113281" xlink:href="#DejaVuSans-20"/>
     <use x="704.900391" xlink:href="#DejaVuSans-28"/>
     <use x="743.914062" xlink:href="#DejaVuSans-61"/>
     <use x="805.193359" xlink:href="#DejaVuSans-76"/>
     <use x="864.373047" xlink:href="#DejaVuSans-67"/>
     <use x="927.849609" xlink:href="#DejaVuSans-29"/>
     <use x="966.863281" xlink:href="#DejaVuSans-3a"/>
     <use x="1000.554688" xlink:href="#DejaVuSans-20"/>
     <use x="1032.341797" xlink:href="#DejaVuSans-32"/>
     <use x="1095.964844" xlink:href="#DejaVuSans-33"/>
     <use x="1159.587891" xlink:href="#DejaVuSans-2e"/>
     <use x="1191.375" xlink:href="#DejaVuSans-35"/>
     <use x="1254.998047" xlink:href="#DejaVuSans-30"/>
     <use x="1318.621094" xlink:href="#DejaVuSans-20"/>
     <use x="1350.408203" xlink:href="#DejaVuSans-25"/>
    </g>
    <!-- Total discovered (avg): 47.0 -->
    <defs>
     <path d="M 37.796875 64.3125 
L 12.890625 25.390625 
L 37.796875 25.390625 
z
M 35.203125 72.90625 
L 47.609375 72.90625 
L 47.609375 25.390625 
L 58.015625 25.390625 
L 58.015625 17.1875 
L 47.609375 17.1875 
L 47.609375 0 
L 37.796875 0 
L 37.796875 17.1875 
L 4.890625 17.1875 
L 4.890625 26.703125 
z
" id="DejaVuSans-34"/>
    </defs>
    <g transform="translate(421.941625 290.669687)scale(0.1 -0.1)">
     <use xlink:href="#DejaVuSans-54"/>
     <use x="60.818359" xlink:href="#DejaVuSans-6f"/>
     <use x="122" xlink:href="#DejaVuSans-74"/>
     <use x="161.208984" xlink:href="#DejaVuSans-61"/>
     <use x="222.488281" xlink:href="#DejaVuSans-6c"/>
     <use x="250.271484" xlink:href="#DejaVuSans-20"/>
     <use x="282.058594" xlink:href="#DejaVuSans-64"/>
     <use x="345.535156" xlink:href="#DejaVuSans-69"/>
     <use x="373.318359" xlink:href="#DejaVuSans-73"/>
     <use x="425.417969" xlink:href="#DejaVuSans-63"/>
     <use x="480.398438" xlink:href="#DejaVuSans-6f"/>
     <use x="541.580078" xlink:href="#DejaVuSans-76"/>
     <use x="600.759766" xlink:href="#DejaVuSans-65"/>
     <use x="662.283203" xlink:href="#DejaVuSans-72"/>
     <use x="703.365234" xlink:href="#DejaVuSans-65"/>
     <use x="764.888672" xlink:href="#DejaVuSans-64"/>
     <use x="828.365234" xlink:href="#DejaVuSans-20"/>
     <use x="860.152344" xlink:href="#DejaVuSans-28"/>
     <use x="899.166016" xlink:href="#DejaVuSans-61"/>
     <use x="960.445312" xlink:href="#DejaVuSans-76"/>
     <use x="1019.625" xlink:href="#DejaVuSans-67"/>
     <use x="1083.101562" xlink:href="#DejaVuSans-29"/>
     <use x="1122.115234" xlink:href="#DejaVuSans-3a"/>
     <use x="1155.806641" xlink:href="#DejaVuSans-20"/>
     <use x="1187.59375" xlink:href="#DejaVuSans-34"/>
     <use x="1251.216797" xlink:href="#DejaVuSans-37"/>
     <use x="1314.839844" xlink:href="#DejaVuSans-2e"/>
     <use x="1346.626953" xlink:href="#DejaVuSans-30"/>
    </g>
    <!-- dev: 0.00 -->
    <g transform="translate(421.941625 301.8675)scale(0.1 -0.1)">
     <use xlink:href="#DejaVuSans-64"/>
     <use x="63.476562" xlink:href="#DejaVuSans-65"/>
     <use x="125" xlink:href="#DejaVuSans-76"/>
     <use x="184.101562" xlink:href="#DejaVuSans-3a"/>
     <use x="217.792969" xlink:href="#DejaVuSans-20"/>
     <use x="249.580078" xlink:href="#DejaVuSans-30"/>
     <use x="313.203125" xlink:href="#DejaVuSans-2e"/>
     <use x="344.990234" xlink:href="#DejaVuSans-30"/>
     <use x="408.613281" xlink:href="#DejaVuSans-30"/>
    </g>
   </g>
   <g id="text_21">
    <!-- Discovered nodes per time (accumulated) [avg] -->
    <defs>
     <path d="M 19.671875 64.796875 
L 19.671875 8.109375 
L 31.59375 8.109375 
Q 46.6875 8.109375 53.6875 14.9375 
Q 60.6875 21.78125 60.6875 36.53125 
Q 60.6875 51.171875 53.6875 57.984375 
Q 46.6875 64.796875 31.59375 64.796875 
z
M 9.8125 72.90625 
L 30.078125 72.90625 
Q 51.265625 72.90625 61.171875 64.09375 
Q 71.09375 55.28125 71.09375 36.53125 
Q 71.09375 17.671875 61.125 8.828125 
Q 51.171875 0 30.078125 0 
L 9.8125 0 
z
" id="DejaVuSans-44"/>
     <path d="M 18.109375 8.203125 
L 18.109375 -20.796875 
L 9.078125 -20.796875 
L 9.078125 54.6875 
L 18.109375 54.6875 
L 18.109375 46.390625 
Q 20.953125 51.265625 25.265625 53.625 
Q 29.59375 56 35.59375 56 
Q 45.5625 56 51.78125 48.09375 
Q 58.015625 40.1875 58.015625 27.296875 
Q 58.015625 14.40625 51.78125 6.484375 
Q 45.5625 -1.421875 35.59375 -1.421875 
Q 29.59375 -1.421875 25.265625 0.953125 
Q 20.953125 3.328125 18.109375 8.203125 
z
M 48.6875 27.296875 
Q 48.6875 37.203125 44.609375 42.84375 
Q 40.53125 48.484375 33.40625 48.484375 
Q 26.265625 48.484375 22.1875 42.84375 
Q 18.109375 37.203125 18.109375 27.296875 
Q 18.109375 17.390625 22.1875 11.75 
Q 26.265625 6.109375 33.40625 6.109375 
Q 40.53125 6.109375 44.609375 11.75 
Q 48.6875 17.390625 48.6875 27.296875 
z
" id="DejaVuSans-70"/>
     <path d="M 8.59375 75.984375 
L 29.296875 75.984375 
L 29.296875 69 
L 17.578125 69 
L 17.578125 -6.203125 
L 29.296875 -6.203125 
L 29.296875 -13.1875 
L 8.59375 -13.1875 
z
" id="DejaVuSans-5b"/>
     <path d="M 30.421875 75.984375 
L 30.421875 -13.1875 
L 9.71875 -13.1875 
L 9.71875 -6.203125 
L 21.390625 -6.203125 
L 21.390625 69 
L 9.71875 69 
L 9.71875 75.984375 
z
" id="DejaVuSans-5d"/>
    </defs>
    <g transform="translate(81.454375 16.318125)scale(0.12 -0.12)">
     <use xlink:href="#DejaVuSans-44"/>
     <use x="77.001953" xlink:href="#DejaVuSans-69"/>
     <use x="104.785156" xlink:href="#DejaVuSans-73"/>
     <use x="156.884766" xlink:href="#DejaVuSans-63"/>
     <use x="211.865234" xlink:href="#DejaVuSans-6f"/>
     <use x="273.046875" xlink:href="#DejaVuSans-76"/>
     <use x="332.226562" xlink:href="#DejaVuSans-65"/>
     <use x="393.75" xlink:href="#DejaVuSans-72"/>
     <use x="434.832031" xlink:href="#DejaVuSans-65"/>
     <use x="496.355469" xlink:href="#DejaVuSans-64"/>
     <use x="559.832031" xlink:href="#DejaVuSans-20"/>
     <use x="591.619141" xlink:href="#DejaVuSans-6e"/>
     <use x="654.998047" xlink:href="#DejaVuSans-6f"/>
     <use x="716.179688" xlink:href="#DejaVuSans-64"/>
     <use x="779.65625" xlink:href="#DejaVuSans-65"/>
     <use x="841.179688" xlink:href="#DejaVuSans-73"/>
     <use x="893.279297" xlink:href="#DejaVuSans-20"/>
     <use x="925.066406" xlink:href="#DejaVuSans-70"/>
     <use x="988.542969" xlink:href="#DejaVuSans-65"/>
     <use x="1050.066406" xlink:href="#DejaVuSans-72"/>
     <use x="1091.179688" xlink:href="#DejaVuSans-20"/>
     <use x="1122.966797" xlink:href="#DejaVuSans-74"/>
     <use x="1162.175781" xlink:href="#DejaVuSans-69"/>
     <use x="1189.958984" xlink:href="#DejaVuSans-6d"/>
     <use x="1287.371094" xlink:href="#DejaVuSans-65"/>
     <use x="1348.894531" xlink:href="#DejaVuSans-20"/>
     <use x="1380.681641" xlink:href="#DejaVuSans-28"/>
     <use x="1419.695312" xlink:href="#DejaVuSans-61"/>
     <use x="1480.974609" xlink:href="#DejaVuSans-63"/>
     <use x="1535.955078" xlink:href="#DejaVuSans-63"/>
     <use x="1590.935547" xlink:href="#DejaVuSans-75"/>
     <use x="1654.314453" xlink:href="#DejaVuSans-6d"/>
     <use x="1751.726562" xlink:href="#DejaVuSans-75"/>
     <use x="1815.105469" xlink:href="#DejaVuSans-6c"/>
     <use x="1842.888672" xlink:href="#DejaVuSans-61"/>
     <use x="1904.167969" xlink:href="#DejaVuSans-74"/>
     <use x="1943.376953" xlink:href="#DejaVuSans-65"/>
     <use x="2004.900391" xlink:href="#DejaVuSans-64"/>
     <use x="2068.376953" xlink:href="#DejaVuSans-29"/>
     <use x="2107.390625" xlink:href="#DejaVuSans-20"/>
     <use x="2139.177734" xlink:href="#DejaVuSans-5b"/>
     <use x="2178.191406" xlink:href="#DejaVuSans-61"/>
     <use x="2239.470703" xlink:href="#DejaVuSans-76"/>
     <use x="2298.650391" xlink:href="#DejaVuSans-67"/>
     <use x="2362.126953" xlink:href="#DejaVuSans-5d"/>
    </g>
    <!-- pso: 180115-182334 -->
    <defs>
     <path d="M 31.78125 34.625 
Q 24.75 34.625 20.71875 30.859375 
Q 16.703125 27.09375 16.703125 20.515625 
Q 16.703125 13.921875 20.71875 10.15625 
Q 24.75 6.390625 31.78125 6.390625 
Q 38.8125 6.390625 42.859375 10.171875 
Q 46.921875 13.96875 46.921875 20.515625 
Q 46.921875 27.09375 42.890625 30.859375 
Q 38.875 34.625 31.78125 34.625 
z
M 21.921875 38.8125 
Q 15.578125 40.375 12.03125 44.71875 
Q 8.5 49.078125 8.5 55.328125 
Q 8.5 64.0625 14.71875 69.140625 
Q 20.953125 74.21875 31.78125 74.21875 
Q 42.671875 74.21875 48.875 69.140625 
Q 55.078125 64.0625 55.078125 55.328125 
Q 55.078125 49.078125 51.53125 44.71875 
Q 48 40.375 41.703125 38.8125 
Q 48.828125 37.15625 52.796875 32.3125 
Q 56.78125 27.484375 56.78125 20.515625 
Q 56.78125 9.90625 50.3125 4.234375 
Q 43.84375 -1.421875 31.78125 -1.421875 
Q 19.734375 -1.421875 13.25 4.234375 
Q 6.78125 9.90625 6.78125 20.515625 
Q 6.78125 27.484375 10.78125 32.3125 
Q 14.796875 37.15625 21.921875 38.8125 
z
M 18.3125 54.390625 
Q 18.3125 48.734375 21.84375 45.5625 
Q 25.390625 42.390625 31.78125 42.390625 
Q 38.140625 42.390625 41.71875 45.5625 
Q 45.3125 48.734375 45.3125 54.390625 
Q 45.3125 60.0625 41.71875 63.234375 
Q 38.140625 66.40625 31.78125 66.40625 
Q 25.390625 66.40625 21.84375 63.234375 
Q 18.3125 60.0625 18.3125 54.390625 
z
" id="DejaVuSans-38"/>
     <path d="M 4.890625 31.390625 
L 31.203125 31.390625 
L 31.203125 23.390625 
L 4.890625 23.390625 
z
" id="DejaVuSans-2d"/>
    </defs>
    <g transform="translate(163.016875 29.7555)scale(0.12 -0.12)">
     <use xlink:href="#DejaVuSans-70"/>
     <use x="63.476562" xlink:href="#DejaVuSans-73"/>
     <use x="115.576172" xlink:href="#DejaVuSans-6f"/>
     <use x="176.757812" xlink:href="#DejaVuSans-3a"/>
     <use x="210.449219" xlink:href="#DejaVuSans-20"/>
     <use x="242.236328" xlink:href="#DejaVuSans-31"/>
     <use x="305.859375" xlink:href="#DejaVuSans-38"/>
     <use x="369.482422" xlink:href="#DejaVuSans-30"/>
     <use x="433.105469" xlink:href="#DejaVuSans-31"/>
     <use x="496.728516" xlink:href="#DejaVuSans-31"/>
     <use x="560.351562" xlink:href="#DejaVuSans-35"/>
     <use x="623.974609" xlink:href="#DejaVuSans-2d"/>
     <use x="660.058594" xlink:href="#DejaVuSans-31"/>
     <use x="723.681641" xlink:href="#DejaVuSans-38"/>
     <use x="787.304688" xlink:href="#DejaVuSans-32"/>
     <use x="850.927734" xlink:href="#DejaVuSans-33"/>
     <use x="914.550781" xlink:href="#DejaVuSans-33"/>
     <use x="978.173828" xlink:href="#DejaVuSans-34"/>
    </g>
   </g>
  </g>
 </g>
 <defs>
  <clipPath id="p573dbd3a47">
   <rect height="266.112" width="357.12" x="46.965625" y="35.7555"/>
  </clipPath>
 </defs>
</svg>
