<?xml version="1.0" encoding="utf-8" standalone="no"?>
<!DOCTYPE svg PUBLIC "-//W3C//DTD SVG 1.1//EN"
  "http://www.w3.org/Graphics/SVG/1.1/DTD/svg11.dtd">
<!-- Created with matplotlib (http://matplotlib.org/) -->
<svg height="339pt" version="1.1" viewBox="0 0 571 339" width="571pt" xmlns="http://www.w3.org/2000/svg" xmlns:xlink="http://www.w3.org/1999/xlink">
 <defs>
  <style type="text/css">
*{stroke-linecap:butt;stroke-linejoin:round;}
  </style>
 </defs>
 <g id="figure_1">
  <g id="patch_1">
   <path d="M 0 339.42375 
L 571.711937 339.42375 
L 571.711937 0 
L 0 0 
z
" style="fill:#ffffff;"/>
  </g>
  <g id="axes_1">
   <g id="patch_2">
    <path d="M 40.603125 301.8675 
L 397.723125 301.8675 
L 397.723125 35.7555 
L 40.603125 35.7555 
z
" style="fill:#ffffff;"/>
   </g>
   <g id="PolyCollection_1">
    <defs>
     <path d="M 40.603125 -275.865504 
L 40.603125 -291.752787 
L 41.568314 -291.752787 
L 42.533503 -291.752787 
L 43.498693 -291.752787 
L 44.463882 -291.752787 
L 45.429071 -291.752787 
L 46.39426 -291.752787 
L 47.359449 -275.865504 
L 48.324639 -259.97822 
L 49.289828 -259.97822 
L 50.255017 -259.97822 
L 51.220206 -244.090937 
L 52.185395 -244.090937 
L 53.150584 -244.090937 
L 54.115774 -228.203653 
L 55.080963 -228.203653 
L 56.046152 -212.316369 
L 57.011341 -196.429086 
L 57.97653 -196.429086 
L 58.94172 -196.429086 
L 59.906909 -196.429086 
L 60.872098 -180.541802 
L 61.837287 -164.654519 
L 62.802476 -164.654519 
L 63.767666 -164.654519 
L 64.732855 -164.654519 
L 65.698044 -164.654519 
L 66.663233 -148.767235 
L 67.628422 -132.879951 
L 68.593611 -132.879951 
L 69.558801 -132.879951 
L 70.52399 -132.879951 
L 71.489179 -132.879951 
L 72.454368 -132.879951 
L 73.419557 -132.879951 
L 74.384747 -132.879951 
L 75.349936 -132.879951 
L 76.315125 -132.879951 
L 77.280314 -132.879951 
L 78.245503 -132.879951 
L 79.210693 -132.879951 
L 80.175882 -132.879951 
L 81.141071 -132.879951 
L 82.10626 -132.879951 
L 83.071449 -116.992668 
L 84.036639 -101.105384 
L 85.001828 -101.105384 
L 85.967017 -101.105384 
L 86.932206 -101.105384 
L 87.897395 -101.105384 
L 88.862584 -101.105384 
L 89.827774 -101.105384 
L 90.792963 -101.105384 
L 91.758152 -101.105384 
L 92.723341 -101.105384 
L 93.68853 -101.105384 
L 94.65372 -101.105384 
L 95.618909 -101.105384 
L 96.584098 -85.218101 
L 97.549287 -85.218101 
L 98.514476 -85.218101 
L 99.479666 -85.218101 
L 100.444855 -85.218101 
L 101.410044 -85.218101 
L 102.375233 -85.218101 
L 103.340422 -69.330817 
L 104.305611 -69.330817 
L 105.270801 -53.443534 
L 106.23599 -53.443534 
L 107.201179 -53.443534 
L 108.166368 -53.443534 
L 109.131557 -53.443534 
L 110.096747 -53.443534 
L 111.061936 -53.443534 
L 112.027125 -53.443534 
L 112.992314 -53.443534 
L 113.957503 -53.443534 
L 114.922693 -53.443534 
L 115.887882 -53.443534 
L 116.853071 -53.443534 
L 117.81826 -53.443534 
L 118.783449 -53.443534 
L 119.748639 -53.443534 
L 120.713828 -53.443534 
L 121.679017 -53.443534 
L 122.644206 -53.443534 
L 123.609395 -53.443534 
L 124.574584 -53.443534 
L 125.539774 -53.443534 
L 126.504963 -53.443534 
L 127.470152 -53.443534 
L 128.435341 -53.443534 
L 129.40053 -53.443534 
L 130.36572 -53.443534 
L 131.330909 -53.443534 
L 132.296098 -53.443534 
L 133.261287 -53.443534 
L 134.226476 -53.443534 
L 135.191666 -53.443534 
L 136.156855 -53.443534 
L 137.122044 -53.443534 
L 138.087233 -53.443534 
L 139.052422 -53.443534 
L 140.017611 -53.443534 
L 140.982801 -53.443534 
L 141.94799 -53.443534 
L 142.913179 -53.443534 
L 143.878368 -53.443534 
L 144.843557 -53.443534 
L 145.808747 -53.443534 
L 146.773936 -53.443534 
L 147.739125 -53.443534 
L 148.704314 -53.443534 
L 149.669503 -53.443534 
L 150.634693 -53.443534 
L 151.599882 -53.443534 
L 152.565071 -53.443534 
L 153.53026 -53.443534 
L 154.495449 -53.443534 
L 155.460639 -53.443534 
L 156.425828 -53.443534 
L 157.391017 -53.443534 
L 158.356206 -53.443534 
L 159.321395 -53.443534 
L 160.286584 -53.443534 
L 161.251774 -53.443534 
L 162.216963 -53.443534 
L 163.182152 -53.443534 
L 164.147341 -53.443534 
L 165.11253 -53.443534 
L 166.07772 -53.443534 
L 167.042909 -53.443534 
L 168.008098 -53.443534 
L 168.973287 -53.443534 
L 169.938476 -53.443534 
L 170.903666 -53.443534 
L 171.868855 -53.443534 
L 172.834044 -53.443534 
L 173.799233 -53.443534 
L 174.764422 -53.443534 
L 175.729611 -53.443534 
L 176.694801 -53.443534 
L 177.65999 -53.443534 
L 178.625179 -53.443534 
L 179.590368 -53.443534 
L 180.555557 -53.443534 
L 181.520747 -53.443534 
L 182.485936 -53.443534 
L 183.451125 -53.443534 
L 184.416314 -53.443534 
L 185.381503 -53.443534 
L 186.346693 -53.443534 
L 187.311882 -53.443534 
L 188.277071 -53.443534 
L 189.24226 -53.443534 
L 190.207449 -53.443534 
L 191.172639 -53.443534 
L 192.137828 -53.443534 
L 193.103017 -53.443534 
L 194.068206 -53.443534 
L 195.033395 -53.443534 
L 195.998584 -53.443534 
L 196.963774 -53.443534 
L 197.928963 -53.443534 
L 198.894152 -53.443534 
L 199.859341 -53.443534 
L 200.82453 -53.443534 
L 201.78972 -53.443534 
L 202.754909 -53.443534 
L 203.720098 -53.443534 
L 204.685287 -53.443534 
L 205.650476 -53.443534 
L 206.615666 -53.443534 
L 207.580855 -53.443534 
L 208.546044 -53.443534 
L 209.511233 -53.443534 
L 210.476422 -53.443534 
L 211.441611 -53.443534 
L 212.406801 -53.443534 
L 213.37199 -53.443534 
L 214.337179 -53.443534 
L 215.302368 -53.443534 
L 216.267557 -53.443534 
L 217.232747 -53.443534 
L 218.197936 -53.443534 
L 219.163125 -53.443534 
L 220.128314 -53.443534 
L 221.093503 -53.443534 
L 222.058693 -53.443534 
L 223.023882 -53.443534 
L 223.989071 -53.443534 
L 224.95426 -53.443534 
L 225.919449 -53.443534 
L 226.884639 -53.443534 
L 227.849828 -53.443534 
L 228.815017 -53.443534 
L 229.780206 -53.443534 
L 230.745395 -53.443534 
L 231.710584 -53.443534 
L 232.675774 -53.443534 
L 233.640963 -53.443534 
L 234.606152 -53.443534 
L 235.571341 -53.443534 
L 236.53653 -53.443534 
L 237.50172 -53.443534 
L 238.466909 -53.443534 
L 239.432098 -53.443534 
L 240.397287 -53.443534 
L 241.362476 -53.443534 
L 242.327666 -53.443534 
L 243.292855 -53.443534 
L 244.258044 -53.443534 
L 245.223233 -53.443534 
L 246.188422 -53.443534 
L 247.153611 -53.443534 
L 248.118801 -53.443534 
L 249.08399 -53.443534 
L 250.049179 -53.443534 
L 251.014368 -53.443534 
L 251.979557 -53.443534 
L 252.944747 -53.443534 
L 253.909936 -53.443534 
L 254.875125 -53.443534 
L 255.840314 -53.443534 
L 256.805503 -53.443534 
L 257.770693 -53.443534 
L 258.735882 -53.443534 
L 259.701071 -53.443534 
L 260.66626 -53.443534 
L 261.631449 -53.443534 
L 262.596639 -53.443534 
L 263.561828 -53.443534 
L 264.527017 -53.443534 
L 265.492206 -53.443534 
L 266.457395 -53.443534 
L 267.422584 -53.443534 
L 268.387774 -53.443534 
L 269.352963 -53.443534 
L 270.318152 -53.443534 
L 271.283341 -53.443534 
L 272.24853 -53.443534 
L 273.21372 -53.443534 
L 274.178909 -53.443534 
L 275.144098 -53.443534 
L 276.109287 -53.443534 
L 277.074476 -53.443534 
L 278.039666 -53.443534 
L 279.004855 -53.443534 
L 279.970044 -53.443534 
L 280.935233 -53.443534 
L 281.900422 -53.443534 
L 282.865611 -53.443534 
L 283.830801 -53.443534 
L 284.79599 -53.443534 
L 285.761179 -53.443534 
L 286.726368 -53.443534 
L 287.691557 -53.443534 
L 288.656747 -53.443534 
L 289.621936 -53.443534 
L 290.587125 -53.443534 
L 291.552314 -53.443534 
L 292.517503 -53.443534 
L 293.482693 -53.443534 
L 294.447882 -53.443534 
L 295.413071 -53.443534 
L 296.37826 -53.443534 
L 297.343449 -53.443534 
L 298.308639 -53.443534 
L 299.273828 -53.443534 
L 300.239017 -53.443534 
L 301.204206 -53.443534 
L 302.169395 -53.443534 
L 303.134584 -53.443534 
L 304.099774 -53.443534 
L 305.064963 -53.443534 
L 306.030152 -53.443534 
L 306.995341 -53.443534 
L 307.96053 -53.443534 
L 308.92572 -53.443534 
L 309.890909 -53.443534 
L 310.856098 -53.443534 
L 311.821287 -53.443534 
L 312.786476 -53.443534 
L 313.751666 -53.443534 
L 314.716855 -53.443534 
L 315.682044 -53.443534 
L 316.647233 -53.443534 
L 317.612422 -53.443534 
L 318.577611 -53.443534 
L 319.542801 -53.443534 
L 320.50799 -53.443534 
L 321.473179 -53.443534 
L 322.438368 -53.443534 
L 323.403557 -53.443534 
L 324.368747 -53.443534 
L 325.333936 -53.443534 
L 326.299125 -53.443534 
L 327.264314 -53.443534 
L 328.229503 -53.443534 
L 329.194693 -53.443534 
L 330.159882 -53.443534 
L 331.125071 -53.443534 
L 332.09026 -53.443534 
L 333.055449 -53.443534 
L 334.020639 -53.443534 
L 334.985828 -53.443534 
L 335.951017 -53.443534 
L 336.916206 -53.443534 
L 337.881395 -53.443534 
L 338.846584 -53.443534 
L 339.811774 -53.443534 
L 340.776963 -53.443534 
L 341.742152 -53.443534 
L 342.707341 -53.443534 
L 343.67253 -53.443534 
L 344.63772 -53.443534 
L 345.602909 -53.443534 
L 346.568098 -53.443534 
L 347.533287 -53.443534 
L 348.498476 -53.443534 
L 349.463666 -53.443534 
L 350.428855 -53.443534 
L 351.394044 -53.443534 
L 352.359233 -53.443534 
L 353.324422 -53.443534 
L 354.289611 -53.443534 
L 355.254801 -53.443534 
L 356.21999 -53.443534 
L 357.185179 -53.443534 
L 358.150368 -53.443534 
L 359.115557 -53.443534 
L 360.080747 -53.443534 
L 361.045936 -53.443534 
L 362.011125 -53.443534 
L 362.976314 -53.443534 
L 363.941503 -53.443534 
L 364.906693 -53.443534 
L 365.871882 -53.443534 
L 366.837071 -53.443534 
L 367.80226 -53.443534 
L 368.767449 -53.443534 
L 369.732639 -53.443534 
L 370.697828 -53.443534 
L 371.663017 -53.443534 
L 372.628206 -53.443534 
L 373.593395 -53.443534 
L 374.558584 -53.443534 
L 375.523774 -53.443534 
L 376.488963 -53.443534 
L 377.454152 -53.443534 
L 378.419341 -53.443534 
L 379.38453 -53.443534 
L 380.34972 -53.443534 
L 381.314909 -53.443534 
L 382.280098 -53.443534 
L 383.245287 -53.443534 
L 384.210476 -53.443534 
L 385.175666 -53.443534 
L 386.140855 -53.443534 
L 387.106044 -53.443534 
L 388.071233 -53.443534 
L 389.036422 -53.443534 
L 390.001611 -53.443534 
L 390.966801 -53.443534 
L 391.93199 -53.443534 
L 392.897179 -53.443534 
L 393.862368 -53.443534 
L 394.827557 -53.443534 
L 395.792747 -53.443534 
L 396.757936 -53.443534 
L 396.757936 -53.443534 
L 396.757936 -53.443534 
L 395.792747 -53.443534 
L 394.827557 -53.443534 
L 393.862368 -53.443534 
L 392.897179 -53.443534 
L 391.93199 -53.443534 
L 390.966801 -53.443534 
L 390.001611 -53.443534 
L 389.036422 -53.443534 
L 388.071233 -53.443534 
L 387.106044 -53.443534 
L 386.140855 -53.443534 
L 385.175666 -53.443534 
L 384.210476 -53.443534 
L 383.245287 -53.443534 
L 382.280098 -53.443534 
L 381.314909 -53.443534 
L 380.34972 -53.443534 
L 379.38453 -53.443534 
L 378.419341 -53.443534 
L 377.454152 -53.443534 
L 376.488963 -53.443534 
L 375.523774 -53.443534 
L 374.558584 -53.443534 
L 373.593395 -53.443534 
L 372.628206 -53.443534 
L 371.663017 -53.443534 
L 370.697828 -53.443534 
L 369.732639 -53.443534 
L 368.767449 -53.443534 
L 367.80226 -53.443534 
L 366.837071 -53.443534 
L 365.871882 -53.443534 
L 364.906693 -53.443534 
L 363.941503 -53.443534 
L 362.976314 -53.443534 
L 362.011125 -53.443534 
L 361.045936 -53.443534 
L 360.080747 -53.443534 
L 359.115557 -53.443534 
L 358.150368 -53.443534 
L 357.185179 -53.443534 
L 356.21999 -53.443534 
L 355.254801 -53.443534 
L 354.289611 -53.443534 
L 353.324422 -53.443534 
L 352.359233 -53.443534 
L 351.394044 -53.443534 
L 350.428855 -53.443534 
L 349.463666 -53.443534 
L 348.498476 -53.443534 
L 347.533287 -53.443534 
L 346.568098 -53.443534 
L 345.602909 -53.443534 
L 344.63772 -53.443534 
L 343.67253 -53.443534 
L 342.707341 -53.443534 
L 341.742152 -53.443534 
L 340.776963 -53.443534 
L 339.811774 -53.443534 
L 338.846584 -53.443534 
L 337.881395 -53.443534 
L 336.916206 -53.443534 
L 335.951017 -53.443534 
L 334.985828 -53.443534 
L 334.020639 -53.443534 
L 333.055449 -53.443534 
L 332.09026 -53.443534 
L 331.125071 -53.443534 
L 330.159882 -53.443534 
L 329.194693 -53.443534 
L 328.229503 -53.443534 
L 327.264314 -53.443534 
L 326.299125 -53.443534 
L 325.333936 -53.443534 
L 324.368747 -53.443534 
L 323.403557 -53.443534 
L 322.438368 -53.443534 
L 321.473179 -53.443534 
L 320.50799 -53.443534 
L 319.542801 -53.443534 
L 318.577611 -53.443534 
L 317.612422 -53.443534 
L 316.647233 -53.443534 
L 315.682044 -53.443534 
L 314.716855 -53.443534 
L 313.751666 -53.443534 
L 312.786476 -53.443534 
L 311.821287 -53.443534 
L 310.856098 -53.443534 
L 309.890909 -53.443534 
L 308.92572 -53.443534 
L 307.96053 -53.443534 
L 306.995341 -53.443534 
L 306.030152 -53.443534 
L 305.064963 -53.443534 
L 304.099774 -53.443534 
L 303.134584 -53.443534 
L 302.169395 -53.443534 
L 301.204206 -53.443534 
L 300.239017 -53.443534 
L 299.273828 -53.443534 
L 298.308639 -53.443534 
L 297.343449 -53.443534 
L 296.37826 -53.443534 
L 295.413071 -53.443534 
L 294.447882 -53.443534 
L 293.482693 -53.443534 
L 292.517503 -53.443534 
L 291.552314 -53.443534 
L 290.587125 -53.443534 
L 289.621936 -53.443534 
L 288.656747 -53.443534 
L 287.691557 -53.443534 
L 286.726368 -53.443534 
L 285.761179 -53.443534 
L 284.79599 -53.443534 
L 283.830801 -53.443534 
L 282.865611 -53.443534 
L 281.900422 -53.443534 
L 280.935233 -53.443534 
L 279.970044 -53.443534 
L 279.004855 -53.443534 
L 278.039666 -53.443534 
L 277.074476 -53.443534 
L 276.109287 -53.443534 
L 275.144098 -53.443534 
L 274.178909 -53.443534 
L 273.21372 -53.443534 
L 272.24853 -53.443534 
L 271.283341 -53.443534 
L 270.318152 -53.443534 
L 269.352963 -53.443534 
L 268.387774 -53.443534 
L 267.422584 -53.443534 
L 266.457395 -53.443534 
L 265.492206 -53.443534 
L 264.527017 -53.443534 
L 263.561828 -53.443534 
L 262.596639 -53.443534 
L 261.631449 -53.443534 
L 260.66626 -53.443534 
L 259.701071 -53.443534 
L 258.735882 -53.443534 
L 257.770693 -53.443534 
L 256.805503 -53.443534 
L 255.840314 -53.443534 
L 254.875125 -53.443534 
L 253.909936 -53.443534 
L 252.944747 -53.443534 
L 251.979557 -53.443534 
L 251.014368 -53.443534 
L 250.049179 -53.443534 
L 249.08399 -53.443534 
L 248.118801 -53.443534 
L 247.153611 -53.443534 
L 246.188422 -53.443534 
L 245.223233 -53.443534 
L 244.258044 -53.443534 
L 243.292855 -53.443534 
L 242.327666 -53.443534 
L 241.362476 -53.443534 
L 240.397287 -53.443534 
L 239.432098 -53.443534 
L 238.466909 -53.443534 
L 237.50172 -53.443534 
L 236.53653 -53.443534 
L 235.571341 -53.443534 
L 234.606152 -53.443534 
L 233.640963 -53.443534 
L 232.675774 -53.443534 
L 231.710584 -53.443534 
L 230.745395 -53.443534 
L 229.780206 -53.443534 
L 228.815017 -53.443534 
L 227.849828 -53.443534 
L 226.884639 -53.443534 
L 225.919449 -53.443534 
L 224.95426 -53.443534 
L 223.989071 -53.443534 
L 223.023882 -53.443534 
L 222.058693 -53.443534 
L 221.093503 -53.443534 
L 220.128314 -53.443534 
L 219.163125 -53.443534 
L 218.197936 -53.443534 
L 217.232747 -53.443534 
L 216.267557 -53.443534 
L 215.302368 -53.443534 
L 214.337179 -53.443534 
L 213.37199 -53.443534 
L 212.406801 -53.443534 
L 211.441611 -53.443534 
L 210.476422 -53.443534 
L 209.511233 -53.443534 
L 208.546044 -53.443534 
L 207.580855 -53.443534 
L 206.615666 -53.443534 
L 205.650476 -53.443534 
L 204.685287 -53.443534 
L 203.720098 -53.443534 
L 202.754909 -53.443534 
L 201.78972 -53.443534 
L 200.82453 -53.443534 
L 199.859341 -53.443534 
L 198.894152 -53.443534 
L 197.928963 -53.443534 
L 196.963774 -53.443534 
L 195.998584 -53.443534 
L 195.033395 -53.443534 
L 194.068206 -53.443534 
L 193.103017 -53.443534 
L 192.137828 -53.443534 
L 191.172639 -53.443534 
L 190.207449 -53.443534 
L 189.24226 -53.443534 
L 188.277071 -53.443534 
L 187.311882 -53.443534 
L 186.346693 -53.443534 
L 185.381503 -53.443534 
L 184.416314 -53.443534 
L 183.451125 -53.443534 
L 182.485936 -53.443534 
L 181.520747 -53.443534 
L 180.555557 -53.443534 
L 179.590368 -53.443534 
L 178.625179 -53.443534 
L 177.65999 -53.443534 
L 176.694801 -53.443534 
L 175.729611 -53.443534 
L 174.764422 -53.443534 
L 173.799233 -53.443534 
L 172.834044 -53.443534 
L 171.868855 -53.443534 
L 170.903666 -53.443534 
L 169.938476 -53.443534 
L 168.973287 -53.443534 
L 168.008098 -53.443534 
L 167.042909 -53.443534 
L 166.07772 -53.443534 
L 165.11253 -53.443534 
L 164.147341 -53.443534 
L 163.182152 -53.443534 
L 162.216963 -53.443534 
L 161.251774 -53.443534 
L 160.286584 -53.443534 
L 159.321395 -53.443534 
L 158.356206 -53.443534 
L 157.391017 -53.443534 
L 156.425828 -53.443534 
L 155.460639 -53.443534 
L 154.495449 -53.443534 
L 153.53026 -53.443534 
L 152.565071 -53.443534 
L 151.599882 -53.443534 
L 150.634693 -53.443534 
L 149.669503 -53.443534 
L 148.704314 -53.443534 
L 147.739125 -53.443534 
L 146.773936 -53.443534 
L 145.808747 -53.443534 
L 144.843557 -53.443534 
L 143.878368 -53.443534 
L 142.913179 -53.443534 
L 141.94799 -53.443534 
L 140.982801 -53.443534 
L 140.017611 -53.443534 
L 139.052422 -53.443534 
L 138.087233 -53.443534 
L 137.122044 -53.443534 
L 136.156855 -53.443534 
L 135.191666 -53.443534 
L 134.226476 -53.443534 
L 133.261287 -53.443534 
L 132.296098 -53.443534 
L 131.330909 -53.443534 
L 130.36572 -53.443534 
L 129.40053 -53.443534 
L 128.435341 -53.443534 
L 127.470152 -53.443534 
L 126.504963 -53.443534 
L 125.539774 -53.443534 
L 124.574584 -53.443534 
L 123.609395 -53.443534 
L 122.644206 -53.443534 
L 121.679017 -53.443534 
L 120.713828 -53.443534 
L 119.748639 -53.443534 
L 118.783449 -53.443534 
L 117.81826 -53.443534 
L 116.853071 -53.443534 
L 115.887882 -53.443534 
L 114.922693 -53.443534 
L 113.957503 -53.443534 
L 112.992314 -53.443534 
L 112.027125 -53.443534 
L 111.061936 -53.443534 
L 110.096747 -53.443534 
L 109.131557 -53.443534 
L 108.166368 -53.443534 
L 107.201179 -53.443534 
L 106.23599 -53.443534 
L 105.270801 -53.443534 
L 104.305611 -53.443534 
L 103.340422 -53.443534 
L 102.375233 -53.443534 
L 101.410044 -53.443534 
L 100.444855 -53.443534 
L 99.479666 -53.443534 
L 98.514476 -53.443534 
L 97.549287 -53.443534 
L 96.584098 -53.443534 
L 95.618909 -69.330817 
L 94.65372 -69.330817 
L 93.68853 -69.330817 
L 92.723341 -69.330817 
L 91.758152 -85.218101 
L 90.792963 -85.218101 
L 89.827774 -85.218101 
L 88.862584 -85.218101 
L 87.897395 -85.218101 
L 86.932206 -85.218101 
L 85.967017 -85.218101 
L 85.001828 -85.218101 
L 84.036639 -85.218101 
L 83.071449 -85.218101 
L 82.10626 -85.218101 
L 81.141071 -85.218101 
L 80.175882 -85.218101 
L 79.210693 -85.218101 
L 78.245503 -85.218101 
L 77.280314 -101.105384 
L 76.315125 -101.105384 
L 75.349936 -101.105384 
L 74.384747 -101.105384 
L 73.419557 -101.105384 
L 72.454368 -116.992668 
L 71.489179 -116.992668 
L 70.52399 -116.992668 
L 69.558801 -116.992668 
L 68.593611 -116.992668 
L 67.628422 -132.879951 
L 66.663233 -132.879951 
L 65.698044 -132.879951 
L 64.732855 -132.879951 
L 63.767666 -132.879951 
L 62.802476 -132.879951 
L 61.837287 -132.879951 
L 60.872098 -132.879951 
L 59.906909 -148.767235 
L 58.94172 -148.767235 
L 57.97653 -148.767235 
L 57.011341 -180.541802 
L 56.046152 -196.429086 
L 55.080963 -196.429086 
L 54.115774 -212.316369 
L 53.150584 -212.316369 
L 52.185395 -228.203653 
L 51.220206 -228.203653 
L 50.255017 -244.090937 
L 49.289828 -259.97822 
L 48.324639 -259.97822 
L 47.359449 -259.97822 
L 46.39426 -259.97822 
L 45.429071 -275.865504 
L 44.463882 -275.865504 
L 43.498693 -275.865504 
L 42.533503 -275.865504 
L 41.568314 -275.865504 
L 40.603125 -275.865504 
z
" id="m8007d0ae0c" style="stroke:#adff2f;"/>
    </defs>
    <g clip-path="url(#p49de94d83a)">
     <use style="fill:#adff2f;stroke:#adff2f;" x="0" xlink:href="#m8007d0ae0c" y="339.42375"/>
    </g>
   </g>
   <g id="matplotlib.axis_1">
    <g id="xtick_1">
     <g id="line2d_1">
      <path clip-path="url(#p49de94d83a)" d="M 40.603125 301.8675 
L 40.603125 35.7555 
" style="fill:none;stroke:#b0b0b0;stroke-linecap:square;stroke-width:0.8;"/>
     </g>
     <g id="line2d_2">
      <defs>
       <path d="M 0 0 
L 0 3.5 
" id="me4cb46dfce" style="stroke:#000000;stroke-width:0.8;"/>
      </defs>
      <g>
       <use style="stroke:#000000;stroke-width:0.8;" x="40.603125" xlink:href="#me4cb46dfce" y="301.8675"/>
      </g>
     </g>
     <g id="text_1">
      <!-- 0 -->
      <defs>
       <path d="M 31.78125 66.40625 
Q 24.171875 66.40625 20.328125 58.90625 
Q 16.5 51.421875 16.5 36.375 
Q 16.5 21.390625 20.328125 13.890625 
Q 24.171875 6.390625 31.78125 6.390625 
Q 39.453125 6.390625 43.28125 13.890625 
Q 47.125 21.390625 47.125 36.375 
Q 47.125 51.421875 43.28125 58.90625 
Q 39.453125 66.40625 31.78125 66.40625 
z
M 31.78125 74.21875 
Q 44.046875 74.21875 50.515625 64.515625 
Q 56.984375 54.828125 56.984375 36.375 
Q 56.984375 17.96875 50.515625 8.265625 
Q 44.046875 -1.421875 31.78125 -1.421875 
Q 19.53125 -1.421875 13.0625 8.265625 
Q 6.59375 17.96875 6.59375 36.375 
Q 6.59375 54.828125 13.0625 64.515625 
Q 19.53125 74.21875 31.78125 74.21875 
z
" id="DejaVuSans-30"/>
      </defs>
      <g transform="translate(37.421875 316.465937)scale(0.1 -0.1)">
       <use xlink:href="#DejaVuSans-30"/>
      </g>
     </g>
    </g>
    <g id="xtick_2">
     <g id="line2d_3">
      <path clip-path="url(#p49de94d83a)" d="M 88.862584 301.8675 
L 88.862584 35.7555 
" style="fill:none;stroke:#b0b0b0;stroke-linecap:square;stroke-width:0.8;"/>
     </g>
     <g id="line2d_4">
      <g>
       <use style="stroke:#000000;stroke-width:0.8;" x="88.862584" xlink:href="#me4cb46dfce" y="301.8675"/>
      </g>
     </g>
     <g id="text_2">
      <!-- 50 -->
      <defs>
       <path d="M 10.796875 72.90625 
L 49.515625 72.90625 
L 49.515625 64.59375 
L 19.828125 64.59375 
L 19.828125 46.734375 
Q 21.96875 47.46875 24.109375 47.828125 
Q 26.265625 48.1875 28.421875 48.1875 
Q 40.625 48.1875 47.75 41.5 
Q 54.890625 34.8125 54.890625 23.390625 
Q 54.890625 11.625 47.5625 5.09375 
Q 40.234375 -1.421875 26.90625 -1.421875 
Q 22.3125 -1.421875 17.546875 -0.640625 
Q 12.796875 0.140625 7.71875 1.703125 
L 7.71875 11.625 
Q 12.109375 9.234375 16.796875 8.0625 
Q 21.484375 6.890625 26.703125 6.890625 
Q 35.15625 6.890625 40.078125 11.328125 
Q 45.015625 15.765625 45.015625 23.390625 
Q 45.015625 31 40.078125 35.4375 
Q 35.15625 39.890625 26.703125 39.890625 
Q 22.75 39.890625 18.8125 39.015625 
Q 14.890625 38.140625 10.796875 36.28125 
z
" id="DejaVuSans-35"/>
      </defs>
      <g transform="translate(82.500084 316.465937)scale(0.1 -0.1)">
       <use xlink:href="#DejaVuSans-35"/>
       <use x="63.623047" xlink:href="#DejaVuSans-30"/>
      </g>
     </g>
    </g>
    <g id="xtick_3">
     <g id="line2d_5">
      <path clip-path="url(#p49de94d83a)" d="M 137.122044 301.8675 
L 137.122044 35.7555 
" style="fill:none;stroke:#b0b0b0;stroke-linecap:square;stroke-width:0.8;"/>
     </g>
     <g id="line2d_6">
      <g>
       <use style="stroke:#000000;stroke-width:0.8;" x="137.122044" xlink:href="#me4cb46dfce" y="301.8675"/>
      </g>
     </g>
     <g id="text_3">
      <!-- 100 -->
      <defs>
       <path d="M 12.40625 8.296875 
L 28.515625 8.296875 
L 28.515625 63.921875 
L 10.984375 60.40625 
L 10.984375 69.390625 
L 28.421875 72.90625 
L 38.28125 72.90625 
L 38.28125 8.296875 
L 54.390625 8.296875 
L 54.390625 0 
L 12.40625 0 
z
" id="DejaVuSans-31"/>
      </defs>
      <g transform="translate(127.578294 316.465937)scale(0.1 -0.1)">
       <use xlink:href="#DejaVuSans-31"/>
       <use x="63.623047" xlink:href="#DejaVuSans-30"/>
       <use x="127.246094" xlink:href="#DejaVuSans-30"/>
      </g>
     </g>
    </g>
    <g id="xtick_4">
     <g id="line2d_7">
      <path clip-path="url(#p49de94d83a)" d="M 185.381503 301.8675 
L 185.381503 35.7555 
" style="fill:none;stroke:#b0b0b0;stroke-linecap:square;stroke-width:0.8;"/>
     </g>
     <g id="line2d_8">
      <g>
       <use style="stroke:#000000;stroke-width:0.8;" x="185.381503" xlink:href="#me4cb46dfce" y="301.8675"/>
      </g>
     </g>
     <g id="text_4">
      <!-- 150 -->
      <g transform="translate(175.837753 316.465937)scale(0.1 -0.1)">
       <use xlink:href="#DejaVuSans-31"/>
       <use x="63.623047" xlink:href="#DejaVuSans-35"/>
       <use x="127.246094" xlink:href="#DejaVuSans-30"/>
      </g>
     </g>
    </g>
    <g id="xtick_5">
     <g id="line2d_9">
      <path clip-path="url(#p49de94d83a)" d="M 233.640963 301.8675 
L 233.640963 35.7555 
" style="fill:none;stroke:#b0b0b0;stroke-linecap:square;stroke-width:0.8;"/>
     </g>
     <g id="line2d_10">
      <g>
       <use style="stroke:#000000;stroke-width:0.8;" x="233.640963" xlink:href="#me4cb46dfce" y="301.8675"/>
      </g>
     </g>
     <g id="text_5">
      <!-- 200 -->
      <defs>
       <path d="M 19.1875 8.296875 
L 53.609375 8.296875 
L 53.609375 0 
L 7.328125 0 
L 7.328125 8.296875 
Q 12.9375 14.109375 22.625 23.890625 
Q 32.328125 33.6875 34.8125 36.53125 
Q 39.546875 41.84375 41.421875 45.53125 
Q 43.3125 49.21875 43.3125 52.78125 
Q 43.3125 58.59375 39.234375 62.25 
Q 35.15625 65.921875 28.609375 65.921875 
Q 23.96875 65.921875 18.8125 64.3125 
Q 13.671875 62.703125 7.8125 59.421875 
L 7.8125 69.390625 
Q 13.765625 71.78125 18.9375 73 
Q 24.125 74.21875 28.421875 74.21875 
Q 39.75 74.21875 46.484375 68.546875 
Q 53.21875 62.890625 53.21875 53.421875 
Q 53.21875 48.921875 51.53125 44.890625 
Q 49.859375 40.875 45.40625 35.40625 
Q 44.1875 33.984375 37.640625 27.21875 
Q 31.109375 20.453125 19.1875 8.296875 
z
" id="DejaVuSans-32"/>
      </defs>
      <g transform="translate(224.097213 316.465937)scale(0.1 -0.1)">
       <use xlink:href="#DejaVuSans-32"/>
       <use x="63.623047" xlink:href="#DejaVuSans-30"/>
       <use x="127.246094" xlink:href="#DejaVuSans-30"/>
      </g>
     </g>
    </g>
    <g id="xtick_6">
     <g id="line2d_11">
      <path clip-path="url(#p49de94d83a)" d="M 281.900422 301.8675 
L 281.900422 35.7555 
" style="fill:none;stroke:#b0b0b0;stroke-linecap:square;stroke-width:0.8;"/>
     </g>
     <g id="line2d_12">
      <g>
       <use style="stroke:#000000;stroke-width:0.8;" x="281.900422" xlink:href="#me4cb46dfce" y="301.8675"/>
      </g>
     </g>
     <g id="text_6">
      <!-- 250 -->
      <g transform="translate(272.356672 316.465937)scale(0.1 -0.1)">
       <use xlink:href="#DejaVuSans-32"/>
       <use x="63.623047" xlink:href="#DejaVuSans-35"/>
       <use x="127.246094" xlink:href="#DejaVuSans-30"/>
      </g>
     </g>
    </g>
    <g id="xtick_7">
     <g id="line2d_13">
      <path clip-path="url(#p49de94d83a)" d="M 330.159882 301.8675 
L 330.159882 35.7555 
" style="fill:none;stroke:#b0b0b0;stroke-linecap:square;stroke-width:0.8;"/>
     </g>
     <g id="line2d_14">
      <g>
       <use style="stroke:#000000;stroke-width:0.8;" x="330.159882" xlink:href="#me4cb46dfce" y="301.8675"/>
      </g>
     </g>
     <g id="text_7">
      <!-- 300 -->
      <defs>
       <path d="M 40.578125 39.3125 
Q 47.65625 37.796875 51.625 33 
Q 55.609375 28.21875 55.609375 21.1875 
Q 55.609375 10.40625 48.1875 4.484375 
Q 40.765625 -1.421875 27.09375 -1.421875 
Q 22.515625 -1.421875 17.65625 -0.515625 
Q 12.796875 0.390625 7.625 2.203125 
L 7.625 11.71875 
Q 11.71875 9.328125 16.59375 8.109375 
Q 21.484375 6.890625 26.8125 6.890625 
Q 36.078125 6.890625 40.9375 10.546875 
Q 45.796875 14.203125 45.796875 21.1875 
Q 45.796875 27.640625 41.28125 31.265625 
Q 36.765625 34.90625 28.71875 34.90625 
L 20.21875 34.90625 
L 20.21875 43.015625 
L 29.109375 43.015625 
Q 36.375 43.015625 40.234375 45.921875 
Q 44.09375 48.828125 44.09375 54.296875 
Q 44.09375 59.90625 40.109375 62.90625 
Q 36.140625 65.921875 28.71875 65.921875 
Q 24.65625 65.921875 20.015625 65.03125 
Q 15.375 64.15625 9.8125 62.3125 
L 9.8125 71.09375 
Q 15.4375 72.65625 20.34375 73.4375 
Q 25.25 74.21875 29.59375 74.21875 
Q 40.828125 74.21875 47.359375 69.109375 
Q 53.90625 64.015625 53.90625 55.328125 
Q 53.90625 49.265625 50.4375 45.09375 
Q 46.96875 40.921875 40.578125 39.3125 
z
" id="DejaVuSans-33"/>
      </defs>
      <g transform="translate(320.616132 316.465937)scale(0.1 -0.1)">
       <use xlink:href="#DejaVuSans-33"/>
       <use x="63.623047" xlink:href="#DejaVuSans-30"/>
       <use x="127.246094" xlink:href="#DejaVuSans-30"/>
      </g>
     </g>
    </g>
    <g id="xtick_8">
     <g id="line2d_15">
      <path clip-path="url(#p49de94d83a)" d="M 378.419341 301.8675 
L 378.419341 35.7555 
" style="fill:none;stroke:#b0b0b0;stroke-linecap:square;stroke-width:0.8;"/>
     </g>
     <g id="line2d_16">
      <g>
       <use style="stroke:#000000;stroke-width:0.8;" x="378.419341" xlink:href="#me4cb46dfce" y="301.8675"/>
      </g>
     </g>
     <g id="text_8">
      <!-- 350 -->
      <g transform="translate(368.875591 316.465937)scale(0.1 -0.1)">
       <use xlink:href="#DejaVuSans-33"/>
       <use x="63.623047" xlink:href="#DejaVuSans-35"/>
       <use x="127.246094" xlink:href="#DejaVuSans-30"/>
      </g>
     </g>
    </g>
    <g id="text_9">
     <!-- Time(s) -->
     <defs>
      <path d="M -0.296875 72.90625 
L 61.375 72.90625 
L 61.375 64.59375 
L 35.5 64.59375 
L 35.5 0 
L 25.59375 0 
L 25.59375 64.59375 
L -0.296875 64.59375 
z
" id="DejaVuSans-54"/>
      <path d="M 9.421875 54.6875 
L 18.40625 54.6875 
L 18.40625 0 
L 9.421875 0 
z
M 9.421875 75.984375 
L 18.40625 75.984375 
L 18.40625 64.59375 
L 9.421875 64.59375 
z
" id="DejaVuSans-69"/>
      <path d="M 52 44.1875 
Q 55.375 50.25 60.0625 53.125 
Q 64.75 56 71.09375 56 
Q 79.640625 56 84.28125 50.015625 
Q 88.921875 44.046875 88.921875 33.015625 
L 88.921875 0 
L 79.890625 0 
L 79.890625 32.71875 
Q 79.890625 40.578125 77.09375 44.375 
Q 74.3125 48.1875 68.609375 48.1875 
Q 61.625 48.1875 57.5625 43.546875 
Q 53.515625 38.921875 53.515625 30.90625 
L 53.515625 0 
L 44.484375 0 
L 44.484375 32.71875 
Q 44.484375 40.625 41.703125 44.40625 
Q 38.921875 48.1875 33.109375 48.1875 
Q 26.21875 48.1875 22.15625 43.53125 
Q 18.109375 38.875 18.109375 30.90625 
L 18.109375 0 
L 9.078125 0 
L 9.078125 54.6875 
L 18.109375 54.6875 
L 18.109375 46.1875 
Q 21.1875 51.21875 25.484375 53.609375 
Q 29.78125 56 35.6875 56 
Q 41.65625 56 45.828125 52.96875 
Q 50 49.953125 52 44.1875 
z
" id="DejaVuSans-6d"/>
      <path d="M 56.203125 29.59375 
L 56.203125 25.203125 
L 14.890625 25.203125 
Q 15.484375 15.921875 20.484375 11.0625 
Q 25.484375 6.203125 34.421875 6.203125 
Q 39.59375 6.203125 44.453125 7.46875 
Q 49.3125 8.734375 54.109375 11.28125 
L 54.109375 2.78125 
Q 49.265625 0.734375 44.1875 -0.34375 
Q 39.109375 -1.421875 33.890625 -1.421875 
Q 20.796875 -1.421875 13.15625 6.1875 
Q 5.515625 13.8125 5.515625 26.8125 
Q 5.515625 40.234375 12.765625 48.109375 
Q 20.015625 56 32.328125 56 
Q 43.359375 56 49.78125 48.890625 
Q 56.203125 41.796875 56.203125 29.59375 
z
M 47.21875 32.234375 
Q 47.125 39.59375 43.09375 43.984375 
Q 39.0625 48.390625 32.421875 48.390625 
Q 24.90625 48.390625 20.390625 44.140625 
Q 15.875 39.890625 15.1875 32.171875 
z
" id="DejaVuSans-65"/>
      <path d="M 31 75.875 
Q 24.46875 64.65625 21.28125 53.65625 
Q 18.109375 42.671875 18.109375 31.390625 
Q 18.109375 20.125 21.3125 9.0625 
Q 24.515625 -2 31 -13.1875 
L 23.1875 -13.1875 
Q 15.875 -1.703125 12.234375 9.375 
Q 8.59375 20.453125 8.59375 31.390625 
Q 8.59375 42.28125 12.203125 53.3125 
Q 15.828125 64.359375 23.1875 75.875 
z
" id="DejaVuSans-28"/>
      <path d="M 44.28125 53.078125 
L 44.28125 44.578125 
Q 40.484375 46.53125 36.375 47.5 
Q 32.28125 48.484375 27.875 48.484375 
Q 21.1875 48.484375 17.84375 46.4375 
Q 14.5 44.390625 14.5 40.28125 
Q 14.5 37.15625 16.890625 35.375 
Q 19.28125 33.59375 26.515625 31.984375 
L 29.59375 31.296875 
Q 39.15625 29.25 43.1875 25.515625 
Q 47.21875 21.78125 47.21875 15.09375 
Q 47.21875 7.46875 41.1875 3.015625 
Q 35.15625 -1.421875 24.609375 -1.421875 
Q 20.21875 -1.421875 15.453125 -0.5625 
Q 10.6875 0.296875 5.421875 2 
L 5.421875 11.28125 
Q 10.40625 8.6875 15.234375 7.390625 
Q 20.0625 6.109375 24.8125 6.109375 
Q 31.15625 6.109375 34.5625 8.28125 
Q 37.984375 10.453125 37.984375 14.40625 
Q 37.984375 18.0625 35.515625 20.015625 
Q 33.0625 21.96875 24.703125 23.78125 
L 21.578125 24.515625 
Q 13.234375 26.265625 9.515625 29.90625 
Q 5.8125 33.546875 5.8125 39.890625 
Q 5.8125 47.609375 11.28125 51.796875 
Q 16.75 56 26.8125 56 
Q 31.78125 56 36.171875 55.265625 
Q 40.578125 54.546875 44.28125 53.078125 
z
" id="DejaVuSans-73"/>
      <path d="M 8.015625 75.875 
L 15.828125 75.875 
Q 23.140625 64.359375 26.78125 53.3125 
Q 30.421875 42.28125 30.421875 31.390625 
Q 30.421875 20.453125 26.78125 9.375 
Q 23.140625 -1.703125 15.828125 -13.1875 
L 8.015625 -13.1875 
Q 14.5 -2 17.703125 9.0625 
Q 20.90625 20.125 20.90625 31.390625 
Q 20.90625 42.671875 17.703125 53.65625 
Q 14.5 64.65625 8.015625 75.875 
z
" id="DejaVuSans-29"/>
     </defs>
     <g transform="translate(200.269375 330.144062)scale(0.1 -0.1)">
      <use xlink:href="#DejaVuSans-54"/>
      <use x="61.037109" xlink:href="#DejaVuSans-69"/>
      <use x="88.820312" xlink:href="#DejaVuSans-6d"/>
      <use x="186.232422" xlink:href="#DejaVuSans-65"/>
      <use x="247.755859" xlink:href="#DejaVuSans-28"/>
      <use x="286.769531" xlink:href="#DejaVuSans-73"/>
      <use x="338.869141" xlink:href="#DejaVuSans-29"/>
     </g>
    </g>
   </g>
   <g id="matplotlib.axis_2">
    <g id="ytick_1">
     <g id="line2d_17">
      <path clip-path="url(#p49de94d83a)" d="M 40.603125 285.980216 
L 397.723125 285.980216 
" style="fill:none;stroke:#b0b0b0;stroke-linecap:square;stroke-width:0.8;"/>
     </g>
     <g id="line2d_18">
      <defs>
       <path d="M 0 0 
L -3.5 0 
" id="mfac6f4375d" style="stroke:#000000;stroke-width:0.8;"/>
      </defs>
      <g>
       <use style="stroke:#000000;stroke-width:0.8;" x="40.603125" xlink:href="#mfac6f4375d" y="285.980216"/>
      </g>
     </g>
     <g id="text_10">
      <!-- 0 -->
      <g transform="translate(27.240625 289.779435)scale(0.1 -0.1)">
       <use xlink:href="#DejaVuSans-30"/>
      </g>
     </g>
    </g>
    <g id="ytick_2">
     <g id="line2d_19">
      <path clip-path="url(#p49de94d83a)" d="M 40.603125 254.205649 
L 397.723125 254.205649 
" style="fill:none;stroke:#b0b0b0;stroke-linecap:square;stroke-width:0.8;"/>
     </g>
     <g id="line2d_20">
      <g>
       <use style="stroke:#000000;stroke-width:0.8;" x="40.603125" xlink:href="#mfac6f4375d" y="254.205649"/>
      </g>
     </g>
     <g id="text_11">
      <!-- 2 -->
      <g transform="translate(27.240625 258.004868)scale(0.1 -0.1)">
       <use xlink:href="#DejaVuSans-32"/>
      </g>
     </g>
    </g>
    <g id="ytick_3">
     <g id="line2d_21">
      <path clip-path="url(#p49de94d83a)" d="M 40.603125 222.431082 
L 397.723125 222.431082 
" style="fill:none;stroke:#b0b0b0;stroke-linecap:square;stroke-width:0.8;"/>
     </g>
     <g id="line2d_22">
      <g>
       <use style="stroke:#000000;stroke-width:0.8;" x="40.603125" xlink:href="#mfac6f4375d" y="222.431082"/>
      </g>
     </g>
     <g id="text_12">
      <!-- 4 -->
      <defs>
       <path d="M 37.796875 64.3125 
L 12.890625 25.390625 
L 37.796875 25.390625 
z
M 35.203125 72.90625 
L 47.609375 72.90625 
L 47.609375 25.390625 
L 58.015625 25.390625 
L 58.015625 17.1875 
L 47.609375 17.1875 
L 47.609375 0 
L 37.796875 0 
L 37.796875 17.1875 
L 4.890625 17.1875 
L 4.890625 26.703125 
z
" id="DejaVuSans-34"/>
      </defs>
      <g transform="translate(27.240625 226.230301)scale(0.1 -0.1)">
       <use xlink:href="#DejaVuSans-34"/>
      </g>
     </g>
    </g>
    <g id="ytick_4">
     <g id="line2d_23">
      <path clip-path="url(#p49de94d83a)" d="M 40.603125 190.656515 
L 397.723125 190.656515 
" style="fill:none;stroke:#b0b0b0;stroke-linecap:square;stroke-width:0.8;"/>
     </g>
     <g id="line2d_24">
      <g>
       <use style="stroke:#000000;stroke-width:0.8;" x="40.603125" xlink:href="#mfac6f4375d" y="190.656515"/>
      </g>
     </g>
     <g id="text_13">
      <!-- 6 -->
      <defs>
       <path d="M 33.015625 40.375 
Q 26.375 40.375 22.484375 35.828125 
Q 18.609375 31.296875 18.609375 23.390625 
Q 18.609375 15.53125 22.484375 10.953125 
Q 26.375 6.390625 33.015625 6.390625 
Q 39.65625 6.390625 43.53125 10.953125 
Q 47.40625 15.53125 47.40625 23.390625 
Q 47.40625 31.296875 43.53125 35.828125 
Q 39.65625 40.375 33.015625 40.375 
z
M 52.59375 71.296875 
L 52.59375 62.3125 
Q 48.875 64.0625 45.09375 64.984375 
Q 41.3125 65.921875 37.59375 65.921875 
Q 27.828125 65.921875 22.671875 59.328125 
Q 17.53125 52.734375 16.796875 39.40625 
Q 19.671875 43.65625 24.015625 45.921875 
Q 28.375 48.1875 33.59375 48.1875 
Q 44.578125 48.1875 50.953125 41.515625 
Q 57.328125 34.859375 57.328125 23.390625 
Q 57.328125 12.15625 50.6875 5.359375 
Q 44.046875 -1.421875 33.015625 -1.421875 
Q 20.359375 -1.421875 13.671875 8.265625 
Q 6.984375 17.96875 6.984375 36.375 
Q 6.984375 53.65625 15.1875 63.9375 
Q 23.390625 74.21875 37.203125 74.21875 
Q 40.921875 74.21875 44.703125 73.484375 
Q 48.484375 72.75 52.59375 71.296875 
z
" id="DejaVuSans-36"/>
      </defs>
      <g transform="translate(27.240625 194.455734)scale(0.1 -0.1)">
       <use xlink:href="#DejaVuSans-36"/>
      </g>
     </g>
    </g>
    <g id="ytick_5">
     <g id="line2d_25">
      <path clip-path="url(#p49de94d83a)" d="M 40.603125 158.881948 
L 397.723125 158.881948 
" style="fill:none;stroke:#b0b0b0;stroke-linecap:square;stroke-width:0.8;"/>
     </g>
     <g id="line2d_26">
      <g>
       <use style="stroke:#000000;stroke-width:0.8;" x="40.603125" xlink:href="#mfac6f4375d" y="158.881948"/>
      </g>
     </g>
     <g id="text_14">
      <!-- 8 -->
      <defs>
       <path d="M 31.78125 34.625 
Q 24.75 34.625 20.71875 30.859375 
Q 16.703125 27.09375 16.703125 20.515625 
Q 16.703125 13.921875 20.71875 10.15625 
Q 24.75 6.390625 31.78125 6.390625 
Q 38.8125 6.390625 42.859375 10.171875 
Q 46.921875 13.96875 46.921875 20.515625 
Q 46.921875 27.09375 42.890625 30.859375 
Q 38.875 34.625 31.78125 34.625 
z
M 21.921875 38.8125 
Q 15.578125 40.375 12.03125 44.71875 
Q 8.5 49.078125 8.5 55.328125 
Q 8.5 64.0625 14.71875 69.140625 
Q 20.953125 74.21875 31.78125 74.21875 
Q 42.671875 74.21875 48.875 69.140625 
Q 55.078125 64.0625 55.078125 55.328125 
Q 55.078125 49.078125 51.53125 44.71875 
Q 48 40.375 41.703125 38.8125 
Q 48.828125 37.15625 52.796875 32.3125 
Q 56.78125 27.484375 56.78125 20.515625 
Q 56.78125 9.90625 50.3125 4.234375 
Q 43.84375 -1.421875 31.78125 -1.421875 
Q 19.734375 -1.421875 13.25 4.234375 
Q 6.78125 9.90625 6.78125 20.515625 
Q 6.78125 27.484375 10.78125 32.3125 
Q 14.796875 37.15625 21.921875 38.8125 
z
M 18.3125 54.390625 
Q 18.3125 48.734375 21.84375 45.5625 
Q 25.390625 42.390625 31.78125 42.390625 
Q 38.140625 42.390625 41.71875 45.5625 
Q 45.3125 48.734375 45.3125 54.390625 
Q 45.3125 60.0625 41.71875 63.234375 
Q 38.140625 66.40625 31.78125 66.40625 
Q 25.390625 66.40625 21.84375 63.234375 
Q 18.3125 60.0625 18.3125 54.390625 
z
" id="DejaVuSans-38"/>
      </defs>
      <g transform="translate(27.240625 162.681167)scale(0.1 -0.1)">
       <use xlink:href="#DejaVuSans-38"/>
      </g>
     </g>
    </g>
    <g id="ytick_6">
     <g id="line2d_27">
      <path clip-path="url(#p49de94d83a)" d="M 40.603125 127.107381 
L 397.723125 127.107381 
" style="fill:none;stroke:#b0b0b0;stroke-linecap:square;stroke-width:0.8;"/>
     </g>
     <g id="line2d_28">
      <g>
       <use style="stroke:#000000;stroke-width:0.8;" x="40.603125" xlink:href="#mfac6f4375d" y="127.107381"/>
      </g>
     </g>
     <g id="text_15">
      <!-- 10 -->
      <g transform="translate(20.878125 130.906599)scale(0.1 -0.1)">
       <use xlink:href="#DejaVuSans-31"/>
       <use x="63.623047" xlink:href="#DejaVuSans-30"/>
      </g>
     </g>
    </g>
    <g id="ytick_7">
     <g id="line2d_29">
      <path clip-path="url(#p49de94d83a)" d="M 40.603125 95.332813 
L 397.723125 95.332813 
" style="fill:none;stroke:#b0b0b0;stroke-linecap:square;stroke-width:0.8;"/>
     </g>
     <g id="line2d_30">
      <g>
       <use style="stroke:#000000;stroke-width:0.8;" x="40.603125" xlink:href="#mfac6f4375d" y="95.332813"/>
      </g>
     </g>
     <g id="text_16">
      <!-- 12 -->
      <g transform="translate(20.878125 99.132032)scale(0.1 -0.1)">
       <use xlink:href="#DejaVuSans-31"/>
       <use x="63.623047" xlink:href="#DejaVuSans-32"/>
      </g>
     </g>
    </g>
    <g id="ytick_8">
     <g id="line2d_31">
      <path clip-path="url(#p49de94d83a)" d="M 40.603125 63.558246 
L 397.723125 63.558246 
" style="fill:none;stroke:#b0b0b0;stroke-linecap:square;stroke-width:0.8;"/>
     </g>
     <g id="line2d_32">
      <g>
       <use style="stroke:#000000;stroke-width:0.8;" x="40.603125" xlink:href="#mfac6f4375d" y="63.558246"/>
      </g>
     </g>
     <g id="text_17">
      <!-- 14 -->
      <g transform="translate(20.878125 67.357465)scale(0.1 -0.1)">
       <use xlink:href="#DejaVuSans-31"/>
       <use x="63.623047" xlink:href="#DejaVuSans-34"/>
      </g>
     </g>
    </g>
    <g id="text_18">
     <!-- Number of drone encounters -->
     <defs>
      <path d="M 9.8125 72.90625 
L 23.09375 72.90625 
L 55.421875 11.921875 
L 55.421875 72.90625 
L 64.984375 72.90625 
L 64.984375 0 
L 51.703125 0 
L 19.390625 60.984375 
L 19.390625 0 
L 9.8125 0 
z
" id="DejaVuSans-4e"/>
      <path d="M 8.5 21.578125 
L 8.5 54.6875 
L 17.484375 54.6875 
L 17.484375 21.921875 
Q 17.484375 14.15625 20.5 10.265625 
Q 23.53125 6.390625 29.59375 6.390625 
Q 36.859375 6.390625 41.078125 11.03125 
Q 45.3125 15.671875 45.3125 23.6875 
L 45.3125 54.6875 
L 54.296875 54.6875 
L 54.296875 0 
L 45.3125 0 
L 45.3125 8.40625 
Q 42.046875 3.421875 37.71875 1 
Q 33.40625 -1.421875 27.6875 -1.421875 
Q 18.265625 -1.421875 13.375 4.4375 
Q 8.5 10.296875 8.5 21.578125 
z
M 31.109375 56 
z
" id="DejaVuSans-75"/>
      <path d="M 48.6875 27.296875 
Q 48.6875 37.203125 44.609375 42.84375 
Q 40.53125 48.484375 33.40625 48.484375 
Q 26.265625 48.484375 22.1875 42.84375 
Q 18.109375 37.203125 18.109375 27.296875 
Q 18.109375 17.390625 22.1875 11.75 
Q 26.265625 6.109375 33.40625 6.109375 
Q 40.53125 6.109375 44.609375 11.75 
Q 48.6875 17.390625 48.6875 27.296875 
z
M 18.109375 46.390625 
Q 20.953125 51.265625 25.265625 53.625 
Q 29.59375 56 35.59375 56 
Q 45.5625 56 51.78125 48.09375 
Q 58.015625 40.1875 58.015625 27.296875 
Q 58.015625 14.40625 51.78125 6.484375 
Q 45.5625 -1.421875 35.59375 -1.421875 
Q 29.59375 -1.421875 25.265625 0.953125 
Q 20.953125 3.328125 18.109375 8.203125 
L 18.109375 0 
L 9.078125 0 
L 9.078125 75.984375 
L 18.109375 75.984375 
z
" id="DejaVuSans-62"/>
      <path d="M 41.109375 46.296875 
Q 39.59375 47.171875 37.8125 47.578125 
Q 36.03125 48 33.890625 48 
Q 26.265625 48 22.1875 43.046875 
Q 18.109375 38.09375 18.109375 28.8125 
L 18.109375 0 
L 9.078125 0 
L 9.078125 54.6875 
L 18.109375 54.6875 
L 18.109375 46.1875 
Q 20.953125 51.171875 25.484375 53.578125 
Q 30.03125 56 36.53125 56 
Q 37.453125 56 38.578125 55.875 
Q 39.703125 55.765625 41.0625 55.515625 
z
" id="DejaVuSans-72"/>
      <path id="DejaVuSans-20"/>
      <path d="M 30.609375 48.390625 
Q 23.390625 48.390625 19.1875 42.75 
Q 14.984375 37.109375 14.984375 27.296875 
Q 14.984375 17.484375 19.15625 11.84375 
Q 23.34375 6.203125 30.609375 6.203125 
Q 37.796875 6.203125 41.984375 11.859375 
Q 46.1875 17.53125 46.1875 27.296875 
Q 46.1875 37.015625 41.984375 42.703125 
Q 37.796875 48.390625 30.609375 48.390625 
z
M 30.609375 56 
Q 42.328125 56 49.015625 48.375 
Q 55.71875 40.765625 55.71875 27.296875 
Q 55.71875 13.875 49.015625 6.21875 
Q 42.328125 -1.421875 30.609375 -1.421875 
Q 18.84375 -1.421875 12.171875 6.21875 
Q 5.515625 13.875 5.515625 27.296875 
Q 5.515625 40.765625 12.171875 48.375 
Q 18.84375 56 30.609375 56 
z
" id="DejaVuSans-6f"/>
      <path d="M 37.109375 75.984375 
L 37.109375 68.5 
L 28.515625 68.5 
Q 23.6875 68.5 21.796875 66.546875 
Q 19.921875 64.59375 19.921875 59.515625 
L 19.921875 54.6875 
L 34.71875 54.6875 
L 34.71875 47.703125 
L 19.921875 47.703125 
L 19.921875 0 
L 10.890625 0 
L 10.890625 47.703125 
L 2.296875 47.703125 
L 2.296875 54.6875 
L 10.890625 54.6875 
L 10.890625 58.5 
Q 10.890625 67.625 15.140625 71.796875 
Q 19.390625 75.984375 28.609375 75.984375 
z
" id="DejaVuSans-66"/>
      <path d="M 45.40625 46.390625 
L 45.40625 75.984375 
L 54.390625 75.984375 
L 54.390625 0 
L 45.40625 0 
L 45.40625 8.203125 
Q 42.578125 3.328125 38.25 0.953125 
Q 33.9375 -1.421875 27.875 -1.421875 
Q 17.96875 -1.421875 11.734375 6.484375 
Q 5.515625 14.40625 5.515625 27.296875 
Q 5.515625 40.1875 11.734375 48.09375 
Q 17.96875 56 27.875 56 
Q 33.9375 56 38.25 53.625 
Q 42.578125 51.265625 45.40625 46.390625 
z
M 14.796875 27.296875 
Q 14.796875 17.390625 18.875 11.75 
Q 22.953125 6.109375 30.078125 6.109375 
Q 37.203125 6.109375 41.296875 11.75 
Q 45.40625 17.390625 45.40625 27.296875 
Q 45.40625 37.203125 41.296875 42.84375 
Q 37.203125 48.484375 30.078125 48.484375 
Q 22.953125 48.484375 18.875 42.84375 
Q 14.796875 37.203125 14.796875 27.296875 
z
" id="DejaVuSans-64"/>
      <path d="M 54.890625 33.015625 
L 54.890625 0 
L 45.90625 0 
L 45.90625 32.71875 
Q 45.90625 40.484375 42.875 44.328125 
Q 39.84375 48.1875 33.796875 48.1875 
Q 26.515625 48.1875 22.3125 43.546875 
Q 18.109375 38.921875 18.109375 30.90625 
L 18.109375 0 
L 9.078125 0 
L 9.078125 54.6875 
L 18.109375 54.6875 
L 18.109375 46.1875 
Q 21.34375 51.125 25.703125 53.5625 
Q 30.078125 56 35.796875 56 
Q 45.21875 56 50.046875 50.171875 
Q 54.890625 44.34375 54.890625 33.015625 
z
" id="DejaVuSans-6e"/>
      <path d="M 48.78125 52.59375 
L 48.78125 44.1875 
Q 44.96875 46.296875 41.140625 47.34375 
Q 37.3125 48.390625 33.40625 48.390625 
Q 24.65625 48.390625 19.8125 42.84375 
Q 14.984375 37.3125 14.984375 27.296875 
Q 14.984375 17.28125 19.8125 11.734375 
Q 24.65625 6.203125 33.40625 6.203125 
Q 37.3125 6.203125 41.140625 7.25 
Q 44.96875 8.296875 48.78125 10.40625 
L 48.78125 2.09375 
Q 45.015625 0.34375 40.984375 -0.53125 
Q 36.96875 -1.421875 32.421875 -1.421875 
Q 20.0625 -1.421875 12.78125 6.34375 
Q 5.515625 14.109375 5.515625 27.296875 
Q 5.515625 40.671875 12.859375 48.328125 
Q 20.21875 56 33.015625 56 
Q 37.15625 56 41.109375 55.140625 
Q 45.0625 54.296875 48.78125 52.59375 
z
" id="DejaVuSans-63"/>
      <path d="M 18.3125 70.21875 
L 18.3125 54.6875 
L 36.8125 54.6875 
L 36.8125 47.703125 
L 18.3125 47.703125 
L 18.3125 18.015625 
Q 18.3125 11.328125 20.140625 9.421875 
Q 21.96875 7.515625 27.59375 7.515625 
L 36.8125 7.515625 
L 36.8125 0 
L 27.59375 0 
Q 17.1875 0 13.234375 3.875 
Q 9.28125 7.765625 9.28125 18.015625 
L 9.28125 47.703125 
L 2.6875 47.703125 
L 2.6875 54.6875 
L 9.28125 54.6875 
L 9.28125 70.21875 
z
" id="DejaVuSans-74"/>
     </defs>
     <g transform="translate(14.798438 241.10525)rotate(-90)scale(0.1 -0.1)">
      <use xlink:href="#DejaVuSans-4e"/>
      <use x="74.804688" xlink:href="#DejaVuSans-75"/>
      <use x="138.183594" xlink:href="#DejaVuSans-6d"/>
      <use x="235.595703" xlink:href="#DejaVuSans-62"/>
      <use x="299.072266" xlink:href="#DejaVuSans-65"/>
      <use x="360.595703" xlink:href="#DejaVuSans-72"/>
      <use x="401.708984" xlink:href="#DejaVuSans-20"/>
      <use x="433.496094" xlink:href="#DejaVuSans-6f"/>
      <use x="494.677734" xlink:href="#DejaVuSans-66"/>
      <use x="529.882812" xlink:href="#DejaVuSans-20"/>
      <use x="561.669922" xlink:href="#DejaVuSans-64"/>
      <use x="625.146484" xlink:href="#DejaVuSans-72"/>
      <use x="666.228516" xlink:href="#DejaVuSans-6f"/>
      <use x="727.410156" xlink:href="#DejaVuSans-6e"/>
      <use x="790.789062" xlink:href="#DejaVuSans-65"/>
      <use x="852.3125" xlink:href="#DejaVuSans-20"/>
      <use x="884.099609" xlink:href="#DejaVuSans-65"/>
      <use x="945.623047" xlink:href="#DejaVuSans-6e"/>
      <use x="1009.001953" xlink:href="#DejaVuSans-63"/>
      <use x="1063.982422" xlink:href="#DejaVuSans-6f"/>
      <use x="1125.164062" xlink:href="#DejaVuSans-75"/>
      <use x="1188.542969" xlink:href="#DejaVuSans-6e"/>
      <use x="1251.921875" xlink:href="#DejaVuSans-74"/>
      <use x="1291.130859" xlink:href="#DejaVuSans-65"/>
      <use x="1352.654297" xlink:href="#DejaVuSans-72"/>
      <use x="1393.767578" xlink:href="#DejaVuSans-73"/>
     </g>
    </g>
   </g>
   <g id="line2d_33">
    <path clip-path="url(#p49de94d83a)" d="M 40.603125 55.614604 
L 45.429071 55.614604 
L 48.324639 79.44553 
L 49.289828 79.44553 
L 50.255017 87.389172 
L 51.220206 103.276455 
L 52.185395 103.276455 
L 56.046152 135.051022 
L 57.97653 166.82559 
L 59.906909 166.82559 
L 60.872098 182.712873 
L 61.837287 190.656515 
L 65.698044 190.656515 
L 68.593611 214.48744 
L 72.454368 214.48744 
L 73.419557 222.431082 
L 77.280314 222.431082 
L 78.245503 230.374724 
L 82.10626 230.374724 
L 84.036639 246.262007 
L 91.758152 246.262007 
L 92.723341 254.205649 
L 95.618909 254.205649 
L 96.584098 270.092933 
L 102.375233 270.092933 
L 103.340422 278.036575 
L 104.305611 278.036575 
L 105.270801 285.980216 
L 396.757936 285.980216 
L 396.757936 285.980216 
" style="fill:none;stroke:#008000;stroke-linecap:square;stroke-width:1.5;"/>
   </g>
   <g id="patch_3">
    <path d="M 40.603125 301.8675 
L 40.603125 35.7555 
" style="fill:none;stroke:#000000;stroke-linecap:square;stroke-linejoin:miter;stroke-width:0.8;"/>
   </g>
   <g id="patch_4">
    <path d="M 397.723125 301.8675 
L 397.723125 35.7555 
" style="fill:none;stroke:#000000;stroke-linecap:square;stroke-linejoin:miter;stroke-width:0.8;"/>
   </g>
   <g id="patch_5">
    <path d="M 40.603125 301.8675 
L 397.723125 301.8675 
" style="fill:none;stroke:#000000;stroke-linecap:square;stroke-linejoin:miter;stroke-width:0.8;"/>
   </g>
   <g id="patch_6">
    <path d="M 40.603125 35.7555 
L 397.723125 35.7555 
" style="fill:none;stroke:#000000;stroke-linecap:square;stroke-linejoin:miter;stroke-width:0.8;"/>
   </g>
   <g id="text_19">
    <!-- inertia max (x,y): (5.0,  14.5) -->
    <defs>
     <path d="M 34.28125 27.484375 
Q 23.390625 27.484375 19.1875 25 
Q 14.984375 22.515625 14.984375 16.5 
Q 14.984375 11.71875 18.140625 8.90625 
Q 21.296875 6.109375 26.703125 6.109375 
Q 34.1875 6.109375 38.703125 11.40625 
Q 43.21875 16.703125 43.21875 25.484375 
L 43.21875 27.484375 
z
M 52.203125 31.203125 
L 52.203125 0 
L 43.21875 0 
L 43.21875 8.296875 
Q 40.140625 3.328125 35.546875 0.953125 
Q 30.953125 -1.421875 24.3125 -1.421875 
Q 15.921875 -1.421875 10.953125 3.296875 
Q 6 8.015625 6 15.921875 
Q 6 25.140625 12.171875 29.828125 
Q 18.359375 34.515625 30.609375 34.515625 
L 43.21875 34.515625 
L 43.21875 35.40625 
Q 43.21875 41.609375 39.140625 45 
Q 35.0625 48.390625 27.6875 48.390625 
Q 23 48.390625 18.546875 47.265625 
Q 14.109375 46.140625 10.015625 43.890625 
L 10.015625 52.203125 
Q 14.9375 54.109375 19.578125 55.046875 
Q 24.21875 56 28.609375 56 
Q 40.484375 56 46.34375 49.84375 
Q 52.203125 43.703125 52.203125 31.203125 
z
" id="DejaVuSans-61"/>
     <path d="M 54.890625 54.6875 
L 35.109375 28.078125 
L 55.90625 0 
L 45.3125 0 
L 29.390625 21.484375 
L 13.484375 0 
L 2.875 0 
L 24.125 28.609375 
L 4.6875 54.6875 
L 15.28125 54.6875 
L 29.78125 35.203125 
L 44.28125 54.6875 
z
" id="DejaVuSans-78"/>
     <path d="M 11.71875 12.40625 
L 22.015625 12.40625 
L 22.015625 4 
L 14.015625 -11.625 
L 7.71875 -11.625 
L 11.71875 4 
z
" id="DejaVuSans-2c"/>
     <path d="M 32.171875 -5.078125 
Q 28.375 -14.84375 24.75 -17.8125 
Q 21.140625 -20.796875 15.09375 -20.796875 
L 7.90625 -20.796875 
L 7.90625 -13.28125 
L 13.1875 -13.28125 
Q 16.890625 -13.28125 18.9375 -11.515625 
Q 21 -9.765625 23.484375 -3.21875 
L 25.09375 0.875 
L 2.984375 54.6875 
L 12.5 54.6875 
L 29.59375 11.921875 
L 46.6875 54.6875 
L 56.203125 54.6875 
z
" id="DejaVuSans-79"/>
     <path d="M 11.71875 12.40625 
L 22.015625 12.40625 
L 22.015625 0 
L 11.71875 0 
z
M 11.71875 51.703125 
L 22.015625 51.703125 
L 22.015625 39.3125 
L 11.71875 39.3125 
z
" id="DejaVuSans-3a"/>
     <path d="M 10.6875 12.40625 
L 21 12.40625 
L 21 0 
L 10.6875 0 
z
" id="DejaVuSans-2e"/>
    </defs>
    <g transform="translate(415.579125 245.878437)scale(0.1 -0.1)">
     <use xlink:href="#DejaVuSans-69"/>
     <use x="27.783203" xlink:href="#DejaVuSans-6e"/>
     <use x="91.162109" xlink:href="#DejaVuSans-65"/>
     <use x="152.685547" xlink:href="#DejaVuSans-72"/>
     <use x="193.798828" xlink:href="#DejaVuSans-74"/>
     <use x="233.007812" xlink:href="#DejaVuSans-69"/>
     <use x="260.791016" xlink:href="#DejaVuSans-61"/>
     <use x="322.070312" xlink:href="#DejaVuSans-20"/>
     <use x="353.857422" xlink:href="#DejaVuSans-6d"/>
     <use x="451.269531" xlink:href="#DejaVuSans-61"/>
     <use x="512.548828" xlink:href="#DejaVuSans-78"/>
     <use x="571.728516" xlink:href="#DejaVuSans-20"/>
     <use x="603.515625" xlink:href="#DejaVuSans-28"/>
     <use x="642.529297" xlink:href="#DejaVuSans-78"/>
     <use x="701.708984" xlink:href="#DejaVuSans-2c"/>
     <use x="733.496094" xlink:href="#DejaVuSans-79"/>
     <use x="792.675781" xlink:href="#DejaVuSans-29"/>
     <use x="831.689453" xlink:href="#DejaVuSans-3a"/>
     <use x="865.380859" xlink:href="#DejaVuSans-20"/>
     <use x="897.167969" xlink:href="#DejaVuSans-28"/>
     <use x="936.181641" xlink:href="#DejaVuSans-35"/>
     <use x="999.804688" xlink:href="#DejaVuSans-2e"/>
     <use x="1031.591797" xlink:href="#DejaVuSans-30"/>
     <use x="1095.214844" xlink:href="#DejaVuSans-2c"/>
     <use x="1127.001953" xlink:href="#DejaVuSans-20"/>
     <use x="1158.789062" xlink:href="#DejaVuSans-20"/>
     <use x="1190.576172" xlink:href="#DejaVuSans-31"/>
     <use x="1254.199219" xlink:href="#DejaVuSans-34"/>
     <use x="1317.822266" xlink:href="#DejaVuSans-2e"/>
     <use x="1349.609375" xlink:href="#DejaVuSans-35"/>
     <use x="1413.232422" xlink:href="#DejaVuSans-29"/>
    </g>
    <!-- lb max (x,y): (245.0,  0.0) -->
    <defs>
     <path d="M 9.421875 75.984375 
L 18.40625 75.984375 
L 18.40625 0 
L 9.421875 0 
z
" id="DejaVuSans-6c"/>
    </defs>
    <g transform="translate(415.579125 257.07625)scale(0.1 -0.1)">
     <use xlink:href="#DejaVuSans-6c"/>
     <use x="27.783203" xlink:href="#DejaVuSans-62"/>
     <use x="91.259766" xlink:href="#DejaVuSans-20"/>
     <use x="123.046875" xlink:href="#DejaVuSans-6d"/>
     <use x="220.458984" xlink:href="#DejaVuSans-61"/>
     <use x="281.738281" xlink:href="#DejaVuSans-78"/>
     <use x="340.917969" xlink:href="#DejaVuSans-20"/>
     <use x="372.705078" xlink:href="#DejaVuSans-28"/>
     <use x="411.71875" xlink:href="#DejaVuSans-78"/>
     <use x="470.898438" xlink:href="#DejaVuSans-2c"/>
     <use x="502.685547" xlink:href="#DejaVuSans-79"/>
     <use x="561.865234" xlink:href="#DejaVuSans-29"/>
     <use x="600.878906" xlink:href="#DejaVuSans-3a"/>
     <use x="634.570312" xlink:href="#DejaVuSans-20"/>
     <use x="666.357422" xlink:href="#DejaVuSans-28"/>
     <use x="705.371094" xlink:href="#DejaVuSans-32"/>
     <use x="768.994141" xlink:href="#DejaVuSans-34"/>
     <use x="832.617188" xlink:href="#DejaVuSans-35"/>
     <use x="896.240234" xlink:href="#DejaVuSans-2e"/>
     <use x="928.027344" xlink:href="#DejaVuSans-30"/>
     <use x="991.650391" xlink:href="#DejaVuSans-2c"/>
     <use x="1023.4375" xlink:href="#DejaVuSans-20"/>
     <use x="1055.224609" xlink:href="#DejaVuSans-20"/>
     <use x="1087.011719" xlink:href="#DejaVuSans-30"/>
     <use x="1150.634766" xlink:href="#DejaVuSans-2e"/>
     <use x="1182.421875" xlink:href="#DejaVuSans-30"/>
     <use x="1246.044922" xlink:href="#DejaVuSans-29"/>
    </g>
    <!-- nb max (x,y): (369.0,  0.0) -->
    <defs>
     <path d="M 10.984375 1.515625 
L 10.984375 10.5 
Q 14.703125 8.734375 18.5 7.8125 
Q 22.3125 6.890625 25.984375 6.890625 
Q 35.75 6.890625 40.890625 13.453125 
Q 46.046875 20.015625 46.78125 33.40625 
Q 43.953125 29.203125 39.59375 26.953125 
Q 35.25 24.703125 29.984375 24.703125 
Q 19.046875 24.703125 12.671875 31.3125 
Q 6.296875 37.9375 6.296875 49.421875 
Q 6.296875 60.640625 12.9375 67.421875 
Q 19.578125 74.21875 30.609375 74.21875 
Q 43.265625 74.21875 49.921875 64.515625 
Q 56.59375 54.828125 56.59375 36.375 
Q 56.59375 19.140625 48.40625 8.859375 
Q 40.234375 -1.421875 26.421875 -1.421875 
Q 22.703125 -1.421875 18.890625 -0.6875 
Q 15.09375 0.046875 10.984375 1.515625 
z
M 30.609375 32.421875 
Q 37.25 32.421875 41.125 36.953125 
Q 45.015625 41.5 45.015625 49.421875 
Q 45.015625 57.28125 41.125 61.84375 
Q 37.25 66.40625 30.609375 66.40625 
Q 23.96875 66.40625 20.09375 61.84375 
Q 16.21875 57.28125 16.21875 49.421875 
Q 16.21875 41.5 20.09375 36.953125 
Q 23.96875 32.421875 30.609375 32.421875 
z
" id="DejaVuSans-39"/>
    </defs>
    <g transform="translate(415.579125 268.274062)scale(0.1 -0.1)">
     <use xlink:href="#DejaVuSans-6e"/>
     <use x="63.378906" xlink:href="#DejaVuSans-62"/>
     <use x="126.855469" xlink:href="#DejaVuSans-20"/>
     <use x="158.642578" xlink:href="#DejaVuSans-6d"/>
     <use x="256.054688" xlink:href="#DejaVuSans-61"/>
     <use x="317.333984" xlink:href="#DejaVuSans-78"/>
     <use x="376.513672" xlink:href="#DejaVuSans-20"/>
     <use x="408.300781" xlink:href="#DejaVuSans-28"/>
     <use x="447.314453" xlink:href="#DejaVuSans-78"/>
     <use x="506.494141" xlink:href="#DejaVuSans-2c"/>
     <use x="538.28125" xlink:href="#DejaVuSans-79"/>
     <use x="597.460938" xlink:href="#DejaVuSans-29"/>
     <use x="636.474609" xlink:href="#DejaVuSans-3a"/>
     <use x="670.166016" xlink:href="#DejaVuSans-20"/>
     <use x="701.953125" xlink:href="#DejaVuSans-28"/>
     <use x="740.966797" xlink:href="#DejaVuSans-33"/>
     <use x="804.589844" xlink:href="#DejaVuSans-36"/>
     <use x="868.212891" xlink:href="#DejaVuSans-39"/>
     <use x="931.835938" xlink:href="#DejaVuSans-2e"/>
     <use x="963.623047" xlink:href="#DejaVuSans-30"/>
     <use x="1027.246094" xlink:href="#DejaVuSans-2c"/>
     <use x="1059.033203" xlink:href="#DejaVuSans-20"/>
     <use x="1090.820312" xlink:href="#DejaVuSans-20"/>
     <use x="1122.607422" xlink:href="#DejaVuSans-30"/>
     <use x="1186.230469" xlink:href="#DejaVuSans-2e"/>
     <use x="1218.017578" xlink:href="#DejaVuSans-30"/>
     <use x="1281.640625" xlink:href="#DejaVuSans-29"/>
    </g>
    <!-- Total encounters (avg): 396.5 -->
    <defs>
     <path d="M 2.984375 54.6875 
L 12.5 54.6875 
L 29.59375 8.796875 
L 46.6875 54.6875 
L 56.203125 54.6875 
L 35.6875 0 
L 23.484375 0 
z
" id="DejaVuSans-76"/>
     <path d="M 45.40625 27.984375 
Q 45.40625 37.75 41.375 43.109375 
Q 37.359375 48.484375 30.078125 48.484375 
Q 22.859375 48.484375 18.828125 43.109375 
Q 14.796875 37.75 14.796875 27.984375 
Q 14.796875 18.265625 18.828125 12.890625 
Q 22.859375 7.515625 30.078125 7.515625 
Q 37.359375 7.515625 41.375 12.890625 
Q 45.40625 18.265625 45.40625 27.984375 
z
M 54.390625 6.78125 
Q 54.390625 -7.171875 48.1875 -13.984375 
Q 42 -20.796875 29.203125 -20.796875 
Q 24.46875 -20.796875 20.265625 -20.09375 
Q 16.0625 -19.390625 12.109375 -17.921875 
L 12.109375 -9.1875 
Q 16.0625 -11.328125 19.921875 -12.34375 
Q 23.78125 -13.375 27.78125 -13.375 
Q 36.625 -13.375 41.015625 -8.765625 
Q 45.40625 -4.15625 45.40625 5.171875 
L 45.40625 9.625 
Q 42.625 4.78125 38.28125 2.390625 
Q 33.9375 0 27.875 0 
Q 17.828125 0 11.671875 7.65625 
Q 5.515625 15.328125 5.515625 27.984375 
Q 5.515625 40.671875 11.671875 48.328125 
Q 17.828125 56 27.875 56 
Q 33.9375 56 38.28125 53.609375 
Q 42.625 51.21875 45.40625 46.390625 
L 45.40625 54.6875 
L 54.390625 54.6875 
z
" id="DejaVuSans-67"/>
    </defs>
    <g transform="translate(415.579125 279.471875)scale(0.1 -0.1)">
     <use xlink:href="#DejaVuSans-54"/>
     <use x="60.818359" xlink:href="#DejaVuSans-6f"/>
     <use x="122" xlink:href="#DejaVuSans-74"/>
     <use x="161.208984" xlink:href="#DejaVuSans-61"/>
     <use x="222.488281" xlink:href="#DejaVuSans-6c"/>
     <use x="250.271484" xlink:href="#DejaVuSans-20"/>
     <use x="282.058594" xlink:href="#DejaVuSans-65"/>
     <use x="343.582031" xlink:href="#DejaVuSans-6e"/>
     <use x="406.960938" xlink:href="#DejaVuSans-63"/>
     <use x="461.941406" xlink:href="#DejaVuSans-6f"/>
     <use x="523.123047" xlink:href="#DejaVuSans-75"/>
     <use x="586.501953" xlink:href="#DejaVuSans-6e"/>
     <use x="649.880859" xlink:href="#DejaVuSans-74"/>
     <use x="689.089844" xlink:href="#DejaVuSans-65"/>
     <use x="750.613281" xlink:href="#DejaVuSans-72"/>
     <use x="791.726562" xlink:href="#DejaVuSans-73"/>
     <use x="843.826172" xlink:href="#DejaVuSans-20"/>
     <use x="875.613281" xlink:href="#DejaVuSans-28"/>
     <use x="914.626953" xlink:href="#DejaVuSans-61"/>
     <use x="975.90625" xlink:href="#DejaVuSans-76"/>
     <use x="1035.085938" xlink:href="#DejaVuSans-67"/>
     <use x="1098.5625" xlink:href="#DejaVuSans-29"/>
     <use x="1137.576172" xlink:href="#DejaVuSans-3a"/>
     <use x="1171.267578" xlink:href="#DejaVuSans-20"/>
     <use x="1203.054688" xlink:href="#DejaVuSans-33"/>
     <use x="1266.677734" xlink:href="#DejaVuSans-39"/>
     <use x="1330.300781" xlink:href="#DejaVuSans-36"/>
     <use x="1393.923828" xlink:href="#DejaVuSans-2e"/>
     <use x="1425.710938" xlink:href="#DejaVuSans-35"/>
    </g>
    <!-- dev : 45.50 -->
    <g transform="translate(415.579125 290.669687)scale(0.1 -0.1)">
     <use xlink:href="#DejaVuSans-64"/>
     <use x="63.476562" xlink:href="#DejaVuSans-65"/>
     <use x="125" xlink:href="#DejaVuSans-76"/>
     <use x="184.179688" xlink:href="#DejaVuSans-20"/>
     <use x="215.966797" xlink:href="#DejaVuSans-3a"/>
     <use x="249.658203" xlink:href="#DejaVuSans-20"/>
     <use x="281.445312" xlink:href="#DejaVuSans-34"/>
     <use x="345.068359" xlink:href="#DejaVuSans-35"/>
     <use x="408.691406" xlink:href="#DejaVuSans-2e"/>
     <use x="440.478516" xlink:href="#DejaVuSans-35"/>
     <use x="504.101562" xlink:href="#DejaVuSans-30"/>
    </g>
    <!-- Mean of encounters: 1.1 -->
    <defs>
     <path d="M 9.8125 72.90625 
L 24.515625 72.90625 
L 43.109375 23.296875 
L 61.8125 72.90625 
L 76.515625 72.90625 
L 76.515625 0 
L 66.890625 0 
L 66.890625 64.015625 
L 48.09375 14.015625 
L 38.1875 14.015625 
L 19.390625 64.015625 
L 19.390625 0 
L 9.8125 0 
z
" id="DejaVuSans-4d"/>
    </defs>
    <g transform="translate(415.579125 301.8675)scale(0.1 -0.1)">
     <use xlink:href="#DejaVuSans-4d"/>
     <use x="86.279297" xlink:href="#DejaVuSans-65"/>
     <use x="147.802734" xlink:href="#DejaVuSans-61"/>
     <use x="209.082031" xlink:href="#DejaVuSans-6e"/>
     <use x="272.460938" xlink:href="#DejaVuSans-20"/>
     <use x="304.248047" xlink:href="#DejaVuSans-6f"/>
     <use x="365.429688" xlink:href="#DejaVuSans-66"/>
     <use x="400.634766" xlink:href="#DejaVuSans-20"/>
     <use x="432.421875" xlink:href="#DejaVuSans-65"/>
     <use x="493.945312" xlink:href="#DejaVuSans-6e"/>
     <use x="557.324219" xlink:href="#DejaVuSans-63"/>
     <use x="612.304688" xlink:href="#DejaVuSans-6f"/>
     <use x="673.486328" xlink:href="#DejaVuSans-75"/>
     <use x="736.865234" xlink:href="#DejaVuSans-6e"/>
     <use x="800.244141" xlink:href="#DejaVuSans-74"/>
     <use x="839.453125" xlink:href="#DejaVuSans-65"/>
     <use x="900.976562" xlink:href="#DejaVuSans-72"/>
     <use x="942.089844" xlink:href="#DejaVuSans-73"/>
     <use x="994.189453" xlink:href="#DejaVuSans-3a"/>
     <use x="1027.880859" xlink:href="#DejaVuSans-20"/>
     <use x="1059.667969" xlink:href="#DejaVuSans-31"/>
     <use x="1123.291016" xlink:href="#DejaVuSans-2e"/>
     <use x="1155.078125" xlink:href="#DejaVuSans-31"/>
    </g>
   </g>
   <g id="text_20">
    <!-- Drone encounters per time [avg] -->
    <defs>
     <path d="M 19.671875 64.796875 
L 19.671875 8.109375 
L 31.59375 8.109375 
Q 46.6875 8.109375 53.6875 14.9375 
Q 60.6875 21.78125 60.6875 36.53125 
Q 60.6875 51.171875 53.6875 57.984375 
Q 46.6875 64.796875 31.59375 64.796875 
z
M 9.8125 72.90625 
L 30.078125 72.90625 
Q 51.265625 72.90625 61.171875 64.09375 
Q 71.09375 55.28125 71.09375 36.53125 
Q 71.09375 17.671875 61.125 8.828125 
Q 51.171875 0 30.078125 0 
L 9.8125 0 
z
" id="DejaVuSans-44"/>
     <path d="M 18.109375 8.203125 
L 18.109375 -20.796875 
L 9.078125 -20.796875 
L 9.078125 54.6875 
L 18.109375 54.6875 
L 18.109375 46.390625 
Q 20.953125 51.265625 25.265625 53.625 
Q 29.59375 56 35.59375 56 
Q 45.5625 56 51.78125 48.09375 
Q 58.015625 40.1875 58.015625 27.296875 
Q 58.015625 14.40625 51.78125 6.484375 
Q 45.5625 -1.421875 35.59375 -1.421875 
Q 29.59375 -1.421875 25.265625 0.953125 
Q 20.953125 3.328125 18.109375 8.203125 
z
M 48.6875 27.296875 
Q 48.6875 37.203125 44.609375 42.84375 
Q 40.53125 48.484375 33.40625 48.484375 
Q 26.265625 48.484375 22.1875 42.84375 
Q 18.109375 37.203125 18.109375 27.296875 
Q 18.109375 17.390625 22.1875 11.75 
Q 26.265625 6.109375 33.40625 6.109375 
Q 40.53125 6.109375 44.609375 11.75 
Q 48.6875 17.390625 48.6875 27.296875 
z
" id="DejaVuSans-70"/>
     <path d="M 8.59375 75.984375 
L 29.296875 75.984375 
L 29.296875 69 
L 17.578125 69 
L 17.578125 -6.203125 
L 29.296875 -6.203125 
L 29.296875 -13.1875 
L 8.59375 -13.1875 
z
" id="DejaVuSans-5b"/>
     <path d="M 30.421875 75.984375 
L 30.421875 -13.1875 
L 9.71875 -13.1875 
L 9.71875 -6.203125 
L 21.390625 -6.203125 
L 21.390625 69 
L 9.71875 69 
L 9.71875 75.984375 
z
" id="DejaVuSans-5d"/>
    </defs>
    <g transform="translate(120.3375 16.318125)scale(0.12 -0.12)">
     <use xlink:href="#DejaVuSans-44"/>
     <use x="77.001953" xlink:href="#DejaVuSans-72"/>
     <use x="118.083984" xlink:href="#DejaVuSans-6f"/>
     <use x="179.265625" xlink:href="#DejaVuSans-6e"/>
     <use x="242.644531" xlink:href="#DejaVuSans-65"/>
     <use x="304.167969" xlink:href="#DejaVuSans-20"/>
     <use x="335.955078" xlink:href="#DejaVuSans-65"/>
     <use x="397.478516" xlink:href="#DejaVuSans-6e"/>
     <use x="460.857422" xlink:href="#DejaVuSans-63"/>
     <use x="515.837891" xlink:href="#DejaVuSans-6f"/>
     <use x="577.019531" xlink:href="#DejaVuSans-75"/>
     <use x="640.398438" xlink:href="#DejaVuSans-6e"/>
     <use x="703.777344" xlink:href="#DejaVuSans-74"/>
     <use x="742.986328" xlink:href="#DejaVuSans-65"/>
     <use x="804.509766" xlink:href="#DejaVuSans-72"/>
     <use x="845.623047" xlink:href="#DejaVuSans-73"/>
     <use x="897.722656" xlink:href="#DejaVuSans-20"/>
     <use x="929.509766" xlink:href="#DejaVuSans-70"/>
     <use x="992.986328" xlink:href="#DejaVuSans-65"/>
     <use x="1054.509766" xlink:href="#DejaVuSans-72"/>
     <use x="1095.623047" xlink:href="#DejaVuSans-20"/>
     <use x="1127.410156" xlink:href="#DejaVuSans-74"/>
     <use x="1166.619141" xlink:href="#DejaVuSans-69"/>
     <use x="1194.402344" xlink:href="#DejaVuSans-6d"/>
     <use x="1291.814453" xlink:href="#DejaVuSans-65"/>
     <use x="1353.337891" xlink:href="#DejaVuSans-20"/>
     <use x="1385.125" xlink:href="#DejaVuSans-5b"/>
     <use x="1424.138672" xlink:href="#DejaVuSans-61"/>
     <use x="1485.417969" xlink:href="#DejaVuSans-76"/>
     <use x="1544.597656" xlink:href="#DejaVuSans-67"/>
     <use x="1608.074219" xlink:href="#DejaVuSans-5d"/>
    </g>
    <!-- pso: 180614-184558 -->
    <defs>
     <path d="M 4.890625 31.390625 
L 31.203125 31.390625 
L 31.203125 23.390625 
L 4.890625 23.390625 
z
" id="DejaVuSans-2d"/>
    </defs>
    <g transform="translate(156.654375 29.7555)scale(0.12 -0.12)">
     <use xlink:href="#DejaVuSans-70"/>
     <use x="63.476562" xlink:href="#DejaVuSans-73"/>
     <use x="115.576172" xlink:href="#DejaVuSans-6f"/>
     <use x="176.757812" xlink:href="#DejaVuSans-3a"/>
     <use x="210.449219" xlink:href="#DejaVuSans-20"/>
     <use x="242.236328" xlink:href="#DejaVuSans-31"/>
     <use x="305.859375" xlink:href="#DejaVuSans-38"/>
     <use x="369.482422" xlink:href="#DejaVuSans-30"/>
     <use x="433.105469" xlink:href="#DejaVuSans-36"/>
     <use x="496.728516" xlink:href="#DejaVuSans-31"/>
     <use x="560.351562" xlink:href="#DejaVuSans-34"/>
     <use x="623.974609" xlink:href="#DejaVuSans-2d"/>
     <use x="660.058594" xlink:href="#DejaVuSans-31"/>
     <use x="723.681641" xlink:href="#DejaVuSans-38"/>
     <use x="787.304688" xlink:href="#DejaVuSans-34"/>
     <use x="850.927734" xlink:href="#DejaVuSans-35"/>
     <use x="914.550781" xlink:href="#DejaVuSans-35"/>
     <use x="978.173828" xlink:href="#DejaVuSans-38"/>
    </g>
   </g>
  </g>
 </g>
 <defs>
  <clipPath id="p49de94d83a">
   <rect height="266.112" width="357.12" x="40.603125" y="35.7555"/>
  </clipPath>
 </defs>
</svg>
