<?xml version="1.0" encoding="utf-8" standalone="no"?>
<!DOCTYPE svg PUBLIC "-//W3C//DTD SVG 1.1//EN"
  "http://www.w3.org/Graphics/SVG/1.1/DTD/svg11.dtd">
<!-- Created with matplotlib (http://matplotlib.org/) -->
<svg height="339pt" version="1.1" viewBox="0 0 580 339" width="580pt" xmlns="http://www.w3.org/2000/svg" xmlns:xlink="http://www.w3.org/1999/xlink">
 <defs>
  <style type="text/css">
*{stroke-linecap:butt;stroke-linejoin:round;}
  </style>
 </defs>
 <g id="figure_1">
  <g id="patch_1">
   <path d="M 0 339.42375 
L 580.049437 339.42375 
L 580.049437 0 
L 0 0 
z
" style="fill:#ffffff;"/>
  </g>
  <g id="axes_1">
   <g id="patch_2">
    <path d="M 46.965625 301.8675 
L 404.085625 301.8675 
L 404.085625 35.7555 
L 46.965625 35.7555 
z
" style="fill:#ffffff;"/>
   </g>
   <g id="PolyCollection_1">
    <defs>
     <path d="M 46.965625 -42.54585 
L 46.965625 -44.20905 
L 47.930814 -45.87225 
L 48.896003 -49.19865 
L 49.861193 -52.52505 
L 50.826382 -52.52505 
L 51.791571 -52.52505 
L 52.75676 -55.85145 
L 53.721949 -55.85145 
L 54.687139 -60.84105 
L 55.652328 -60.84105 
L 56.617517 -60.84105 
L 57.582706 -62.50425 
L 58.547895 -67.49385 
L 59.513084 -72.48345 
L 60.478274 -75.80985 
L 61.443463 -75.80985 
L 62.408652 -80.79945 
L 63.373841 -84.12585 
L 64.33903 -87.45225 
L 65.30422 -92.44185 
L 66.269409 -95.76825 
L 67.234598 -99.09465 
L 68.199787 -102.42105 
L 69.164976 -105.74745 
L 70.130166 -110.73705 
L 71.095355 -112.40025 
L 72.060544 -117.38985 
L 73.025733 -120.71625 
L 73.990922 -122.37945 
L 74.956111 -122.37945 
L 75.921301 -122.37945 
L 76.88649 -125.70585 
L 77.851679 -135.68505 
L 78.816868 -135.68505 
L 79.782057 -140.67465 
L 80.747247 -144.00105 
L 81.712436 -144.00105 
L 82.677625 -147.32745 
L 83.642814 -150.65385 
L 84.608003 -152.31705 
L 85.573193 -160.63305 
L 86.538382 -162.29625 
L 87.503571 -163.95945 
L 88.46876 -168.94905 
L 89.433949 -173.93865 
L 90.399139 -177.26505 
L 91.364328 -178.92825 
L 92.329517 -178.92825 
L 93.294706 -178.92825 
L 94.259895 -178.92825 
L 95.225084 -180.59145 
L 96.190274 -180.59145 
L 97.155463 -185.58105 
L 98.120652 -187.24425 
L 99.085841 -188.90745 
L 100.05103 -190.57065 
L 101.01622 -192.23385 
L 101.981409 -193.89705 
L 102.946598 -193.89705 
L 103.911787 -193.89705 
L 104.876976 -195.56025 
L 105.842166 -198.88665 
L 106.807355 -202.21305 
L 107.772544 -203.87625 
L 108.737733 -203.87625 
L 109.702922 -203.87625 
L 110.668111 -203.87625 
L 111.633301 -203.87625 
L 112.59849 -203.87625 
L 113.563679 -203.87625 
L 114.528868 -203.87625 
L 115.494057 -203.87625 
L 116.459247 -203.87625 
L 117.424436 -203.87625 
L 118.389625 -203.87625 
L 119.354814 -203.87625 
L 120.320003 -203.87625 
L 121.285193 -203.87625 
L 122.250382 -203.87625 
L 123.215571 -203.87625 
L 124.18076 -203.87625 
L 125.145949 -203.87625 
L 126.111139 -203.87625 
L 127.076328 -203.87625 
L 128.041517 -203.87625 
L 129.006706 -203.87625 
L 129.971895 -203.87625 
L 130.937084 -203.87625 
L 131.902274 -203.87625 
L 132.867463 -203.87625 
L 133.832652 -203.87625 
L 134.797841 -203.87625 
L 135.76303 -203.87625 
L 136.72822 -203.87625 
L 137.693409 -203.87625 
L 138.658598 -203.87625 
L 139.623787 -203.87625 
L 140.588976 -203.87625 
L 141.554166 -203.87625 
L 142.519355 -203.87625 
L 143.484544 -203.87625 
L 144.449733 -203.87625 
L 145.414922 -203.87625 
L 146.380111 -203.87625 
L 147.345301 -203.87625 
L 148.31049 -203.87625 
L 149.275679 -203.87625 
L 150.240868 -205.53945 
L 151.206057 -205.53945 
L 152.171247 -208.86585 
L 153.136436 -208.86585 
L 154.101625 -210.52905 
L 155.066814 -212.19225 
L 156.032003 -217.18185 
L 156.997193 -218.84505 
L 157.962382 -220.50825 
L 158.927571 -220.50825 
L 159.89276 -223.83465 
L 160.857949 -227.16105 
L 161.823139 -232.15065 
L 162.788328 -232.15065 
L 163.753517 -232.15065 
L 164.718706 -233.81385 
L 165.683895 -233.81385 
L 166.649084 -238.80345 
L 167.614274 -240.46665 
L 168.579463 -243.79305 
L 169.544652 -245.45625 
L 170.509841 -245.45625 
L 171.47503 -247.11945 
L 172.44022 -248.78265 
L 173.405409 -250.44585 
L 174.370598 -250.44585 
L 175.335787 -253.77225 
L 176.300976 -258.76185 
L 177.266166 -258.76185 
L 178.231355 -262.08825 
L 179.196544 -262.08825 
L 180.161733 -262.08825 
L 181.126922 -262.08825 
L 182.092111 -262.08825 
L 183.057301 -262.08825 
L 184.02249 -263.75145 
L 184.987679 -265.41465 
L 185.952868 -265.41465 
L 186.918057 -270.40425 
L 187.883247 -270.40425 
L 188.848436 -270.40425 
L 189.813625 -275.39385 
L 190.778814 -275.39385 
L 191.744003 -275.39385 
L 192.709193 -275.39385 
L 193.674382 -275.39385 
L 194.639571 -275.39385 
L 195.60476 -277.05705 
L 196.569949 -283.70985 
L 197.535139 -288.69945 
L 198.500328 -290.36265 
L 199.465517 -290.36265 
L 200.430706 -290.36265 
L 201.395895 -293.68905 
L 202.361084 -293.68905 
L 203.326274 -293.68905 
L 204.291463 -295.35225 
L 205.256652 -295.35225 
L 206.221841 -295.35225 
L 207.18703 -297.01545 
L 208.15222 -297.01545 
L 209.117409 -297.01545 
L 210.082598 -297.01545 
L 211.047787 -297.01545 
L 212.012976 -297.01545 
L 212.978166 -297.01545 
L 213.943355 -297.01545 
L 214.908544 -297.01545 
L 215.873733 -297.01545 
L 216.838922 -297.01545 
L 217.804111 -297.01545 
L 218.769301 -297.01545 
L 219.73449 -297.01545 
L 220.699679 -297.01545 
L 221.664868 -297.01545 
L 222.630057 -297.01545 
L 223.595247 -297.01545 
L 224.560436 -297.01545 
L 225.525625 -297.01545 
L 226.490814 -297.01545 
L 227.456003 -297.01545 
L 228.421193 -297.01545 
L 229.386382 -297.01545 
L 230.351571 -297.01545 
L 231.31676 -297.01545 
L 232.281949 -297.01545 
L 233.247139 -297.01545 
L 234.212328 -297.01545 
L 235.177517 -297.01545 
L 236.142706 -297.01545 
L 237.107895 -297.01545 
L 238.073084 -297.01545 
L 239.038274 -297.01545 
L 240.003463 -297.01545 
L 240.968652 -297.01545 
L 241.933841 -297.01545 
L 242.89903 -297.01545 
L 243.86422 -297.01545 
L 244.829409 -297.01545 
L 245.794598 -297.01545 
L 246.759787 -297.01545 
L 247.724976 -297.01545 
L 248.690166 -297.01545 
L 249.655355 -297.01545 
L 250.620544 -297.01545 
L 251.585733 -297.01545 
L 252.550922 -297.01545 
L 253.516111 -297.01545 
L 254.481301 -297.01545 
L 255.44649 -297.01545 
L 256.411679 -297.01545 
L 257.376868 -297.01545 
L 258.342057 -297.01545 
L 259.307247 -297.01545 
L 260.272436 -297.01545 
L 261.237625 -297.01545 
L 262.202814 -297.01545 
L 263.168003 -297.01545 
L 264.133193 -297.01545 
L 265.098382 -297.01545 
L 266.063571 -297.01545 
L 267.02876 -297.01545 
L 267.993949 -297.01545 
L 268.959139 -297.01545 
L 269.924328 -297.01545 
L 270.889517 -297.01545 
L 271.854706 -297.01545 
L 272.819895 -297.01545 
L 273.785084 -297.01545 
L 274.750274 -297.01545 
L 275.715463 -297.01545 
L 276.680652 -297.01545 
L 277.645841 -297.01545 
L 278.61103 -297.01545 
L 279.57622 -297.01545 
L 280.541409 -297.01545 
L 281.506598 -297.01545 
L 282.471787 -297.01545 
L 283.436976 -297.01545 
L 284.402166 -297.01545 
L 285.367355 -297.01545 
L 286.332544 -297.01545 
L 287.297733 -297.01545 
L 288.262922 -297.01545 
L 289.228111 -297.01545 
L 290.193301 -297.01545 
L 291.15849 -297.01545 
L 292.123679 -297.01545 
L 293.088868 -297.01545 
L 294.054057 -297.01545 
L 295.019247 -297.01545 
L 295.984436 -297.01545 
L 296.949625 -297.01545 
L 297.914814 -297.01545 
L 298.880003 -297.01545 
L 299.845193 -297.01545 
L 300.810382 -297.01545 
L 301.775571 -297.01545 
L 302.74076 -297.01545 
L 303.705949 -297.01545 
L 304.671139 -297.01545 
L 305.636328 -297.01545 
L 306.601517 -297.01545 
L 307.566706 -297.01545 
L 308.531895 -297.01545 
L 309.497084 -297.01545 
L 310.462274 -297.01545 
L 311.427463 -297.01545 
L 312.392652 -297.01545 
L 313.357841 -297.01545 
L 314.32303 -298.67865 
L 315.28822 -298.67865 
L 316.253409 -298.67865 
L 317.218598 -300.34185 
L 318.183787 -300.34185 
L 319.148976 -302.00505 
L 320.114166 -302.00505 
L 321.079355 -302.00505 
L 322.044544 -302.00505 
L 323.009733 -303.66825 
L 323.974922 -303.66825 
L 324.940111 -303.66825 
L 325.905301 -303.66825 
L 326.87049 -303.66825 
L 327.835679 -303.66825 
L 328.800868 -303.66825 
L 329.766057 -303.66825 
L 330.731247 -303.66825 
L 331.696436 -303.66825 
L 332.661625 -303.66825 
L 333.626814 -303.66825 
L 334.592003 -303.66825 
L 335.557193 -303.66825 
L 336.522382 -303.66825 
L 337.487571 -303.66825 
L 338.45276 -303.66825 
L 339.417949 -303.66825 
L 340.383139 -303.66825 
L 341.348328 -303.66825 
L 342.313517 -303.66825 
L 343.278706 -303.66825 
L 344.243895 -303.66825 
L 345.209084 -303.66825 
L 346.174274 -303.66825 
L 347.139463 -303.66825 
L 348.104652 -303.66825 
L 349.069841 -303.66825 
L 350.03503 -303.66825 
L 351.00022 -303.66825 
L 351.965409 -303.66825 
L 352.930598 -303.66825 
L 353.895787 -303.66825 
L 354.860976 -303.66825 
L 355.826166 -303.66825 
L 356.791355 -303.66825 
L 357.756544 -303.66825 
L 358.721733 -303.66825 
L 359.686922 -303.66825 
L 360.652111 -303.66825 
L 361.617301 -303.66825 
L 362.58249 -303.66825 
L 363.547679 -303.66825 
L 364.512868 -303.66825 
L 365.478057 -303.66825 
L 366.443247 -303.66825 
L 367.408436 -303.66825 
L 368.373625 -303.66825 
L 369.338814 -303.66825 
L 370.304003 -303.66825 
L 371.269193 -303.66825 
L 372.234382 -303.66825 
L 373.199571 -303.66825 
L 374.16476 -303.66825 
L 375.129949 -303.66825 
L 376.095139 -303.66825 
L 377.060328 -303.66825 
L 378.025517 -303.66825 
L 378.990706 -303.66825 
L 379.955895 -303.66825 
L 380.921084 -303.66825 
L 381.886274 -303.66825 
L 382.851463 -303.66825 
L 383.816652 -303.66825 
L 384.781841 -303.66825 
L 385.74703 -303.66825 
L 386.71222 -303.66825 
L 387.677409 -303.66825 
L 388.642598 -303.66825 
L 389.607787 -303.66825 
L 390.572976 -303.66825 
L 391.538166 -303.66825 
L 392.503355 -303.66825 
L 393.468544 -303.66825 
L 394.433733 -303.66825 
L 395.398922 -303.66825 
L 396.364111 -303.66825 
L 397.329301 -303.66825 
L 398.29449 -303.66825 
L 399.259679 -303.66825 
L 400.224868 -303.66825 
L 401.190057 -303.66825 
L 402.155247 -303.66825 
L 403.120436 -303.66825 
L 403.120436 -303.66825 
L 403.120436 -303.66825 
L 402.155247 -303.66825 
L 401.190057 -303.66825 
L 400.224868 -303.66825 
L 399.259679 -303.66825 
L 398.29449 -303.66825 
L 397.329301 -303.66825 
L 396.364111 -303.66825 
L 395.398922 -303.66825 
L 394.433733 -303.66825 
L 393.468544 -303.66825 
L 392.503355 -303.66825 
L 391.538166 -303.66825 
L 390.572976 -303.66825 
L 389.607787 -303.66825 
L 388.642598 -303.66825 
L 387.677409 -303.66825 
L 386.71222 -303.66825 
L 385.74703 -303.66825 
L 384.781841 -303.66825 
L 383.816652 -303.66825 
L 382.851463 -303.66825 
L 381.886274 -303.66825 
L 380.921084 -303.66825 
L 379.955895 -303.66825 
L 378.990706 -303.66825 
L 378.025517 -303.66825 
L 377.060328 -303.66825 
L 376.095139 -303.66825 
L 375.129949 -303.66825 
L 374.16476 -303.66825 
L 373.199571 -303.66825 
L 372.234382 -303.66825 
L 371.269193 -303.66825 
L 370.304003 -303.66825 
L 369.338814 -303.66825 
L 368.373625 -303.66825 
L 367.408436 -303.66825 
L 366.443247 -303.66825 
L 365.478057 -303.66825 
L 364.512868 -303.66825 
L 363.547679 -303.66825 
L 362.58249 -303.66825 
L 361.617301 -303.66825 
L 360.652111 -303.66825 
L 359.686922 -303.66825 
L 358.721733 -303.66825 
L 357.756544 -303.66825 
L 356.791355 -303.66825 
L 355.826166 -303.66825 
L 354.860976 -303.66825 
L 353.895787 -303.66825 
L 352.930598 -303.66825 
L 351.965409 -303.66825 
L 351.00022 -303.66825 
L 350.03503 -303.66825 
L 349.069841 -303.66825 
L 348.104652 -303.66825 
L 347.139463 -303.66825 
L 346.174274 -303.66825 
L 345.209084 -303.66825 
L 344.243895 -303.66825 
L 343.278706 -303.66825 
L 342.313517 -303.66825 
L 341.348328 -303.66825 
L 340.383139 -303.66825 
L 339.417949 -303.66825 
L 338.45276 -303.66825 
L 337.487571 -303.66825 
L 336.522382 -303.66825 
L 335.557193 -303.66825 
L 334.592003 -303.66825 
L 333.626814 -303.66825 
L 332.661625 -303.66825 
L 331.696436 -303.66825 
L 330.731247 -303.66825 
L 329.766057 -303.66825 
L 328.800868 -303.66825 
L 327.835679 -303.66825 
L 326.87049 -303.66825 
L 325.905301 -303.66825 
L 324.940111 -303.66825 
L 323.974922 -303.66825 
L 323.009733 -302.00505 
L 322.044544 -300.34185 
L 321.079355 -300.34185 
L 320.114166 -300.34185 
L 319.148976 -300.34185 
L 318.183787 -298.67865 
L 317.218598 -298.67865 
L 316.253409 -298.67865 
L 315.28822 -297.01545 
L 314.32303 -297.01545 
L 313.357841 -297.01545 
L 312.392652 -297.01545 
L 311.427463 -297.01545 
L 310.462274 -297.01545 
L 309.497084 -297.01545 
L 308.531895 -297.01545 
L 307.566706 -297.01545 
L 306.601517 -297.01545 
L 305.636328 -297.01545 
L 304.671139 -297.01545 
L 303.705949 -297.01545 
L 302.74076 -297.01545 
L 301.775571 -297.01545 
L 300.810382 -297.01545 
L 299.845193 -297.01545 
L 298.880003 -297.01545 
L 297.914814 -297.01545 
L 296.949625 -297.01545 
L 295.984436 -297.01545 
L 295.019247 -297.01545 
L 294.054057 -297.01545 
L 293.088868 -297.01545 
L 292.123679 -297.01545 
L 291.15849 -297.01545 
L 290.193301 -297.01545 
L 289.228111 -297.01545 
L 288.262922 -297.01545 
L 287.297733 -297.01545 
L 286.332544 -297.01545 
L 285.367355 -297.01545 
L 284.402166 -297.01545 
L 283.436976 -297.01545 
L 282.471787 -297.01545 
L 281.506598 -297.01545 
L 280.541409 -297.01545 
L 279.57622 -297.01545 
L 278.61103 -297.01545 
L 277.645841 -297.01545 
L 276.680652 -297.01545 
L 275.715463 -297.01545 
L 274.750274 -297.01545 
L 273.785084 -297.01545 
L 272.819895 -297.01545 
L 271.854706 -297.01545 
L 270.889517 -297.01545 
L 269.924328 -297.01545 
L 268.959139 -297.01545 
L 267.993949 -297.01545 
L 267.02876 -297.01545 
L 266.063571 -297.01545 
L 265.098382 -297.01545 
L 264.133193 -297.01545 
L 263.168003 -297.01545 
L 262.202814 -297.01545 
L 261.237625 -297.01545 
L 260.272436 -297.01545 
L 259.307247 -297.01545 
L 258.342057 -297.01545 
L 257.376868 -297.01545 
L 256.411679 -297.01545 
L 255.44649 -297.01545 
L 254.481301 -297.01545 
L 253.516111 -297.01545 
L 252.550922 -297.01545 
L 251.585733 -297.01545 
L 250.620544 -297.01545 
L 249.655355 -297.01545 
L 248.690166 -297.01545 
L 247.724976 -297.01545 
L 246.759787 -297.01545 
L 245.794598 -297.01545 
L 244.829409 -297.01545 
L 243.86422 -297.01545 
L 242.89903 -297.01545 
L 241.933841 -297.01545 
L 240.968652 -297.01545 
L 240.003463 -297.01545 
L 239.038274 -297.01545 
L 238.073084 -297.01545 
L 237.107895 -297.01545 
L 236.142706 -297.01545 
L 235.177517 -297.01545 
L 234.212328 -297.01545 
L 233.247139 -297.01545 
L 232.281949 -297.01545 
L 231.31676 -297.01545 
L 230.351571 -297.01545 
L 229.386382 -297.01545 
L 228.421193 -297.01545 
L 227.456003 -297.01545 
L 226.490814 -295.35225 
L 225.525625 -295.35225 
L 224.560436 -295.35225 
L 223.595247 -295.35225 
L 222.630057 -292.02585 
L 221.664868 -290.36265 
L 220.699679 -290.36265 
L 219.73449 -290.36265 
L 218.769301 -288.69945 
L 217.804111 -285.37305 
L 216.838922 -283.70985 
L 215.873733 -280.38345 
L 214.908544 -277.05705 
L 213.943355 -277.05705 
L 212.978166 -275.39385 
L 212.012976 -275.39385 
L 211.047787 -275.39385 
L 210.082598 -275.39385 
L 209.117409 -270.40425 
L 208.15222 -268.74105 
L 207.18703 -267.07785 
L 206.221841 -267.07785 
L 205.256652 -265.41465 
L 204.291463 -262.08825 
L 203.326274 -262.08825 
L 202.361084 -262.08825 
L 201.395895 -262.08825 
L 200.430706 -262.08825 
L 199.465517 -260.42505 
L 198.500328 -260.42505 
L 197.535139 -260.42505 
L 196.569949 -258.76185 
L 195.60476 -257.09865 
L 194.639571 -253.77225 
L 193.674382 -250.44585 
L 192.709193 -250.44585 
L 191.744003 -250.44585 
L 190.778814 -248.78265 
L 189.813625 -245.45625 
L 188.848436 -243.79305 
L 187.883247 -243.79305 
L 186.918057 -243.79305 
L 185.952868 -243.79305 
L 184.987679 -243.79305 
L 184.02249 -242.12985 
L 183.057301 -237.14025 
L 182.092111 -237.14025 
L 181.126922 -233.81385 
L 180.161733 -233.81385 
L 179.196544 -233.81385 
L 178.231355 -232.15065 
L 177.266166 -232.15065 
L 176.300976 -232.15065 
L 175.335787 -232.15065 
L 174.370598 -230.48745 
L 173.405409 -227.16105 
L 172.44022 -223.83465 
L 171.47503 -223.83465 
L 170.509841 -223.83465 
L 169.544652 -223.83465 
L 168.579463 -220.50825 
L 167.614274 -220.50825 
L 166.649084 -217.18185 
L 165.683895 -213.85545 
L 164.718706 -212.19225 
L 163.753517 -208.86585 
L 162.788328 -207.20265 
L 161.823139 -207.20265 
L 160.857949 -205.53945 
L 159.89276 -203.87625 
L 158.927571 -203.87625 
L 157.962382 -203.87625 
L 156.997193 -203.87625 
L 156.032003 -203.87625 
L 155.066814 -203.87625 
L 154.101625 -203.87625 
L 153.136436 -203.87625 
L 152.171247 -203.87625 
L 151.206057 -203.87625 
L 150.240868 -203.87625 
L 149.275679 -203.87625 
L 148.31049 -203.87625 
L 147.345301 -203.87625 
L 146.380111 -203.87625 
L 145.414922 -203.87625 
L 144.449733 -203.87625 
L 143.484544 -203.87625 
L 142.519355 -203.87625 
L 141.554166 -203.87625 
L 140.588976 -203.87625 
L 139.623787 -203.87625 
L 138.658598 -203.87625 
L 137.693409 -203.87625 
L 136.72822 -203.87625 
L 135.76303 -203.87625 
L 134.797841 -203.87625 
L 133.832652 -203.87625 
L 132.867463 -203.87625 
L 131.902274 -203.87625 
L 130.937084 -203.87625 
L 129.971895 -203.87625 
L 129.006706 -203.87625 
L 128.041517 -203.87625 
L 127.076328 -203.87625 
L 126.111139 -203.87625 
L 125.145949 -203.87625 
L 124.18076 -203.87625 
L 123.215571 -203.87625 
L 122.250382 -203.87625 
L 121.285193 -203.87625 
L 120.320003 -203.87625 
L 119.354814 -203.87625 
L 118.389625 -203.87625 
L 117.424436 -203.87625 
L 116.459247 -203.87625 
L 115.494057 -202.21305 
L 114.528868 -200.54985 
L 113.563679 -197.22345 
L 112.59849 -197.22345 
L 111.633301 -197.22345 
L 110.668111 -197.22345 
L 109.702922 -195.56025 
L 108.737733 -195.56025 
L 107.772544 -195.56025 
L 106.807355 -192.23385 
L 105.842166 -188.90745 
L 104.876976 -185.58105 
L 103.911787 -185.58105 
L 102.946598 -185.58105 
L 101.981409 -183.91785 
L 101.01622 -183.91785 
L 100.05103 -178.92825 
L 99.085841 -175.60185 
L 98.120652 -173.93865 
L 97.155463 -173.93865 
L 96.190274 -172.27545 
L 95.225084 -172.27545 
L 94.259895 -168.94905 
L 93.294706 -168.94905 
L 92.329517 -167.28585 
L 91.364328 -162.29625 
L 90.399139 -162.29625 
L 89.433949 -160.63305 
L 88.46876 -160.63305 
L 87.503571 -155.64345 
L 86.538382 -152.31705 
L 85.573193 -150.65385 
L 84.608003 -145.66425 
L 83.642814 -140.67465 
L 82.677625 -140.67465 
L 81.712436 -139.01145 
L 80.747247 -137.34825 
L 79.782057 -137.34825 
L 78.816868 -135.68505 
L 77.851679 -132.35865 
L 76.88649 -124.04265 
L 75.921301 -122.37945 
L 74.956111 -119.05305 
L 73.990922 -112.40025 
L 73.025733 -110.73705 
L 72.060544 -109.07385 
L 71.095355 -105.74745 
L 70.130166 -102.42105 
L 69.164976 -99.09465 
L 68.199787 -97.43145 
L 67.234598 -97.43145 
L 66.269409 -94.10505 
L 65.30422 -90.77865 
L 64.33903 -87.45225 
L 63.373841 -82.46265 
L 62.408652 -75.80985 
L 61.443463 -72.48345 
L 60.478274 -67.49385 
L 59.513084 -62.50425 
L 58.547895 -62.50425 
L 57.582706 -60.84105 
L 56.617517 -59.17785 
L 55.652328 -59.17785 
L 54.687139 -57.51465 
L 53.721949 -55.85145 
L 52.75676 -54.18825 
L 51.791571 -52.52505 
L 50.826382 -52.52505 
L 49.861193 -50.86185 
L 48.896003 -45.87225 
L 47.930814 -44.20905 
L 46.965625 -42.54585 
z
" id="mecefcafbaf" style="stroke:#adff2f;"/>
    </defs>
    <g clip-path="url(#pd6cafa50ec)">
     <use style="fill:#adff2f;stroke:#adff2f;" x="0" xlink:href="#mecefcafbaf" y="339.42375"/>
    </g>
   </g>
   <g id="matplotlib.axis_1">
    <g id="xtick_1">
     <g id="line2d_1">
      <path clip-path="url(#pd6cafa50ec)" d="M 46.965625 301.8675 
L 46.965625 35.7555 
" style="fill:none;stroke:#b0b0b0;stroke-linecap:square;stroke-width:0.8;"/>
     </g>
     <g id="line2d_2">
      <defs>
       <path d="M 0 0 
L 0 3.5 
" id="mbbf82ea709" style="stroke:#000000;stroke-width:0.8;"/>
      </defs>
      <g>
       <use style="stroke:#000000;stroke-width:0.8;" x="46.965625" xlink:href="#mbbf82ea709" y="301.8675"/>
      </g>
     </g>
     <g id="text_1">
      <!-- 0 -->
      <defs>
       <path d="M 31.78125 66.40625 
Q 24.171875 66.40625 20.328125 58.90625 
Q 16.5 51.421875 16.5 36.375 
Q 16.5 21.390625 20.328125 13.890625 
Q 24.171875 6.390625 31.78125 6.390625 
Q 39.453125 6.390625 43.28125 13.890625 
Q 47.125 21.390625 47.125 36.375 
Q 47.125 51.421875 43.28125 58.90625 
Q 39.453125 66.40625 31.78125 66.40625 
z
M 31.78125 74.21875 
Q 44.046875 74.21875 50.515625 64.515625 
Q 56.984375 54.828125 56.984375 36.375 
Q 56.984375 17.96875 50.515625 8.265625 
Q 44.046875 -1.421875 31.78125 -1.421875 
Q 19.53125 -1.421875 13.0625 8.265625 
Q 6.59375 17.96875 6.59375 36.375 
Q 6.59375 54.828125 13.0625 64.515625 
Q 19.53125 74.21875 31.78125 74.21875 
z
" id="DejaVuSans-30"/>
      </defs>
      <g transform="translate(43.784375 316.465937)scale(0.1 -0.1)">
       <use xlink:href="#DejaVuSans-30"/>
      </g>
     </g>
    </g>
    <g id="xtick_2">
     <g id="line2d_3">
      <path clip-path="url(#pd6cafa50ec)" d="M 95.225084 301.8675 
L 95.225084 35.7555 
" style="fill:none;stroke:#b0b0b0;stroke-linecap:square;stroke-width:0.8;"/>
     </g>
     <g id="line2d_4">
      <g>
       <use style="stroke:#000000;stroke-width:0.8;" x="95.225084" xlink:href="#mbbf82ea709" y="301.8675"/>
      </g>
     </g>
     <g id="text_2">
      <!-- 50 -->
      <defs>
       <path d="M 10.796875 72.90625 
L 49.515625 72.90625 
L 49.515625 64.59375 
L 19.828125 64.59375 
L 19.828125 46.734375 
Q 21.96875 47.46875 24.109375 47.828125 
Q 26.265625 48.1875 28.421875 48.1875 
Q 40.625 48.1875 47.75 41.5 
Q 54.890625 34.8125 54.890625 23.390625 
Q 54.890625 11.625 47.5625 5.09375 
Q 40.234375 -1.421875 26.90625 -1.421875 
Q 22.3125 -1.421875 17.546875 -0.640625 
Q 12.796875 0.140625 7.71875 1.703125 
L 7.71875 11.625 
Q 12.109375 9.234375 16.796875 8.0625 
Q 21.484375 6.890625 26.703125 6.890625 
Q 35.15625 6.890625 40.078125 11.328125 
Q 45.015625 15.765625 45.015625 23.390625 
Q 45.015625 31 40.078125 35.4375 
Q 35.15625 39.890625 26.703125 39.890625 
Q 22.75 39.890625 18.8125 39.015625 
Q 14.890625 38.140625 10.796875 36.28125 
z
" id="DejaVuSans-35"/>
      </defs>
      <g transform="translate(88.862584 316.465937)scale(0.1 -0.1)">
       <use xlink:href="#DejaVuSans-35"/>
       <use x="63.623047" xlink:href="#DejaVuSans-30"/>
      </g>
     </g>
    </g>
    <g id="xtick_3">
     <g id="line2d_5">
      <path clip-path="url(#pd6cafa50ec)" d="M 143.484544 301.8675 
L 143.484544 35.7555 
" style="fill:none;stroke:#b0b0b0;stroke-linecap:square;stroke-width:0.8;"/>
     </g>
     <g id="line2d_6">
      <g>
       <use style="stroke:#000000;stroke-width:0.8;" x="143.484544" xlink:href="#mbbf82ea709" y="301.8675"/>
      </g>
     </g>
     <g id="text_3">
      <!-- 100 -->
      <defs>
       <path d="M 12.40625 8.296875 
L 28.515625 8.296875 
L 28.515625 63.921875 
L 10.984375 60.40625 
L 10.984375 69.390625 
L 28.421875 72.90625 
L 38.28125 72.90625 
L 38.28125 8.296875 
L 54.390625 8.296875 
L 54.390625 0 
L 12.40625 0 
z
" id="DejaVuSans-31"/>
      </defs>
      <g transform="translate(133.940794 316.465937)scale(0.1 -0.1)">
       <use xlink:href="#DejaVuSans-31"/>
       <use x="63.623047" xlink:href="#DejaVuSans-30"/>
       <use x="127.246094" xlink:href="#DejaVuSans-30"/>
      </g>
     </g>
    </g>
    <g id="xtick_4">
     <g id="line2d_7">
      <path clip-path="url(#pd6cafa50ec)" d="M 191.744003 301.8675 
L 191.744003 35.7555 
" style="fill:none;stroke:#b0b0b0;stroke-linecap:square;stroke-width:0.8;"/>
     </g>
     <g id="line2d_8">
      <g>
       <use style="stroke:#000000;stroke-width:0.8;" x="191.744003" xlink:href="#mbbf82ea709" y="301.8675"/>
      </g>
     </g>
     <g id="text_4">
      <!-- 150 -->
      <g transform="translate(182.200253 316.465937)scale(0.1 -0.1)">
       <use xlink:href="#DejaVuSans-31"/>
       <use x="63.623047" xlink:href="#DejaVuSans-35"/>
       <use x="127.246094" xlink:href="#DejaVuSans-30"/>
      </g>
     </g>
    </g>
    <g id="xtick_5">
     <g id="line2d_9">
      <path clip-path="url(#pd6cafa50ec)" d="M 240.003463 301.8675 
L 240.003463 35.7555 
" style="fill:none;stroke:#b0b0b0;stroke-linecap:square;stroke-width:0.8;"/>
     </g>
     <g id="line2d_10">
      <g>
       <use style="stroke:#000000;stroke-width:0.8;" x="240.003463" xlink:href="#mbbf82ea709" y="301.8675"/>
      </g>
     </g>
     <g id="text_5">
      <!-- 200 -->
      <defs>
       <path d="M 19.1875 8.296875 
L 53.609375 8.296875 
L 53.609375 0 
L 7.328125 0 
L 7.328125 8.296875 
Q 12.9375 14.109375 22.625 23.890625 
Q 32.328125 33.6875 34.8125 36.53125 
Q 39.546875 41.84375 41.421875 45.53125 
Q 43.3125 49.21875 43.3125 52.78125 
Q 43.3125 58.59375 39.234375 62.25 
Q 35.15625 65.921875 28.609375 65.921875 
Q 23.96875 65.921875 18.8125 64.3125 
Q 13.671875 62.703125 7.8125 59.421875 
L 7.8125 69.390625 
Q 13.765625 71.78125 18.9375 73 
Q 24.125 74.21875 28.421875 74.21875 
Q 39.75 74.21875 46.484375 68.546875 
Q 53.21875 62.890625 53.21875 53.421875 
Q 53.21875 48.921875 51.53125 44.890625 
Q 49.859375 40.875 45.40625 35.40625 
Q 44.1875 33.984375 37.640625 27.21875 
Q 31.109375 20.453125 19.1875 8.296875 
z
" id="DejaVuSans-32"/>
      </defs>
      <g transform="translate(230.459713 316.465937)scale(0.1 -0.1)">
       <use xlink:href="#DejaVuSans-32"/>
       <use x="63.623047" xlink:href="#DejaVuSans-30"/>
       <use x="127.246094" xlink:href="#DejaVuSans-30"/>
      </g>
     </g>
    </g>
    <g id="xtick_6">
     <g id="line2d_11">
      <path clip-path="url(#pd6cafa50ec)" d="M 288.262922 301.8675 
L 288.262922 35.7555 
" style="fill:none;stroke:#b0b0b0;stroke-linecap:square;stroke-width:0.8;"/>
     </g>
     <g id="line2d_12">
      <g>
       <use style="stroke:#000000;stroke-width:0.8;" x="288.262922" xlink:href="#mbbf82ea709" y="301.8675"/>
      </g>
     </g>
     <g id="text_6">
      <!-- 250 -->
      <g transform="translate(278.719172 316.465937)scale(0.1 -0.1)">
       <use xlink:href="#DejaVuSans-32"/>
       <use x="63.623047" xlink:href="#DejaVuSans-35"/>
       <use x="127.246094" xlink:href="#DejaVuSans-30"/>
      </g>
     </g>
    </g>
    <g id="xtick_7">
     <g id="line2d_13">
      <path clip-path="url(#pd6cafa50ec)" d="M 336.522382 301.8675 
L 336.522382 35.7555 
" style="fill:none;stroke:#b0b0b0;stroke-linecap:square;stroke-width:0.8;"/>
     </g>
     <g id="line2d_14">
      <g>
       <use style="stroke:#000000;stroke-width:0.8;" x="336.522382" xlink:href="#mbbf82ea709" y="301.8675"/>
      </g>
     </g>
     <g id="text_7">
      <!-- 300 -->
      <defs>
       <path d="M 40.578125 39.3125 
Q 47.65625 37.796875 51.625 33 
Q 55.609375 28.21875 55.609375 21.1875 
Q 55.609375 10.40625 48.1875 4.484375 
Q 40.765625 -1.421875 27.09375 -1.421875 
Q 22.515625 -1.421875 17.65625 -0.515625 
Q 12.796875 0.390625 7.625 2.203125 
L 7.625 11.71875 
Q 11.71875 9.328125 16.59375 8.109375 
Q 21.484375 6.890625 26.8125 6.890625 
Q 36.078125 6.890625 40.9375 10.546875 
Q 45.796875 14.203125 45.796875 21.1875 
Q 45.796875 27.640625 41.28125 31.265625 
Q 36.765625 34.90625 28.71875 34.90625 
L 20.21875 34.90625 
L 20.21875 43.015625 
L 29.109375 43.015625 
Q 36.375 43.015625 40.234375 45.921875 
Q 44.09375 48.828125 44.09375 54.296875 
Q 44.09375 59.90625 40.109375 62.90625 
Q 36.140625 65.921875 28.71875 65.921875 
Q 24.65625 65.921875 20.015625 65.03125 
Q 15.375 64.15625 9.8125 62.3125 
L 9.8125 71.09375 
Q 15.4375 72.65625 20.34375 73.4375 
Q 25.25 74.21875 29.59375 74.21875 
Q 40.828125 74.21875 47.359375 69.109375 
Q 53.90625 64.015625 53.90625 55.328125 
Q 53.90625 49.265625 50.4375 45.09375 
Q 46.96875 40.921875 40.578125 39.3125 
z
" id="DejaVuSans-33"/>
      </defs>
      <g transform="translate(326.978632 316.465937)scale(0.1 -0.1)">
       <use xlink:href="#DejaVuSans-33"/>
       <use x="63.623047" xlink:href="#DejaVuSans-30"/>
       <use x="127.246094" xlink:href="#DejaVuSans-30"/>
      </g>
     </g>
    </g>
    <g id="xtick_8">
     <g id="line2d_15">
      <path clip-path="url(#pd6cafa50ec)" d="M 384.781841 301.8675 
L 384.781841 35.7555 
" style="fill:none;stroke:#b0b0b0;stroke-linecap:square;stroke-width:0.8;"/>
     </g>
     <g id="line2d_16">
      <g>
       <use style="stroke:#000000;stroke-width:0.8;" x="384.781841" xlink:href="#mbbf82ea709" y="301.8675"/>
      </g>
     </g>
     <g id="text_8">
      <!-- 350 -->
      <g transform="translate(375.238091 316.465937)scale(0.1 -0.1)">
       <use xlink:href="#DejaVuSans-33"/>
       <use x="63.623047" xlink:href="#DejaVuSans-35"/>
       <use x="127.246094" xlink:href="#DejaVuSans-30"/>
      </g>
     </g>
    </g>
    <g id="text_9">
     <!-- Time (s) -->
     <defs>
      <path d="M -0.296875 72.90625 
L 61.375 72.90625 
L 61.375 64.59375 
L 35.5 64.59375 
L 35.5 0 
L 25.59375 0 
L 25.59375 64.59375 
L -0.296875 64.59375 
z
" id="DejaVuSans-54"/>
      <path d="M 9.421875 54.6875 
L 18.40625 54.6875 
L 18.40625 0 
L 9.421875 0 
z
M 9.421875 75.984375 
L 18.40625 75.984375 
L 18.40625 64.59375 
L 9.421875 64.59375 
z
" id="DejaVuSans-69"/>
      <path d="M 52 44.1875 
Q 55.375 50.25 60.0625 53.125 
Q 64.75 56 71.09375 56 
Q 79.640625 56 84.28125 50.015625 
Q 88.921875 44.046875 88.921875 33.015625 
L 88.921875 0 
L 79.890625 0 
L 79.890625 32.71875 
Q 79.890625 40.578125 77.09375 44.375 
Q 74.3125 48.1875 68.609375 48.1875 
Q 61.625 48.1875 57.5625 43.546875 
Q 53.515625 38.921875 53.515625 30.90625 
L 53.515625 0 
L 44.484375 0 
L 44.484375 32.71875 
Q 44.484375 40.625 41.703125 44.40625 
Q 38.921875 48.1875 33.109375 48.1875 
Q 26.21875 48.1875 22.15625 43.53125 
Q 18.109375 38.875 18.109375 30.90625 
L 18.109375 0 
L 9.078125 0 
L 9.078125 54.6875 
L 18.109375 54.6875 
L 18.109375 46.1875 
Q 21.1875 51.21875 25.484375 53.609375 
Q 29.78125 56 35.6875 56 
Q 41.65625 56 45.828125 52.96875 
Q 50 49.953125 52 44.1875 
z
" id="DejaVuSans-6d"/>
      <path d="M 56.203125 29.59375 
L 56.203125 25.203125 
L 14.890625 25.203125 
Q 15.484375 15.921875 20.484375 11.0625 
Q 25.484375 6.203125 34.421875 6.203125 
Q 39.59375 6.203125 44.453125 7.46875 
Q 49.3125 8.734375 54.109375 11.28125 
L 54.109375 2.78125 
Q 49.265625 0.734375 44.1875 -0.34375 
Q 39.109375 -1.421875 33.890625 -1.421875 
Q 20.796875 -1.421875 13.15625 6.1875 
Q 5.515625 13.8125 5.515625 26.8125 
Q 5.515625 40.234375 12.765625 48.109375 
Q 20.015625 56 32.328125 56 
Q 43.359375 56 49.78125 48.890625 
Q 56.203125 41.796875 56.203125 29.59375 
z
M 47.21875 32.234375 
Q 47.125 39.59375 43.09375 43.984375 
Q 39.0625 48.390625 32.421875 48.390625 
Q 24.90625 48.390625 20.390625 44.140625 
Q 15.875 39.890625 15.1875 32.171875 
z
" id="DejaVuSans-65"/>
      <path id="DejaVuSans-20"/>
      <path d="M 31 75.875 
Q 24.46875 64.65625 21.28125 53.65625 
Q 18.109375 42.671875 18.109375 31.390625 
Q 18.109375 20.125 21.3125 9.0625 
Q 24.515625 -2 31 -13.1875 
L 23.1875 -13.1875 
Q 15.875 -1.703125 12.234375 9.375 
Q 8.59375 20.453125 8.59375 31.390625 
Q 8.59375 42.28125 12.203125 53.3125 
Q 15.828125 64.359375 23.1875 75.875 
z
" id="DejaVuSans-28"/>
      <path d="M 44.28125 53.078125 
L 44.28125 44.578125 
Q 40.484375 46.53125 36.375 47.5 
Q 32.28125 48.484375 27.875 48.484375 
Q 21.1875 48.484375 17.84375 46.4375 
Q 14.5 44.390625 14.5 40.28125 
Q 14.5 37.15625 16.890625 35.375 
Q 19.28125 33.59375 26.515625 31.984375 
L 29.59375 31.296875 
Q 39.15625 29.25 43.1875 25.515625 
Q 47.21875 21.78125 47.21875 15.09375 
Q 47.21875 7.46875 41.1875 3.015625 
Q 35.15625 -1.421875 24.609375 -1.421875 
Q 20.21875 -1.421875 15.453125 -0.5625 
Q 10.6875 0.296875 5.421875 2 
L 5.421875 11.28125 
Q 10.40625 8.6875 15.234375 7.390625 
Q 20.0625 6.109375 24.8125 6.109375 
Q 31.15625 6.109375 34.5625 8.28125 
Q 37.984375 10.453125 37.984375 14.40625 
Q 37.984375 18.0625 35.515625 20.015625 
Q 33.0625 21.96875 24.703125 23.78125 
L 21.578125 24.515625 
Q 13.234375 26.265625 9.515625 29.90625 
Q 5.8125 33.546875 5.8125 39.890625 
Q 5.8125 47.609375 11.28125 51.796875 
Q 16.75 56 26.8125 56 
Q 31.78125 56 36.171875 55.265625 
Q 40.578125 54.546875 44.28125 53.078125 
z
" id="DejaVuSans-73"/>
      <path d="M 8.015625 75.875 
L 15.828125 75.875 
Q 23.140625 64.359375 26.78125 53.3125 
Q 30.421875 42.28125 30.421875 31.390625 
Q 30.421875 20.453125 26.78125 9.375 
Q 23.140625 -1.703125 15.828125 -13.1875 
L 8.015625 -13.1875 
Q 14.5 -2 17.703125 9.0625 
Q 20.90625 20.125 20.90625 31.390625 
Q 20.90625 42.671875 17.703125 53.65625 
Q 14.5 64.65625 8.015625 75.875 
z
" id="DejaVuSans-29"/>
     </defs>
     <g transform="translate(205.042813 330.144062)scale(0.1 -0.1)">
      <use xlink:href="#DejaVuSans-54"/>
      <use x="61.037109" xlink:href="#DejaVuSans-69"/>
      <use x="88.820312" xlink:href="#DejaVuSans-6d"/>
      <use x="186.232422" xlink:href="#DejaVuSans-65"/>
      <use x="247.755859" xlink:href="#DejaVuSans-20"/>
      <use x="279.542969" xlink:href="#DejaVuSans-28"/>
      <use x="318.556641" xlink:href="#DejaVuSans-73"/>
      <use x="370.65625" xlink:href="#DejaVuSans-29"/>
     </g>
    </g>
   </g>
   <g id="matplotlib.axis_2">
    <g id="ytick_1">
     <g id="line2d_17">
      <path clip-path="url(#pd6cafa50ec)" d="M 46.965625 301.8675 
L 404.085625 301.8675 
" style="fill:none;stroke:#b0b0b0;stroke-linecap:square;stroke-width:0.8;"/>
     </g>
     <g id="line2d_18">
      <defs>
       <path d="M 0 0 
L -3.5 0 
" id="m6e359b1ecf" style="stroke:#000000;stroke-width:0.8;"/>
      </defs>
      <g>
       <use style="stroke:#000000;stroke-width:0.8;" x="46.965625" xlink:href="#m6e359b1ecf" y="301.8675"/>
      </g>
     </g>
     <g id="text_10">
      <!-- 0 -->
      <g transform="translate(33.603125 305.666719)scale(0.1 -0.1)">
       <use xlink:href="#DejaVuSans-30"/>
      </g>
     </g>
    </g>
    <g id="ytick_2">
     <g id="line2d_19">
      <path clip-path="url(#pd6cafa50ec)" d="M 46.965625 268.6035 
L 404.085625 268.6035 
" style="fill:none;stroke:#b0b0b0;stroke-linecap:square;stroke-width:0.8;"/>
     </g>
     <g id="line2d_20">
      <g>
       <use style="stroke:#000000;stroke-width:0.8;" x="46.965625" xlink:href="#m6e359b1ecf" y="268.6035"/>
      </g>
     </g>
     <g id="text_11">
      <!-- 20 -->
      <g transform="translate(27.240625 272.402719)scale(0.1 -0.1)">
       <use xlink:href="#DejaVuSans-32"/>
       <use x="63.623047" xlink:href="#DejaVuSans-30"/>
      </g>
     </g>
    </g>
    <g id="ytick_3">
     <g id="line2d_21">
      <path clip-path="url(#pd6cafa50ec)" d="M 46.965625 235.3395 
L 404.085625 235.3395 
" style="fill:none;stroke:#b0b0b0;stroke-linecap:square;stroke-width:0.8;"/>
     </g>
     <g id="line2d_22">
      <g>
       <use style="stroke:#000000;stroke-width:0.8;" x="46.965625" xlink:href="#m6e359b1ecf" y="235.3395"/>
      </g>
     </g>
     <g id="text_12">
      <!-- 40 -->
      <defs>
       <path d="M 37.796875 64.3125 
L 12.890625 25.390625 
L 37.796875 25.390625 
z
M 35.203125 72.90625 
L 47.609375 72.90625 
L 47.609375 25.390625 
L 58.015625 25.390625 
L 58.015625 17.1875 
L 47.609375 17.1875 
L 47.609375 0 
L 37.796875 0 
L 37.796875 17.1875 
L 4.890625 17.1875 
L 4.890625 26.703125 
z
" id="DejaVuSans-34"/>
      </defs>
      <g transform="translate(27.240625 239.138719)scale(0.1 -0.1)">
       <use xlink:href="#DejaVuSans-34"/>
       <use x="63.623047" xlink:href="#DejaVuSans-30"/>
      </g>
     </g>
    </g>
    <g id="ytick_4">
     <g id="line2d_23">
      <path clip-path="url(#pd6cafa50ec)" d="M 46.965625 202.0755 
L 404.085625 202.0755 
" style="fill:none;stroke:#b0b0b0;stroke-linecap:square;stroke-width:0.8;"/>
     </g>
     <g id="line2d_24">
      <g>
       <use style="stroke:#000000;stroke-width:0.8;" x="46.965625" xlink:href="#m6e359b1ecf" y="202.0755"/>
      </g>
     </g>
     <g id="text_13">
      <!-- 60 -->
      <defs>
       <path d="M 33.015625 40.375 
Q 26.375 40.375 22.484375 35.828125 
Q 18.609375 31.296875 18.609375 23.390625 
Q 18.609375 15.53125 22.484375 10.953125 
Q 26.375 6.390625 33.015625 6.390625 
Q 39.65625 6.390625 43.53125 10.953125 
Q 47.40625 15.53125 47.40625 23.390625 
Q 47.40625 31.296875 43.53125 35.828125 
Q 39.65625 40.375 33.015625 40.375 
z
M 52.59375 71.296875 
L 52.59375 62.3125 
Q 48.875 64.0625 45.09375 64.984375 
Q 41.3125 65.921875 37.59375 65.921875 
Q 27.828125 65.921875 22.671875 59.328125 
Q 17.53125 52.734375 16.796875 39.40625 
Q 19.671875 43.65625 24.015625 45.921875 
Q 28.375 48.1875 33.59375 48.1875 
Q 44.578125 48.1875 50.953125 41.515625 
Q 57.328125 34.859375 57.328125 23.390625 
Q 57.328125 12.15625 50.6875 5.359375 
Q 44.046875 -1.421875 33.015625 -1.421875 
Q 20.359375 -1.421875 13.671875 8.265625 
Q 6.984375 17.96875 6.984375 36.375 
Q 6.984375 53.65625 15.1875 63.9375 
Q 23.390625 74.21875 37.203125 74.21875 
Q 40.921875 74.21875 44.703125 73.484375 
Q 48.484375 72.75 52.59375 71.296875 
z
" id="DejaVuSans-36"/>
      </defs>
      <g transform="translate(27.240625 205.874719)scale(0.1 -0.1)">
       <use xlink:href="#DejaVuSans-36"/>
       <use x="63.623047" xlink:href="#DejaVuSans-30"/>
      </g>
     </g>
    </g>
    <g id="ytick_5">
     <g id="line2d_25">
      <path clip-path="url(#pd6cafa50ec)" d="M 46.965625 168.8115 
L 404.085625 168.8115 
" style="fill:none;stroke:#b0b0b0;stroke-linecap:square;stroke-width:0.8;"/>
     </g>
     <g id="line2d_26">
      <g>
       <use style="stroke:#000000;stroke-width:0.8;" x="46.965625" xlink:href="#m6e359b1ecf" y="168.8115"/>
      </g>
     </g>
     <g id="text_14">
      <!-- 80 -->
      <defs>
       <path d="M 31.78125 34.625 
Q 24.75 34.625 20.71875 30.859375 
Q 16.703125 27.09375 16.703125 20.515625 
Q 16.703125 13.921875 20.71875 10.15625 
Q 24.75 6.390625 31.78125 6.390625 
Q 38.8125 6.390625 42.859375 10.171875 
Q 46.921875 13.96875 46.921875 20.515625 
Q 46.921875 27.09375 42.890625 30.859375 
Q 38.875 34.625 31.78125 34.625 
z
M 21.921875 38.8125 
Q 15.578125 40.375 12.03125 44.71875 
Q 8.5 49.078125 8.5 55.328125 
Q 8.5 64.0625 14.71875 69.140625 
Q 20.953125 74.21875 31.78125 74.21875 
Q 42.671875 74.21875 48.875 69.140625 
Q 55.078125 64.0625 55.078125 55.328125 
Q 55.078125 49.078125 51.53125 44.71875 
Q 48 40.375 41.703125 38.8125 
Q 48.828125 37.15625 52.796875 32.3125 
Q 56.78125 27.484375 56.78125 20.515625 
Q 56.78125 9.90625 50.3125 4.234375 
Q 43.84375 -1.421875 31.78125 -1.421875 
Q 19.734375 -1.421875 13.25 4.234375 
Q 6.78125 9.90625 6.78125 20.515625 
Q 6.78125 27.484375 10.78125 32.3125 
Q 14.796875 37.15625 21.921875 38.8125 
z
M 18.3125 54.390625 
Q 18.3125 48.734375 21.84375 45.5625 
Q 25.390625 42.390625 31.78125 42.390625 
Q 38.140625 42.390625 41.71875 45.5625 
Q 45.3125 48.734375 45.3125 54.390625 
Q 45.3125 60.0625 41.71875 63.234375 
Q 38.140625 66.40625 31.78125 66.40625 
Q 25.390625 66.40625 21.84375 63.234375 
Q 18.3125 60.0625 18.3125 54.390625 
z
" id="DejaVuSans-38"/>
      </defs>
      <g transform="translate(27.240625 172.610719)scale(0.1 -0.1)">
       <use xlink:href="#DejaVuSans-38"/>
       <use x="63.623047" xlink:href="#DejaVuSans-30"/>
      </g>
     </g>
    </g>
    <g id="ytick_6">
     <g id="line2d_27">
      <path clip-path="url(#pd6cafa50ec)" d="M 46.965625 135.5475 
L 404.085625 135.5475 
" style="fill:none;stroke:#b0b0b0;stroke-linecap:square;stroke-width:0.8;"/>
     </g>
     <g id="line2d_28">
      <g>
       <use style="stroke:#000000;stroke-width:0.8;" x="46.965625" xlink:href="#m6e359b1ecf" y="135.5475"/>
      </g>
     </g>
     <g id="text_15">
      <!-- 100 -->
      <g transform="translate(20.878125 139.346719)scale(0.1 -0.1)">
       <use xlink:href="#DejaVuSans-31"/>
       <use x="63.623047" xlink:href="#DejaVuSans-30"/>
       <use x="127.246094" xlink:href="#DejaVuSans-30"/>
      </g>
     </g>
    </g>
    <g id="ytick_7">
     <g id="line2d_29">
      <path clip-path="url(#pd6cafa50ec)" d="M 46.965625 102.2835 
L 404.085625 102.2835 
" style="fill:none;stroke:#b0b0b0;stroke-linecap:square;stroke-width:0.8;"/>
     </g>
     <g id="line2d_30">
      <g>
       <use style="stroke:#000000;stroke-width:0.8;" x="46.965625" xlink:href="#m6e359b1ecf" y="102.2835"/>
      </g>
     </g>
     <g id="text_16">
      <!-- 120 -->
      <g transform="translate(20.878125 106.082719)scale(0.1 -0.1)">
       <use xlink:href="#DejaVuSans-31"/>
       <use x="63.623047" xlink:href="#DejaVuSans-32"/>
       <use x="127.246094" xlink:href="#DejaVuSans-30"/>
      </g>
     </g>
    </g>
    <g id="ytick_8">
     <g id="line2d_31">
      <path clip-path="url(#pd6cafa50ec)" d="M 46.965625 69.0195 
L 404.085625 69.0195 
" style="fill:none;stroke:#b0b0b0;stroke-linecap:square;stroke-width:0.8;"/>
     </g>
     <g id="line2d_32">
      <g>
       <use style="stroke:#000000;stroke-width:0.8;" x="46.965625" xlink:href="#m6e359b1ecf" y="69.0195"/>
      </g>
     </g>
     <g id="text_17">
      <!-- 140 -->
      <g transform="translate(20.878125 72.818719)scale(0.1 -0.1)">
       <use xlink:href="#DejaVuSans-31"/>
       <use x="63.623047" xlink:href="#DejaVuSans-34"/>
       <use x="127.246094" xlink:href="#DejaVuSans-30"/>
      </g>
     </g>
    </g>
    <g id="ytick_9">
     <g id="line2d_33">
      <path clip-path="url(#pd6cafa50ec)" d="M 46.965625 35.7555 
L 404.085625 35.7555 
" style="fill:none;stroke:#b0b0b0;stroke-linecap:square;stroke-width:0.8;"/>
     </g>
     <g id="line2d_34">
      <g>
       <use style="stroke:#000000;stroke-width:0.8;" x="46.965625" xlink:href="#m6e359b1ecf" y="35.7555"/>
      </g>
     </g>
     <g id="text_18">
      <!-- 160 -->
      <g transform="translate(20.878125 39.554719)scale(0.1 -0.1)">
       <use xlink:href="#DejaVuSans-31"/>
       <use x="63.623047" xlink:href="#DejaVuSans-36"/>
       <use x="127.246094" xlink:href="#DejaVuSans-30"/>
      </g>
     </g>
    </g>
    <g id="text_19">
     <!-- Number of nodes (accumulated) -->
     <defs>
      <path d="M 9.8125 72.90625 
L 23.09375 72.90625 
L 55.421875 11.921875 
L 55.421875 72.90625 
L 64.984375 72.90625 
L 64.984375 0 
L 51.703125 0 
L 19.390625 60.984375 
L 19.390625 0 
L 9.8125 0 
z
" id="DejaVuSans-4e"/>
      <path d="M 8.5 21.578125 
L 8.5 54.6875 
L 17.484375 54.6875 
L 17.484375 21.921875 
Q 17.484375 14.15625 20.5 10.265625 
Q 23.53125 6.390625 29.59375 6.390625 
Q 36.859375 6.390625 41.078125 11.03125 
Q 45.3125 15.671875 45.3125 23.6875 
L 45.3125 54.6875 
L 54.296875 54.6875 
L 54.296875 0 
L 45.3125 0 
L 45.3125 8.40625 
Q 42.046875 3.421875 37.71875 1 
Q 33.40625 -1.421875 27.6875 -1.421875 
Q 18.265625 -1.421875 13.375 4.4375 
Q 8.5 10.296875 8.5 21.578125 
z
M 31.109375 56 
z
" id="DejaVuSans-75"/>
      <path d="M 48.6875 27.296875 
Q 48.6875 37.203125 44.609375 42.84375 
Q 40.53125 48.484375 33.40625 48.484375 
Q 26.265625 48.484375 22.1875 42.84375 
Q 18.109375 37.203125 18.109375 27.296875 
Q 18.109375 17.390625 22.1875 11.75 
Q 26.265625 6.109375 33.40625 6.109375 
Q 40.53125 6.109375 44.609375 11.75 
Q 48.6875 17.390625 48.6875 27.296875 
z
M 18.109375 46.390625 
Q 20.953125 51.265625 25.265625 53.625 
Q 29.59375 56 35.59375 56 
Q 45.5625 56 51.78125 48.09375 
Q 58.015625 40.1875 58.015625 27.296875 
Q 58.015625 14.40625 51.78125 6.484375 
Q 45.5625 -1.421875 35.59375 -1.421875 
Q 29.59375 -1.421875 25.265625 0.953125 
Q 20.953125 3.328125 18.109375 8.203125 
L 18.109375 0 
L 9.078125 0 
L 9.078125 75.984375 
L 18.109375 75.984375 
z
" id="DejaVuSans-62"/>
      <path d="M 41.109375 46.296875 
Q 39.59375 47.171875 37.8125 47.578125 
Q 36.03125 48 33.890625 48 
Q 26.265625 48 22.1875 43.046875 
Q 18.109375 38.09375 18.109375 28.8125 
L 18.109375 0 
L 9.078125 0 
L 9.078125 54.6875 
L 18.109375 54.6875 
L 18.109375 46.1875 
Q 20.953125 51.171875 25.484375 53.578125 
Q 30.03125 56 36.53125 56 
Q 37.453125 56 38.578125 55.875 
Q 39.703125 55.765625 41.0625 55.515625 
z
" id="DejaVuSans-72"/>
      <path d="M 30.609375 48.390625 
Q 23.390625 48.390625 19.1875 42.75 
Q 14.984375 37.109375 14.984375 27.296875 
Q 14.984375 17.484375 19.15625 11.84375 
Q 23.34375 6.203125 30.609375 6.203125 
Q 37.796875 6.203125 41.984375 11.859375 
Q 46.1875 17.53125 46.1875 27.296875 
Q 46.1875 37.015625 41.984375 42.703125 
Q 37.796875 48.390625 30.609375 48.390625 
z
M 30.609375 56 
Q 42.328125 56 49.015625 48.375 
Q 55.71875 40.765625 55.71875 27.296875 
Q 55.71875 13.875 49.015625 6.21875 
Q 42.328125 -1.421875 30.609375 -1.421875 
Q 18.84375 -1.421875 12.171875 6.21875 
Q 5.515625 13.875 5.515625 27.296875 
Q 5.515625 40.765625 12.171875 48.375 
Q 18.84375 56 30.609375 56 
z
" id="DejaVuSans-6f"/>
      <path d="M 37.109375 75.984375 
L 37.109375 68.5 
L 28.515625 68.5 
Q 23.6875 68.5 21.796875 66.546875 
Q 19.921875 64.59375 19.921875 59.515625 
L 19.921875 54.6875 
L 34.71875 54.6875 
L 34.71875 47.703125 
L 19.921875 47.703125 
L 19.921875 0 
L 10.890625 0 
L 10.890625 47.703125 
L 2.296875 47.703125 
L 2.296875 54.6875 
L 10.890625 54.6875 
L 10.890625 58.5 
Q 10.890625 67.625 15.140625 71.796875 
Q 19.390625 75.984375 28.609375 75.984375 
z
" id="DejaVuSans-66"/>
      <path d="M 54.890625 33.015625 
L 54.890625 0 
L 45.90625 0 
L 45.90625 32.71875 
Q 45.90625 40.484375 42.875 44.328125 
Q 39.84375 48.1875 33.796875 48.1875 
Q 26.515625 48.1875 22.3125 43.546875 
Q 18.109375 38.921875 18.109375 30.90625 
L 18.109375 0 
L 9.078125 0 
L 9.078125 54.6875 
L 18.109375 54.6875 
L 18.109375 46.1875 
Q 21.34375 51.125 25.703125 53.5625 
Q 30.078125 56 35.796875 56 
Q 45.21875 56 50.046875 50.171875 
Q 54.890625 44.34375 54.890625 33.015625 
z
" id="DejaVuSans-6e"/>
      <path d="M 45.40625 46.390625 
L 45.40625 75.984375 
L 54.390625 75.984375 
L 54.390625 0 
L 45.40625 0 
L 45.40625 8.203125 
Q 42.578125 3.328125 38.25 0.953125 
Q 33.9375 -1.421875 27.875 -1.421875 
Q 17.96875 -1.421875 11.734375 6.484375 
Q 5.515625 14.40625 5.515625 27.296875 
Q 5.515625 40.1875 11.734375 48.09375 
Q 17.96875 56 27.875 56 
Q 33.9375 56 38.25 53.625 
Q 42.578125 51.265625 45.40625 46.390625 
z
M 14.796875 27.296875 
Q 14.796875 17.390625 18.875 11.75 
Q 22.953125 6.109375 30.078125 6.109375 
Q 37.203125 6.109375 41.296875 11.75 
Q 45.40625 17.390625 45.40625 27.296875 
Q 45.40625 37.203125 41.296875 42.84375 
Q 37.203125 48.484375 30.078125 48.484375 
Q 22.953125 48.484375 18.875 42.84375 
Q 14.796875 37.203125 14.796875 27.296875 
z
" id="DejaVuSans-64"/>
      <path d="M 34.28125 27.484375 
Q 23.390625 27.484375 19.1875 25 
Q 14.984375 22.515625 14.984375 16.5 
Q 14.984375 11.71875 18.140625 8.90625 
Q 21.296875 6.109375 26.703125 6.109375 
Q 34.1875 6.109375 38.703125 11.40625 
Q 43.21875 16.703125 43.21875 25.484375 
L 43.21875 27.484375 
z
M 52.203125 31.203125 
L 52.203125 0 
L 43.21875 0 
L 43.21875 8.296875 
Q 40.140625 3.328125 35.546875 0.953125 
Q 30.953125 -1.421875 24.3125 -1.421875 
Q 15.921875 -1.421875 10.953125 3.296875 
Q 6 8.015625 6 15.921875 
Q 6 25.140625 12.171875 29.828125 
Q 18.359375 34.515625 30.609375 34.515625 
L 43.21875 34.515625 
L 43.21875 35.40625 
Q 43.21875 41.609375 39.140625 45 
Q 35.0625 48.390625 27.6875 48.390625 
Q 23 48.390625 18.546875 47.265625 
Q 14.109375 46.140625 10.015625 43.890625 
L 10.015625 52.203125 
Q 14.9375 54.109375 19.578125 55.046875 
Q 24.21875 56 28.609375 56 
Q 40.484375 56 46.34375 49.84375 
Q 52.203125 43.703125 52.203125 31.203125 
z
" id="DejaVuSans-61"/>
      <path d="M 48.78125 52.59375 
L 48.78125 44.1875 
Q 44.96875 46.296875 41.140625 47.34375 
Q 37.3125 48.390625 33.40625 48.390625 
Q 24.65625 48.390625 19.8125 42.84375 
Q 14.984375 37.3125 14.984375 27.296875 
Q 14.984375 17.28125 19.8125 11.734375 
Q 24.65625 6.203125 33.40625 6.203125 
Q 37.3125 6.203125 41.140625 7.25 
Q 44.96875 8.296875 48.78125 10.40625 
L 48.78125 2.09375 
Q 45.015625 0.34375 40.984375 -0.53125 
Q 36.96875 -1.421875 32.421875 -1.421875 
Q 20.0625 -1.421875 12.78125 6.34375 
Q 5.515625 14.109375 5.515625 27.296875 
Q 5.515625 40.671875 12.859375 48.328125 
Q 20.21875 56 33.015625 56 
Q 37.15625 56 41.109375 55.140625 
Q 45.0625 54.296875 48.78125 52.59375 
z
" id="DejaVuSans-63"/>
      <path d="M 9.421875 75.984375 
L 18.40625 75.984375 
L 18.40625 0 
L 9.421875 0 
z
" id="DejaVuSans-6c"/>
      <path d="M 18.3125 70.21875 
L 18.3125 54.6875 
L 36.8125 54.6875 
L 36.8125 47.703125 
L 18.3125 47.703125 
L 18.3125 18.015625 
Q 18.3125 11.328125 20.140625 9.421875 
Q 21.96875 7.515625 27.59375 7.515625 
L 36.8125 7.515625 
L 36.8125 0 
L 27.59375 0 
Q 17.1875 0 13.234375 3.875 
Q 9.28125 7.765625 9.28125 18.015625 
L 9.28125 47.703125 
L 2.6875 47.703125 
L 2.6875 54.6875 
L 9.28125 54.6875 
L 9.28125 70.21875 
z
" id="DejaVuSans-74"/>
     </defs>
     <g transform="translate(14.798438 249.903687)rotate(-90)scale(0.1 -0.1)">
      <use xlink:href="#DejaVuSans-4e"/>
      <use x="74.804688" xlink:href="#DejaVuSans-75"/>
      <use x="138.183594" xlink:href="#DejaVuSans-6d"/>
      <use x="235.595703" xlink:href="#DejaVuSans-62"/>
      <use x="299.072266" xlink:href="#DejaVuSans-65"/>
      <use x="360.595703" xlink:href="#DejaVuSans-72"/>
      <use x="401.708984" xlink:href="#DejaVuSans-20"/>
      <use x="433.496094" xlink:href="#DejaVuSans-6f"/>
      <use x="494.677734" xlink:href="#DejaVuSans-66"/>
      <use x="529.882812" xlink:href="#DejaVuSans-20"/>
      <use x="561.669922" xlink:href="#DejaVuSans-6e"/>
      <use x="625.048828" xlink:href="#DejaVuSans-6f"/>
      <use x="686.230469" xlink:href="#DejaVuSans-64"/>
      <use x="749.707031" xlink:href="#DejaVuSans-65"/>
      <use x="811.230469" xlink:href="#DejaVuSans-73"/>
      <use x="863.330078" xlink:href="#DejaVuSans-20"/>
      <use x="895.117188" xlink:href="#DejaVuSans-28"/>
      <use x="934.130859" xlink:href="#DejaVuSans-61"/>
      <use x="995.410156" xlink:href="#DejaVuSans-63"/>
      <use x="1050.390625" xlink:href="#DejaVuSans-63"/>
      <use x="1105.371094" xlink:href="#DejaVuSans-75"/>
      <use x="1168.75" xlink:href="#DejaVuSans-6d"/>
      <use x="1266.162109" xlink:href="#DejaVuSans-75"/>
      <use x="1329.541016" xlink:href="#DejaVuSans-6c"/>
      <use x="1357.324219" xlink:href="#DejaVuSans-61"/>
      <use x="1418.603516" xlink:href="#DejaVuSans-74"/>
      <use x="1457.8125" xlink:href="#DejaVuSans-65"/>
      <use x="1519.335938" xlink:href="#DejaVuSans-64"/>
      <use x="1582.8125" xlink:href="#DejaVuSans-29"/>
     </g>
    </g>
   </g>
   <g id="line2d_35">
    <path clip-path="url(#pd6cafa50ec)" d="M 46.965625 296.0463 
L 47.930814 294.3831 
L 48.896003 291.8883 
L 49.861193 287.7303 
L 50.826382 286.8987 
L 51.791571 286.8987 
L 52.75676 284.4039 
L 53.721949 283.5723 
L 54.687139 280.2459 
L 55.652328 279.4143 
L 56.617517 279.4143 
L 57.582706 277.7511 
L 58.547895 274.4247 
L 59.513084 271.9299 
L 60.478274 267.7719 
L 61.443463 265.2771 
L 62.408652 261.1191 
L 63.373841 256.1295 
L 65.30422 247.8135 
L 67.234598 241.1607 
L 68.199787 239.4975 
L 69.164976 237.0027 
L 70.130166 232.8447 
L 71.095355 230.3499 
L 72.060544 226.1919 
L 73.025733 223.6971 
L 73.990922 222.0339 
L 74.956111 218.7075 
L 75.921301 217.0443 
L 76.88649 214.5495 
L 77.851679 205.4019 
L 78.816868 203.7387 
L 79.782057 200.4123 
L 80.747247 198.7491 
L 81.712436 197.9175 
L 82.677625 195.4227 
L 83.642814 193.7595 
L 84.608003 190.4331 
L 85.573193 183.7803 
L 86.538382 182.1171 
L 87.503571 179.6223 
L 88.46876 174.6327 
L 90.399139 169.6431 
L 91.364328 168.8115 
L 92.329517 166.3167 
L 93.294706 165.4851 
L 94.259895 165.4851 
L 95.225084 162.9903 
L 96.190274 162.9903 
L 97.155463 159.6639 
L 98.120652 158.8323 
L 99.085841 157.1691 
L 100.05103 154.6743 
L 101.01622 151.3479 
L 102.946598 149.6847 
L 103.911787 149.6847 
L 104.876976 148.8531 
L 106.807355 142.2003 
L 107.772544 139.7055 
L 109.702922 139.7055 
L 110.668111 138.8739 
L 113.563679 138.8739 
L 114.528868 137.2107 
L 116.459247 135.5475 
L 149.275679 135.5475 
L 150.240868 134.7159 
L 151.206057 134.7159 
L 152.171247 133.0527 
L 153.136436 133.0527 
L 155.066814 131.3895 
L 156.032003 128.8947 
L 157.962382 127.2315 
L 158.927571 127.2315 
L 159.89276 125.5683 
L 160.857949 123.0735 
L 161.823139 119.7471 
L 162.788328 119.7471 
L 163.753517 118.9155 
L 164.718706 116.4207 
L 165.683895 115.5891 
L 166.649084 111.4311 
L 167.614274 108.9363 
L 168.579463 107.2731 
L 169.544652 104.7783 
L 170.509841 104.7783 
L 172.44022 103.1151 
L 173.405409 100.6203 
L 174.370598 98.9571 
L 176.300976 93.9675 
L 177.266166 93.9675 
L 178.231355 92.3043 
L 179.196544 91.4727 
L 181.126922 91.4727 
L 182.092111 89.8095 
L 183.057301 89.8095 
L 184.02249 86.4831 
L 184.987679 84.8199 
L 185.952868 84.8199 
L 186.918057 82.3251 
L 188.848436 82.3251 
L 189.813625 78.9987 
L 190.778814 77.3355 
L 191.744003 76.5039 
L 193.674382 76.5039 
L 194.639571 74.8407 
L 195.60476 72.3459 
L 196.569949 68.1879 
L 197.535139 64.8615 
L 198.500328 64.0299 
L 199.465517 64.0299 
L 200.430706 63.1983 
L 201.395895 61.5351 
L 203.326274 61.5351 
L 204.291463 60.7035 
L 205.256652 59.0403 
L 209.117409 55.7139 
L 210.082598 53.2191 
L 212.978166 53.2191 
L 213.943355 52.3875 
L 214.908544 52.3875 
L 216.838922 49.0611 
L 217.804111 48.2295 
L 218.769301 46.5663 
L 219.73449 45.7347 
L 221.664868 45.7347 
L 222.630057 44.9031 
L 223.595247 43.2399 
L 226.490814 43.2399 
L 227.456003 42.4083 
L 313.357841 42.4083 
L 314.32303 41.5767 
L 315.28822 41.5767 
L 317.218598 39.9135 
L 318.183787 39.9135 
L 319.148976 38.2503 
L 322.044544 38.2503 
L 323.009733 36.5871 
L 323.974922 35.7555 
L 403.120436 35.7555 
L 403.120436 35.7555 
" style="fill:none;stroke:#008000;stroke-linecap:square;stroke-width:1.5;"/>
   </g>
   <g id="patch_3">
    <path d="M 46.965625 301.8675 
L 46.965625 35.7555 
" style="fill:none;stroke:#000000;stroke-linecap:square;stroke-linejoin:miter;stroke-width:0.8;"/>
   </g>
   <g id="patch_4">
    <path d="M 404.085625 301.8675 
L 404.085625 35.7555 
" style="fill:none;stroke:#000000;stroke-linecap:square;stroke-linejoin:miter;stroke-width:0.8;"/>
   </g>
   <g id="patch_5">
    <path d="M 46.965625 301.8675 
L 404.085625 301.8675 
" style="fill:none;stroke:#000000;stroke-linecap:square;stroke-linejoin:miter;stroke-width:0.8;"/>
   </g>
   <g id="patch_6">
    <path d="M 46.965625 35.7555 
L 404.085625 35.7555 
" style="fill:none;stroke:#000000;stroke-linecap:square;stroke-linejoin:miter;stroke-width:0.8;"/>
   </g>
   <g id="text_20">
    <!-- % discovered (avg): 100.00 % -->
    <defs>
     <path d="M 72.703125 32.078125 
Q 68.453125 32.078125 66.03125 28.46875 
Q 63.625 24.859375 63.625 18.40625 
Q 63.625 12.0625 66.03125 8.421875 
Q 68.453125 4.78125 72.703125 4.78125 
Q 76.859375 4.78125 79.265625 8.421875 
Q 81.6875 12.0625 81.6875 18.40625 
Q 81.6875 24.8125 79.265625 28.4375 
Q 76.859375 32.078125 72.703125 32.078125 
z
M 72.703125 38.28125 
Q 80.421875 38.28125 84.953125 32.90625 
Q 89.5 27.546875 89.5 18.40625 
Q 89.5 9.28125 84.9375 3.921875 
Q 80.375 -1.421875 72.703125 -1.421875 
Q 64.890625 -1.421875 60.34375 3.921875 
Q 55.8125 9.28125 55.8125 18.40625 
Q 55.8125 27.59375 60.375 32.9375 
Q 64.9375 38.28125 72.703125 38.28125 
z
M 22.3125 68.015625 
Q 18.109375 68.015625 15.6875 64.375 
Q 13.28125 60.75 13.28125 54.390625 
Q 13.28125 47.953125 15.671875 44.328125 
Q 18.0625 40.71875 22.3125 40.71875 
Q 26.5625 40.71875 28.96875 44.328125 
Q 31.390625 47.953125 31.390625 54.390625 
Q 31.390625 60.6875 28.953125 64.34375 
Q 26.515625 68.015625 22.3125 68.015625 
z
M 66.40625 74.21875 
L 74.21875 74.21875 
L 28.609375 -1.421875 
L 20.796875 -1.421875 
z
M 22.3125 74.21875 
Q 30.03125 74.21875 34.609375 68.875 
Q 39.203125 63.53125 39.203125 54.390625 
Q 39.203125 45.171875 34.640625 39.84375 
Q 30.078125 34.515625 22.3125 34.515625 
Q 14.546875 34.515625 10.03125 39.859375 
Q 5.515625 45.21875 5.515625 54.390625 
Q 5.515625 63.484375 10.046875 68.84375 
Q 14.59375 74.21875 22.3125 74.21875 
z
" id="DejaVuSans-25"/>
     <path d="M 2.984375 54.6875 
L 12.5 54.6875 
L 29.59375 8.796875 
L 46.6875 54.6875 
L 56.203125 54.6875 
L 35.6875 0 
L 23.484375 0 
z
" id="DejaVuSans-76"/>
     <path d="M 45.40625 27.984375 
Q 45.40625 37.75 41.375 43.109375 
Q 37.359375 48.484375 30.078125 48.484375 
Q 22.859375 48.484375 18.828125 43.109375 
Q 14.796875 37.75 14.796875 27.984375 
Q 14.796875 18.265625 18.828125 12.890625 
Q 22.859375 7.515625 30.078125 7.515625 
Q 37.359375 7.515625 41.375 12.890625 
Q 45.40625 18.265625 45.40625 27.984375 
z
M 54.390625 6.78125 
Q 54.390625 -7.171875 48.1875 -13.984375 
Q 42 -20.796875 29.203125 -20.796875 
Q 24.46875 -20.796875 20.265625 -20.09375 
Q 16.0625 -19.390625 12.109375 -17.921875 
L 12.109375 -9.1875 
Q 16.0625 -11.328125 19.921875 -12.34375 
Q 23.78125 -13.375 27.78125 -13.375 
Q 36.625 -13.375 41.015625 -8.765625 
Q 45.40625 -4.15625 45.40625 5.171875 
L 45.40625 9.625 
Q 42.625 4.78125 38.28125 2.390625 
Q 33.9375 0 27.875 0 
Q 17.828125 0 11.671875 7.65625 
Q 5.515625 15.328125 5.515625 27.984375 
Q 5.515625 40.671875 11.671875 48.328125 
Q 17.828125 56 27.875 56 
Q 33.9375 56 38.28125 53.609375 
Q 42.625 51.21875 45.40625 46.390625 
L 45.40625 54.6875 
L 54.390625 54.6875 
z
" id="DejaVuSans-67"/>
     <path d="M 11.71875 12.40625 
L 22.015625 12.40625 
L 22.015625 0 
L 11.71875 0 
z
M 11.71875 51.703125 
L 22.015625 51.703125 
L 22.015625 39.3125 
L 11.71875 39.3125 
z
" id="DejaVuSans-3a"/>
     <path d="M 10.6875 12.40625 
L 21 12.40625 
L 21 0 
L 10.6875 0 
z
" id="DejaVuSans-2e"/>
    </defs>
    <g transform="translate(421.941625 279.471875)scale(0.1 -0.1)">
     <use xlink:href="#DejaVuSans-25"/>
     <use x="95.019531" xlink:href="#DejaVuSans-20"/>
     <use x="126.806641" xlink:href="#DejaVuSans-64"/>
     <use x="190.283203" xlink:href="#DejaVuSans-69"/>
     <use x="218.066406" xlink:href="#DejaVuSans-73"/>
     <use x="270.166016" xlink:href="#DejaVuSans-63"/>
     <use x="325.146484" xlink:href="#DejaVuSans-6f"/>
     <use x="386.328125" xlink:href="#DejaVuSans-76"/>
     <use x="445.507812" xlink:href="#DejaVuSans-65"/>
     <use x="507.03125" xlink:href="#DejaVuSans-72"/>
     <use x="548.113281" xlink:href="#DejaVuSans-65"/>
     <use x="609.636719" xlink:href="#DejaVuSans-64"/>
     <use x="673.113281" xlink:href="#DejaVuSans-20"/>
     <use x="704.900391" xlink:href="#DejaVuSans-28"/>
     <use x="743.914062" xlink:href="#DejaVuSans-61"/>
     <use x="805.193359" xlink:href="#DejaVuSans-76"/>
     <use x="864.373047" xlink:href="#DejaVuSans-67"/>
     <use x="927.849609" xlink:href="#DejaVuSans-29"/>
     <use x="966.863281" xlink:href="#DejaVuSans-3a"/>
     <use x="1000.554688" xlink:href="#DejaVuSans-20"/>
     <use x="1032.341797" xlink:href="#DejaVuSans-31"/>
     <use x="1095.964844" xlink:href="#DejaVuSans-30"/>
     <use x="1159.587891" xlink:href="#DejaVuSans-30"/>
     <use x="1223.210938" xlink:href="#DejaVuSans-2e"/>
     <use x="1254.998047" xlink:href="#DejaVuSans-30"/>
     <use x="1318.621094" xlink:href="#DejaVuSans-30"/>
     <use x="1382.244141" xlink:href="#DejaVuSans-20"/>
     <use x="1414.03125" xlink:href="#DejaVuSans-25"/>
    </g>
    <!-- Total discovered (avg): 160.0 -->
    <g transform="translate(421.941625 290.669687)scale(0.1 -0.1)">
     <use xlink:href="#DejaVuSans-54"/>
     <use x="60.818359" xlink:href="#DejaVuSans-6f"/>
     <use x="122" xlink:href="#DejaVuSans-74"/>
     <use x="161.208984" xlink:href="#DejaVuSans-61"/>
     <use x="222.488281" xlink:href="#DejaVuSans-6c"/>
     <use x="250.271484" xlink:href="#DejaVuSans-20"/>
     <use x="282.058594" xlink:href="#DejaVuSans-64"/>
     <use x="345.535156" xlink:href="#DejaVuSans-69"/>
     <use x="373.318359" xlink:href="#DejaVuSans-73"/>
     <use x="425.417969" xlink:href="#DejaVuSans-63"/>
     <use x="480.398438" xlink:href="#DejaVuSans-6f"/>
     <use x="541.580078" xlink:href="#DejaVuSans-76"/>
     <use x="600.759766" xlink:href="#DejaVuSans-65"/>
     <use x="662.283203" xlink:href="#DejaVuSans-72"/>
     <use x="703.365234" xlink:href="#DejaVuSans-65"/>
     <use x="764.888672" xlink:href="#DejaVuSans-64"/>
     <use x="828.365234" xlink:href="#DejaVuSans-20"/>
     <use x="860.152344" xlink:href="#DejaVuSans-28"/>
     <use x="899.166016" xlink:href="#DejaVuSans-61"/>
     <use x="960.445312" xlink:href="#DejaVuSans-76"/>
     <use x="1019.625" xlink:href="#DejaVuSans-67"/>
     <use x="1083.101562" xlink:href="#DejaVuSans-29"/>
     <use x="1122.115234" xlink:href="#DejaVuSans-3a"/>
     <use x="1155.806641" xlink:href="#DejaVuSans-20"/>
     <use x="1187.59375" xlink:href="#DejaVuSans-31"/>
     <use x="1251.216797" xlink:href="#DejaVuSans-36"/>
     <use x="1314.839844" xlink:href="#DejaVuSans-30"/>
     <use x="1378.462891" xlink:href="#DejaVuSans-2e"/>
     <use x="1410.25" xlink:href="#DejaVuSans-30"/>
    </g>
    <!-- dev: 0.00 -->
    <g transform="translate(421.941625 301.8675)scale(0.1 -0.1)">
     <use xlink:href="#DejaVuSans-64"/>
     <use x="63.476562" xlink:href="#DejaVuSans-65"/>
     <use x="125" xlink:href="#DejaVuSans-76"/>
     <use x="184.101562" xlink:href="#DejaVuSans-3a"/>
     <use x="217.792969" xlink:href="#DejaVuSans-20"/>
     <use x="249.580078" xlink:href="#DejaVuSans-30"/>
     <use x="313.203125" xlink:href="#DejaVuSans-2e"/>
     <use x="344.990234" xlink:href="#DejaVuSans-30"/>
     <use x="408.613281" xlink:href="#DejaVuSans-30"/>
    </g>
   </g>
   <g id="text_21">
    <!-- Discovered nodes per time (accumulated) [avg] -->
    <defs>
     <path d="M 19.671875 64.796875 
L 19.671875 8.109375 
L 31.59375 8.109375 
Q 46.6875 8.109375 53.6875 14.9375 
Q 60.6875 21.78125 60.6875 36.53125 
Q 60.6875 51.171875 53.6875 57.984375 
Q 46.6875 64.796875 31.59375 64.796875 
z
M 9.8125 72.90625 
L 30.078125 72.90625 
Q 51.265625 72.90625 61.171875 64.09375 
Q 71.09375 55.28125 71.09375 36.53125 
Q 71.09375 17.671875 61.125 8.828125 
Q 51.171875 0 30.078125 0 
L 9.8125 0 
z
" id="DejaVuSans-44"/>
     <path d="M 18.109375 8.203125 
L 18.109375 -20.796875 
L 9.078125 -20.796875 
L 9.078125 54.6875 
L 18.109375 54.6875 
L 18.109375 46.390625 
Q 20.953125 51.265625 25.265625 53.625 
Q 29.59375 56 35.59375 56 
Q 45.5625 56 51.78125 48.09375 
Q 58.015625 40.1875 58.015625 27.296875 
Q 58.015625 14.40625 51.78125 6.484375 
Q 45.5625 -1.421875 35.59375 -1.421875 
Q 29.59375 -1.421875 25.265625 0.953125 
Q 20.953125 3.328125 18.109375 8.203125 
z
M 48.6875 27.296875 
Q 48.6875 37.203125 44.609375 42.84375 
Q 40.53125 48.484375 33.40625 48.484375 
Q 26.265625 48.484375 22.1875 42.84375 
Q 18.109375 37.203125 18.109375 27.296875 
Q 18.109375 17.390625 22.1875 11.75 
Q 26.265625 6.109375 33.40625 6.109375 
Q 40.53125 6.109375 44.609375 11.75 
Q 48.6875 17.390625 48.6875 27.296875 
z
" id="DejaVuSans-70"/>
     <path d="M 8.59375 75.984375 
L 29.296875 75.984375 
L 29.296875 69 
L 17.578125 69 
L 17.578125 -6.203125 
L 29.296875 -6.203125 
L 29.296875 -13.1875 
L 8.59375 -13.1875 
z
" id="DejaVuSans-5b"/>
     <path d="M 30.421875 75.984375 
L 30.421875 -13.1875 
L 9.71875 -13.1875 
L 9.71875 -6.203125 
L 21.390625 -6.203125 
L 21.390625 69 
L 9.71875 69 
L 9.71875 75.984375 
z
" id="DejaVuSans-5d"/>
    </defs>
    <g transform="translate(81.454375 16.318125)scale(0.12 -0.12)">
     <use xlink:href="#DejaVuSans-44"/>
     <use x="77.001953" xlink:href="#DejaVuSans-69"/>
     <use x="104.785156" xlink:href="#DejaVuSans-73"/>
     <use x="156.884766" xlink:href="#DejaVuSans-63"/>
     <use x="211.865234" xlink:href="#DejaVuSans-6f"/>
     <use x="273.046875" xlink:href="#DejaVuSans-76"/>
     <use x="332.226562" xlink:href="#DejaVuSans-65"/>
     <use x="393.75" xlink:href="#DejaVuSans-72"/>
     <use x="434.832031" xlink:href="#DejaVuSans-65"/>
     <use x="496.355469" xlink:href="#DejaVuSans-64"/>
     <use x="559.832031" xlink:href="#DejaVuSans-20"/>
     <use x="591.619141" xlink:href="#DejaVuSans-6e"/>
     <use x="654.998047" xlink:href="#DejaVuSans-6f"/>
     <use x="716.179688" xlink:href="#DejaVuSans-64"/>
     <use x="779.65625" xlink:href="#DejaVuSans-65"/>
     <use x="841.179688" xlink:href="#DejaVuSans-73"/>
     <use x="893.279297" xlink:href="#DejaVuSans-20"/>
     <use x="925.066406" xlink:href="#DejaVuSans-70"/>
     <use x="988.542969" xlink:href="#DejaVuSans-65"/>
     <use x="1050.066406" xlink:href="#DejaVuSans-72"/>
     <use x="1091.179688" xlink:href="#DejaVuSans-20"/>
     <use x="1122.966797" xlink:href="#DejaVuSans-74"/>
     <use x="1162.175781" xlink:href="#DejaVuSans-69"/>
     <use x="1189.958984" xlink:href="#DejaVuSans-6d"/>
     <use x="1287.371094" xlink:href="#DejaVuSans-65"/>
     <use x="1348.894531" xlink:href="#DejaVuSans-20"/>
     <use x="1380.681641" xlink:href="#DejaVuSans-28"/>
     <use x="1419.695312" xlink:href="#DejaVuSans-61"/>
     <use x="1480.974609" xlink:href="#DejaVuSans-63"/>
     <use x="1535.955078" xlink:href="#DejaVuSans-63"/>
     <use x="1590.935547" xlink:href="#DejaVuSans-75"/>
     <use x="1654.314453" xlink:href="#DejaVuSans-6d"/>
     <use x="1751.726562" xlink:href="#DejaVuSans-75"/>
     <use x="1815.105469" xlink:href="#DejaVuSans-6c"/>
     <use x="1842.888672" xlink:href="#DejaVuSans-61"/>
     <use x="1904.167969" xlink:href="#DejaVuSans-74"/>
     <use x="1943.376953" xlink:href="#DejaVuSans-65"/>
     <use x="2004.900391" xlink:href="#DejaVuSans-64"/>
     <use x="2068.376953" xlink:href="#DejaVuSans-29"/>
     <use x="2107.390625" xlink:href="#DejaVuSans-20"/>
     <use x="2139.177734" xlink:href="#DejaVuSans-5b"/>
     <use x="2178.191406" xlink:href="#DejaVuSans-61"/>
     <use x="2239.470703" xlink:href="#DejaVuSans-76"/>
     <use x="2298.650391" xlink:href="#DejaVuSans-67"/>
     <use x="2362.126953" xlink:href="#DejaVuSans-5d"/>
    </g>
    <!-- pso: 180614-184558 -->
    <defs>
     <path d="M 4.890625 31.390625 
L 31.203125 31.390625 
L 31.203125 23.390625 
L 4.890625 23.390625 
z
" id="DejaVuSans-2d"/>
    </defs>
    <g transform="translate(163.016875 29.7555)scale(0.12 -0.12)">
     <use xlink:href="#DejaVuSans-70"/>
     <use x="63.476562" xlink:href="#DejaVuSans-73"/>
     <use x="115.576172" xlink:href="#DejaVuSans-6f"/>
     <use x="176.757812" xlink:href="#DejaVuSans-3a"/>
     <use x="210.449219" xlink:href="#DejaVuSans-20"/>
     <use x="242.236328" xlink:href="#DejaVuSans-31"/>
     <use x="305.859375" xlink:href="#DejaVuSans-38"/>
     <use x="369.482422" xlink:href="#DejaVuSans-30"/>
     <use x="433.105469" xlink:href="#DejaVuSans-36"/>
     <use x="496.728516" xlink:href="#DejaVuSans-31"/>
     <use x="560.351562" xlink:href="#DejaVuSans-34"/>
     <use x="623.974609" xlink:href="#DejaVuSans-2d"/>
     <use x="660.058594" xlink:href="#DejaVuSans-31"/>
     <use x="723.681641" xlink:href="#DejaVuSans-38"/>
     <use x="787.304688" xlink:href="#DejaVuSans-34"/>
     <use x="850.927734" xlink:href="#DejaVuSans-35"/>
     <use x="914.550781" xlink:href="#DejaVuSans-35"/>
     <use x="978.173828" xlink:href="#DejaVuSans-38"/>
    </g>
   </g>
  </g>
 </g>
 <defs>
  <clipPath id="pd6cafa50ec">
   <rect height="266.112" width="357.12" x="46.965625" y="35.7555"/>
  </clipPath>
 </defs>
</svg>
