<?xml version="1.0" encoding="utf-8" standalone="no"?>
<!DOCTYPE svg PUBLIC "-//W3C//DTD SVG 1.1//EN"
  "http://www.w3.org/Graphics/SVG/1.1/DTD/svg11.dtd">
<!-- Created with matplotlib (http://matplotlib.org/) -->
<svg height="352pt" version="1.1" viewBox="0 0 491 352" width="491pt" xmlns="http://www.w3.org/2000/svg" xmlns:xlink="http://www.w3.org/1999/xlink">
 <defs>
  <style type="text/css">
*{stroke-linecap:butt;stroke-linejoin:round;}
  </style>
 </defs>
 <g id="figure_1">
  <g id="patch_1">
   <path d="M 0 352.861125 
L 491.671775 352.861125 
L 491.671775 0 
L 0 0 
z
" style="fill:#ffffff;"/>
  </g>
  <g id="axes_1">
   <g id="patch_2">
    <path d="M 40.603125 315.304875 
L 397.723125 315.304875 
L 397.723125 49.192875 
L 40.603125 49.192875 
z
" style="fill:#ffffff;"/>
   </g>
   <g id="matplotlib.axis_1">
    <g id="xtick_1">
     <g id="line2d_1">
      <path clip-path="url(#p9334036b8f)" d="M 40.603125 315.304875 
L 40.603125 49.192875 
" style="fill:none;stroke:#b0b0b0;stroke-linecap:square;stroke-width:0.8;"/>
     </g>
     <g id="line2d_2">
      <defs>
       <path d="M 0 0 
L 0 3.5 
" id="m5cd8f2b61b" style="stroke:#000000;stroke-width:0.8;"/>
      </defs>
      <g>
       <use style="stroke:#000000;stroke-width:0.8;" x="40.603125" xlink:href="#m5cd8f2b61b" y="315.304875"/>
      </g>
     </g>
     <g id="text_1">
      <!-- 0 -->
      <defs>
       <path d="M 31.78125 66.40625 
Q 24.171875 66.40625 20.328125 58.90625 
Q 16.5 51.421875 16.5 36.375 
Q 16.5 21.390625 20.328125 13.890625 
Q 24.171875 6.390625 31.78125 6.390625 
Q 39.453125 6.390625 43.28125 13.890625 
Q 47.125 21.390625 47.125 36.375 
Q 47.125 51.421875 43.28125 58.90625 
Q 39.453125 66.40625 31.78125 66.40625 
z
M 31.78125 74.21875 
Q 44.046875 74.21875 50.515625 64.515625 
Q 56.984375 54.828125 56.984375 36.375 
Q 56.984375 17.96875 50.515625 8.265625 
Q 44.046875 -1.421875 31.78125 -1.421875 
Q 19.53125 -1.421875 13.0625 8.265625 
Q 6.59375 17.96875 6.59375 36.375 
Q 6.59375 54.828125 13.0625 64.515625 
Q 19.53125 74.21875 31.78125 74.21875 
z
" id="DejaVuSans-30"/>
      </defs>
      <g transform="translate(37.421875 329.903312)scale(0.1 -0.1)">
       <use xlink:href="#DejaVuSans-30"/>
      </g>
     </g>
    </g>
    <g id="xtick_2">
     <g id="line2d_3">
      <path clip-path="url(#p9334036b8f)" d="M 88.862584 315.304875 
L 88.862584 49.192875 
" style="fill:none;stroke:#b0b0b0;stroke-linecap:square;stroke-width:0.8;"/>
     </g>
     <g id="line2d_4">
      <g>
       <use style="stroke:#000000;stroke-width:0.8;" x="88.862584" xlink:href="#m5cd8f2b61b" y="315.304875"/>
      </g>
     </g>
     <g id="text_2">
      <!-- 50 -->
      <defs>
       <path d="M 10.796875 72.90625 
L 49.515625 72.90625 
L 49.515625 64.59375 
L 19.828125 64.59375 
L 19.828125 46.734375 
Q 21.96875 47.46875 24.109375 47.828125 
Q 26.265625 48.1875 28.421875 48.1875 
Q 40.625 48.1875 47.75 41.5 
Q 54.890625 34.8125 54.890625 23.390625 
Q 54.890625 11.625 47.5625 5.09375 
Q 40.234375 -1.421875 26.90625 -1.421875 
Q 22.3125 -1.421875 17.546875 -0.640625 
Q 12.796875 0.140625 7.71875 1.703125 
L 7.71875 11.625 
Q 12.109375 9.234375 16.796875 8.0625 
Q 21.484375 6.890625 26.703125 6.890625 
Q 35.15625 6.890625 40.078125 11.328125 
Q 45.015625 15.765625 45.015625 23.390625 
Q 45.015625 31 40.078125 35.4375 
Q 35.15625 39.890625 26.703125 39.890625 
Q 22.75 39.890625 18.8125 39.015625 
Q 14.890625 38.140625 10.796875 36.28125 
z
" id="DejaVuSans-35"/>
      </defs>
      <g transform="translate(82.500084 329.903312)scale(0.1 -0.1)">
       <use xlink:href="#DejaVuSans-35"/>
       <use x="63.623047" xlink:href="#DejaVuSans-30"/>
      </g>
     </g>
    </g>
    <g id="xtick_3">
     <g id="line2d_5">
      <path clip-path="url(#p9334036b8f)" d="M 137.122044 315.304875 
L 137.122044 49.192875 
" style="fill:none;stroke:#b0b0b0;stroke-linecap:square;stroke-width:0.8;"/>
     </g>
     <g id="line2d_6">
      <g>
       <use style="stroke:#000000;stroke-width:0.8;" x="137.122044" xlink:href="#m5cd8f2b61b" y="315.304875"/>
      </g>
     </g>
     <g id="text_3">
      <!-- 100 -->
      <defs>
       <path d="M 12.40625 8.296875 
L 28.515625 8.296875 
L 28.515625 63.921875 
L 10.984375 60.40625 
L 10.984375 69.390625 
L 28.421875 72.90625 
L 38.28125 72.90625 
L 38.28125 8.296875 
L 54.390625 8.296875 
L 54.390625 0 
L 12.40625 0 
z
" id="DejaVuSans-31"/>
      </defs>
      <g transform="translate(127.578294 329.903312)scale(0.1 -0.1)">
       <use xlink:href="#DejaVuSans-31"/>
       <use x="63.623047" xlink:href="#DejaVuSans-30"/>
       <use x="127.246094" xlink:href="#DejaVuSans-30"/>
      </g>
     </g>
    </g>
    <g id="xtick_4">
     <g id="line2d_7">
      <path clip-path="url(#p9334036b8f)" d="M 185.381503 315.304875 
L 185.381503 49.192875 
" style="fill:none;stroke:#b0b0b0;stroke-linecap:square;stroke-width:0.8;"/>
     </g>
     <g id="line2d_8">
      <g>
       <use style="stroke:#000000;stroke-width:0.8;" x="185.381503" xlink:href="#m5cd8f2b61b" y="315.304875"/>
      </g>
     </g>
     <g id="text_4">
      <!-- 150 -->
      <g transform="translate(175.837753 329.903312)scale(0.1 -0.1)">
       <use xlink:href="#DejaVuSans-31"/>
       <use x="63.623047" xlink:href="#DejaVuSans-35"/>
       <use x="127.246094" xlink:href="#DejaVuSans-30"/>
      </g>
     </g>
    </g>
    <g id="xtick_5">
     <g id="line2d_9">
      <path clip-path="url(#p9334036b8f)" d="M 233.640963 315.304875 
L 233.640963 49.192875 
" style="fill:none;stroke:#b0b0b0;stroke-linecap:square;stroke-width:0.8;"/>
     </g>
     <g id="line2d_10">
      <g>
       <use style="stroke:#000000;stroke-width:0.8;" x="233.640963" xlink:href="#m5cd8f2b61b" y="315.304875"/>
      </g>
     </g>
     <g id="text_5">
      <!-- 200 -->
      <defs>
       <path d="M 19.1875 8.296875 
L 53.609375 8.296875 
L 53.609375 0 
L 7.328125 0 
L 7.328125 8.296875 
Q 12.9375 14.109375 22.625 23.890625 
Q 32.328125 33.6875 34.8125 36.53125 
Q 39.546875 41.84375 41.421875 45.53125 
Q 43.3125 49.21875 43.3125 52.78125 
Q 43.3125 58.59375 39.234375 62.25 
Q 35.15625 65.921875 28.609375 65.921875 
Q 23.96875 65.921875 18.8125 64.3125 
Q 13.671875 62.703125 7.8125 59.421875 
L 7.8125 69.390625 
Q 13.765625 71.78125 18.9375 73 
Q 24.125 74.21875 28.421875 74.21875 
Q 39.75 74.21875 46.484375 68.546875 
Q 53.21875 62.890625 53.21875 53.421875 
Q 53.21875 48.921875 51.53125 44.890625 
Q 49.859375 40.875 45.40625 35.40625 
Q 44.1875 33.984375 37.640625 27.21875 
Q 31.109375 20.453125 19.1875 8.296875 
z
" id="DejaVuSans-32"/>
      </defs>
      <g transform="translate(224.097213 329.903312)scale(0.1 -0.1)">
       <use xlink:href="#DejaVuSans-32"/>
       <use x="63.623047" xlink:href="#DejaVuSans-30"/>
       <use x="127.246094" xlink:href="#DejaVuSans-30"/>
      </g>
     </g>
    </g>
    <g id="xtick_6">
     <g id="line2d_11">
      <path clip-path="url(#p9334036b8f)" d="M 281.900422 315.304875 
L 281.900422 49.192875 
" style="fill:none;stroke:#b0b0b0;stroke-linecap:square;stroke-width:0.8;"/>
     </g>
     <g id="line2d_12">
      <g>
       <use style="stroke:#000000;stroke-width:0.8;" x="281.900422" xlink:href="#m5cd8f2b61b" y="315.304875"/>
      </g>
     </g>
     <g id="text_6">
      <!-- 250 -->
      <g transform="translate(272.356672 329.903312)scale(0.1 -0.1)">
       <use xlink:href="#DejaVuSans-32"/>
       <use x="63.623047" xlink:href="#DejaVuSans-35"/>
       <use x="127.246094" xlink:href="#DejaVuSans-30"/>
      </g>
     </g>
    </g>
    <g id="xtick_7">
     <g id="line2d_13">
      <path clip-path="url(#p9334036b8f)" d="M 330.159882 315.304875 
L 330.159882 49.192875 
" style="fill:none;stroke:#b0b0b0;stroke-linecap:square;stroke-width:0.8;"/>
     </g>
     <g id="line2d_14">
      <g>
       <use style="stroke:#000000;stroke-width:0.8;" x="330.159882" xlink:href="#m5cd8f2b61b" y="315.304875"/>
      </g>
     </g>
     <g id="text_7">
      <!-- 300 -->
      <defs>
       <path d="M 40.578125 39.3125 
Q 47.65625 37.796875 51.625 33 
Q 55.609375 28.21875 55.609375 21.1875 
Q 55.609375 10.40625 48.1875 4.484375 
Q 40.765625 -1.421875 27.09375 -1.421875 
Q 22.515625 -1.421875 17.65625 -0.515625 
Q 12.796875 0.390625 7.625 2.203125 
L 7.625 11.71875 
Q 11.71875 9.328125 16.59375 8.109375 
Q 21.484375 6.890625 26.8125 6.890625 
Q 36.078125 6.890625 40.9375 10.546875 
Q 45.796875 14.203125 45.796875 21.1875 
Q 45.796875 27.640625 41.28125 31.265625 
Q 36.765625 34.90625 28.71875 34.90625 
L 20.21875 34.90625 
L 20.21875 43.015625 
L 29.109375 43.015625 
Q 36.375 43.015625 40.234375 45.921875 
Q 44.09375 48.828125 44.09375 54.296875 
Q 44.09375 59.90625 40.109375 62.90625 
Q 36.140625 65.921875 28.71875 65.921875 
Q 24.65625 65.921875 20.015625 65.03125 
Q 15.375 64.15625 9.8125 62.3125 
L 9.8125 71.09375 
Q 15.4375 72.65625 20.34375 73.4375 
Q 25.25 74.21875 29.59375 74.21875 
Q 40.828125 74.21875 47.359375 69.109375 
Q 53.90625 64.015625 53.90625 55.328125 
Q 53.90625 49.265625 50.4375 45.09375 
Q 46.96875 40.921875 40.578125 39.3125 
z
" id="DejaVuSans-33"/>
      </defs>
      <g transform="translate(320.616132 329.903312)scale(0.1 -0.1)">
       <use xlink:href="#DejaVuSans-33"/>
       <use x="63.623047" xlink:href="#DejaVuSans-30"/>
       <use x="127.246094" xlink:href="#DejaVuSans-30"/>
      </g>
     </g>
    </g>
    <g id="xtick_8">
     <g id="line2d_15">
      <path clip-path="url(#p9334036b8f)" d="M 378.419341 315.304875 
L 378.419341 49.192875 
" style="fill:none;stroke:#b0b0b0;stroke-linecap:square;stroke-width:0.8;"/>
     </g>
     <g id="line2d_16">
      <g>
       <use style="stroke:#000000;stroke-width:0.8;" x="378.419341" xlink:href="#m5cd8f2b61b" y="315.304875"/>
      </g>
     </g>
     <g id="text_8">
      <!-- 350 -->
      <g transform="translate(368.875591 329.903312)scale(0.1 -0.1)">
       <use xlink:href="#DejaVuSans-33"/>
       <use x="63.623047" xlink:href="#DejaVuSans-35"/>
       <use x="127.246094" xlink:href="#DejaVuSans-30"/>
      </g>
     </g>
    </g>
    <g id="text_9">
     <!-- Time(s) -->
     <defs>
      <path d="M -0.296875 72.90625 
L 61.375 72.90625 
L 61.375 64.59375 
L 35.5 64.59375 
L 35.5 0 
L 25.59375 0 
L 25.59375 64.59375 
L -0.296875 64.59375 
z
" id="DejaVuSans-54"/>
      <path d="M 9.421875 54.6875 
L 18.40625 54.6875 
L 18.40625 0 
L 9.421875 0 
z
M 9.421875 75.984375 
L 18.40625 75.984375 
L 18.40625 64.59375 
L 9.421875 64.59375 
z
" id="DejaVuSans-69"/>
      <path d="M 52 44.1875 
Q 55.375 50.25 60.0625 53.125 
Q 64.75 56 71.09375 56 
Q 79.640625 56 84.28125 50.015625 
Q 88.921875 44.046875 88.921875 33.015625 
L 88.921875 0 
L 79.890625 0 
L 79.890625 32.71875 
Q 79.890625 40.578125 77.09375 44.375 
Q 74.3125 48.1875 68.609375 48.1875 
Q 61.625 48.1875 57.5625 43.546875 
Q 53.515625 38.921875 53.515625 30.90625 
L 53.515625 0 
L 44.484375 0 
L 44.484375 32.71875 
Q 44.484375 40.625 41.703125 44.40625 
Q 38.921875 48.1875 33.109375 48.1875 
Q 26.21875 48.1875 22.15625 43.53125 
Q 18.109375 38.875 18.109375 30.90625 
L 18.109375 0 
L 9.078125 0 
L 9.078125 54.6875 
L 18.109375 54.6875 
L 18.109375 46.1875 
Q 21.1875 51.21875 25.484375 53.609375 
Q 29.78125 56 35.6875 56 
Q 41.65625 56 45.828125 52.96875 
Q 50 49.953125 52 44.1875 
z
" id="DejaVuSans-6d"/>
      <path d="M 56.203125 29.59375 
L 56.203125 25.203125 
L 14.890625 25.203125 
Q 15.484375 15.921875 20.484375 11.0625 
Q 25.484375 6.203125 34.421875 6.203125 
Q 39.59375 6.203125 44.453125 7.46875 
Q 49.3125 8.734375 54.109375 11.28125 
L 54.109375 2.78125 
Q 49.265625 0.734375 44.1875 -0.34375 
Q 39.109375 -1.421875 33.890625 -1.421875 
Q 20.796875 -1.421875 13.15625 6.1875 
Q 5.515625 13.8125 5.515625 26.8125 
Q 5.515625 40.234375 12.765625 48.109375 
Q 20.015625 56 32.328125 56 
Q 43.359375 56 49.78125 48.890625 
Q 56.203125 41.796875 56.203125 29.59375 
z
M 47.21875 32.234375 
Q 47.125 39.59375 43.09375 43.984375 
Q 39.0625 48.390625 32.421875 48.390625 
Q 24.90625 48.390625 20.390625 44.140625 
Q 15.875 39.890625 15.1875 32.171875 
z
" id="DejaVuSans-65"/>
      <path d="M 31 75.875 
Q 24.46875 64.65625 21.28125 53.65625 
Q 18.109375 42.671875 18.109375 31.390625 
Q 18.109375 20.125 21.3125 9.0625 
Q 24.515625 -2 31 -13.1875 
L 23.1875 -13.1875 
Q 15.875 -1.703125 12.234375 9.375 
Q 8.59375 20.453125 8.59375 31.390625 
Q 8.59375 42.28125 12.203125 53.3125 
Q 15.828125 64.359375 23.1875 75.875 
z
" id="DejaVuSans-28"/>
      <path d="M 44.28125 53.078125 
L 44.28125 44.578125 
Q 40.484375 46.53125 36.375 47.5 
Q 32.28125 48.484375 27.875 48.484375 
Q 21.1875 48.484375 17.84375 46.4375 
Q 14.5 44.390625 14.5 40.28125 
Q 14.5 37.15625 16.890625 35.375 
Q 19.28125 33.59375 26.515625 31.984375 
L 29.59375 31.296875 
Q 39.15625 29.25 43.1875 25.515625 
Q 47.21875 21.78125 47.21875 15.09375 
Q 47.21875 7.46875 41.1875 3.015625 
Q 35.15625 -1.421875 24.609375 -1.421875 
Q 20.21875 -1.421875 15.453125 -0.5625 
Q 10.6875 0.296875 5.421875 2 
L 5.421875 11.28125 
Q 10.40625 8.6875 15.234375 7.390625 
Q 20.0625 6.109375 24.8125 6.109375 
Q 31.15625 6.109375 34.5625 8.28125 
Q 37.984375 10.453125 37.984375 14.40625 
Q 37.984375 18.0625 35.515625 20.015625 
Q 33.0625 21.96875 24.703125 23.78125 
L 21.578125 24.515625 
Q 13.234375 26.265625 9.515625 29.90625 
Q 5.8125 33.546875 5.8125 39.890625 
Q 5.8125 47.609375 11.28125 51.796875 
Q 16.75 56 26.8125 56 
Q 31.78125 56 36.171875 55.265625 
Q 40.578125 54.546875 44.28125 53.078125 
z
" id="DejaVuSans-73"/>
      <path d="M 8.015625 75.875 
L 15.828125 75.875 
Q 23.140625 64.359375 26.78125 53.3125 
Q 30.421875 42.28125 30.421875 31.390625 
Q 30.421875 20.453125 26.78125 9.375 
Q 23.140625 -1.703125 15.828125 -13.1875 
L 8.015625 -13.1875 
Q 14.5 -2 17.703125 9.0625 
Q 20.90625 20.125 20.90625 31.390625 
Q 20.90625 42.671875 17.703125 53.65625 
Q 14.5 64.65625 8.015625 75.875 
z
" id="DejaVuSans-29"/>
     </defs>
     <g transform="translate(200.269375 343.581437)scale(0.1 -0.1)">
      <use xlink:href="#DejaVuSans-54"/>
      <use x="61.037109" xlink:href="#DejaVuSans-69"/>
      <use x="88.820312" xlink:href="#DejaVuSans-6d"/>
      <use x="186.232422" xlink:href="#DejaVuSans-65"/>
      <use x="247.755859" xlink:href="#DejaVuSans-28"/>
      <use x="286.769531" xlink:href="#DejaVuSans-73"/>
      <use x="338.869141" xlink:href="#DejaVuSans-29"/>
     </g>
    </g>
   </g>
   <g id="matplotlib.axis_2">
    <g id="ytick_1">
     <g id="line2d_17">
      <path clip-path="url(#p9334036b8f)" d="M 40.603125 303.208875 
L 397.723125 303.208875 
" style="fill:none;stroke:#b0b0b0;stroke-linecap:square;stroke-width:0.8;"/>
     </g>
     <g id="line2d_18">
      <defs>
       <path d="M 0 0 
L -3.5 0 
" id="me88d3962b9" style="stroke:#000000;stroke-width:0.8;"/>
      </defs>
      <g>
       <use style="stroke:#000000;stroke-width:0.8;" x="40.603125" xlink:href="#me88d3962b9" y="303.208875"/>
      </g>
     </g>
     <g id="text_10">
      <!-- 0 -->
      <g transform="translate(27.240625 307.008094)scale(0.1 -0.1)">
       <use xlink:href="#DejaVuSans-30"/>
      </g>
     </g>
    </g>
    <g id="ytick_2">
     <g id="line2d_19">
      <path clip-path="url(#p9334036b8f)" d="M 40.603125 250.617571 
L 397.723125 250.617571 
" style="fill:none;stroke:#b0b0b0;stroke-linecap:square;stroke-width:0.8;"/>
     </g>
     <g id="line2d_20">
      <g>
       <use style="stroke:#000000;stroke-width:0.8;" x="40.603125" xlink:href="#me88d3962b9" y="250.617571"/>
      </g>
     </g>
     <g id="text_11">
      <!-- 10 -->
      <g transform="translate(20.878125 254.416789)scale(0.1 -0.1)">
       <use xlink:href="#DejaVuSans-31"/>
       <use x="63.623047" xlink:href="#DejaVuSans-30"/>
      </g>
     </g>
    </g>
    <g id="ytick_3">
     <g id="line2d_21">
      <path clip-path="url(#p9334036b8f)" d="M 40.603125 198.026266 
L 397.723125 198.026266 
" style="fill:none;stroke:#b0b0b0;stroke-linecap:square;stroke-width:0.8;"/>
     </g>
     <g id="line2d_22">
      <g>
       <use style="stroke:#000000;stroke-width:0.8;" x="40.603125" xlink:href="#me88d3962b9" y="198.026266"/>
      </g>
     </g>
     <g id="text_12">
      <!-- 20 -->
      <g transform="translate(20.878125 201.825485)scale(0.1 -0.1)">
       <use xlink:href="#DejaVuSans-32"/>
       <use x="63.623047" xlink:href="#DejaVuSans-30"/>
      </g>
     </g>
    </g>
    <g id="ytick_4">
     <g id="line2d_23">
      <path clip-path="url(#p9334036b8f)" d="M 40.603125 145.434962 
L 397.723125 145.434962 
" style="fill:none;stroke:#b0b0b0;stroke-linecap:square;stroke-width:0.8;"/>
     </g>
     <g id="line2d_24">
      <g>
       <use style="stroke:#000000;stroke-width:0.8;" x="40.603125" xlink:href="#me88d3962b9" y="145.434962"/>
      </g>
     </g>
     <g id="text_13">
      <!-- 30 -->
      <g transform="translate(20.878125 149.234181)scale(0.1 -0.1)">
       <use xlink:href="#DejaVuSans-33"/>
       <use x="63.623047" xlink:href="#DejaVuSans-30"/>
      </g>
     </g>
    </g>
    <g id="ytick_5">
     <g id="line2d_25">
      <path clip-path="url(#p9334036b8f)" d="M 40.603125 92.843658 
L 397.723125 92.843658 
" style="fill:none;stroke:#b0b0b0;stroke-linecap:square;stroke-width:0.8;"/>
     </g>
     <g id="line2d_26">
      <g>
       <use style="stroke:#000000;stroke-width:0.8;" x="40.603125" xlink:href="#me88d3962b9" y="92.843658"/>
      </g>
     </g>
     <g id="text_14">
      <!-- 40 -->
      <defs>
       <path d="M 37.796875 64.3125 
L 12.890625 25.390625 
L 37.796875 25.390625 
z
M 35.203125 72.90625 
L 47.609375 72.90625 
L 47.609375 25.390625 
L 58.015625 25.390625 
L 58.015625 17.1875 
L 47.609375 17.1875 
L 47.609375 0 
L 37.796875 0 
L 37.796875 17.1875 
L 4.890625 17.1875 
L 4.890625 26.703125 
z
" id="DejaVuSans-34"/>
      </defs>
      <g transform="translate(20.878125 96.642876)scale(0.1 -0.1)">
       <use xlink:href="#DejaVuSans-34"/>
       <use x="63.623047" xlink:href="#DejaVuSans-30"/>
      </g>
     </g>
    </g>
    <g id="text_15">
     <!-- Discovered Nodes -->
     <defs>
      <path d="M 19.671875 64.796875 
L 19.671875 8.109375 
L 31.59375 8.109375 
Q 46.6875 8.109375 53.6875 14.9375 
Q 60.6875 21.78125 60.6875 36.53125 
Q 60.6875 51.171875 53.6875 57.984375 
Q 46.6875 64.796875 31.59375 64.796875 
z
M 9.8125 72.90625 
L 30.078125 72.90625 
Q 51.265625 72.90625 61.171875 64.09375 
Q 71.09375 55.28125 71.09375 36.53125 
Q 71.09375 17.671875 61.125 8.828125 
Q 51.171875 0 30.078125 0 
L 9.8125 0 
z
" id="DejaVuSans-44"/>
      <path d="M 48.78125 52.59375 
L 48.78125 44.1875 
Q 44.96875 46.296875 41.140625 47.34375 
Q 37.3125 48.390625 33.40625 48.390625 
Q 24.65625 48.390625 19.8125 42.84375 
Q 14.984375 37.3125 14.984375 27.296875 
Q 14.984375 17.28125 19.8125 11.734375 
Q 24.65625 6.203125 33.40625 6.203125 
Q 37.3125 6.203125 41.140625 7.25 
Q 44.96875 8.296875 48.78125 10.40625 
L 48.78125 2.09375 
Q 45.015625 0.34375 40.984375 -0.53125 
Q 36.96875 -1.421875 32.421875 -1.421875 
Q 20.0625 -1.421875 12.78125 6.34375 
Q 5.515625 14.109375 5.515625 27.296875 
Q 5.515625 40.671875 12.859375 48.328125 
Q 20.21875 56 33.015625 56 
Q 37.15625 56 41.109375 55.140625 
Q 45.0625 54.296875 48.78125 52.59375 
z
" id="DejaVuSans-63"/>
      <path d="M 30.609375 48.390625 
Q 23.390625 48.390625 19.1875 42.75 
Q 14.984375 37.109375 14.984375 27.296875 
Q 14.984375 17.484375 19.15625 11.84375 
Q 23.34375 6.203125 30.609375 6.203125 
Q 37.796875 6.203125 41.984375 11.859375 
Q 46.1875 17.53125 46.1875 27.296875 
Q 46.1875 37.015625 41.984375 42.703125 
Q 37.796875 48.390625 30.609375 48.390625 
z
M 30.609375 56 
Q 42.328125 56 49.015625 48.375 
Q 55.71875 40.765625 55.71875 27.296875 
Q 55.71875 13.875 49.015625 6.21875 
Q 42.328125 -1.421875 30.609375 -1.421875 
Q 18.84375 -1.421875 12.171875 6.21875 
Q 5.515625 13.875 5.515625 27.296875 
Q 5.515625 40.765625 12.171875 48.375 
Q 18.84375 56 30.609375 56 
z
" id="DejaVuSans-6f"/>
      <path d="M 2.984375 54.6875 
L 12.5 54.6875 
L 29.59375 8.796875 
L 46.6875 54.6875 
L 56.203125 54.6875 
L 35.6875 0 
L 23.484375 0 
z
" id="DejaVuSans-76"/>
      <path d="M 41.109375 46.296875 
Q 39.59375 47.171875 37.8125 47.578125 
Q 36.03125 48 33.890625 48 
Q 26.265625 48 22.1875 43.046875 
Q 18.109375 38.09375 18.109375 28.8125 
L 18.109375 0 
L 9.078125 0 
L 9.078125 54.6875 
L 18.109375 54.6875 
L 18.109375 46.1875 
Q 20.953125 51.171875 25.484375 53.578125 
Q 30.03125 56 36.53125 56 
Q 37.453125 56 38.578125 55.875 
Q 39.703125 55.765625 41.0625 55.515625 
z
" id="DejaVuSans-72"/>
      <path d="M 45.40625 46.390625 
L 45.40625 75.984375 
L 54.390625 75.984375 
L 54.390625 0 
L 45.40625 0 
L 45.40625 8.203125 
Q 42.578125 3.328125 38.25 0.953125 
Q 33.9375 -1.421875 27.875 -1.421875 
Q 17.96875 -1.421875 11.734375 6.484375 
Q 5.515625 14.40625 5.515625 27.296875 
Q 5.515625 40.1875 11.734375 48.09375 
Q 17.96875 56 27.875 56 
Q 33.9375 56 38.25 53.625 
Q 42.578125 51.265625 45.40625 46.390625 
z
M 14.796875 27.296875 
Q 14.796875 17.390625 18.875 11.75 
Q 22.953125 6.109375 30.078125 6.109375 
Q 37.203125 6.109375 41.296875 11.75 
Q 45.40625 17.390625 45.40625 27.296875 
Q 45.40625 37.203125 41.296875 42.84375 
Q 37.203125 48.484375 30.078125 48.484375 
Q 22.953125 48.484375 18.875 42.84375 
Q 14.796875 37.203125 14.796875 27.296875 
z
" id="DejaVuSans-64"/>
      <path id="DejaVuSans-20"/>
      <path d="M 9.8125 72.90625 
L 23.09375 72.90625 
L 55.421875 11.921875 
L 55.421875 72.90625 
L 64.984375 72.90625 
L 64.984375 0 
L 51.703125 0 
L 19.390625 60.984375 
L 19.390625 0 
L 9.8125 0 
z
" id="DejaVuSans-4e"/>
     </defs>
     <g transform="translate(14.798438 227.486375)rotate(-90)scale(0.1 -0.1)">
      <use xlink:href="#DejaVuSans-44"/>
      <use x="77.001953" xlink:href="#DejaVuSans-69"/>
      <use x="104.785156" xlink:href="#DejaVuSans-73"/>
      <use x="156.884766" xlink:href="#DejaVuSans-63"/>
      <use x="211.865234" xlink:href="#DejaVuSans-6f"/>
      <use x="273.046875" xlink:href="#DejaVuSans-76"/>
      <use x="332.226562" xlink:href="#DejaVuSans-65"/>
      <use x="393.75" xlink:href="#DejaVuSans-72"/>
      <use x="434.832031" xlink:href="#DejaVuSans-65"/>
      <use x="496.355469" xlink:href="#DejaVuSans-64"/>
      <use x="559.832031" xlink:href="#DejaVuSans-20"/>
      <use x="591.619141" xlink:href="#DejaVuSans-4e"/>
      <use x="666.423828" xlink:href="#DejaVuSans-6f"/>
      <use x="727.605469" xlink:href="#DejaVuSans-64"/>
      <use x="791.082031" xlink:href="#DejaVuSans-65"/>
      <use x="852.605469" xlink:href="#DejaVuSans-73"/>
     </g>
    </g>
   </g>
   <g id="line2d_27">
    <path clip-path="url(#p9334036b8f)" d="M 40.603125 303.208875 
L 44.463882 303.208875 
L 45.429071 297.949745 
L 48.324639 297.949745 
L 49.289828 292.690614 
L 52.185395 292.690614 
L 53.150584 287.431484 
L 61.837287 287.431484 
L 62.802476 282.172353 
L 70.52399 282.172353 
L 71.489179 292.690614 
L 73.419557 292.690614 
L 74.384747 297.949745 
L 75.349936 297.949745 
L 76.315125 292.690614 
L 78.245503 292.690614 
L 79.210693 297.949745 
L 92.723341 297.949745 
L 93.68853 303.208875 
L 396.757936 303.208875 
L 396.757936 303.208875 
" style="fill:none;stroke:#008000;stroke-linecap:square;stroke-width:1.5;"/>
   </g>
   <g id="line2d_28">
    <path clip-path="url(#p9334036b8f)" d="M 40.603125 303.208875 
L 45.429071 303.208875 
L 46.39426 297.949745 
L 48.324639 297.949745 
L 49.289828 292.690614 
L 51.220206 292.690614 
L 52.185395 287.431484 
L 53.150584 287.431484 
L 58.94172 255.876701 
L 61.837287 255.876701 
L 62.802476 245.35844 
L 63.767666 240.09931 
L 64.732855 240.09931 
L 65.698044 229.581049 
L 68.593611 213.803658 
L 69.558801 203.285397 
L 70.52399 208.544527 
L 71.489179 203.285397 
L 72.454368 192.767136 
L 73.419557 192.767136 
L 74.384747 198.026266 
L 75.349936 192.767136 
L 76.315125 198.026266 
L 77.280314 192.767136 
L 78.245503 198.026266 
L 80.175882 198.026266 
L 81.141071 187.508005 
L 82.10626 187.508005 
L 83.071449 182.248875 
L 84.036639 192.767136 
L 85.001828 198.026266 
L 85.967017 192.767136 
L 86.932206 208.544527 
L 89.827774 208.544527 
L 90.792963 213.803658 
L 91.758152 224.321918 
L 92.723341 224.321918 
L 94.65372 234.840179 
L 95.618909 245.35844 
L 96.584098 245.35844 
L 97.549287 250.617571 
L 99.479666 271.654092 
L 100.444855 271.654092 
L 101.410044 276.913223 
L 104.305611 276.913223 
L 105.270801 282.172353 
L 107.201179 282.172353 
L 108.166368 287.431484 
L 109.131557 287.431484 
L 110.096747 303.208875 
L 396.757936 303.208875 
L 396.757936 303.208875 
" style="fill:none;stroke:#0000ff;stroke-linecap:square;stroke-width:1.5;"/>
   </g>
   <g id="line2d_29">
    <path clip-path="url(#p9334036b8f)" d="M 40.603125 282.172353 
L 41.568314 276.913223 
L 43.498693 255.876701 
L 45.429071 255.876701 
L 46.39426 245.35844 
L 47.359449 245.35844 
L 48.324639 234.840179 
L 49.289828 234.840179 
L 50.255017 229.581049 
L 51.220206 229.581049 
L 53.150584 198.026266 
L 54.115774 187.508005 
L 55.080963 187.508005 
L 56.046152 171.730614 
L 57.97653 161.212353 
L 58.94172 161.212353 
L 59.906909 166.471484 
L 60.872098 161.212353 
L 63.767666 129.657571 
L 64.732855 134.916701 
L 67.628422 119.13931 
L 68.593611 119.13931 
L 69.558801 124.39844 
L 70.52399 124.39844 
L 71.489179 108.621049 
L 72.454368 108.621049 
L 73.419557 119.13931 
L 74.384747 119.13931 
L 75.349936 124.39844 
L 76.315125 145.434962 
L 77.280314 145.434962 
L 78.245503 150.694092 
L 79.210693 150.694092 
L 80.175882 145.434962 
L 81.141071 150.694092 
L 82.10626 161.212353 
L 83.071449 182.248875 
L 84.036639 182.248875 
L 85.001828 198.026266 
L 86.932206 208.544527 
L 88.862584 229.581049 
L 89.827774 234.840179 
L 91.758152 234.840179 
L 93.68853 245.35844 
L 94.65372 255.876701 
L 95.618909 255.876701 
L 97.549287 266.394962 
L 98.514476 276.913223 
L 100.444855 276.913223 
L 102.375233 287.431484 
L 103.340422 287.431484 
L 104.305611 297.949745 
L 107.201179 297.949745 
L 108.166368 303.208875 
L 396.757936 303.208875 
L 396.757936 303.208875 
" style="fill:none;stroke:#ff0000;stroke-linecap:square;stroke-width:1.5;"/>
   </g>
   <g id="line2d_30">
    <path clip-path="url(#p9334036b8f)" d="M 40.603125 303.208875 
L 50.255017 303.208875 
L 51.220206 297.949745 
L 53.150584 297.949745 
L 57.011341 276.913223 
L 57.97653 276.913223 
L 60.872098 261.135832 
L 61.837287 250.617571 
L 62.802476 245.35844 
L 63.767666 229.581049 
L 66.663233 229.581049 
L 67.628422 224.321918 
L 68.593611 203.285397 
L 71.489179 171.730614 
L 72.454368 166.471484 
L 73.419557 166.471484 
L 74.384747 161.212353 
L 75.349936 140.175832 
L 76.315125 134.916701 
L 78.245503 113.880179 
L 79.210693 108.621049 
L 80.175882 98.102788 
L 82.10626 87.584527 
L 83.071449 71.807136 
L 84.036639 87.584527 
L 85.001828 71.807136 
L 85.967017 77.066266 
L 86.932206 71.807136 
L 87.897395 77.066266 
L 88.862584 71.807136 
L 89.827774 71.807136 
L 90.792963 77.066266 
L 91.758152 66.548005 
L 92.723341 61.288875 
L 94.65372 71.807136 
L 95.618909 61.288875 
L 96.584098 66.548005 
L 97.549287 77.066266 
L 98.514476 103.361918 
L 99.479666 108.621049 
L 100.444855 108.621049 
L 103.340422 124.39844 
L 104.305611 113.880179 
L 105.270801 113.880179 
L 107.201179 134.916701 
L 109.131557 124.39844 
L 110.096747 129.657571 
L 111.061936 150.694092 
L 112.992314 161.212353 
L 113.957503 171.730614 
L 115.887882 182.248875 
L 116.853071 182.248875 
L 117.81826 192.767136 
L 121.679017 213.803658 
L 122.644206 224.321918 
L 123.609395 224.321918 
L 125.539774 245.35844 
L 126.504963 245.35844 
L 129.40053 261.135832 
L 131.330909 261.135832 
L 132.296098 266.394962 
L 133.261287 276.913223 
L 134.226476 282.172353 
L 135.191666 282.172353 
L 136.156855 287.431484 
L 137.122044 287.431484 
L 139.052422 297.949745 
L 140.017611 297.949745 
L 140.982801 303.208875 
L 373.593395 303.208875 
L 374.558584 297.949745 
L 380.34972 297.949745 
L 381.314909 287.431484 
L 383.245287 276.913223 
L 385.175666 276.913223 
L 387.106044 266.394962 
L 388.071233 266.394962 
L 391.93199 245.35844 
L 392.897179 234.840179 
L 393.862368 234.840179 
L 394.827557 229.581049 
L 395.792747 219.062788 
L 396.757936 213.803658 
L 396.757936 213.803658 
" style="fill:none;stroke:#00ffff;stroke-linecap:square;stroke-width:1.5;"/>
   </g>
   <g id="line2d_31">
    <path clip-path="url(#p9334036b8f)" d="M 40.603125 303.208875 
L 46.39426 303.208875 
L 47.359449 297.949745 
L 49.289828 297.949745 
L 50.255017 292.690614 
L 51.220206 292.690614 
L 52.185395 287.431484 
L 53.150584 287.431484 
L 55.080963 276.913223 
L 56.046152 276.913223 
L 57.97653 266.394962 
L 58.94172 266.394962 
L 59.906909 261.135832 
L 60.872098 261.135832 
L 61.837287 250.617571 
L 62.802476 250.617571 
L 64.732855 240.09931 
L 65.698044 229.581049 
L 66.663233 224.321918 
L 68.593611 203.285397 
L 69.558801 187.508005 
L 70.52399 187.508005 
L 72.454368 176.989745 
L 73.419557 182.248875 
L 74.384747 182.248875 
L 75.349936 166.471484 
L 77.280314 166.471484 
L 78.245503 161.212353 
L 79.210693 150.694092 
L 80.175882 150.694092 
L 81.141071 140.175832 
L 82.10626 145.434962 
L 83.071449 145.434962 
L 84.036639 134.916701 
L 85.967017 124.39844 
L 86.932206 140.175832 
L 89.827774 140.175832 
L 90.792963 124.39844 
L 92.723341 124.39844 
L 94.65372 113.880179 
L 96.584098 113.880179 
L 97.549287 129.657571 
L 98.514476 129.657571 
L 99.479666 134.916701 
L 100.444855 145.434962 
L 101.410044 150.694092 
L 103.340422 150.694092 
L 105.270801 161.212353 
L 106.23599 161.212353 
L 107.201179 166.471484 
L 108.166368 182.248875 
L 109.131557 192.767136 
L 110.096747 198.026266 
L 111.061936 208.544527 
L 113.957503 224.321918 
L 114.922693 224.321918 
L 115.887882 234.840179 
L 116.853071 234.840179 
L 117.81826 250.617571 
L 118.783449 255.876701 
L 120.713828 255.876701 
L 121.679017 282.172353 
L 122.644206 282.172353 
L 123.609395 287.431484 
L 124.574584 297.949745 
L 126.504963 297.949745 
L 127.470152 303.208875 
L 154.495449 303.208875 
L 155.460639 297.949745 
L 157.391017 297.949745 
L 158.356206 287.431484 
L 159.321395 287.431484 
L 161.251774 266.394962 
L 162.216963 266.394962 
L 163.182152 250.617571 
L 166.07772 250.617571 
L 167.042909 240.09931 
L 168.008098 224.321918 
L 168.973287 219.062788 
L 171.868855 219.062788 
L 172.834044 213.803658 
L 173.799233 213.803658 
L 174.764422 208.544527 
L 175.729611 198.026266 
L 176.694801 198.026266 
L 177.65999 182.248875 
L 178.625179 176.989745 
L 182.485936 176.989745 
L 183.451125 171.730614 
L 184.416314 161.212353 
L 185.381503 155.953223 
L 188.277071 155.953223 
L 189.24226 145.434962 
L 191.172639 134.916701 
L 193.103017 134.916701 
L 194.068206 129.657571 
L 195.998584 129.657571 
L 196.963774 134.916701 
L 197.928963 134.916701 
L 198.894152 124.39844 
L 200.82453 124.39844 
L 202.754909 113.880179 
L 203.720098 98.102788 
L 204.685287 113.880179 
L 208.546044 113.880179 
L 209.511233 108.621049 
L 210.476422 113.880179 
L 211.441611 108.621049 
L 212.406801 98.102788 
L 213.37199 98.102788 
L 215.302368 108.621049 
L 217.232747 98.102788 
L 219.163125 98.102788 
L 220.128314 108.621049 
L 221.093503 108.621049 
L 222.058693 113.880179 
L 223.023882 113.880179 
L 223.989071 124.39844 
L 224.95426 124.39844 
L 225.919449 129.657571 
L 227.849828 129.657571 
L 228.815017 134.916701 
L 229.780206 134.916701 
L 232.675774 150.694092 
L 233.640963 150.694092 
L 235.571341 171.730614 
L 237.50172 182.248875 
L 238.466909 182.248875 
L 240.397287 192.767136 
L 241.362476 192.767136 
L 242.327666 198.026266 
L 243.292855 213.803658 
L 247.153611 213.803658 
L 248.118801 219.062788 
L 249.08399 219.062788 
L 250.049179 224.321918 
L 251.014368 224.321918 
L 251.979557 234.840179 
L 253.909936 234.840179 
L 255.840314 245.35844 
L 256.805503 255.876701 
L 259.701071 271.654092 
L 260.66626 271.654092 
L 262.596639 282.172353 
L 265.492206 282.172353 
L 266.457395 287.431484 
L 267.422584 303.208875 
L 290.587125 303.208875 
L 291.552314 297.949745 
L 292.517503 287.431484 
L 293.482693 287.431484 
L 295.413071 276.913223 
L 296.37826 276.913223 
L 297.343449 271.654092 
L 298.308639 261.135832 
L 299.273828 255.876701 
L 300.239017 255.876701 
L 301.204206 245.35844 
L 302.169395 245.35844 
L 304.099774 234.840179 
L 305.064963 224.321918 
L 307.96053 208.544527 
L 308.92572 187.508005 
L 309.890909 187.508005 
L 310.856098 161.212353 
L 311.821287 166.471484 
L 313.751666 155.953223 
L 314.716855 155.953223 
L 317.612422 140.175832 
L 318.577611 140.175832 
L 319.542801 134.916701 
L 320.50799 119.13931 
L 322.438368 108.621049 
L 324.368747 108.621049 
L 325.333936 113.880179 
L 327.264314 113.880179 
L 328.229503 119.13931 
L 329.194693 119.13931 
L 330.159882 108.621049 
L 331.125071 124.39844 
L 332.09026 124.39844 
L 333.055449 129.657571 
L 334.020639 124.39844 
L 335.951017 134.916701 
L 336.916206 134.916701 
L 337.881395 129.657571 
L 338.846584 134.916701 
L 339.811774 134.916701 
L 340.776963 140.175832 
L 342.707341 140.175832 
L 343.67253 161.212353 
L 344.63772 171.730614 
L 345.602909 176.989745 
L 348.498476 176.989745 
L 349.463666 182.248875 
L 352.359233 182.248875 
L 353.324422 187.508005 
L 355.254801 187.508005 
L 356.21999 192.767136 
L 357.185179 192.767136 
L 358.150368 198.026266 
L 360.080747 198.026266 
L 361.045936 208.544527 
L 362.011125 208.544527 
L 362.976314 213.803658 
L 363.941503 229.581049 
L 364.906693 240.09931 
L 365.871882 245.35844 
L 366.837071 255.876701 
L 367.80226 255.876701 
L 368.767449 261.135832 
L 371.663017 261.135832 
L 372.628206 271.654092 
L 373.593395 271.654092 
L 374.558584 276.913223 
L 375.523774 292.690614 
L 376.488963 297.949745 
L 379.38453 297.949745 
L 380.34972 303.208875 
L 396.757936 303.208875 
L 396.757936 303.208875 
" style="fill:none;stroke:#ff00ff;stroke-linecap:square;stroke-width:1.5;"/>
   </g>
   <g id="line2d_32">
    <path clip-path="url(#p9334036b8f)" d="M 40.603125 292.690614 
L 41.568314 292.690614 
L 43.498693 282.172353 
L 47.359449 282.172353 
L 48.324639 276.913223 
L 51.220206 276.913223 
L 52.185395 266.394962 
L 57.011341 266.394962 
L 57.97653 261.135832 
L 58.94172 245.35844 
L 60.872098 224.321918 
L 63.767666 224.321918 
L 64.732855 219.062788 
L 66.663233 229.581049 
L 69.558801 229.581049 
L 73.419557 208.544527 
L 74.384747 208.544527 
L 75.349936 213.803658 
L 76.315125 213.803658 
L 78.245503 224.321918 
L 79.210693 219.062788 
L 80.175882 224.321918 
L 81.141071 224.321918 
L 82.10626 219.062788 
L 83.071449 229.581049 
L 84.036639 224.321918 
L 85.001828 229.581049 
L 85.967017 224.321918 
L 86.932206 224.321918 
L 87.897395 234.840179 
L 91.758152 234.840179 
L 92.723341 245.35844 
L 96.584098 245.35844 
L 97.549287 250.617571 
L 99.479666 250.617571 
L 100.444855 261.135832 
L 104.305611 282.172353 
L 105.270801 282.172353 
L 106.23599 287.431484 
L 112.027125 287.431484 
L 112.992314 303.208875 
L 153.53026 303.208875 
L 154.495449 297.949745 
L 156.425828 297.949745 
L 157.391017 292.690614 
L 158.356206 292.690614 
L 159.321395 287.431484 
L 161.251774 287.431484 
L 162.216963 292.690614 
L 166.07772 292.690614 
L 167.042909 297.949745 
L 169.938476 297.949745 
L 170.903666 303.208875 
L 309.890909 303.208875 
L 310.856098 297.949745 
L 311.821287 297.949745 
L 312.786476 292.690614 
L 315.682044 292.690614 
L 316.647233 287.431484 
L 325.333936 287.431484 
L 326.299125 282.172353 
L 329.194693 282.172353 
L 330.159882 287.431484 
L 332.09026 287.431484 
L 333.055449 282.172353 
L 337.881395 282.172353 
L 339.811774 292.690614 
L 349.463666 292.690614 
L 350.428855 287.431484 
L 357.185179 287.431484 
L 358.150368 282.172353 
L 359.115557 282.172353 
L 360.080747 292.690614 
L 361.045936 297.949745 
L 370.697828 297.949745 
L 371.663017 303.208875 
L 396.757936 303.208875 
L 396.757936 303.208875 
" style="fill:none;stroke:#000000;stroke-linecap:square;stroke-width:1.5;"/>
   </g>
   <g id="patch_3">
    <path d="M 40.603125 315.304875 
L 40.603125 49.192875 
" style="fill:none;stroke:#000000;stroke-linecap:square;stroke-linejoin:miter;stroke-width:0.8;"/>
   </g>
   <g id="patch_4">
    <path d="M 397.723125 315.304875 
L 397.723125 49.192875 
" style="fill:none;stroke:#000000;stroke-linecap:square;stroke-linejoin:miter;stroke-width:0.8;"/>
   </g>
   <g id="patch_5">
    <path d="M 40.603125 315.304875 
L 397.723125 315.304875 
" style="fill:none;stroke:#000000;stroke-linecap:square;stroke-linejoin:miter;stroke-width:0.8;"/>
   </g>
   <g id="patch_6">
    <path d="M 40.603125 49.192875 
L 397.723125 49.192875 
" style="fill:none;stroke:#000000;stroke-linecap:square;stroke-linejoin:miter;stroke-width:0.8;"/>
   </g>
   <g id="text_16">
    <!-- Discovered nodes per time -->
    <defs>
     <path d="M 54.890625 33.015625 
L 54.890625 0 
L 45.90625 0 
L 45.90625 32.71875 
Q 45.90625 40.484375 42.875 44.328125 
Q 39.84375 48.1875 33.796875 48.1875 
Q 26.515625 48.1875 22.3125 43.546875 
Q 18.109375 38.921875 18.109375 30.90625 
L 18.109375 0 
L 9.078125 0 
L 9.078125 54.6875 
L 18.109375 54.6875 
L 18.109375 46.1875 
Q 21.34375 51.125 25.703125 53.5625 
Q 30.078125 56 35.796875 56 
Q 45.21875 56 50.046875 50.171875 
Q 54.890625 44.34375 54.890625 33.015625 
z
" id="DejaVuSans-6e"/>
     <path d="M 18.109375 8.203125 
L 18.109375 -20.796875 
L 9.078125 -20.796875 
L 9.078125 54.6875 
L 18.109375 54.6875 
L 18.109375 46.390625 
Q 20.953125 51.265625 25.265625 53.625 
Q 29.59375 56 35.59375 56 
Q 45.5625 56 51.78125 48.09375 
Q 58.015625 40.1875 58.015625 27.296875 
Q 58.015625 14.40625 51.78125 6.484375 
Q 45.5625 -1.421875 35.59375 -1.421875 
Q 29.59375 -1.421875 25.265625 0.953125 
Q 20.953125 3.328125 18.109375 8.203125 
z
M 48.6875 27.296875 
Q 48.6875 37.203125 44.609375 42.84375 
Q 40.53125 48.484375 33.40625 48.484375 
Q 26.265625 48.484375 22.1875 42.84375 
Q 18.109375 37.203125 18.109375 27.296875 
Q 18.109375 17.390625 22.1875 11.75 
Q 26.265625 6.109375 33.40625 6.109375 
Q 40.53125 6.109375 44.609375 11.75 
Q 48.6875 17.390625 48.6875 27.296875 
z
" id="DejaVuSans-70"/>
     <path d="M 18.3125 70.21875 
L 18.3125 54.6875 
L 36.8125 54.6875 
L 36.8125 47.703125 
L 18.3125 47.703125 
L 18.3125 18.015625 
Q 18.3125 11.328125 20.140625 9.421875 
Q 21.96875 7.515625 27.59375 7.515625 
L 36.8125 7.515625 
L 36.8125 0 
L 27.59375 0 
Q 17.1875 0 13.234375 3.875 
Q 9.28125 7.765625 9.28125 18.015625 
L 9.28125 47.703125 
L 2.6875 47.703125 
L 2.6875 54.6875 
L 9.28125 54.6875 
L 9.28125 70.21875 
z
" id="DejaVuSans-74"/>
    </defs>
    <g transform="translate(138.227813 16.318125)scale(0.12 -0.12)">
     <use xlink:href="#DejaVuSans-44"/>
     <use x="77.001953" xlink:href="#DejaVuSans-69"/>
     <use x="104.785156" xlink:href="#DejaVuSans-73"/>
     <use x="156.884766" xlink:href="#DejaVuSans-63"/>
     <use x="211.865234" xlink:href="#DejaVuSans-6f"/>
     <use x="273.046875" xlink:href="#DejaVuSans-76"/>
     <use x="332.226562" xlink:href="#DejaVuSans-65"/>
     <use x="393.75" xlink:href="#DejaVuSans-72"/>
     <use x="434.832031" xlink:href="#DejaVuSans-65"/>
     <use x="496.355469" xlink:href="#DejaVuSans-64"/>
     <use x="559.832031" xlink:href="#DejaVuSans-20"/>
     <use x="591.619141" xlink:href="#DejaVuSans-6e"/>
     <use x="654.998047" xlink:href="#DejaVuSans-6f"/>
     <use x="716.179688" xlink:href="#DejaVuSans-64"/>
     <use x="779.65625" xlink:href="#DejaVuSans-65"/>
     <use x="841.179688" xlink:href="#DejaVuSans-73"/>
     <use x="893.279297" xlink:href="#DejaVuSans-20"/>
     <use x="925.066406" xlink:href="#DejaVuSans-70"/>
     <use x="988.542969" xlink:href="#DejaVuSans-65"/>
     <use x="1050.066406" xlink:href="#DejaVuSans-72"/>
     <use x="1091.179688" xlink:href="#DejaVuSans-20"/>
     <use x="1122.966797" xlink:href="#DejaVuSans-74"/>
     <use x="1162.175781" xlink:href="#DejaVuSans-69"/>
     <use x="1189.958984" xlink:href="#DejaVuSans-6d"/>
     <use x="1287.371094" xlink:href="#DejaVuSans-65"/>
    </g>
    <!--  -->
    <g transform="translate(219.163125 29.7555)scale(0.12 -0.12)"/>
    <!--  -->
    <g transform="translate(219.163125 43.192875)scale(0.12 -0.12)"/>
   </g>
   <g id="legend_1">
    <g id="patch_7">
     <path d="M 411.865525 139.939385 
L 482.471775 139.939385 
Q 484.471775 139.939385 484.471775 137.939385 
L 484.471775 50.870635 
Q 484.471775 48.870635 482.471775 48.870635 
L 411.865525 48.870635 
Q 409.865525 48.870635 409.865525 50.870635 
L 409.865525 137.939385 
Q 409.865525 139.939385 411.865525 139.939385 
z
" style="fill:#ffffff;opacity:0.8;stroke:#cccccc;stroke-linejoin:miter;"/>
    </g>
    <g id="line2d_33">
     <path d="M 413.865525 56.969072 
L 433.865525 56.969072 
" style="fill:none;stroke:#008000;stroke-linecap:square;stroke-width:1.5;"/>
    </g>
    <g id="line2d_34"/>
    <g id="text_17">
     <!-- drone 0 -->
     <g transform="translate(441.865525 60.469072)scale(0.1 -0.1)">
      <use xlink:href="#DejaVuSans-64"/>
      <use x="63.476562" xlink:href="#DejaVuSans-72"/>
      <use x="104.558594" xlink:href="#DejaVuSans-6f"/>
      <use x="165.740234" xlink:href="#DejaVuSans-6e"/>
      <use x="229.119141" xlink:href="#DejaVuSans-65"/>
      <use x="290.642578" xlink:href="#DejaVuSans-20"/>
      <use x="322.429688" xlink:href="#DejaVuSans-30"/>
     </g>
    </g>
    <g id="line2d_35">
     <path d="M 413.865525 71.647197 
L 433.865525 71.647197 
" style="fill:none;stroke:#0000ff;stroke-linecap:square;stroke-width:1.5;"/>
    </g>
    <g id="line2d_36"/>
    <g id="text_18">
     <!-- drone 1 -->
     <g transform="translate(441.865525 75.147197)scale(0.1 -0.1)">
      <use xlink:href="#DejaVuSans-64"/>
      <use x="63.476562" xlink:href="#DejaVuSans-72"/>
      <use x="104.558594" xlink:href="#DejaVuSans-6f"/>
      <use x="165.740234" xlink:href="#DejaVuSans-6e"/>
      <use x="229.119141" xlink:href="#DejaVuSans-65"/>
      <use x="290.642578" xlink:href="#DejaVuSans-20"/>
      <use x="322.429688" xlink:href="#DejaVuSans-31"/>
     </g>
    </g>
    <g id="line2d_37">
     <path d="M 413.865525 86.325322 
L 433.865525 86.325322 
" style="fill:none;stroke:#ff0000;stroke-linecap:square;stroke-width:1.5;"/>
    </g>
    <g id="line2d_38"/>
    <g id="text_19">
     <!-- drone 2 -->
     <g transform="translate(441.865525 89.825322)scale(0.1 -0.1)">
      <use xlink:href="#DejaVuSans-64"/>
      <use x="63.476562" xlink:href="#DejaVuSans-72"/>
      <use x="104.558594" xlink:href="#DejaVuSans-6f"/>
      <use x="165.740234" xlink:href="#DejaVuSans-6e"/>
      <use x="229.119141" xlink:href="#DejaVuSans-65"/>
      <use x="290.642578" xlink:href="#DejaVuSans-20"/>
      <use x="322.429688" xlink:href="#DejaVuSans-32"/>
     </g>
    </g>
    <g id="line2d_39">
     <path d="M 413.865525 101.003447 
L 433.865525 101.003447 
" style="fill:none;stroke:#00ffff;stroke-linecap:square;stroke-width:1.5;"/>
    </g>
    <g id="line2d_40"/>
    <g id="text_20">
     <!-- drone 3 -->
     <g transform="translate(441.865525 104.503447)scale(0.1 -0.1)">
      <use xlink:href="#DejaVuSans-64"/>
      <use x="63.476562" xlink:href="#DejaVuSans-72"/>
      <use x="104.558594" xlink:href="#DejaVuSans-6f"/>
      <use x="165.740234" xlink:href="#DejaVuSans-6e"/>
      <use x="229.119141" xlink:href="#DejaVuSans-65"/>
      <use x="290.642578" xlink:href="#DejaVuSans-20"/>
      <use x="322.429688" xlink:href="#DejaVuSans-33"/>
     </g>
    </g>
    <g id="line2d_41">
     <path d="M 413.865525 115.681572 
L 433.865525 115.681572 
" style="fill:none;stroke:#ff00ff;stroke-linecap:square;stroke-width:1.5;"/>
    </g>
    <g id="line2d_42"/>
    <g id="text_21">
     <!-- drone 4 -->
     <g transform="translate(441.865525 119.181572)scale(0.1 -0.1)">
      <use xlink:href="#DejaVuSans-64"/>
      <use x="63.476562" xlink:href="#DejaVuSans-72"/>
      <use x="104.558594" xlink:href="#DejaVuSans-6f"/>
      <use x="165.740234" xlink:href="#DejaVuSans-6e"/>
      <use x="229.119141" xlink:href="#DejaVuSans-65"/>
      <use x="290.642578" xlink:href="#DejaVuSans-20"/>
      <use x="322.429688" xlink:href="#DejaVuSans-34"/>
     </g>
    </g>
    <g id="line2d_43">
     <path d="M 413.865525 130.359697 
L 433.865525 130.359697 
" style="fill:none;stroke:#000000;stroke-linecap:square;stroke-width:1.5;"/>
    </g>
    <g id="line2d_44"/>
    <g id="text_22">
     <!-- drone 5 -->
     <g transform="translate(441.865525 133.859697)scale(0.1 -0.1)">
      <use xlink:href="#DejaVuSans-64"/>
      <use x="63.476562" xlink:href="#DejaVuSans-72"/>
      <use x="104.558594" xlink:href="#DejaVuSans-6f"/>
      <use x="165.740234" xlink:href="#DejaVuSans-6e"/>
      <use x="229.119141" xlink:href="#DejaVuSans-65"/>
      <use x="290.642578" xlink:href="#DejaVuSans-20"/>
      <use x="322.429688" xlink:href="#DejaVuSans-35"/>
     </g>
    </g>
   </g>
  </g>
 </g>
 <defs>
  <clipPath id="p9334036b8f">
   <rect height="266.112" width="357.12" x="40.603125" y="49.192875"/>
  </clipPath>
 </defs>
</svg>
