<?xml version="1.0" encoding="utf-8" standalone="no"?>
<!DOCTYPE svg PUBLIC "-//W3C//DTD SVG 1.1//EN"
  "http://www.w3.org/Graphics/SVG/1.1/DTD/svg11.dtd">
<!-- Created with matplotlib (http://matplotlib.org/) -->
<svg height="352pt" version="1.1" viewBox="0 0 491 352" width="491pt" xmlns="http://www.w3.org/2000/svg" xmlns:xlink="http://www.w3.org/1999/xlink">
 <defs>
  <style type="text/css">
*{stroke-linecap:butt;stroke-linejoin:round;}
  </style>
 </defs>
 <g id="figure_1">
  <g id="patch_1">
   <path d="M 0 352.861125 
L 491.671775 352.861125 
L 491.671775 0 
L 0 0 
z
" style="fill:#ffffff;"/>
  </g>
  <g id="axes_1">
   <g id="patch_2">
    <path d="M 40.603125 315.304875 
L 397.723125 315.304875 
L 397.723125 49.192875 
L 40.603125 49.192875 
z
" style="fill:#ffffff;"/>
   </g>
   <g id="matplotlib.axis_1">
    <g id="xtick_1">
     <g id="line2d_1">
      <path clip-path="url(#p35277b94eb)" d="M 40.603125 315.304875 
L 40.603125 49.192875 
" style="fill:none;stroke:#b0b0b0;stroke-linecap:square;stroke-width:0.8;"/>
     </g>
     <g id="line2d_2">
      <defs>
       <path d="M 0 0 
L 0 3.5 
" id="m3af83fb4f7" style="stroke:#000000;stroke-width:0.8;"/>
      </defs>
      <g>
       <use style="stroke:#000000;stroke-width:0.8;" x="40.603125" xlink:href="#m3af83fb4f7" y="315.304875"/>
      </g>
     </g>
     <g id="text_1">
      <!-- 0 -->
      <defs>
       <path d="M 31.78125 66.40625 
Q 24.171875 66.40625 20.328125 58.90625 
Q 16.5 51.421875 16.5 36.375 
Q 16.5 21.390625 20.328125 13.890625 
Q 24.171875 6.390625 31.78125 6.390625 
Q 39.453125 6.390625 43.28125 13.890625 
Q 47.125 21.390625 47.125 36.375 
Q 47.125 51.421875 43.28125 58.90625 
Q 39.453125 66.40625 31.78125 66.40625 
z
M 31.78125 74.21875 
Q 44.046875 74.21875 50.515625 64.515625 
Q 56.984375 54.828125 56.984375 36.375 
Q 56.984375 17.96875 50.515625 8.265625 
Q 44.046875 -1.421875 31.78125 -1.421875 
Q 19.53125 -1.421875 13.0625 8.265625 
Q 6.59375 17.96875 6.59375 36.375 
Q 6.59375 54.828125 13.0625 64.515625 
Q 19.53125 74.21875 31.78125 74.21875 
z
" id="DejaVuSans-30"/>
      </defs>
      <g transform="translate(37.421875 329.903312)scale(0.1 -0.1)">
       <use xlink:href="#DejaVuSans-30"/>
      </g>
     </g>
    </g>
    <g id="xtick_2">
     <g id="line2d_3">
      <path clip-path="url(#p35277b94eb)" d="M 84.341031 315.304875 
L 84.341031 49.192875 
" style="fill:none;stroke:#b0b0b0;stroke-linecap:square;stroke-width:0.8;"/>
     </g>
     <g id="line2d_4">
      <g>
       <use style="stroke:#000000;stroke-width:0.8;" x="84.341031" xlink:href="#m3af83fb4f7" y="315.304875"/>
      </g>
     </g>
     <g id="text_2">
      <!-- 200 -->
      <defs>
       <path d="M 19.1875 8.296875 
L 53.609375 8.296875 
L 53.609375 0 
L 7.328125 0 
L 7.328125 8.296875 
Q 12.9375 14.109375 22.625 23.890625 
Q 32.328125 33.6875 34.8125 36.53125 
Q 39.546875 41.84375 41.421875 45.53125 
Q 43.3125 49.21875 43.3125 52.78125 
Q 43.3125 58.59375 39.234375 62.25 
Q 35.15625 65.921875 28.609375 65.921875 
Q 23.96875 65.921875 18.8125 64.3125 
Q 13.671875 62.703125 7.8125 59.421875 
L 7.8125 69.390625 
Q 13.765625 71.78125 18.9375 73 
Q 24.125 74.21875 28.421875 74.21875 
Q 39.75 74.21875 46.484375 68.546875 
Q 53.21875 62.890625 53.21875 53.421875 
Q 53.21875 48.921875 51.53125 44.890625 
Q 49.859375 40.875 45.40625 35.40625 
Q 44.1875 33.984375 37.640625 27.21875 
Q 31.109375 20.453125 19.1875 8.296875 
z
" id="DejaVuSans-32"/>
      </defs>
      <g transform="translate(74.797281 329.903312)scale(0.1 -0.1)">
       <use xlink:href="#DejaVuSans-32"/>
       <use x="63.623047" xlink:href="#DejaVuSans-30"/>
       <use x="127.246094" xlink:href="#DejaVuSans-30"/>
      </g>
     </g>
    </g>
    <g id="xtick_3">
     <g id="line2d_5">
      <path clip-path="url(#p35277b94eb)" d="M 128.078936 315.304875 
L 128.078936 49.192875 
" style="fill:none;stroke:#b0b0b0;stroke-linecap:square;stroke-width:0.8;"/>
     </g>
     <g id="line2d_6">
      <g>
       <use style="stroke:#000000;stroke-width:0.8;" x="128.078936" xlink:href="#m3af83fb4f7" y="315.304875"/>
      </g>
     </g>
     <g id="text_3">
      <!-- 400 -->
      <defs>
       <path d="M 37.796875 64.3125 
L 12.890625 25.390625 
L 37.796875 25.390625 
z
M 35.203125 72.90625 
L 47.609375 72.90625 
L 47.609375 25.390625 
L 58.015625 25.390625 
L 58.015625 17.1875 
L 47.609375 17.1875 
L 47.609375 0 
L 37.796875 0 
L 37.796875 17.1875 
L 4.890625 17.1875 
L 4.890625 26.703125 
z
" id="DejaVuSans-34"/>
      </defs>
      <g transform="translate(118.535186 329.903312)scale(0.1 -0.1)">
       <use xlink:href="#DejaVuSans-34"/>
       <use x="63.623047" xlink:href="#DejaVuSans-30"/>
       <use x="127.246094" xlink:href="#DejaVuSans-30"/>
      </g>
     </g>
    </g>
    <g id="xtick_4">
     <g id="line2d_7">
      <path clip-path="url(#p35277b94eb)" d="M 171.816842 315.304875 
L 171.816842 49.192875 
" style="fill:none;stroke:#b0b0b0;stroke-linecap:square;stroke-width:0.8;"/>
     </g>
     <g id="line2d_8">
      <g>
       <use style="stroke:#000000;stroke-width:0.8;" x="171.816842" xlink:href="#m3af83fb4f7" y="315.304875"/>
      </g>
     </g>
     <g id="text_4">
      <!-- 600 -->
      <defs>
       <path d="M 33.015625 40.375 
Q 26.375 40.375 22.484375 35.828125 
Q 18.609375 31.296875 18.609375 23.390625 
Q 18.609375 15.53125 22.484375 10.953125 
Q 26.375 6.390625 33.015625 6.390625 
Q 39.65625 6.390625 43.53125 10.953125 
Q 47.40625 15.53125 47.40625 23.390625 
Q 47.40625 31.296875 43.53125 35.828125 
Q 39.65625 40.375 33.015625 40.375 
z
M 52.59375 71.296875 
L 52.59375 62.3125 
Q 48.875 64.0625 45.09375 64.984375 
Q 41.3125 65.921875 37.59375 65.921875 
Q 27.828125 65.921875 22.671875 59.328125 
Q 17.53125 52.734375 16.796875 39.40625 
Q 19.671875 43.65625 24.015625 45.921875 
Q 28.375 48.1875 33.59375 48.1875 
Q 44.578125 48.1875 50.953125 41.515625 
Q 57.328125 34.859375 57.328125 23.390625 
Q 57.328125 12.15625 50.6875 5.359375 
Q 44.046875 -1.421875 33.015625 -1.421875 
Q 20.359375 -1.421875 13.671875 8.265625 
Q 6.984375 17.96875 6.984375 36.375 
Q 6.984375 53.65625 15.1875 63.9375 
Q 23.390625 74.21875 37.203125 74.21875 
Q 40.921875 74.21875 44.703125 73.484375 
Q 48.484375 72.75 52.59375 71.296875 
z
" id="DejaVuSans-36"/>
      </defs>
      <g transform="translate(162.273092 329.903312)scale(0.1 -0.1)">
       <use xlink:href="#DejaVuSans-36"/>
       <use x="63.623047" xlink:href="#DejaVuSans-30"/>
       <use x="127.246094" xlink:href="#DejaVuSans-30"/>
      </g>
     </g>
    </g>
    <g id="xtick_5">
     <g id="line2d_9">
      <path clip-path="url(#p35277b94eb)" d="M 215.554748 315.304875 
L 215.554748 49.192875 
" style="fill:none;stroke:#b0b0b0;stroke-linecap:square;stroke-width:0.8;"/>
     </g>
     <g id="line2d_10">
      <g>
       <use style="stroke:#000000;stroke-width:0.8;" x="215.554748" xlink:href="#m3af83fb4f7" y="315.304875"/>
      </g>
     </g>
     <g id="text_5">
      <!-- 800 -->
      <defs>
       <path d="M 31.78125 34.625 
Q 24.75 34.625 20.71875 30.859375 
Q 16.703125 27.09375 16.703125 20.515625 
Q 16.703125 13.921875 20.71875 10.15625 
Q 24.75 6.390625 31.78125 6.390625 
Q 38.8125 6.390625 42.859375 10.171875 
Q 46.921875 13.96875 46.921875 20.515625 
Q 46.921875 27.09375 42.890625 30.859375 
Q 38.875 34.625 31.78125 34.625 
z
M 21.921875 38.8125 
Q 15.578125 40.375 12.03125 44.71875 
Q 8.5 49.078125 8.5 55.328125 
Q 8.5 64.0625 14.71875 69.140625 
Q 20.953125 74.21875 31.78125 74.21875 
Q 42.671875 74.21875 48.875 69.140625 
Q 55.078125 64.0625 55.078125 55.328125 
Q 55.078125 49.078125 51.53125 44.71875 
Q 48 40.375 41.703125 38.8125 
Q 48.828125 37.15625 52.796875 32.3125 
Q 56.78125 27.484375 56.78125 20.515625 
Q 56.78125 9.90625 50.3125 4.234375 
Q 43.84375 -1.421875 31.78125 -1.421875 
Q 19.734375 -1.421875 13.25 4.234375 
Q 6.78125 9.90625 6.78125 20.515625 
Q 6.78125 27.484375 10.78125 32.3125 
Q 14.796875 37.15625 21.921875 38.8125 
z
M 18.3125 54.390625 
Q 18.3125 48.734375 21.84375 45.5625 
Q 25.390625 42.390625 31.78125 42.390625 
Q 38.140625 42.390625 41.71875 45.5625 
Q 45.3125 48.734375 45.3125 54.390625 
Q 45.3125 60.0625 41.71875 63.234375 
Q 38.140625 66.40625 31.78125 66.40625 
Q 25.390625 66.40625 21.84375 63.234375 
Q 18.3125 60.0625 18.3125 54.390625 
z
" id="DejaVuSans-38"/>
      </defs>
      <g transform="translate(206.010998 329.903312)scale(0.1 -0.1)">
       <use xlink:href="#DejaVuSans-38"/>
       <use x="63.623047" xlink:href="#DejaVuSans-30"/>
       <use x="127.246094" xlink:href="#DejaVuSans-30"/>
      </g>
     </g>
    </g>
    <g id="xtick_6">
     <g id="line2d_11">
      <path clip-path="url(#p35277b94eb)" d="M 259.292653 315.304875 
L 259.292653 49.192875 
" style="fill:none;stroke:#b0b0b0;stroke-linecap:square;stroke-width:0.8;"/>
     </g>
     <g id="line2d_12">
      <g>
       <use style="stroke:#000000;stroke-width:0.8;" x="259.292653" xlink:href="#m3af83fb4f7" y="315.304875"/>
      </g>
     </g>
     <g id="text_6">
      <!-- 1000 -->
      <defs>
       <path d="M 12.40625 8.296875 
L 28.515625 8.296875 
L 28.515625 63.921875 
L 10.984375 60.40625 
L 10.984375 69.390625 
L 28.421875 72.90625 
L 38.28125 72.90625 
L 38.28125 8.296875 
L 54.390625 8.296875 
L 54.390625 0 
L 12.40625 0 
z
" id="DejaVuSans-31"/>
      </defs>
      <g transform="translate(246.567653 329.903312)scale(0.1 -0.1)">
       <use xlink:href="#DejaVuSans-31"/>
       <use x="63.623047" xlink:href="#DejaVuSans-30"/>
       <use x="127.246094" xlink:href="#DejaVuSans-30"/>
       <use x="190.869141" xlink:href="#DejaVuSans-30"/>
      </g>
     </g>
    </g>
    <g id="xtick_7">
     <g id="line2d_13">
      <path clip-path="url(#p35277b94eb)" d="M 303.030559 315.304875 
L 303.030559 49.192875 
" style="fill:none;stroke:#b0b0b0;stroke-linecap:square;stroke-width:0.8;"/>
     </g>
     <g id="line2d_14">
      <g>
       <use style="stroke:#000000;stroke-width:0.8;" x="303.030559" xlink:href="#m3af83fb4f7" y="315.304875"/>
      </g>
     </g>
     <g id="text_7">
      <!-- 1200 -->
      <g transform="translate(290.305559 329.903312)scale(0.1 -0.1)">
       <use xlink:href="#DejaVuSans-31"/>
       <use x="63.623047" xlink:href="#DejaVuSans-32"/>
       <use x="127.246094" xlink:href="#DejaVuSans-30"/>
       <use x="190.869141" xlink:href="#DejaVuSans-30"/>
      </g>
     </g>
    </g>
    <g id="xtick_8">
     <g id="line2d_15">
      <path clip-path="url(#p35277b94eb)" d="M 346.768465 315.304875 
L 346.768465 49.192875 
" style="fill:none;stroke:#b0b0b0;stroke-linecap:square;stroke-width:0.8;"/>
     </g>
     <g id="line2d_16">
      <g>
       <use style="stroke:#000000;stroke-width:0.8;" x="346.768465" xlink:href="#m3af83fb4f7" y="315.304875"/>
      </g>
     </g>
     <g id="text_8">
      <!-- 1400 -->
      <g transform="translate(334.043465 329.903312)scale(0.1 -0.1)">
       <use xlink:href="#DejaVuSans-31"/>
       <use x="63.623047" xlink:href="#DejaVuSans-34"/>
       <use x="127.246094" xlink:href="#DejaVuSans-30"/>
       <use x="190.869141" xlink:href="#DejaVuSans-30"/>
      </g>
     </g>
    </g>
    <g id="xtick_9">
     <g id="line2d_17">
      <path clip-path="url(#p35277b94eb)" d="M 390.506371 315.304875 
L 390.506371 49.192875 
" style="fill:none;stroke:#b0b0b0;stroke-linecap:square;stroke-width:0.8;"/>
     </g>
     <g id="line2d_18">
      <g>
       <use style="stroke:#000000;stroke-width:0.8;" x="390.506371" xlink:href="#m3af83fb4f7" y="315.304875"/>
      </g>
     </g>
     <g id="text_9">
      <!-- 1600 -->
      <g transform="translate(377.781371 329.903312)scale(0.1 -0.1)">
       <use xlink:href="#DejaVuSans-31"/>
       <use x="63.623047" xlink:href="#DejaVuSans-36"/>
       <use x="127.246094" xlink:href="#DejaVuSans-30"/>
       <use x="190.869141" xlink:href="#DejaVuSans-30"/>
      </g>
     </g>
    </g>
    <g id="text_10">
     <!-- Time(s) -->
     <defs>
      <path d="M -0.296875 72.90625 
L 61.375 72.90625 
L 61.375 64.59375 
L 35.5 64.59375 
L 35.5 0 
L 25.59375 0 
L 25.59375 64.59375 
L -0.296875 64.59375 
z
" id="DejaVuSans-54"/>
      <path d="M 9.421875 54.6875 
L 18.40625 54.6875 
L 18.40625 0 
L 9.421875 0 
z
M 9.421875 75.984375 
L 18.40625 75.984375 
L 18.40625 64.59375 
L 9.421875 64.59375 
z
" id="DejaVuSans-69"/>
      <path d="M 52 44.1875 
Q 55.375 50.25 60.0625 53.125 
Q 64.75 56 71.09375 56 
Q 79.640625 56 84.28125 50.015625 
Q 88.921875 44.046875 88.921875 33.015625 
L 88.921875 0 
L 79.890625 0 
L 79.890625 32.71875 
Q 79.890625 40.578125 77.09375 44.375 
Q 74.3125 48.1875 68.609375 48.1875 
Q 61.625 48.1875 57.5625 43.546875 
Q 53.515625 38.921875 53.515625 30.90625 
L 53.515625 0 
L 44.484375 0 
L 44.484375 32.71875 
Q 44.484375 40.625 41.703125 44.40625 
Q 38.921875 48.1875 33.109375 48.1875 
Q 26.21875 48.1875 22.15625 43.53125 
Q 18.109375 38.875 18.109375 30.90625 
L 18.109375 0 
L 9.078125 0 
L 9.078125 54.6875 
L 18.109375 54.6875 
L 18.109375 46.1875 
Q 21.1875 51.21875 25.484375 53.609375 
Q 29.78125 56 35.6875 56 
Q 41.65625 56 45.828125 52.96875 
Q 50 49.953125 52 44.1875 
z
" id="DejaVuSans-6d"/>
      <path d="M 56.203125 29.59375 
L 56.203125 25.203125 
L 14.890625 25.203125 
Q 15.484375 15.921875 20.484375 11.0625 
Q 25.484375 6.203125 34.421875 6.203125 
Q 39.59375 6.203125 44.453125 7.46875 
Q 49.3125 8.734375 54.109375 11.28125 
L 54.109375 2.78125 
Q 49.265625 0.734375 44.1875 -0.34375 
Q 39.109375 -1.421875 33.890625 -1.421875 
Q 20.796875 -1.421875 13.15625 6.1875 
Q 5.515625 13.8125 5.515625 26.8125 
Q 5.515625 40.234375 12.765625 48.109375 
Q 20.015625 56 32.328125 56 
Q 43.359375 56 49.78125 48.890625 
Q 56.203125 41.796875 56.203125 29.59375 
z
M 47.21875 32.234375 
Q 47.125 39.59375 43.09375 43.984375 
Q 39.0625 48.390625 32.421875 48.390625 
Q 24.90625 48.390625 20.390625 44.140625 
Q 15.875 39.890625 15.1875 32.171875 
z
" id="DejaVuSans-65"/>
      <path d="M 31 75.875 
Q 24.46875 64.65625 21.28125 53.65625 
Q 18.109375 42.671875 18.109375 31.390625 
Q 18.109375 20.125 21.3125 9.0625 
Q 24.515625 -2 31 -13.1875 
L 23.1875 -13.1875 
Q 15.875 -1.703125 12.234375 9.375 
Q 8.59375 20.453125 8.59375 31.390625 
Q 8.59375 42.28125 12.203125 53.3125 
Q 15.828125 64.359375 23.1875 75.875 
z
" id="DejaVuSans-28"/>
      <path d="M 44.28125 53.078125 
L 44.28125 44.578125 
Q 40.484375 46.53125 36.375 47.5 
Q 32.28125 48.484375 27.875 48.484375 
Q 21.1875 48.484375 17.84375 46.4375 
Q 14.5 44.390625 14.5 40.28125 
Q 14.5 37.15625 16.890625 35.375 
Q 19.28125 33.59375 26.515625 31.984375 
L 29.59375 31.296875 
Q 39.15625 29.25 43.1875 25.515625 
Q 47.21875 21.78125 47.21875 15.09375 
Q 47.21875 7.46875 41.1875 3.015625 
Q 35.15625 -1.421875 24.609375 -1.421875 
Q 20.21875 -1.421875 15.453125 -0.5625 
Q 10.6875 0.296875 5.421875 2 
L 5.421875 11.28125 
Q 10.40625 8.6875 15.234375 7.390625 
Q 20.0625 6.109375 24.8125 6.109375 
Q 31.15625 6.109375 34.5625 8.28125 
Q 37.984375 10.453125 37.984375 14.40625 
Q 37.984375 18.0625 35.515625 20.015625 
Q 33.0625 21.96875 24.703125 23.78125 
L 21.578125 24.515625 
Q 13.234375 26.265625 9.515625 29.90625 
Q 5.8125 33.546875 5.8125 39.890625 
Q 5.8125 47.609375 11.28125 51.796875 
Q 16.75 56 26.8125 56 
Q 31.78125 56 36.171875 55.265625 
Q 40.578125 54.546875 44.28125 53.078125 
z
" id="DejaVuSans-73"/>
      <path d="M 8.015625 75.875 
L 15.828125 75.875 
Q 23.140625 64.359375 26.78125 53.3125 
Q 30.421875 42.28125 30.421875 31.390625 
Q 30.421875 20.453125 26.78125 9.375 
Q 23.140625 -1.703125 15.828125 -13.1875 
L 8.015625 -13.1875 
Q 14.5 -2 17.703125 9.0625 
Q 20.90625 20.125 20.90625 31.390625 
Q 20.90625 42.671875 17.703125 53.65625 
Q 14.5 64.65625 8.015625 75.875 
z
" id="DejaVuSans-29"/>
     </defs>
     <g transform="translate(200.269375 343.581437)scale(0.1 -0.1)">
      <use xlink:href="#DejaVuSans-54"/>
      <use x="61.037109" xlink:href="#DejaVuSans-69"/>
      <use x="88.820312" xlink:href="#DejaVuSans-6d"/>
      <use x="186.232422" xlink:href="#DejaVuSans-65"/>
      <use x="247.755859" xlink:href="#DejaVuSans-28"/>
      <use x="286.769531" xlink:href="#DejaVuSans-73"/>
      <use x="338.869141" xlink:href="#DejaVuSans-29"/>
     </g>
    </g>
   </g>
   <g id="matplotlib.axis_2">
    <g id="ytick_1">
     <g id="line2d_19">
      <path clip-path="url(#p35277b94eb)" d="M 40.603125 303.208875 
L 397.723125 303.208875 
" style="fill:none;stroke:#b0b0b0;stroke-linecap:square;stroke-width:0.8;"/>
     </g>
     <g id="line2d_20">
      <defs>
       <path d="M 0 0 
L -3.5 0 
" id="m7513440ced" style="stroke:#000000;stroke-width:0.8;"/>
      </defs>
      <g>
       <use style="stroke:#000000;stroke-width:0.8;" x="40.603125" xlink:href="#m7513440ced" y="303.208875"/>
      </g>
     </g>
     <g id="text_11">
      <!-- 0 -->
      <g transform="translate(27.240625 307.008094)scale(0.1 -0.1)">
       <use xlink:href="#DejaVuSans-30"/>
      </g>
     </g>
    </g>
    <g id="ytick_2">
     <g id="line2d_21">
      <path clip-path="url(#p35277b94eb)" d="M 40.603125 251.736535 
L 397.723125 251.736535 
" style="fill:none;stroke:#b0b0b0;stroke-linecap:square;stroke-width:0.8;"/>
     </g>
     <g id="line2d_22">
      <g>
       <use style="stroke:#000000;stroke-width:0.8;" x="40.603125" xlink:href="#m7513440ced" y="251.736535"/>
      </g>
     </g>
     <g id="text_12">
      <!-- 10 -->
      <g transform="translate(20.878125 255.535753)scale(0.1 -0.1)">
       <use xlink:href="#DejaVuSans-31"/>
       <use x="63.623047" xlink:href="#DejaVuSans-30"/>
      </g>
     </g>
    </g>
    <g id="ytick_3">
     <g id="line2d_23">
      <path clip-path="url(#p35277b94eb)" d="M 40.603125 200.264194 
L 397.723125 200.264194 
" style="fill:none;stroke:#b0b0b0;stroke-linecap:square;stroke-width:0.8;"/>
     </g>
     <g id="line2d_24">
      <g>
       <use style="stroke:#000000;stroke-width:0.8;" x="40.603125" xlink:href="#m7513440ced" y="200.264194"/>
      </g>
     </g>
     <g id="text_13">
      <!-- 20 -->
      <g transform="translate(20.878125 204.063413)scale(0.1 -0.1)">
       <use xlink:href="#DejaVuSans-32"/>
       <use x="63.623047" xlink:href="#DejaVuSans-30"/>
      </g>
     </g>
    </g>
    <g id="ytick_4">
     <g id="line2d_25">
      <path clip-path="url(#p35277b94eb)" d="M 40.603125 148.791854 
L 397.723125 148.791854 
" style="fill:none;stroke:#b0b0b0;stroke-linecap:square;stroke-width:0.8;"/>
     </g>
     <g id="line2d_26">
      <g>
       <use style="stroke:#000000;stroke-width:0.8;" x="40.603125" xlink:href="#m7513440ced" y="148.791854"/>
      </g>
     </g>
     <g id="text_14">
      <!-- 30 -->
      <defs>
       <path d="M 40.578125 39.3125 
Q 47.65625 37.796875 51.625 33 
Q 55.609375 28.21875 55.609375 21.1875 
Q 55.609375 10.40625 48.1875 4.484375 
Q 40.765625 -1.421875 27.09375 -1.421875 
Q 22.515625 -1.421875 17.65625 -0.515625 
Q 12.796875 0.390625 7.625 2.203125 
L 7.625 11.71875 
Q 11.71875 9.328125 16.59375 8.109375 
Q 21.484375 6.890625 26.8125 6.890625 
Q 36.078125 6.890625 40.9375 10.546875 
Q 45.796875 14.203125 45.796875 21.1875 
Q 45.796875 27.640625 41.28125 31.265625 
Q 36.765625 34.90625 28.71875 34.90625 
L 20.21875 34.90625 
L 20.21875 43.015625 
L 29.109375 43.015625 
Q 36.375 43.015625 40.234375 45.921875 
Q 44.09375 48.828125 44.09375 54.296875 
Q 44.09375 59.90625 40.109375 62.90625 
Q 36.140625 65.921875 28.71875 65.921875 
Q 24.65625 65.921875 20.015625 65.03125 
Q 15.375 64.15625 9.8125 62.3125 
L 9.8125 71.09375 
Q 15.4375 72.65625 20.34375 73.4375 
Q 25.25 74.21875 29.59375 74.21875 
Q 40.828125 74.21875 47.359375 69.109375 
Q 53.90625 64.015625 53.90625 55.328125 
Q 53.90625 49.265625 50.4375 45.09375 
Q 46.96875 40.921875 40.578125 39.3125 
z
" id="DejaVuSans-33"/>
      </defs>
      <g transform="translate(20.878125 152.591072)scale(0.1 -0.1)">
       <use xlink:href="#DejaVuSans-33"/>
       <use x="63.623047" xlink:href="#DejaVuSans-30"/>
      </g>
     </g>
    </g>
    <g id="ytick_5">
     <g id="line2d_27">
      <path clip-path="url(#p35277b94eb)" d="M 40.603125 97.319513 
L 397.723125 97.319513 
" style="fill:none;stroke:#b0b0b0;stroke-linecap:square;stroke-width:0.8;"/>
     </g>
     <g id="line2d_28">
      <g>
       <use style="stroke:#000000;stroke-width:0.8;" x="40.603125" xlink:href="#m7513440ced" y="97.319513"/>
      </g>
     </g>
     <g id="text_15">
      <!-- 40 -->
      <g transform="translate(20.878125 101.118732)scale(0.1 -0.1)">
       <use xlink:href="#DejaVuSans-34"/>
       <use x="63.623047" xlink:href="#DejaVuSans-30"/>
      </g>
     </g>
    </g>
    <g id="text_16">
     <!-- Discovered Nodes -->
     <defs>
      <path d="M 19.671875 64.796875 
L 19.671875 8.109375 
L 31.59375 8.109375 
Q 46.6875 8.109375 53.6875 14.9375 
Q 60.6875 21.78125 60.6875 36.53125 
Q 60.6875 51.171875 53.6875 57.984375 
Q 46.6875 64.796875 31.59375 64.796875 
z
M 9.8125 72.90625 
L 30.078125 72.90625 
Q 51.265625 72.90625 61.171875 64.09375 
Q 71.09375 55.28125 71.09375 36.53125 
Q 71.09375 17.671875 61.125 8.828125 
Q 51.171875 0 30.078125 0 
L 9.8125 0 
z
" id="DejaVuSans-44"/>
      <path d="M 48.78125 52.59375 
L 48.78125 44.1875 
Q 44.96875 46.296875 41.140625 47.34375 
Q 37.3125 48.390625 33.40625 48.390625 
Q 24.65625 48.390625 19.8125 42.84375 
Q 14.984375 37.3125 14.984375 27.296875 
Q 14.984375 17.28125 19.8125 11.734375 
Q 24.65625 6.203125 33.40625 6.203125 
Q 37.3125 6.203125 41.140625 7.25 
Q 44.96875 8.296875 48.78125 10.40625 
L 48.78125 2.09375 
Q 45.015625 0.34375 40.984375 -0.53125 
Q 36.96875 -1.421875 32.421875 -1.421875 
Q 20.0625 -1.421875 12.78125 6.34375 
Q 5.515625 14.109375 5.515625 27.296875 
Q 5.515625 40.671875 12.859375 48.328125 
Q 20.21875 56 33.015625 56 
Q 37.15625 56 41.109375 55.140625 
Q 45.0625 54.296875 48.78125 52.59375 
z
" id="DejaVuSans-63"/>
      <path d="M 30.609375 48.390625 
Q 23.390625 48.390625 19.1875 42.75 
Q 14.984375 37.109375 14.984375 27.296875 
Q 14.984375 17.484375 19.15625 11.84375 
Q 23.34375 6.203125 30.609375 6.203125 
Q 37.796875 6.203125 41.984375 11.859375 
Q 46.1875 17.53125 46.1875 27.296875 
Q 46.1875 37.015625 41.984375 42.703125 
Q 37.796875 48.390625 30.609375 48.390625 
z
M 30.609375 56 
Q 42.328125 56 49.015625 48.375 
Q 55.71875 40.765625 55.71875 27.296875 
Q 55.71875 13.875 49.015625 6.21875 
Q 42.328125 -1.421875 30.609375 -1.421875 
Q 18.84375 -1.421875 12.171875 6.21875 
Q 5.515625 13.875 5.515625 27.296875 
Q 5.515625 40.765625 12.171875 48.375 
Q 18.84375 56 30.609375 56 
z
" id="DejaVuSans-6f"/>
      <path d="M 2.984375 54.6875 
L 12.5 54.6875 
L 29.59375 8.796875 
L 46.6875 54.6875 
L 56.203125 54.6875 
L 35.6875 0 
L 23.484375 0 
z
" id="DejaVuSans-76"/>
      <path d="M 41.109375 46.296875 
Q 39.59375 47.171875 37.8125 47.578125 
Q 36.03125 48 33.890625 48 
Q 26.265625 48 22.1875 43.046875 
Q 18.109375 38.09375 18.109375 28.8125 
L 18.109375 0 
L 9.078125 0 
L 9.078125 54.6875 
L 18.109375 54.6875 
L 18.109375 46.1875 
Q 20.953125 51.171875 25.484375 53.578125 
Q 30.03125 56 36.53125 56 
Q 37.453125 56 38.578125 55.875 
Q 39.703125 55.765625 41.0625 55.515625 
z
" id="DejaVuSans-72"/>
      <path d="M 45.40625 46.390625 
L 45.40625 75.984375 
L 54.390625 75.984375 
L 54.390625 0 
L 45.40625 0 
L 45.40625 8.203125 
Q 42.578125 3.328125 38.25 0.953125 
Q 33.9375 -1.421875 27.875 -1.421875 
Q 17.96875 -1.421875 11.734375 6.484375 
Q 5.515625 14.40625 5.515625 27.296875 
Q 5.515625 40.1875 11.734375 48.09375 
Q 17.96875 56 27.875 56 
Q 33.9375 56 38.25 53.625 
Q 42.578125 51.265625 45.40625 46.390625 
z
M 14.796875 27.296875 
Q 14.796875 17.390625 18.875 11.75 
Q 22.953125 6.109375 30.078125 6.109375 
Q 37.203125 6.109375 41.296875 11.75 
Q 45.40625 17.390625 45.40625 27.296875 
Q 45.40625 37.203125 41.296875 42.84375 
Q 37.203125 48.484375 30.078125 48.484375 
Q 22.953125 48.484375 18.875 42.84375 
Q 14.796875 37.203125 14.796875 27.296875 
z
" id="DejaVuSans-64"/>
      <path id="DejaVuSans-20"/>
      <path d="M 9.8125 72.90625 
L 23.09375 72.90625 
L 55.421875 11.921875 
L 55.421875 72.90625 
L 64.984375 72.90625 
L 64.984375 0 
L 51.703125 0 
L 19.390625 60.984375 
L 19.390625 0 
L 9.8125 0 
z
" id="DejaVuSans-4e"/>
     </defs>
     <g transform="translate(14.798438 227.486375)rotate(-90)scale(0.1 -0.1)">
      <use xlink:href="#DejaVuSans-44"/>
      <use x="77.001953" xlink:href="#DejaVuSans-69"/>
      <use x="104.785156" xlink:href="#DejaVuSans-73"/>
      <use x="156.884766" xlink:href="#DejaVuSans-63"/>
      <use x="211.865234" xlink:href="#DejaVuSans-6f"/>
      <use x="273.046875" xlink:href="#DejaVuSans-76"/>
      <use x="332.226562" xlink:href="#DejaVuSans-65"/>
      <use x="393.75" xlink:href="#DejaVuSans-72"/>
      <use x="434.832031" xlink:href="#DejaVuSans-65"/>
      <use x="496.355469" xlink:href="#DejaVuSans-64"/>
      <use x="559.832031" xlink:href="#DejaVuSans-20"/>
      <use x="591.619141" xlink:href="#DejaVuSans-4e"/>
      <use x="666.423828" xlink:href="#DejaVuSans-6f"/>
      <use x="727.605469" xlink:href="#DejaVuSans-64"/>
      <use x="791.082031" xlink:href="#DejaVuSans-65"/>
      <use x="852.605469" xlink:href="#DejaVuSans-73"/>
     </g>
    </g>
   </g>
   <g id="line2d_29">
    <path clip-path="url(#p35277b94eb)" d="M 40.603125 303.208875 
L 135.077001 303.208875 
L 135.295691 298.061641 
L 135.951759 298.061641 
L 136.170449 292.914407 
L 137.045207 292.914407 
L 137.263897 287.767173 
L 137.919965 287.767173 
L 138.794723 267.178237 
L 139.013413 267.178237 
L 139.232102 262.031003 
L 139.450792 262.031003 
L 139.888171 251.736535 
L 140.54424 251.736535 
L 140.762929 246.589301 
L 141.418998 246.589301 
L 141.637687 241.442066 
L 141.856377 246.589301 
L 142.075066 246.589301 
L 142.293756 241.442066 
L 142.731135 241.442066 
L 143.168514 251.736535 
L 143.605893 251.736535 
L 143.824582 262.031003 
L 144.043272 262.031003 
L 144.261961 267.178237 
L 144.699341 267.178237 
L 144.91803 272.325471 
L 145.13672 272.325471 
L 145.355409 277.472705 
L 145.792788 277.472705 
L 146.011478 282.619939 
L 146.448857 282.619939 
L 146.667546 298.061641 
L 147.323615 298.061641 
L 147.542304 303.208875 
L 168.31781 303.208875 
L 168.536499 298.061641 
L 168.973878 298.061641 
L 169.192568 282.619939 
L 169.411257 282.619939 
L 170.723394 251.736535 
L 171.379463 251.736535 
L 171.598153 246.589301 
L 172.035532 246.589301 
L 172.254221 241.442066 
L 173.347669 241.442066 
L 173.566358 236.294832 
L 173.785048 226.000364 
L 174.003737 226.000364 
L 174.222427 220.85313 
L 174.441116 220.85313 
L 174.659806 226.000364 
L 174.878495 220.85313 
L 175.315875 220.85313 
L 175.534564 215.705896 
L 175.753254 241.442066 
L 175.971943 236.294832 
L 176.190633 241.442066 
L 176.409322 241.442066 
L 176.628012 236.294832 
L 177.065391 246.589301 
L 177.28408 246.589301 
L 177.50277 251.736535 
L 177.721459 251.736535 
L 177.940149 256.883769 
L 178.814907 256.883769 
L 179.033597 262.031003 
L 179.252286 262.031003 
L 179.470976 267.178237 
L 179.908355 267.178237 
L 180.127044 272.325471 
L 180.564423 272.325471 
L 180.783113 292.914407 
L 181.220492 303.208875 
L 290.127877 303.208875 
L 290.346567 298.061641 
L 291.221325 298.061641 
L 291.658704 287.767173 
L 292.096083 287.767173 
L 292.533462 272.325471 
L 292.752151 272.325471 
L 292.970841 267.178237 
L 293.18953 267.178237 
L 293.40822 262.031003 
L 293.845599 262.031003 
L 294.064289 256.883769 
L 294.501668 256.883769 
L 294.939047 241.442066 
L 295.157736 246.589301 
L 295.376426 241.442066 
L 295.813805 241.442066 
L 296.032494 236.294832 
L 296.688563 236.294832 
L 296.907252 241.442066 
L 297.563321 241.442066 
L 298.0007 256.883769 
L 298.21939 262.031003 
L 298.875458 262.031003 
L 299.094148 267.178237 
L 299.312837 267.178237 
L 299.531527 272.325471 
L 299.968906 272.325471 
L 300.406285 282.619939 
L 301.499732 282.619939 
L 302.155801 298.061641 
L 302.374491 298.061641 
L 302.59318 303.208875 
L 324.899512 303.208875 
L 325.118202 298.061641 
L 332.116266 298.061641 
L 332.334956 303.208875 
L 364.919696 303.208875 
L 365.138385 298.061641 
L 366.450522 298.061641 
L 366.669212 292.914407 
L 367.325281 267.178237 
L 367.76266 267.178237 
L 368.637418 226.000364 
L 369.074797 189.969726 
L 369.512176 174.528024 
L 370.605623 148.791854 
L 370.824313 148.791854 
L 371.261692 128.202918 
L 371.480382 107.613981 
L 371.917761 107.613981 
L 372.13645 102.466747 
L 372.35514 102.466747 
L 372.573829 97.319513 
L 372.792519 102.466747 
L 373.011208 102.466747 
L 373.229898 107.613981 
L 373.448587 102.466747 
L 373.667277 107.613981 
L 373.885966 123.055684 
L 374.104656 128.202918 
L 374.323345 138.497386 
L 374.542035 138.497386 
L 374.760725 143.64462 
L 375.198104 174.528024 
L 375.416793 174.528024 
L 375.635483 189.969726 
L 375.854172 195.11696 
L 376.072862 210.558662 
L 376.291551 215.705896 
L 376.72893 241.442066 
L 376.94762 241.442066 
L 377.166309 262.031003 
L 378.259757 262.031003 
L 378.478446 267.178237 
L 378.697136 282.619939 
L 378.915826 287.767173 
L 379.134515 303.208875 
L 397.504435 303.208875 
L 397.504435 303.208875 
" style="fill:none;stroke:#008000;stroke-linecap:square;stroke-width:1.5;"/>
   </g>
   <g id="line2d_30">
    <path clip-path="url(#p35277b94eb)" d="M 40.603125 303.208875 
L 135.295691 303.208875 
L 135.51438 298.061641 
L 137.045207 298.061641 
L 137.482586 287.767173 
L 137.701276 287.767173 
L 138.794723 262.031003 
L 139.013413 262.031003 
L 139.232102 267.178237 
L 139.450792 262.031003 
L 139.888171 262.031003 
L 140.10686 256.883769 
L 140.32555 256.883769 
L 140.54424 251.736535 
L 140.981619 251.736535 
L 141.200308 246.589301 
L 141.637687 246.589301 
L 141.856377 241.442066 
L 142.075066 246.589301 
L 142.293756 246.589301 
L 142.512445 241.442066 
L 142.731135 241.442066 
L 142.949824 236.294832 
L 143.605893 236.294832 
L 143.824582 231.147598 
L 144.043272 231.147598 
L 144.699341 246.589301 
L 144.91803 256.883769 
L 145.13672 256.883769 
L 145.355409 267.178237 
L 145.574099 267.178237 
L 145.792788 272.325471 
L 146.011478 272.325471 
L 146.230167 277.472705 
L 146.448857 277.472705 
L 146.886236 287.767173 
L 147.323615 287.767173 
L 147.542304 298.061641 
L 147.760994 298.061641 
L 147.979683 303.208875 
L 168.09912 303.208875 
L 168.31781 298.061641 
L 168.973878 298.061641 
L 169.629947 272.325471 
L 170.067326 272.325471 
L 170.286015 262.031003 
L 170.504705 262.031003 
L 170.723394 256.883769 
L 170.942084 256.883769 
L 171.160773 251.736535 
L 171.379463 251.736535 
L 172.035532 236.294832 
L 172.254221 236.294832 
L 172.472911 231.147598 
L 173.128979 205.411428 
L 174.222427 205.411428 
L 174.878495 174.528024 
L 175.315875 184.822492 
L 175.534564 200.264194 
L 175.753254 195.11696 
L 175.971943 195.11696 
L 176.628012 210.558662 
L 176.846701 220.85313 
L 177.50277 220.85313 
L 177.721459 226.000364 
L 178.158838 226.000364 
L 178.377528 241.442066 
L 178.814907 241.442066 
L 179.252286 256.883769 
L 179.470976 256.883769 
L 179.689665 262.031003 
L 179.908355 262.031003 
L 180.127044 267.178237 
L 180.345734 282.619939 
L 180.783113 282.619939 
L 181.001802 287.767173 
L 181.220492 287.767173 
L 181.439181 298.061641 
L 181.657871 298.061641 
L 181.87656 303.208875 
L 290.346567 303.208875 
L 290.565256 298.061641 
L 290.783946 298.061641 
L 291.002635 292.914407 
L 291.221325 292.914407 
L 291.440014 287.767173 
L 292.533462 287.767173 
L 292.752151 282.619939 
L 293.18953 282.619939 
L 293.40822 277.472705 
L 294.282978 277.472705 
L 294.501668 272.325471 
L 294.720357 272.325471 
L 294.939047 267.178237 
L 295.157736 267.178237 
L 295.376426 262.031003 
L 296.907252 262.031003 
L 297.125942 267.178237 
L 297.344631 267.178237 
L 297.563321 262.031003 
L 298.0007 262.031003 
L 298.21939 267.178237 
L 298.438079 267.178237 
L 298.656769 272.325471 
L 298.875458 272.325471 
L 299.094148 277.472705 
L 299.750216 277.472705 
L 299.968906 282.619939 
L 301.281043 282.619939 
L 301.499732 287.767173 
L 301.937112 287.767173 
L 302.59318 303.208875 
L 313.965036 303.208875 
L 314.183725 298.061641 
L 324.462133 298.061641 
L 324.680822 303.208875 
L 369.074797 303.208875 
L 369.949555 282.619939 
L 371.043003 282.619939 
L 371.261692 277.472705 
L 371.699071 287.767173 
L 372.792519 287.767173 
L 373.229898 277.472705 
L 373.885966 292.914407 
L 376.510241 292.914407 
L 376.94762 303.208875 
L 397.504435 303.208875 
L 397.504435 303.208875 
" style="fill:none;stroke:#0000ff;stroke-linecap:square;stroke-width:1.5;"/>
   </g>
   <g id="line2d_31">
    <path clip-path="url(#p35277b94eb)" d="M 40.603125 303.208875 
L 103.14833 303.208875 
L 103.36702 298.061641 
L 104.460467 298.061641 
L 104.679157 292.914407 
L 105.116536 292.914407 
L 105.335225 287.767173 
L 109.271637 287.767173 
L 109.490326 292.914407 
L 110.365085 292.914407 
L 110.583774 298.061641 
L 112.114601 298.061641 
L 112.33329 303.208875 
L 135.295691 303.208875 
L 135.51438 298.061641 
L 136.389138 298.061641 
L 136.607828 287.767173 
L 137.482586 287.767173 
L 137.701276 282.619939 
L 137.919965 282.619939 
L 138.138655 277.472705 
L 138.357344 277.472705 
L 138.576034 272.325471 
L 139.013413 272.325471 
L 139.232102 267.178237 
L 139.888171 267.178237 
L 140.32555 256.883769 
L 140.54424 256.883769 
L 140.762929 251.736535 
L 141.200308 251.736535 
L 141.856377 226.000364 
L 142.512445 226.000364 
L 142.731135 236.294832 
L 143.387203 236.294832 
L 143.605893 241.442066 
L 144.480651 241.442066 
L 145.355409 262.031003 
L 145.792788 262.031003 
L 146.230167 272.325471 
L 147.323615 272.325471 
L 147.542304 277.472705 
L 147.979683 292.914407 
L 148.198373 292.914407 
L 148.417063 298.061641 
L 148.635752 298.061641 
L 148.854442 303.208875 
L 167.880431 303.208875 
L 168.09912 298.061641 
L 169.629947 298.061641 
L 170.067326 287.767173 
L 170.286015 277.472705 
L 170.723394 277.472705 
L 170.942084 272.325471 
L 171.598153 272.325471 
L 172.472911 251.736535 
L 172.6916 251.736535 
L 172.91029 246.589301 
L 173.128979 251.736535 
L 173.347669 251.736535 
L 173.566358 241.442066 
L 173.785048 241.442066 
L 174.003737 236.294832 
L 174.222427 226.000364 
L 174.441116 226.000364 
L 174.659806 220.85313 
L 174.878495 220.85313 
L 175.097185 215.705896 
L 175.315875 220.85313 
L 175.534564 220.85313 
L 175.753254 226.000364 
L 176.628012 226.000364 
L 177.065391 236.294832 
L 177.28408 236.294832 
L 177.50277 246.589301 
L 178.377528 246.589301 
L 178.814907 256.883769 
L 179.252286 272.325471 
L 179.908355 272.325471 
L 180.345734 282.619939 
L 180.564423 282.619939 
L 180.783113 292.914407 
L 181.001802 292.914407 
L 181.220492 298.061641 
L 182.09525 298.061641 
L 182.313939 303.208875 
L 289.034429 303.208875 
L 289.471808 292.914407 
L 291.221325 292.914407 
L 291.440014 287.767173 
L 291.877393 287.767173 
L 292.314772 277.472705 
L 292.533462 277.472705 
L 292.752151 272.325471 
L 293.626909 272.325471 
L 293.845599 267.178237 
L 294.064289 256.883769 
L 296.032494 256.883769 
L 296.251184 251.736535 
L 296.469873 251.736535 
L 296.688563 256.883769 
L 296.907252 256.883769 
L 297.125942 262.031003 
L 298.0007 262.031003 
L 298.438079 272.325471 
L 298.656769 272.325471 
L 298.875458 277.472705 
L 299.094148 277.472705 
L 299.750216 292.914407 
L 300.624974 292.914407 
L 300.843664 298.061641 
L 310.466003 298.061641 
L 310.684693 303.208875 
L 397.504435 303.208875 
L 397.504435 303.208875 
" style="fill:none;stroke:#ff0000;stroke-linecap:square;stroke-width:1.5;"/>
   </g>
   <g id="line2d_32">
    <path clip-path="url(#p35277b94eb)" d="M 40.603125 303.208875 
L 102.492262 303.208875 
L 102.710951 298.061641 
L 103.36702 298.061641 
L 103.585709 287.767173 
L 104.460467 287.767173 
L 104.679157 282.619939 
L 105.772604 282.619939 
L 105.991294 277.472705 
L 108.178189 277.472705 
L 108.396879 272.325471 
L 109.052947 272.325471 
L 109.271637 277.472705 
L 109.709016 277.472705 
L 109.927706 282.619939 
L 110.146395 282.619939 
L 110.365085 287.767173 
L 110.583774 287.767173 
L 110.802464 292.914407 
L 111.677222 292.914407 
L 111.895911 298.061641 
L 112.770669 298.061641 
L 112.989359 303.208875 
L 135.077001 303.208875 
L 135.295691 298.061641 
L 136.826518 298.061641 
L 137.045207 292.914407 
L 137.919965 292.914407 
L 138.138655 287.767173 
L 138.576034 287.767173 
L 139.013413 277.472705 
L 139.232102 277.472705 
L 139.669481 267.178237 
L 139.888171 267.178237 
L 140.10686 262.031003 
L 140.54424 246.589301 
L 140.762929 241.442066 
L 140.981619 241.442066 
L 141.200308 236.294832 
L 141.637687 236.294832 
L 141.856377 226.000364 
L 142.075066 226.000364 
L 142.293756 236.294832 
L 142.512445 231.147598 
L 142.731135 236.294832 
L 142.949824 236.294832 
L 143.168514 241.442066 
L 143.387203 241.442066 
L 143.605893 246.589301 
L 143.824582 246.589301 
L 144.043272 251.736535 
L 145.13672 251.736535 
L 145.574099 262.031003 
L 145.792788 262.031003 
L 146.011478 272.325471 
L 146.230167 272.325471 
L 146.667546 287.767173 
L 147.542304 287.767173 
L 147.760994 298.061641 
L 148.198373 298.061641 
L 148.417063 303.208875 
L 169.629947 303.208875 
L 169.848636 298.061641 
L 170.067326 298.061641 
L 170.286015 292.914407 
L 175.534564 292.914407 
L 175.753254 287.767173 
L 176.628012 287.767173 
L 176.846701 292.914407 
L 178.158838 292.914407 
L 178.377528 298.061641 
L 179.252286 298.061641 
L 179.470976 303.208875 
L 290.565256 303.208875 
L 290.783946 298.061641 
L 291.002635 298.061641 
L 291.221325 292.914407 
L 291.877393 292.914407 
L 292.096083 282.619939 
L 292.533462 282.619939 
L 292.752151 277.472705 
L 293.40822 277.472705 
L 293.626909 272.325471 
L 294.282978 272.325471 
L 294.501668 267.178237 
L 294.720357 267.178237 
L 294.939047 262.031003 
L 295.157736 251.736535 
L 296.907252 251.736535 
L 297.125942 246.589301 
L 297.344631 262.031003 
L 298.0007 262.031003 
L 298.21939 272.325471 
L 299.094148 272.325471 
L 299.312837 277.472705 
L 299.750216 277.472705 
L 299.968906 282.619939 
L 301.281043 282.619939 
L 301.718422 292.914407 
L 301.937112 292.914407 
L 302.374491 303.208875 
L 397.504435 303.208875 
L 397.504435 303.208875 
" style="fill:none;stroke:#00ffff;stroke-linecap:square;stroke-width:1.5;"/>
   </g>
   <g id="line2d_33">
    <path clip-path="url(#p35277b94eb)" d="M 40.603125 303.208875 
L 103.585709 303.208875 
L 103.804399 298.061641 
L 104.241778 298.061641 
L 104.460467 292.914407 
L 104.897846 292.914407 
L 105.116536 287.767173 
L 105.991294 287.767173 
L 106.209984 282.619939 
L 106.428673 282.619939 
L 106.866052 272.325471 
L 108.615568 272.325471 
L 108.834258 277.472705 
L 110.802464 277.472705 
L 111.021153 282.619939 
L 111.458532 282.619939 
L 111.677222 287.767173 
L 112.33329 287.767173 
L 112.55198 292.914407 
L 113.426738 292.914407 
L 113.645428 298.061641 
L 132.234037 298.061641 
L 132.452727 303.208875 
L 135.295691 303.208875 
L 135.73307 292.914407 
L 136.170449 292.914407 
L 136.389138 287.767173 
L 136.607828 287.767173 
L 136.826518 282.619939 
L 137.263897 282.619939 
L 137.701276 272.325471 
L 137.919965 272.325471 
L 138.138655 262.031003 
L 138.576034 262.031003 
L 138.794723 256.883769 
L 139.013413 256.883769 
L 139.669481 241.442066 
L 139.888171 241.442066 
L 140.32555 220.85313 
L 140.762929 220.85313 
L 140.981619 226.000364 
L 142.512445 226.000364 
L 143.168514 241.442066 
L 143.387203 241.442066 
L 143.605893 246.589301 
L 144.043272 246.589301 
L 144.261961 251.736535 
L 144.480651 251.736535 
L 144.699341 256.883769 
L 144.91803 256.883769 
L 145.355409 267.178237 
L 145.792788 267.178237 
L 146.011478 272.325471 
L 146.230167 287.767173 
L 146.448857 287.767173 
L 146.667546 292.914407 
L 146.886236 292.914407 
L 147.323615 303.208875 
L 249.232935 303.208875 
L 249.451625 298.061641 
L 250.763762 298.061641 
L 250.982451 292.914407 
L 251.201141 292.914407 
L 251.41983 277.472705 
L 251.63852 277.472705 
L 251.85721 272.325471 
L 252.075899 272.325471 
L 252.513278 262.031003 
L 252.731968 267.178237 
L 252.950657 256.883769 
L 254.262794 256.883769 
L 254.481484 251.736535 
L 255.137552 251.736535 
L 255.356242 246.589301 
L 255.574931 251.736535 
L 256.012311 251.736535 
L 256.231 246.589301 
L 257.105758 246.589301 
L 257.324448 251.736535 
L 257.543137 251.736535 
L 257.761827 256.883769 
L 257.980516 272.325471 
L 258.417895 282.619939 
L 258.636585 277.472705 
L 258.855274 282.619939 
L 259.511343 282.619939 
L 259.730033 287.767173 
L 260.167412 287.767173 
L 260.604791 298.061641 
L 261.698238 298.061641 
L 261.916928 303.208875 
L 291.002635 303.208875 
L 291.221325 298.061641 
L 291.877393 298.061641 
L 292.314772 282.619939 
L 293.845599 282.619939 
L 294.282978 272.325471 
L 294.939047 272.325471 
L 295.157736 267.178237 
L 295.813805 267.178237 
L 296.251184 256.883769 
L 296.469873 256.883769 
L 296.688563 251.736535 
L 296.907252 256.883769 
L 297.78201 256.883769 
L 298.0007 262.031003 
L 298.656769 262.031003 
L 298.875458 267.178237 
L 299.094148 267.178237 
L 299.531527 277.472705 
L 300.624974 277.472705 
L 301.062353 287.767173 
L 301.281043 287.767173 
L 301.718422 298.061641 
L 302.81187 298.061641 
L 303.030559 303.208875 
L 312.871588 303.208875 
L 313.090277 298.061641 
L 316.37062 298.061641 
L 316.58931 303.208875 
L 397.504435 303.208875 
L 397.504435 303.208875 
" style="fill:none;stroke:#ff00ff;stroke-linecap:square;stroke-width:1.5;"/>
   </g>
   <g id="line2d_34">
    <path clip-path="url(#p35277b94eb)" d="M 40.603125 303.208875 
L 66.408489 303.208875 
L 66.627179 298.061641 
L 67.720627 298.061641 
L 68.376695 282.619939 
L 69.688832 282.619939 
L 69.907522 272.325471 
L 70.78228 272.325471 
L 71.000969 277.472705 
L 71.657038 277.472705 
L 72.313107 262.031003 
L 72.531796 262.031003 
L 72.750486 267.178237 
L 73.406554 267.178237 
L 73.625244 272.325471 
L 73.843933 272.325471 
L 74.062623 277.472705 
L 74.281312 272.325471 
L 74.718691 282.619939 
L 74.937381 277.472705 
L 75.15607 277.472705 
L 75.37476 282.619939 
L 75.59345 282.619939 
L 75.812139 287.767173 
L 76.468208 287.767173 
L 76.686897 292.914407 
L 77.999034 292.914407 
L 78.217724 303.208875 
L 100.961435 303.208875 
L 101.180124 298.061641 
L 105.553915 298.061641 
L 105.772604 292.914407 
L 105.991294 282.619939 
L 106.428673 282.619939 
L 106.866052 267.178237 
L 107.084742 267.178237 
L 107.303431 262.031003 
L 108.178189 262.031003 
L 108.396879 267.178237 
L 108.615568 267.178237 
L 109.271637 282.619939 
L 110.146395 282.619939 
L 110.365085 287.767173 
L 112.114601 287.767173 
L 112.55198 298.061641 
L 112.770669 298.061641 
L 112.989359 303.208875 
L 135.295691 303.208875 
L 135.51438 292.914407 
L 135.73307 292.914407 
L 135.951759 287.767173 
L 136.607828 287.767173 
L 137.263897 272.325471 
L 137.701276 251.736535 
L 137.919965 251.736535 
L 138.138655 241.442066 
L 138.576034 241.442066 
L 138.794723 231.147598 
L 139.450792 231.147598 
L 139.669481 226.000364 
L 139.888171 226.000364 
L 140.10686 215.705896 
L 140.981619 215.705896 
L 141.200308 205.411428 
L 142.075066 226.000364 
L 142.512445 226.000364 
L 142.731135 241.442066 
L 142.949824 241.442066 
L 143.168514 246.589301 
L 143.387203 246.589301 
L 143.824582 256.883769 
L 144.043272 272.325471 
L 144.699341 272.325471 
L 145.13672 282.619939 
L 145.355409 292.914407 
L 146.230167 292.914407 
L 146.448857 303.208875 
L 248.139488 303.208875 
L 248.358177 298.061641 
L 248.576867 298.061641 
L 249.014246 282.619939 
L 249.232935 282.619939 
L 249.670314 267.178237 
L 249.889004 262.031003 
L 250.107693 251.736535 
L 250.326383 251.736535 
L 250.545072 246.589301 
L 250.982451 246.589301 
L 251.41983 210.558662 
L 251.85721 195.11696 
L 252.075899 169.38079 
L 252.294589 164.233556 
L 252.950657 138.497386 
L 253.388036 128.202918 
L 253.606726 128.202918 
L 253.825415 123.055684 
L 254.044105 123.055684 
L 254.481484 97.319513 
L 254.918863 71.583343 
L 255.137552 76.730577 
L 255.356242 71.583343 
L 255.574931 61.288875 
L 255.793621 66.436109 
L 256.231 81.877811 
L 256.44969 76.730577 
L 257.105758 92.172279 
L 257.324448 107.613981 
L 257.761827 117.908449 
L 257.980516 128.202918 
L 258.199206 128.202918 
L 258.855274 164.233556 
L 259.292653 189.969726 
L 259.511343 200.264194 
L 259.730033 220.85313 
L 259.948722 220.85313 
L 260.604791 246.589301 
L 260.82348 246.589301 
L 261.04217 251.736535 
L 261.260859 251.736535 
L 262.354307 298.061641 
L 262.572996 298.061641 
L 262.791686 303.208875 
L 291.658704 303.208875 
L 291.877393 298.061641 
L 293.18953 298.061641 
L 293.40822 292.914407 
L 295.376426 292.914407 
L 295.813805 282.619939 
L 296.688563 282.619939 
L 296.907252 277.472705 
L 298.0007 277.472705 
L 298.21939 282.619939 
L 298.875458 282.619939 
L 299.094148 287.767173 
L 299.968906 287.767173 
L 300.187595 292.914407 
L 301.062353 292.914407 
L 301.281043 298.061641 
L 301.937112 298.061641 
L 302.155801 303.208875 
L 397.504435 303.208875 
L 397.504435 303.208875 
" style="fill:none;stroke:#000000;stroke-linecap:square;stroke-width:1.5;"/>
   </g>
   <g id="patch_3">
    <path d="M 40.603125 315.304875 
L 40.603125 49.192875 
" style="fill:none;stroke:#000000;stroke-linecap:square;stroke-linejoin:miter;stroke-width:0.8;"/>
   </g>
   <g id="patch_4">
    <path d="M 397.723125 315.304875 
L 397.723125 49.192875 
" style="fill:none;stroke:#000000;stroke-linecap:square;stroke-linejoin:miter;stroke-width:0.8;"/>
   </g>
   <g id="patch_5">
    <path d="M 40.603125 315.304875 
L 397.723125 315.304875 
" style="fill:none;stroke:#000000;stroke-linecap:square;stroke-linejoin:miter;stroke-width:0.8;"/>
   </g>
   <g id="patch_6">
    <path d="M 40.603125 49.192875 
L 397.723125 49.192875 
" style="fill:none;stroke:#000000;stroke-linecap:square;stroke-linejoin:miter;stroke-width:0.8;"/>
   </g>
   <g id="text_17">
    <!-- Discovered nodes per time -->
    <defs>
     <path d="M 54.890625 33.015625 
L 54.890625 0 
L 45.90625 0 
L 45.90625 32.71875 
Q 45.90625 40.484375 42.875 44.328125 
Q 39.84375 48.1875 33.796875 48.1875 
Q 26.515625 48.1875 22.3125 43.546875 
Q 18.109375 38.921875 18.109375 30.90625 
L 18.109375 0 
L 9.078125 0 
L 9.078125 54.6875 
L 18.109375 54.6875 
L 18.109375 46.1875 
Q 21.34375 51.125 25.703125 53.5625 
Q 30.078125 56 35.796875 56 
Q 45.21875 56 50.046875 50.171875 
Q 54.890625 44.34375 54.890625 33.015625 
z
" id="DejaVuSans-6e"/>
     <path d="M 18.109375 8.203125 
L 18.109375 -20.796875 
L 9.078125 -20.796875 
L 9.078125 54.6875 
L 18.109375 54.6875 
L 18.109375 46.390625 
Q 20.953125 51.265625 25.265625 53.625 
Q 29.59375 56 35.59375 56 
Q 45.5625 56 51.78125 48.09375 
Q 58.015625 40.1875 58.015625 27.296875 
Q 58.015625 14.40625 51.78125 6.484375 
Q 45.5625 -1.421875 35.59375 -1.421875 
Q 29.59375 -1.421875 25.265625 0.953125 
Q 20.953125 3.328125 18.109375 8.203125 
z
M 48.6875 27.296875 
Q 48.6875 37.203125 44.609375 42.84375 
Q 40.53125 48.484375 33.40625 48.484375 
Q 26.265625 48.484375 22.1875 42.84375 
Q 18.109375 37.203125 18.109375 27.296875 
Q 18.109375 17.390625 22.1875 11.75 
Q 26.265625 6.109375 33.40625 6.109375 
Q 40.53125 6.109375 44.609375 11.75 
Q 48.6875 17.390625 48.6875 27.296875 
z
" id="DejaVuSans-70"/>
     <path d="M 18.3125 70.21875 
L 18.3125 54.6875 
L 36.8125 54.6875 
L 36.8125 47.703125 
L 18.3125 47.703125 
L 18.3125 18.015625 
Q 18.3125 11.328125 20.140625 9.421875 
Q 21.96875 7.515625 27.59375 7.515625 
L 36.8125 7.515625 
L 36.8125 0 
L 27.59375 0 
Q 17.1875 0 13.234375 3.875 
Q 9.28125 7.765625 9.28125 18.015625 
L 9.28125 47.703125 
L 2.6875 47.703125 
L 2.6875 54.6875 
L 9.28125 54.6875 
L 9.28125 70.21875 
z
" id="DejaVuSans-74"/>
    </defs>
    <g transform="translate(138.227813 16.318125)scale(0.12 -0.12)">
     <use xlink:href="#DejaVuSans-44"/>
     <use x="77.001953" xlink:href="#DejaVuSans-69"/>
     <use x="104.785156" xlink:href="#DejaVuSans-73"/>
     <use x="156.884766" xlink:href="#DejaVuSans-63"/>
     <use x="211.865234" xlink:href="#DejaVuSans-6f"/>
     <use x="273.046875" xlink:href="#DejaVuSans-76"/>
     <use x="332.226562" xlink:href="#DejaVuSans-65"/>
     <use x="393.75" xlink:href="#DejaVuSans-72"/>
     <use x="434.832031" xlink:href="#DejaVuSans-65"/>
     <use x="496.355469" xlink:href="#DejaVuSans-64"/>
     <use x="559.832031" xlink:href="#DejaVuSans-20"/>
     <use x="591.619141" xlink:href="#DejaVuSans-6e"/>
     <use x="654.998047" xlink:href="#DejaVuSans-6f"/>
     <use x="716.179688" xlink:href="#DejaVuSans-64"/>
     <use x="779.65625" xlink:href="#DejaVuSans-65"/>
     <use x="841.179688" xlink:href="#DejaVuSans-73"/>
     <use x="893.279297" xlink:href="#DejaVuSans-20"/>
     <use x="925.066406" xlink:href="#DejaVuSans-70"/>
     <use x="988.542969" xlink:href="#DejaVuSans-65"/>
     <use x="1050.066406" xlink:href="#DejaVuSans-72"/>
     <use x="1091.179688" xlink:href="#DejaVuSans-20"/>
     <use x="1122.966797" xlink:href="#DejaVuSans-74"/>
     <use x="1162.175781" xlink:href="#DejaVuSans-69"/>
     <use x="1189.958984" xlink:href="#DejaVuSans-6d"/>
     <use x="1287.371094" xlink:href="#DejaVuSans-65"/>
    </g>
    <!--  -->
    <g transform="translate(219.163125 29.7555)scale(0.12 -0.12)"/>
    <!--  -->
    <g transform="translate(219.163125 43.192875)scale(0.12 -0.12)"/>
   </g>
   <g id="legend_1">
    <g id="patch_7">
     <path d="M 411.865525 139.939385 
L 482.471775 139.939385 
Q 484.471775 139.939385 484.471775 137.939385 
L 484.471775 50.870635 
Q 484.471775 48.870635 482.471775 48.870635 
L 411.865525 48.870635 
Q 409.865525 48.870635 409.865525 50.870635 
L 409.865525 137.939385 
Q 409.865525 139.939385 411.865525 139.939385 
z
" style="fill:#ffffff;opacity:0.8;stroke:#cccccc;stroke-linejoin:miter;"/>
    </g>
    <g id="line2d_35">
     <path d="M 413.865525 56.969072 
L 433.865525 56.969072 
" style="fill:none;stroke:#008000;stroke-linecap:square;stroke-width:1.5;"/>
    </g>
    <g id="line2d_36"/>
    <g id="text_18">
     <!-- drone 0 -->
     <g transform="translate(441.865525 60.469072)scale(0.1 -0.1)">
      <use xlink:href="#DejaVuSans-64"/>
      <use x="63.476562" xlink:href="#DejaVuSans-72"/>
      <use x="104.558594" xlink:href="#DejaVuSans-6f"/>
      <use x="165.740234" xlink:href="#DejaVuSans-6e"/>
      <use x="229.119141" xlink:href="#DejaVuSans-65"/>
      <use x="290.642578" xlink:href="#DejaVuSans-20"/>
      <use x="322.429688" xlink:href="#DejaVuSans-30"/>
     </g>
    </g>
    <g id="line2d_37">
     <path d="M 413.865525 71.647197 
L 433.865525 71.647197 
" style="fill:none;stroke:#0000ff;stroke-linecap:square;stroke-width:1.5;"/>
    </g>
    <g id="line2d_38"/>
    <g id="text_19">
     <!-- drone 1 -->
     <g transform="translate(441.865525 75.147197)scale(0.1 -0.1)">
      <use xlink:href="#DejaVuSans-64"/>
      <use x="63.476562" xlink:href="#DejaVuSans-72"/>
      <use x="104.558594" xlink:href="#DejaVuSans-6f"/>
      <use x="165.740234" xlink:href="#DejaVuSans-6e"/>
      <use x="229.119141" xlink:href="#DejaVuSans-65"/>
      <use x="290.642578" xlink:href="#DejaVuSans-20"/>
      <use x="322.429688" xlink:href="#DejaVuSans-31"/>
     </g>
    </g>
    <g id="line2d_39">
     <path d="M 413.865525 86.325322 
L 433.865525 86.325322 
" style="fill:none;stroke:#ff0000;stroke-linecap:square;stroke-width:1.5;"/>
    </g>
    <g id="line2d_40"/>
    <g id="text_20">
     <!-- drone 2 -->
     <g transform="translate(441.865525 89.825322)scale(0.1 -0.1)">
      <use xlink:href="#DejaVuSans-64"/>
      <use x="63.476562" xlink:href="#DejaVuSans-72"/>
      <use x="104.558594" xlink:href="#DejaVuSans-6f"/>
      <use x="165.740234" xlink:href="#DejaVuSans-6e"/>
      <use x="229.119141" xlink:href="#DejaVuSans-65"/>
      <use x="290.642578" xlink:href="#DejaVuSans-20"/>
      <use x="322.429688" xlink:href="#DejaVuSans-32"/>
     </g>
    </g>
    <g id="line2d_41">
     <path d="M 413.865525 101.003447 
L 433.865525 101.003447 
" style="fill:none;stroke:#00ffff;stroke-linecap:square;stroke-width:1.5;"/>
    </g>
    <g id="line2d_42"/>
    <g id="text_21">
     <!-- drone 3 -->
     <g transform="translate(441.865525 104.503447)scale(0.1 -0.1)">
      <use xlink:href="#DejaVuSans-64"/>
      <use x="63.476562" xlink:href="#DejaVuSans-72"/>
      <use x="104.558594" xlink:href="#DejaVuSans-6f"/>
      <use x="165.740234" xlink:href="#DejaVuSans-6e"/>
      <use x="229.119141" xlink:href="#DejaVuSans-65"/>
      <use x="290.642578" xlink:href="#DejaVuSans-20"/>
      <use x="322.429688" xlink:href="#DejaVuSans-33"/>
     </g>
    </g>
    <g id="line2d_43">
     <path d="M 413.865525 115.681572 
L 433.865525 115.681572 
" style="fill:none;stroke:#ff00ff;stroke-linecap:square;stroke-width:1.5;"/>
    </g>
    <g id="line2d_44"/>
    <g id="text_22">
     <!-- drone 4 -->
     <g transform="translate(441.865525 119.181572)scale(0.1 -0.1)">
      <use xlink:href="#DejaVuSans-64"/>
      <use x="63.476562" xlink:href="#DejaVuSans-72"/>
      <use x="104.558594" xlink:href="#DejaVuSans-6f"/>
      <use x="165.740234" xlink:href="#DejaVuSans-6e"/>
      <use x="229.119141" xlink:href="#DejaVuSans-65"/>
      <use x="290.642578" xlink:href="#DejaVuSans-20"/>
      <use x="322.429688" xlink:href="#DejaVuSans-34"/>
     </g>
    </g>
    <g id="line2d_45">
     <path d="M 413.865525 130.359697 
L 433.865525 130.359697 
" style="fill:none;stroke:#000000;stroke-linecap:square;stroke-width:1.5;"/>
    </g>
    <g id="line2d_46"/>
    <g id="text_23">
     <!-- drone 5 -->
     <defs>
      <path d="M 10.796875 72.90625 
L 49.515625 72.90625 
L 49.515625 64.59375 
L 19.828125 64.59375 
L 19.828125 46.734375 
Q 21.96875 47.46875 24.109375 47.828125 
Q 26.265625 48.1875 28.421875 48.1875 
Q 40.625 48.1875 47.75 41.5 
Q 54.890625 34.8125 54.890625 23.390625 
Q 54.890625 11.625 47.5625 5.09375 
Q 40.234375 -1.421875 26.90625 -1.421875 
Q 22.3125 -1.421875 17.546875 -0.640625 
Q 12.796875 0.140625 7.71875 1.703125 
L 7.71875 11.625 
Q 12.109375 9.234375 16.796875 8.0625 
Q 21.484375 6.890625 26.703125 6.890625 
Q 35.15625 6.890625 40.078125 11.328125 
Q 45.015625 15.765625 45.015625 23.390625 
Q 45.015625 31 40.078125 35.4375 
Q 35.15625 39.890625 26.703125 39.890625 
Q 22.75 39.890625 18.8125 39.015625 
Q 14.890625 38.140625 10.796875 36.28125 
z
" id="DejaVuSans-35"/>
     </defs>
     <g transform="translate(441.865525 133.859697)scale(0.1 -0.1)">
      <use xlink:href="#DejaVuSans-64"/>
      <use x="63.476562" xlink:href="#DejaVuSans-72"/>
      <use x="104.558594" xlink:href="#DejaVuSans-6f"/>
      <use x="165.740234" xlink:href="#DejaVuSans-6e"/>
      <use x="229.119141" xlink:href="#DejaVuSans-65"/>
      <use x="290.642578" xlink:href="#DejaVuSans-20"/>
      <use x="322.429688" xlink:href="#DejaVuSans-35"/>
     </g>
    </g>
   </g>
  </g>
 </g>
 <defs>
  <clipPath id="p35277b94eb">
   <rect height="266.112" width="357.12" x="40.603125" y="49.192875"/>
  </clipPath>
 </defs>
</svg>
