<?xml version="1.0" encoding="utf-8" standalone="no"?>
<!DOCTYPE svg PUBLIC "-//W3C//DTD SVG 1.1//EN"
  "http://www.w3.org/Graphics/SVG/1.1/DTD/svg11.dtd">
<!-- Created with matplotlib (http://matplotlib.org/) -->
<svg height="352pt" version="1.1" viewBox="0 0 491 352" width="491pt" xmlns="http://www.w3.org/2000/svg" xmlns:xlink="http://www.w3.org/1999/xlink">
 <defs>
  <style type="text/css">
*{stroke-linecap:butt;stroke-linejoin:round;}
  </style>
 </defs>
 <g id="figure_1">
  <g id="patch_1">
   <path d="M 0 352.861125 
L 491.671775 352.861125 
L 491.671775 0 
L 0 0 
z
" style="fill:#ffffff;"/>
  </g>
  <g id="axes_1">
   <g id="patch_2">
    <path d="M 40.603125 315.304875 
L 397.723125 315.304875 
L 397.723125 49.192875 
L 40.603125 49.192875 
z
" style="fill:#ffffff;"/>
   </g>
   <g id="matplotlib.axis_1">
    <g id="xtick_1">
     <g id="line2d_1">
      <path clip-path="url(#p6c299e2481)" d="M 40.603125 315.304875 
L 40.603125 49.192875 
" style="fill:none;stroke:#b0b0b0;stroke-linecap:square;stroke-width:0.8;"/>
     </g>
     <g id="line2d_2">
      <defs>
       <path d="M 0 0 
L 0 3.5 
" id="mb9188068cc" style="stroke:#000000;stroke-width:0.8;"/>
      </defs>
      <g>
       <use style="stroke:#000000;stroke-width:0.8;" x="40.603125" xlink:href="#mb9188068cc" y="315.304875"/>
      </g>
     </g>
     <g id="text_1">
      <!-- 0 -->
      <defs>
       <path d="M 31.78125 66.40625 
Q 24.171875 66.40625 20.328125 58.90625 
Q 16.5 51.421875 16.5 36.375 
Q 16.5 21.390625 20.328125 13.890625 
Q 24.171875 6.390625 31.78125 6.390625 
Q 39.453125 6.390625 43.28125 13.890625 
Q 47.125 21.390625 47.125 36.375 
Q 47.125 51.421875 43.28125 58.90625 
Q 39.453125 66.40625 31.78125 66.40625 
z
M 31.78125 74.21875 
Q 44.046875 74.21875 50.515625 64.515625 
Q 56.984375 54.828125 56.984375 36.375 
Q 56.984375 17.96875 50.515625 8.265625 
Q 44.046875 -1.421875 31.78125 -1.421875 
Q 19.53125 -1.421875 13.0625 8.265625 
Q 6.59375 17.96875 6.59375 36.375 
Q 6.59375 54.828125 13.0625 64.515625 
Q 19.53125 74.21875 31.78125 74.21875 
z
" id="DejaVuSans-30"/>
      </defs>
      <g transform="translate(37.421875 329.903312)scale(0.1 -0.1)">
       <use xlink:href="#DejaVuSans-30"/>
      </g>
     </g>
    </g>
    <g id="xtick_2">
     <g id="line2d_3">
      <path clip-path="url(#p6c299e2481)" d="M 84.341031 315.304875 
L 84.341031 49.192875 
" style="fill:none;stroke:#b0b0b0;stroke-linecap:square;stroke-width:0.8;"/>
     </g>
     <g id="line2d_4">
      <g>
       <use style="stroke:#000000;stroke-width:0.8;" x="84.341031" xlink:href="#mb9188068cc" y="315.304875"/>
      </g>
     </g>
     <g id="text_2">
      <!-- 200 -->
      <defs>
       <path d="M 19.1875 8.296875 
L 53.609375 8.296875 
L 53.609375 0 
L 7.328125 0 
L 7.328125 8.296875 
Q 12.9375 14.109375 22.625 23.890625 
Q 32.328125 33.6875 34.8125 36.53125 
Q 39.546875 41.84375 41.421875 45.53125 
Q 43.3125 49.21875 43.3125 52.78125 
Q 43.3125 58.59375 39.234375 62.25 
Q 35.15625 65.921875 28.609375 65.921875 
Q 23.96875 65.921875 18.8125 64.3125 
Q 13.671875 62.703125 7.8125 59.421875 
L 7.8125 69.390625 
Q 13.765625 71.78125 18.9375 73 
Q 24.125 74.21875 28.421875 74.21875 
Q 39.75 74.21875 46.484375 68.546875 
Q 53.21875 62.890625 53.21875 53.421875 
Q 53.21875 48.921875 51.53125 44.890625 
Q 49.859375 40.875 45.40625 35.40625 
Q 44.1875 33.984375 37.640625 27.21875 
Q 31.109375 20.453125 19.1875 8.296875 
z
" id="DejaVuSans-32"/>
      </defs>
      <g transform="translate(74.797281 329.903312)scale(0.1 -0.1)">
       <use xlink:href="#DejaVuSans-32"/>
       <use x="63.623047" xlink:href="#DejaVuSans-30"/>
       <use x="127.246094" xlink:href="#DejaVuSans-30"/>
      </g>
     </g>
    </g>
    <g id="xtick_3">
     <g id="line2d_5">
      <path clip-path="url(#p6c299e2481)" d="M 128.078936 315.304875 
L 128.078936 49.192875 
" style="fill:none;stroke:#b0b0b0;stroke-linecap:square;stroke-width:0.8;"/>
     </g>
     <g id="line2d_6">
      <g>
       <use style="stroke:#000000;stroke-width:0.8;" x="128.078936" xlink:href="#mb9188068cc" y="315.304875"/>
      </g>
     </g>
     <g id="text_3">
      <!-- 400 -->
      <defs>
       <path d="M 37.796875 64.3125 
L 12.890625 25.390625 
L 37.796875 25.390625 
z
M 35.203125 72.90625 
L 47.609375 72.90625 
L 47.609375 25.390625 
L 58.015625 25.390625 
L 58.015625 17.1875 
L 47.609375 17.1875 
L 47.609375 0 
L 37.796875 0 
L 37.796875 17.1875 
L 4.890625 17.1875 
L 4.890625 26.703125 
z
" id="DejaVuSans-34"/>
      </defs>
      <g transform="translate(118.535186 329.903312)scale(0.1 -0.1)">
       <use xlink:href="#DejaVuSans-34"/>
       <use x="63.623047" xlink:href="#DejaVuSans-30"/>
       <use x="127.246094" xlink:href="#DejaVuSans-30"/>
      </g>
     </g>
    </g>
    <g id="xtick_4">
     <g id="line2d_7">
      <path clip-path="url(#p6c299e2481)" d="M 171.816842 315.304875 
L 171.816842 49.192875 
" style="fill:none;stroke:#b0b0b0;stroke-linecap:square;stroke-width:0.8;"/>
     </g>
     <g id="line2d_8">
      <g>
       <use style="stroke:#000000;stroke-width:0.8;" x="171.816842" xlink:href="#mb9188068cc" y="315.304875"/>
      </g>
     </g>
     <g id="text_4">
      <!-- 600 -->
      <defs>
       <path d="M 33.015625 40.375 
Q 26.375 40.375 22.484375 35.828125 
Q 18.609375 31.296875 18.609375 23.390625 
Q 18.609375 15.53125 22.484375 10.953125 
Q 26.375 6.390625 33.015625 6.390625 
Q 39.65625 6.390625 43.53125 10.953125 
Q 47.40625 15.53125 47.40625 23.390625 
Q 47.40625 31.296875 43.53125 35.828125 
Q 39.65625 40.375 33.015625 40.375 
z
M 52.59375 71.296875 
L 52.59375 62.3125 
Q 48.875 64.0625 45.09375 64.984375 
Q 41.3125 65.921875 37.59375 65.921875 
Q 27.828125 65.921875 22.671875 59.328125 
Q 17.53125 52.734375 16.796875 39.40625 
Q 19.671875 43.65625 24.015625 45.921875 
Q 28.375 48.1875 33.59375 48.1875 
Q 44.578125 48.1875 50.953125 41.515625 
Q 57.328125 34.859375 57.328125 23.390625 
Q 57.328125 12.15625 50.6875 5.359375 
Q 44.046875 -1.421875 33.015625 -1.421875 
Q 20.359375 -1.421875 13.671875 8.265625 
Q 6.984375 17.96875 6.984375 36.375 
Q 6.984375 53.65625 15.1875 63.9375 
Q 23.390625 74.21875 37.203125 74.21875 
Q 40.921875 74.21875 44.703125 73.484375 
Q 48.484375 72.75 52.59375 71.296875 
z
" id="DejaVuSans-36"/>
      </defs>
      <g transform="translate(162.273092 329.903312)scale(0.1 -0.1)">
       <use xlink:href="#DejaVuSans-36"/>
       <use x="63.623047" xlink:href="#DejaVuSans-30"/>
       <use x="127.246094" xlink:href="#DejaVuSans-30"/>
      </g>
     </g>
    </g>
    <g id="xtick_5">
     <g id="line2d_9">
      <path clip-path="url(#p6c299e2481)" d="M 215.554748 315.304875 
L 215.554748 49.192875 
" style="fill:none;stroke:#b0b0b0;stroke-linecap:square;stroke-width:0.8;"/>
     </g>
     <g id="line2d_10">
      <g>
       <use style="stroke:#000000;stroke-width:0.8;" x="215.554748" xlink:href="#mb9188068cc" y="315.304875"/>
      </g>
     </g>
     <g id="text_5">
      <!-- 800 -->
      <defs>
       <path d="M 31.78125 34.625 
Q 24.75 34.625 20.71875 30.859375 
Q 16.703125 27.09375 16.703125 20.515625 
Q 16.703125 13.921875 20.71875 10.15625 
Q 24.75 6.390625 31.78125 6.390625 
Q 38.8125 6.390625 42.859375 10.171875 
Q 46.921875 13.96875 46.921875 20.515625 
Q 46.921875 27.09375 42.890625 30.859375 
Q 38.875 34.625 31.78125 34.625 
z
M 21.921875 38.8125 
Q 15.578125 40.375 12.03125 44.71875 
Q 8.5 49.078125 8.5 55.328125 
Q 8.5 64.0625 14.71875 69.140625 
Q 20.953125 74.21875 31.78125 74.21875 
Q 42.671875 74.21875 48.875 69.140625 
Q 55.078125 64.0625 55.078125 55.328125 
Q 55.078125 49.078125 51.53125 44.71875 
Q 48 40.375 41.703125 38.8125 
Q 48.828125 37.15625 52.796875 32.3125 
Q 56.78125 27.484375 56.78125 20.515625 
Q 56.78125 9.90625 50.3125 4.234375 
Q 43.84375 -1.421875 31.78125 -1.421875 
Q 19.734375 -1.421875 13.25 4.234375 
Q 6.78125 9.90625 6.78125 20.515625 
Q 6.78125 27.484375 10.78125 32.3125 
Q 14.796875 37.15625 21.921875 38.8125 
z
M 18.3125 54.390625 
Q 18.3125 48.734375 21.84375 45.5625 
Q 25.390625 42.390625 31.78125 42.390625 
Q 38.140625 42.390625 41.71875 45.5625 
Q 45.3125 48.734375 45.3125 54.390625 
Q 45.3125 60.0625 41.71875 63.234375 
Q 38.140625 66.40625 31.78125 66.40625 
Q 25.390625 66.40625 21.84375 63.234375 
Q 18.3125 60.0625 18.3125 54.390625 
z
" id="DejaVuSans-38"/>
      </defs>
      <g transform="translate(206.010998 329.903312)scale(0.1 -0.1)">
       <use xlink:href="#DejaVuSans-38"/>
       <use x="63.623047" xlink:href="#DejaVuSans-30"/>
       <use x="127.246094" xlink:href="#DejaVuSans-30"/>
      </g>
     </g>
    </g>
    <g id="xtick_6">
     <g id="line2d_11">
      <path clip-path="url(#p6c299e2481)" d="M 259.292653 315.304875 
L 259.292653 49.192875 
" style="fill:none;stroke:#b0b0b0;stroke-linecap:square;stroke-width:0.8;"/>
     </g>
     <g id="line2d_12">
      <g>
       <use style="stroke:#000000;stroke-width:0.8;" x="259.292653" xlink:href="#mb9188068cc" y="315.304875"/>
      </g>
     </g>
     <g id="text_6">
      <!-- 1000 -->
      <defs>
       <path d="M 12.40625 8.296875 
L 28.515625 8.296875 
L 28.515625 63.921875 
L 10.984375 60.40625 
L 10.984375 69.390625 
L 28.421875 72.90625 
L 38.28125 72.90625 
L 38.28125 8.296875 
L 54.390625 8.296875 
L 54.390625 0 
L 12.40625 0 
z
" id="DejaVuSans-31"/>
      </defs>
      <g transform="translate(246.567653 329.903312)scale(0.1 -0.1)">
       <use xlink:href="#DejaVuSans-31"/>
       <use x="63.623047" xlink:href="#DejaVuSans-30"/>
       <use x="127.246094" xlink:href="#DejaVuSans-30"/>
       <use x="190.869141" xlink:href="#DejaVuSans-30"/>
      </g>
     </g>
    </g>
    <g id="xtick_7">
     <g id="line2d_13">
      <path clip-path="url(#p6c299e2481)" d="M 303.030559 315.304875 
L 303.030559 49.192875 
" style="fill:none;stroke:#b0b0b0;stroke-linecap:square;stroke-width:0.8;"/>
     </g>
     <g id="line2d_14">
      <g>
       <use style="stroke:#000000;stroke-width:0.8;" x="303.030559" xlink:href="#mb9188068cc" y="315.304875"/>
      </g>
     </g>
     <g id="text_7">
      <!-- 1200 -->
      <g transform="translate(290.305559 329.903312)scale(0.1 -0.1)">
       <use xlink:href="#DejaVuSans-31"/>
       <use x="63.623047" xlink:href="#DejaVuSans-32"/>
       <use x="127.246094" xlink:href="#DejaVuSans-30"/>
       <use x="190.869141" xlink:href="#DejaVuSans-30"/>
      </g>
     </g>
    </g>
    <g id="xtick_8">
     <g id="line2d_15">
      <path clip-path="url(#p6c299e2481)" d="M 346.768465 315.304875 
L 346.768465 49.192875 
" style="fill:none;stroke:#b0b0b0;stroke-linecap:square;stroke-width:0.8;"/>
     </g>
     <g id="line2d_16">
      <g>
       <use style="stroke:#000000;stroke-width:0.8;" x="346.768465" xlink:href="#mb9188068cc" y="315.304875"/>
      </g>
     </g>
     <g id="text_8">
      <!-- 1400 -->
      <g transform="translate(334.043465 329.903312)scale(0.1 -0.1)">
       <use xlink:href="#DejaVuSans-31"/>
       <use x="63.623047" xlink:href="#DejaVuSans-34"/>
       <use x="127.246094" xlink:href="#DejaVuSans-30"/>
       <use x="190.869141" xlink:href="#DejaVuSans-30"/>
      </g>
     </g>
    </g>
    <g id="xtick_9">
     <g id="line2d_17">
      <path clip-path="url(#p6c299e2481)" d="M 390.506371 315.304875 
L 390.506371 49.192875 
" style="fill:none;stroke:#b0b0b0;stroke-linecap:square;stroke-width:0.8;"/>
     </g>
     <g id="line2d_18">
      <g>
       <use style="stroke:#000000;stroke-width:0.8;" x="390.506371" xlink:href="#mb9188068cc" y="315.304875"/>
      </g>
     </g>
     <g id="text_9">
      <!-- 1600 -->
      <g transform="translate(377.781371 329.903312)scale(0.1 -0.1)">
       <use xlink:href="#DejaVuSans-31"/>
       <use x="63.623047" xlink:href="#DejaVuSans-36"/>
       <use x="127.246094" xlink:href="#DejaVuSans-30"/>
       <use x="190.869141" xlink:href="#DejaVuSans-30"/>
      </g>
     </g>
    </g>
    <g id="text_10">
     <!-- Time(s) -->
     <defs>
      <path d="M -0.296875 72.90625 
L 61.375 72.90625 
L 61.375 64.59375 
L 35.5 64.59375 
L 35.5 0 
L 25.59375 0 
L 25.59375 64.59375 
L -0.296875 64.59375 
z
" id="DejaVuSans-54"/>
      <path d="M 9.421875 54.6875 
L 18.40625 54.6875 
L 18.40625 0 
L 9.421875 0 
z
M 9.421875 75.984375 
L 18.40625 75.984375 
L 18.40625 64.59375 
L 9.421875 64.59375 
z
" id="DejaVuSans-69"/>
      <path d="M 52 44.1875 
Q 55.375 50.25 60.0625 53.125 
Q 64.75 56 71.09375 56 
Q 79.640625 56 84.28125 50.015625 
Q 88.921875 44.046875 88.921875 33.015625 
L 88.921875 0 
L 79.890625 0 
L 79.890625 32.71875 
Q 79.890625 40.578125 77.09375 44.375 
Q 74.3125 48.1875 68.609375 48.1875 
Q 61.625 48.1875 57.5625 43.546875 
Q 53.515625 38.921875 53.515625 30.90625 
L 53.515625 0 
L 44.484375 0 
L 44.484375 32.71875 
Q 44.484375 40.625 41.703125 44.40625 
Q 38.921875 48.1875 33.109375 48.1875 
Q 26.21875 48.1875 22.15625 43.53125 
Q 18.109375 38.875 18.109375 30.90625 
L 18.109375 0 
L 9.078125 0 
L 9.078125 54.6875 
L 18.109375 54.6875 
L 18.109375 46.1875 
Q 21.1875 51.21875 25.484375 53.609375 
Q 29.78125 56 35.6875 56 
Q 41.65625 56 45.828125 52.96875 
Q 50 49.953125 52 44.1875 
z
" id="DejaVuSans-6d"/>
      <path d="M 56.203125 29.59375 
L 56.203125 25.203125 
L 14.890625 25.203125 
Q 15.484375 15.921875 20.484375 11.0625 
Q 25.484375 6.203125 34.421875 6.203125 
Q 39.59375 6.203125 44.453125 7.46875 
Q 49.3125 8.734375 54.109375 11.28125 
L 54.109375 2.78125 
Q 49.265625 0.734375 44.1875 -0.34375 
Q 39.109375 -1.421875 33.890625 -1.421875 
Q 20.796875 -1.421875 13.15625 6.1875 
Q 5.515625 13.8125 5.515625 26.8125 
Q 5.515625 40.234375 12.765625 48.109375 
Q 20.015625 56 32.328125 56 
Q 43.359375 56 49.78125 48.890625 
Q 56.203125 41.796875 56.203125 29.59375 
z
M 47.21875 32.234375 
Q 47.125 39.59375 43.09375 43.984375 
Q 39.0625 48.390625 32.421875 48.390625 
Q 24.90625 48.390625 20.390625 44.140625 
Q 15.875 39.890625 15.1875 32.171875 
z
" id="DejaVuSans-65"/>
      <path d="M 31 75.875 
Q 24.46875 64.65625 21.28125 53.65625 
Q 18.109375 42.671875 18.109375 31.390625 
Q 18.109375 20.125 21.3125 9.0625 
Q 24.515625 -2 31 -13.1875 
L 23.1875 -13.1875 
Q 15.875 -1.703125 12.234375 9.375 
Q 8.59375 20.453125 8.59375 31.390625 
Q 8.59375 42.28125 12.203125 53.3125 
Q 15.828125 64.359375 23.1875 75.875 
z
" id="DejaVuSans-28"/>
      <path d="M 44.28125 53.078125 
L 44.28125 44.578125 
Q 40.484375 46.53125 36.375 47.5 
Q 32.28125 48.484375 27.875 48.484375 
Q 21.1875 48.484375 17.84375 46.4375 
Q 14.5 44.390625 14.5 40.28125 
Q 14.5 37.15625 16.890625 35.375 
Q 19.28125 33.59375 26.515625 31.984375 
L 29.59375 31.296875 
Q 39.15625 29.25 43.1875 25.515625 
Q 47.21875 21.78125 47.21875 15.09375 
Q 47.21875 7.46875 41.1875 3.015625 
Q 35.15625 -1.421875 24.609375 -1.421875 
Q 20.21875 -1.421875 15.453125 -0.5625 
Q 10.6875 0.296875 5.421875 2 
L 5.421875 11.28125 
Q 10.40625 8.6875 15.234375 7.390625 
Q 20.0625 6.109375 24.8125 6.109375 
Q 31.15625 6.109375 34.5625 8.28125 
Q 37.984375 10.453125 37.984375 14.40625 
Q 37.984375 18.0625 35.515625 20.015625 
Q 33.0625 21.96875 24.703125 23.78125 
L 21.578125 24.515625 
Q 13.234375 26.265625 9.515625 29.90625 
Q 5.8125 33.546875 5.8125 39.890625 
Q 5.8125 47.609375 11.28125 51.796875 
Q 16.75 56 26.8125 56 
Q 31.78125 56 36.171875 55.265625 
Q 40.578125 54.546875 44.28125 53.078125 
z
" id="DejaVuSans-73"/>
      <path d="M 8.015625 75.875 
L 15.828125 75.875 
Q 23.140625 64.359375 26.78125 53.3125 
Q 30.421875 42.28125 30.421875 31.390625 
Q 30.421875 20.453125 26.78125 9.375 
Q 23.140625 -1.703125 15.828125 -13.1875 
L 8.015625 -13.1875 
Q 14.5 -2 17.703125 9.0625 
Q 20.90625 20.125 20.90625 31.390625 
Q 20.90625 42.671875 17.703125 53.65625 
Q 14.5 64.65625 8.015625 75.875 
z
" id="DejaVuSans-29"/>
     </defs>
     <g transform="translate(200.269375 343.581437)scale(0.1 -0.1)">
      <use xlink:href="#DejaVuSans-54"/>
      <use x="61.037109" xlink:href="#DejaVuSans-69"/>
      <use x="88.820312" xlink:href="#DejaVuSans-6d"/>
      <use x="186.232422" xlink:href="#DejaVuSans-65"/>
      <use x="247.755859" xlink:href="#DejaVuSans-28"/>
      <use x="286.769531" xlink:href="#DejaVuSans-73"/>
      <use x="338.869141" xlink:href="#DejaVuSans-29"/>
     </g>
    </g>
   </g>
   <g id="matplotlib.axis_2">
    <g id="ytick_1">
     <g id="line2d_19">
      <path clip-path="url(#p6c299e2481)" d="M 40.603125 303.208875 
L 397.723125 303.208875 
" style="fill:none;stroke:#b0b0b0;stroke-linecap:square;stroke-width:0.8;"/>
     </g>
     <g id="line2d_20">
      <defs>
       <path d="M 0 0 
L -3.5 0 
" id="m0e36cd87ff" style="stroke:#000000;stroke-width:0.8;"/>
      </defs>
      <g>
       <use style="stroke:#000000;stroke-width:0.8;" x="40.603125" xlink:href="#m0e36cd87ff" y="303.208875"/>
      </g>
     </g>
     <g id="text_11">
      <!-- 0 -->
      <g transform="translate(27.240625 307.008094)scale(0.1 -0.1)">
       <use xlink:href="#DejaVuSans-30"/>
      </g>
     </g>
    </g>
    <g id="ytick_2">
     <g id="line2d_21">
      <path clip-path="url(#p6c299e2481)" d="M 40.603125 255.773581 
L 397.723125 255.773581 
" style="fill:none;stroke:#b0b0b0;stroke-linecap:square;stroke-width:0.8;"/>
     </g>
     <g id="line2d_22">
      <g>
       <use style="stroke:#000000;stroke-width:0.8;" x="40.603125" xlink:href="#m0e36cd87ff" y="255.773581"/>
      </g>
     </g>
     <g id="text_12">
      <!-- 10 -->
      <g transform="translate(20.878125 259.5728)scale(0.1 -0.1)">
       <use xlink:href="#DejaVuSans-31"/>
       <use x="63.623047" xlink:href="#DejaVuSans-30"/>
      </g>
     </g>
    </g>
    <g id="ytick_3">
     <g id="line2d_23">
      <path clip-path="url(#p6c299e2481)" d="M 40.603125 208.338287 
L 397.723125 208.338287 
" style="fill:none;stroke:#b0b0b0;stroke-linecap:square;stroke-width:0.8;"/>
     </g>
     <g id="line2d_24">
      <g>
       <use style="stroke:#000000;stroke-width:0.8;" x="40.603125" xlink:href="#m0e36cd87ff" y="208.338287"/>
      </g>
     </g>
     <g id="text_13">
      <!-- 20 -->
      <g transform="translate(20.878125 212.137506)scale(0.1 -0.1)">
       <use xlink:href="#DejaVuSans-32"/>
       <use x="63.623047" xlink:href="#DejaVuSans-30"/>
      </g>
     </g>
    </g>
    <g id="ytick_4">
     <g id="line2d_25">
      <path clip-path="url(#p6c299e2481)" d="M 40.603125 160.902993 
L 397.723125 160.902993 
" style="fill:none;stroke:#b0b0b0;stroke-linecap:square;stroke-width:0.8;"/>
     </g>
     <g id="line2d_26">
      <g>
       <use style="stroke:#000000;stroke-width:0.8;" x="40.603125" xlink:href="#m0e36cd87ff" y="160.902993"/>
      </g>
     </g>
     <g id="text_14">
      <!-- 30 -->
      <defs>
       <path d="M 40.578125 39.3125 
Q 47.65625 37.796875 51.625 33 
Q 55.609375 28.21875 55.609375 21.1875 
Q 55.609375 10.40625 48.1875 4.484375 
Q 40.765625 -1.421875 27.09375 -1.421875 
Q 22.515625 -1.421875 17.65625 -0.515625 
Q 12.796875 0.390625 7.625 2.203125 
L 7.625 11.71875 
Q 11.71875 9.328125 16.59375 8.109375 
Q 21.484375 6.890625 26.8125 6.890625 
Q 36.078125 6.890625 40.9375 10.546875 
Q 45.796875 14.203125 45.796875 21.1875 
Q 45.796875 27.640625 41.28125 31.265625 
Q 36.765625 34.90625 28.71875 34.90625 
L 20.21875 34.90625 
L 20.21875 43.015625 
L 29.109375 43.015625 
Q 36.375 43.015625 40.234375 45.921875 
Q 44.09375 48.828125 44.09375 54.296875 
Q 44.09375 59.90625 40.109375 62.90625 
Q 36.140625 65.921875 28.71875 65.921875 
Q 24.65625 65.921875 20.015625 65.03125 
Q 15.375 64.15625 9.8125 62.3125 
L 9.8125 71.09375 
Q 15.4375 72.65625 20.34375 73.4375 
Q 25.25 74.21875 29.59375 74.21875 
Q 40.828125 74.21875 47.359375 69.109375 
Q 53.90625 64.015625 53.90625 55.328125 
Q 53.90625 49.265625 50.4375 45.09375 
Q 46.96875 40.921875 40.578125 39.3125 
z
" id="DejaVuSans-33"/>
      </defs>
      <g transform="translate(20.878125 164.702211)scale(0.1 -0.1)">
       <use xlink:href="#DejaVuSans-33"/>
       <use x="63.623047" xlink:href="#DejaVuSans-30"/>
      </g>
     </g>
    </g>
    <g id="ytick_5">
     <g id="line2d_27">
      <path clip-path="url(#p6c299e2481)" d="M 40.603125 113.467699 
L 397.723125 113.467699 
" style="fill:none;stroke:#b0b0b0;stroke-linecap:square;stroke-width:0.8;"/>
     </g>
     <g id="line2d_28">
      <g>
       <use style="stroke:#000000;stroke-width:0.8;" x="40.603125" xlink:href="#m0e36cd87ff" y="113.467699"/>
      </g>
     </g>
     <g id="text_15">
      <!-- 40 -->
      <g transform="translate(20.878125 117.266917)scale(0.1 -0.1)">
       <use xlink:href="#DejaVuSans-34"/>
       <use x="63.623047" xlink:href="#DejaVuSans-30"/>
      </g>
     </g>
    </g>
    <g id="ytick_6">
     <g id="line2d_29">
      <path clip-path="url(#p6c299e2481)" d="M 40.603125 66.032404 
L 397.723125 66.032404 
" style="fill:none;stroke:#b0b0b0;stroke-linecap:square;stroke-width:0.8;"/>
     </g>
     <g id="line2d_30">
      <g>
       <use style="stroke:#000000;stroke-width:0.8;" x="40.603125" xlink:href="#m0e36cd87ff" y="66.032404"/>
      </g>
     </g>
     <g id="text_16">
      <!-- 50 -->
      <defs>
       <path d="M 10.796875 72.90625 
L 49.515625 72.90625 
L 49.515625 64.59375 
L 19.828125 64.59375 
L 19.828125 46.734375 
Q 21.96875 47.46875 24.109375 47.828125 
Q 26.265625 48.1875 28.421875 48.1875 
Q 40.625 48.1875 47.75 41.5 
Q 54.890625 34.8125 54.890625 23.390625 
Q 54.890625 11.625 47.5625 5.09375 
Q 40.234375 -1.421875 26.90625 -1.421875 
Q 22.3125 -1.421875 17.546875 -0.640625 
Q 12.796875 0.140625 7.71875 1.703125 
L 7.71875 11.625 
Q 12.109375 9.234375 16.796875 8.0625 
Q 21.484375 6.890625 26.703125 6.890625 
Q 35.15625 6.890625 40.078125 11.328125 
Q 45.015625 15.765625 45.015625 23.390625 
Q 45.015625 31 40.078125 35.4375 
Q 35.15625 39.890625 26.703125 39.890625 
Q 22.75 39.890625 18.8125 39.015625 
Q 14.890625 38.140625 10.796875 36.28125 
z
" id="DejaVuSans-35"/>
      </defs>
      <g transform="translate(20.878125 69.831623)scale(0.1 -0.1)">
       <use xlink:href="#DejaVuSans-35"/>
       <use x="63.623047" xlink:href="#DejaVuSans-30"/>
      </g>
     </g>
    </g>
    <g id="text_17">
     <!-- Discovered Nodes -->
     <defs>
      <path d="M 19.671875 64.796875 
L 19.671875 8.109375 
L 31.59375 8.109375 
Q 46.6875 8.109375 53.6875 14.9375 
Q 60.6875 21.78125 60.6875 36.53125 
Q 60.6875 51.171875 53.6875 57.984375 
Q 46.6875 64.796875 31.59375 64.796875 
z
M 9.8125 72.90625 
L 30.078125 72.90625 
Q 51.265625 72.90625 61.171875 64.09375 
Q 71.09375 55.28125 71.09375 36.53125 
Q 71.09375 17.671875 61.125 8.828125 
Q 51.171875 0 30.078125 0 
L 9.8125 0 
z
" id="DejaVuSans-44"/>
      <path d="M 48.78125 52.59375 
L 48.78125 44.1875 
Q 44.96875 46.296875 41.140625 47.34375 
Q 37.3125 48.390625 33.40625 48.390625 
Q 24.65625 48.390625 19.8125 42.84375 
Q 14.984375 37.3125 14.984375 27.296875 
Q 14.984375 17.28125 19.8125 11.734375 
Q 24.65625 6.203125 33.40625 6.203125 
Q 37.3125 6.203125 41.140625 7.25 
Q 44.96875 8.296875 48.78125 10.40625 
L 48.78125 2.09375 
Q 45.015625 0.34375 40.984375 -0.53125 
Q 36.96875 -1.421875 32.421875 -1.421875 
Q 20.0625 -1.421875 12.78125 6.34375 
Q 5.515625 14.109375 5.515625 27.296875 
Q 5.515625 40.671875 12.859375 48.328125 
Q 20.21875 56 33.015625 56 
Q 37.15625 56 41.109375 55.140625 
Q 45.0625 54.296875 48.78125 52.59375 
z
" id="DejaVuSans-63"/>
      <path d="M 30.609375 48.390625 
Q 23.390625 48.390625 19.1875 42.75 
Q 14.984375 37.109375 14.984375 27.296875 
Q 14.984375 17.484375 19.15625 11.84375 
Q 23.34375 6.203125 30.609375 6.203125 
Q 37.796875 6.203125 41.984375 11.859375 
Q 46.1875 17.53125 46.1875 27.296875 
Q 46.1875 37.015625 41.984375 42.703125 
Q 37.796875 48.390625 30.609375 48.390625 
z
M 30.609375 56 
Q 42.328125 56 49.015625 48.375 
Q 55.71875 40.765625 55.71875 27.296875 
Q 55.71875 13.875 49.015625 6.21875 
Q 42.328125 -1.421875 30.609375 -1.421875 
Q 18.84375 -1.421875 12.171875 6.21875 
Q 5.515625 13.875 5.515625 27.296875 
Q 5.515625 40.765625 12.171875 48.375 
Q 18.84375 56 30.609375 56 
z
" id="DejaVuSans-6f"/>
      <path d="M 2.984375 54.6875 
L 12.5 54.6875 
L 29.59375 8.796875 
L 46.6875 54.6875 
L 56.203125 54.6875 
L 35.6875 0 
L 23.484375 0 
z
" id="DejaVuSans-76"/>
      <path d="M 41.109375 46.296875 
Q 39.59375 47.171875 37.8125 47.578125 
Q 36.03125 48 33.890625 48 
Q 26.265625 48 22.1875 43.046875 
Q 18.109375 38.09375 18.109375 28.8125 
L 18.109375 0 
L 9.078125 0 
L 9.078125 54.6875 
L 18.109375 54.6875 
L 18.109375 46.1875 
Q 20.953125 51.171875 25.484375 53.578125 
Q 30.03125 56 36.53125 56 
Q 37.453125 56 38.578125 55.875 
Q 39.703125 55.765625 41.0625 55.515625 
z
" id="DejaVuSans-72"/>
      <path d="M 45.40625 46.390625 
L 45.40625 75.984375 
L 54.390625 75.984375 
L 54.390625 0 
L 45.40625 0 
L 45.40625 8.203125 
Q 42.578125 3.328125 38.25 0.953125 
Q 33.9375 -1.421875 27.875 -1.421875 
Q 17.96875 -1.421875 11.734375 6.484375 
Q 5.515625 14.40625 5.515625 27.296875 
Q 5.515625 40.1875 11.734375 48.09375 
Q 17.96875 56 27.875 56 
Q 33.9375 56 38.25 53.625 
Q 42.578125 51.265625 45.40625 46.390625 
z
M 14.796875 27.296875 
Q 14.796875 17.390625 18.875 11.75 
Q 22.953125 6.109375 30.078125 6.109375 
Q 37.203125 6.109375 41.296875 11.75 
Q 45.40625 17.390625 45.40625 27.296875 
Q 45.40625 37.203125 41.296875 42.84375 
Q 37.203125 48.484375 30.078125 48.484375 
Q 22.953125 48.484375 18.875 42.84375 
Q 14.796875 37.203125 14.796875 27.296875 
z
" id="DejaVuSans-64"/>
      <path id="DejaVuSans-20"/>
      <path d="M 9.8125 72.90625 
L 23.09375 72.90625 
L 55.421875 11.921875 
L 55.421875 72.90625 
L 64.984375 72.90625 
L 64.984375 0 
L 51.703125 0 
L 19.390625 60.984375 
L 19.390625 0 
L 9.8125 0 
z
" id="DejaVuSans-4e"/>
     </defs>
     <g transform="translate(14.798438 227.486375)rotate(-90)scale(0.1 -0.1)">
      <use xlink:href="#DejaVuSans-44"/>
      <use x="77.001953" xlink:href="#DejaVuSans-69"/>
      <use x="104.785156" xlink:href="#DejaVuSans-73"/>
      <use x="156.884766" xlink:href="#DejaVuSans-63"/>
      <use x="211.865234" xlink:href="#DejaVuSans-6f"/>
      <use x="273.046875" xlink:href="#DejaVuSans-76"/>
      <use x="332.226562" xlink:href="#DejaVuSans-65"/>
      <use x="393.75" xlink:href="#DejaVuSans-72"/>
      <use x="434.832031" xlink:href="#DejaVuSans-65"/>
      <use x="496.355469" xlink:href="#DejaVuSans-64"/>
      <use x="559.832031" xlink:href="#DejaVuSans-20"/>
      <use x="591.619141" xlink:href="#DejaVuSans-4e"/>
      <use x="666.423828" xlink:href="#DejaVuSans-6f"/>
      <use x="727.605469" xlink:href="#DejaVuSans-64"/>
      <use x="791.082031" xlink:href="#DejaVuSans-65"/>
      <use x="852.605469" xlink:href="#DejaVuSans-73"/>
     </g>
    </g>
   </g>
   <g id="line2d_31">
    <path clip-path="url(#p6c299e2481)" d="M 40.603125 303.208875 
L 42.133952 303.208875 
L 42.352641 298.465346 
L 45.195605 298.465346 
L 45.414295 303.208875 
L 50.662843 303.208875 
L 50.881533 298.465346 
L 55.255323 298.465346 
L 55.474013 303.208875 
L 57.223529 303.208875 
L 57.442219 298.465346 
L 63.128146 298.465346 
L 63.346836 303.208875 
L 63.565525 303.208875 
L 63.784215 298.465346 
L 66.1898 298.465346 
L 66.408489 293.721816 
L 67.283247 293.721816 
L 67.501937 298.465346 
L 67.720627 293.721816 
L 68.376695 293.721816 
L 68.595385 288.978287 
L 70.78228 288.978287 
L 71.000969 284.234757 
L 72.094417 284.234757 
L 72.313107 288.978287 
L 75.15607 288.978287 
L 75.37476 293.721816 
L 76.468208 293.721816 
L 76.686897 298.465346 
L 77.124276 298.465346 
L 77.342966 303.208875 
L 77.561655 303.208875 
L 77.780345 298.465346 
L 78.217724 298.465346 
L 78.436413 293.721816 
L 79.092482 293.721816 
L 79.748551 279.491228 
L 80.404619 279.491228 
L 80.623309 284.234757 
L 80.841998 279.491228 
L 82.810204 279.491228 
L 83.028894 274.747699 
L 84.341031 274.747699 
L 84.55972 279.491228 
L 85.653168 279.491228 
L 86.090547 288.978287 
L 86.527926 288.978287 
L 86.746616 293.721816 
L 87.840063 293.721816 
L 88.058753 288.978287 
L 88.496132 288.978287 
L 88.714821 284.234757 
L 90.683027 284.234757 
L 90.901717 293.721816 
L 93.525991 293.721816 
L 93.74468 288.978287 
L 93.96337 288.978287 
L 94.182059 284.234757 
L 94.838128 284.234757 
L 95.056818 288.978287 
L 95.494197 288.978287 
L 95.712886 293.721816 
L 100.742745 293.721816 
L 101.180124 303.208875 
L 154.10299 303.208875 
L 154.540369 288.978287 
L 154.759059 288.978287 
L 154.977748 284.234757 
L 155.415127 284.234757 
L 155.633817 279.491228 
L 156.289886 279.491228 
L 156.508575 274.747699 
L 157.602023 274.747699 
L 158.039402 265.26064 
L 158.258091 265.26064 
L 158.476781 270.004169 
L 158.69547 270.004169 
L 159.132849 251.030051 
L 160.007608 251.030051 
L 160.226297 246.286522 
L 160.444987 246.286522 
L 160.663676 255.773581 
L 164.381398 255.773581 
L 164.600088 260.51711 
L 166.786983 260.51711 
L 167.005672 270.004169 
L 168.09912 270.004169 
L 168.31781 255.773581 
L 168.973878 255.773581 
L 169.192568 251.030051 
L 169.411257 255.773581 
L 170.286015 255.773581 
L 170.723394 265.26064 
L 170.942084 265.26064 
L 171.160773 255.773581 
L 172.254221 255.773581 
L 172.6916 265.26064 
L 173.347669 265.26064 
L 173.566358 255.773581 
L 174.222427 255.773581 
L 174.441116 260.51711 
L 174.659806 260.51711 
L 174.878495 265.26064 
L 175.534564 265.26064 
L 175.753254 255.773581 
L 176.190633 255.773581 
L 176.409322 260.51711 
L 176.846701 260.51711 
L 177.065391 265.26064 
L 177.721459 265.26064 
L 177.940149 255.773581 
L 178.158838 255.773581 
L 178.377528 260.51711 
L 178.814907 260.51711 
L 179.033597 265.26064 
L 179.908355 265.26064 
L 180.127044 260.51711 
L 181.001802 260.51711 
L 181.220492 265.26064 
L 181.87656 265.26064 
L 182.09525 260.51711 
L 182.970008 260.51711 
L 183.188698 265.26064 
L 184.063456 265.26064 
L 184.282145 260.51711 
L 185.156903 260.51711 
L 185.375593 265.26064 
L 186.250351 265.26064 
L 186.46904 260.51711 
L 187.125109 260.51711 
L 187.343799 270.004169 
L 187.562488 270.004169 
L 187.781178 265.26064 
L 188.437246 265.26064 
L 188.655936 260.51711 
L 189.093315 260.51711 
L 189.530694 270.004169 
L 189.968073 270.004169 
L 190.186762 265.26064 
L 190.624142 265.26064 
L 190.842831 260.51711 
L 191.061521 260.51711 
L 191.4989 270.004169 
L 192.373658 270.004169 
L 192.592347 265.26064 
L 193.467105 265.26064 
L 193.685795 270.004169 
L 194.997932 270.004169 
L 195.216622 265.26064 
L 195.435311 265.26064 
L 195.654001 270.004169 
L 202.214687 270.004169 
L 202.433376 274.747699 
L 202.652066 274.747699 
L 202.870755 270.004169 
L 204.182892 270.004169 
L 204.401582 274.747699 
L 204.838961 274.747699 
L 205.05765 270.004169 
L 206.151098 270.004169 
L 206.369788 274.747699 
L 207.244546 274.747699 
L 207.463235 270.004169 
L 208.119304 270.004169 
L 208.337993 274.747699 
L 209.650131 274.747699 
L 209.86882 270.004169 
L 210.08751 270.004169 
L 210.306199 274.747699 
L 215.117369 274.747699 
L 215.336058 279.491228 
L 215.554748 279.491228 
L 215.773437 274.747699 
L 216.210816 274.747699 
L 216.429506 270.004169 
L 216.648195 270.004169 
L 216.866885 274.747699 
L 217.085574 274.747699 
L 217.304264 279.491228 
L 217.960333 279.491228 
L 218.397712 270.004169 
L 219.05378 270.004169 
L 219.27247 279.491228 
L 220.147228 279.491228 
L 220.365917 270.004169 
L 221.021986 270.004169 
L 221.240676 274.747699 
L 221.459365 274.747699 
L 221.678055 279.491228 
L 222.334123 279.491228 
L 222.771502 270.004169 
L 222.990192 270.004169 
L 223.208881 274.747699 
L 223.64626 274.747699 
L 223.86495 279.491228 
L 224.302329 279.491228 
L 224.521018 274.747699 
L 225.614466 274.747699 
L 225.833156 279.491228 
L 226.489224 279.491228 
L 226.707914 274.747699 
L 227.801361 274.747699 
L 228.020051 279.491228 
L 228.676119 279.491228 
L 228.894809 274.747699 
L 229.988257 274.747699 
L 230.206946 279.491228 
L 230.863015 279.491228 
L 231.081704 274.747699 
L 232.175152 274.747699 
L 232.393841 279.491228 
L 232.831221 279.491228 
L 233.04991 274.747699 
L 234.143358 274.747699 
L 234.362047 279.491228 
L 235.018116 279.491228 
L 235.236805 274.747699 
L 236.330253 274.747699 
L 236.548943 279.491228 
L 237.205011 279.491228 
L 237.423701 274.747699 
L 238.517148 274.747699 
L 238.735838 279.491228 
L 239.391906 279.491228 
L 239.610596 274.747699 
L 240.704044 274.747699 
L 240.922733 279.491228 
L 241.578802 279.491228 
L 241.797491 274.747699 
L 242.672249 274.747699 
L 243.109628 284.234757 
L 243.547007 284.234757 
L 244.203076 270.004169 
L 244.640455 270.004169 
L 245.077834 284.234757 
L 245.733903 284.234757 
L 245.952592 270.004169 
L 246.171282 265.26064 
L 246.608661 265.26064 
L 247.04604 279.491228 
L 247.264729 284.234757 
L 247.702108 284.234757 
L 248.576867 265.26064 
L 249.014246 279.491228 
L 250.107693 279.491228 
L 250.326383 274.747699 
L 250.545072 274.747699 
L 250.763762 270.004169 
L 250.982451 270.004169 
L 251.201141 279.491228 
L 252.075899 279.491228 
L 252.294589 274.747699 
L 252.513278 274.747699 
L 252.731968 270.004169 
L 253.169347 270.004169 
L 253.606726 279.491228 
L 254.044105 279.491228 
L 254.481484 270.004169 
L 255.574931 270.004169 
L 255.793621 274.747699 
L 256.231 274.747699 
L 256.44969 270.004169 
L 269.789751 270.004169 
L 270.00844 265.26064 
L 270.22713 270.004169 
L 271.757957 270.004169 
L 271.976646 265.26064 
L 272.414025 265.26064 
L 272.632715 270.004169 
L 273.944852 270.004169 
L 274.163541 265.26064 
L 274.60092 265.26064 
L 274.81961 270.004169 
L 275.913058 270.004169 
L 276.131747 265.26064 
L 276.787816 265.26064 
L 277.006505 270.004169 
L 278.099953 270.004169 
L 278.318642 265.26064 
L 278.974711 265.26064 
L 279.193401 270.004169 
L 283.785881 270.004169 
L 284.00457 274.747699 
L 284.879328 274.747699 
L 285.098018 279.491228 
L 287.722292 279.491228 
L 288.159671 288.978287 
L 289.253119 288.978287 
L 289.471808 293.721816 
L 294.064289 293.721816 
L 294.282978 298.465346 
L 301.937112 298.465346 
L 302.155801 303.208875 
L 397.504435 303.208875 
L 397.504435 303.208875 
" style="fill:none;stroke:#008000;stroke-linecap:square;stroke-width:1.5;"/>
   </g>
   <g id="line2d_32">
    <path clip-path="url(#p6c299e2481)" d="M 40.603125 293.721816 
L 41.696573 293.721816 
L 41.915262 288.978287 
L 43.00871 288.978287 
L 43.227399 284.234757 
L 44.976916 284.234757 
L 45.195605 279.491228 
L 46.070363 279.491228 
L 46.289053 274.747699 
L 46.726432 274.747699 
L 46.945121 270.004169 
L 47.3825 270.004169 
L 47.60119 274.747699 
L 48.475948 274.747699 
L 48.694638 270.004169 
L 48.913327 274.747699 
L 51.318912 274.747699 
L 51.756291 284.234757 
L 51.97498 284.234757 
L 52.19367 288.978287 
L 52.41236 288.978287 
L 52.631049 284.234757 
L 52.849739 274.747699 
L 53.068428 274.747699 
L 53.287118 270.004169 
L 53.505807 270.004169 
L 53.724497 260.51711 
L 53.943186 265.26064 
L 54.161876 260.51711 
L 54.599255 260.51711 
L 54.817944 255.773581 
L 55.036634 255.773581 
L 55.255323 251.030051 
L 55.474013 255.773581 
L 56.130082 255.773581 
L 56.348771 251.030051 
L 56.567461 251.030051 
L 56.78615 246.286522 
L 57.00484 246.286522 
L 57.442219 236.799463 
L 57.660908 236.799463 
L 58.316977 222.568875 
L 58.535666 222.568875 
L 58.754356 217.825346 
L 58.973045 222.568875 
L 59.629114 222.568875 
L 59.847804 227.312404 
L 60.503872 251.030051 
L 60.722562 255.773581 
L 61.159941 255.773581 
L 61.37863 260.51711 
L 61.59732 255.773581 
L 61.816009 255.773581 
L 62.034699 251.030051 
L 62.472078 251.030051 
L 62.690767 241.542993 
L 63.128146 241.542993 
L 63.565525 251.030051 
L 63.784215 246.286522 
L 64.002905 246.286522 
L 64.221594 251.030051 
L 65.096352 251.030051 
L 65.315042 265.26064 
L 65.752421 265.26064 
L 65.97111 270.004169 
L 66.627179 270.004169 
L 66.845868 274.747699 
L 67.064558 270.004169 
L 68.595385 270.004169 
L 68.814074 265.26064 
L 69.032764 270.004169 
L 69.251453 270.004169 
L 69.470143 274.747699 
L 69.688832 274.747699 
L 69.907522 279.491228 
L 70.126211 274.747699 
L 70.344901 279.491228 
L 70.78228 279.491228 
L 71.219659 288.978287 
L 72.094417 288.978287 
L 72.313107 284.234757 
L 72.750486 284.234757 
L 72.969175 279.491228 
L 73.187865 279.491228 
L 73.406554 274.747699 
L 74.062623 274.747699 
L 74.281312 279.491228 
L 74.937381 279.491228 
L 75.15607 284.234757 
L 76.030829 284.234757 
L 76.249518 288.978287 
L 77.124276 288.978287 
L 77.342966 284.234757 
L 77.999034 284.234757 
L 78.217724 288.978287 
L 78.436413 284.234757 
L 79.092482 284.234757 
L 79.311172 288.978287 
L 79.96724 288.978287 
L 80.18593 293.721816 
L 80.841998 293.721816 
L 81.060688 288.978287 
L 83.684962 288.978287 
L 84.122341 298.465346 
L 84.55972 298.465346 
L 84.77841 303.208875 
L 172.6916 303.208875 
L 172.91029 298.465346 
L 173.566358 298.465346 
L 173.785048 293.721816 
L 177.721459 293.721816 
L 178.158838 284.234757 
L 178.814907 284.234757 
L 179.252286 293.721816 
L 179.908355 293.721816 
L 180.127044 298.465346 
L 181.657871 298.465346 
L 181.87656 303.208875 
L 209.650131 303.208875 
L 209.86882 298.465346 
L 211.399647 298.465346 
L 211.837026 288.978287 
L 212.711784 288.978287 
L 213.149163 279.491228 
L 214.242611 279.491228 
L 214.4613 274.747699 
L 214.67999 274.747699 
L 214.898679 270.004169 
L 215.117369 260.51711 
L 215.336058 260.51711 
L 215.554748 255.773581 
L 217.522954 255.773581 
L 217.741643 251.030051 
L 218.616401 251.030051 
L 218.835091 255.773581 
L 219.709849 255.773581 
L 219.928538 260.51711 
L 220.803296 260.51711 
L 221.021986 265.26064 
L 221.678055 265.26064 
L 221.896744 270.004169 
L 222.115434 270.004169 
L 222.334123 274.747699 
L 222.552813 274.747699 
L 222.990192 284.234757 
L 223.64626 284.234757 
L 224.302329 260.51711 
L 224.521018 260.51711 
L 224.739708 265.26064 
L 224.958398 255.773581 
L 225.177087 260.51711 
L 225.395777 255.773581 
L 229.113499 255.773581 
L 229.332188 260.51711 
L 229.769567 260.51711 
L 229.988257 255.773581 
L 231.081704 255.773581 
L 231.300394 260.51711 
L 232.175152 260.51711 
L 232.393841 255.773581 
L 233.04991 255.773581 
L 233.2686 260.51711 
L 234.580737 260.51711 
L 234.799426 255.773581 
L 235.018116 255.773581 
L 235.236805 260.51711 
L 236.986322 260.51711 
L 237.205011 255.773581 
L 237.423701 255.773581 
L 237.64239 260.51711 
L 237.86108 260.51711 
L 238.079769 265.26064 
L 238.517148 265.26064 
L 238.735838 260.51711 
L 238.954527 260.51711 
L 239.173217 255.773581 
L 239.391906 255.773581 
L 239.610596 260.51711 
L 239.829285 260.51711 
L 240.047975 265.26064 
L 240.704044 265.26064 
L 241.141423 255.773581 
L 241.360112 260.51711 
L 242.016181 260.51711 
L 242.23487 270.004169 
L 242.45356 265.26064 
L 242.890939 265.26064 
L 243.109628 260.51711 
L 243.984386 260.51711 
L 244.421766 270.004169 
L 244.640455 270.004169 
L 244.859145 265.26064 
L 245.296524 265.26064 
L 245.515213 260.51711 
L 245.952592 260.51711 
L 246.171282 265.26064 
L 246.608661 265.26064 
L 246.82735 270.004169 
L 247.04604 270.004169 
L 247.264729 265.26064 
L 247.483419 255.773581 
L 247.920798 255.773581 
L 248.358177 265.26064 
L 249.232935 265.26064 
L 249.451625 255.773581 
L 249.670314 255.773581 
L 249.889004 251.030051 
L 250.107693 251.030051 
L 250.763762 265.26064 
L 250.982451 265.26064 
L 251.41983 255.773581 
L 251.63852 255.773581 
L 251.85721 251.030051 
L 252.294589 251.030051 
L 252.513278 255.773581 
L 252.731968 255.773581 
L 252.950657 260.51711 
L 253.169347 260.51711 
L 253.388036 255.773581 
L 253.606726 255.773581 
L 253.825415 251.030051 
L 254.262794 251.030051 
L 254.481484 255.773581 
L 255.574931 255.773581 
L 255.793621 251.030051 
L 256.231 251.030051 
L 256.44969 255.773581 
L 257.543137 255.773581 
L 257.761827 251.030051 
L 258.199206 251.030051 
L 258.417895 255.773581 
L 258.855274 255.773581 
L 259.073964 260.51711 
L 259.730033 260.51711 
L 259.948722 251.030051 
L 260.386101 251.030051 
L 260.604791 255.773581 
L 260.82348 255.773581 
L 261.04217 260.51711 
L 261.260859 260.51711 
L 261.479549 255.773581 
L 262.135617 255.773581 
L 262.354307 251.030051 
L 262.572996 255.773581 
L 262.791686 255.773581 
L 263.010375 260.51711 
L 263.447755 260.51711 
L 263.666444 255.773581 
L 263.885134 255.773581 
L 264.103823 251.030051 
L 264.322513 251.030051 
L 264.759892 260.51711 
L 265.63465 260.51711 
L 266.072029 251.030051 
L 266.509408 251.030051 
L 266.946787 260.51711 
L 267.602856 260.51711 
L 267.821545 255.773581 
L 268.040235 255.773581 
L 268.258924 251.030051 
L 268.914993 251.030051 
L 269.133682 260.51711 
L 269.789751 260.51711 
L 270.22713 251.030051 
L 270.883198 251.030051 
L 271.320578 265.26064 
L 271.539267 265.26064 
L 271.757957 260.51711 
L 271.976646 260.51711 
L 272.195336 251.030051 
L 272.851404 251.030051 
L 273.070094 255.773581 
L 273.288783 255.773581 
L 273.507473 265.26064 
L 273.944852 265.26064 
L 274.382231 251.030051 
L 274.81961 251.030051 
L 275.0383 255.773581 
L 275.475679 255.773581 
L 275.694368 265.26064 
L 275.913058 265.26064 
L 276.569126 251.030051 
L 276.787816 251.030051 
L 277.006505 255.773581 
L 277.881263 255.773581 
L 278.099953 260.51711 
L 278.318642 255.773581 
L 285.316707 255.773581 
L 285.535397 251.030051 
L 291.002635 251.030051 
L 291.221325 246.286522 
L 296.032494 246.286522 
L 296.251184 241.542993 
L 300.843664 241.542993 
L 301.062353 236.799463 
L 302.81187 236.799463 
L 303.030559 241.542993 
L 305.654834 241.542993 
L 305.873523 236.799463 
L 306.310902 236.799463 
L 306.529592 241.542993 
L 338.239573 241.542993 
L 338.458263 246.286522 
L 341.082537 246.286522 
L 341.301227 241.542993 
L 341.738606 241.542993 
L 341.957295 236.799463 
L 354.203909 236.799463 
L 354.422598 232.055934 
L 363.17018 232.055934 
L 363.388869 236.799463 
L 365.794454 236.799463 
L 366.013143 241.542993 
L 366.669212 241.542993 
L 366.887901 246.286522 
L 368.418728 246.286522 
L 368.637418 241.542993 
L 377.166309 241.542993 
L 377.384999 236.799463 
L 378.478446 236.799463 
L 378.697136 241.542993 
L 387.226028 241.542993 
L 387.444717 246.286522 
L 393.349334 246.286522 
L 393.568024 251.030051 
L 397.504435 251.030051 
L 397.504435 251.030051 
" style="fill:none;stroke:#0000ff;stroke-linecap:square;stroke-width:1.5;"/>
   </g>
   <g id="line2d_33">
    <path clip-path="url(#p6c299e2481)" d="M 40.603125 293.721816 
L 41.915262 293.721816 
L 42.133952 288.978287 
L 43.664778 288.978287 
L 43.883468 284.234757 
L 45.414295 284.234757 
L 45.851674 274.747699 
L 46.507742 274.747699 
L 46.726432 270.004169 
L 47.163811 270.004169 
L 47.3825 274.747699 
L 48.694638 274.747699 
L 48.913327 279.491228 
L 49.350706 279.491228 
L 49.569396 284.234757 
L 51.97498 284.234757 
L 52.19367 288.978287 
L 52.41236 288.978287 
L 52.631049 293.721816 
L 53.068428 293.721816 
L 53.287118 298.465346 
L 53.943186 298.465346 
L 54.161876 303.208875 
L 213.586542 303.208875 
L 213.805232 298.465346 
L 215.117369 298.465346 
L 215.336058 293.721816 
L 217.960333 293.721816 
L 218.179022 288.978287 
L 224.083639 288.978287 
L 224.302329 284.234757 
L 228.676119 284.234757 
L 228.894809 288.978287 
L 230.644325 288.978287 
L 230.863015 284.234757 
L 231.300394 284.234757 
L 231.519083 279.491228 
L 231.956462 288.978287 
L 232.393841 288.978287 
L 232.612531 284.234757 
L 232.831221 284.234757 
L 233.04991 279.491228 
L 233.705979 279.491228 
L 233.924668 288.978287 
L 234.580737 288.978287 
L 235.018116 279.491228 
L 235.892874 279.491228 
L 236.330253 288.978287 
L 236.548943 288.978287 
L 236.986322 279.491228 
L 238.079769 279.491228 
L 238.298459 284.234757 
L 238.735838 284.234757 
L 238.954527 279.491228 
L 240.266664 279.491228 
L 240.485354 284.234757 
L 240.704044 284.234757 
L 240.922733 279.491228 
L 242.45356 279.491228 
L 242.672249 284.234757 
L 242.890939 284.234757 
L 243.109628 279.491228 
L 244.640455 279.491228 
L 244.859145 284.234757 
L 245.077834 284.234757 
L 245.296524 279.491228 
L 246.608661 279.491228 
L 246.82735 288.978287 
L 247.04604 288.978287 
L 247.264729 279.491228 
L 248.358177 279.491228 
L 248.576867 284.234757 
L 248.795556 284.234757 
L 249.014246 288.978287 
L 249.232935 288.978287 
L 249.451625 284.234757 
L 249.670314 284.234757 
L 250.107693 274.747699 
L 250.545072 284.234757 
L 250.982451 284.234757 
L 251.201141 288.978287 
L 251.41983 288.978287 
L 251.63852 284.234757 
L 251.85721 284.234757 
L 252.075899 279.491228 
L 252.731968 279.491228 
L 252.950657 284.234757 
L 253.169347 284.234757 
L 253.388036 288.978287 
L 253.606726 284.234757 
L 253.825415 284.234757 
L 254.044105 279.491228 
L 255.137552 279.491228 
L 255.356242 288.978287 
L 255.574931 288.978287 
L 256.012311 279.491228 
L 257.324448 279.491228 
L 257.543137 284.234757 
L 257.761827 284.234757 
L 257.980516 279.491228 
L 259.292653 279.491228 
L 259.511343 284.234757 
L 259.948722 284.234757 
L 260.167412 279.491228 
L 261.479549 279.491228 
L 261.698238 284.234757 
L 262.135617 284.234757 
L 262.354307 279.491228 
L 263.447755 279.491228 
L 263.666444 284.234757 
L 264.322513 284.234757 
L 264.541202 279.491228 
L 265.63465 279.491228 
L 265.853339 284.234757 
L 266.509408 284.234757 
L 266.728097 279.491228 
L 267.602856 279.491228 
L 267.821545 284.234757 
L 268.914993 284.234757 
L 269.133682 279.491228 
L 269.352372 279.491228 
L 269.571061 284.234757 
L 285.754086 284.234757 
L 285.972776 288.978287 
L 287.722292 288.978287 
L 287.940982 293.721816 
L 294.939047 293.721816 
L 295.157736 298.465346 
L 307.40435 298.465346 
L 307.623039 303.208875 
L 397.504435 303.208875 
L 397.504435 303.208875 
" style="fill:none;stroke:#ff0000;stroke-linecap:square;stroke-width:1.5;"/>
   </g>
   <g id="line2d_34">
    <path clip-path="url(#p6c299e2481)" d="M 40.603125 288.978287 
L 41.915262 288.978287 
L 42.133952 284.234757 
L 44.320847 284.234757 
L 44.758226 274.747699 
L 45.632984 274.747699 
L 45.851674 279.491228 
L 46.070363 279.491228 
L 46.289053 274.747699 
L 46.507742 274.747699 
L 46.726432 270.004169 
L 47.163811 279.491228 
L 47.3825 279.491228 
L 48.038569 293.721816 
L 50.225464 293.721816 
L 50.444154 298.465346 
L 50.881533 298.465346 
L 51.100222 303.208875 
L 153.446922 303.208875 
L 153.665611 298.465346 
L 154.977748 298.465346 
L 155.196438 293.721816 
L 155.633817 293.721816 
L 155.852507 288.978287 
L 157.164644 288.978287 
L 157.383333 279.491228 
L 159.132849 279.491228 
L 159.351539 288.978287 
L 160.226297 288.978287 
L 160.444987 293.721816 
L 161.101055 293.721816 
L 161.319745 303.208875 
L 196.528759 303.208875 
L 196.747448 298.465346 
L 198.934344 298.465346 
L 199.153033 293.721816 
L 201.558618 293.721816 
L 201.777307 288.978287 
L 202.433376 288.978287 
L 202.652066 293.721816 
L 203.308134 293.721816 
L 203.745513 284.234757 
L 205.05765 284.234757 
L 205.27634 288.978287 
L 206.807167 288.978287 
L 207.025856 293.721816 
L 211.618336 293.721816 
L 211.837026 288.978287 
L 212.055715 288.978287 
L 212.274405 284.234757 
L 212.493094 288.978287 
L 222.771502 288.978287 
L 222.990192 293.721816 
L 223.208881 293.721816 
L 223.427571 288.978287 
L 224.958398 288.978287 
L 225.177087 293.721816 
L 225.395777 293.721816 
L 225.614466 288.978287 
L 226.926603 288.978287 
L 227.145293 293.721816 
L 227.363982 293.721816 
L 227.582672 288.978287 
L 229.113499 288.978287 
L 229.332188 293.721816 
L 229.550878 293.721816 
L 229.769567 288.978287 
L 231.300394 288.978287 
L 231.519083 293.721816 
L 231.737773 293.721816 
L 231.956462 288.978287 
L 240.485354 288.978287 
L 240.704044 284.234757 
L 240.922733 288.978287 
L 242.45356 288.978287 
L 242.672249 284.234757 
L 243.109628 284.234757 
L 243.328318 288.978287 
L 244.203076 288.978287 
L 244.421766 293.721816 
L 244.640455 293.721816 
L 244.859145 284.234757 
L 245.296524 284.234757 
L 245.515213 288.978287 
L 246.171282 288.978287 
L 246.389971 293.721816 
L 246.608661 293.721816 
L 247.04604 284.234757 
L 247.483419 284.234757 
L 247.702108 288.978287 
L 248.139488 288.978287 
L 248.358177 293.721816 
L 248.576867 293.721816 
L 248.795556 288.978287 
L 249.232935 288.978287 
L 249.451625 284.234757 
L 249.670314 284.234757 
L 250.107693 293.721816 
L 250.326383 293.721816 
L 250.545072 298.465346 
L 250.982451 288.978287 
L 251.41983 288.978287 
L 251.63852 284.234757 
L 251.85721 288.978287 
L 252.075899 288.978287 
L 252.513278 298.465346 
L 252.731968 298.465346 
L 252.950657 293.721816 
L 253.169347 293.721816 
L 253.388036 284.234757 
L 253.825415 293.721816 
L 254.044105 288.978287 
L 254.262794 288.978287 
L 254.481484 298.465346 
L 254.700173 298.465346 
L 254.918863 293.721816 
L 255.137552 293.721816 
L 255.356242 288.978287 
L 256.012311 288.978287 
L 256.231 293.721816 
L 256.44969 293.721816 
L 256.668379 298.465346 
L 256.887069 293.721816 
L 257.105758 293.721816 
L 257.324448 288.978287 
L 258.417895 288.978287 
L 258.636585 293.721816 
L 259.073964 293.721816 
L 259.292653 288.978287 
L 259.948722 288.978287 
L 260.167412 284.234757 
L 260.386101 288.978287 
L 260.82348 288.978287 
L 261.04217 293.721816 
L 261.260859 288.978287 
L 261.916928 288.978287 
L 262.135617 284.234757 
L 262.572996 284.234757 
L 262.791686 288.978287 
L 264.103823 288.978287 
L 264.322513 284.234757 
L 264.759892 284.234757 
L 264.978581 288.978287 
L 266.072029 288.978287 
L 266.290718 284.234757 
L 266.946787 284.234757 
L 267.384166 293.721816 
L 267.602856 288.978287 
L 268.258924 288.978287 
L 268.477614 284.234757 
L 268.914993 284.234757 
L 269.352372 293.721816 
L 270.00844 293.721816 
L 270.445819 284.234757 
L 270.883198 284.234757 
L 271.101888 288.978287 
L 271.320578 288.978287 
L 271.539267 293.721816 
L 272.414025 293.721816 
L 272.632715 284.234757 
L 272.851404 288.978287 
L 273.507473 288.978287 
L 273.726162 293.721816 
L 274.382231 293.721816 
L 274.60092 288.978287 
L 275.694368 288.978287 
L 275.913058 293.721816 
L 276.569126 293.721816 
L 276.787816 288.978287 
L 277.881263 288.978287 
L 278.099953 293.721816 
L 278.756022 293.721816 
L 278.974711 288.978287 
L 279.63078 288.978287 
L 279.849469 293.721816 
L 286.410155 293.721816 
L 286.628845 298.465346 
L 301.718422 298.465346 
L 301.937112 303.208875 
L 397.504435 303.208875 
L 397.504435 303.208875 
" style="fill:none;stroke:#00ffff;stroke-linecap:square;stroke-width:1.5;"/>
   </g>
   <g id="line2d_35">
    <path clip-path="url(#p6c299e2481)" d="M 40.603125 303.208875 
L 42.571331 303.208875 
L 42.79002 298.465346 
L 43.00871 298.465346 
L 43.227399 293.721816 
L 47.163811 293.721816 
L 47.3825 288.978287 
L 47.60119 288.978287 
L 47.819879 293.721816 
L 49.569396 293.721816 
L 49.788085 298.465346 
L 53.943186 298.465346 
L 54.161876 303.208875 
L 85.434478 303.208875 
L 85.653168 298.465346 
L 87.183995 298.465346 
L 87.402684 303.208875 
L 186.031661 303.208875 
L 186.250351 298.465346 
L 221.896744 298.465346 
L 222.115434 303.208875 
L 222.334123 298.465346 
L 224.083639 298.465346 
L 224.302329 303.208875 
L 224.521018 298.465346 
L 226.926603 298.465346 
L 227.145293 293.721816 
L 227.582672 293.721816 
L 227.801361 298.465346 
L 228.23874 298.465346 
L 228.45743 303.208875 
L 228.676119 298.465346 
L 228.894809 298.465346 
L 229.113499 293.721816 
L 229.988257 293.721816 
L 230.206946 298.465346 
L 230.425636 298.465346 
L 230.644325 303.208875 
L 231.081704 293.721816 
L 232.393841 293.721816 
L 232.831221 303.208875 
L 233.04991 293.721816 
L 268.477614 293.721816 
L 268.696303 298.465346 
L 268.914993 298.465346 
L 269.133682 293.721816 
L 270.445819 293.721816 
L 270.664509 298.465346 
L 271.101888 298.465346 
L 271.320578 293.721816 
L 272.414025 293.721816 
L 272.632715 298.465346 
L 273.507473 298.465346 
L 273.726162 293.721816 
L 274.382231 293.721816 
L 274.60092 298.465346 
L 275.694368 298.465346 
L 275.913058 293.721816 
L 276.350437 293.721816 
L 276.569126 298.465346 
L 284.441949 298.465346 
L 284.660639 293.721816 
L 295.157736 293.721816 
L 295.376426 298.465346 
L 303.030559 298.465346 
L 303.249249 303.208875 
L 397.504435 303.208875 
L 397.504435 303.208875 
" style="fill:none;stroke:#ff00ff;stroke-linecap:square;stroke-width:1.5;"/>
   </g>
   <g id="line2d_36">
    <path clip-path="url(#p6c299e2481)" d="M 40.603125 293.721816 
L 42.352641 293.721816 
L 42.571331 288.978287 
L 45.851674 288.978287 
L 46.070363 284.234757 
L 46.726432 284.234757 
L 46.945121 293.721816 
L 48.038569 293.721816 
L 48.257258 298.465346 
L 52.631049 298.465346 
L 52.849739 303.208875 
L 81.279377 303.208875 
L 81.498067 298.465346 
L 81.716756 279.491228 
L 81.935446 274.747699 
L 82.372825 274.747699 
L 82.810204 265.26064 
L 83.028894 265.26064 
L 83.247583 260.51711 
L 83.466273 260.51711 
L 83.684962 255.773581 
L 84.122341 241.542993 
L 84.55972 232.055934 
L 84.77841 232.055934 
L 84.997099 227.312404 
L 85.434478 198.851228 
L 85.871857 184.62064 
L 86.090547 184.62064 
L 86.309236 179.87711 
L 86.527926 179.87711 
L 86.746616 184.62064 
L 88.058753 184.62064 
L 88.277442 194.107699 
L 88.496132 194.107699 
L 88.933511 208.338287 
L 89.37089 217.825346 
L 89.808269 217.825346 
L 90.026958 236.799463 
L 90.464337 246.286522 
L 90.683027 260.51711 
L 90.901717 265.26064 
L 91.339096 265.26064 
L 91.557785 270.004169 
L 91.776475 270.004169 
L 91.995164 279.491228 
L 92.213854 279.491228 
L 92.869922 293.721816 
L 93.088612 303.208875 
L 154.540369 303.208875 
L 154.759059 298.465346 
L 156.727265 298.465346 
L 156.945954 293.721816 
L 157.164644 279.491228 
L 158.476781 279.491228 
L 158.69547 274.747699 
L 160.007608 274.747699 
L 160.226297 265.26064 
L 161.319745 265.26064 
L 161.975813 279.491228 
L 162.631882 279.491228 
L 162.850571 284.234757 
L 163.069261 284.234757 
L 163.28795 288.978287 
L 164.381398 288.978287 
L 165.037467 303.208875 
L 186.250351 303.208875 
L 186.46904 293.721816 
L 186.68773 293.721816 
L 186.90642 288.978287 
L 187.125109 288.978287 
L 187.343799 274.747699 
L 187.562488 274.747699 
L 187.781178 265.26064 
L 187.999867 265.26064 
L 188.655936 251.030051 
L 188.874625 241.542993 
L 189.093315 241.542993 
L 189.312004 236.799463 
L 189.749383 208.338287 
L 190.186762 198.851228 
L 190.405452 184.62064 
L 190.842831 184.62064 
L 191.061521 179.87711 
L 191.28021 179.87711 
L 191.4989 165.646522 
L 192.373658 165.646522 
L 192.592347 156.159463 
L 193.029726 156.159463 
L 193.467105 146.672404 
L 193.685795 137.185346 
L 193.904484 137.185346 
L 194.123174 127.698287 
L 194.341864 127.698287 
L 194.779243 118.211228 
L 194.997932 103.98064 
L 195.216622 108.724169 
L 195.654001 99.23711 
L 196.09138 108.724169 
L 196.310069 108.724169 
L 196.747448 122.954757 
L 197.840896 122.954757 
L 198.059586 127.698287 
L 199.153033 127.698287 
L 199.371723 132.441816 
L 199.809102 132.441816 
L 200.027791 137.185346 
L 200.46517 137.185346 
L 200.68386 141.928875 
L 201.339928 141.928875 
L 201.558618 146.672404 
L 201.777307 141.928875 
L 202.214687 141.928875 
L 202.433376 146.672404 
L 202.652066 146.672404 
L 202.870755 141.928875 
L 203.089445 141.928875 
L 203.308134 146.672404 
L 203.526824 146.672404 
L 203.745513 151.415934 
L 203.964203 151.415934 
L 204.182892 146.672404 
L 204.401582 146.672404 
L 204.620271 151.415934 
L 205.27634 151.415934 
L 205.495029 146.672404 
L 205.713719 151.415934 
L 206.588477 151.415934 
L 206.807167 156.159463 
L 207.025856 165.646522 
L 208.556683 165.646522 
L 208.775372 170.390051 
L 209.212751 170.390051 
L 209.431441 179.87711 
L 210.524889 179.87711 
L 210.743578 184.62064 
L 212.274405 184.62064 
L 212.711784 194.107699 
L 212.930473 194.107699 
L 213.149163 198.851228 
L 213.586542 198.851228 
L 213.805232 203.594757 
L 215.554748 203.594757 
L 215.773437 198.851228 
L 215.992127 198.851228 
L 216.210816 194.107699 
L 216.429506 184.62064 
L 216.648195 165.646522 
L 216.866885 160.902993 
L 217.960333 118.211228 
L 218.179022 118.211228 
L 218.397712 113.467699 
L 218.616401 132.441816 
L 218.835091 108.724169 
L 219.05378 103.98064 
L 219.491159 122.954757 
L 219.928538 122.954757 
L 220.147228 113.467699 
L 220.365917 113.467699 
L 220.803296 122.954757 
L 222.334123 122.954757 
L 222.552813 118.211228 
L 222.771502 122.954757 
L 222.990192 113.467699 
L 223.427571 122.954757 
L 223.86495 122.954757 
L 224.083639 127.698287 
L 224.521018 118.211228 
L 225.177087 118.211228 
L 225.395777 113.467699 
L 225.614466 122.954757 
L 225.833156 122.954757 
L 226.270535 132.441816 
L 226.489224 118.211228 
L 227.145293 118.211228 
L 227.363982 122.954757 
L 227.582672 113.467699 
L 228.020051 122.954757 
L 228.23874 132.441816 
L 228.676119 122.954757 
L 228.894809 113.467699 
L 229.113499 113.467699 
L 229.332188 118.211228 
L 229.550878 113.467699 
L 229.769567 118.211228 
L 229.988257 118.211228 
L 230.425636 127.698287 
L 230.863015 118.211228 
L 231.519083 118.211228 
L 231.737773 113.467699 
L 231.956462 113.467699 
L 232.393841 122.954757 
L 232.831221 122.954757 
L 233.04991 118.211228 
L 233.2686 118.211228 
L 233.487289 113.467699 
L 233.705979 113.467699 
L 234.362047 127.698287 
L 234.580737 127.698287 
L 235.018116 118.211228 
L 235.236805 118.211228 
L 235.455495 108.724169 
L 235.674184 108.724169 
L 236.111563 118.211228 
L 236.330253 127.698287 
L 236.767632 127.698287 
L 237.64239 108.724169 
L 237.86108 108.724169 
L 238.298459 122.954757 
L 238.517148 127.698287 
L 238.954527 127.698287 
L 239.829285 108.724169 
L 240.047975 108.724169 
L 240.266664 122.954757 
L 240.485354 127.698287 
L 241.360112 127.698287 
L 241.578802 122.954757 
L 241.797491 108.724169 
L 242.016181 108.724169 
L 242.23487 122.954757 
L 242.45356 127.698287 
L 243.765697 127.698287 
L 243.984386 118.211228 
L 244.203076 122.954757 
L 244.421766 122.954757 
L 244.640455 127.698287 
L 245.952592 127.698287 
L 246.171282 113.467699 
L 246.608661 127.698287 
L 246.82735 132.441816 
L 247.04604 132.441816 
L 247.264729 137.185346 
L 247.702108 127.698287 
L 247.920798 127.698287 
L 248.139488 118.211228 
L 248.576867 118.211228 
L 248.795556 137.185346 
L 249.014246 132.441816 
L 249.232935 132.441816 
L 249.451625 137.185346 
L 249.670314 132.441816 
L 249.889004 132.441816 
L 250.326383 118.211228 
L 250.545072 118.211228 
L 250.763762 122.954757 
L 250.982451 132.441816 
L 251.41983 132.441816 
L 251.63852 137.185346 
L 251.85721 132.441816 
L 252.075899 132.441816 
L 252.294589 127.698287 
L 252.513278 118.211228 
L 252.731968 122.954757 
L 252.950657 118.211228 
L 253.169347 132.441816 
L 254.044105 132.441816 
L 254.700173 118.211228 
L 254.918863 122.954757 
L 255.137552 118.211228 
L 255.356242 132.441816 
L 256.231 132.441816 
L 256.887069 118.211228 
L 257.105758 118.211228 
L 257.324448 122.954757 
L 257.543137 132.441816 
L 257.761827 132.441816 
L 257.980516 127.698287 
L 258.199206 132.441816 
L 258.417895 132.441816 
L 258.636585 127.698287 
L 258.855274 108.724169 
L 259.073964 103.98064 
L 259.292653 108.724169 
L 259.948722 132.441816 
L 260.167412 132.441816 
L 260.386101 137.185346 
L 261.260859 103.98064 
L 261.698238 113.467699 
L 262.135617 137.185346 
L 262.354307 132.441816 
L 262.572996 132.441816 
L 262.791686 118.211228 
L 263.010375 118.211228 
L 263.447755 103.98064 
L 263.666444 108.724169 
L 264.103823 122.954757 
L 264.322513 122.954757 
L 264.541202 127.698287 
L 264.759892 118.211228 
L 264.978581 118.211228 
L 265.63465 103.98064 
L 265.853339 103.98064 
L 266.290718 132.441816 
L 266.946787 118.211228 
L 267.165477 118.211228 
L 267.384166 113.467699 
L 267.821545 89.750051 
L 268.040235 103.98064 
L 268.477614 103.98064 
L 268.696303 89.750051 
L 268.914993 94.493581 
L 269.133682 108.724169 
L 269.352372 108.724169 
L 269.571061 113.467699 
L 272.195336 113.467699 
L 272.632715 122.954757 
L 272.851404 122.954757 
L 273.070094 127.698287 
L 273.288783 141.928875 
L 273.507473 146.672404 
L 273.726162 141.928875 
L 275.475679 141.928875 
L 275.694368 146.672404 
L 275.913058 146.672404 
L 276.131747 141.928875 
L 276.350437 146.672404 
L 276.569126 146.672404 
L 276.787816 141.928875 
L 277.006505 146.672404 
L 278.318642 89.750051 
L 278.974711 103.98064 
L 279.41209 103.98064 
L 279.63078 108.724169 
L 279.849469 103.98064 
L 281.161606 103.98064 
L 281.380296 108.724169 
L 282.473743 108.724169 
L 282.692433 113.467699 
L 288.159671 113.467699 
L 288.378361 108.724169 
L 292.533462 108.724169 
L 292.752151 103.98064 
L 293.626909 103.98064 
L 293.845599 108.724169 
L 295.376426 108.724169 
L 295.595115 103.98064 
L 299.094148 103.98064 
L 299.312837 108.724169 
L 303.905317 108.724169 
L 304.124007 103.98064 
L 313.746346 103.98064 
L 313.965036 99.23711 
L 314.839794 99.23711 
L 315.058483 94.493581 
L 315.495862 94.493581 
L 316.37062 75.519463 
L 316.58931 80.262993 
L 321.837859 80.262993 
L 322.056548 85.006522 
L 323.149996 85.006522 
L 323.368685 89.750051 
L 326.211649 89.750051 
L 326.430339 85.006522 
L 328.617234 85.006522 
L 328.835924 80.262993 
L 331.678887 80.262993 
L 331.897577 85.006522 
L 334.303162 85.006522 
L 334.521851 80.262993 
L 335.833988 80.262993 
L 336.052678 75.519463 
L 336.271367 75.519463 
L 336.490057 70.775934 
L 336.927436 70.775934 
L 337.146126 66.032404 
L 337.583505 66.032404 
L 337.802194 61.288875 
L 339.114331 61.288875 
L 339.333021 66.032404 
L 341.082537 66.032404 
L 341.301227 61.288875 
L 343.050743 61.288875 
L 343.269432 66.032404 
L 347.205844 66.032404 
L 347.424533 70.775934 
L 349.830118 70.775934 
L 350.048808 66.032404 
L 350.923566 66.032404 
L 351.142255 70.775934 
L 360.545905 70.775934 
L 360.764595 66.032404 
L 362.076732 66.032404 
L 362.514111 75.519463 
L 364.482317 75.519463 
L 364.701006 80.262993 
L 365.575764 80.262993 
L 365.794454 85.006522 
L 366.669212 85.006522 
L 366.887901 89.750051 
L 369.512176 89.750051 
L 369.730865 85.006522 
L 372.573829 85.006522 
L 372.792519 89.750051 
L 378.697136 89.750051 
L 378.915826 94.493581 
L 382.414858 94.493581 
L 382.633548 89.750051 
L 385.695201 89.750051 
L 385.91389 94.493581 
L 389.850302 94.493581 
L 390.068992 89.750051 
L 390.287681 80.262993 
L 390.506371 80.262993 
L 390.72506 85.006522 
L 392.255887 85.006522 
L 392.474576 80.262993 
L 394.880161 80.262993 
L 395.098851 75.519463 
L 395.754919 75.519463 
L 395.973609 70.775934 
L 397.504435 70.775934 
L 397.504435 70.775934 
" style="fill:none;stroke:#000000;stroke-linecap:square;stroke-width:1.5;"/>
   </g>
   <g id="patch_3">
    <path d="M 40.603125 315.304875 
L 40.603125 49.192875 
" style="fill:none;stroke:#000000;stroke-linecap:square;stroke-linejoin:miter;stroke-width:0.8;"/>
   </g>
   <g id="patch_4">
    <path d="M 397.723125 315.304875 
L 397.723125 49.192875 
" style="fill:none;stroke:#000000;stroke-linecap:square;stroke-linejoin:miter;stroke-width:0.8;"/>
   </g>
   <g id="patch_5">
    <path d="M 40.603125 315.304875 
L 397.723125 315.304875 
" style="fill:none;stroke:#000000;stroke-linecap:square;stroke-linejoin:miter;stroke-width:0.8;"/>
   </g>
   <g id="patch_6">
    <path d="M 40.603125 49.192875 
L 397.723125 49.192875 
" style="fill:none;stroke:#000000;stroke-linecap:square;stroke-linejoin:miter;stroke-width:0.8;"/>
   </g>
   <g id="text_18">
    <!-- Discovered nodes per time -->
    <defs>
     <path d="M 54.890625 33.015625 
L 54.890625 0 
L 45.90625 0 
L 45.90625 32.71875 
Q 45.90625 40.484375 42.875 44.328125 
Q 39.84375 48.1875 33.796875 48.1875 
Q 26.515625 48.1875 22.3125 43.546875 
Q 18.109375 38.921875 18.109375 30.90625 
L 18.109375 0 
L 9.078125 0 
L 9.078125 54.6875 
L 18.109375 54.6875 
L 18.109375 46.1875 
Q 21.34375 51.125 25.703125 53.5625 
Q 30.078125 56 35.796875 56 
Q 45.21875 56 50.046875 50.171875 
Q 54.890625 44.34375 54.890625 33.015625 
z
" id="DejaVuSans-6e"/>
     <path d="M 18.109375 8.203125 
L 18.109375 -20.796875 
L 9.078125 -20.796875 
L 9.078125 54.6875 
L 18.109375 54.6875 
L 18.109375 46.390625 
Q 20.953125 51.265625 25.265625 53.625 
Q 29.59375 56 35.59375 56 
Q 45.5625 56 51.78125 48.09375 
Q 58.015625 40.1875 58.015625 27.296875 
Q 58.015625 14.40625 51.78125 6.484375 
Q 45.5625 -1.421875 35.59375 -1.421875 
Q 29.59375 -1.421875 25.265625 0.953125 
Q 20.953125 3.328125 18.109375 8.203125 
z
M 48.6875 27.296875 
Q 48.6875 37.203125 44.609375 42.84375 
Q 40.53125 48.484375 33.40625 48.484375 
Q 26.265625 48.484375 22.1875 42.84375 
Q 18.109375 37.203125 18.109375 27.296875 
Q 18.109375 17.390625 22.1875 11.75 
Q 26.265625 6.109375 33.40625 6.109375 
Q 40.53125 6.109375 44.609375 11.75 
Q 48.6875 17.390625 48.6875 27.296875 
z
" id="DejaVuSans-70"/>
     <path d="M 18.3125 70.21875 
L 18.3125 54.6875 
L 36.8125 54.6875 
L 36.8125 47.703125 
L 18.3125 47.703125 
L 18.3125 18.015625 
Q 18.3125 11.328125 20.140625 9.421875 
Q 21.96875 7.515625 27.59375 7.515625 
L 36.8125 7.515625 
L 36.8125 0 
L 27.59375 0 
Q 17.1875 0 13.234375 3.875 
Q 9.28125 7.765625 9.28125 18.015625 
L 9.28125 47.703125 
L 2.6875 47.703125 
L 2.6875 54.6875 
L 9.28125 54.6875 
L 9.28125 70.21875 
z
" id="DejaVuSans-74"/>
    </defs>
    <g transform="translate(138.227813 16.318125)scale(0.12 -0.12)">
     <use xlink:href="#DejaVuSans-44"/>
     <use x="77.001953" xlink:href="#DejaVuSans-69"/>
     <use x="104.785156" xlink:href="#DejaVuSans-73"/>
     <use x="156.884766" xlink:href="#DejaVuSans-63"/>
     <use x="211.865234" xlink:href="#DejaVuSans-6f"/>
     <use x="273.046875" xlink:href="#DejaVuSans-76"/>
     <use x="332.226562" xlink:href="#DejaVuSans-65"/>
     <use x="393.75" xlink:href="#DejaVuSans-72"/>
     <use x="434.832031" xlink:href="#DejaVuSans-65"/>
     <use x="496.355469" xlink:href="#DejaVuSans-64"/>
     <use x="559.832031" xlink:href="#DejaVuSans-20"/>
     <use x="591.619141" xlink:href="#DejaVuSans-6e"/>
     <use x="654.998047" xlink:href="#DejaVuSans-6f"/>
     <use x="716.179688" xlink:href="#DejaVuSans-64"/>
     <use x="779.65625" xlink:href="#DejaVuSans-65"/>
     <use x="841.179688" xlink:href="#DejaVuSans-73"/>
     <use x="893.279297" xlink:href="#DejaVuSans-20"/>
     <use x="925.066406" xlink:href="#DejaVuSans-70"/>
     <use x="988.542969" xlink:href="#DejaVuSans-65"/>
     <use x="1050.066406" xlink:href="#DejaVuSans-72"/>
     <use x="1091.179688" xlink:href="#DejaVuSans-20"/>
     <use x="1122.966797" xlink:href="#DejaVuSans-74"/>
     <use x="1162.175781" xlink:href="#DejaVuSans-69"/>
     <use x="1189.958984" xlink:href="#DejaVuSans-6d"/>
     <use x="1287.371094" xlink:href="#DejaVuSans-65"/>
    </g>
    <!--  -->
    <g transform="translate(219.163125 29.7555)scale(0.12 -0.12)"/>
    <!--  -->
    <g transform="translate(219.163125 43.192875)scale(0.12 -0.12)"/>
   </g>
   <g id="legend_1">
    <g id="patch_7">
     <path d="M 411.865525 139.939385 
L 482.471775 139.939385 
Q 484.471775 139.939385 484.471775 137.939385 
L 484.471775 50.870635 
Q 484.471775 48.870635 482.471775 48.870635 
L 411.865525 48.870635 
Q 409.865525 48.870635 409.865525 50.870635 
L 409.865525 137.939385 
Q 409.865525 139.939385 411.865525 139.939385 
z
" style="fill:#ffffff;opacity:0.8;stroke:#cccccc;stroke-linejoin:miter;"/>
    </g>
    <g id="line2d_37">
     <path d="M 413.865525 56.969072 
L 433.865525 56.969072 
" style="fill:none;stroke:#008000;stroke-linecap:square;stroke-width:1.5;"/>
    </g>
    <g id="line2d_38"/>
    <g id="text_19">
     <!-- drone 0 -->
     <g transform="translate(441.865525 60.469072)scale(0.1 -0.1)">
      <use xlink:href="#DejaVuSans-64"/>
      <use x="63.476562" xlink:href="#DejaVuSans-72"/>
      <use x="104.558594" xlink:href="#DejaVuSans-6f"/>
      <use x="165.740234" xlink:href="#DejaVuSans-6e"/>
      <use x="229.119141" xlink:href="#DejaVuSans-65"/>
      <use x="290.642578" xlink:href="#DejaVuSans-20"/>
      <use x="322.429688" xlink:href="#DejaVuSans-30"/>
     </g>
    </g>
    <g id="line2d_39">
     <path d="M 413.865525 71.647197 
L 433.865525 71.647197 
" style="fill:none;stroke:#0000ff;stroke-linecap:square;stroke-width:1.5;"/>
    </g>
    <g id="line2d_40"/>
    <g id="text_20">
     <!-- drone 1 -->
     <g transform="translate(441.865525 75.147197)scale(0.1 -0.1)">
      <use xlink:href="#DejaVuSans-64"/>
      <use x="63.476562" xlink:href="#DejaVuSans-72"/>
      <use x="104.558594" xlink:href="#DejaVuSans-6f"/>
      <use x="165.740234" xlink:href="#DejaVuSans-6e"/>
      <use x="229.119141" xlink:href="#DejaVuSans-65"/>
      <use x="290.642578" xlink:href="#DejaVuSans-20"/>
      <use x="322.429688" xlink:href="#DejaVuSans-31"/>
     </g>
    </g>
    <g id="line2d_41">
     <path d="M 413.865525 86.325322 
L 433.865525 86.325322 
" style="fill:none;stroke:#ff0000;stroke-linecap:square;stroke-width:1.5;"/>
    </g>
    <g id="line2d_42"/>
    <g id="text_21">
     <!-- drone 2 -->
     <g transform="translate(441.865525 89.825322)scale(0.1 -0.1)">
      <use xlink:href="#DejaVuSans-64"/>
      <use x="63.476562" xlink:href="#DejaVuSans-72"/>
      <use x="104.558594" xlink:href="#DejaVuSans-6f"/>
      <use x="165.740234" xlink:href="#DejaVuSans-6e"/>
      <use x="229.119141" xlink:href="#DejaVuSans-65"/>
      <use x="290.642578" xlink:href="#DejaVuSans-20"/>
      <use x="322.429688" xlink:href="#DejaVuSans-32"/>
     </g>
    </g>
    <g id="line2d_43">
     <path d="M 413.865525 101.003447 
L 433.865525 101.003447 
" style="fill:none;stroke:#00ffff;stroke-linecap:square;stroke-width:1.5;"/>
    </g>
    <g id="line2d_44"/>
    <g id="text_22">
     <!-- drone 3 -->
     <g transform="translate(441.865525 104.503447)scale(0.1 -0.1)">
      <use xlink:href="#DejaVuSans-64"/>
      <use x="63.476562" xlink:href="#DejaVuSans-72"/>
      <use x="104.558594" xlink:href="#DejaVuSans-6f"/>
      <use x="165.740234" xlink:href="#DejaVuSans-6e"/>
      <use x="229.119141" xlink:href="#DejaVuSans-65"/>
      <use x="290.642578" xlink:href="#DejaVuSans-20"/>
      <use x="322.429688" xlink:href="#DejaVuSans-33"/>
     </g>
    </g>
    <g id="line2d_45">
     <path d="M 413.865525 115.681572 
L 433.865525 115.681572 
" style="fill:none;stroke:#ff00ff;stroke-linecap:square;stroke-width:1.5;"/>
    </g>
    <g id="line2d_46"/>
    <g id="text_23">
     <!-- drone 4 -->
     <g transform="translate(441.865525 119.181572)scale(0.1 -0.1)">
      <use xlink:href="#DejaVuSans-64"/>
      <use x="63.476562" xlink:href="#DejaVuSans-72"/>
      <use x="104.558594" xlink:href="#DejaVuSans-6f"/>
      <use x="165.740234" xlink:href="#DejaVuSans-6e"/>
      <use x="229.119141" xlink:href="#DejaVuSans-65"/>
      <use x="290.642578" xlink:href="#DejaVuSans-20"/>
      <use x="322.429688" xlink:href="#DejaVuSans-34"/>
     </g>
    </g>
    <g id="line2d_47">
     <path d="M 413.865525 130.359697 
L 433.865525 130.359697 
" style="fill:none;stroke:#000000;stroke-linecap:square;stroke-width:1.5;"/>
    </g>
    <g id="line2d_48"/>
    <g id="text_24">
     <!-- drone 5 -->
     <g transform="translate(441.865525 133.859697)scale(0.1 -0.1)">
      <use xlink:href="#DejaVuSans-64"/>
      <use x="63.476562" xlink:href="#DejaVuSans-72"/>
      <use x="104.558594" xlink:href="#DejaVuSans-6f"/>
      <use x="165.740234" xlink:href="#DejaVuSans-6e"/>
      <use x="229.119141" xlink:href="#DejaVuSans-65"/>
      <use x="290.642578" xlink:href="#DejaVuSans-20"/>
      <use x="322.429688" xlink:href="#DejaVuSans-35"/>
     </g>
    </g>
   </g>
  </g>
 </g>
 <defs>
  <clipPath id="p6c299e2481">
   <rect height="266.112" width="357.12" x="40.603125" y="49.192875"/>
  </clipPath>
 </defs>
</svg>
