<?xml version="1.0" encoding="utf-8" standalone="no"?>
<!DOCTYPE svg PUBLIC "-//W3C//DTD SVG 1.1//EN"
  "http://www.w3.org/Graphics/SVG/1.1/DTD/svg11.dtd">
<!-- Created with matplotlib (http://matplotlib.org/) -->
<svg height="352pt" version="1.1" viewBox="0 0 538 352" width="538pt" xmlns="http://www.w3.org/2000/svg" xmlns:xlink="http://www.w3.org/1999/xlink">
 <defs>
  <style type="text/css">
*{stroke-linecap:butt;stroke-linejoin:round;}
  </style>
 </defs>
 <g id="figure_1">
  <g id="patch_1">
   <path d="M 0 352.861125 
L 538.513042 352.861125 
L 538.513042 0 
L 0 0 
z
" style="fill:#ffffff;"/>
  </g>
  <g id="axes_1">
   <g id="patch_2">
    <path d="M 34.240625 315.304875 
L 391.360625 315.304875 
L 391.360625 49.192875 
L 34.240625 49.192875 
z
" style="fill:#ffffff;"/>
   </g>
   <g id="patch_3">
    <path clip-path="url(#p5672d981e9)" d="M 59.371292 303.208875 
L 62.016625 303.208875 
L 62.016625 61.288875 
L 59.371292 61.288875 
z
" style="fill:#008000;stroke:#008000;stroke-linejoin:miter;"/>
   </g>
   <g id="patch_4">
    <path clip-path="url(#p5672d981e9)" d="M 60.693958 303.208875 
L 63.339292 303.208875 
L 63.339292 303.208875 
L 60.693958 303.208875 
z
" style="fill:#008000;stroke:#008000;stroke-linejoin:miter;"/>
   </g>
   <g id="patch_5">
    <path clip-path="url(#p5672d981e9)" d="M 62.016625 303.208875 
L 64.661958 303.208875 
L 64.661958 303.208875 
L 62.016625 303.208875 
z
" style="fill:#008000;stroke:#008000;stroke-linejoin:miter;"/>
   </g>
   <g id="patch_6">
    <path clip-path="url(#p5672d981e9)" d="M 63.339292 303.208875 
L 65.984625 303.208875 
L 65.984625 303.208875 
L 63.339292 303.208875 
z
" style="fill:#008000;stroke:#008000;stroke-linejoin:miter;"/>
   </g>
   <g id="patch_7">
    <path clip-path="url(#p5672d981e9)" d="M 64.661958 303.208875 
L 67.307292 303.208875 
L 67.307292 303.208875 
L 64.661958 303.208875 
z
" style="fill:#008000;stroke:#008000;stroke-linejoin:miter;"/>
   </g>
   <g id="patch_8">
    <path clip-path="url(#p5672d981e9)" d="M 65.984625 303.208875 
L 68.629958 303.208875 
L 68.629958 303.208875 
L 65.984625 303.208875 
z
" style="fill:#008000;stroke:#008000;stroke-linejoin:miter;"/>
   </g>
   <g id="patch_9">
    <path clip-path="url(#p5672d981e9)" d="M 67.307292 303.208875 
L 69.952625 303.208875 
L 69.952625 303.208875 
L 67.307292 303.208875 
z
" style="fill:#008000;stroke:#008000;stroke-linejoin:miter;"/>
   </g>
   <g id="patch_10">
    <path clip-path="url(#p5672d981e9)" d="M 68.629958 303.208875 
L 71.275292 303.208875 
L 71.275292 303.208875 
L 68.629958 303.208875 
z
" style="fill:#008000;stroke:#008000;stroke-linejoin:miter;"/>
   </g>
   <g id="patch_11">
    <path clip-path="url(#p5672d981e9)" d="M 69.952625 303.208875 
L 72.597958 303.208875 
L 72.597958 303.208875 
L 69.952625 303.208875 
z
" style="fill:#008000;stroke:#008000;stroke-linejoin:miter;"/>
   </g>
   <g id="patch_12">
    <path clip-path="url(#p5672d981e9)" d="M 71.275292 303.208875 
L 73.920625 303.208875 
L 73.920625 303.208875 
L 71.275292 303.208875 
z
" style="fill:#008000;stroke:#008000;stroke-linejoin:miter;"/>
   </g>
   <g id="patch_13">
    <path clip-path="url(#p5672d981e9)" d="M 72.597958 303.208875 
L 75.243292 303.208875 
L 75.243292 303.208875 
L 72.597958 303.208875 
z
" style="fill:#008000;stroke:#008000;stroke-linejoin:miter;"/>
   </g>
   <g id="patch_14">
    <path clip-path="url(#p5672d981e9)" d="M 73.920625 303.208875 
L 76.565958 303.208875 
L 76.565958 303.208875 
L 73.920625 303.208875 
z
" style="fill:#008000;stroke:#008000;stroke-linejoin:miter;"/>
   </g>
   <g id="patch_15">
    <path clip-path="url(#p5672d981e9)" d="M 75.243292 303.208875 
L 77.888625 303.208875 
L 77.888625 254.824875 
L 75.243292 254.824875 
z
" style="fill:#008000;stroke:#008000;stroke-linejoin:miter;"/>
   </g>
   <g id="patch_16">
    <path clip-path="url(#p5672d981e9)" d="M 76.565958 303.208875 
L 79.211292 303.208875 
L 79.211292 303.208875 
L 76.565958 303.208875 
z
" style="fill:#008000;stroke:#008000;stroke-linejoin:miter;"/>
   </g>
   <g id="patch_17">
    <path clip-path="url(#p5672d981e9)" d="M 77.888625 303.208875 
L 80.533958 303.208875 
L 80.533958 303.208875 
L 77.888625 303.208875 
z
" style="fill:#008000;stroke:#008000;stroke-linejoin:miter;"/>
   </g>
   <g id="patch_18">
    <path clip-path="url(#p5672d981e9)" d="M 79.211292 303.208875 
L 81.856625 303.208875 
L 81.856625 303.208875 
L 79.211292 303.208875 
z
" style="fill:#008000;stroke:#008000;stroke-linejoin:miter;"/>
   </g>
   <g id="patch_19">
    <path clip-path="url(#p5672d981e9)" d="M 80.533958 303.208875 
L 83.179292 303.208875 
L 83.179292 303.208875 
L 80.533958 303.208875 
z
" style="fill:#008000;stroke:#008000;stroke-linejoin:miter;"/>
   </g>
   <g id="patch_20">
    <path clip-path="url(#p5672d981e9)" d="M 81.856625 303.208875 
L 84.501958 303.208875 
L 84.501958 254.824875 
L 81.856625 254.824875 
z
" style="fill:#008000;stroke:#008000;stroke-linejoin:miter;"/>
   </g>
   <g id="patch_21">
    <path clip-path="url(#p5672d981e9)" d="M 83.179292 303.208875 
L 85.824625 303.208875 
L 85.824625 303.208875 
L 83.179292 303.208875 
z
" style="fill:#008000;stroke:#008000;stroke-linejoin:miter;"/>
   </g>
   <g id="patch_22">
    <path clip-path="url(#p5672d981e9)" d="M 84.501958 303.208875 
L 87.147292 303.208875 
L 87.147292 303.208875 
L 84.501958 303.208875 
z
" style="fill:#008000;stroke:#008000;stroke-linejoin:miter;"/>
   </g>
   <g id="patch_23">
    <path clip-path="url(#p5672d981e9)" d="M 85.824625 303.208875 
L 88.469958 303.208875 
L 88.469958 254.824875 
L 85.824625 254.824875 
z
" style="fill:#008000;stroke:#008000;stroke-linejoin:miter;"/>
   </g>
   <g id="patch_24">
    <path clip-path="url(#p5672d981e9)" d="M 87.147292 303.208875 
L 89.792625 303.208875 
L 89.792625 254.824875 
L 87.147292 254.824875 
z
" style="fill:#008000;stroke:#008000;stroke-linejoin:miter;"/>
   </g>
   <g id="patch_25">
    <path clip-path="url(#p5672d981e9)" d="M 88.469958 303.208875 
L 91.115292 303.208875 
L 91.115292 254.824875 
L 88.469958 254.824875 
z
" style="fill:#008000;stroke:#008000;stroke-linejoin:miter;"/>
   </g>
   <g id="patch_26">
    <path clip-path="url(#p5672d981e9)" d="M 89.792625 303.208875 
L 92.437958 303.208875 
L 92.437958 254.824875 
L 89.792625 254.824875 
z
" style="fill:#008000;stroke:#008000;stroke-linejoin:miter;"/>
   </g>
   <g id="patch_27">
    <path clip-path="url(#p5672d981e9)" d="M 91.115292 303.208875 
L 93.760625 303.208875 
L 93.760625 206.440875 
L 91.115292 206.440875 
z
" style="fill:#008000;stroke:#008000;stroke-linejoin:miter;"/>
   </g>
   <g id="patch_28">
    <path clip-path="url(#p5672d981e9)" d="M 92.437958 303.208875 
L 95.083292 303.208875 
L 95.083292 303.208875 
L 92.437958 303.208875 
z
" style="fill:#008000;stroke:#008000;stroke-linejoin:miter;"/>
   </g>
   <g id="patch_29">
    <path clip-path="url(#p5672d981e9)" d="M 93.760625 303.208875 
L 96.405958 303.208875 
L 96.405958 206.440875 
L 93.760625 206.440875 
z
" style="fill:#008000;stroke:#008000;stroke-linejoin:miter;"/>
   </g>
   <g id="patch_30">
    <path clip-path="url(#p5672d981e9)" d="M 95.083292 303.208875 
L 97.728625 303.208875 
L 97.728625 254.824875 
L 95.083292 254.824875 
z
" style="fill:#008000;stroke:#008000;stroke-linejoin:miter;"/>
   </g>
   <g id="patch_31">
    <path clip-path="url(#p5672d981e9)" d="M 96.405958 303.208875 
L 99.051292 303.208875 
L 99.051292 254.824875 
L 96.405958 254.824875 
z
" style="fill:#008000;stroke:#008000;stroke-linejoin:miter;"/>
   </g>
   <g id="patch_32">
    <path clip-path="url(#p5672d981e9)" d="M 97.728625 303.208875 
L 100.373958 303.208875 
L 100.373958 206.440875 
L 97.728625 206.440875 
z
" style="fill:#008000;stroke:#008000;stroke-linejoin:miter;"/>
   </g>
   <g id="patch_33">
    <path clip-path="url(#p5672d981e9)" d="M 99.051292 303.208875 
L 101.696625 303.208875 
L 101.696625 303.208875 
L 99.051292 303.208875 
z
" style="fill:#008000;stroke:#008000;stroke-linejoin:miter;"/>
   </g>
   <g id="patch_34">
    <path clip-path="url(#p5672d981e9)" d="M 100.373958 303.208875 
L 103.019292 303.208875 
L 103.019292 303.208875 
L 100.373958 303.208875 
z
" style="fill:#008000;stroke:#008000;stroke-linejoin:miter;"/>
   </g>
   <g id="patch_35">
    <path clip-path="url(#p5672d981e9)" d="M 101.696625 303.208875 
L 104.341958 303.208875 
L 104.341958 254.824875 
L 101.696625 254.824875 
z
" style="fill:#008000;stroke:#008000;stroke-linejoin:miter;"/>
   </g>
   <g id="patch_36">
    <path clip-path="url(#p5672d981e9)" d="M 103.019292 303.208875 
L 105.664625 303.208875 
L 105.664625 254.824875 
L 103.019292 254.824875 
z
" style="fill:#008000;stroke:#008000;stroke-linejoin:miter;"/>
   </g>
   <g id="patch_37">
    <path clip-path="url(#p5672d981e9)" d="M 104.341958 303.208875 
L 106.987292 303.208875 
L 106.987292 254.824875 
L 104.341958 254.824875 
z
" style="fill:#008000;stroke:#008000;stroke-linejoin:miter;"/>
   </g>
   <g id="patch_38">
    <path clip-path="url(#p5672d981e9)" d="M 105.664625 303.208875 
L 108.309958 303.208875 
L 108.309958 206.440875 
L 105.664625 206.440875 
z
" style="fill:#008000;stroke:#008000;stroke-linejoin:miter;"/>
   </g>
   <g id="patch_39">
    <path clip-path="url(#p5672d981e9)" d="M 106.987292 303.208875 
L 109.632625 303.208875 
L 109.632625 303.208875 
L 106.987292 303.208875 
z
" style="fill:#008000;stroke:#008000;stroke-linejoin:miter;"/>
   </g>
   <g id="patch_40">
    <path clip-path="url(#p5672d981e9)" d="M 108.309958 303.208875 
L 110.955292 303.208875 
L 110.955292 206.440875 
L 108.309958 206.440875 
z
" style="fill:#008000;stroke:#008000;stroke-linejoin:miter;"/>
   </g>
   <g id="patch_41">
    <path clip-path="url(#p5672d981e9)" d="M 109.632625 303.208875 
L 112.277958 303.208875 
L 112.277958 303.208875 
L 109.632625 303.208875 
z
" style="fill:#008000;stroke:#008000;stroke-linejoin:miter;"/>
   </g>
   <g id="patch_42">
    <path clip-path="url(#p5672d981e9)" d="M 110.955292 303.208875 
L 113.600625 303.208875 
L 113.600625 254.824875 
L 110.955292 254.824875 
z
" style="fill:#008000;stroke:#008000;stroke-linejoin:miter;"/>
   </g>
   <g id="patch_43">
    <path clip-path="url(#p5672d981e9)" d="M 112.277958 303.208875 
L 114.923292 303.208875 
L 114.923292 109.672875 
L 112.277958 109.672875 
z
" style="fill:#008000;stroke:#008000;stroke-linejoin:miter;"/>
   </g>
   <g id="patch_44">
    <path clip-path="url(#p5672d981e9)" d="M 113.600625 303.208875 
L 116.245958 303.208875 
L 116.245958 303.208875 
L 113.600625 303.208875 
z
" style="fill:#008000;stroke:#008000;stroke-linejoin:miter;"/>
   </g>
   <g id="patch_45">
    <path clip-path="url(#p5672d981e9)" d="M 114.923292 303.208875 
L 117.568625 303.208875 
L 117.568625 254.824875 
L 114.923292 254.824875 
z
" style="fill:#008000;stroke:#008000;stroke-linejoin:miter;"/>
   </g>
   <g id="patch_46">
    <path clip-path="url(#p5672d981e9)" d="M 116.245958 303.208875 
L 118.891292 303.208875 
L 118.891292 303.208875 
L 116.245958 303.208875 
z
" style="fill:#008000;stroke:#008000;stroke-linejoin:miter;"/>
   </g>
   <g id="patch_47">
    <path clip-path="url(#p5672d981e9)" d="M 117.568625 303.208875 
L 120.213958 303.208875 
L 120.213958 254.824875 
L 117.568625 254.824875 
z
" style="fill:#008000;stroke:#008000;stroke-linejoin:miter;"/>
   </g>
   <g id="patch_48">
    <path clip-path="url(#p5672d981e9)" d="M 118.891292 303.208875 
L 121.536625 303.208875 
L 121.536625 303.208875 
L 118.891292 303.208875 
z
" style="fill:#008000;stroke:#008000;stroke-linejoin:miter;"/>
   </g>
   <g id="patch_49">
    <path clip-path="url(#p5672d981e9)" d="M 120.213958 303.208875 
L 122.859292 303.208875 
L 122.859292 303.208875 
L 120.213958 303.208875 
z
" style="fill:#008000;stroke:#008000;stroke-linejoin:miter;"/>
   </g>
   <g id="patch_50">
    <path clip-path="url(#p5672d981e9)" d="M 121.536625 303.208875 
L 124.181958 303.208875 
L 124.181958 254.824875 
L 121.536625 254.824875 
z
" style="fill:#008000;stroke:#008000;stroke-linejoin:miter;"/>
   </g>
   <g id="patch_51">
    <path clip-path="url(#p5672d981e9)" d="M 122.859292 303.208875 
L 125.504625 303.208875 
L 125.504625 303.208875 
L 122.859292 303.208875 
z
" style="fill:#008000;stroke:#008000;stroke-linejoin:miter;"/>
   </g>
   <g id="patch_52">
    <path clip-path="url(#p5672d981e9)" d="M 124.181958 303.208875 
L 126.827292 303.208875 
L 126.827292 303.208875 
L 124.181958 303.208875 
z
" style="fill:#008000;stroke:#008000;stroke-linejoin:miter;"/>
   </g>
   <g id="patch_53">
    <path clip-path="url(#p5672d981e9)" d="M 125.504625 303.208875 
L 128.149958 303.208875 
L 128.149958 206.440875 
L 125.504625 206.440875 
z
" style="fill:#008000;stroke:#008000;stroke-linejoin:miter;"/>
   </g>
   <g id="patch_54">
    <path clip-path="url(#p5672d981e9)" d="M 126.827292 303.208875 
L 129.472625 303.208875 
L 129.472625 303.208875 
L 126.827292 303.208875 
z
" style="fill:#008000;stroke:#008000;stroke-linejoin:miter;"/>
   </g>
   <g id="patch_55">
    <path clip-path="url(#p5672d981e9)" d="M 128.149958 303.208875 
L 130.795292 303.208875 
L 130.795292 206.440875 
L 128.149958 206.440875 
z
" style="fill:#008000;stroke:#008000;stroke-linejoin:miter;"/>
   </g>
   <g id="patch_56">
    <path clip-path="url(#p5672d981e9)" d="M 129.472625 303.208875 
L 132.117958 303.208875 
L 132.117958 303.208875 
L 129.472625 303.208875 
z
" style="fill:#008000;stroke:#008000;stroke-linejoin:miter;"/>
   </g>
   <g id="patch_57">
    <path clip-path="url(#p5672d981e9)" d="M 130.795292 303.208875 
L 133.440625 303.208875 
L 133.440625 303.208875 
L 130.795292 303.208875 
z
" style="fill:#008000;stroke:#008000;stroke-linejoin:miter;"/>
   </g>
   <g id="patch_58">
    <path clip-path="url(#p5672d981e9)" d="M 132.117958 303.208875 
L 134.763292 303.208875 
L 134.763292 254.824875 
L 132.117958 254.824875 
z
" style="fill:#008000;stroke:#008000;stroke-linejoin:miter;"/>
   </g>
   <g id="patch_59">
    <path clip-path="url(#p5672d981e9)" d="M 133.440625 303.208875 
L 136.085958 303.208875 
L 136.085958 303.208875 
L 133.440625 303.208875 
z
" style="fill:#008000;stroke:#008000;stroke-linejoin:miter;"/>
   </g>
   <g id="patch_60">
    <path clip-path="url(#p5672d981e9)" d="M 134.763292 303.208875 
L 137.408625 303.208875 
L 137.408625 303.208875 
L 134.763292 303.208875 
z
" style="fill:#008000;stroke:#008000;stroke-linejoin:miter;"/>
   </g>
   <g id="patch_61">
    <path clip-path="url(#p5672d981e9)" d="M 136.085958 303.208875 
L 138.731292 303.208875 
L 138.731292 303.208875 
L 136.085958 303.208875 
z
" style="fill:#008000;stroke:#008000;stroke-linejoin:miter;"/>
   </g>
   <g id="patch_62">
    <path clip-path="url(#p5672d981e9)" d="M 137.408625 303.208875 
L 140.053958 303.208875 
L 140.053958 303.208875 
L 137.408625 303.208875 
z
" style="fill:#008000;stroke:#008000;stroke-linejoin:miter;"/>
   </g>
   <g id="patch_63">
    <path clip-path="url(#p5672d981e9)" d="M 138.731292 303.208875 
L 141.376625 303.208875 
L 141.376625 303.208875 
L 138.731292 303.208875 
z
" style="fill:#008000;stroke:#008000;stroke-linejoin:miter;"/>
   </g>
   <g id="patch_64">
    <path clip-path="url(#p5672d981e9)" d="M 140.053958 303.208875 
L 142.699292 303.208875 
L 142.699292 254.824875 
L 140.053958 254.824875 
z
" style="fill:#008000;stroke:#008000;stroke-linejoin:miter;"/>
   </g>
   <g id="patch_65">
    <path clip-path="url(#p5672d981e9)" d="M 141.376625 303.208875 
L 144.021958 303.208875 
L 144.021958 303.208875 
L 141.376625 303.208875 
z
" style="fill:#008000;stroke:#008000;stroke-linejoin:miter;"/>
   </g>
   <g id="patch_66">
    <path clip-path="url(#p5672d981e9)" d="M 142.699292 303.208875 
L 145.344625 303.208875 
L 145.344625 303.208875 
L 142.699292 303.208875 
z
" style="fill:#008000;stroke:#008000;stroke-linejoin:miter;"/>
   </g>
   <g id="patch_67">
    <path clip-path="url(#p5672d981e9)" d="M 144.021958 303.208875 
L 146.667292 303.208875 
L 146.667292 303.208875 
L 144.021958 303.208875 
z
" style="fill:#008000;stroke:#008000;stroke-linejoin:miter;"/>
   </g>
   <g id="patch_68">
    <path clip-path="url(#p5672d981e9)" d="M 145.344625 303.208875 
L 147.989958 303.208875 
L 147.989958 303.208875 
L 145.344625 303.208875 
z
" style="fill:#008000;stroke:#008000;stroke-linejoin:miter;"/>
   </g>
   <g id="patch_69">
    <path clip-path="url(#p5672d981e9)" d="M 146.667292 303.208875 
L 149.312625 303.208875 
L 149.312625 303.208875 
L 146.667292 303.208875 
z
" style="fill:#008000;stroke:#008000;stroke-linejoin:miter;"/>
   </g>
   <g id="patch_70">
    <path clip-path="url(#p5672d981e9)" d="M 147.989958 303.208875 
L 150.635292 303.208875 
L 150.635292 303.208875 
L 147.989958 303.208875 
z
" style="fill:#008000;stroke:#008000;stroke-linejoin:miter;"/>
   </g>
   <g id="patch_71">
    <path clip-path="url(#p5672d981e9)" d="M 149.312625 303.208875 
L 151.957958 303.208875 
L 151.957958 254.824875 
L 149.312625 254.824875 
z
" style="fill:#008000;stroke:#008000;stroke-linejoin:miter;"/>
   </g>
   <g id="patch_72">
    <path clip-path="url(#p5672d981e9)" d="M 150.635292 303.208875 
L 153.280625 303.208875 
L 153.280625 303.208875 
L 150.635292 303.208875 
z
" style="fill:#008000;stroke:#008000;stroke-linejoin:miter;"/>
   </g>
   <g id="patch_73">
    <path clip-path="url(#p5672d981e9)" d="M 151.957958 303.208875 
L 154.603292 303.208875 
L 154.603292 303.208875 
L 151.957958 303.208875 
z
" style="fill:#008000;stroke:#008000;stroke-linejoin:miter;"/>
   </g>
   <g id="patch_74">
    <path clip-path="url(#p5672d981e9)" d="M 153.280625 303.208875 
L 155.925958 303.208875 
L 155.925958 303.208875 
L 153.280625 303.208875 
z
" style="fill:#008000;stroke:#008000;stroke-linejoin:miter;"/>
   </g>
   <g id="patch_75">
    <path clip-path="url(#p5672d981e9)" d="M 154.603292 303.208875 
L 157.248625 303.208875 
L 157.248625 303.208875 
L 154.603292 303.208875 
z
" style="fill:#008000;stroke:#008000;stroke-linejoin:miter;"/>
   </g>
   <g id="patch_76">
    <path clip-path="url(#p5672d981e9)" d="M 155.925958 303.208875 
L 158.571292 303.208875 
L 158.571292 303.208875 
L 155.925958 303.208875 
z
" style="fill:#008000;stroke:#008000;stroke-linejoin:miter;"/>
   </g>
   <g id="patch_77">
    <path clip-path="url(#p5672d981e9)" d="M 157.248625 303.208875 
L 159.893958 303.208875 
L 159.893958 303.208875 
L 157.248625 303.208875 
z
" style="fill:#008000;stroke:#008000;stroke-linejoin:miter;"/>
   </g>
   <g id="patch_78">
    <path clip-path="url(#p5672d981e9)" d="M 158.571292 303.208875 
L 161.216625 303.208875 
L 161.216625 303.208875 
L 158.571292 303.208875 
z
" style="fill:#008000;stroke:#008000;stroke-linejoin:miter;"/>
   </g>
   <g id="patch_79">
    <path clip-path="url(#p5672d981e9)" d="M 159.893958 303.208875 
L 162.539292 303.208875 
L 162.539292 303.208875 
L 159.893958 303.208875 
z
" style="fill:#008000;stroke:#008000;stroke-linejoin:miter;"/>
   </g>
   <g id="patch_80">
    <path clip-path="url(#p5672d981e9)" d="M 161.216625 303.208875 
L 163.861958 303.208875 
L 163.861958 303.208875 
L 161.216625 303.208875 
z
" style="fill:#008000;stroke:#008000;stroke-linejoin:miter;"/>
   </g>
   <g id="patch_81">
    <path clip-path="url(#p5672d981e9)" d="M 162.539292 303.208875 
L 165.184625 303.208875 
L 165.184625 303.208875 
L 162.539292 303.208875 
z
" style="fill:#008000;stroke:#008000;stroke-linejoin:miter;"/>
   </g>
   <g id="patch_82">
    <path clip-path="url(#p5672d981e9)" d="M 163.861958 303.208875 
L 166.507292 303.208875 
L 166.507292 303.208875 
L 163.861958 303.208875 
z
" style="fill:#008000;stroke:#008000;stroke-linejoin:miter;"/>
   </g>
   <g id="patch_83">
    <path clip-path="url(#p5672d981e9)" d="M 165.184625 303.208875 
L 167.829958 303.208875 
L 167.829958 303.208875 
L 165.184625 303.208875 
z
" style="fill:#008000;stroke:#008000;stroke-linejoin:miter;"/>
   </g>
   <g id="patch_84">
    <path clip-path="url(#p5672d981e9)" d="M 166.507292 303.208875 
L 169.152625 303.208875 
L 169.152625 303.208875 
L 166.507292 303.208875 
z
" style="fill:#008000;stroke:#008000;stroke-linejoin:miter;"/>
   </g>
   <g id="patch_85">
    <path clip-path="url(#p5672d981e9)" d="M 167.829958 303.208875 
L 170.475292 303.208875 
L 170.475292 254.824875 
L 167.829958 254.824875 
z
" style="fill:#008000;stroke:#008000;stroke-linejoin:miter;"/>
   </g>
   <g id="patch_86">
    <path clip-path="url(#p5672d981e9)" d="M 169.152625 303.208875 
L 171.797958 303.208875 
L 171.797958 303.208875 
L 169.152625 303.208875 
z
" style="fill:#008000;stroke:#008000;stroke-linejoin:miter;"/>
   </g>
   <g id="patch_87">
    <path clip-path="url(#p5672d981e9)" d="M 170.475292 303.208875 
L 173.120625 303.208875 
L 173.120625 303.208875 
L 170.475292 303.208875 
z
" style="fill:#008000;stroke:#008000;stroke-linejoin:miter;"/>
   </g>
   <g id="patch_88">
    <path clip-path="url(#p5672d981e9)" d="M 171.797958 303.208875 
L 174.443292 303.208875 
L 174.443292 303.208875 
L 171.797958 303.208875 
z
" style="fill:#008000;stroke:#008000;stroke-linejoin:miter;"/>
   </g>
   <g id="patch_89">
    <path clip-path="url(#p5672d981e9)" d="M 173.120625 303.208875 
L 175.765958 303.208875 
L 175.765958 303.208875 
L 173.120625 303.208875 
z
" style="fill:#008000;stroke:#008000;stroke-linejoin:miter;"/>
   </g>
   <g id="patch_90">
    <path clip-path="url(#p5672d981e9)" d="M 174.443292 303.208875 
L 177.088625 303.208875 
L 177.088625 303.208875 
L 174.443292 303.208875 
z
" style="fill:#008000;stroke:#008000;stroke-linejoin:miter;"/>
   </g>
   <g id="patch_91">
    <path clip-path="url(#p5672d981e9)" d="M 175.765958 303.208875 
L 178.411292 303.208875 
L 178.411292 206.440875 
L 175.765958 206.440875 
z
" style="fill:#008000;stroke:#008000;stroke-linejoin:miter;"/>
   </g>
   <g id="patch_92">
    <path clip-path="url(#p5672d981e9)" d="M 177.088625 303.208875 
L 179.733958 303.208875 
L 179.733958 303.208875 
L 177.088625 303.208875 
z
" style="fill:#008000;stroke:#008000;stroke-linejoin:miter;"/>
   </g>
   <g id="patch_93">
    <path clip-path="url(#p5672d981e9)" d="M 178.411292 303.208875 
L 181.056625 303.208875 
L 181.056625 206.440875 
L 178.411292 206.440875 
z
" style="fill:#008000;stroke:#008000;stroke-linejoin:miter;"/>
   </g>
   <g id="patch_94">
    <path clip-path="url(#p5672d981e9)" d="M 179.733958 303.208875 
L 182.379292 303.208875 
L 182.379292 303.208875 
L 179.733958 303.208875 
z
" style="fill:#008000;stroke:#008000;stroke-linejoin:miter;"/>
   </g>
   <g id="patch_95">
    <path clip-path="url(#p5672d981e9)" d="M 181.056625 303.208875 
L 183.701958 303.208875 
L 183.701958 303.208875 
L 181.056625 303.208875 
z
" style="fill:#008000;stroke:#008000;stroke-linejoin:miter;"/>
   </g>
   <g id="patch_96">
    <path clip-path="url(#p5672d981e9)" d="M 182.379292 303.208875 
L 185.024625 303.208875 
L 185.024625 254.824875 
L 182.379292 254.824875 
z
" style="fill:#008000;stroke:#008000;stroke-linejoin:miter;"/>
   </g>
   <g id="patch_97">
    <path clip-path="url(#p5672d981e9)" d="M 183.701958 303.208875 
L 186.347292 303.208875 
L 186.347292 254.824875 
L 183.701958 254.824875 
z
" style="fill:#008000;stroke:#008000;stroke-linejoin:miter;"/>
   </g>
   <g id="patch_98">
    <path clip-path="url(#p5672d981e9)" d="M 185.024625 303.208875 
L 187.669958 303.208875 
L 187.669958 303.208875 
L 185.024625 303.208875 
z
" style="fill:#008000;stroke:#008000;stroke-linejoin:miter;"/>
   </g>
   <g id="patch_99">
    <path clip-path="url(#p5672d981e9)" d="M 186.347292 303.208875 
L 188.992625 303.208875 
L 188.992625 254.824875 
L 186.347292 254.824875 
z
" style="fill:#008000;stroke:#008000;stroke-linejoin:miter;"/>
   </g>
   <g id="patch_100">
    <path clip-path="url(#p5672d981e9)" d="M 187.669958 303.208875 
L 190.315292 303.208875 
L 190.315292 206.440875 
L 187.669958 206.440875 
z
" style="fill:#008000;stroke:#008000;stroke-linejoin:miter;"/>
   </g>
   <g id="patch_101">
    <path clip-path="url(#p5672d981e9)" d="M 188.992625 303.208875 
L 191.637958 303.208875 
L 191.637958 303.208875 
L 188.992625 303.208875 
z
" style="fill:#008000;stroke:#008000;stroke-linejoin:miter;"/>
   </g>
   <g id="patch_102">
    <path clip-path="url(#p5672d981e9)" d="M 190.315292 303.208875 
L 192.960625 303.208875 
L 192.960625 303.208875 
L 190.315292 303.208875 
z
" style="fill:#008000;stroke:#008000;stroke-linejoin:miter;"/>
   </g>
   <g id="patch_103">
    <path clip-path="url(#p5672d981e9)" d="M 191.637958 303.208875 
L 194.283292 303.208875 
L 194.283292 303.208875 
L 191.637958 303.208875 
z
" style="fill:#008000;stroke:#008000;stroke-linejoin:miter;"/>
   </g>
   <g id="patch_104">
    <path clip-path="url(#p5672d981e9)" d="M 192.960625 303.208875 
L 195.605958 303.208875 
L 195.605958 254.824875 
L 192.960625 254.824875 
z
" style="fill:#008000;stroke:#008000;stroke-linejoin:miter;"/>
   </g>
   <g id="patch_105">
    <path clip-path="url(#p5672d981e9)" d="M 194.283292 303.208875 
L 196.928625 303.208875 
L 196.928625 303.208875 
L 194.283292 303.208875 
z
" style="fill:#008000;stroke:#008000;stroke-linejoin:miter;"/>
   </g>
   <g id="patch_106">
    <path clip-path="url(#p5672d981e9)" d="M 195.605958 303.208875 
L 198.251292 303.208875 
L 198.251292 254.824875 
L 195.605958 254.824875 
z
" style="fill:#008000;stroke:#008000;stroke-linejoin:miter;"/>
   </g>
   <g id="patch_107">
    <path clip-path="url(#p5672d981e9)" d="M 196.928625 303.208875 
L 199.573958 303.208875 
L 199.573958 254.824875 
L 196.928625 254.824875 
z
" style="fill:#008000;stroke:#008000;stroke-linejoin:miter;"/>
   </g>
   <g id="patch_108">
    <path clip-path="url(#p5672d981e9)" d="M 198.251292 303.208875 
L 200.896625 303.208875 
L 200.896625 109.672875 
L 198.251292 109.672875 
z
" style="fill:#008000;stroke:#008000;stroke-linejoin:miter;"/>
   </g>
   <g id="patch_109">
    <path clip-path="url(#p5672d981e9)" d="M 199.573958 303.208875 
L 202.219292 303.208875 
L 202.219292 303.208875 
L 199.573958 303.208875 
z
" style="fill:#008000;stroke:#008000;stroke-linejoin:miter;"/>
   </g>
   <g id="patch_110">
    <path clip-path="url(#p5672d981e9)" d="M 200.896625 303.208875 
L 203.541958 303.208875 
L 203.541958 254.824875 
L 200.896625 254.824875 
z
" style="fill:#008000;stroke:#008000;stroke-linejoin:miter;"/>
   </g>
   <g id="patch_111">
    <path clip-path="url(#p5672d981e9)" d="M 202.219292 303.208875 
L 204.864625 303.208875 
L 204.864625 254.824875 
L 202.219292 254.824875 
z
" style="fill:#008000;stroke:#008000;stroke-linejoin:miter;"/>
   </g>
   <g id="patch_112">
    <path clip-path="url(#p5672d981e9)" d="M 203.541958 303.208875 
L 206.187292 303.208875 
L 206.187292 303.208875 
L 203.541958 303.208875 
z
" style="fill:#008000;stroke:#008000;stroke-linejoin:miter;"/>
   </g>
   <g id="patch_113">
    <path clip-path="url(#p5672d981e9)" d="M 204.864625 303.208875 
L 207.509958 303.208875 
L 207.509958 303.208875 
L 204.864625 303.208875 
z
" style="fill:#008000;stroke:#008000;stroke-linejoin:miter;"/>
   </g>
   <g id="patch_114">
    <path clip-path="url(#p5672d981e9)" d="M 206.187292 303.208875 
L 208.832625 303.208875 
L 208.832625 303.208875 
L 206.187292 303.208875 
z
" style="fill:#008000;stroke:#008000;stroke-linejoin:miter;"/>
   </g>
   <g id="patch_115">
    <path clip-path="url(#p5672d981e9)" d="M 207.509958 303.208875 
L 210.155292 303.208875 
L 210.155292 158.056875 
L 207.509958 158.056875 
z
" style="fill:#008000;stroke:#008000;stroke-linejoin:miter;"/>
   </g>
   <g id="patch_116">
    <path clip-path="url(#p5672d981e9)" d="M 208.832625 303.208875 
L 211.477958 303.208875 
L 211.477958 254.824875 
L 208.832625 254.824875 
z
" style="fill:#008000;stroke:#008000;stroke-linejoin:miter;"/>
   </g>
   <g id="patch_117">
    <path clip-path="url(#p5672d981e9)" d="M 210.155292 303.208875 
L 212.800625 303.208875 
L 212.800625 303.208875 
L 210.155292 303.208875 
z
" style="fill:#008000;stroke:#008000;stroke-linejoin:miter;"/>
   </g>
   <g id="patch_118">
    <path clip-path="url(#p5672d981e9)" d="M 211.477958 303.208875 
L 214.123292 303.208875 
L 214.123292 303.208875 
L 211.477958 303.208875 
z
" style="fill:#008000;stroke:#008000;stroke-linejoin:miter;"/>
   </g>
   <g id="patch_119">
    <path clip-path="url(#p5672d981e9)" d="M 212.800625 303.208875 
L 215.445958 303.208875 
L 215.445958 303.208875 
L 212.800625 303.208875 
z
" style="fill:#008000;stroke:#008000;stroke-linejoin:miter;"/>
   </g>
   <g id="patch_120">
    <path clip-path="url(#p5672d981e9)" d="M 214.123292 303.208875 
L 216.768625 303.208875 
L 216.768625 254.824875 
L 214.123292 254.824875 
z
" style="fill:#008000;stroke:#008000;stroke-linejoin:miter;"/>
   </g>
   <g id="patch_121">
    <path clip-path="url(#p5672d981e9)" d="M 215.445958 303.208875 
L 218.091292 303.208875 
L 218.091292 303.208875 
L 215.445958 303.208875 
z
" style="fill:#008000;stroke:#008000;stroke-linejoin:miter;"/>
   </g>
   <g id="patch_122">
    <path clip-path="url(#p5672d981e9)" d="M 216.768625 303.208875 
L 219.413958 303.208875 
L 219.413958 303.208875 
L 216.768625 303.208875 
z
" style="fill:#008000;stroke:#008000;stroke-linejoin:miter;"/>
   </g>
   <g id="patch_123">
    <path clip-path="url(#p5672d981e9)" d="M 218.091292 303.208875 
L 220.736625 303.208875 
L 220.736625 206.440875 
L 218.091292 206.440875 
z
" style="fill:#008000;stroke:#008000;stroke-linejoin:miter;"/>
   </g>
   <g id="patch_124">
    <path clip-path="url(#p5672d981e9)" d="M 219.413958 303.208875 
L 222.059292 303.208875 
L 222.059292 303.208875 
L 219.413958 303.208875 
z
" style="fill:#008000;stroke:#008000;stroke-linejoin:miter;"/>
   </g>
   <g id="patch_125">
    <path clip-path="url(#p5672d981e9)" d="M 220.736625 303.208875 
L 223.381958 303.208875 
L 223.381958 254.824875 
L 220.736625 254.824875 
z
" style="fill:#008000;stroke:#008000;stroke-linejoin:miter;"/>
   </g>
   <g id="patch_126">
    <path clip-path="url(#p5672d981e9)" d="M 222.059292 303.208875 
L 224.704625 303.208875 
L 224.704625 254.824875 
L 222.059292 254.824875 
z
" style="fill:#008000;stroke:#008000;stroke-linejoin:miter;"/>
   </g>
   <g id="patch_127">
    <path clip-path="url(#p5672d981e9)" d="M 223.381958 303.208875 
L 226.027292 303.208875 
L 226.027292 303.208875 
L 223.381958 303.208875 
z
" style="fill:#008000;stroke:#008000;stroke-linejoin:miter;"/>
   </g>
   <g id="patch_128">
    <path clip-path="url(#p5672d981e9)" d="M 224.704625 303.208875 
L 227.349958 303.208875 
L 227.349958 303.208875 
L 224.704625 303.208875 
z
" style="fill:#008000;stroke:#008000;stroke-linejoin:miter;"/>
   </g>
   <g id="patch_129">
    <path clip-path="url(#p5672d981e9)" d="M 226.027292 303.208875 
L 228.672625 303.208875 
L 228.672625 254.824875 
L 226.027292 254.824875 
z
" style="fill:#008000;stroke:#008000;stroke-linejoin:miter;"/>
   </g>
   <g id="patch_130">
    <path clip-path="url(#p5672d981e9)" d="M 227.349958 303.208875 
L 229.995292 303.208875 
L 229.995292 303.208875 
L 227.349958 303.208875 
z
" style="fill:#008000;stroke:#008000;stroke-linejoin:miter;"/>
   </g>
   <g id="patch_131">
    <path clip-path="url(#p5672d981e9)" d="M 228.672625 303.208875 
L 231.317958 303.208875 
L 231.317958 303.208875 
L 228.672625 303.208875 
z
" style="fill:#008000;stroke:#008000;stroke-linejoin:miter;"/>
   </g>
   <g id="patch_132">
    <path clip-path="url(#p5672d981e9)" d="M 229.995292 303.208875 
L 232.640625 303.208875 
L 232.640625 254.824875 
L 229.995292 254.824875 
z
" style="fill:#008000;stroke:#008000;stroke-linejoin:miter;"/>
   </g>
   <g id="patch_133">
    <path clip-path="url(#p5672d981e9)" d="M 231.317958 303.208875 
L 233.963292 303.208875 
L 233.963292 254.824875 
L 231.317958 254.824875 
z
" style="fill:#008000;stroke:#008000;stroke-linejoin:miter;"/>
   </g>
   <g id="patch_134">
    <path clip-path="url(#p5672d981e9)" d="M 232.640625 303.208875 
L 235.285958 303.208875 
L 235.285958 254.824875 
L 232.640625 254.824875 
z
" style="fill:#008000;stroke:#008000;stroke-linejoin:miter;"/>
   </g>
   <g id="patch_135">
    <path clip-path="url(#p5672d981e9)" d="M 233.963292 303.208875 
L 236.608625 303.208875 
L 236.608625 303.208875 
L 233.963292 303.208875 
z
" style="fill:#008000;stroke:#008000;stroke-linejoin:miter;"/>
   </g>
   <g id="patch_136">
    <path clip-path="url(#p5672d981e9)" d="M 235.285958 303.208875 
L 237.931292 303.208875 
L 237.931292 303.208875 
L 235.285958 303.208875 
z
" style="fill:#008000;stroke:#008000;stroke-linejoin:miter;"/>
   </g>
   <g id="patch_137">
    <path clip-path="url(#p5672d981e9)" d="M 236.608625 303.208875 
L 239.253958 303.208875 
L 239.253958 303.208875 
L 236.608625 303.208875 
z
" style="fill:#008000;stroke:#008000;stroke-linejoin:miter;"/>
   </g>
   <g id="patch_138">
    <path clip-path="url(#p5672d981e9)" d="M 237.931292 303.208875 
L 240.576625 303.208875 
L 240.576625 303.208875 
L 237.931292 303.208875 
z
" style="fill:#008000;stroke:#008000;stroke-linejoin:miter;"/>
   </g>
   <g id="patch_139">
    <path clip-path="url(#p5672d981e9)" d="M 239.253958 303.208875 
L 241.899292 303.208875 
L 241.899292 303.208875 
L 239.253958 303.208875 
z
" style="fill:#008000;stroke:#008000;stroke-linejoin:miter;"/>
   </g>
   <g id="patch_140">
    <path clip-path="url(#p5672d981e9)" d="M 240.576625 303.208875 
L 243.221958 303.208875 
L 243.221958 303.208875 
L 240.576625 303.208875 
z
" style="fill:#008000;stroke:#008000;stroke-linejoin:miter;"/>
   </g>
   <g id="patch_141">
    <path clip-path="url(#p5672d981e9)" d="M 241.899292 303.208875 
L 244.544625 303.208875 
L 244.544625 303.208875 
L 241.899292 303.208875 
z
" style="fill:#008000;stroke:#008000;stroke-linejoin:miter;"/>
   </g>
   <g id="patch_142">
    <path clip-path="url(#p5672d981e9)" d="M 243.221958 303.208875 
L 245.867292 303.208875 
L 245.867292 254.824875 
L 243.221958 254.824875 
z
" style="fill:#008000;stroke:#008000;stroke-linejoin:miter;"/>
   </g>
   <g id="patch_143">
    <path clip-path="url(#p5672d981e9)" d="M 244.544625 303.208875 
L 247.189958 303.208875 
L 247.189958 303.208875 
L 244.544625 303.208875 
z
" style="fill:#008000;stroke:#008000;stroke-linejoin:miter;"/>
   </g>
   <g id="patch_144">
    <path clip-path="url(#p5672d981e9)" d="M 245.867292 303.208875 
L 248.512625 303.208875 
L 248.512625 303.208875 
L 245.867292 303.208875 
z
" style="fill:#008000;stroke:#008000;stroke-linejoin:miter;"/>
   </g>
   <g id="patch_145">
    <path clip-path="url(#p5672d981e9)" d="M 247.189958 303.208875 
L 249.835292 303.208875 
L 249.835292 303.208875 
L 247.189958 303.208875 
z
" style="fill:#008000;stroke:#008000;stroke-linejoin:miter;"/>
   </g>
   <g id="patch_146">
    <path clip-path="url(#p5672d981e9)" d="M 248.512625 303.208875 
L 251.157958 303.208875 
L 251.157958 303.208875 
L 248.512625 303.208875 
z
" style="fill:#008000;stroke:#008000;stroke-linejoin:miter;"/>
   </g>
   <g id="patch_147">
    <path clip-path="url(#p5672d981e9)" d="M 249.835292 303.208875 
L 252.480625 303.208875 
L 252.480625 303.208875 
L 249.835292 303.208875 
z
" style="fill:#008000;stroke:#008000;stroke-linejoin:miter;"/>
   </g>
   <g id="patch_148">
    <path clip-path="url(#p5672d981e9)" d="M 251.157958 303.208875 
L 253.803292 303.208875 
L 253.803292 303.208875 
L 251.157958 303.208875 
z
" style="fill:#008000;stroke:#008000;stroke-linejoin:miter;"/>
   </g>
   <g id="patch_149">
    <path clip-path="url(#p5672d981e9)" d="M 252.480625 303.208875 
L 255.125958 303.208875 
L 255.125958 303.208875 
L 252.480625 303.208875 
z
" style="fill:#008000;stroke:#008000;stroke-linejoin:miter;"/>
   </g>
   <g id="patch_150">
    <path clip-path="url(#p5672d981e9)" d="M 253.803292 303.208875 
L 256.448625 303.208875 
L 256.448625 303.208875 
L 253.803292 303.208875 
z
" style="fill:#008000;stroke:#008000;stroke-linejoin:miter;"/>
   </g>
   <g id="patch_151">
    <path clip-path="url(#p5672d981e9)" d="M 255.125958 303.208875 
L 257.771292 303.208875 
L 257.771292 206.440875 
L 255.125958 206.440875 
z
" style="fill:#008000;stroke:#008000;stroke-linejoin:miter;"/>
   </g>
   <g id="patch_152">
    <path clip-path="url(#p5672d981e9)" d="M 256.448625 303.208875 
L 259.093958 303.208875 
L 259.093958 303.208875 
L 256.448625 303.208875 
z
" style="fill:#008000;stroke:#008000;stroke-linejoin:miter;"/>
   </g>
   <g id="patch_153">
    <path clip-path="url(#p5672d981e9)" d="M 257.771292 303.208875 
L 260.416625 303.208875 
L 260.416625 303.208875 
L 257.771292 303.208875 
z
" style="fill:#008000;stroke:#008000;stroke-linejoin:miter;"/>
   </g>
   <g id="patch_154">
    <path clip-path="url(#p5672d981e9)" d="M 259.093958 303.208875 
L 261.739292 303.208875 
L 261.739292 303.208875 
L 259.093958 303.208875 
z
" style="fill:#008000;stroke:#008000;stroke-linejoin:miter;"/>
   </g>
   <g id="patch_155">
    <path clip-path="url(#p5672d981e9)" d="M 260.416625 303.208875 
L 263.061958 303.208875 
L 263.061958 303.208875 
L 260.416625 303.208875 
z
" style="fill:#008000;stroke:#008000;stroke-linejoin:miter;"/>
   </g>
   <g id="patch_156">
    <path clip-path="url(#p5672d981e9)" d="M 261.739292 303.208875 
L 264.384625 303.208875 
L 264.384625 303.208875 
L 261.739292 303.208875 
z
" style="fill:#008000;stroke:#008000;stroke-linejoin:miter;"/>
   </g>
   <g id="patch_157">
    <path clip-path="url(#p5672d981e9)" d="M 263.061958 303.208875 
L 265.707292 303.208875 
L 265.707292 254.824875 
L 263.061958 254.824875 
z
" style="fill:#008000;stroke:#008000;stroke-linejoin:miter;"/>
   </g>
   <g id="patch_158">
    <path clip-path="url(#p5672d981e9)" d="M 264.384625 303.208875 
L 267.029958 303.208875 
L 267.029958 254.824875 
L 264.384625 254.824875 
z
" style="fill:#008000;stroke:#008000;stroke-linejoin:miter;"/>
   </g>
   <g id="patch_159">
    <path clip-path="url(#p5672d981e9)" d="M 265.707292 303.208875 
L 268.352625 303.208875 
L 268.352625 254.824875 
L 265.707292 254.824875 
z
" style="fill:#008000;stroke:#008000;stroke-linejoin:miter;"/>
   </g>
   <g id="patch_160">
    <path clip-path="url(#p5672d981e9)" d="M 267.029958 303.208875 
L 269.675292 303.208875 
L 269.675292 254.824875 
L 267.029958 254.824875 
z
" style="fill:#008000;stroke:#008000;stroke-linejoin:miter;"/>
   </g>
   <g id="patch_161">
    <path clip-path="url(#p5672d981e9)" d="M 268.352625 303.208875 
L 270.997958 303.208875 
L 270.997958 303.208875 
L 268.352625 303.208875 
z
" style="fill:#008000;stroke:#008000;stroke-linejoin:miter;"/>
   </g>
   <g id="patch_162">
    <path clip-path="url(#p5672d981e9)" d="M 269.675292 303.208875 
L 272.320625 303.208875 
L 272.320625 254.824875 
L 269.675292 254.824875 
z
" style="fill:#008000;stroke:#008000;stroke-linejoin:miter;"/>
   </g>
   <g id="patch_163">
    <path clip-path="url(#p5672d981e9)" d="M 270.997958 303.208875 
L 273.643292 303.208875 
L 273.643292 206.440875 
L 270.997958 206.440875 
z
" style="fill:#008000;stroke:#008000;stroke-linejoin:miter;"/>
   </g>
   <g id="patch_164">
    <path clip-path="url(#p5672d981e9)" d="M 272.320625 303.208875 
L 274.965958 303.208875 
L 274.965958 303.208875 
L 272.320625 303.208875 
z
" style="fill:#008000;stroke:#008000;stroke-linejoin:miter;"/>
   </g>
   <g id="patch_165">
    <path clip-path="url(#p5672d981e9)" d="M 273.643292 303.208875 
L 276.288625 303.208875 
L 276.288625 303.208875 
L 273.643292 303.208875 
z
" style="fill:#008000;stroke:#008000;stroke-linejoin:miter;"/>
   </g>
   <g id="patch_166">
    <path clip-path="url(#p5672d981e9)" d="M 274.965958 303.208875 
L 277.611292 303.208875 
L 277.611292 303.208875 
L 274.965958 303.208875 
z
" style="fill:#008000;stroke:#008000;stroke-linejoin:miter;"/>
   </g>
   <g id="patch_167">
    <path clip-path="url(#p5672d981e9)" d="M 276.288625 303.208875 
L 278.933958 303.208875 
L 278.933958 254.824875 
L 276.288625 254.824875 
z
" style="fill:#008000;stroke:#008000;stroke-linejoin:miter;"/>
   </g>
   <g id="patch_168">
    <path clip-path="url(#p5672d981e9)" d="M 277.611292 303.208875 
L 280.256625 303.208875 
L 280.256625 303.208875 
L 277.611292 303.208875 
z
" style="fill:#008000;stroke:#008000;stroke-linejoin:miter;"/>
   </g>
   <g id="patch_169">
    <path clip-path="url(#p5672d981e9)" d="M 278.933958 303.208875 
L 281.579292 303.208875 
L 281.579292 303.208875 
L 278.933958 303.208875 
z
" style="fill:#008000;stroke:#008000;stroke-linejoin:miter;"/>
   </g>
   <g id="patch_170">
    <path clip-path="url(#p5672d981e9)" d="M 280.256625 303.208875 
L 282.901958 303.208875 
L 282.901958 303.208875 
L 280.256625 303.208875 
z
" style="fill:#008000;stroke:#008000;stroke-linejoin:miter;"/>
   </g>
   <g id="patch_171">
    <path clip-path="url(#p5672d981e9)" d="M 281.579292 303.208875 
L 284.224625 303.208875 
L 284.224625 303.208875 
L 281.579292 303.208875 
z
" style="fill:#008000;stroke:#008000;stroke-linejoin:miter;"/>
   </g>
   <g id="patch_172">
    <path clip-path="url(#p5672d981e9)" d="M 282.901958 303.208875 
L 285.547292 303.208875 
L 285.547292 254.824875 
L 282.901958 254.824875 
z
" style="fill:#008000;stroke:#008000;stroke-linejoin:miter;"/>
   </g>
   <g id="patch_173">
    <path clip-path="url(#p5672d981e9)" d="M 284.224625 303.208875 
L 286.869958 303.208875 
L 286.869958 303.208875 
L 284.224625 303.208875 
z
" style="fill:#008000;stroke:#008000;stroke-linejoin:miter;"/>
   </g>
   <g id="patch_174">
    <path clip-path="url(#p5672d981e9)" d="M 285.547292 303.208875 
L 288.192625 303.208875 
L 288.192625 303.208875 
L 285.547292 303.208875 
z
" style="fill:#008000;stroke:#008000;stroke-linejoin:miter;"/>
   </g>
   <g id="patch_175">
    <path clip-path="url(#p5672d981e9)" d="M 286.869958 303.208875 
L 289.515292 303.208875 
L 289.515292 254.824875 
L 286.869958 254.824875 
z
" style="fill:#008000;stroke:#008000;stroke-linejoin:miter;"/>
   </g>
   <g id="patch_176">
    <path clip-path="url(#p5672d981e9)" d="M 288.192625 303.208875 
L 290.837958 303.208875 
L 290.837958 254.824875 
L 288.192625 254.824875 
z
" style="fill:#008000;stroke:#008000;stroke-linejoin:miter;"/>
   </g>
   <g id="patch_177">
    <path clip-path="url(#p5672d981e9)" d="M 289.515292 303.208875 
L 292.160625 303.208875 
L 292.160625 254.824875 
L 289.515292 254.824875 
z
" style="fill:#008000;stroke:#008000;stroke-linejoin:miter;"/>
   </g>
   <g id="patch_178">
    <path clip-path="url(#p5672d981e9)" d="M 290.837958 303.208875 
L 293.483292 303.208875 
L 293.483292 303.208875 
L 290.837958 303.208875 
z
" style="fill:#008000;stroke:#008000;stroke-linejoin:miter;"/>
   </g>
   <g id="patch_179">
    <path clip-path="url(#p5672d981e9)" d="M 292.160625 303.208875 
L 294.805958 303.208875 
L 294.805958 303.208875 
L 292.160625 303.208875 
z
" style="fill:#008000;stroke:#008000;stroke-linejoin:miter;"/>
   </g>
   <g id="patch_180">
    <path clip-path="url(#p5672d981e9)" d="M 293.483292 303.208875 
L 296.128625 303.208875 
L 296.128625 254.824875 
L 293.483292 254.824875 
z
" style="fill:#008000;stroke:#008000;stroke-linejoin:miter;"/>
   </g>
   <g id="patch_181">
    <path clip-path="url(#p5672d981e9)" d="M 294.805958 303.208875 
L 297.451292 303.208875 
L 297.451292 303.208875 
L 294.805958 303.208875 
z
" style="fill:#008000;stroke:#008000;stroke-linejoin:miter;"/>
   </g>
   <g id="patch_182">
    <path clip-path="url(#p5672d981e9)" d="M 296.128625 303.208875 
L 298.773958 303.208875 
L 298.773958 303.208875 
L 296.128625 303.208875 
z
" style="fill:#008000;stroke:#008000;stroke-linejoin:miter;"/>
   </g>
   <g id="patch_183">
    <path clip-path="url(#p5672d981e9)" d="M 297.451292 303.208875 
L 300.096625 303.208875 
L 300.096625 254.824875 
L 297.451292 254.824875 
z
" style="fill:#008000;stroke:#008000;stroke-linejoin:miter;"/>
   </g>
   <g id="patch_184">
    <path clip-path="url(#p5672d981e9)" d="M 298.773958 303.208875 
L 301.419292 303.208875 
L 301.419292 303.208875 
L 298.773958 303.208875 
z
" style="fill:#008000;stroke:#008000;stroke-linejoin:miter;"/>
   </g>
   <g id="patch_185">
    <path clip-path="url(#p5672d981e9)" d="M 300.096625 303.208875 
L 302.741958 303.208875 
L 302.741958 303.208875 
L 300.096625 303.208875 
z
" style="fill:#008000;stroke:#008000;stroke-linejoin:miter;"/>
   </g>
   <g id="patch_186">
    <path clip-path="url(#p5672d981e9)" d="M 301.419292 303.208875 
L 304.064625 303.208875 
L 304.064625 303.208875 
L 301.419292 303.208875 
z
" style="fill:#008000;stroke:#008000;stroke-linejoin:miter;"/>
   </g>
   <g id="patch_187">
    <path clip-path="url(#p5672d981e9)" d="M 302.741958 303.208875 
L 305.387292 303.208875 
L 305.387292 303.208875 
L 302.741958 303.208875 
z
" style="fill:#008000;stroke:#008000;stroke-linejoin:miter;"/>
   </g>
   <g id="patch_188">
    <path clip-path="url(#p5672d981e9)" d="M 304.064625 303.208875 
L 306.709958 303.208875 
L 306.709958 303.208875 
L 304.064625 303.208875 
z
" style="fill:#008000;stroke:#008000;stroke-linejoin:miter;"/>
   </g>
   <g id="patch_189">
    <path clip-path="url(#p5672d981e9)" d="M 305.387292 303.208875 
L 308.032625 303.208875 
L 308.032625 303.208875 
L 305.387292 303.208875 
z
" style="fill:#008000;stroke:#008000;stroke-linejoin:miter;"/>
   </g>
   <g id="patch_190">
    <path clip-path="url(#p5672d981e9)" d="M 306.709958 303.208875 
L 309.355292 303.208875 
L 309.355292 303.208875 
L 306.709958 303.208875 
z
" style="fill:#008000;stroke:#008000;stroke-linejoin:miter;"/>
   </g>
   <g id="patch_191">
    <path clip-path="url(#p5672d981e9)" d="M 308.032625 303.208875 
L 310.677958 303.208875 
L 310.677958 303.208875 
L 308.032625 303.208875 
z
" style="fill:#008000;stroke:#008000;stroke-linejoin:miter;"/>
   </g>
   <g id="patch_192">
    <path clip-path="url(#p5672d981e9)" d="M 309.355292 303.208875 
L 312.000625 303.208875 
L 312.000625 303.208875 
L 309.355292 303.208875 
z
" style="fill:#008000;stroke:#008000;stroke-linejoin:miter;"/>
   </g>
   <g id="patch_193">
    <path clip-path="url(#p5672d981e9)" d="M 310.677958 303.208875 
L 313.323292 303.208875 
L 313.323292 303.208875 
L 310.677958 303.208875 
z
" style="fill:#008000;stroke:#008000;stroke-linejoin:miter;"/>
   </g>
   <g id="patch_194">
    <path clip-path="url(#p5672d981e9)" d="M 312.000625 303.208875 
L 314.645958 303.208875 
L 314.645958 254.824875 
L 312.000625 254.824875 
z
" style="fill:#008000;stroke:#008000;stroke-linejoin:miter;"/>
   </g>
   <g id="patch_195">
    <path clip-path="url(#p5672d981e9)" d="M 313.323292 303.208875 
L 315.968625 303.208875 
L 315.968625 303.208875 
L 313.323292 303.208875 
z
" style="fill:#008000;stroke:#008000;stroke-linejoin:miter;"/>
   </g>
   <g id="patch_196">
    <path clip-path="url(#p5672d981e9)" d="M 314.645958 303.208875 
L 317.291292 303.208875 
L 317.291292 303.208875 
L 314.645958 303.208875 
z
" style="fill:#008000;stroke:#008000;stroke-linejoin:miter;"/>
   </g>
   <g id="patch_197">
    <path clip-path="url(#p5672d981e9)" d="M 315.968625 303.208875 
L 318.613958 303.208875 
L 318.613958 303.208875 
L 315.968625 303.208875 
z
" style="fill:#008000;stroke:#008000;stroke-linejoin:miter;"/>
   </g>
   <g id="patch_198">
    <path clip-path="url(#p5672d981e9)" d="M 317.291292 303.208875 
L 319.936625 303.208875 
L 319.936625 254.824875 
L 317.291292 254.824875 
z
" style="fill:#008000;stroke:#008000;stroke-linejoin:miter;"/>
   </g>
   <g id="patch_199">
    <path clip-path="url(#p5672d981e9)" d="M 318.613958 303.208875 
L 321.259292 303.208875 
L 321.259292 303.208875 
L 318.613958 303.208875 
z
" style="fill:#008000;stroke:#008000;stroke-linejoin:miter;"/>
   </g>
   <g id="patch_200">
    <path clip-path="url(#p5672d981e9)" d="M 319.936625 303.208875 
L 322.581958 303.208875 
L 322.581958 303.208875 
L 319.936625 303.208875 
z
" style="fill:#008000;stroke:#008000;stroke-linejoin:miter;"/>
   </g>
   <g id="patch_201">
    <path clip-path="url(#p5672d981e9)" d="M 321.259292 303.208875 
L 323.904625 303.208875 
L 323.904625 303.208875 
L 321.259292 303.208875 
z
" style="fill:#008000;stroke:#008000;stroke-linejoin:miter;"/>
   </g>
   <g id="patch_202">
    <path clip-path="url(#p5672d981e9)" d="M 322.581958 303.208875 
L 325.227292 303.208875 
L 325.227292 303.208875 
L 322.581958 303.208875 
z
" style="fill:#008000;stroke:#008000;stroke-linejoin:miter;"/>
   </g>
   <g id="patch_203">
    <path clip-path="url(#p5672d981e9)" d="M 323.904625 303.208875 
L 326.549958 303.208875 
L 326.549958 303.208875 
L 323.904625 303.208875 
z
" style="fill:#008000;stroke:#008000;stroke-linejoin:miter;"/>
   </g>
   <g id="patch_204">
    <path clip-path="url(#p5672d981e9)" d="M 325.227292 303.208875 
L 327.872625 303.208875 
L 327.872625 303.208875 
L 325.227292 303.208875 
z
" style="fill:#008000;stroke:#008000;stroke-linejoin:miter;"/>
   </g>
   <g id="patch_205">
    <path clip-path="url(#p5672d981e9)" d="M 326.549958 303.208875 
L 329.195292 303.208875 
L 329.195292 303.208875 
L 326.549958 303.208875 
z
" style="fill:#008000;stroke:#008000;stroke-linejoin:miter;"/>
   </g>
   <g id="patch_206">
    <path clip-path="url(#p5672d981e9)" d="M 327.872625 303.208875 
L 330.517958 303.208875 
L 330.517958 303.208875 
L 327.872625 303.208875 
z
" style="fill:#008000;stroke:#008000;stroke-linejoin:miter;"/>
   </g>
   <g id="patch_207">
    <path clip-path="url(#p5672d981e9)" d="M 329.195292 303.208875 
L 331.840625 303.208875 
L 331.840625 254.824875 
L 329.195292 254.824875 
z
" style="fill:#008000;stroke:#008000;stroke-linejoin:miter;"/>
   </g>
   <g id="patch_208">
    <path clip-path="url(#p5672d981e9)" d="M 330.517958 303.208875 
L 333.163292 303.208875 
L 333.163292 303.208875 
L 330.517958 303.208875 
z
" style="fill:#008000;stroke:#008000;stroke-linejoin:miter;"/>
   </g>
   <g id="patch_209">
    <path clip-path="url(#p5672d981e9)" d="M 331.840625 303.208875 
L 334.485958 303.208875 
L 334.485958 303.208875 
L 331.840625 303.208875 
z
" style="fill:#008000;stroke:#008000;stroke-linejoin:miter;"/>
   </g>
   <g id="patch_210">
    <path clip-path="url(#p5672d981e9)" d="M 333.163292 303.208875 
L 335.808625 303.208875 
L 335.808625 303.208875 
L 333.163292 303.208875 
z
" style="fill:#008000;stroke:#008000;stroke-linejoin:miter;"/>
   </g>
   <g id="patch_211">
    <path clip-path="url(#p5672d981e9)" d="M 334.485958 303.208875 
L 337.131292 303.208875 
L 337.131292 303.208875 
L 334.485958 303.208875 
z
" style="fill:#008000;stroke:#008000;stroke-linejoin:miter;"/>
   </g>
   <g id="patch_212">
    <path clip-path="url(#p5672d981e9)" d="M 335.808625 303.208875 
L 338.453958 303.208875 
L 338.453958 303.208875 
L 335.808625 303.208875 
z
" style="fill:#008000;stroke:#008000;stroke-linejoin:miter;"/>
   </g>
   <g id="patch_213">
    <path clip-path="url(#p5672d981e9)" d="M 337.131292 303.208875 
L 339.776625 303.208875 
L 339.776625 254.824875 
L 337.131292 254.824875 
z
" style="fill:#008000;stroke:#008000;stroke-linejoin:miter;"/>
   </g>
   <g id="patch_214">
    <path clip-path="url(#p5672d981e9)" d="M 338.453958 303.208875 
L 341.099292 303.208875 
L 341.099292 303.208875 
L 338.453958 303.208875 
z
" style="fill:#008000;stroke:#008000;stroke-linejoin:miter;"/>
   </g>
   <g id="patch_215">
    <path clip-path="url(#p5672d981e9)" d="M 339.776625 303.208875 
L 342.421958 303.208875 
L 342.421958 303.208875 
L 339.776625 303.208875 
z
" style="fill:#008000;stroke:#008000;stroke-linejoin:miter;"/>
   </g>
   <g id="patch_216">
    <path clip-path="url(#p5672d981e9)" d="M 341.099292 303.208875 
L 343.744625 303.208875 
L 343.744625 254.824875 
L 341.099292 254.824875 
z
" style="fill:#008000;stroke:#008000;stroke-linejoin:miter;"/>
   </g>
   <g id="patch_217">
    <path clip-path="url(#p5672d981e9)" d="M 342.421958 303.208875 
L 345.067292 303.208875 
L 345.067292 303.208875 
L 342.421958 303.208875 
z
" style="fill:#008000;stroke:#008000;stroke-linejoin:miter;"/>
   </g>
   <g id="patch_218">
    <path clip-path="url(#p5672d981e9)" d="M 343.744625 303.208875 
L 346.389958 303.208875 
L 346.389958 254.824875 
L 343.744625 254.824875 
z
" style="fill:#008000;stroke:#008000;stroke-linejoin:miter;"/>
   </g>
   <g id="patch_219">
    <path clip-path="url(#p5672d981e9)" d="M 345.067292 303.208875 
L 347.712625 303.208875 
L 347.712625 303.208875 
L 345.067292 303.208875 
z
" style="fill:#008000;stroke:#008000;stroke-linejoin:miter;"/>
   </g>
   <g id="patch_220">
    <path clip-path="url(#p5672d981e9)" d="M 346.389958 303.208875 
L 349.035292 303.208875 
L 349.035292 303.208875 
L 346.389958 303.208875 
z
" style="fill:#008000;stroke:#008000;stroke-linejoin:miter;"/>
   </g>
   <g id="patch_221">
    <path clip-path="url(#p5672d981e9)" d="M 347.712625 303.208875 
L 350.357958 303.208875 
L 350.357958 303.208875 
L 347.712625 303.208875 
z
" style="fill:#008000;stroke:#008000;stroke-linejoin:miter;"/>
   </g>
   <g id="patch_222">
    <path clip-path="url(#p5672d981e9)" d="M 349.035292 303.208875 
L 351.680625 303.208875 
L 351.680625 303.208875 
L 349.035292 303.208875 
z
" style="fill:#008000;stroke:#008000;stroke-linejoin:miter;"/>
   </g>
   <g id="patch_223">
    <path clip-path="url(#p5672d981e9)" d="M 350.357958 303.208875 
L 353.003292 303.208875 
L 353.003292 303.208875 
L 350.357958 303.208875 
z
" style="fill:#008000;stroke:#008000;stroke-linejoin:miter;"/>
   </g>
   <g id="patch_224">
    <path clip-path="url(#p5672d981e9)" d="M 351.680625 303.208875 
L 354.325958 303.208875 
L 354.325958 303.208875 
L 351.680625 303.208875 
z
" style="fill:#008000;stroke:#008000;stroke-linejoin:miter;"/>
   </g>
   <g id="patch_225">
    <path clip-path="url(#p5672d981e9)" d="M 353.003292 303.208875 
L 355.648625 303.208875 
L 355.648625 303.208875 
L 353.003292 303.208875 
z
" style="fill:#008000;stroke:#008000;stroke-linejoin:miter;"/>
   </g>
   <g id="patch_226">
    <path clip-path="url(#p5672d981e9)" d="M 354.325958 303.208875 
L 356.971292 303.208875 
L 356.971292 303.208875 
L 354.325958 303.208875 
z
" style="fill:#008000;stroke:#008000;stroke-linejoin:miter;"/>
   </g>
   <g id="patch_227">
    <path clip-path="url(#p5672d981e9)" d="M 355.648625 303.208875 
L 358.293958 303.208875 
L 358.293958 303.208875 
L 355.648625 303.208875 
z
" style="fill:#008000;stroke:#008000;stroke-linejoin:miter;"/>
   </g>
   <g id="patch_228">
    <path clip-path="url(#p5672d981e9)" d="M 356.971292 303.208875 
L 359.616625 303.208875 
L 359.616625 303.208875 
L 356.971292 303.208875 
z
" style="fill:#008000;stroke:#008000;stroke-linejoin:miter;"/>
   </g>
   <g id="patch_229">
    <path clip-path="url(#p5672d981e9)" d="M 358.293958 303.208875 
L 360.939292 303.208875 
L 360.939292 303.208875 
L 358.293958 303.208875 
z
" style="fill:#008000;stroke:#008000;stroke-linejoin:miter;"/>
   </g>
   <g id="patch_230">
    <path clip-path="url(#p5672d981e9)" d="M 359.616625 303.208875 
L 362.261958 303.208875 
L 362.261958 303.208875 
L 359.616625 303.208875 
z
" style="fill:#008000;stroke:#008000;stroke-linejoin:miter;"/>
   </g>
   <g id="patch_231">
    <path clip-path="url(#p5672d981e9)" d="M 360.939292 303.208875 
L 363.584625 303.208875 
L 363.584625 303.208875 
L 360.939292 303.208875 
z
" style="fill:#008000;stroke:#008000;stroke-linejoin:miter;"/>
   </g>
   <g id="patch_232">
    <path clip-path="url(#p5672d981e9)" d="M 362.261958 303.208875 
L 364.907292 303.208875 
L 364.907292 303.208875 
L 362.261958 303.208875 
z
" style="fill:#008000;stroke:#008000;stroke-linejoin:miter;"/>
   </g>
   <g id="patch_233">
    <path clip-path="url(#p5672d981e9)" d="M 363.584625 303.208875 
L 366.229958 303.208875 
L 366.229958 303.208875 
L 363.584625 303.208875 
z
" style="fill:#008000;stroke:#008000;stroke-linejoin:miter;"/>
   </g>
   <g id="patch_234">
    <path clip-path="url(#p5672d981e9)" d="M 364.907292 303.208875 
L 367.552625 303.208875 
L 367.552625 303.208875 
L 364.907292 303.208875 
z
" style="fill:#008000;stroke:#008000;stroke-linejoin:miter;"/>
   </g>
   <g id="patch_235">
    <path clip-path="url(#p5672d981e9)" d="M 366.229958 303.208875 
L 368.875292 303.208875 
L 368.875292 303.208875 
L 366.229958 303.208875 
z
" style="fill:#008000;stroke:#008000;stroke-linejoin:miter;"/>
   </g>
   <g id="patch_236">
    <path clip-path="url(#p5672d981e9)" d="M 367.552625 303.208875 
L 370.197958 303.208875 
L 370.197958 303.208875 
L 367.552625 303.208875 
z
" style="fill:#008000;stroke:#008000;stroke-linejoin:miter;"/>
   </g>
   <g id="patch_237">
    <path clip-path="url(#p5672d981e9)" d="M 368.875292 303.208875 
L 371.520625 303.208875 
L 371.520625 303.208875 
L 368.875292 303.208875 
z
" style="fill:#008000;stroke:#008000;stroke-linejoin:miter;"/>
   </g>
   <g id="patch_238">
    <path clip-path="url(#p5672d981e9)" d="M 370.197958 303.208875 
L 372.843292 303.208875 
L 372.843292 303.208875 
L 370.197958 303.208875 
z
" style="fill:#008000;stroke:#008000;stroke-linejoin:miter;"/>
   </g>
   <g id="patch_239">
    <path clip-path="url(#p5672d981e9)" d="M 371.520625 303.208875 
L 374.165958 303.208875 
L 374.165958 303.208875 
L 371.520625 303.208875 
z
" style="fill:#008000;stroke:#008000;stroke-linejoin:miter;"/>
   </g>
   <g id="patch_240">
    <path clip-path="url(#p5672d981e9)" d="M 372.843292 303.208875 
L 375.488625 303.208875 
L 375.488625 303.208875 
L 372.843292 303.208875 
z
" style="fill:#008000;stroke:#008000;stroke-linejoin:miter;"/>
   </g>
   <g id="patch_241">
    <path clip-path="url(#p5672d981e9)" d="M 374.165958 303.208875 
L 376.811292 303.208875 
L 376.811292 303.208875 
L 374.165958 303.208875 
z
" style="fill:#008000;stroke:#008000;stroke-linejoin:miter;"/>
   </g>
   <g id="patch_242">
    <path clip-path="url(#p5672d981e9)" d="M 375.488625 303.208875 
L 378.133958 303.208875 
L 378.133958 303.208875 
L 375.488625 303.208875 
z
" style="fill:#008000;stroke:#008000;stroke-linejoin:miter;"/>
   </g>
   <g id="patch_243">
    <path clip-path="url(#p5672d981e9)" d="M 376.811292 303.208875 
L 379.456625 303.208875 
L 379.456625 303.208875 
L 376.811292 303.208875 
z
" style="fill:#008000;stroke:#008000;stroke-linejoin:miter;"/>
   </g>
   <g id="patch_244">
    <path clip-path="url(#p5672d981e9)" d="M 378.133958 303.208875 
L 380.779292 303.208875 
L 380.779292 303.208875 
L 378.133958 303.208875 
z
" style="fill:#008000;stroke:#008000;stroke-linejoin:miter;"/>
   </g>
   <g id="patch_245">
    <path clip-path="url(#p5672d981e9)" d="M 379.456625 303.208875 
L 382.101958 303.208875 
L 382.101958 303.208875 
L 379.456625 303.208875 
z
" style="fill:#008000;stroke:#008000;stroke-linejoin:miter;"/>
   </g>
   <g id="patch_246">
    <path clip-path="url(#p5672d981e9)" d="M 380.779292 303.208875 
L 383.424625 303.208875 
L 383.424625 303.208875 
L 380.779292 303.208875 
z
" style="fill:#008000;stroke:#008000;stroke-linejoin:miter;"/>
   </g>
   <g id="patch_247">
    <path clip-path="url(#p5672d981e9)" d="M 382.101958 303.208875 
L 384.747292 303.208875 
L 384.747292 303.208875 
L 382.101958 303.208875 
z
" style="fill:#008000;stroke:#008000;stroke-linejoin:miter;"/>
   </g>
   <g id="patch_248">
    <path clip-path="url(#p5672d981e9)" d="M 383.424625 303.208875 
L 386.069958 303.208875 
L 386.069958 303.208875 
L 383.424625 303.208875 
z
" style="fill:#008000;stroke:#008000;stroke-linejoin:miter;"/>
   </g>
   <g id="patch_249">
    <path clip-path="url(#p5672d981e9)" d="M 384.747292 303.208875 
L 387.392625 303.208875 
L 387.392625 303.208875 
L 384.747292 303.208875 
z
" style="fill:#008000;stroke:#008000;stroke-linejoin:miter;"/>
   </g>
   <g id="patch_250">
    <path clip-path="url(#p5672d981e9)" d="M 386.069958 303.208875 
L 388.715292 303.208875 
L 388.715292 303.208875 
L 386.069958 303.208875 
z
" style="fill:#008000;stroke:#008000;stroke-linejoin:miter;"/>
   </g>
   <g id="patch_251">
    <path clip-path="url(#p5672d981e9)" d="M 387.392625 303.208875 
L 390.037958 303.208875 
L 390.037958 303.208875 
L 387.392625 303.208875 
z
" style="fill:#008000;stroke:#008000;stroke-linejoin:miter;"/>
   </g>
   <g id="patch_252">
    <path clip-path="url(#p5672d981e9)" d="M 388.715292 303.208875 
L 391.360625 303.208875 
L 391.360625 303.208875 
L 388.715292 303.208875 
z
" style="fill:#008000;stroke:#008000;stroke-linejoin:miter;"/>
   </g>
   <g id="matplotlib.axis_1">
    <g id="xtick_1">
     <g id="line2d_1">
      <path clip-path="url(#p5672d981e9)" d="M 60.693958 315.304875 
L 60.693958 49.192875 
" style="fill:none;stroke:#b0b0b0;stroke-linecap:square;stroke-width:0.8;"/>
     </g>
     <g id="line2d_2">
      <defs>
       <path d="M 0 0 
L 0 3.5 
" id="m05ef29f3d7" style="stroke:#000000;stroke-width:0.8;"/>
      </defs>
      <g>
       <use style="stroke:#000000;stroke-width:0.8;" x="60.693958" xlink:href="#m05ef29f3d7" y="315.304875"/>
      </g>
     </g>
     <g id="text_1">
      <!-- 0 -->
      <defs>
       <path d="M 31.78125 66.40625 
Q 24.171875 66.40625 20.328125 58.90625 
Q 16.5 51.421875 16.5 36.375 
Q 16.5 21.390625 20.328125 13.890625 
Q 24.171875 6.390625 31.78125 6.390625 
Q 39.453125 6.390625 43.28125 13.890625 
Q 47.125 21.390625 47.125 36.375 
Q 47.125 51.421875 43.28125 58.90625 
Q 39.453125 66.40625 31.78125 66.40625 
z
M 31.78125 74.21875 
Q 44.046875 74.21875 50.515625 64.515625 
Q 56.984375 54.828125 56.984375 36.375 
Q 56.984375 17.96875 50.515625 8.265625 
Q 44.046875 -1.421875 31.78125 -1.421875 
Q 19.53125 -1.421875 13.0625 8.265625 
Q 6.59375 17.96875 6.59375 36.375 
Q 6.59375 54.828125 13.0625 64.515625 
Q 19.53125 74.21875 31.78125 74.21875 
z
" id="DejaVuSans-30"/>
      </defs>
      <g transform="translate(57.512708 329.903312)scale(0.1 -0.1)">
       <use xlink:href="#DejaVuSans-30"/>
      </g>
     </g>
    </g>
    <g id="xtick_2">
     <g id="line2d_3">
      <path clip-path="url(#p5672d981e9)" d="M 126.827292 315.304875 
L 126.827292 49.192875 
" style="fill:none;stroke:#b0b0b0;stroke-linecap:square;stroke-width:0.8;"/>
     </g>
     <g id="line2d_4">
      <g>
       <use style="stroke:#000000;stroke-width:0.8;" x="126.827292" xlink:href="#m05ef29f3d7" y="315.304875"/>
      </g>
     </g>
     <g id="text_2">
      <!-- 50 -->
      <defs>
       <path d="M 10.796875 72.90625 
L 49.515625 72.90625 
L 49.515625 64.59375 
L 19.828125 64.59375 
L 19.828125 46.734375 
Q 21.96875 47.46875 24.109375 47.828125 
Q 26.265625 48.1875 28.421875 48.1875 
Q 40.625 48.1875 47.75 41.5 
Q 54.890625 34.8125 54.890625 23.390625 
Q 54.890625 11.625 47.5625 5.09375 
Q 40.234375 -1.421875 26.90625 -1.421875 
Q 22.3125 -1.421875 17.546875 -0.640625 
Q 12.796875 0.140625 7.71875 1.703125 
L 7.71875 11.625 
Q 12.109375 9.234375 16.796875 8.0625 
Q 21.484375 6.890625 26.703125 6.890625 
Q 35.15625 6.890625 40.078125 11.328125 
Q 45.015625 15.765625 45.015625 23.390625 
Q 45.015625 31 40.078125 35.4375 
Q 35.15625 39.890625 26.703125 39.890625 
Q 22.75 39.890625 18.8125 39.015625 
Q 14.890625 38.140625 10.796875 36.28125 
z
" id="DejaVuSans-35"/>
      </defs>
      <g transform="translate(120.464792 329.903312)scale(0.1 -0.1)">
       <use xlink:href="#DejaVuSans-35"/>
       <use x="63.623047" xlink:href="#DejaVuSans-30"/>
      </g>
     </g>
    </g>
    <g id="xtick_3">
     <g id="line2d_5">
      <path clip-path="url(#p5672d981e9)" d="M 192.960625 315.304875 
L 192.960625 49.192875 
" style="fill:none;stroke:#b0b0b0;stroke-linecap:square;stroke-width:0.8;"/>
     </g>
     <g id="line2d_6">
      <g>
       <use style="stroke:#000000;stroke-width:0.8;" x="192.960625" xlink:href="#m05ef29f3d7" y="315.304875"/>
      </g>
     </g>
     <g id="text_3">
      <!-- 100 -->
      <defs>
       <path d="M 12.40625 8.296875 
L 28.515625 8.296875 
L 28.515625 63.921875 
L 10.984375 60.40625 
L 10.984375 69.390625 
L 28.421875 72.90625 
L 38.28125 72.90625 
L 38.28125 8.296875 
L 54.390625 8.296875 
L 54.390625 0 
L 12.40625 0 
z
" id="DejaVuSans-31"/>
      </defs>
      <g transform="translate(183.416875 329.903312)scale(0.1 -0.1)">
       <use xlink:href="#DejaVuSans-31"/>
       <use x="63.623047" xlink:href="#DejaVuSans-30"/>
       <use x="127.246094" xlink:href="#DejaVuSans-30"/>
      </g>
     </g>
    </g>
    <g id="xtick_4">
     <g id="line2d_7">
      <path clip-path="url(#p5672d981e9)" d="M 259.093958 315.304875 
L 259.093958 49.192875 
" style="fill:none;stroke:#b0b0b0;stroke-linecap:square;stroke-width:0.8;"/>
     </g>
     <g id="line2d_8">
      <g>
       <use style="stroke:#000000;stroke-width:0.8;" x="259.093958" xlink:href="#m05ef29f3d7" y="315.304875"/>
      </g>
     </g>
     <g id="text_4">
      <!-- 150 -->
      <g transform="translate(249.550208 329.903312)scale(0.1 -0.1)">
       <use xlink:href="#DejaVuSans-31"/>
       <use x="63.623047" xlink:href="#DejaVuSans-35"/>
       <use x="127.246094" xlink:href="#DejaVuSans-30"/>
      </g>
     </g>
    </g>
    <g id="xtick_5">
     <g id="line2d_9">
      <path clip-path="url(#p5672d981e9)" d="M 325.227292 315.304875 
L 325.227292 49.192875 
" style="fill:none;stroke:#b0b0b0;stroke-linecap:square;stroke-width:0.8;"/>
     </g>
     <g id="line2d_10">
      <g>
       <use style="stroke:#000000;stroke-width:0.8;" x="325.227292" xlink:href="#m05ef29f3d7" y="315.304875"/>
      </g>
     </g>
     <g id="text_5">
      <!-- 200 -->
      <defs>
       <path d="M 19.1875 8.296875 
L 53.609375 8.296875 
L 53.609375 0 
L 7.328125 0 
L 7.328125 8.296875 
Q 12.9375 14.109375 22.625 23.890625 
Q 32.328125 33.6875 34.8125 36.53125 
Q 39.546875 41.84375 41.421875 45.53125 
Q 43.3125 49.21875 43.3125 52.78125 
Q 43.3125 58.59375 39.234375 62.25 
Q 35.15625 65.921875 28.609375 65.921875 
Q 23.96875 65.921875 18.8125 64.3125 
Q 13.671875 62.703125 7.8125 59.421875 
L 7.8125 69.390625 
Q 13.765625 71.78125 18.9375 73 
Q 24.125 74.21875 28.421875 74.21875 
Q 39.75 74.21875 46.484375 68.546875 
Q 53.21875 62.890625 53.21875 53.421875 
Q 53.21875 48.921875 51.53125 44.890625 
Q 49.859375 40.875 45.40625 35.40625 
Q 44.1875 33.984375 37.640625 27.21875 
Q 31.109375 20.453125 19.1875 8.296875 
z
" id="DejaVuSans-32"/>
      </defs>
      <g transform="translate(315.683542 329.903312)scale(0.1 -0.1)">
       <use xlink:href="#DejaVuSans-32"/>
       <use x="63.623047" xlink:href="#DejaVuSans-30"/>
       <use x="127.246094" xlink:href="#DejaVuSans-30"/>
      </g>
     </g>
    </g>
    <g id="xtick_6">
     <g id="line2d_11">
      <path clip-path="url(#p5672d981e9)" d="M 391.360625 315.304875 
L 391.360625 49.192875 
" style="fill:none;stroke:#b0b0b0;stroke-linecap:square;stroke-width:0.8;"/>
     </g>
     <g id="line2d_12">
      <g>
       <use style="stroke:#000000;stroke-width:0.8;" x="391.360625" xlink:href="#m05ef29f3d7" y="315.304875"/>
      </g>
     </g>
     <g id="text_6">
      <!-- 250 -->
      <g transform="translate(381.816875 329.903312)scale(0.1 -0.1)">
       <use xlink:href="#DejaVuSans-32"/>
       <use x="63.623047" xlink:href="#DejaVuSans-35"/>
       <use x="127.246094" xlink:href="#DejaVuSans-30"/>
      </g>
     </g>
    </g>
    <g id="text_7">
     <!-- Time since last connection (s) -->
     <defs>
      <path d="M -0.296875 72.90625 
L 61.375 72.90625 
L 61.375 64.59375 
L 35.5 64.59375 
L 35.5 0 
L 25.59375 0 
L 25.59375 64.59375 
L -0.296875 64.59375 
z
" id="DejaVuSans-54"/>
      <path d="M 9.421875 54.6875 
L 18.40625 54.6875 
L 18.40625 0 
L 9.421875 0 
z
M 9.421875 75.984375 
L 18.40625 75.984375 
L 18.40625 64.59375 
L 9.421875 64.59375 
z
" id="DejaVuSans-69"/>
      <path d="M 52 44.1875 
Q 55.375 50.25 60.0625 53.125 
Q 64.75 56 71.09375 56 
Q 79.640625 56 84.28125 50.015625 
Q 88.921875 44.046875 88.921875 33.015625 
L 88.921875 0 
L 79.890625 0 
L 79.890625 32.71875 
Q 79.890625 40.578125 77.09375 44.375 
Q 74.3125 48.1875 68.609375 48.1875 
Q 61.625 48.1875 57.5625 43.546875 
Q 53.515625 38.921875 53.515625 30.90625 
L 53.515625 0 
L 44.484375 0 
L 44.484375 32.71875 
Q 44.484375 40.625 41.703125 44.40625 
Q 38.921875 48.1875 33.109375 48.1875 
Q 26.21875 48.1875 22.15625 43.53125 
Q 18.109375 38.875 18.109375 30.90625 
L 18.109375 0 
L 9.078125 0 
L 9.078125 54.6875 
L 18.109375 54.6875 
L 18.109375 46.1875 
Q 21.1875 51.21875 25.484375 53.609375 
Q 29.78125 56 35.6875 56 
Q 41.65625 56 45.828125 52.96875 
Q 50 49.953125 52 44.1875 
z
" id="DejaVuSans-6d"/>
      <path d="M 56.203125 29.59375 
L 56.203125 25.203125 
L 14.890625 25.203125 
Q 15.484375 15.921875 20.484375 11.0625 
Q 25.484375 6.203125 34.421875 6.203125 
Q 39.59375 6.203125 44.453125 7.46875 
Q 49.3125 8.734375 54.109375 11.28125 
L 54.109375 2.78125 
Q 49.265625 0.734375 44.1875 -0.34375 
Q 39.109375 -1.421875 33.890625 -1.421875 
Q 20.796875 -1.421875 13.15625 6.1875 
Q 5.515625 13.8125 5.515625 26.8125 
Q 5.515625 40.234375 12.765625 48.109375 
Q 20.015625 56 32.328125 56 
Q 43.359375 56 49.78125 48.890625 
Q 56.203125 41.796875 56.203125 29.59375 
z
M 47.21875 32.234375 
Q 47.125 39.59375 43.09375 43.984375 
Q 39.0625 48.390625 32.421875 48.390625 
Q 24.90625 48.390625 20.390625 44.140625 
Q 15.875 39.890625 15.1875 32.171875 
z
" id="DejaVuSans-65"/>
      <path id="DejaVuSans-20"/>
      <path d="M 44.28125 53.078125 
L 44.28125 44.578125 
Q 40.484375 46.53125 36.375 47.5 
Q 32.28125 48.484375 27.875 48.484375 
Q 21.1875 48.484375 17.84375 46.4375 
Q 14.5 44.390625 14.5 40.28125 
Q 14.5 37.15625 16.890625 35.375 
Q 19.28125 33.59375 26.515625 31.984375 
L 29.59375 31.296875 
Q 39.15625 29.25 43.1875 25.515625 
Q 47.21875 21.78125 47.21875 15.09375 
Q 47.21875 7.46875 41.1875 3.015625 
Q 35.15625 -1.421875 24.609375 -1.421875 
Q 20.21875 -1.421875 15.453125 -0.5625 
Q 10.6875 0.296875 5.421875 2 
L 5.421875 11.28125 
Q 10.40625 8.6875 15.234375 7.390625 
Q 20.0625 6.109375 24.8125 6.109375 
Q 31.15625 6.109375 34.5625 8.28125 
Q 37.984375 10.453125 37.984375 14.40625 
Q 37.984375 18.0625 35.515625 20.015625 
Q 33.0625 21.96875 24.703125 23.78125 
L 21.578125 24.515625 
Q 13.234375 26.265625 9.515625 29.90625 
Q 5.8125 33.546875 5.8125 39.890625 
Q 5.8125 47.609375 11.28125 51.796875 
Q 16.75 56 26.8125 56 
Q 31.78125 56 36.171875 55.265625 
Q 40.578125 54.546875 44.28125 53.078125 
z
" id="DejaVuSans-73"/>
      <path d="M 54.890625 33.015625 
L 54.890625 0 
L 45.90625 0 
L 45.90625 32.71875 
Q 45.90625 40.484375 42.875 44.328125 
Q 39.84375 48.1875 33.796875 48.1875 
Q 26.515625 48.1875 22.3125 43.546875 
Q 18.109375 38.921875 18.109375 30.90625 
L 18.109375 0 
L 9.078125 0 
L 9.078125 54.6875 
L 18.109375 54.6875 
L 18.109375 46.1875 
Q 21.34375 51.125 25.703125 53.5625 
Q 30.078125 56 35.796875 56 
Q 45.21875 56 50.046875 50.171875 
Q 54.890625 44.34375 54.890625 33.015625 
z
" id="DejaVuSans-6e"/>
      <path d="M 48.78125 52.59375 
L 48.78125 44.1875 
Q 44.96875 46.296875 41.140625 47.34375 
Q 37.3125 48.390625 33.40625 48.390625 
Q 24.65625 48.390625 19.8125 42.84375 
Q 14.984375 37.3125 14.984375 27.296875 
Q 14.984375 17.28125 19.8125 11.734375 
Q 24.65625 6.203125 33.40625 6.203125 
Q 37.3125 6.203125 41.140625 7.25 
Q 44.96875 8.296875 48.78125 10.40625 
L 48.78125 2.09375 
Q 45.015625 0.34375 40.984375 -0.53125 
Q 36.96875 -1.421875 32.421875 -1.421875 
Q 20.0625 -1.421875 12.78125 6.34375 
Q 5.515625 14.109375 5.515625 27.296875 
Q 5.515625 40.671875 12.859375 48.328125 
Q 20.21875 56 33.015625 56 
Q 37.15625 56 41.109375 55.140625 
Q 45.0625 54.296875 48.78125 52.59375 
z
" id="DejaVuSans-63"/>
      <path d="M 9.421875 75.984375 
L 18.40625 75.984375 
L 18.40625 0 
L 9.421875 0 
z
" id="DejaVuSans-6c"/>
      <path d="M 34.28125 27.484375 
Q 23.390625 27.484375 19.1875 25 
Q 14.984375 22.515625 14.984375 16.5 
Q 14.984375 11.71875 18.140625 8.90625 
Q 21.296875 6.109375 26.703125 6.109375 
Q 34.1875 6.109375 38.703125 11.40625 
Q 43.21875 16.703125 43.21875 25.484375 
L 43.21875 27.484375 
z
M 52.203125 31.203125 
L 52.203125 0 
L 43.21875 0 
L 43.21875 8.296875 
Q 40.140625 3.328125 35.546875 0.953125 
Q 30.953125 -1.421875 24.3125 -1.421875 
Q 15.921875 -1.421875 10.953125 3.296875 
Q 6 8.015625 6 15.921875 
Q 6 25.140625 12.171875 29.828125 
Q 18.359375 34.515625 30.609375 34.515625 
L 43.21875 34.515625 
L 43.21875 35.40625 
Q 43.21875 41.609375 39.140625 45 
Q 35.0625 48.390625 27.6875 48.390625 
Q 23 48.390625 18.546875 47.265625 
Q 14.109375 46.140625 10.015625 43.890625 
L 10.015625 52.203125 
Q 14.9375 54.109375 19.578125 55.046875 
Q 24.21875 56 28.609375 56 
Q 40.484375 56 46.34375 49.84375 
Q 52.203125 43.703125 52.203125 31.203125 
z
" id="DejaVuSans-61"/>
      <path d="M 18.3125 70.21875 
L 18.3125 54.6875 
L 36.8125 54.6875 
L 36.8125 47.703125 
L 18.3125 47.703125 
L 18.3125 18.015625 
Q 18.3125 11.328125 20.140625 9.421875 
Q 21.96875 7.515625 27.59375 7.515625 
L 36.8125 7.515625 
L 36.8125 0 
L 27.59375 0 
Q 17.1875 0 13.234375 3.875 
Q 9.28125 7.765625 9.28125 18.015625 
L 9.28125 47.703125 
L 2.6875 47.703125 
L 2.6875 54.6875 
L 9.28125 54.6875 
L 9.28125 70.21875 
z
" id="DejaVuSans-74"/>
      <path d="M 30.609375 48.390625 
Q 23.390625 48.390625 19.1875 42.75 
Q 14.984375 37.109375 14.984375 27.296875 
Q 14.984375 17.484375 19.15625 11.84375 
Q 23.34375 6.203125 30.609375 6.203125 
Q 37.796875 6.203125 41.984375 11.859375 
Q 46.1875 17.53125 46.1875 27.296875 
Q 46.1875 37.015625 41.984375 42.703125 
Q 37.796875 48.390625 30.609375 48.390625 
z
M 30.609375 56 
Q 42.328125 56 49.015625 48.375 
Q 55.71875 40.765625 55.71875 27.296875 
Q 55.71875 13.875 49.015625 6.21875 
Q 42.328125 -1.421875 30.609375 -1.421875 
Q 18.84375 -1.421875 12.171875 6.21875 
Q 5.515625 13.875 5.515625 27.296875 
Q 5.515625 40.765625 12.171875 48.375 
Q 18.84375 56 30.609375 56 
z
" id="DejaVuSans-6f"/>
      <path d="M 31 75.875 
Q 24.46875 64.65625 21.28125 53.65625 
Q 18.109375 42.671875 18.109375 31.390625 
Q 18.109375 20.125 21.3125 9.0625 
Q 24.515625 -2 31 -13.1875 
L 23.1875 -13.1875 
Q 15.875 -1.703125 12.234375 9.375 
Q 8.59375 20.453125 8.59375 31.390625 
Q 8.59375 42.28125 12.203125 53.3125 
Q 15.828125 64.359375 23.1875 75.875 
z
" id="DejaVuSans-28"/>
      <path d="M 8.015625 75.875 
L 15.828125 75.875 
Q 23.140625 64.359375 26.78125 53.3125 
Q 30.421875 42.28125 30.421875 31.390625 
Q 30.421875 20.453125 26.78125 9.375 
Q 23.140625 -1.703125 15.828125 -13.1875 
L 8.015625 -13.1875 
Q 14.5 -2 17.703125 9.0625 
Q 20.90625 20.125 20.90625 31.390625 
Q 20.90625 42.671875 17.703125 53.65625 
Q 14.5 64.65625 8.015625 75.875 
z
" id="DejaVuSans-29"/>
     </defs>
     <g transform="translate(137.995156 343.581437)scale(0.1 -0.1)">
      <use xlink:href="#DejaVuSans-54"/>
      <use x="61.037109" xlink:href="#DejaVuSans-69"/>
      <use x="88.820312" xlink:href="#DejaVuSans-6d"/>
      <use x="186.232422" xlink:href="#DejaVuSans-65"/>
      <use x="247.755859" xlink:href="#DejaVuSans-20"/>
      <use x="279.542969" xlink:href="#DejaVuSans-73"/>
      <use x="331.642578" xlink:href="#DejaVuSans-69"/>
      <use x="359.425781" xlink:href="#DejaVuSans-6e"/>
      <use x="422.804688" xlink:href="#DejaVuSans-63"/>
      <use x="477.785156" xlink:href="#DejaVuSans-65"/>
      <use x="539.308594" xlink:href="#DejaVuSans-20"/>
      <use x="571.095703" xlink:href="#DejaVuSans-6c"/>
      <use x="598.878906" xlink:href="#DejaVuSans-61"/>
      <use x="660.158203" xlink:href="#DejaVuSans-73"/>
      <use x="712.257812" xlink:href="#DejaVuSans-74"/>
      <use x="751.466797" xlink:href="#DejaVuSans-20"/>
      <use x="783.253906" xlink:href="#DejaVuSans-63"/>
      <use x="838.234375" xlink:href="#DejaVuSans-6f"/>
      <use x="899.416016" xlink:href="#DejaVuSans-6e"/>
      <use x="962.794922" xlink:href="#DejaVuSans-6e"/>
      <use x="1026.173828" xlink:href="#DejaVuSans-65"/>
      <use x="1087.697266" xlink:href="#DejaVuSans-63"/>
      <use x="1142.677734" xlink:href="#DejaVuSans-74"/>
      <use x="1181.886719" xlink:href="#DejaVuSans-69"/>
      <use x="1209.669922" xlink:href="#DejaVuSans-6f"/>
      <use x="1270.851562" xlink:href="#DejaVuSans-6e"/>
      <use x="1334.230469" xlink:href="#DejaVuSans-20"/>
      <use x="1366.017578" xlink:href="#DejaVuSans-28"/>
      <use x="1405.03125" xlink:href="#DejaVuSans-73"/>
      <use x="1457.130859" xlink:href="#DejaVuSans-29"/>
     </g>
    </g>
   </g>
   <g id="matplotlib.axis_2">
    <g id="ytick_1">
     <g id="line2d_13">
      <path clip-path="url(#p5672d981e9)" d="M 34.240625 303.208875 
L 391.360625 303.208875 
" style="fill:none;stroke:#b0b0b0;stroke-linecap:square;stroke-width:0.8;"/>
     </g>
     <g id="line2d_14">
      <defs>
       <path d="M 0 0 
L -3.5 0 
" id="m28e405a663" style="stroke:#000000;stroke-width:0.8;"/>
      </defs>
      <g>
       <use style="stroke:#000000;stroke-width:0.8;" x="34.240625" xlink:href="#m28e405a663" y="303.208875"/>
      </g>
     </g>
     <g id="text_8">
      <!-- 0 -->
      <g transform="translate(20.878125 307.008094)scale(0.1 -0.1)">
       <use xlink:href="#DejaVuSans-30"/>
      </g>
     </g>
    </g>
    <g id="ytick_2">
     <g id="line2d_15">
      <path clip-path="url(#p5672d981e9)" d="M 34.240625 254.824875 
L 391.360625 254.824875 
" style="fill:none;stroke:#b0b0b0;stroke-linecap:square;stroke-width:0.8;"/>
     </g>
     <g id="line2d_16">
      <g>
       <use style="stroke:#000000;stroke-width:0.8;" x="34.240625" xlink:href="#m28e405a663" y="254.824875"/>
      </g>
     </g>
     <g id="text_9">
      <!-- 1 -->
      <g transform="translate(20.878125 258.624094)scale(0.1 -0.1)">
       <use xlink:href="#DejaVuSans-31"/>
      </g>
     </g>
    </g>
    <g id="ytick_3">
     <g id="line2d_17">
      <path clip-path="url(#p5672d981e9)" d="M 34.240625 206.440875 
L 391.360625 206.440875 
" style="fill:none;stroke:#b0b0b0;stroke-linecap:square;stroke-width:0.8;"/>
     </g>
     <g id="line2d_18">
      <g>
       <use style="stroke:#000000;stroke-width:0.8;" x="34.240625" xlink:href="#m28e405a663" y="206.440875"/>
      </g>
     </g>
     <g id="text_10">
      <!-- 2 -->
      <g transform="translate(20.878125 210.240094)scale(0.1 -0.1)">
       <use xlink:href="#DejaVuSans-32"/>
      </g>
     </g>
    </g>
    <g id="ytick_4">
     <g id="line2d_19">
      <path clip-path="url(#p5672d981e9)" d="M 34.240625 158.056875 
L 391.360625 158.056875 
" style="fill:none;stroke:#b0b0b0;stroke-linecap:square;stroke-width:0.8;"/>
     </g>
     <g id="line2d_20">
      <g>
       <use style="stroke:#000000;stroke-width:0.8;" x="34.240625" xlink:href="#m28e405a663" y="158.056875"/>
      </g>
     </g>
     <g id="text_11">
      <!-- 3 -->
      <defs>
       <path d="M 40.578125 39.3125 
Q 47.65625 37.796875 51.625 33 
Q 55.609375 28.21875 55.609375 21.1875 
Q 55.609375 10.40625 48.1875 4.484375 
Q 40.765625 -1.421875 27.09375 -1.421875 
Q 22.515625 -1.421875 17.65625 -0.515625 
Q 12.796875 0.390625 7.625 2.203125 
L 7.625 11.71875 
Q 11.71875 9.328125 16.59375 8.109375 
Q 21.484375 6.890625 26.8125 6.890625 
Q 36.078125 6.890625 40.9375 10.546875 
Q 45.796875 14.203125 45.796875 21.1875 
Q 45.796875 27.640625 41.28125 31.265625 
Q 36.765625 34.90625 28.71875 34.90625 
L 20.21875 34.90625 
L 20.21875 43.015625 
L 29.109375 43.015625 
Q 36.375 43.015625 40.234375 45.921875 
Q 44.09375 48.828125 44.09375 54.296875 
Q 44.09375 59.90625 40.109375 62.90625 
Q 36.140625 65.921875 28.71875 65.921875 
Q 24.65625 65.921875 20.015625 65.03125 
Q 15.375 64.15625 9.8125 62.3125 
L 9.8125 71.09375 
Q 15.4375 72.65625 20.34375 73.4375 
Q 25.25 74.21875 29.59375 74.21875 
Q 40.828125 74.21875 47.359375 69.109375 
Q 53.90625 64.015625 53.90625 55.328125 
Q 53.90625 49.265625 50.4375 45.09375 
Q 46.96875 40.921875 40.578125 39.3125 
z
" id="DejaVuSans-33"/>
      </defs>
      <g transform="translate(20.878125 161.856094)scale(0.1 -0.1)">
       <use xlink:href="#DejaVuSans-33"/>
      </g>
     </g>
    </g>
    <g id="ytick_5">
     <g id="line2d_21">
      <path clip-path="url(#p5672d981e9)" d="M 34.240625 109.672875 
L 391.360625 109.672875 
" style="fill:none;stroke:#b0b0b0;stroke-linecap:square;stroke-width:0.8;"/>
     </g>
     <g id="line2d_22">
      <g>
       <use style="stroke:#000000;stroke-width:0.8;" x="34.240625" xlink:href="#m28e405a663" y="109.672875"/>
      </g>
     </g>
     <g id="text_12">
      <!-- 4 -->
      <defs>
       <path d="M 37.796875 64.3125 
L 12.890625 25.390625 
L 37.796875 25.390625 
z
M 35.203125 72.90625 
L 47.609375 72.90625 
L 47.609375 25.390625 
L 58.015625 25.390625 
L 58.015625 17.1875 
L 47.609375 17.1875 
L 47.609375 0 
L 37.796875 0 
L 37.796875 17.1875 
L 4.890625 17.1875 
L 4.890625 26.703125 
z
" id="DejaVuSans-34"/>
      </defs>
      <g transform="translate(20.878125 113.472094)scale(0.1 -0.1)">
       <use xlink:href="#DejaVuSans-34"/>
      </g>
     </g>
    </g>
    <g id="ytick_6">
     <g id="line2d_23">
      <path clip-path="url(#p5672d981e9)" d="M 34.240625 61.288875 
L 391.360625 61.288875 
" style="fill:none;stroke:#b0b0b0;stroke-linecap:square;stroke-width:0.8;"/>
     </g>
     <g id="line2d_24">
      <g>
       <use style="stroke:#000000;stroke-width:0.8;" x="34.240625" xlink:href="#m28e405a663" y="61.288875"/>
      </g>
     </g>
     <g id="text_13">
      <!-- 5 -->
      <g transform="translate(20.878125 65.088094)scale(0.1 -0.1)">
       <use xlink:href="#DejaVuSans-35"/>
      </g>
     </g>
    </g>
    <g id="text_14">
     <!-- Number of nodes -->
     <defs>
      <path d="M 9.8125 72.90625 
L 23.09375 72.90625 
L 55.421875 11.921875 
L 55.421875 72.90625 
L 64.984375 72.90625 
L 64.984375 0 
L 51.703125 0 
L 19.390625 60.984375 
L 19.390625 0 
L 9.8125 0 
z
" id="DejaVuSans-4e"/>
      <path d="M 8.5 21.578125 
L 8.5 54.6875 
L 17.484375 54.6875 
L 17.484375 21.921875 
Q 17.484375 14.15625 20.5 10.265625 
Q 23.53125 6.390625 29.59375 6.390625 
Q 36.859375 6.390625 41.078125 11.03125 
Q 45.3125 15.671875 45.3125 23.6875 
L 45.3125 54.6875 
L 54.296875 54.6875 
L 54.296875 0 
L 45.3125 0 
L 45.3125 8.40625 
Q 42.046875 3.421875 37.71875 1 
Q 33.40625 -1.421875 27.6875 -1.421875 
Q 18.265625 -1.421875 13.375 4.4375 
Q 8.5 10.296875 8.5 21.578125 
z
M 31.109375 56 
z
" id="DejaVuSans-75"/>
      <path d="M 48.6875 27.296875 
Q 48.6875 37.203125 44.609375 42.84375 
Q 40.53125 48.484375 33.40625 48.484375 
Q 26.265625 48.484375 22.1875 42.84375 
Q 18.109375 37.203125 18.109375 27.296875 
Q 18.109375 17.390625 22.1875 11.75 
Q 26.265625 6.109375 33.40625 6.109375 
Q 40.53125 6.109375 44.609375 11.75 
Q 48.6875 17.390625 48.6875 27.296875 
z
M 18.109375 46.390625 
Q 20.953125 51.265625 25.265625 53.625 
Q 29.59375 56 35.59375 56 
Q 45.5625 56 51.78125 48.09375 
Q 58.015625 40.1875 58.015625 27.296875 
Q 58.015625 14.40625 51.78125 6.484375 
Q 45.5625 -1.421875 35.59375 -1.421875 
Q 29.59375 -1.421875 25.265625 0.953125 
Q 20.953125 3.328125 18.109375 8.203125 
L 18.109375 0 
L 9.078125 0 
L 9.078125 75.984375 
L 18.109375 75.984375 
z
" id="DejaVuSans-62"/>
      <path d="M 41.109375 46.296875 
Q 39.59375 47.171875 37.8125 47.578125 
Q 36.03125 48 33.890625 48 
Q 26.265625 48 22.1875 43.046875 
Q 18.109375 38.09375 18.109375 28.8125 
L 18.109375 0 
L 9.078125 0 
L 9.078125 54.6875 
L 18.109375 54.6875 
L 18.109375 46.1875 
Q 20.953125 51.171875 25.484375 53.578125 
Q 30.03125 56 36.53125 56 
Q 37.453125 56 38.578125 55.875 
Q 39.703125 55.765625 41.0625 55.515625 
z
" id="DejaVuSans-72"/>
      <path d="M 37.109375 75.984375 
L 37.109375 68.5 
L 28.515625 68.5 
Q 23.6875 68.5 21.796875 66.546875 
Q 19.921875 64.59375 19.921875 59.515625 
L 19.921875 54.6875 
L 34.71875 54.6875 
L 34.71875 47.703125 
L 19.921875 47.703125 
L 19.921875 0 
L 10.890625 0 
L 10.890625 47.703125 
L 2.296875 47.703125 
L 2.296875 54.6875 
L 10.890625 54.6875 
L 10.890625 58.5 
Q 10.890625 67.625 15.140625 71.796875 
Q 19.390625 75.984375 28.609375 75.984375 
z
" id="DejaVuSans-66"/>
      <path d="M 45.40625 46.390625 
L 45.40625 75.984375 
L 54.390625 75.984375 
L 54.390625 0 
L 45.40625 0 
L 45.40625 8.203125 
Q 42.578125 3.328125 38.25 0.953125 
Q 33.9375 -1.421875 27.875 -1.421875 
Q 17.96875 -1.421875 11.734375 6.484375 
Q 5.515625 14.40625 5.515625 27.296875 
Q 5.515625 40.1875 11.734375 48.09375 
Q 17.96875 56 27.875 56 
Q 33.9375 56 38.25 53.625 
Q 42.578125 51.265625 45.40625 46.390625 
z
M 14.796875 27.296875 
Q 14.796875 17.390625 18.875 11.75 
Q 22.953125 6.109375 30.078125 6.109375 
Q 37.203125 6.109375 41.296875 11.75 
Q 45.40625 17.390625 45.40625 27.296875 
Q 45.40625 37.203125 41.296875 42.84375 
Q 37.203125 48.484375 30.078125 48.484375 
Q 22.953125 48.484375 18.875 42.84375 
Q 14.796875 37.203125 14.796875 27.296875 
z
" id="DejaVuSans-64"/>
     </defs>
     <g transform="translate(14.798438 225.416062)rotate(-90)scale(0.1 -0.1)">
      <use xlink:href="#DejaVuSans-4e"/>
      <use x="74.804688" xlink:href="#DejaVuSans-75"/>
      <use x="138.183594" xlink:href="#DejaVuSans-6d"/>
      <use x="235.595703" xlink:href="#DejaVuSans-62"/>
      <use x="299.072266" xlink:href="#DejaVuSans-65"/>
      <use x="360.595703" xlink:href="#DejaVuSans-72"/>
      <use x="401.708984" xlink:href="#DejaVuSans-20"/>
      <use x="433.496094" xlink:href="#DejaVuSans-6f"/>
      <use x="494.677734" xlink:href="#DejaVuSans-66"/>
      <use x="529.882812" xlink:href="#DejaVuSans-20"/>
      <use x="561.669922" xlink:href="#DejaVuSans-6e"/>
      <use x="625.048828" xlink:href="#DejaVuSans-6f"/>
      <use x="686.230469" xlink:href="#DejaVuSans-64"/>
      <use x="749.707031" xlink:href="#DejaVuSans-65"/>
      <use x="811.230469" xlink:href="#DejaVuSans-73"/>
     </g>
    </g>
   </g>
   <g id="patch_253">
    <path d="M 34.240625 315.304875 
L 34.240625 49.192875 
" style="fill:none;stroke:#000000;stroke-linecap:square;stroke-linejoin:miter;stroke-width:0.8;"/>
   </g>
   <g id="patch_254">
    <path d="M 391.360625 315.304875 
L 391.360625 49.192875 
" style="fill:none;stroke:#000000;stroke-linecap:square;stroke-linejoin:miter;stroke-width:0.8;"/>
   </g>
   <g id="patch_255">
    <path d="M 34.240625 315.304875 
L 391.360625 315.304875 
" style="fill:none;stroke:#000000;stroke-linecap:square;stroke-linejoin:miter;stroke-width:0.8;"/>
   </g>
   <g id="patch_256">
    <path d="M 34.240625 49.192875 
L 391.360625 49.192875 
" style="fill:none;stroke:#000000;stroke-linecap:square;stroke-linejoin:miter;stroke-width:0.8;"/>
   </g>
   <g id="text_15">
    <!-- Total discovered: 48.00 % -->
    <defs>
     <path d="M 2.984375 54.6875 
L 12.5 54.6875 
L 29.59375 8.796875 
L 46.6875 54.6875 
L 56.203125 54.6875 
L 35.6875 0 
L 23.484375 0 
z
" id="DejaVuSans-76"/>
     <path d="M 11.71875 12.40625 
L 22.015625 12.40625 
L 22.015625 0 
L 11.71875 0 
z
M 11.71875 51.703125 
L 22.015625 51.703125 
L 22.015625 39.3125 
L 11.71875 39.3125 
z
" id="DejaVuSans-3a"/>
     <path d="M 31.78125 34.625 
Q 24.75 34.625 20.71875 30.859375 
Q 16.703125 27.09375 16.703125 20.515625 
Q 16.703125 13.921875 20.71875 10.15625 
Q 24.75 6.390625 31.78125 6.390625 
Q 38.8125 6.390625 42.859375 10.171875 
Q 46.921875 13.96875 46.921875 20.515625 
Q 46.921875 27.09375 42.890625 30.859375 
Q 38.875 34.625 31.78125 34.625 
z
M 21.921875 38.8125 
Q 15.578125 40.375 12.03125 44.71875 
Q 8.5 49.078125 8.5 55.328125 
Q 8.5 64.0625 14.71875 69.140625 
Q 20.953125 74.21875 31.78125 74.21875 
Q 42.671875 74.21875 48.875 69.140625 
Q 55.078125 64.0625 55.078125 55.328125 
Q 55.078125 49.078125 51.53125 44.71875 
Q 48 40.375 41.703125 38.8125 
Q 48.828125 37.15625 52.796875 32.3125 
Q 56.78125 27.484375 56.78125 20.515625 
Q 56.78125 9.90625 50.3125 4.234375 
Q 43.84375 -1.421875 31.78125 -1.421875 
Q 19.734375 -1.421875 13.25 4.234375 
Q 6.78125 9.90625 6.78125 20.515625 
Q 6.78125 27.484375 10.78125 32.3125 
Q 14.796875 37.15625 21.921875 38.8125 
z
M 18.3125 54.390625 
Q 18.3125 48.734375 21.84375 45.5625 
Q 25.390625 42.390625 31.78125 42.390625 
Q 38.140625 42.390625 41.71875 45.5625 
Q 45.3125 48.734375 45.3125 54.390625 
Q 45.3125 60.0625 41.71875 63.234375 
Q 38.140625 66.40625 31.78125 66.40625 
Q 25.390625 66.40625 21.84375 63.234375 
Q 18.3125 60.0625 18.3125 54.390625 
z
" id="DejaVuSans-38"/>
     <path d="M 10.6875 12.40625 
L 21 12.40625 
L 21 0 
L 10.6875 0 
z
" id="DejaVuSans-2e"/>
     <path d="M 72.703125 32.078125 
Q 68.453125 32.078125 66.03125 28.46875 
Q 63.625 24.859375 63.625 18.40625 
Q 63.625 12.0625 66.03125 8.421875 
Q 68.453125 4.78125 72.703125 4.78125 
Q 76.859375 4.78125 79.265625 8.421875 
Q 81.6875 12.0625 81.6875 18.40625 
Q 81.6875 24.8125 79.265625 28.4375 
Q 76.859375 32.078125 72.703125 32.078125 
z
M 72.703125 38.28125 
Q 80.421875 38.28125 84.953125 32.90625 
Q 89.5 27.546875 89.5 18.40625 
Q 89.5 9.28125 84.9375 3.921875 
Q 80.375 -1.421875 72.703125 -1.421875 
Q 64.890625 -1.421875 60.34375 3.921875 
Q 55.8125 9.28125 55.8125 18.40625 
Q 55.8125 27.59375 60.375 32.9375 
Q 64.9375 38.28125 72.703125 38.28125 
z
M 22.3125 68.015625 
Q 18.109375 68.015625 15.6875 64.375 
Q 13.28125 60.75 13.28125 54.390625 
Q 13.28125 47.953125 15.671875 44.328125 
Q 18.0625 40.71875 22.3125 40.71875 
Q 26.5625 40.71875 28.96875 44.328125 
Q 31.390625 47.953125 31.390625 54.390625 
Q 31.390625 60.6875 28.953125 64.34375 
Q 26.515625 68.015625 22.3125 68.015625 
z
M 66.40625 74.21875 
L 74.21875 74.21875 
L 28.609375 -1.421875 
L 20.796875 -1.421875 
z
M 22.3125 74.21875 
Q 30.03125 74.21875 34.609375 68.875 
Q 39.203125 63.53125 39.203125 54.390625 
Q 39.203125 45.171875 34.640625 39.84375 
Q 30.078125 34.515625 22.3125 34.515625 
Q 14.546875 34.515625 10.03125 39.859375 
Q 5.515625 45.21875 5.515625 54.390625 
Q 5.515625 63.484375 10.046875 68.84375 
Q 14.59375 74.21875 22.3125 74.21875 
z
" id="DejaVuSans-25"/>
    </defs>
    <g transform="translate(400.619292 304.107062)scale(0.1 -0.1)">
     <use xlink:href="#DejaVuSans-54"/>
     <use x="60.818359" xlink:href="#DejaVuSans-6f"/>
     <use x="122" xlink:href="#DejaVuSans-74"/>
     <use x="161.208984" xlink:href="#DejaVuSans-61"/>
     <use x="222.488281" xlink:href="#DejaVuSans-6c"/>
     <use x="250.271484" xlink:href="#DejaVuSans-20"/>
     <use x="282.058594" xlink:href="#DejaVuSans-64"/>
     <use x="345.535156" xlink:href="#DejaVuSans-69"/>
     <use x="373.318359" xlink:href="#DejaVuSans-73"/>
     <use x="425.417969" xlink:href="#DejaVuSans-63"/>
     <use x="480.398438" xlink:href="#DejaVuSans-6f"/>
     <use x="541.580078" xlink:href="#DejaVuSans-76"/>
     <use x="600.759766" xlink:href="#DejaVuSans-65"/>
     <use x="662.283203" xlink:href="#DejaVuSans-72"/>
     <use x="703.365234" xlink:href="#DejaVuSans-65"/>
     <use x="764.888672" xlink:href="#DejaVuSans-64"/>
     <use x="828.365234" xlink:href="#DejaVuSans-3a"/>
     <use x="862.056641" xlink:href="#DejaVuSans-20"/>
     <use x="893.84375" xlink:href="#DejaVuSans-34"/>
     <use x="957.466797" xlink:href="#DejaVuSans-38"/>
     <use x="1021.089844" xlink:href="#DejaVuSans-2e"/>
     <use x="1052.876953" xlink:href="#DejaVuSans-30"/>
     <use x="1116.5" xlink:href="#DejaVuSans-30"/>
     <use x="1180.123047" xlink:href="#DejaVuSans-20"/>
     <use x="1211.910156" xlink:href="#DejaVuSans-25"/>
    </g>
    <!-- Total: 96 nodes -->
    <defs>
     <path d="M 10.984375 1.515625 
L 10.984375 10.5 
Q 14.703125 8.734375 18.5 7.8125 
Q 22.3125 6.890625 25.984375 6.890625 
Q 35.75 6.890625 40.890625 13.453125 
Q 46.046875 20.015625 46.78125 33.40625 
Q 43.953125 29.203125 39.59375 26.953125 
Q 35.25 24.703125 29.984375 24.703125 
Q 19.046875 24.703125 12.671875 31.3125 
Q 6.296875 37.9375 6.296875 49.421875 
Q 6.296875 60.640625 12.9375 67.421875 
Q 19.578125 74.21875 30.609375 74.21875 
Q 43.265625 74.21875 49.921875 64.515625 
Q 56.59375 54.828125 56.59375 36.375 
Q 56.59375 19.140625 48.40625 8.859375 
Q 40.234375 -1.421875 26.421875 -1.421875 
Q 22.703125 -1.421875 18.890625 -0.6875 
Q 15.09375 0.046875 10.984375 1.515625 
z
M 30.609375 32.421875 
Q 37.25 32.421875 41.125 36.953125 
Q 45.015625 41.5 45.015625 49.421875 
Q 45.015625 57.28125 41.125 61.84375 
Q 37.25 66.40625 30.609375 66.40625 
Q 23.96875 66.40625 20.09375 61.84375 
Q 16.21875 57.28125 16.21875 49.421875 
Q 16.21875 41.5 20.09375 36.953125 
Q 23.96875 32.421875 30.609375 32.421875 
z
" id="DejaVuSans-39"/>
     <path d="M 33.015625 40.375 
Q 26.375 40.375 22.484375 35.828125 
Q 18.609375 31.296875 18.609375 23.390625 
Q 18.609375 15.53125 22.484375 10.953125 
Q 26.375 6.390625 33.015625 6.390625 
Q 39.65625 6.390625 43.53125 10.953125 
Q 47.40625 15.53125 47.40625 23.390625 
Q 47.40625 31.296875 43.53125 35.828125 
Q 39.65625 40.375 33.015625 40.375 
z
M 52.59375 71.296875 
L 52.59375 62.3125 
Q 48.875 64.0625 45.09375 64.984375 
Q 41.3125 65.921875 37.59375 65.921875 
Q 27.828125 65.921875 22.671875 59.328125 
Q 17.53125 52.734375 16.796875 39.40625 
Q 19.671875 43.65625 24.015625 45.921875 
Q 28.375 48.1875 33.59375 48.1875 
Q 44.578125 48.1875 50.953125 41.515625 
Q 57.328125 34.859375 57.328125 23.390625 
Q 57.328125 12.15625 50.6875 5.359375 
Q 44.046875 -1.421875 33.015625 -1.421875 
Q 20.359375 -1.421875 13.671875 8.265625 
Q 6.984375 17.96875 6.984375 36.375 
Q 6.984375 53.65625 15.1875 63.9375 
Q 23.390625 74.21875 37.203125 74.21875 
Q 40.921875 74.21875 44.703125 73.484375 
Q 48.484375 72.75 52.59375 71.296875 
z
" id="DejaVuSans-36"/>
    </defs>
    <g transform="translate(400.619292 315.304875)scale(0.1 -0.1)">
     <use xlink:href="#DejaVuSans-54"/>
     <use x="60.818359" xlink:href="#DejaVuSans-6f"/>
     <use x="122" xlink:href="#DejaVuSans-74"/>
     <use x="161.208984" xlink:href="#DejaVuSans-61"/>
     <use x="222.488281" xlink:href="#DejaVuSans-6c"/>
     <use x="250.271484" xlink:href="#DejaVuSans-3a"/>
     <use x="283.962891" xlink:href="#DejaVuSans-20"/>
     <use x="315.75" xlink:href="#DejaVuSans-39"/>
     <use x="379.373047" xlink:href="#DejaVuSans-36"/>
     <use x="442.996094" xlink:href="#DejaVuSans-20"/>
     <use x="474.783203" xlink:href="#DejaVuSans-6e"/>
     <use x="538.162109" xlink:href="#DejaVuSans-6f"/>
     <use x="599.34375" xlink:href="#DejaVuSans-64"/>
     <use x="662.820312" xlink:href="#DejaVuSans-65"/>
     <use x="724.34375" xlink:href="#DejaVuSans-73"/>
    </g>
   </g>
   <g id="text_16">
    <!-- Number of nodes discovered 't' seconds ago -->
    <defs>
     <path d="M 17.921875 72.90625 
L 17.921875 45.796875 
L 9.625 45.796875 
L 9.625 72.90625 
z
" id="DejaVuSans-27"/>
     <path d="M 45.40625 27.984375 
Q 45.40625 37.75 41.375 43.109375 
Q 37.359375 48.484375 30.078125 48.484375 
Q 22.859375 48.484375 18.828125 43.109375 
Q 14.796875 37.75 14.796875 27.984375 
Q 14.796875 18.265625 18.828125 12.890625 
Q 22.859375 7.515625 30.078125 7.515625 
Q 37.359375 7.515625 41.375 12.890625 
Q 45.40625 18.265625 45.40625 27.984375 
z
M 54.390625 6.78125 
Q 54.390625 -7.171875 48.1875 -13.984375 
Q 42 -20.796875 29.203125 -20.796875 
Q 24.46875 -20.796875 20.265625 -20.09375 
Q 16.0625 -19.390625 12.109375 -17.921875 
L 12.109375 -9.1875 
Q 16.0625 -11.328125 19.921875 -12.34375 
Q 23.78125 -13.375 27.78125 -13.375 
Q 36.625 -13.375 41.015625 -8.765625 
Q 45.40625 -4.15625 45.40625 5.171875 
L 45.40625 9.625 
Q 42.625 4.78125 38.28125 2.390625 
Q 33.9375 0 27.875 0 
Q 17.828125 0 11.671875 7.65625 
Q 5.515625 15.328125 5.515625 27.984375 
Q 5.515625 40.671875 11.671875 48.328125 
Q 17.828125 56 27.875 56 
Q 33.9375 56 38.28125 53.609375 
Q 42.625 51.21875 45.40625 46.390625 
L 45.40625 54.6875 
L 54.390625 54.6875 
z
" id="DejaVuSans-67"/>
    </defs>
    <g transform="translate(79.259375 16.318125)scale(0.12 -0.12)">
     <use xlink:href="#DejaVuSans-4e"/>
     <use x="74.804688" xlink:href="#DejaVuSans-75"/>
     <use x="138.183594" xlink:href="#DejaVuSans-6d"/>
     <use x="235.595703" xlink:href="#DejaVuSans-62"/>
     <use x="299.072266" xlink:href="#DejaVuSans-65"/>
     <use x="360.595703" xlink:href="#DejaVuSans-72"/>
     <use x="401.708984" xlink:href="#DejaVuSans-20"/>
     <use x="433.496094" xlink:href="#DejaVuSans-6f"/>
     <use x="494.677734" xlink:href="#DejaVuSans-66"/>
     <use x="529.882812" xlink:href="#DejaVuSans-20"/>
     <use x="561.669922" xlink:href="#DejaVuSans-6e"/>
     <use x="625.048828" xlink:href="#DejaVuSans-6f"/>
     <use x="686.230469" xlink:href="#DejaVuSans-64"/>
     <use x="749.707031" xlink:href="#DejaVuSans-65"/>
     <use x="811.230469" xlink:href="#DejaVuSans-73"/>
     <use x="863.330078" xlink:href="#DejaVuSans-20"/>
     <use x="895.117188" xlink:href="#DejaVuSans-64"/>
     <use x="958.59375" xlink:href="#DejaVuSans-69"/>
     <use x="986.376953" xlink:href="#DejaVuSans-73"/>
     <use x="1038.476562" xlink:href="#DejaVuSans-63"/>
     <use x="1093.457031" xlink:href="#DejaVuSans-6f"/>
     <use x="1154.638672" xlink:href="#DejaVuSans-76"/>
     <use x="1213.818359" xlink:href="#DejaVuSans-65"/>
     <use x="1275.341797" xlink:href="#DejaVuSans-72"/>
     <use x="1316.423828" xlink:href="#DejaVuSans-65"/>
     <use x="1377.947266" xlink:href="#DejaVuSans-64"/>
     <use x="1441.423828" xlink:href="#DejaVuSans-20"/>
     <use x="1473.210938" xlink:href="#DejaVuSans-27"/>
     <use x="1500.701172" xlink:href="#DejaVuSans-74"/>
     <use x="1539.910156" xlink:href="#DejaVuSans-27"/>
     <use x="1567.400391" xlink:href="#DejaVuSans-20"/>
     <use x="1599.1875" xlink:href="#DejaVuSans-73"/>
     <use x="1651.287109" xlink:href="#DejaVuSans-65"/>
     <use x="1712.810547" xlink:href="#DejaVuSans-63"/>
     <use x="1767.791016" xlink:href="#DejaVuSans-6f"/>
     <use x="1828.972656" xlink:href="#DejaVuSans-6e"/>
     <use x="1892.351562" xlink:href="#DejaVuSans-64"/>
     <use x="1955.828125" xlink:href="#DejaVuSans-73"/>
     <use x="2007.927734" xlink:href="#DejaVuSans-20"/>
     <use x="2039.714844" xlink:href="#DejaVuSans-61"/>
     <use x="2100.994141" xlink:href="#DejaVuSans-67"/>
     <use x="2164.470703" xlink:href="#DejaVuSans-6f"/>
    </g>
    <!--  -->
    <g transform="translate(212.800625 29.7555)scale(0.12 -0.12)"/>
    <!--  -->
    <g transform="translate(212.800625 43.192875)scale(0.12 -0.12)"/>
   </g>
  </g>
 </g>
 <defs>
  <clipPath id="p5672d981e9">
   <rect height="266.112" width="357.12" x="34.240625" y="49.192875"/>
  </clipPath>
 </defs>
</svg>
