<?xml version="1.0" encoding="utf-8" standalone="no"?>
<!DOCTYPE svg PUBLIC "-//W3C//DTD SVG 1.1//EN"
  "http://www.w3.org/Graphics/SVG/1.1/DTD/svg11.dtd">
<!-- Created with matplotlib (http://matplotlib.org/) -->
<svg height="641pt" version="1.1" viewBox="0 0 1172 641" width="1172pt" xmlns="http://www.w3.org/2000/svg" xmlns:xlink="http://www.w3.org/1999/xlink">
 <defs>
  <style type="text/css">
*{stroke-linecap:butt;stroke-linejoin:round;}
  </style>
 </defs>
 <g id="figure_1">
  <g id="patch_1">
   <path d="M 0 641.149125 
L 1172.178125 641.149125 
L 1172.178125 0 
L 0 0 
z
" style="fill:#ffffff;"/>
  </g>
  <g id="axes_1">
   <g id="patch_2">
    <path d="M 45.478125 603.592875 
L 1161.478125 603.592875 
L 1161.478125 49.192875 
L 45.478125 49.192875 
z
" style="fill:#ffffff;"/>
   </g>
   <g id="patch_3">
    <path clip-path="url(#p4ccb2bd280)" d="M 86.811458 75539.969887 
L 90.944792 75539.969887 
L 90.944792 74.392875 
L 86.811458 74.392875 
z
" style="fill:#1f77b4;"/>
   </g>
   <g id="patch_4">
    <path clip-path="url(#p4ccb2bd280)" d="M 90.944792 75539.969887 
L 95.078125 75539.969887 
L 95.078125 75539.969887 
L 90.944792 75539.969887 
z
" style="fill:#1f77b4;"/>
   </g>
   <g id="patch_5">
    <path clip-path="url(#p4ccb2bd280)" d="M 95.078125 75539.969887 
L 99.211458 75539.969887 
L 99.211458 578.392875 
L 95.078125 578.392875 
z
" style="fill:#1f77b4;"/>
   </g>
   <g id="patch_6">
    <path clip-path="url(#p4ccb2bd280)" d="M 99.211458 75539.969887 
L 103.344792 75539.969887 
L 103.344792 578.392875 
L 99.211458 578.392875 
z
" style="fill:#1f77b4;"/>
   </g>
   <g id="patch_7">
    <path clip-path="url(#p4ccb2bd280)" d="M 103.344792 75539.969887 
L 107.478125 75539.969887 
L 107.478125 578.392875 
L 103.344792 578.392875 
z
" style="fill:#1f77b4;"/>
   </g>
   <g id="patch_8">
    <path clip-path="url(#p4ccb2bd280)" d="M 107.478125 75539.969887 
L 111.611458 75539.969887 
L 111.611458 578.392875 
L 107.478125 578.392875 
z
" style="fill:#1f77b4;"/>
   </g>
   <g id="patch_9">
    <path clip-path="url(#p4ccb2bd280)" d="M 111.611458 75539.969887 
L 115.744792 75539.969887 
L 115.744792 75539.969887 
L 111.611458 75539.969887 
z
" style="fill:#1f77b4;"/>
   </g>
   <g id="patch_10">
    <path clip-path="url(#p4ccb2bd280)" d="M 115.744792 75539.969887 
L 119.878125 75539.969887 
L 119.878125 459.173669 
L 115.744792 459.173669 
z
" style="fill:#1f77b4;"/>
   </g>
   <g id="patch_11">
    <path clip-path="url(#p4ccb2bd280)" d="M 119.878125 75539.969887 
L 124.011458 75539.969887 
L 124.011458 578.392875 
L 119.878125 578.392875 
z
" style="fill:#1f77b4;"/>
   </g>
   <g id="patch_12">
    <path clip-path="url(#p4ccb2bd280)" d="M 124.011458 75539.969887 
L 128.144792 75539.969887 
L 128.144792 75539.969887 
L 124.011458 75539.969887 
z
" style="fill:#1f77b4;"/>
   </g>
   <g id="patch_13">
    <path clip-path="url(#p4ccb2bd280)" d="M 128.144792 75539.969887 
L 132.278125 75539.969887 
L 132.278125 578.392875 
L 128.144792 578.392875 
z
" style="fill:#1f77b4;"/>
   </g>
   <g id="patch_14">
    <path clip-path="url(#p4ccb2bd280)" d="M 132.278125 75539.969887 
L 136.411458 75539.969887 
L 136.411458 578.392875 
L 132.278125 578.392875 
z
" style="fill:#1f77b4;"/>
   </g>
   <g id="patch_15">
    <path clip-path="url(#p4ccb2bd280)" d="M 136.411458 75539.969887 
L 140.544792 75539.969887 
L 140.544792 459.173669 
L 136.411458 459.173669 
z
" style="fill:#1f77b4;"/>
   </g>
   <g id="patch_16">
    <path clip-path="url(#p4ccb2bd280)" d="M 140.544792 75539.969887 
L 144.678125 75539.969887 
L 144.678125 503.173931 
L 140.544792 503.173931 
z
" style="fill:#1f77b4;"/>
   </g>
   <g id="patch_17">
    <path clip-path="url(#p4ccb2bd280)" d="M 144.678125 75539.969887 
L 148.811458 75539.969887 
L 148.811458 578.392875 
L 144.678125 578.392875 
z
" style="fill:#1f77b4;"/>
   </g>
   <g id="patch_18">
    <path clip-path="url(#p4ccb2bd280)" d="M 148.811458 75539.969887 
L 152.944792 75539.969887 
L 152.944792 459.173669 
L 148.811458 459.173669 
z
" style="fill:#1f77b4;"/>
   </g>
   <g id="patch_19">
    <path clip-path="url(#p4ccb2bd280)" d="M 152.944792 75539.969887 
L 157.078125 75539.969887 
L 157.078125 75539.969887 
L 152.944792 75539.969887 
z
" style="fill:#1f77b4;"/>
   </g>
   <g id="patch_20">
    <path clip-path="url(#p4ccb2bd280)" d="M 157.078125 75539.969887 
L 161.211458 75539.969887 
L 161.211458 503.173931 
L 157.078125 503.173931 
z
" style="fill:#1f77b4;"/>
   </g>
   <g id="patch_21">
    <path clip-path="url(#p4ccb2bd280)" d="M 161.211458 75539.969887 
L 165.344792 75539.969887 
L 165.344792 427.954987 
L 161.211458 427.954987 
z
" style="fill:#1f77b4;"/>
   </g>
   <g id="patch_22">
    <path clip-path="url(#p4ccb2bd280)" d="M 165.344792 75539.969887 
L 169.478125 75539.969887 
L 169.478125 75539.969887 
L 165.344792 75539.969887 
z
" style="fill:#1f77b4;"/>
   </g>
   <g id="patch_23">
    <path clip-path="url(#p4ccb2bd280)" d="M 169.478125 75539.969887 
L 173.611458 75539.969887 
L 173.611458 578.392875 
L 169.478125 578.392875 
z
" style="fill:#1f77b4;"/>
   </g>
   <g id="patch_24">
    <path clip-path="url(#p4ccb2bd280)" d="M 173.611458 75539.969887 
L 177.744792 75539.969887 
L 177.744792 503.173931 
L 173.611458 503.173931 
z
" style="fill:#1f77b4;"/>
   </g>
   <g id="patch_25">
    <path clip-path="url(#p4ccb2bd280)" d="M 177.744792 75539.969887 
L 181.878125 75539.969887 
L 181.878125 578.392875 
L 177.744792 578.392875 
z
" style="fill:#1f77b4;"/>
   </g>
   <g id="patch_26">
    <path clip-path="url(#p4ccb2bd280)" d="M 181.878125 75539.969887 
L 186.011458 75539.969887 
L 186.011458 578.392875 
L 181.878125 578.392875 
z
" style="fill:#1f77b4;"/>
   </g>
   <g id="patch_27">
    <path clip-path="url(#p4ccb2bd280)" d="M 186.011458 75539.969887 
L 190.144792 75539.969887 
L 190.144792 427.954987 
L 186.011458 427.954987 
z
" style="fill:#1f77b4;"/>
   </g>
   <g id="patch_28">
    <path clip-path="url(#p4ccb2bd280)" d="M 190.144792 75539.969887 
L 194.278125 75539.969887 
L 194.278125 383.954725 
L 190.144792 383.954725 
z
" style="fill:#1f77b4;"/>
   </g>
   <g id="patch_29">
    <path clip-path="url(#p4ccb2bd280)" d="M 194.278125 75539.969887 
L 198.411458 75539.969887 
L 198.411458 459.173669 
L 194.278125 459.173669 
z
" style="fill:#1f77b4;"/>
   </g>
   <g id="patch_30">
    <path clip-path="url(#p4ccb2bd280)" d="M 198.411458 75539.969887 
L 202.544792 75539.969887 
L 202.544792 459.173669 
L 198.411458 459.173669 
z
" style="fill:#1f77b4;"/>
   </g>
   <g id="patch_31">
    <path clip-path="url(#p4ccb2bd280)" d="M 202.544792 75539.969887 
L 206.678125 75539.969887 
L 206.678125 403.739896 
L 202.544792 403.739896 
z
" style="fill:#1f77b4;"/>
   </g>
   <g id="patch_32">
    <path clip-path="url(#p4ccb2bd280)" d="M 206.678125 75539.969887 
L 210.811458 75539.969887 
L 210.811458 339.954464 
L 206.678125 339.954464 
z
" style="fill:#1f77b4;"/>
   </g>
   <g id="patch_33">
    <path clip-path="url(#p4ccb2bd280)" d="M 210.811458 75539.969887 
L 214.944792 75539.969887 
L 214.944792 367.226602 
L 210.811458 367.226602 
z
" style="fill:#1f77b4;"/>
   </g>
   <g id="patch_34">
    <path clip-path="url(#p4ccb2bd280)" d="M 214.944792 75539.969887 
L 219.078125 75539.969887 
L 219.078125 383.954725 
L 214.944792 383.954725 
z
" style="fill:#1f77b4;"/>
   </g>
   <g id="patch_35">
    <path clip-path="url(#p4ccb2bd280)" d="M 219.078125 75539.969887 
L 223.211458 75539.969887 
L 223.211458 403.739896 
L 219.078125 403.739896 
z
" style="fill:#1f77b4;"/>
   </g>
   <g id="patch_36">
    <path clip-path="url(#p4ccb2bd280)" d="M 223.211458 75539.969887 
L 227.344792 75539.969887 
L 227.344792 383.954725 
L 223.211458 383.954725 
z
" style="fill:#1f77b4;"/>
   </g>
   <g id="patch_37">
    <path clip-path="url(#p4ccb2bd280)" d="M 227.344792 75539.969887 
L 231.478125 75539.969887 
L 231.478125 459.173669 
L 227.344792 459.173669 
z
" style="fill:#1f77b4;"/>
   </g>
   <g id="patch_38">
    <path clip-path="url(#p4ccb2bd280)" d="M 231.478125 75539.969887 
L 235.611458 75539.969887 
L 235.611458 403.739896 
L 231.478125 403.739896 
z
" style="fill:#1f77b4;"/>
   </g>
   <g id="patch_39">
    <path clip-path="url(#p4ccb2bd280)" d="M 235.611458 75539.969887 
L 239.744792 75539.969887 
L 239.744792 503.173931 
L 235.611458 503.173931 
z
" style="fill:#1f77b4;"/>
   </g>
   <g id="patch_40">
    <path clip-path="url(#p4ccb2bd280)" d="M 239.744792 75539.969887 
L 243.878125 75539.969887 
L 243.878125 503.173931 
L 239.744792 503.173931 
z
" style="fill:#1f77b4;"/>
   </g>
   <g id="patch_41">
    <path clip-path="url(#p4ccb2bd280)" d="M 243.878125 75539.969887 
L 248.011458 75539.969887 
L 248.011458 75539.969887 
L 243.878125 75539.969887 
z
" style="fill:#1f77b4;"/>
   </g>
   <g id="patch_42">
    <path clip-path="url(#p4ccb2bd280)" d="M 248.011458 75539.969887 
L 252.144792 75539.969887 
L 252.144792 75539.969887 
L 248.011458 75539.969887 
z
" style="fill:#1f77b4;"/>
   </g>
   <g id="patch_43">
    <path clip-path="url(#p4ccb2bd280)" d="M 252.144792 75539.969887 
L 256.278125 75539.969887 
L 256.278125 75539.969887 
L 252.144792 75539.969887 
z
" style="fill:#1f77b4;"/>
   </g>
   <g id="patch_44">
    <path clip-path="url(#p4ccb2bd280)" d="M 256.278125 75539.969887 
L 260.411458 75539.969887 
L 260.411458 75539.969887 
L 256.278125 75539.969887 
z
" style="fill:#1f77b4;"/>
   </g>
   <g id="patch_45">
    <path clip-path="url(#p4ccb2bd280)" d="M 260.411458 75539.969887 
L 264.544792 75539.969887 
L 264.544792 75539.969887 
L 260.411458 75539.969887 
z
" style="fill:#1f77b4;"/>
   </g>
   <g id="patch_46">
    <path clip-path="url(#p4ccb2bd280)" d="M 264.544792 75539.969887 
L 268.678125 75539.969887 
L 268.678125 75539.969887 
L 264.544792 75539.969887 
z
" style="fill:#1f77b4;"/>
   </g>
   <g id="patch_47">
    <path clip-path="url(#p4ccb2bd280)" d="M 268.678125 75539.969887 
L 272.811458 75539.969887 
L 272.811458 75539.969887 
L 268.678125 75539.969887 
z
" style="fill:#1f77b4;"/>
   </g>
   <g id="patch_48">
    <path clip-path="url(#p4ccb2bd280)" d="M 272.811458 75539.969887 
L 276.944792 75539.969887 
L 276.944792 75539.969887 
L 272.811458 75539.969887 
z
" style="fill:#1f77b4;"/>
   </g>
   <g id="patch_49">
    <path clip-path="url(#p4ccb2bd280)" d="M 276.944792 75539.969887 
L 281.078125 75539.969887 
L 281.078125 75539.969887 
L 276.944792 75539.969887 
z
" style="fill:#1f77b4;"/>
   </g>
   <g id="patch_50">
    <path clip-path="url(#p4ccb2bd280)" d="M 281.078125 75539.969887 
L 285.211458 75539.969887 
L 285.211458 75539.969887 
L 281.078125 75539.969887 
z
" style="fill:#1f77b4;"/>
   </g>
   <g id="patch_51">
    <path clip-path="url(#p4ccb2bd280)" d="M 285.211458 75539.969887 
L 289.344792 75539.969887 
L 289.344792 75539.969887 
L 285.211458 75539.969887 
z
" style="fill:#1f77b4;"/>
   </g>
   <g id="patch_52">
    <path clip-path="url(#p4ccb2bd280)" d="M 289.344792 75539.969887 
L 293.478125 75539.969887 
L 293.478125 75539.969887 
L 289.344792 75539.969887 
z
" style="fill:#1f77b4;"/>
   </g>
   <g id="patch_53">
    <path clip-path="url(#p4ccb2bd280)" d="M 293.478125 75539.969887 
L 297.611458 75539.969887 
L 297.611458 75539.969887 
L 293.478125 75539.969887 
z
" style="fill:#1f77b4;"/>
   </g>
   <g id="patch_54">
    <path clip-path="url(#p4ccb2bd280)" d="M 297.611458 75539.969887 
L 301.744792 75539.969887 
L 301.744792 75539.969887 
L 297.611458 75539.969887 
z
" style="fill:#1f77b4;"/>
   </g>
   <g id="patch_55">
    <path clip-path="url(#p4ccb2bd280)" d="M 301.744792 75539.969887 
L 305.878125 75539.969887 
L 305.878125 75539.969887 
L 301.744792 75539.969887 
z
" style="fill:#1f77b4;"/>
   </g>
   <g id="patch_56">
    <path clip-path="url(#p4ccb2bd280)" d="M 305.878125 75539.969887 
L 310.011458 75539.969887 
L 310.011458 75539.969887 
L 305.878125 75539.969887 
z
" style="fill:#1f77b4;"/>
   </g>
   <g id="patch_57">
    <path clip-path="url(#p4ccb2bd280)" d="M 310.011458 75539.969887 
L 314.144792 75539.969887 
L 314.144792 75539.969887 
L 310.011458 75539.969887 
z
" style="fill:#1f77b4;"/>
   </g>
   <g id="patch_58">
    <path clip-path="url(#p4ccb2bd280)" d="M 314.144792 75539.969887 
L 318.278125 75539.969887 
L 318.278125 75539.969887 
L 314.144792 75539.969887 
z
" style="fill:#1f77b4;"/>
   </g>
   <g id="patch_59">
    <path clip-path="url(#p4ccb2bd280)" d="M 318.278125 75539.969887 
L 322.411458 75539.969887 
L 322.411458 75539.969887 
L 318.278125 75539.969887 
z
" style="fill:#1f77b4;"/>
   </g>
   <g id="patch_60">
    <path clip-path="url(#p4ccb2bd280)" d="M 322.411458 75539.969887 
L 326.544792 75539.969887 
L 326.544792 75539.969887 
L 322.411458 75539.969887 
z
" style="fill:#1f77b4;"/>
   </g>
   <g id="patch_61">
    <path clip-path="url(#p4ccb2bd280)" d="M 326.544792 75539.969887 
L 330.678125 75539.969887 
L 330.678125 75539.969887 
L 326.544792 75539.969887 
z
" style="fill:#1f77b4;"/>
   </g>
   <g id="patch_62">
    <path clip-path="url(#p4ccb2bd280)" d="M 330.678125 75539.969887 
L 334.811458 75539.969887 
L 334.811458 75539.969887 
L 330.678125 75539.969887 
z
" style="fill:#1f77b4;"/>
   </g>
   <g id="patch_63">
    <path clip-path="url(#p4ccb2bd280)" d="M 334.811458 75539.969887 
L 338.944792 75539.969887 
L 338.944792 75539.969887 
L 334.811458 75539.969887 
z
" style="fill:#1f77b4;"/>
   </g>
   <g id="patch_64">
    <path clip-path="url(#p4ccb2bd280)" d="M 338.944792 75539.969887 
L 343.078125 75539.969887 
L 343.078125 75539.969887 
L 338.944792 75539.969887 
z
" style="fill:#1f77b4;"/>
   </g>
   <g id="patch_65">
    <path clip-path="url(#p4ccb2bd280)" d="M 343.078125 75539.969887 
L 347.211458 75539.969887 
L 347.211458 75539.969887 
L 343.078125 75539.969887 
z
" style="fill:#1f77b4;"/>
   </g>
   <g id="patch_66">
    <path clip-path="url(#p4ccb2bd280)" d="M 347.211458 75539.969887 
L 351.344792 75539.969887 
L 351.344792 75539.969887 
L 347.211458 75539.969887 
z
" style="fill:#1f77b4;"/>
   </g>
   <g id="patch_67">
    <path clip-path="url(#p4ccb2bd280)" d="M 351.344792 75539.969887 
L 355.478125 75539.969887 
L 355.478125 75539.969887 
L 351.344792 75539.969887 
z
" style="fill:#1f77b4;"/>
   </g>
   <g id="patch_68">
    <path clip-path="url(#p4ccb2bd280)" d="M 355.478125 75539.969887 
L 359.611458 75539.969887 
L 359.611458 75539.969887 
L 355.478125 75539.969887 
z
" style="fill:#1f77b4;"/>
   </g>
   <g id="patch_69">
    <path clip-path="url(#p4ccb2bd280)" d="M 359.611458 75539.969887 
L 363.744792 75539.969887 
L 363.744792 75539.969887 
L 359.611458 75539.969887 
z
" style="fill:#1f77b4;"/>
   </g>
   <g id="patch_70">
    <path clip-path="url(#p4ccb2bd280)" d="M 363.744792 75539.969887 
L 367.878125 75539.969887 
L 367.878125 75539.969887 
L 363.744792 75539.969887 
z
" style="fill:#1f77b4;"/>
   </g>
   <g id="patch_71">
    <path clip-path="url(#p4ccb2bd280)" d="M 367.878125 75539.969887 
L 372.011458 75539.969887 
L 372.011458 75539.969887 
L 367.878125 75539.969887 
z
" style="fill:#1f77b4;"/>
   </g>
   <g id="patch_72">
    <path clip-path="url(#p4ccb2bd280)" d="M 372.011458 75539.969887 
L 376.144792 75539.969887 
L 376.144792 75539.969887 
L 372.011458 75539.969887 
z
" style="fill:#1f77b4;"/>
   </g>
   <g id="patch_73">
    <path clip-path="url(#p4ccb2bd280)" d="M 376.144792 75539.969887 
L 380.278125 75539.969887 
L 380.278125 75539.969887 
L 376.144792 75539.969887 
z
" style="fill:#1f77b4;"/>
   </g>
   <g id="patch_74">
    <path clip-path="url(#p4ccb2bd280)" d="M 380.278125 75539.969887 
L 384.411458 75539.969887 
L 384.411458 75539.969887 
L 380.278125 75539.969887 
z
" style="fill:#1f77b4;"/>
   </g>
   <g id="patch_75">
    <path clip-path="url(#p4ccb2bd280)" d="M 384.411458 75539.969887 
L 388.544792 75539.969887 
L 388.544792 75539.969887 
L 384.411458 75539.969887 
z
" style="fill:#1f77b4;"/>
   </g>
   <g id="patch_76">
    <path clip-path="url(#p4ccb2bd280)" d="M 388.544792 75539.969887 
L 392.678125 75539.969887 
L 392.678125 75539.969887 
L 388.544792 75539.969887 
z
" style="fill:#1f77b4;"/>
   </g>
   <g id="patch_77">
    <path clip-path="url(#p4ccb2bd280)" d="M 392.678125 75539.969887 
L 396.811458 75539.969887 
L 396.811458 75539.969887 
L 392.678125 75539.969887 
z
" style="fill:#1f77b4;"/>
   </g>
   <g id="patch_78">
    <path clip-path="url(#p4ccb2bd280)" d="M 396.811458 75539.969887 
L 400.944792 75539.969887 
L 400.944792 75539.969887 
L 396.811458 75539.969887 
z
" style="fill:#1f77b4;"/>
   </g>
   <g id="patch_79">
    <path clip-path="url(#p4ccb2bd280)" d="M 400.944792 75539.969887 
L 405.078125 75539.969887 
L 405.078125 75539.969887 
L 400.944792 75539.969887 
z
" style="fill:#1f77b4;"/>
   </g>
   <g id="patch_80">
    <path clip-path="url(#p4ccb2bd280)" d="M 405.078125 75539.969887 
L 409.211458 75539.969887 
L 409.211458 75539.969887 
L 405.078125 75539.969887 
z
" style="fill:#1f77b4;"/>
   </g>
   <g id="patch_81">
    <path clip-path="url(#p4ccb2bd280)" d="M 409.211458 75539.969887 
L 413.344792 75539.969887 
L 413.344792 75539.969887 
L 409.211458 75539.969887 
z
" style="fill:#1f77b4;"/>
   </g>
   <g id="patch_82">
    <path clip-path="url(#p4ccb2bd280)" d="M 413.344792 75539.969887 
L 417.478125 75539.969887 
L 417.478125 75539.969887 
L 413.344792 75539.969887 
z
" style="fill:#1f77b4;"/>
   </g>
   <g id="patch_83">
    <path clip-path="url(#p4ccb2bd280)" d="M 417.478125 75539.969887 
L 421.611458 75539.969887 
L 421.611458 75539.969887 
L 417.478125 75539.969887 
z
" style="fill:#1f77b4;"/>
   </g>
   <g id="patch_84">
    <path clip-path="url(#p4ccb2bd280)" d="M 421.611458 75539.969887 
L 425.744792 75539.969887 
L 425.744792 75539.969887 
L 421.611458 75539.969887 
z
" style="fill:#1f77b4;"/>
   </g>
   <g id="patch_85">
    <path clip-path="url(#p4ccb2bd280)" d="M 425.744792 75539.969887 
L 429.878125 75539.969887 
L 429.878125 75539.969887 
L 425.744792 75539.969887 
z
" style="fill:#1f77b4;"/>
   </g>
   <g id="patch_86">
    <path clip-path="url(#p4ccb2bd280)" d="M 429.878125 75539.969887 
L 434.011458 75539.969887 
L 434.011458 75539.969887 
L 429.878125 75539.969887 
z
" style="fill:#1f77b4;"/>
   </g>
   <g id="patch_87">
    <path clip-path="url(#p4ccb2bd280)" d="M 434.011458 75539.969887 
L 438.144792 75539.969887 
L 438.144792 75539.969887 
L 434.011458 75539.969887 
z
" style="fill:#1f77b4;"/>
   </g>
   <g id="patch_88">
    <path clip-path="url(#p4ccb2bd280)" d="M 438.144792 75539.969887 
L 442.278125 75539.969887 
L 442.278125 75539.969887 
L 438.144792 75539.969887 
z
" style="fill:#1f77b4;"/>
   </g>
   <g id="patch_89">
    <path clip-path="url(#p4ccb2bd280)" d="M 442.278125 75539.969887 
L 446.411458 75539.969887 
L 446.411458 75539.969887 
L 442.278125 75539.969887 
z
" style="fill:#1f77b4;"/>
   </g>
   <g id="patch_90">
    <path clip-path="url(#p4ccb2bd280)" d="M 446.411458 75539.969887 
L 450.544792 75539.969887 
L 450.544792 75539.969887 
L 446.411458 75539.969887 
z
" style="fill:#1f77b4;"/>
   </g>
   <g id="patch_91">
    <path clip-path="url(#p4ccb2bd280)" d="M 450.544792 75539.969887 
L 454.678125 75539.969887 
L 454.678125 75539.969887 
L 450.544792 75539.969887 
z
" style="fill:#1f77b4;"/>
   </g>
   <g id="patch_92">
    <path clip-path="url(#p4ccb2bd280)" d="M 454.678125 75539.969887 
L 458.811458 75539.969887 
L 458.811458 75539.969887 
L 454.678125 75539.969887 
z
" style="fill:#1f77b4;"/>
   </g>
   <g id="patch_93">
    <path clip-path="url(#p4ccb2bd280)" d="M 458.811458 75539.969887 
L 462.944792 75539.969887 
L 462.944792 75539.969887 
L 458.811458 75539.969887 
z
" style="fill:#1f77b4;"/>
   </g>
   <g id="patch_94">
    <path clip-path="url(#p4ccb2bd280)" d="M 462.944792 75539.969887 
L 467.078125 75539.969887 
L 467.078125 75539.969887 
L 462.944792 75539.969887 
z
" style="fill:#1f77b4;"/>
   </g>
   <g id="patch_95">
    <path clip-path="url(#p4ccb2bd280)" d="M 467.078125 75539.969887 
L 471.211458 75539.969887 
L 471.211458 75539.969887 
L 467.078125 75539.969887 
z
" style="fill:#1f77b4;"/>
   </g>
   <g id="patch_96">
    <path clip-path="url(#p4ccb2bd280)" d="M 471.211458 75539.969887 
L 475.344792 75539.969887 
L 475.344792 75539.969887 
L 471.211458 75539.969887 
z
" style="fill:#1f77b4;"/>
   </g>
   <g id="patch_97">
    <path clip-path="url(#p4ccb2bd280)" d="M 475.344792 75539.969887 
L 479.478125 75539.969887 
L 479.478125 75539.969887 
L 475.344792 75539.969887 
z
" style="fill:#1f77b4;"/>
   </g>
   <g id="patch_98">
    <path clip-path="url(#p4ccb2bd280)" d="M 479.478125 75539.969887 
L 483.611458 75539.969887 
L 483.611458 75539.969887 
L 479.478125 75539.969887 
z
" style="fill:#1f77b4;"/>
   </g>
   <g id="patch_99">
    <path clip-path="url(#p4ccb2bd280)" d="M 483.611458 75539.969887 
L 487.744792 75539.969887 
L 487.744792 75539.969887 
L 483.611458 75539.969887 
z
" style="fill:#1f77b4;"/>
   </g>
   <g id="patch_100">
    <path clip-path="url(#p4ccb2bd280)" d="M 487.744792 75539.969887 
L 491.878125 75539.969887 
L 491.878125 75539.969887 
L 487.744792 75539.969887 
z
" style="fill:#1f77b4;"/>
   </g>
   <g id="patch_101">
    <path clip-path="url(#p4ccb2bd280)" d="M 491.878125 75539.969887 
L 496.011458 75539.969887 
L 496.011458 75539.969887 
L 491.878125 75539.969887 
z
" style="fill:#1f77b4;"/>
   </g>
   <g id="patch_102">
    <path clip-path="url(#p4ccb2bd280)" d="M 496.011458 75539.969887 
L 500.144792 75539.969887 
L 500.144792 75539.969887 
L 496.011458 75539.969887 
z
" style="fill:#1f77b4;"/>
   </g>
   <g id="patch_103">
    <path clip-path="url(#p4ccb2bd280)" d="M 500.144792 75539.969887 
L 504.278125 75539.969887 
L 504.278125 75539.969887 
L 500.144792 75539.969887 
z
" style="fill:#1f77b4;"/>
   </g>
   <g id="patch_104">
    <path clip-path="url(#p4ccb2bd280)" d="M 504.278125 75539.969887 
L 508.411458 75539.969887 
L 508.411458 75539.969887 
L 504.278125 75539.969887 
z
" style="fill:#1f77b4;"/>
   </g>
   <g id="patch_105">
    <path clip-path="url(#p4ccb2bd280)" d="M 508.411458 75539.969887 
L 512.544792 75539.969887 
L 512.544792 75539.969887 
L 508.411458 75539.969887 
z
" style="fill:#1f77b4;"/>
   </g>
   <g id="patch_106">
    <path clip-path="url(#p4ccb2bd280)" d="M 512.544792 75539.969887 
L 516.678125 75539.969887 
L 516.678125 75539.969887 
L 512.544792 75539.969887 
z
" style="fill:#1f77b4;"/>
   </g>
   <g id="patch_107">
    <path clip-path="url(#p4ccb2bd280)" d="M 516.678125 75539.969887 
L 520.811458 75539.969887 
L 520.811458 75539.969887 
L 516.678125 75539.969887 
z
" style="fill:#1f77b4;"/>
   </g>
   <g id="patch_108">
    <path clip-path="url(#p4ccb2bd280)" d="M 520.811458 75539.969887 
L 524.944792 75539.969887 
L 524.944792 75539.969887 
L 520.811458 75539.969887 
z
" style="fill:#1f77b4;"/>
   </g>
   <g id="patch_109">
    <path clip-path="url(#p4ccb2bd280)" d="M 524.944792 75539.969887 
L 529.078125 75539.969887 
L 529.078125 75539.969887 
L 524.944792 75539.969887 
z
" style="fill:#1f77b4;"/>
   </g>
   <g id="patch_110">
    <path clip-path="url(#p4ccb2bd280)" d="M 529.078125 75539.969887 
L 533.211458 75539.969887 
L 533.211458 75539.969887 
L 529.078125 75539.969887 
z
" style="fill:#1f77b4;"/>
   </g>
   <g id="patch_111">
    <path clip-path="url(#p4ccb2bd280)" d="M 533.211458 75539.969887 
L 537.344792 75539.969887 
L 537.344792 75539.969887 
L 533.211458 75539.969887 
z
" style="fill:#1f77b4;"/>
   </g>
   <g id="patch_112">
    <path clip-path="url(#p4ccb2bd280)" d="M 537.344792 75539.969887 
L 541.478125 75539.969887 
L 541.478125 75539.969887 
L 537.344792 75539.969887 
z
" style="fill:#1f77b4;"/>
   </g>
   <g id="patch_113">
    <path clip-path="url(#p4ccb2bd280)" d="M 541.478125 75539.969887 
L 545.611458 75539.969887 
L 545.611458 75539.969887 
L 541.478125 75539.969887 
z
" style="fill:#1f77b4;"/>
   </g>
   <g id="patch_114">
    <path clip-path="url(#p4ccb2bd280)" d="M 545.611458 75539.969887 
L 549.744792 75539.969887 
L 549.744792 75539.969887 
L 545.611458 75539.969887 
z
" style="fill:#1f77b4;"/>
   </g>
   <g id="patch_115">
    <path clip-path="url(#p4ccb2bd280)" d="M 549.744792 75539.969887 
L 553.878125 75539.969887 
L 553.878125 75539.969887 
L 549.744792 75539.969887 
z
" style="fill:#1f77b4;"/>
   </g>
   <g id="patch_116">
    <path clip-path="url(#p4ccb2bd280)" d="M 553.878125 75539.969887 
L 558.011458 75539.969887 
L 558.011458 75539.969887 
L 553.878125 75539.969887 
z
" style="fill:#1f77b4;"/>
   </g>
   <g id="patch_117">
    <path clip-path="url(#p4ccb2bd280)" d="M 558.011458 75539.969887 
L 562.144792 75539.969887 
L 562.144792 75539.969887 
L 558.011458 75539.969887 
z
" style="fill:#1f77b4;"/>
   </g>
   <g id="patch_118">
    <path clip-path="url(#p4ccb2bd280)" d="M 562.144792 75539.969887 
L 566.278125 75539.969887 
L 566.278125 75539.969887 
L 562.144792 75539.969887 
z
" style="fill:#1f77b4;"/>
   </g>
   <g id="patch_119">
    <path clip-path="url(#p4ccb2bd280)" d="M 566.278125 75539.969887 
L 570.411458 75539.969887 
L 570.411458 75539.969887 
L 566.278125 75539.969887 
z
" style="fill:#1f77b4;"/>
   </g>
   <g id="patch_120">
    <path clip-path="url(#p4ccb2bd280)" d="M 570.411458 75539.969887 
L 574.544792 75539.969887 
L 574.544792 75539.969887 
L 570.411458 75539.969887 
z
" style="fill:#1f77b4;"/>
   </g>
   <g id="patch_121">
    <path clip-path="url(#p4ccb2bd280)" d="M 574.544792 75539.969887 
L 578.678125 75539.969887 
L 578.678125 75539.969887 
L 574.544792 75539.969887 
z
" style="fill:#1f77b4;"/>
   </g>
   <g id="patch_122">
    <path clip-path="url(#p4ccb2bd280)" d="M 578.678125 75539.969887 
L 582.811458 75539.969887 
L 582.811458 75539.969887 
L 578.678125 75539.969887 
z
" style="fill:#1f77b4;"/>
   </g>
   <g id="patch_123">
    <path clip-path="url(#p4ccb2bd280)" d="M 582.811458 75539.969887 
L 586.944792 75539.969887 
L 586.944792 75539.969887 
L 582.811458 75539.969887 
z
" style="fill:#1f77b4;"/>
   </g>
   <g id="patch_124">
    <path clip-path="url(#p4ccb2bd280)" d="M 586.944792 75539.969887 
L 591.078125 75539.969887 
L 591.078125 75539.969887 
L 586.944792 75539.969887 
z
" style="fill:#1f77b4;"/>
   </g>
   <g id="patch_125">
    <path clip-path="url(#p4ccb2bd280)" d="M 591.078125 75539.969887 
L 595.211458 75539.969887 
L 595.211458 75539.969887 
L 591.078125 75539.969887 
z
" style="fill:#1f77b4;"/>
   </g>
   <g id="patch_126">
    <path clip-path="url(#p4ccb2bd280)" d="M 595.211458 75539.969887 
L 599.344792 75539.969887 
L 599.344792 75539.969887 
L 595.211458 75539.969887 
z
" style="fill:#1f77b4;"/>
   </g>
   <g id="patch_127">
    <path clip-path="url(#p4ccb2bd280)" d="M 599.344792 75539.969887 
L 603.478125 75539.969887 
L 603.478125 75539.969887 
L 599.344792 75539.969887 
z
" style="fill:#1f77b4;"/>
   </g>
   <g id="patch_128">
    <path clip-path="url(#p4ccb2bd280)" d="M 603.478125 75539.969887 
L 607.611458 75539.969887 
L 607.611458 75539.969887 
L 603.478125 75539.969887 
z
" style="fill:#1f77b4;"/>
   </g>
   <g id="patch_129">
    <path clip-path="url(#p4ccb2bd280)" d="M 607.611458 75539.969887 
L 611.744792 75539.969887 
L 611.744792 75539.969887 
L 607.611458 75539.969887 
z
" style="fill:#1f77b4;"/>
   </g>
   <g id="patch_130">
    <path clip-path="url(#p4ccb2bd280)" d="M 611.744792 75539.969887 
L 615.878125 75539.969887 
L 615.878125 75539.969887 
L 611.744792 75539.969887 
z
" style="fill:#1f77b4;"/>
   </g>
   <g id="patch_131">
    <path clip-path="url(#p4ccb2bd280)" d="M 615.878125 75539.969887 
L 620.011458 75539.969887 
L 620.011458 75539.969887 
L 615.878125 75539.969887 
z
" style="fill:#1f77b4;"/>
   </g>
   <g id="patch_132">
    <path clip-path="url(#p4ccb2bd280)" d="M 620.011458 75539.969887 
L 624.144792 75539.969887 
L 624.144792 75539.969887 
L 620.011458 75539.969887 
z
" style="fill:#1f77b4;"/>
   </g>
   <g id="patch_133">
    <path clip-path="url(#p4ccb2bd280)" d="M 624.144792 75539.969887 
L 628.278125 75539.969887 
L 628.278125 75539.969887 
L 624.144792 75539.969887 
z
" style="fill:#1f77b4;"/>
   </g>
   <g id="patch_134">
    <path clip-path="url(#p4ccb2bd280)" d="M 628.278125 75539.969887 
L 632.411458 75539.969887 
L 632.411458 75539.969887 
L 628.278125 75539.969887 
z
" style="fill:#1f77b4;"/>
   </g>
   <g id="patch_135">
    <path clip-path="url(#p4ccb2bd280)" d="M 632.411458 75539.969887 
L 636.544792 75539.969887 
L 636.544792 75539.969887 
L 632.411458 75539.969887 
z
" style="fill:#1f77b4;"/>
   </g>
   <g id="patch_136">
    <path clip-path="url(#p4ccb2bd280)" d="M 636.544792 75539.969887 
L 640.678125 75539.969887 
L 640.678125 75539.969887 
L 636.544792 75539.969887 
z
" style="fill:#1f77b4;"/>
   </g>
   <g id="patch_137">
    <path clip-path="url(#p4ccb2bd280)" d="M 640.678125 75539.969887 
L 644.811458 75539.969887 
L 644.811458 75539.969887 
L 640.678125 75539.969887 
z
" style="fill:#1f77b4;"/>
   </g>
   <g id="patch_138">
    <path clip-path="url(#p4ccb2bd280)" d="M 644.811458 75539.969887 
L 648.944792 75539.969887 
L 648.944792 75539.969887 
L 644.811458 75539.969887 
z
" style="fill:#1f77b4;"/>
   </g>
   <g id="patch_139">
    <path clip-path="url(#p4ccb2bd280)" d="M 648.944792 75539.969887 
L 653.078125 75539.969887 
L 653.078125 75539.969887 
L 648.944792 75539.969887 
z
" style="fill:#1f77b4;"/>
   </g>
   <g id="patch_140">
    <path clip-path="url(#p4ccb2bd280)" d="M 653.078125 75539.969887 
L 657.211458 75539.969887 
L 657.211458 75539.969887 
L 653.078125 75539.969887 
z
" style="fill:#1f77b4;"/>
   </g>
   <g id="patch_141">
    <path clip-path="url(#p4ccb2bd280)" d="M 657.211458 75539.969887 
L 661.344792 75539.969887 
L 661.344792 75539.969887 
L 657.211458 75539.969887 
z
" style="fill:#1f77b4;"/>
   </g>
   <g id="patch_142">
    <path clip-path="url(#p4ccb2bd280)" d="M 661.344792 75539.969887 
L 665.478125 75539.969887 
L 665.478125 75539.969887 
L 661.344792 75539.969887 
z
" style="fill:#1f77b4;"/>
   </g>
   <g id="patch_143">
    <path clip-path="url(#p4ccb2bd280)" d="M 665.478125 75539.969887 
L 669.611458 75539.969887 
L 669.611458 75539.969887 
L 665.478125 75539.969887 
z
" style="fill:#1f77b4;"/>
   </g>
   <g id="patch_144">
    <path clip-path="url(#p4ccb2bd280)" d="M 669.611458 75539.969887 
L 673.744792 75539.969887 
L 673.744792 75539.969887 
L 669.611458 75539.969887 
z
" style="fill:#1f77b4;"/>
   </g>
   <g id="patch_145">
    <path clip-path="url(#p4ccb2bd280)" d="M 673.744792 75539.969887 
L 677.878125 75539.969887 
L 677.878125 75539.969887 
L 673.744792 75539.969887 
z
" style="fill:#1f77b4;"/>
   </g>
   <g id="patch_146">
    <path clip-path="url(#p4ccb2bd280)" d="M 677.878125 75539.969887 
L 682.011458 75539.969887 
L 682.011458 75539.969887 
L 677.878125 75539.969887 
z
" style="fill:#1f77b4;"/>
   </g>
   <g id="patch_147">
    <path clip-path="url(#p4ccb2bd280)" d="M 682.011458 75539.969887 
L 686.144792 75539.969887 
L 686.144792 75539.969887 
L 682.011458 75539.969887 
z
" style="fill:#1f77b4;"/>
   </g>
   <g id="patch_148">
    <path clip-path="url(#p4ccb2bd280)" d="M 686.144792 75539.969887 
L 690.278125 75539.969887 
L 690.278125 75539.969887 
L 686.144792 75539.969887 
z
" style="fill:#1f77b4;"/>
   </g>
   <g id="patch_149">
    <path clip-path="url(#p4ccb2bd280)" d="M 690.278125 75539.969887 
L 694.411458 75539.969887 
L 694.411458 75539.969887 
L 690.278125 75539.969887 
z
" style="fill:#1f77b4;"/>
   </g>
   <g id="patch_150">
    <path clip-path="url(#p4ccb2bd280)" d="M 694.411458 75539.969887 
L 698.544792 75539.969887 
L 698.544792 75539.969887 
L 694.411458 75539.969887 
z
" style="fill:#1f77b4;"/>
   </g>
   <g id="patch_151">
    <path clip-path="url(#p4ccb2bd280)" d="M 698.544792 75539.969887 
L 702.678125 75539.969887 
L 702.678125 75539.969887 
L 698.544792 75539.969887 
z
" style="fill:#1f77b4;"/>
   </g>
   <g id="patch_152">
    <path clip-path="url(#p4ccb2bd280)" d="M 702.678125 75539.969887 
L 706.811458 75539.969887 
L 706.811458 75539.969887 
L 702.678125 75539.969887 
z
" style="fill:#1f77b4;"/>
   </g>
   <g id="patch_153">
    <path clip-path="url(#p4ccb2bd280)" d="M 706.811458 75539.969887 
L 710.944792 75539.969887 
L 710.944792 75539.969887 
L 706.811458 75539.969887 
z
" style="fill:#1f77b4;"/>
   </g>
   <g id="patch_154">
    <path clip-path="url(#p4ccb2bd280)" d="M 710.944792 75539.969887 
L 715.078125 75539.969887 
L 715.078125 75539.969887 
L 710.944792 75539.969887 
z
" style="fill:#1f77b4;"/>
   </g>
   <g id="patch_155">
    <path clip-path="url(#p4ccb2bd280)" d="M 715.078125 75539.969887 
L 719.211458 75539.969887 
L 719.211458 75539.969887 
L 715.078125 75539.969887 
z
" style="fill:#1f77b4;"/>
   </g>
   <g id="patch_156">
    <path clip-path="url(#p4ccb2bd280)" d="M 719.211458 75539.969887 
L 723.344792 75539.969887 
L 723.344792 75539.969887 
L 719.211458 75539.969887 
z
" style="fill:#1f77b4;"/>
   </g>
   <g id="patch_157">
    <path clip-path="url(#p4ccb2bd280)" d="M 723.344792 75539.969887 
L 727.478125 75539.969887 
L 727.478125 75539.969887 
L 723.344792 75539.969887 
z
" style="fill:#1f77b4;"/>
   </g>
   <g id="patch_158">
    <path clip-path="url(#p4ccb2bd280)" d="M 727.478125 75539.969887 
L 731.611458 75539.969887 
L 731.611458 75539.969887 
L 727.478125 75539.969887 
z
" style="fill:#1f77b4;"/>
   </g>
   <g id="patch_159">
    <path clip-path="url(#p4ccb2bd280)" d="M 731.611458 75539.969887 
L 735.744792 75539.969887 
L 735.744792 75539.969887 
L 731.611458 75539.969887 
z
" style="fill:#1f77b4;"/>
   </g>
   <g id="patch_160">
    <path clip-path="url(#p4ccb2bd280)" d="M 735.744792 75539.969887 
L 739.878125 75539.969887 
L 739.878125 75539.969887 
L 735.744792 75539.969887 
z
" style="fill:#1f77b4;"/>
   </g>
   <g id="patch_161">
    <path clip-path="url(#p4ccb2bd280)" d="M 739.878125 75539.969887 
L 744.011458 75539.969887 
L 744.011458 75539.969887 
L 739.878125 75539.969887 
z
" style="fill:#1f77b4;"/>
   </g>
   <g id="patch_162">
    <path clip-path="url(#p4ccb2bd280)" d="M 744.011458 75539.969887 
L 748.144792 75539.969887 
L 748.144792 75539.969887 
L 744.011458 75539.969887 
z
" style="fill:#1f77b4;"/>
   </g>
   <g id="patch_163">
    <path clip-path="url(#p4ccb2bd280)" d="M 748.144792 75539.969887 
L 752.278125 75539.969887 
L 752.278125 75539.969887 
L 748.144792 75539.969887 
z
" style="fill:#1f77b4;"/>
   </g>
   <g id="patch_164">
    <path clip-path="url(#p4ccb2bd280)" d="M 752.278125 75539.969887 
L 756.411458 75539.969887 
L 756.411458 75539.969887 
L 752.278125 75539.969887 
z
" style="fill:#1f77b4;"/>
   </g>
   <g id="patch_165">
    <path clip-path="url(#p4ccb2bd280)" d="M 756.411458 75539.969887 
L 760.544792 75539.969887 
L 760.544792 75539.969887 
L 756.411458 75539.969887 
z
" style="fill:#1f77b4;"/>
   </g>
   <g id="patch_166">
    <path clip-path="url(#p4ccb2bd280)" d="M 760.544792 75539.969887 
L 764.678125 75539.969887 
L 764.678125 75539.969887 
L 760.544792 75539.969887 
z
" style="fill:#1f77b4;"/>
   </g>
   <g id="patch_167">
    <path clip-path="url(#p4ccb2bd280)" d="M 764.678125 75539.969887 
L 768.811458 75539.969887 
L 768.811458 75539.969887 
L 764.678125 75539.969887 
z
" style="fill:#1f77b4;"/>
   </g>
   <g id="patch_168">
    <path clip-path="url(#p4ccb2bd280)" d="M 768.811458 75539.969887 
L 772.944792 75539.969887 
L 772.944792 75539.969887 
L 768.811458 75539.969887 
z
" style="fill:#1f77b4;"/>
   </g>
   <g id="patch_169">
    <path clip-path="url(#p4ccb2bd280)" d="M 772.944792 75539.969887 
L 777.078125 75539.969887 
L 777.078125 75539.969887 
L 772.944792 75539.969887 
z
" style="fill:#1f77b4;"/>
   </g>
   <g id="patch_170">
    <path clip-path="url(#p4ccb2bd280)" d="M 777.078125 75539.969887 
L 781.211458 75539.969887 
L 781.211458 75539.969887 
L 777.078125 75539.969887 
z
" style="fill:#1f77b4;"/>
   </g>
   <g id="patch_171">
    <path clip-path="url(#p4ccb2bd280)" d="M 781.211458 75539.969887 
L 785.344792 75539.969887 
L 785.344792 75539.969887 
L 781.211458 75539.969887 
z
" style="fill:#1f77b4;"/>
   </g>
   <g id="patch_172">
    <path clip-path="url(#p4ccb2bd280)" d="M 785.344792 75539.969887 
L 789.478125 75539.969887 
L 789.478125 75539.969887 
L 785.344792 75539.969887 
z
" style="fill:#1f77b4;"/>
   </g>
   <g id="patch_173">
    <path clip-path="url(#p4ccb2bd280)" d="M 789.478125 75539.969887 
L 793.611458 75539.969887 
L 793.611458 75539.969887 
L 789.478125 75539.969887 
z
" style="fill:#1f77b4;"/>
   </g>
   <g id="patch_174">
    <path clip-path="url(#p4ccb2bd280)" d="M 793.611458 75539.969887 
L 797.744792 75539.969887 
L 797.744792 75539.969887 
L 793.611458 75539.969887 
z
" style="fill:#1f77b4;"/>
   </g>
   <g id="patch_175">
    <path clip-path="url(#p4ccb2bd280)" d="M 797.744792 75539.969887 
L 801.878125 75539.969887 
L 801.878125 75539.969887 
L 797.744792 75539.969887 
z
" style="fill:#1f77b4;"/>
   </g>
   <g id="patch_176">
    <path clip-path="url(#p4ccb2bd280)" d="M 801.878125 75539.969887 
L 806.011458 75539.969887 
L 806.011458 75539.969887 
L 801.878125 75539.969887 
z
" style="fill:#1f77b4;"/>
   </g>
   <g id="patch_177">
    <path clip-path="url(#p4ccb2bd280)" d="M 806.011458 75539.969887 
L 810.144792 75539.969887 
L 810.144792 75539.969887 
L 806.011458 75539.969887 
z
" style="fill:#1f77b4;"/>
   </g>
   <g id="patch_178">
    <path clip-path="url(#p4ccb2bd280)" d="M 810.144792 75539.969887 
L 814.278125 75539.969887 
L 814.278125 75539.969887 
L 810.144792 75539.969887 
z
" style="fill:#1f77b4;"/>
   </g>
   <g id="patch_179">
    <path clip-path="url(#p4ccb2bd280)" d="M 814.278125 75539.969887 
L 818.411458 75539.969887 
L 818.411458 75539.969887 
L 814.278125 75539.969887 
z
" style="fill:#1f77b4;"/>
   </g>
   <g id="patch_180">
    <path clip-path="url(#p4ccb2bd280)" d="M 818.411458 75539.969887 
L 822.544792 75539.969887 
L 822.544792 75539.969887 
L 818.411458 75539.969887 
z
" style="fill:#1f77b4;"/>
   </g>
   <g id="patch_181">
    <path clip-path="url(#p4ccb2bd280)" d="M 822.544792 75539.969887 
L 826.678125 75539.969887 
L 826.678125 75539.969887 
L 822.544792 75539.969887 
z
" style="fill:#1f77b4;"/>
   </g>
   <g id="patch_182">
    <path clip-path="url(#p4ccb2bd280)" d="M 826.678125 75539.969887 
L 830.811458 75539.969887 
L 830.811458 75539.969887 
L 826.678125 75539.969887 
z
" style="fill:#1f77b4;"/>
   </g>
   <g id="patch_183">
    <path clip-path="url(#p4ccb2bd280)" d="M 830.811458 75539.969887 
L 834.944792 75539.969887 
L 834.944792 75539.969887 
L 830.811458 75539.969887 
z
" style="fill:#1f77b4;"/>
   </g>
   <g id="patch_184">
    <path clip-path="url(#p4ccb2bd280)" d="M 834.944792 75539.969887 
L 839.078125 75539.969887 
L 839.078125 75539.969887 
L 834.944792 75539.969887 
z
" style="fill:#1f77b4;"/>
   </g>
   <g id="patch_185">
    <path clip-path="url(#p4ccb2bd280)" d="M 839.078125 75539.969887 
L 843.211458 75539.969887 
L 843.211458 75539.969887 
L 839.078125 75539.969887 
z
" style="fill:#1f77b4;"/>
   </g>
   <g id="patch_186">
    <path clip-path="url(#p4ccb2bd280)" d="M 843.211458 75539.969887 
L 847.344792 75539.969887 
L 847.344792 75539.969887 
L 843.211458 75539.969887 
z
" style="fill:#1f77b4;"/>
   </g>
   <g id="patch_187">
    <path clip-path="url(#p4ccb2bd280)" d="M 847.344792 75539.969887 
L 851.478125 75539.969887 
L 851.478125 75539.969887 
L 847.344792 75539.969887 
z
" style="fill:#1f77b4;"/>
   </g>
   <g id="patch_188">
    <path clip-path="url(#p4ccb2bd280)" d="M 851.478125 75539.969887 
L 855.611458 75539.969887 
L 855.611458 75539.969887 
L 851.478125 75539.969887 
z
" style="fill:#1f77b4;"/>
   </g>
   <g id="patch_189">
    <path clip-path="url(#p4ccb2bd280)" d="M 855.611458 75539.969887 
L 859.744792 75539.969887 
L 859.744792 75539.969887 
L 855.611458 75539.969887 
z
" style="fill:#1f77b4;"/>
   </g>
   <g id="patch_190">
    <path clip-path="url(#p4ccb2bd280)" d="M 859.744792 75539.969887 
L 863.878125 75539.969887 
L 863.878125 75539.969887 
L 859.744792 75539.969887 
z
" style="fill:#1f77b4;"/>
   </g>
   <g id="patch_191">
    <path clip-path="url(#p4ccb2bd280)" d="M 863.878125 75539.969887 
L 868.011458 75539.969887 
L 868.011458 75539.969887 
L 863.878125 75539.969887 
z
" style="fill:#1f77b4;"/>
   </g>
   <g id="patch_192">
    <path clip-path="url(#p4ccb2bd280)" d="M 868.011458 75539.969887 
L 872.144792 75539.969887 
L 872.144792 75539.969887 
L 868.011458 75539.969887 
z
" style="fill:#1f77b4;"/>
   </g>
   <g id="patch_193">
    <path clip-path="url(#p4ccb2bd280)" d="M 872.144792 75539.969887 
L 876.278125 75539.969887 
L 876.278125 75539.969887 
L 872.144792 75539.969887 
z
" style="fill:#1f77b4;"/>
   </g>
   <g id="patch_194">
    <path clip-path="url(#p4ccb2bd280)" d="M 876.278125 75539.969887 
L 880.411458 75539.969887 
L 880.411458 75539.969887 
L 876.278125 75539.969887 
z
" style="fill:#1f77b4;"/>
   </g>
   <g id="patch_195">
    <path clip-path="url(#p4ccb2bd280)" d="M 880.411458 75539.969887 
L 884.544792 75539.969887 
L 884.544792 75539.969887 
L 880.411458 75539.969887 
z
" style="fill:#1f77b4;"/>
   </g>
   <g id="patch_196">
    <path clip-path="url(#p4ccb2bd280)" d="M 884.544792 75539.969887 
L 888.678125 75539.969887 
L 888.678125 75539.969887 
L 884.544792 75539.969887 
z
" style="fill:#1f77b4;"/>
   </g>
   <g id="patch_197">
    <path clip-path="url(#p4ccb2bd280)" d="M 888.678125 75539.969887 
L 892.811458 75539.969887 
L 892.811458 75539.969887 
L 888.678125 75539.969887 
z
" style="fill:#1f77b4;"/>
   </g>
   <g id="patch_198">
    <path clip-path="url(#p4ccb2bd280)" d="M 892.811458 75539.969887 
L 896.944792 75539.969887 
L 896.944792 75539.969887 
L 892.811458 75539.969887 
z
" style="fill:#1f77b4;"/>
   </g>
   <g id="patch_199">
    <path clip-path="url(#p4ccb2bd280)" d="M 896.944792 75539.969887 
L 901.078125 75539.969887 
L 901.078125 75539.969887 
L 896.944792 75539.969887 
z
" style="fill:#1f77b4;"/>
   </g>
   <g id="patch_200">
    <path clip-path="url(#p4ccb2bd280)" d="M 901.078125 75539.969887 
L 905.211458 75539.969887 
L 905.211458 75539.969887 
L 901.078125 75539.969887 
z
" style="fill:#1f77b4;"/>
   </g>
   <g id="patch_201">
    <path clip-path="url(#p4ccb2bd280)" d="M 905.211458 75539.969887 
L 909.344792 75539.969887 
L 909.344792 75539.969887 
L 905.211458 75539.969887 
z
" style="fill:#1f77b4;"/>
   </g>
   <g id="patch_202">
    <path clip-path="url(#p4ccb2bd280)" d="M 909.344792 75539.969887 
L 913.478125 75539.969887 
L 913.478125 75539.969887 
L 909.344792 75539.969887 
z
" style="fill:#1f77b4;"/>
   </g>
   <g id="patch_203">
    <path clip-path="url(#p4ccb2bd280)" d="M 913.478125 75539.969887 
L 917.611458 75539.969887 
L 917.611458 75539.969887 
L 913.478125 75539.969887 
z
" style="fill:#1f77b4;"/>
   </g>
   <g id="patch_204">
    <path clip-path="url(#p4ccb2bd280)" d="M 917.611458 75539.969887 
L 921.744792 75539.969887 
L 921.744792 75539.969887 
L 917.611458 75539.969887 
z
" style="fill:#1f77b4;"/>
   </g>
   <g id="patch_205">
    <path clip-path="url(#p4ccb2bd280)" d="M 921.744792 75539.969887 
L 925.878125 75539.969887 
L 925.878125 75539.969887 
L 921.744792 75539.969887 
z
" style="fill:#1f77b4;"/>
   </g>
   <g id="patch_206">
    <path clip-path="url(#p4ccb2bd280)" d="M 925.878125 75539.969887 
L 930.011458 75539.969887 
L 930.011458 75539.969887 
L 925.878125 75539.969887 
z
" style="fill:#1f77b4;"/>
   </g>
   <g id="patch_207">
    <path clip-path="url(#p4ccb2bd280)" d="M 930.011458 75539.969887 
L 934.144792 75539.969887 
L 934.144792 75539.969887 
L 930.011458 75539.969887 
z
" style="fill:#1f77b4;"/>
   </g>
   <g id="patch_208">
    <path clip-path="url(#p4ccb2bd280)" d="M 934.144792 75539.969887 
L 938.278125 75539.969887 
L 938.278125 75539.969887 
L 934.144792 75539.969887 
z
" style="fill:#1f77b4;"/>
   </g>
   <g id="patch_209">
    <path clip-path="url(#p4ccb2bd280)" d="M 938.278125 75539.969887 
L 942.411458 75539.969887 
L 942.411458 75539.969887 
L 938.278125 75539.969887 
z
" style="fill:#1f77b4;"/>
   </g>
   <g id="patch_210">
    <path clip-path="url(#p4ccb2bd280)" d="M 942.411458 75539.969887 
L 946.544792 75539.969887 
L 946.544792 75539.969887 
L 942.411458 75539.969887 
z
" style="fill:#1f77b4;"/>
   </g>
   <g id="patch_211">
    <path clip-path="url(#p4ccb2bd280)" d="M 946.544792 75539.969887 
L 950.678125 75539.969887 
L 950.678125 75539.969887 
L 946.544792 75539.969887 
z
" style="fill:#1f77b4;"/>
   </g>
   <g id="patch_212">
    <path clip-path="url(#p4ccb2bd280)" d="M 950.678125 75539.969887 
L 954.811458 75539.969887 
L 954.811458 75539.969887 
L 950.678125 75539.969887 
z
" style="fill:#1f77b4;"/>
   </g>
   <g id="patch_213">
    <path clip-path="url(#p4ccb2bd280)" d="M 954.811458 75539.969887 
L 958.944792 75539.969887 
L 958.944792 75539.969887 
L 954.811458 75539.969887 
z
" style="fill:#1f77b4;"/>
   </g>
   <g id="patch_214">
    <path clip-path="url(#p4ccb2bd280)" d="M 958.944792 75539.969887 
L 963.078125 75539.969887 
L 963.078125 75539.969887 
L 958.944792 75539.969887 
z
" style="fill:#1f77b4;"/>
   </g>
   <g id="patch_215">
    <path clip-path="url(#p4ccb2bd280)" d="M 963.078125 75539.969887 
L 967.211458 75539.969887 
L 967.211458 75539.969887 
L 963.078125 75539.969887 
z
" style="fill:#1f77b4;"/>
   </g>
   <g id="patch_216">
    <path clip-path="url(#p4ccb2bd280)" d="M 967.211458 75539.969887 
L 971.344792 75539.969887 
L 971.344792 75539.969887 
L 967.211458 75539.969887 
z
" style="fill:#1f77b4;"/>
   </g>
   <g id="patch_217">
    <path clip-path="url(#p4ccb2bd280)" d="M 971.344792 75539.969887 
L 975.478125 75539.969887 
L 975.478125 75539.969887 
L 971.344792 75539.969887 
z
" style="fill:#1f77b4;"/>
   </g>
   <g id="patch_218">
    <path clip-path="url(#p4ccb2bd280)" d="M 975.478125 75539.969887 
L 979.611458 75539.969887 
L 979.611458 75539.969887 
L 975.478125 75539.969887 
z
" style="fill:#1f77b4;"/>
   </g>
   <g id="patch_219">
    <path clip-path="url(#p4ccb2bd280)" d="M 979.611458 75539.969887 
L 983.744792 75539.969887 
L 983.744792 75539.969887 
L 979.611458 75539.969887 
z
" style="fill:#1f77b4;"/>
   </g>
   <g id="patch_220">
    <path clip-path="url(#p4ccb2bd280)" d="M 983.744792 75539.969887 
L 987.878125 75539.969887 
L 987.878125 75539.969887 
L 983.744792 75539.969887 
z
" style="fill:#1f77b4;"/>
   </g>
   <g id="patch_221">
    <path clip-path="url(#p4ccb2bd280)" d="M 987.878125 75539.969887 
L 992.011458 75539.969887 
L 992.011458 75539.969887 
L 987.878125 75539.969887 
z
" style="fill:#1f77b4;"/>
   </g>
   <g id="patch_222">
    <path clip-path="url(#p4ccb2bd280)" d="M 992.011458 75539.969887 
L 996.144792 75539.969887 
L 996.144792 75539.969887 
L 992.011458 75539.969887 
z
" style="fill:#1f77b4;"/>
   </g>
   <g id="patch_223">
    <path clip-path="url(#p4ccb2bd280)" d="M 996.144792 75539.969887 
L 1000.278125 75539.969887 
L 1000.278125 75539.969887 
L 996.144792 75539.969887 
z
" style="fill:#1f77b4;"/>
   </g>
   <g id="patch_224">
    <path clip-path="url(#p4ccb2bd280)" d="M 1000.278125 75539.969887 
L 1004.411458 75539.969887 
L 1004.411458 75539.969887 
L 1000.278125 75539.969887 
z
" style="fill:#1f77b4;"/>
   </g>
   <g id="patch_225">
    <path clip-path="url(#p4ccb2bd280)" d="M 1004.411458 75539.969887 
L 1008.544792 75539.969887 
L 1008.544792 75539.969887 
L 1004.411458 75539.969887 
z
" style="fill:#1f77b4;"/>
   </g>
   <g id="patch_226">
    <path clip-path="url(#p4ccb2bd280)" d="M 1008.544792 75539.969887 
L 1012.678125 75539.969887 
L 1012.678125 75539.969887 
L 1008.544792 75539.969887 
z
" style="fill:#1f77b4;"/>
   </g>
   <g id="patch_227">
    <path clip-path="url(#p4ccb2bd280)" d="M 1012.678125 75539.969887 
L 1016.811458 75539.969887 
L 1016.811458 75539.969887 
L 1012.678125 75539.969887 
z
" style="fill:#1f77b4;"/>
   </g>
   <g id="patch_228">
    <path clip-path="url(#p4ccb2bd280)" d="M 1016.811458 75539.969887 
L 1020.944792 75539.969887 
L 1020.944792 75539.969887 
L 1016.811458 75539.969887 
z
" style="fill:#1f77b4;"/>
   </g>
   <g id="patch_229">
    <path clip-path="url(#p4ccb2bd280)" d="M 1020.944792 75539.969887 
L 1025.078125 75539.969887 
L 1025.078125 75539.969887 
L 1020.944792 75539.969887 
z
" style="fill:#1f77b4;"/>
   </g>
   <g id="patch_230">
    <path clip-path="url(#p4ccb2bd280)" d="M 1025.078125 75539.969887 
L 1029.211458 75539.969887 
L 1029.211458 75539.969887 
L 1025.078125 75539.969887 
z
" style="fill:#1f77b4;"/>
   </g>
   <g id="patch_231">
    <path clip-path="url(#p4ccb2bd280)" d="M 1029.211458 75539.969887 
L 1033.344792 75539.969887 
L 1033.344792 75539.969887 
L 1029.211458 75539.969887 
z
" style="fill:#1f77b4;"/>
   </g>
   <g id="patch_232">
    <path clip-path="url(#p4ccb2bd280)" d="M 1033.344792 75539.969887 
L 1037.478125 75539.969887 
L 1037.478125 75539.969887 
L 1033.344792 75539.969887 
z
" style="fill:#1f77b4;"/>
   </g>
   <g id="patch_233">
    <path clip-path="url(#p4ccb2bd280)" d="M 1037.478125 75539.969887 
L 1041.611458 75539.969887 
L 1041.611458 75539.969887 
L 1037.478125 75539.969887 
z
" style="fill:#1f77b4;"/>
   </g>
   <g id="patch_234">
    <path clip-path="url(#p4ccb2bd280)" d="M 1041.611458 75539.969887 
L 1045.744792 75539.969887 
L 1045.744792 75539.969887 
L 1041.611458 75539.969887 
z
" style="fill:#1f77b4;"/>
   </g>
   <g id="patch_235">
    <path clip-path="url(#p4ccb2bd280)" d="M 1045.744792 75539.969887 
L 1049.878125 75539.969887 
L 1049.878125 75539.969887 
L 1045.744792 75539.969887 
z
" style="fill:#1f77b4;"/>
   </g>
   <g id="patch_236">
    <path clip-path="url(#p4ccb2bd280)" d="M 1049.878125 75539.969887 
L 1054.011458 75539.969887 
L 1054.011458 75539.969887 
L 1049.878125 75539.969887 
z
" style="fill:#1f77b4;"/>
   </g>
   <g id="patch_237">
    <path clip-path="url(#p4ccb2bd280)" d="M 1054.011458 75539.969887 
L 1058.144792 75539.969887 
L 1058.144792 75539.969887 
L 1054.011458 75539.969887 
z
" style="fill:#1f77b4;"/>
   </g>
   <g id="patch_238">
    <path clip-path="url(#p4ccb2bd280)" d="M 1058.144792 75539.969887 
L 1062.278125 75539.969887 
L 1062.278125 75539.969887 
L 1058.144792 75539.969887 
z
" style="fill:#1f77b4;"/>
   </g>
   <g id="patch_239">
    <path clip-path="url(#p4ccb2bd280)" d="M 1062.278125 75539.969887 
L 1066.411458 75539.969887 
L 1066.411458 75539.969887 
L 1062.278125 75539.969887 
z
" style="fill:#1f77b4;"/>
   </g>
   <g id="patch_240">
    <path clip-path="url(#p4ccb2bd280)" d="M 1066.411458 75539.969887 
L 1070.544792 75539.969887 
L 1070.544792 75539.969887 
L 1066.411458 75539.969887 
z
" style="fill:#1f77b4;"/>
   </g>
   <g id="patch_241">
    <path clip-path="url(#p4ccb2bd280)" d="M 1070.544792 75539.969887 
L 1074.678125 75539.969887 
L 1074.678125 75539.969887 
L 1070.544792 75539.969887 
z
" style="fill:#1f77b4;"/>
   </g>
   <g id="patch_242">
    <path clip-path="url(#p4ccb2bd280)" d="M 1074.678125 75539.969887 
L 1078.811458 75539.969887 
L 1078.811458 75539.969887 
L 1074.678125 75539.969887 
z
" style="fill:#1f77b4;"/>
   </g>
   <g id="patch_243">
    <path clip-path="url(#p4ccb2bd280)" d="M 1078.811458 75539.969887 
L 1082.944792 75539.969887 
L 1082.944792 75539.969887 
L 1078.811458 75539.969887 
z
" style="fill:#1f77b4;"/>
   </g>
   <g id="patch_244">
    <path clip-path="url(#p4ccb2bd280)" d="M 1082.944792 75539.969887 
L 1087.078125 75539.969887 
L 1087.078125 75539.969887 
L 1082.944792 75539.969887 
z
" style="fill:#1f77b4;"/>
   </g>
   <g id="patch_245">
    <path clip-path="url(#p4ccb2bd280)" d="M 1087.078125 75539.969887 
L 1091.211458 75539.969887 
L 1091.211458 75539.969887 
L 1087.078125 75539.969887 
z
" style="fill:#1f77b4;"/>
   </g>
   <g id="patch_246">
    <path clip-path="url(#p4ccb2bd280)" d="M 1091.211458 75539.969887 
L 1095.344792 75539.969887 
L 1095.344792 75539.969887 
L 1091.211458 75539.969887 
z
" style="fill:#1f77b4;"/>
   </g>
   <g id="patch_247">
    <path clip-path="url(#p4ccb2bd280)" d="M 1095.344792 75539.969887 
L 1099.478125 75539.969887 
L 1099.478125 75539.969887 
L 1095.344792 75539.969887 
z
" style="fill:#1f77b4;"/>
   </g>
   <g id="patch_248">
    <path clip-path="url(#p4ccb2bd280)" d="M 1099.478125 75539.969887 
L 1103.611458 75539.969887 
L 1103.611458 75539.969887 
L 1099.478125 75539.969887 
z
" style="fill:#1f77b4;"/>
   </g>
   <g id="patch_249">
    <path clip-path="url(#p4ccb2bd280)" d="M 1103.611458 75539.969887 
L 1107.744792 75539.969887 
L 1107.744792 75539.969887 
L 1103.611458 75539.969887 
z
" style="fill:#1f77b4;"/>
   </g>
   <g id="patch_250">
    <path clip-path="url(#p4ccb2bd280)" d="M 1107.744792 75539.969887 
L 1111.878125 75539.969887 
L 1111.878125 75539.969887 
L 1107.744792 75539.969887 
z
" style="fill:#1f77b4;"/>
   </g>
   <g id="patch_251">
    <path clip-path="url(#p4ccb2bd280)" d="M 1111.878125 75539.969887 
L 1116.011458 75539.969887 
L 1116.011458 75539.969887 
L 1111.878125 75539.969887 
z
" style="fill:#1f77b4;"/>
   </g>
   <g id="patch_252">
    <path clip-path="url(#p4ccb2bd280)" d="M 1116.011458 75539.969887 
L 1120.144792 75539.969887 
L 1120.144792 75539.969887 
L 1116.011458 75539.969887 
z
" style="fill:#1f77b4;"/>
   </g>
   <g id="matplotlib.axis_1">
    <g id="xtick_1">
     <g id="line2d_1">
      <defs>
       <path d="M 0 0 
L 0 3.5 
" id="m7eb51b4b8b" style="stroke:#000000;stroke-width:0.8;"/>
      </defs>
      <g>
       <use style="stroke:#000000;stroke-width:0.8;" x="86.811458" xlink:href="#m7eb51b4b8b" y="603.592875"/>
      </g>
     </g>
     <g id="text_1">
      <!-- 0 -->
      <defs>
       <path d="M 31.78125 66.40625 
Q 24.171875 66.40625 20.328125 58.90625 
Q 16.5 51.421875 16.5 36.375 
Q 16.5 21.390625 20.328125 13.890625 
Q 24.171875 6.390625 31.78125 6.390625 
Q 39.453125 6.390625 43.28125 13.890625 
Q 47.125 21.390625 47.125 36.375 
Q 47.125 51.421875 43.28125 58.90625 
Q 39.453125 66.40625 31.78125 66.40625 
z
M 31.78125 74.21875 
Q 44.046875 74.21875 50.515625 64.515625 
Q 56.984375 54.828125 56.984375 36.375 
Q 56.984375 17.96875 50.515625 8.265625 
Q 44.046875 -1.421875 31.78125 -1.421875 
Q 19.53125 -1.421875 13.0625 8.265625 
Q 6.59375 17.96875 6.59375 36.375 
Q 6.59375 54.828125 13.0625 64.515625 
Q 19.53125 74.21875 31.78125 74.21875 
z
" id="DejaVuSans-30"/>
      </defs>
      <g transform="translate(83.630208 618.191313)scale(0.1 -0.1)">
       <use xlink:href="#DejaVuSans-30"/>
      </g>
     </g>
    </g>
    <g id="xtick_2">
     <g id="line2d_2">
      <g>
       <use style="stroke:#000000;stroke-width:0.8;" x="293.478125" xlink:href="#m7eb51b4b8b" y="603.592875"/>
      </g>
     </g>
     <g id="text_2">
      <!-- 50 -->
      <defs>
       <path d="M 10.796875 72.90625 
L 49.515625 72.90625 
L 49.515625 64.59375 
L 19.828125 64.59375 
L 19.828125 46.734375 
Q 21.96875 47.46875 24.109375 47.828125 
Q 26.265625 48.1875 28.421875 48.1875 
Q 40.625 48.1875 47.75 41.5 
Q 54.890625 34.8125 54.890625 23.390625 
Q 54.890625 11.625 47.5625 5.09375 
Q 40.234375 -1.421875 26.90625 -1.421875 
Q 22.3125 -1.421875 17.546875 -0.640625 
Q 12.796875 0.140625 7.71875 1.703125 
L 7.71875 11.625 
Q 12.109375 9.234375 16.796875 8.0625 
Q 21.484375 6.890625 26.703125 6.890625 
Q 35.15625 6.890625 40.078125 11.328125 
Q 45.015625 15.765625 45.015625 23.390625 
Q 45.015625 31 40.078125 35.4375 
Q 35.15625 39.890625 26.703125 39.890625 
Q 22.75 39.890625 18.8125 39.015625 
Q 14.890625 38.140625 10.796875 36.28125 
z
" id="DejaVuSans-35"/>
      </defs>
      <g transform="translate(287.115625 618.191313)scale(0.1 -0.1)">
       <use xlink:href="#DejaVuSans-35"/>
       <use x="63.623047" xlink:href="#DejaVuSans-30"/>
      </g>
     </g>
    </g>
    <g id="xtick_3">
     <g id="line2d_3">
      <g>
       <use style="stroke:#000000;stroke-width:0.8;" x="500.144792" xlink:href="#m7eb51b4b8b" y="603.592875"/>
      </g>
     </g>
     <g id="text_3">
      <!-- 100 -->
      <defs>
       <path d="M 12.40625 8.296875 
L 28.515625 8.296875 
L 28.515625 63.921875 
L 10.984375 60.40625 
L 10.984375 69.390625 
L 28.421875 72.90625 
L 38.28125 72.90625 
L 38.28125 8.296875 
L 54.390625 8.296875 
L 54.390625 0 
L 12.40625 0 
z
" id="DejaVuSans-31"/>
      </defs>
      <g transform="translate(490.601042 618.191313)scale(0.1 -0.1)">
       <use xlink:href="#DejaVuSans-31"/>
       <use x="63.623047" xlink:href="#DejaVuSans-30"/>
       <use x="127.246094" xlink:href="#DejaVuSans-30"/>
      </g>
     </g>
    </g>
    <g id="xtick_4">
     <g id="line2d_4">
      <g>
       <use style="stroke:#000000;stroke-width:0.8;" x="706.811458" xlink:href="#m7eb51b4b8b" y="603.592875"/>
      </g>
     </g>
     <g id="text_4">
      <!-- 150 -->
      <g transform="translate(697.267708 618.191313)scale(0.1 -0.1)">
       <use xlink:href="#DejaVuSans-31"/>
       <use x="63.623047" xlink:href="#DejaVuSans-35"/>
       <use x="127.246094" xlink:href="#DejaVuSans-30"/>
      </g>
     </g>
    </g>
    <g id="xtick_5">
     <g id="line2d_5">
      <g>
       <use style="stroke:#000000;stroke-width:0.8;" x="913.478125" xlink:href="#m7eb51b4b8b" y="603.592875"/>
      </g>
     </g>
     <g id="text_5">
      <!-- 200 -->
      <defs>
       <path d="M 19.1875 8.296875 
L 53.609375 8.296875 
L 53.609375 0 
L 7.328125 0 
L 7.328125 8.296875 
Q 12.9375 14.109375 22.625 23.890625 
Q 32.328125 33.6875 34.8125 36.53125 
Q 39.546875 41.84375 41.421875 45.53125 
Q 43.3125 49.21875 43.3125 52.78125 
Q 43.3125 58.59375 39.234375 62.25 
Q 35.15625 65.921875 28.609375 65.921875 
Q 23.96875 65.921875 18.8125 64.3125 
Q 13.671875 62.703125 7.8125 59.421875 
L 7.8125 69.390625 
Q 13.765625 71.78125 18.9375 73 
Q 24.125 74.21875 28.421875 74.21875 
Q 39.75 74.21875 46.484375 68.546875 
Q 53.21875 62.890625 53.21875 53.421875 
Q 53.21875 48.921875 51.53125 44.890625 
Q 49.859375 40.875 45.40625 35.40625 
Q 44.1875 33.984375 37.640625 27.21875 
Q 31.109375 20.453125 19.1875 8.296875 
z
" id="DejaVuSans-32"/>
      </defs>
      <g transform="translate(903.934375 618.191313)scale(0.1 -0.1)">
       <use xlink:href="#DejaVuSans-32"/>
       <use x="63.623047" xlink:href="#DejaVuSans-30"/>
       <use x="127.246094" xlink:href="#DejaVuSans-30"/>
      </g>
     </g>
    </g>
    <g id="xtick_6">
     <g id="line2d_6">
      <g>
       <use style="stroke:#000000;stroke-width:0.8;" x="1120.144792" xlink:href="#m7eb51b4b8b" y="603.592875"/>
      </g>
     </g>
     <g id="text_6">
      <!-- 250 -->
      <g transform="translate(1110.601042 618.191313)scale(0.1 -0.1)">
       <use xlink:href="#DejaVuSans-32"/>
       <use x="63.623047" xlink:href="#DejaVuSans-35"/>
       <use x="127.246094" xlink:href="#DejaVuSans-30"/>
      </g>
     </g>
    </g>
    <g id="text_7">
     <!-- Number of nodes connections events -->
     <defs>
      <path d="M 9.8125 72.90625 
L 23.09375 72.90625 
L 55.421875 11.921875 
L 55.421875 72.90625 
L 64.984375 72.90625 
L 64.984375 0 
L 51.703125 0 
L 19.390625 60.984375 
L 19.390625 0 
L 9.8125 0 
z
" id="DejaVuSans-4e"/>
      <path d="M 8.5 21.578125 
L 8.5 54.6875 
L 17.484375 54.6875 
L 17.484375 21.921875 
Q 17.484375 14.15625 20.5 10.265625 
Q 23.53125 6.390625 29.59375 6.390625 
Q 36.859375 6.390625 41.078125 11.03125 
Q 45.3125 15.671875 45.3125 23.6875 
L 45.3125 54.6875 
L 54.296875 54.6875 
L 54.296875 0 
L 45.3125 0 
L 45.3125 8.40625 
Q 42.046875 3.421875 37.71875 1 
Q 33.40625 -1.421875 27.6875 -1.421875 
Q 18.265625 -1.421875 13.375 4.4375 
Q 8.5 10.296875 8.5 21.578125 
z
M 31.109375 56 
z
" id="DejaVuSans-75"/>
      <path d="M 52 44.1875 
Q 55.375 50.25 60.0625 53.125 
Q 64.75 56 71.09375 56 
Q 79.640625 56 84.28125 50.015625 
Q 88.921875 44.046875 88.921875 33.015625 
L 88.921875 0 
L 79.890625 0 
L 79.890625 32.71875 
Q 79.890625 40.578125 77.09375 44.375 
Q 74.3125 48.1875 68.609375 48.1875 
Q 61.625 48.1875 57.5625 43.546875 
Q 53.515625 38.921875 53.515625 30.90625 
L 53.515625 0 
L 44.484375 0 
L 44.484375 32.71875 
Q 44.484375 40.625 41.703125 44.40625 
Q 38.921875 48.1875 33.109375 48.1875 
Q 26.21875 48.1875 22.15625 43.53125 
Q 18.109375 38.875 18.109375 30.90625 
L 18.109375 0 
L 9.078125 0 
L 9.078125 54.6875 
L 18.109375 54.6875 
L 18.109375 46.1875 
Q 21.1875 51.21875 25.484375 53.609375 
Q 29.78125 56 35.6875 56 
Q 41.65625 56 45.828125 52.96875 
Q 50 49.953125 52 44.1875 
z
" id="DejaVuSans-6d"/>
      <path d="M 48.6875 27.296875 
Q 48.6875 37.203125 44.609375 42.84375 
Q 40.53125 48.484375 33.40625 48.484375 
Q 26.265625 48.484375 22.1875 42.84375 
Q 18.109375 37.203125 18.109375 27.296875 
Q 18.109375 17.390625 22.1875 11.75 
Q 26.265625 6.109375 33.40625 6.109375 
Q 40.53125 6.109375 44.609375 11.75 
Q 48.6875 17.390625 48.6875 27.296875 
z
M 18.109375 46.390625 
Q 20.953125 51.265625 25.265625 53.625 
Q 29.59375 56 35.59375 56 
Q 45.5625 56 51.78125 48.09375 
Q 58.015625 40.1875 58.015625 27.296875 
Q 58.015625 14.40625 51.78125 6.484375 
Q 45.5625 -1.421875 35.59375 -1.421875 
Q 29.59375 -1.421875 25.265625 0.953125 
Q 20.953125 3.328125 18.109375 8.203125 
L 18.109375 0 
L 9.078125 0 
L 9.078125 75.984375 
L 18.109375 75.984375 
z
" id="DejaVuSans-62"/>
      <path d="M 56.203125 29.59375 
L 56.203125 25.203125 
L 14.890625 25.203125 
Q 15.484375 15.921875 20.484375 11.0625 
Q 25.484375 6.203125 34.421875 6.203125 
Q 39.59375 6.203125 44.453125 7.46875 
Q 49.3125 8.734375 54.109375 11.28125 
L 54.109375 2.78125 
Q 49.265625 0.734375 44.1875 -0.34375 
Q 39.109375 -1.421875 33.890625 -1.421875 
Q 20.796875 -1.421875 13.15625 6.1875 
Q 5.515625 13.8125 5.515625 26.8125 
Q 5.515625 40.234375 12.765625 48.109375 
Q 20.015625 56 32.328125 56 
Q 43.359375 56 49.78125 48.890625 
Q 56.203125 41.796875 56.203125 29.59375 
z
M 47.21875 32.234375 
Q 47.125 39.59375 43.09375 43.984375 
Q 39.0625 48.390625 32.421875 48.390625 
Q 24.90625 48.390625 20.390625 44.140625 
Q 15.875 39.890625 15.1875 32.171875 
z
" id="DejaVuSans-65"/>
      <path d="M 41.109375 46.296875 
Q 39.59375 47.171875 37.8125 47.578125 
Q 36.03125 48 33.890625 48 
Q 26.265625 48 22.1875 43.046875 
Q 18.109375 38.09375 18.109375 28.8125 
L 18.109375 0 
L 9.078125 0 
L 9.078125 54.6875 
L 18.109375 54.6875 
L 18.109375 46.1875 
Q 20.953125 51.171875 25.484375 53.578125 
Q 30.03125 56 36.53125 56 
Q 37.453125 56 38.578125 55.875 
Q 39.703125 55.765625 41.0625 55.515625 
z
" id="DejaVuSans-72"/>
      <path id="DejaVuSans-20"/>
      <path d="M 30.609375 48.390625 
Q 23.390625 48.390625 19.1875 42.75 
Q 14.984375 37.109375 14.984375 27.296875 
Q 14.984375 17.484375 19.15625 11.84375 
Q 23.34375 6.203125 30.609375 6.203125 
Q 37.796875 6.203125 41.984375 11.859375 
Q 46.1875 17.53125 46.1875 27.296875 
Q 46.1875 37.015625 41.984375 42.703125 
Q 37.796875 48.390625 30.609375 48.390625 
z
M 30.609375 56 
Q 42.328125 56 49.015625 48.375 
Q 55.71875 40.765625 55.71875 27.296875 
Q 55.71875 13.875 49.015625 6.21875 
Q 42.328125 -1.421875 30.609375 -1.421875 
Q 18.84375 -1.421875 12.171875 6.21875 
Q 5.515625 13.875 5.515625 27.296875 
Q 5.515625 40.765625 12.171875 48.375 
Q 18.84375 56 30.609375 56 
z
" id="DejaVuSans-6f"/>
      <path d="M 37.109375 75.984375 
L 37.109375 68.5 
L 28.515625 68.5 
Q 23.6875 68.5 21.796875 66.546875 
Q 19.921875 64.59375 19.921875 59.515625 
L 19.921875 54.6875 
L 34.71875 54.6875 
L 34.71875 47.703125 
L 19.921875 47.703125 
L 19.921875 0 
L 10.890625 0 
L 10.890625 47.703125 
L 2.296875 47.703125 
L 2.296875 54.6875 
L 10.890625 54.6875 
L 10.890625 58.5 
Q 10.890625 67.625 15.140625 71.796875 
Q 19.390625 75.984375 28.609375 75.984375 
z
" id="DejaVuSans-66"/>
      <path d="M 54.890625 33.015625 
L 54.890625 0 
L 45.90625 0 
L 45.90625 32.71875 
Q 45.90625 40.484375 42.875 44.328125 
Q 39.84375 48.1875 33.796875 48.1875 
Q 26.515625 48.1875 22.3125 43.546875 
Q 18.109375 38.921875 18.109375 30.90625 
L 18.109375 0 
L 9.078125 0 
L 9.078125 54.6875 
L 18.109375 54.6875 
L 18.109375 46.1875 
Q 21.34375 51.125 25.703125 53.5625 
Q 30.078125 56 35.796875 56 
Q 45.21875 56 50.046875 50.171875 
Q 54.890625 44.34375 54.890625 33.015625 
z
" id="DejaVuSans-6e"/>
      <path d="M 45.40625 46.390625 
L 45.40625 75.984375 
L 54.390625 75.984375 
L 54.390625 0 
L 45.40625 0 
L 45.40625 8.203125 
Q 42.578125 3.328125 38.25 0.953125 
Q 33.9375 -1.421875 27.875 -1.421875 
Q 17.96875 -1.421875 11.734375 6.484375 
Q 5.515625 14.40625 5.515625 27.296875 
Q 5.515625 40.1875 11.734375 48.09375 
Q 17.96875 56 27.875 56 
Q 33.9375 56 38.25 53.625 
Q 42.578125 51.265625 45.40625 46.390625 
z
M 14.796875 27.296875 
Q 14.796875 17.390625 18.875 11.75 
Q 22.953125 6.109375 30.078125 6.109375 
Q 37.203125 6.109375 41.296875 11.75 
Q 45.40625 17.390625 45.40625 27.296875 
Q 45.40625 37.203125 41.296875 42.84375 
Q 37.203125 48.484375 30.078125 48.484375 
Q 22.953125 48.484375 18.875 42.84375 
Q 14.796875 37.203125 14.796875 27.296875 
z
" id="DejaVuSans-64"/>
      <path d="M 44.28125 53.078125 
L 44.28125 44.578125 
Q 40.484375 46.53125 36.375 47.5 
Q 32.28125 48.484375 27.875 48.484375 
Q 21.1875 48.484375 17.84375 46.4375 
Q 14.5 44.390625 14.5 40.28125 
Q 14.5 37.15625 16.890625 35.375 
Q 19.28125 33.59375 26.515625 31.984375 
L 29.59375 31.296875 
Q 39.15625 29.25 43.1875 25.515625 
Q 47.21875 21.78125 47.21875 15.09375 
Q 47.21875 7.46875 41.1875 3.015625 
Q 35.15625 -1.421875 24.609375 -1.421875 
Q 20.21875 -1.421875 15.453125 -0.5625 
Q 10.6875 0.296875 5.421875 2 
L 5.421875 11.28125 
Q 10.40625 8.6875 15.234375 7.390625 
Q 20.0625 6.109375 24.8125 6.109375 
Q 31.15625 6.109375 34.5625 8.28125 
Q 37.984375 10.453125 37.984375 14.40625 
Q 37.984375 18.0625 35.515625 20.015625 
Q 33.0625 21.96875 24.703125 23.78125 
L 21.578125 24.515625 
Q 13.234375 26.265625 9.515625 29.90625 
Q 5.8125 33.546875 5.8125 39.890625 
Q 5.8125 47.609375 11.28125 51.796875 
Q 16.75 56 26.8125 56 
Q 31.78125 56 36.171875 55.265625 
Q 40.578125 54.546875 44.28125 53.078125 
z
" id="DejaVuSans-73"/>
      <path d="M 48.78125 52.59375 
L 48.78125 44.1875 
Q 44.96875 46.296875 41.140625 47.34375 
Q 37.3125 48.390625 33.40625 48.390625 
Q 24.65625 48.390625 19.8125 42.84375 
Q 14.984375 37.3125 14.984375 27.296875 
Q 14.984375 17.28125 19.8125 11.734375 
Q 24.65625 6.203125 33.40625 6.203125 
Q 37.3125 6.203125 41.140625 7.25 
Q 44.96875 8.296875 48.78125 10.40625 
L 48.78125 2.09375 
Q 45.015625 0.34375 40.984375 -0.53125 
Q 36.96875 -1.421875 32.421875 -1.421875 
Q 20.0625 -1.421875 12.78125 6.34375 
Q 5.515625 14.109375 5.515625 27.296875 
Q 5.515625 40.671875 12.859375 48.328125 
Q 20.21875 56 33.015625 56 
Q 37.15625 56 41.109375 55.140625 
Q 45.0625 54.296875 48.78125 52.59375 
z
" id="DejaVuSans-63"/>
      <path d="M 18.3125 70.21875 
L 18.3125 54.6875 
L 36.8125 54.6875 
L 36.8125 47.703125 
L 18.3125 47.703125 
L 18.3125 18.015625 
Q 18.3125 11.328125 20.140625 9.421875 
Q 21.96875 7.515625 27.59375 7.515625 
L 36.8125 7.515625 
L 36.8125 0 
L 27.59375 0 
Q 17.1875 0 13.234375 3.875 
Q 9.28125 7.765625 9.28125 18.015625 
L 9.28125 47.703125 
L 2.6875 47.703125 
L 2.6875 54.6875 
L 9.28125 54.6875 
L 9.28125 70.21875 
z
" id="DejaVuSans-74"/>
      <path d="M 9.421875 54.6875 
L 18.40625 54.6875 
L 18.40625 0 
L 9.421875 0 
z
M 9.421875 75.984375 
L 18.40625 75.984375 
L 18.40625 64.59375 
L 9.421875 64.59375 
z
" id="DejaVuSans-69"/>
      <path d="M 2.984375 54.6875 
L 12.5 54.6875 
L 29.59375 8.796875 
L 46.6875 54.6875 
L 56.203125 54.6875 
L 35.6875 0 
L 23.484375 0 
z
" id="DejaVuSans-76"/>
     </defs>
     <g transform="translate(510.132812 631.869438)scale(0.1 -0.1)">
      <use xlink:href="#DejaVuSans-4e"/>
      <use x="74.804688" xlink:href="#DejaVuSans-75"/>
      <use x="138.183594" xlink:href="#DejaVuSans-6d"/>
      <use x="235.595703" xlink:href="#DejaVuSans-62"/>
      <use x="299.072266" xlink:href="#DejaVuSans-65"/>
      <use x="360.595703" xlink:href="#DejaVuSans-72"/>
      <use x="401.708984" xlink:href="#DejaVuSans-20"/>
      <use x="433.496094" xlink:href="#DejaVuSans-6f"/>
      <use x="494.677734" xlink:href="#DejaVuSans-66"/>
      <use x="529.882812" xlink:href="#DejaVuSans-20"/>
      <use x="561.669922" xlink:href="#DejaVuSans-6e"/>
      <use x="625.048828" xlink:href="#DejaVuSans-6f"/>
      <use x="686.230469" xlink:href="#DejaVuSans-64"/>
      <use x="749.707031" xlink:href="#DejaVuSans-65"/>
      <use x="811.230469" xlink:href="#DejaVuSans-73"/>
      <use x="863.330078" xlink:href="#DejaVuSans-20"/>
      <use x="895.117188" xlink:href="#DejaVuSans-63"/>
      <use x="950.097656" xlink:href="#DejaVuSans-6f"/>
      <use x="1011.279297" xlink:href="#DejaVuSans-6e"/>
      <use x="1074.658203" xlink:href="#DejaVuSans-6e"/>
      <use x="1138.037109" xlink:href="#DejaVuSans-65"/>
      <use x="1199.560547" xlink:href="#DejaVuSans-63"/>
      <use x="1254.541016" xlink:href="#DejaVuSans-74"/>
      <use x="1293.75" xlink:href="#DejaVuSans-69"/>
      <use x="1321.533203" xlink:href="#DejaVuSans-6f"/>
      <use x="1382.714844" xlink:href="#DejaVuSans-6e"/>
      <use x="1446.09375" xlink:href="#DejaVuSans-73"/>
      <use x="1498.193359" xlink:href="#DejaVuSans-20"/>
      <use x="1529.980469" xlink:href="#DejaVuSans-65"/>
      <use x="1591.503906" xlink:href="#DejaVuSans-76"/>
      <use x="1650.683594" xlink:href="#DejaVuSans-65"/>
      <use x="1712.207031" xlink:href="#DejaVuSans-6e"/>
      <use x="1775.585938" xlink:href="#DejaVuSans-74"/>
      <use x="1814.794922" xlink:href="#DejaVuSans-73"/>
     </g>
    </g>
   </g>
   <g id="matplotlib.axis_2">
    <g id="ytick_1">
     <g id="line2d_7">
      <defs>
       <path d="M 0 0 
L -3.5 0 
" id="m8bf6df30a3" style="stroke:#000000;stroke-width:0.8;"/>
      </defs>
      <g>
       <use style="stroke:#000000;stroke-width:0.8;" x="45.478125" xlink:href="#m8bf6df30a3" y="578.392875"/>
      </g>
     </g>
     <g id="text_8">
      <!-- $\mathdefault{10^{0}}$ -->
      <g transform="translate(20.878125 582.192094)scale(0.1 -0.1)">
       <use transform="translate(0 0.765625)" xlink:href="#DejaVuSans-31"/>
       <use transform="translate(63.623047 0.765625)" xlink:href="#DejaVuSans-30"/>
       <use transform="translate(128.203125 39.046875)scale(0.7)" xlink:href="#DejaVuSans-30"/>
      </g>
     </g>
    </g>
    <g id="ytick_2">
     <g id="line2d_8">
      <g>
       <use style="stroke:#000000;stroke-width:0.8;" x="45.478125" xlink:href="#m8bf6df30a3" y="328.520952"/>
      </g>
     </g>
     <g id="text_9">
      <!-- $\mathdefault{10^{1}}$ -->
      <g transform="translate(20.878125 332.32017)scale(0.1 -0.1)">
       <use transform="translate(0 0.684375)" xlink:href="#DejaVuSans-31"/>
       <use transform="translate(63.623047 0.684375)" xlink:href="#DejaVuSans-30"/>
       <use transform="translate(128.203125 38.965625)scale(0.7)" xlink:href="#DejaVuSans-31"/>
      </g>
     </g>
    </g>
    <g id="ytick_3">
     <g id="line2d_9">
      <g>
       <use style="stroke:#000000;stroke-width:0.8;" x="45.478125" xlink:href="#m8bf6df30a3" y="78.649028"/>
      </g>
     </g>
     <g id="text_10">
      <!-- $\mathdefault{10^{2}}$ -->
      <g transform="translate(20.878125 82.448247)scale(0.1 -0.1)">
       <use transform="translate(0 0.765625)" xlink:href="#DejaVuSans-31"/>
       <use transform="translate(63.623047 0.765625)" xlink:href="#DejaVuSans-30"/>
       <use transform="translate(128.203125 39.046875)scale(0.7)" xlink:href="#DejaVuSans-32"/>
      </g>
     </g>
    </g>
    <g id="ytick_4">
     <g id="line2d_10">
      <defs>
       <path d="M 0 0 
L -2 0 
" id="me7234b8e02" style="stroke:#000000;stroke-width:0.6;"/>
      </defs>
      <g>
       <use style="stroke:#000000;stroke-width:0.6;" x="45.478125" xlink:href="#me7234b8e02" y="602.607966"/>
      </g>
     </g>
    </g>
    <g id="ytick_5">
     <g id="line2d_11">
      <g>
       <use style="stroke:#000000;stroke-width:0.6;" x="45.478125" xlink:href="#me7234b8e02" y="589.826387"/>
      </g>
     </g>
    </g>
    <g id="ytick_6">
     <g id="line2d_12">
      <g>
       <use style="stroke:#000000;stroke-width:0.6;" x="45.478125" xlink:href="#me7234b8e02" y="503.173931"/>
      </g>
     </g>
    </g>
    <g id="ytick_7">
     <g id="line2d_13">
      <g>
       <use style="stroke:#000000;stroke-width:0.6;" x="45.478125" xlink:href="#me7234b8e02" y="459.173669"/>
      </g>
     </g>
    </g>
    <g id="ytick_8">
     <g id="line2d_14">
      <g>
       <use style="stroke:#000000;stroke-width:0.6;" x="45.478125" xlink:href="#me7234b8e02" y="427.954987"/>
      </g>
     </g>
    </g>
    <g id="ytick_9">
     <g id="line2d_15">
      <g>
       <use style="stroke:#000000;stroke-width:0.6;" x="45.478125" xlink:href="#me7234b8e02" y="403.739896"/>
      </g>
     </g>
    </g>
    <g id="ytick_10">
     <g id="line2d_16">
      <g>
       <use style="stroke:#000000;stroke-width:0.6;" x="45.478125" xlink:href="#me7234b8e02" y="383.954725"/>
      </g>
     </g>
    </g>
    <g id="ytick_11">
     <g id="line2d_17">
      <g>
       <use style="stroke:#000000;stroke-width:0.6;" x="45.478125" xlink:href="#me7234b8e02" y="367.226602"/>
      </g>
     </g>
    </g>
    <g id="ytick_12">
     <g id="line2d_18">
      <g>
       <use style="stroke:#000000;stroke-width:0.6;" x="45.478125" xlink:href="#me7234b8e02" y="352.736043"/>
      </g>
     </g>
    </g>
    <g id="ytick_13">
     <g id="line2d_19">
      <g>
       <use style="stroke:#000000;stroke-width:0.6;" x="45.478125" xlink:href="#me7234b8e02" y="339.954464"/>
      </g>
     </g>
    </g>
    <g id="ytick_14">
     <g id="line2d_20">
      <g>
       <use style="stroke:#000000;stroke-width:0.6;" x="45.478125" xlink:href="#me7234b8e02" y="253.302008"/>
      </g>
     </g>
    </g>
    <g id="ytick_15">
     <g id="line2d_21">
      <g>
       <use style="stroke:#000000;stroke-width:0.6;" x="45.478125" xlink:href="#me7234b8e02" y="209.301746"/>
      </g>
     </g>
    </g>
    <g id="ytick_16">
     <g id="line2d_22">
      <g>
       <use style="stroke:#000000;stroke-width:0.6;" x="45.478125" xlink:href="#me7234b8e02" y="178.083064"/>
      </g>
     </g>
    </g>
    <g id="ytick_17">
     <g id="line2d_23">
      <g>
       <use style="stroke:#000000;stroke-width:0.6;" x="45.478125" xlink:href="#me7234b8e02" y="153.867972"/>
      </g>
     </g>
    </g>
    <g id="ytick_18">
     <g id="line2d_24">
      <g>
       <use style="stroke:#000000;stroke-width:0.6;" x="45.478125" xlink:href="#me7234b8e02" y="134.082802"/>
      </g>
     </g>
    </g>
    <g id="ytick_19">
     <g id="line2d_25">
      <g>
       <use style="stroke:#000000;stroke-width:0.6;" x="45.478125" xlink:href="#me7234b8e02" y="117.354679"/>
      </g>
     </g>
    </g>
    <g id="ytick_20">
     <g id="line2d_26">
      <g>
       <use style="stroke:#000000;stroke-width:0.6;" x="45.478125" xlink:href="#me7234b8e02" y="102.86412"/>
      </g>
     </g>
    </g>
    <g id="ytick_21">
     <g id="line2d_27">
      <g>
       <use style="stroke:#000000;stroke-width:0.6;" x="45.478125" xlink:href="#me7234b8e02" y="90.08254"/>
      </g>
     </g>
    </g>
    <g id="text_11">
     <!-- Number of nodes -->
     <g transform="translate(14.798438 369.560063)rotate(-90)scale(0.1 -0.1)">
      <use xlink:href="#DejaVuSans-4e"/>
      <use x="74.804688" xlink:href="#DejaVuSans-75"/>
      <use x="138.183594" xlink:href="#DejaVuSans-6d"/>
      <use x="235.595703" xlink:href="#DejaVuSans-62"/>
      <use x="299.072266" xlink:href="#DejaVuSans-65"/>
      <use x="360.595703" xlink:href="#DejaVuSans-72"/>
      <use x="401.708984" xlink:href="#DejaVuSans-20"/>
      <use x="433.496094" xlink:href="#DejaVuSans-6f"/>
      <use x="494.677734" xlink:href="#DejaVuSans-66"/>
      <use x="529.882812" xlink:href="#DejaVuSans-20"/>
      <use x="561.669922" xlink:href="#DejaVuSans-6e"/>
      <use x="625.048828" xlink:href="#DejaVuSans-6f"/>
      <use x="686.230469" xlink:href="#DejaVuSans-64"/>
      <use x="749.707031" xlink:href="#DejaVuSans-65"/>
      <use x="811.230469" xlink:href="#DejaVuSans-73"/>
     </g>
    </g>
   </g>
   <g id="patch_253">
    <path d="M 45.478125 603.592875 
L 45.478125 49.192875 
" style="fill:none;stroke:#000000;stroke-linecap:square;stroke-linejoin:miter;stroke-width:0.8;"/>
   </g>
   <g id="patch_254">
    <path d="M 1161.478125 603.592875 
L 1161.478125 49.192875 
" style="fill:none;stroke:#000000;stroke-linecap:square;stroke-linejoin:miter;stroke-width:0.8;"/>
   </g>
   <g id="patch_255">
    <path d="M 45.478125 603.592875 
L 1161.478125 603.592875 
" style="fill:none;stroke:#000000;stroke-linecap:square;stroke-linejoin:miter;stroke-width:0.8;"/>
   </g>
   <g id="patch_256">
    <path d="M 45.478125 49.192875 
L 1161.478125 49.192875 
" style="fill:none;stroke:#000000;stroke-linecap:square;stroke-linejoin:miter;stroke-width:0.8;"/>
   </g>
   <g id="patch_257">
    <path d="M 289.47448 71.097971 
Q 189.143358 72.729158 89.930122 74.342172 
" style="fill:none;stroke:#000000;stroke-linecap:round;"/>
    <path d="M 93.962106 76.276884 
L 89.930122 74.342172 
L 93.897082 72.277412 
" style="fill:none;stroke:#000000;stroke-linecap:round;"/>
   </g>
   <g id="text_12">
    <!-- Value: 104 -->
    <defs>
     <path d="M 28.609375 0 
L 0.78125 72.90625 
L 11.078125 72.90625 
L 34.1875 11.53125 
L 57.328125 72.90625 
L 67.578125 72.90625 
L 39.796875 0 
z
" id="DejaVuSans-56"/>
     <path d="M 34.28125 27.484375 
Q 23.390625 27.484375 19.1875 25 
Q 14.984375 22.515625 14.984375 16.5 
Q 14.984375 11.71875 18.140625 8.90625 
Q 21.296875 6.109375 26.703125 6.109375 
Q 34.1875 6.109375 38.703125 11.40625 
Q 43.21875 16.703125 43.21875 25.484375 
L 43.21875 27.484375 
z
M 52.203125 31.203125 
L 52.203125 0 
L 43.21875 0 
L 43.21875 8.296875 
Q 40.140625 3.328125 35.546875 0.953125 
Q 30.953125 -1.421875 24.3125 -1.421875 
Q 15.921875 -1.421875 10.953125 3.296875 
Q 6 8.015625 6 15.921875 
Q 6 25.140625 12.171875 29.828125 
Q 18.359375 34.515625 30.609375 34.515625 
L 43.21875 34.515625 
L 43.21875 35.40625 
Q 43.21875 41.609375 39.140625 45 
Q 35.0625 48.390625 27.6875 48.390625 
Q 23 48.390625 18.546875 47.265625 
Q 14.109375 46.140625 10.015625 43.890625 
L 10.015625 52.203125 
Q 14.9375 54.109375 19.578125 55.046875 
Q 24.21875 56 28.609375 56 
Q 40.484375 56 46.34375 49.84375 
Q 52.203125 43.703125 52.203125 31.203125 
z
" id="DejaVuSans-61"/>
     <path d="M 9.421875 75.984375 
L 18.40625 75.984375 
L 18.40625 0 
L 9.421875 0 
z
" id="DejaVuSans-6c"/>
     <path d="M 11.71875 12.40625 
L 22.015625 12.40625 
L 22.015625 0 
L 11.71875 0 
z
M 11.71875 51.703125 
L 22.015625 51.703125 
L 22.015625 39.3125 
L 11.71875 39.3125 
z
" id="DejaVuSans-3a"/>
     <path d="M 37.796875 64.3125 
L 12.890625 25.390625 
L 37.796875 25.390625 
z
M 35.203125 72.90625 
L 47.609375 72.90625 
L 47.609375 25.390625 
L 58.015625 25.390625 
L 58.015625 17.1875 
L 47.609375 17.1875 
L 47.609375 0 
L 37.796875 0 
L 37.796875 17.1875 
L 4.890625 17.1875 
L 4.890625 26.703125 
z
" id="DejaVuSans-34"/>
    </defs>
    <g transform="translate(293.478125 73.354417)scale(0.1 -0.1)">
     <use xlink:href="#DejaVuSans-56"/>
     <use x="68.298828" xlink:href="#DejaVuSans-61"/>
     <use x="129.578125" xlink:href="#DejaVuSans-6c"/>
     <use x="157.361328" xlink:href="#DejaVuSans-75"/>
     <use x="220.740234" xlink:href="#DejaVuSans-65"/>
     <use x="282.263672" xlink:href="#DejaVuSans-3a"/>
     <use x="315.955078" xlink:href="#DejaVuSans-20"/>
     <use x="347.742188" xlink:href="#DejaVuSans-31"/>
     <use x="411.365234" xlink:href="#DejaVuSans-30"/>
     <use x="474.988281" xlink:href="#DejaVuSans-34"/>
    </g>
   </g>
   <g id="text_13">
    <!-- Frequency of the number of nodes connection to UAVs -->
    <defs>
     <path d="M 9.8125 72.90625 
L 51.703125 72.90625 
L 51.703125 64.59375 
L 19.671875 64.59375 
L 19.671875 43.109375 
L 48.578125 43.109375 
L 48.578125 34.8125 
L 19.671875 34.8125 
L 19.671875 0 
L 9.8125 0 
z
" id="DejaVuSans-46"/>
     <path d="M 14.796875 27.296875 
Q 14.796875 17.390625 18.875 11.75 
Q 22.953125 6.109375 30.078125 6.109375 
Q 37.203125 6.109375 41.296875 11.75 
Q 45.40625 17.390625 45.40625 27.296875 
Q 45.40625 37.203125 41.296875 42.84375 
Q 37.203125 48.484375 30.078125 48.484375 
Q 22.953125 48.484375 18.875 42.84375 
Q 14.796875 37.203125 14.796875 27.296875 
z
M 45.40625 8.203125 
Q 42.578125 3.328125 38.25 0.953125 
Q 33.9375 -1.421875 27.875 -1.421875 
Q 17.96875 -1.421875 11.734375 6.484375 
Q 5.515625 14.40625 5.515625 27.296875 
Q 5.515625 40.1875 11.734375 48.09375 
Q 17.96875 56 27.875 56 
Q 33.9375 56 38.25 53.625 
Q 42.578125 51.265625 45.40625 46.390625 
L 45.40625 54.6875 
L 54.390625 54.6875 
L 54.390625 -20.796875 
L 45.40625 -20.796875 
z
" id="DejaVuSans-71"/>
     <path d="M 32.171875 -5.078125 
Q 28.375 -14.84375 24.75 -17.8125 
Q 21.140625 -20.796875 15.09375 -20.796875 
L 7.90625 -20.796875 
L 7.90625 -13.28125 
L 13.1875 -13.28125 
Q 16.890625 -13.28125 18.9375 -11.515625 
Q 21 -9.765625 23.484375 -3.21875 
L 25.09375 0.875 
L 2.984375 54.6875 
L 12.5 54.6875 
L 29.59375 11.921875 
L 46.6875 54.6875 
L 56.203125 54.6875 
z
" id="DejaVuSans-79"/>
     <path d="M 54.890625 33.015625 
L 54.890625 0 
L 45.90625 0 
L 45.90625 32.71875 
Q 45.90625 40.484375 42.875 44.328125 
Q 39.84375 48.1875 33.796875 48.1875 
Q 26.515625 48.1875 22.3125 43.546875 
Q 18.109375 38.921875 18.109375 30.90625 
L 18.109375 0 
L 9.078125 0 
L 9.078125 75.984375 
L 18.109375 75.984375 
L 18.109375 46.1875 
Q 21.34375 51.125 25.703125 53.5625 
Q 30.078125 56 35.796875 56 
Q 45.21875 56 50.046875 50.171875 
Q 54.890625 44.34375 54.890625 33.015625 
z
" id="DejaVuSans-68"/>
     <path d="M 8.6875 72.90625 
L 18.609375 72.90625 
L 18.609375 28.609375 
Q 18.609375 16.890625 22.84375 11.734375 
Q 27.09375 6.59375 36.625 6.59375 
Q 46.09375 6.59375 50.34375 11.734375 
Q 54.59375 16.890625 54.59375 28.609375 
L 54.59375 72.90625 
L 64.5 72.90625 
L 64.5 27.390625 
Q 64.5 13.140625 57.4375 5.859375 
Q 50.390625 -1.421875 36.625 -1.421875 
Q 22.796875 -1.421875 15.734375 5.859375 
Q 8.6875 13.140625 8.6875 27.390625 
z
" id="DejaVuSans-55"/>
     <path d="M 34.1875 63.1875 
L 20.796875 26.90625 
L 47.609375 26.90625 
z
M 28.609375 72.90625 
L 39.796875 72.90625 
L 67.578125 0 
L 57.328125 0 
L 50.6875 18.703125 
L 17.828125 18.703125 
L 11.1875 0 
L 0.78125 0 
z
" id="DejaVuSans-41"/>
    </defs>
    <g transform="translate(438.932812 16.318125)scale(0.12 -0.12)">
     <use xlink:href="#DejaVuSans-46"/>
     <use x="57.410156" xlink:href="#DejaVuSans-72"/>
     <use x="98.492188" xlink:href="#DejaVuSans-65"/>
     <use x="160.015625" xlink:href="#DejaVuSans-71"/>
     <use x="223.492188" xlink:href="#DejaVuSans-75"/>
     <use x="286.871094" xlink:href="#DejaVuSans-65"/>
     <use x="348.394531" xlink:href="#DejaVuSans-6e"/>
     <use x="411.773438" xlink:href="#DejaVuSans-63"/>
     <use x="466.753906" xlink:href="#DejaVuSans-79"/>
     <use x="525.933594" xlink:href="#DejaVuSans-20"/>
     <use x="557.720703" xlink:href="#DejaVuSans-6f"/>
     <use x="618.902344" xlink:href="#DejaVuSans-66"/>
     <use x="654.107422" xlink:href="#DejaVuSans-20"/>
     <use x="685.894531" xlink:href="#DejaVuSans-74"/>
     <use x="725.103516" xlink:href="#DejaVuSans-68"/>
     <use x="788.482422" xlink:href="#DejaVuSans-65"/>
     <use x="850.005859" xlink:href="#DejaVuSans-20"/>
     <use x="881.792969" xlink:href="#DejaVuSans-6e"/>
     <use x="945.171875" xlink:href="#DejaVuSans-75"/>
     <use x="1008.550781" xlink:href="#DejaVuSans-6d"/>
     <use x="1105.962891" xlink:href="#DejaVuSans-62"/>
     <use x="1169.439453" xlink:href="#DejaVuSans-65"/>
     <use x="1230.962891" xlink:href="#DejaVuSans-72"/>
     <use x="1272.076172" xlink:href="#DejaVuSans-20"/>
     <use x="1303.863281" xlink:href="#DejaVuSans-6f"/>
     <use x="1365.044922" xlink:href="#DejaVuSans-66"/>
     <use x="1400.25" xlink:href="#DejaVuSans-20"/>
     <use x="1432.037109" xlink:href="#DejaVuSans-6e"/>
     <use x="1495.416016" xlink:href="#DejaVuSans-6f"/>
     <use x="1556.597656" xlink:href="#DejaVuSans-64"/>
     <use x="1620.074219" xlink:href="#DejaVuSans-65"/>
     <use x="1681.597656" xlink:href="#DejaVuSans-73"/>
     <use x="1733.697266" xlink:href="#DejaVuSans-20"/>
     <use x="1765.484375" xlink:href="#DejaVuSans-63"/>
     <use x="1820.464844" xlink:href="#DejaVuSans-6f"/>
     <use x="1881.646484" xlink:href="#DejaVuSans-6e"/>
     <use x="1945.025391" xlink:href="#DejaVuSans-6e"/>
     <use x="2008.404297" xlink:href="#DejaVuSans-65"/>
     <use x="2069.927734" xlink:href="#DejaVuSans-63"/>
     <use x="2124.908203" xlink:href="#DejaVuSans-74"/>
     <use x="2164.117188" xlink:href="#DejaVuSans-69"/>
     <use x="2191.900391" xlink:href="#DejaVuSans-6f"/>
     <use x="2253.082031" xlink:href="#DejaVuSans-6e"/>
     <use x="2316.460938" xlink:href="#DejaVuSans-20"/>
     <use x="2348.248047" xlink:href="#DejaVuSans-74"/>
     <use x="2387.457031" xlink:href="#DejaVuSans-6f"/>
     <use x="2448.638672" xlink:href="#DejaVuSans-20"/>
     <use x="2480.425781" xlink:href="#DejaVuSans-55"/>
     <use x="2553.619141" xlink:href="#DejaVuSans-41"/>
     <use x="2621.933594" xlink:href="#DejaVuSans-56"/>
     <use x="2690.341797" xlink:href="#DejaVuSans-73"/>
    </g>
    <!--  -->
    <g transform="translate(603.478125 29.7555)scale(0.12 -0.12)"/>
    <!--  -->
    <g transform="translate(603.478125 43.192875)scale(0.12 -0.12)"/>
   </g>
  </g>
 </g>
 <defs>
  <clipPath id="p4ccb2bd280">
   <rect height="554.4" width="1116" x="45.478125" y="49.192875"/>
  </clipPath>
 </defs>
</svg>
