<?xml version="1.0" encoding="utf-8" standalone="no"?>
<!DOCTYPE svg PUBLIC "-//W3C//DTD SVG 1.1//EN"
  "http://www.w3.org/Graphics/SVG/1.1/DTD/svg11.dtd">
<!-- Created with matplotlib (http://matplotlib.org/) -->
<svg height="339pt" version="1.1" viewBox="0 0 601 339" width="601pt" xmlns="http://www.w3.org/2000/svg" xmlns:xlink="http://www.w3.org/1999/xlink">
 <defs>
  <style type="text/css">
*{stroke-linecap:butt;stroke-linejoin:round;}
  </style>
 </defs>
 <g id="figure_1">
  <g id="patch_1">
   <path d="M 0 339.42375 
L 601.391625 339.42375 
L 601.391625 0 
L 0 0 
z
" style="fill:#ffffff;"/>
  </g>
  <g id="axes_1">
   <g id="patch_2">
    <path d="M 46.965625 301.8675 
L 404.085625 301.8675 
L 404.085625 35.7555 
L 46.965625 35.7555 
z
" style="fill:#ffffff;"/>
   </g>
   <g id="PolyCollection_1">
    <defs>
     <path d="M 46.965625 -48.20073 
L 46.965625 -48.20073 
L 48.394105 -48.20073 
L 49.822585 -48.20073 
L 51.251065 -50.86185 
L 52.679545 -52.19241 
L 54.108025 -52.19241 
L 55.536505 -52.19241 
L 56.964985 -52.19241 
L 58.393465 -53.52297 
L 59.821945 -57.51465 
L 61.250425 -58.84521 
L 62.678905 -58.84521 
L 64.107385 -57.51465 
L 65.535865 -58.84521 
L 66.964345 -58.84521 
L 68.392825 -58.84521 
L 69.821305 -57.51465 
L 71.249785 -56.18409 
L 72.678265 -56.18409 
L 74.106745 -56.18409 
L 75.535225 -56.18409 
L 76.963705 -56.18409 
L 78.392185 -54.85353 
L 79.820665 -54.85353 
L 81.249145 -54.85353 
L 82.677625 -54.85353 
L 84.106105 -57.51465 
L 85.534585 -57.51465 
L 86.963065 -57.51465 
L 88.391545 -58.84521 
L 89.820025 -58.84521 
L 91.248505 -58.84521 
L 92.676985 -54.85353 
L 94.105465 -52.19241 
L 95.533945 -52.19241 
L 96.962425 -52.19241 
L 98.390905 -50.86185 
L 99.819385 -48.20073 
L 101.247865 -48.20073 
L 102.676345 -48.20073 
L 104.104825 -48.20073 
L 105.533305 -48.20073 
L 106.961785 -48.20073 
L 108.390265 -46.87017 
L 109.818745 -49.53129 
L 111.247225 -49.53129 
L 112.675705 -48.20073 
L 114.104185 -50.86185 
L 115.532665 -52.19241 
L 116.961145 -53.52297 
L 118.389625 -56.18409 
L 119.818105 -56.18409 
L 121.246585 -54.85353 
L 122.675065 -53.52297 
L 124.103545 -53.52297 
L 125.532025 -53.52297 
L 126.960505 -53.52297 
L 128.388985 -54.85353 
L 129.817465 -56.18409 
L 131.245945 -54.85353 
L 132.674425 -56.18409 
L 134.102905 -56.18409 
L 135.531385 -57.51465 
L 136.959865 -58.84521 
L 138.388345 -60.17577 
L 139.816825 -60.17577 
L 141.245305 -60.17577 
L 142.673785 -60.17577 
L 144.102265 -60.17577 
L 145.530745 -58.84521 
L 146.959225 -57.51465 
L 148.387705 -57.51465 
L 149.816185 -58.84521 
L 151.244665 -57.51465 
L 152.673145 -57.51465 
L 154.101625 -58.84521 
L 155.530105 -57.51465 
L 156.958585 -57.51465 
L 158.387065 -56.18409 
L 159.815545 -56.18409 
L 161.244025 -56.18409 
L 162.672505 -56.18409 
L 164.100985 -56.18409 
L 165.529465 -56.18409 
L 166.957945 -56.18409 
L 168.386425 -56.18409 
L 169.814905 -53.52297 
L 171.243385 -53.52297 
L 172.671865 -53.52297 
L 174.100345 -53.52297 
L 175.528825 -53.52297 
L 176.957305 -52.19241 
L 178.385785 -50.86185 
L 179.814265 -50.86185 
L 181.242745 -49.53129 
L 182.671225 -49.53129 
L 184.099705 -48.20073 
L 185.528185 -48.20073 
L 186.956665 -49.53129 
L 188.385145 -49.53129 
L 189.813625 -49.53129 
L 191.242105 -52.19241 
L 192.670585 -50.86185 
L 194.099065 -53.52297 
L 195.527545 -53.52297 
L 196.956025 -53.52297 
L 198.384505 -53.52297 
L 199.812985 -53.52297 
L 201.241465 -53.52297 
L 202.669945 -53.52297 
L 204.098425 -53.52297 
L 205.526905 -52.19241 
L 206.955385 -54.85353 
L 208.383865 -54.85353 
L 209.812345 -56.18409 
L 211.240825 -57.51465 
L 212.669305 -57.51465 
L 214.097785 -57.51465 
L 215.526265 -57.51465 
L 216.954745 -56.18409 
L 218.383225 -56.18409 
L 219.811705 -54.85353 
L 221.240185 -56.18409 
L 222.668665 -57.51465 
L 224.097145 -57.51465 
L 225.525625 -57.51465 
L 226.954105 -57.51465 
L 228.382585 -58.84521 
L 229.811065 -58.84521 
L 231.239545 -61.50633 
L 232.668025 -60.17577 
L 234.096505 -60.17577 
L 235.524985 -60.17577 
L 236.953465 -58.84521 
L 238.381945 -58.84521 
L 239.810425 -60.17577 
L 241.238905 -60.17577 
L 242.667385 -58.84521 
L 244.095865 -54.85353 
L 245.524345 -57.51465 
L 246.952825 -57.51465 
L 248.381305 -58.84521 
L 249.809785 -58.84521 
L 251.238265 -58.84521 
L 252.666745 -58.84521 
L 254.095225 -53.52297 
L 255.523705 -52.19241 
L 256.952185 -50.86185 
L 258.380665 -50.86185 
L 259.809145 -49.53129 
L 261.237625 -49.53129 
L 262.666105 -49.53129 
L 264.094585 -49.53129 
L 265.523065 -46.87017 
L 266.951545 -45.53961 
L 268.380025 -45.53961 
L 269.808505 -44.20905 
L 271.236985 -45.53961 
L 272.665465 -45.53961 
L 274.093945 -45.53961 
L 275.522425 -42.87849 
L 276.950905 -42.87849 
L 278.379385 -40.21737 
L 279.807865 -40.21737 
L 281.236345 -40.21737 
L 282.664825 -40.21737 
L 284.093305 -41.54793 
L 285.521785 -42.87849 
L 286.950265 -41.54793 
L 288.378745 -41.54793 
L 289.807225 -42.87849 
L 291.235705 -42.87849 
L 292.664185 -42.87849 
L 294.092665 -42.87849 
L 295.521145 -42.87849 
L 296.949625 -42.87849 
L 298.378105 -42.87849 
L 299.806585 -42.87849 
L 301.235065 -42.87849 
L 302.663545 -44.20905 
L 304.092025 -44.20905 
L 305.520505 -44.20905 
L 306.948985 -45.53961 
L 308.377465 -45.53961 
L 309.805945 -45.53961 
L 311.234425 -49.53129 
L 312.662905 -52.19241 
L 314.091385 -53.52297 
L 315.519865 -53.52297 
L 316.948345 -54.85353 
L 318.376825 -54.85353 
L 319.805305 -54.85353 
L 321.233785 -56.18409 
L 322.662265 -56.18409 
L 324.090745 -56.18409 
L 325.519225 -54.85353 
L 326.947705 -57.51465 
L 328.376185 -60.17577 
L 329.804665 -58.84521 
L 331.233145 -61.50633 
L 332.661625 -60.17577 
L 334.090105 -61.50633 
L 335.518585 -62.83689 
L 336.947065 -62.83689 
L 338.375545 -62.83689 
L 339.804025 -64.16745 
L 341.232505 -65.49801 
L 342.660985 -65.49801 
L 344.089465 -66.82857 
L 345.517945 -66.82857 
L 346.946425 -62.83689 
L 348.374905 -61.50633 
L 349.803385 -62.83689 
L 351.231865 -62.83689 
L 352.660345 -62.83689 
L 354.088825 -60.17577 
L 355.517305 -58.84521 
L 356.945785 -57.51465 
L 358.374265 -56.18409 
L 359.802745 -57.51465 
L 361.231225 -57.51465 
L 362.659705 -56.18409 
L 364.088185 -54.85353 
L 365.516665 -53.52297 
L 366.945145 -50.86185 
L 368.373625 -52.19241 
L 369.802105 -49.53129 
L 371.230585 -48.20073 
L 372.659065 -46.87017 
L 374.087545 -45.53961 
L 375.516025 -44.20905 
L 376.944505 -44.20905 
L 378.372985 -45.53961 
L 379.801465 -44.20905 
L 381.229945 -44.20905 
L 382.658425 -45.53961 
L 384.086905 -45.53961 
L 385.515385 -45.53961 
L 386.943865 -44.20905 
L 388.372345 -44.20905 
L 389.800825 -44.20905 
L 391.229305 -44.20905 
L 392.657785 -44.20905 
L 394.086265 -44.20905 
L 395.514745 -44.20905 
L 396.943225 -44.20905 
L 398.371705 -44.20905 
L 399.800185 -44.20905 
L 401.228665 -44.20905 
L 402.657145 -44.20905 
L 402.657145 -44.20905 
L 402.657145 -44.20905 
L 401.228665 -44.20905 
L 399.800185 -44.20905 
L 398.371705 -44.20905 
L 396.943225 -44.20905 
L 395.514745 -44.20905 
L 394.086265 -44.20905 
L 392.657785 -44.20905 
L 391.229305 -44.20905 
L 389.800825 -44.20905 
L 388.372345 -44.20905 
L 386.943865 -44.20905 
L 385.515385 -45.53961 
L 384.086905 -45.53961 
L 382.658425 -45.53961 
L 381.229945 -44.20905 
L 379.801465 -44.20905 
L 378.372985 -45.53961 
L 376.944505 -44.20905 
L 375.516025 -44.20905 
L 374.087545 -45.53961 
L 372.659065 -46.87017 
L 371.230585 -48.20073 
L 369.802105 -49.53129 
L 368.373625 -52.19241 
L 366.945145 -50.86185 
L 365.516665 -53.52297 
L 364.088185 -54.85353 
L 362.659705 -56.18409 
L 361.231225 -57.51465 
L 359.802745 -57.51465 
L 358.374265 -56.18409 
L 356.945785 -57.51465 
L 355.517305 -58.84521 
L 354.088825 -60.17577 
L 352.660345 -62.83689 
L 351.231865 -62.83689 
L 349.803385 -62.83689 
L 348.374905 -61.50633 
L 346.946425 -62.83689 
L 345.517945 -66.82857 
L 344.089465 -66.82857 
L 342.660985 -65.49801 
L 341.232505 -65.49801 
L 339.804025 -64.16745 
L 338.375545 -62.83689 
L 336.947065 -62.83689 
L 335.518585 -62.83689 
L 334.090105 -61.50633 
L 332.661625 -60.17577 
L 331.233145 -61.50633 
L 329.804665 -58.84521 
L 328.376185 -60.17577 
L 326.947705 -57.51465 
L 325.519225 -54.85353 
L 324.090745 -56.18409 
L 322.662265 -56.18409 
L 321.233785 -56.18409 
L 319.805305 -54.85353 
L 318.376825 -54.85353 
L 316.948345 -54.85353 
L 315.519865 -53.52297 
L 314.091385 -53.52297 
L 312.662905 -52.19241 
L 311.234425 -49.53129 
L 309.805945 -45.53961 
L 308.377465 -45.53961 
L 306.948985 -45.53961 
L 305.520505 -44.20905 
L 304.092025 -44.20905 
L 302.663545 -44.20905 
L 301.235065 -42.87849 
L 299.806585 -42.87849 
L 298.378105 -42.87849 
L 296.949625 -42.87849 
L 295.521145 -42.87849 
L 294.092665 -42.87849 
L 292.664185 -42.87849 
L 291.235705 -42.87849 
L 289.807225 -42.87849 
L 288.378745 -41.54793 
L 286.950265 -41.54793 
L 285.521785 -42.87849 
L 284.093305 -41.54793 
L 282.664825 -40.21737 
L 281.236345 -40.21737 
L 279.807865 -40.21737 
L 278.379385 -40.21737 
L 276.950905 -42.87849 
L 275.522425 -42.87849 
L 274.093945 -45.53961 
L 272.665465 -45.53961 
L 271.236985 -45.53961 
L 269.808505 -44.20905 
L 268.380025 -45.53961 
L 266.951545 -45.53961 
L 265.523065 -46.87017 
L 264.094585 -49.53129 
L 262.666105 -49.53129 
L 261.237625 -49.53129 
L 259.809145 -49.53129 
L 258.380665 -50.86185 
L 256.952185 -50.86185 
L 255.523705 -52.19241 
L 254.095225 -53.52297 
L 252.666745 -58.84521 
L 251.238265 -58.84521 
L 249.809785 -58.84521 
L 248.381305 -58.84521 
L 246.952825 -57.51465 
L 245.524345 -57.51465 
L 244.095865 -54.85353 
L 242.667385 -58.84521 
L 241.238905 -60.17577 
L 239.810425 -60.17577 
L 238.381945 -58.84521 
L 236.953465 -58.84521 
L 235.524985 -60.17577 
L 234.096505 -60.17577 
L 232.668025 -60.17577 
L 231.239545 -61.50633 
L 229.811065 -58.84521 
L 228.382585 -58.84521 
L 226.954105 -57.51465 
L 225.525625 -57.51465 
L 224.097145 -57.51465 
L 222.668665 -57.51465 
L 221.240185 -56.18409 
L 219.811705 -54.85353 
L 218.383225 -56.18409 
L 216.954745 -56.18409 
L 215.526265 -57.51465 
L 214.097785 -57.51465 
L 212.669305 -57.51465 
L 211.240825 -57.51465 
L 209.812345 -56.18409 
L 208.383865 -54.85353 
L 206.955385 -54.85353 
L 205.526905 -52.19241 
L 204.098425 -53.52297 
L 202.669945 -53.52297 
L 201.241465 -53.52297 
L 199.812985 -53.52297 
L 198.384505 -53.52297 
L 196.956025 -53.52297 
L 195.527545 -53.52297 
L 194.099065 -53.52297 
L 192.670585 -50.86185 
L 191.242105 -52.19241 
L 189.813625 -49.53129 
L 188.385145 -49.53129 
L 186.956665 -49.53129 
L 185.528185 -48.20073 
L 184.099705 -48.20073 
L 182.671225 -49.53129 
L 181.242745 -49.53129 
L 179.814265 -50.86185 
L 178.385785 -50.86185 
L 176.957305 -52.19241 
L 175.528825 -53.52297 
L 174.100345 -53.52297 
L 172.671865 -53.52297 
L 171.243385 -53.52297 
L 169.814905 -53.52297 
L 168.386425 -56.18409 
L 166.957945 -56.18409 
L 165.529465 -56.18409 
L 164.100985 -56.18409 
L 162.672505 -56.18409 
L 161.244025 -56.18409 
L 159.815545 -56.18409 
L 158.387065 -56.18409 
L 156.958585 -57.51465 
L 155.530105 -57.51465 
L 154.101625 -58.84521 
L 152.673145 -57.51465 
L 151.244665 -57.51465 
L 149.816185 -58.84521 
L 148.387705 -57.51465 
L 146.959225 -57.51465 
L 145.530745 -58.84521 
L 144.102265 -60.17577 
L 142.673785 -60.17577 
L 141.245305 -60.17577 
L 139.816825 -60.17577 
L 138.388345 -60.17577 
L 136.959865 -58.84521 
L 135.531385 -57.51465 
L 134.102905 -56.18409 
L 132.674425 -56.18409 
L 131.245945 -54.85353 
L 129.817465 -56.18409 
L 128.388985 -54.85353 
L 126.960505 -53.52297 
L 125.532025 -53.52297 
L 124.103545 -53.52297 
L 122.675065 -53.52297 
L 121.246585 -54.85353 
L 119.818105 -56.18409 
L 118.389625 -56.18409 
L 116.961145 -53.52297 
L 115.532665 -52.19241 
L 114.104185 -50.86185 
L 112.675705 -48.20073 
L 111.247225 -49.53129 
L 109.818745 -49.53129 
L 108.390265 -46.87017 
L 106.961785 -48.20073 
L 105.533305 -48.20073 
L 104.104825 -48.20073 
L 102.676345 -48.20073 
L 101.247865 -48.20073 
L 99.819385 -48.20073 
L 98.390905 -50.86185 
L 96.962425 -52.19241 
L 95.533945 -52.19241 
L 94.105465 -52.19241 
L 92.676985 -54.85353 
L 91.248505 -58.84521 
L 89.820025 -58.84521 
L 88.391545 -58.84521 
L 86.963065 -57.51465 
L 85.534585 -57.51465 
L 84.106105 -57.51465 
L 82.677625 -54.85353 
L 81.249145 -54.85353 
L 79.820665 -54.85353 
L 78.392185 -54.85353 
L 76.963705 -56.18409 
L 75.535225 -56.18409 
L 74.106745 -56.18409 
L 72.678265 -56.18409 
L 71.249785 -56.18409 
L 69.821305 -57.51465 
L 68.392825 -58.84521 
L 66.964345 -58.84521 
L 65.535865 -58.84521 
L 64.107385 -57.51465 
L 62.678905 -58.84521 
L 61.250425 -58.84521 
L 59.821945 -57.51465 
L 58.393465 -53.52297 
L 56.964985 -52.19241 
L 55.536505 -52.19241 
L 54.108025 -52.19241 
L 52.679545 -52.19241 
L 51.251065 -50.86185 
L 49.822585 -48.20073 
L 48.394105 -48.20073 
L 46.965625 -48.20073 
z
" id="ma009fdf976" style="stroke:#adff2f;"/>
    </defs>
    <g clip-path="url(#p9172714251)">
     <use style="fill:#adff2f;stroke:#adff2f;" x="0" xlink:href="#ma009fdf976" y="339.42375"/>
    </g>
   </g>
   <g id="matplotlib.axis_1">
    <g id="xtick_1">
     <g id="line2d_1">
      <path clip-path="url(#p9172714251)" d="M 46.965625 301.8675 
L 46.965625 35.7555 
" style="fill:none;stroke:#b0b0b0;stroke-linecap:square;stroke-width:0.8;"/>
     </g>
     <g id="line2d_2">
      <defs>
       <path d="M 0 0 
L 0 3.5 
" id="m0568fe9789" style="stroke:#000000;stroke-width:0.8;"/>
      </defs>
      <g>
       <use style="stroke:#000000;stroke-width:0.8;" x="46.965625" xlink:href="#m0568fe9789" y="301.8675"/>
      </g>
     </g>
     <g id="text_1">
      <!-- 0 -->
      <defs>
       <path d="M 31.78125 66.40625 
Q 24.171875 66.40625 20.328125 58.90625 
Q 16.5 51.421875 16.5 36.375 
Q 16.5 21.390625 20.328125 13.890625 
Q 24.171875 6.390625 31.78125 6.390625 
Q 39.453125 6.390625 43.28125 13.890625 
Q 47.125 21.390625 47.125 36.375 
Q 47.125 51.421875 43.28125 58.90625 
Q 39.453125 66.40625 31.78125 66.40625 
z
M 31.78125 74.21875 
Q 44.046875 74.21875 50.515625 64.515625 
Q 56.984375 54.828125 56.984375 36.375 
Q 56.984375 17.96875 50.515625 8.265625 
Q 44.046875 -1.421875 31.78125 -1.421875 
Q 19.53125 -1.421875 13.0625 8.265625 
Q 6.59375 17.96875 6.59375 36.375 
Q 6.59375 54.828125 13.0625 64.515625 
Q 19.53125 74.21875 31.78125 74.21875 
z
" id="DejaVuSans-30"/>
      </defs>
      <g transform="translate(43.784375 316.465937)scale(0.1 -0.1)">
       <use xlink:href="#DejaVuSans-30"/>
      </g>
     </g>
    </g>
    <g id="xtick_2">
     <g id="line2d_3">
      <path clip-path="url(#p9172714251)" d="M 118.389625 301.8675 
L 118.389625 35.7555 
" style="fill:none;stroke:#b0b0b0;stroke-linecap:square;stroke-width:0.8;"/>
     </g>
     <g id="line2d_4">
      <g>
       <use style="stroke:#000000;stroke-width:0.8;" x="118.389625" xlink:href="#m0568fe9789" y="301.8675"/>
      </g>
     </g>
     <g id="text_2">
      <!-- 50 -->
      <defs>
       <path d="M 10.796875 72.90625 
L 49.515625 72.90625 
L 49.515625 64.59375 
L 19.828125 64.59375 
L 19.828125 46.734375 
Q 21.96875 47.46875 24.109375 47.828125 
Q 26.265625 48.1875 28.421875 48.1875 
Q 40.625 48.1875 47.75 41.5 
Q 54.890625 34.8125 54.890625 23.390625 
Q 54.890625 11.625 47.5625 5.09375 
Q 40.234375 -1.421875 26.90625 -1.421875 
Q 22.3125 -1.421875 17.546875 -0.640625 
Q 12.796875 0.140625 7.71875 1.703125 
L 7.71875 11.625 
Q 12.109375 9.234375 16.796875 8.0625 
Q 21.484375 6.890625 26.703125 6.890625 
Q 35.15625 6.890625 40.078125 11.328125 
Q 45.015625 15.765625 45.015625 23.390625 
Q 45.015625 31 40.078125 35.4375 
Q 35.15625 39.890625 26.703125 39.890625 
Q 22.75 39.890625 18.8125 39.015625 
Q 14.890625 38.140625 10.796875 36.28125 
z
" id="DejaVuSans-35"/>
      </defs>
      <g transform="translate(112.027125 316.465937)scale(0.1 -0.1)">
       <use xlink:href="#DejaVuSans-35"/>
       <use x="63.623047" xlink:href="#DejaVuSans-30"/>
      </g>
     </g>
    </g>
    <g id="xtick_3">
     <g id="line2d_5">
      <path clip-path="url(#p9172714251)" d="M 189.813625 301.8675 
L 189.813625 35.7555 
" style="fill:none;stroke:#b0b0b0;stroke-linecap:square;stroke-width:0.8;"/>
     </g>
     <g id="line2d_6">
      <g>
       <use style="stroke:#000000;stroke-width:0.8;" x="189.813625" xlink:href="#m0568fe9789" y="301.8675"/>
      </g>
     </g>
     <g id="text_3">
      <!-- 100 -->
      <defs>
       <path d="M 12.40625 8.296875 
L 28.515625 8.296875 
L 28.515625 63.921875 
L 10.984375 60.40625 
L 10.984375 69.390625 
L 28.421875 72.90625 
L 38.28125 72.90625 
L 38.28125 8.296875 
L 54.390625 8.296875 
L 54.390625 0 
L 12.40625 0 
z
" id="DejaVuSans-31"/>
      </defs>
      <g transform="translate(180.269875 316.465937)scale(0.1 -0.1)">
       <use xlink:href="#DejaVuSans-31"/>
       <use x="63.623047" xlink:href="#DejaVuSans-30"/>
       <use x="127.246094" xlink:href="#DejaVuSans-30"/>
      </g>
     </g>
    </g>
    <g id="xtick_4">
     <g id="line2d_7">
      <path clip-path="url(#p9172714251)" d="M 261.237625 301.8675 
L 261.237625 35.7555 
" style="fill:none;stroke:#b0b0b0;stroke-linecap:square;stroke-width:0.8;"/>
     </g>
     <g id="line2d_8">
      <g>
       <use style="stroke:#000000;stroke-width:0.8;" x="261.237625" xlink:href="#m0568fe9789" y="301.8675"/>
      </g>
     </g>
     <g id="text_4">
      <!-- 150 -->
      <g transform="translate(251.693875 316.465937)scale(0.1 -0.1)">
       <use xlink:href="#DejaVuSans-31"/>
       <use x="63.623047" xlink:href="#DejaVuSans-35"/>
       <use x="127.246094" xlink:href="#DejaVuSans-30"/>
      </g>
     </g>
    </g>
    <g id="xtick_5">
     <g id="line2d_9">
      <path clip-path="url(#p9172714251)" d="M 332.661625 301.8675 
L 332.661625 35.7555 
" style="fill:none;stroke:#b0b0b0;stroke-linecap:square;stroke-width:0.8;"/>
     </g>
     <g id="line2d_10">
      <g>
       <use style="stroke:#000000;stroke-width:0.8;" x="332.661625" xlink:href="#m0568fe9789" y="301.8675"/>
      </g>
     </g>
     <g id="text_5">
      <!-- 200 -->
      <defs>
       <path d="M 19.1875 8.296875 
L 53.609375 8.296875 
L 53.609375 0 
L 7.328125 0 
L 7.328125 8.296875 
Q 12.9375 14.109375 22.625 23.890625 
Q 32.328125 33.6875 34.8125 36.53125 
Q 39.546875 41.84375 41.421875 45.53125 
Q 43.3125 49.21875 43.3125 52.78125 
Q 43.3125 58.59375 39.234375 62.25 
Q 35.15625 65.921875 28.609375 65.921875 
Q 23.96875 65.921875 18.8125 64.3125 
Q 13.671875 62.703125 7.8125 59.421875 
L 7.8125 69.390625 
Q 13.765625 71.78125 18.9375 73 
Q 24.125 74.21875 28.421875 74.21875 
Q 39.75 74.21875 46.484375 68.546875 
Q 53.21875 62.890625 53.21875 53.421875 
Q 53.21875 48.921875 51.53125 44.890625 
Q 49.859375 40.875 45.40625 35.40625 
Q 44.1875 33.984375 37.640625 27.21875 
Q 31.109375 20.453125 19.1875 8.296875 
z
" id="DejaVuSans-32"/>
      </defs>
      <g transform="translate(323.117875 316.465937)scale(0.1 -0.1)">
       <use xlink:href="#DejaVuSans-32"/>
       <use x="63.623047" xlink:href="#DejaVuSans-30"/>
       <use x="127.246094" xlink:href="#DejaVuSans-30"/>
      </g>
     </g>
    </g>
    <g id="xtick_6">
     <g id="line2d_11">
      <path clip-path="url(#p9172714251)" d="M 404.085625 301.8675 
L 404.085625 35.7555 
" style="fill:none;stroke:#b0b0b0;stroke-linecap:square;stroke-width:0.8;"/>
     </g>
     <g id="line2d_12">
      <g>
       <use style="stroke:#000000;stroke-width:0.8;" x="404.085625" xlink:href="#m0568fe9789" y="301.8675"/>
      </g>
     </g>
     <g id="text_6">
      <!-- 250 -->
      <g transform="translate(394.541875 316.465937)scale(0.1 -0.1)">
       <use xlink:href="#DejaVuSans-32"/>
       <use x="63.623047" xlink:href="#DejaVuSans-35"/>
       <use x="127.246094" xlink:href="#DejaVuSans-30"/>
      </g>
     </g>
    </g>
    <g id="text_7">
     <!-- Time (s) -->
     <defs>
      <path d="M -0.296875 72.90625 
L 61.375 72.90625 
L 61.375 64.59375 
L 35.5 64.59375 
L 35.5 0 
L 25.59375 0 
L 25.59375 64.59375 
L -0.296875 64.59375 
z
" id="DejaVuSans-54"/>
      <path d="M 9.421875 54.6875 
L 18.40625 54.6875 
L 18.40625 0 
L 9.421875 0 
z
M 9.421875 75.984375 
L 18.40625 75.984375 
L 18.40625 64.59375 
L 9.421875 64.59375 
z
" id="DejaVuSans-69"/>
      <path d="M 52 44.1875 
Q 55.375 50.25 60.0625 53.125 
Q 64.75 56 71.09375 56 
Q 79.640625 56 84.28125 50.015625 
Q 88.921875 44.046875 88.921875 33.015625 
L 88.921875 0 
L 79.890625 0 
L 79.890625 32.71875 
Q 79.890625 40.578125 77.09375 44.375 
Q 74.3125 48.1875 68.609375 48.1875 
Q 61.625 48.1875 57.5625 43.546875 
Q 53.515625 38.921875 53.515625 30.90625 
L 53.515625 0 
L 44.484375 0 
L 44.484375 32.71875 
Q 44.484375 40.625 41.703125 44.40625 
Q 38.921875 48.1875 33.109375 48.1875 
Q 26.21875 48.1875 22.15625 43.53125 
Q 18.109375 38.875 18.109375 30.90625 
L 18.109375 0 
L 9.078125 0 
L 9.078125 54.6875 
L 18.109375 54.6875 
L 18.109375 46.1875 
Q 21.1875 51.21875 25.484375 53.609375 
Q 29.78125 56 35.6875 56 
Q 41.65625 56 45.828125 52.96875 
Q 50 49.953125 52 44.1875 
z
" id="DejaVuSans-6d"/>
      <path d="M 56.203125 29.59375 
L 56.203125 25.203125 
L 14.890625 25.203125 
Q 15.484375 15.921875 20.484375 11.0625 
Q 25.484375 6.203125 34.421875 6.203125 
Q 39.59375 6.203125 44.453125 7.46875 
Q 49.3125 8.734375 54.109375 11.28125 
L 54.109375 2.78125 
Q 49.265625 0.734375 44.1875 -0.34375 
Q 39.109375 -1.421875 33.890625 -1.421875 
Q 20.796875 -1.421875 13.15625 6.1875 
Q 5.515625 13.8125 5.515625 26.8125 
Q 5.515625 40.234375 12.765625 48.109375 
Q 20.015625 56 32.328125 56 
Q 43.359375 56 49.78125 48.890625 
Q 56.203125 41.796875 56.203125 29.59375 
z
M 47.21875 32.234375 
Q 47.125 39.59375 43.09375 43.984375 
Q 39.0625 48.390625 32.421875 48.390625 
Q 24.90625 48.390625 20.390625 44.140625 
Q 15.875 39.890625 15.1875 32.171875 
z
" id="DejaVuSans-65"/>
      <path id="DejaVuSans-20"/>
      <path d="M 31 75.875 
Q 24.46875 64.65625 21.28125 53.65625 
Q 18.109375 42.671875 18.109375 31.390625 
Q 18.109375 20.125 21.3125 9.0625 
Q 24.515625 -2 31 -13.1875 
L 23.1875 -13.1875 
Q 15.875 -1.703125 12.234375 9.375 
Q 8.59375 20.453125 8.59375 31.390625 
Q 8.59375 42.28125 12.203125 53.3125 
Q 15.828125 64.359375 23.1875 75.875 
z
" id="DejaVuSans-28"/>
      <path d="M 44.28125 53.078125 
L 44.28125 44.578125 
Q 40.484375 46.53125 36.375 47.5 
Q 32.28125 48.484375 27.875 48.484375 
Q 21.1875 48.484375 17.84375 46.4375 
Q 14.5 44.390625 14.5 40.28125 
Q 14.5 37.15625 16.890625 35.375 
Q 19.28125 33.59375 26.515625 31.984375 
L 29.59375 31.296875 
Q 39.15625 29.25 43.1875 25.515625 
Q 47.21875 21.78125 47.21875 15.09375 
Q 47.21875 7.46875 41.1875 3.015625 
Q 35.15625 -1.421875 24.609375 -1.421875 
Q 20.21875 -1.421875 15.453125 -0.5625 
Q 10.6875 0.296875 5.421875 2 
L 5.421875 11.28125 
Q 10.40625 8.6875 15.234375 7.390625 
Q 20.0625 6.109375 24.8125 6.109375 
Q 31.15625 6.109375 34.5625 8.28125 
Q 37.984375 10.453125 37.984375 14.40625 
Q 37.984375 18.0625 35.515625 20.015625 
Q 33.0625 21.96875 24.703125 23.78125 
L 21.578125 24.515625 
Q 13.234375 26.265625 9.515625 29.90625 
Q 5.8125 33.546875 5.8125 39.890625 
Q 5.8125 47.609375 11.28125 51.796875 
Q 16.75 56 26.8125 56 
Q 31.78125 56 36.171875 55.265625 
Q 40.578125 54.546875 44.28125 53.078125 
z
" id="DejaVuSans-73"/>
      <path d="M 8.015625 75.875 
L 15.828125 75.875 
Q 23.140625 64.359375 26.78125 53.3125 
Q 30.421875 42.28125 30.421875 31.390625 
Q 30.421875 20.453125 26.78125 9.375 
Q 23.140625 -1.703125 15.828125 -13.1875 
L 8.015625 -13.1875 
Q 14.5 -2 17.703125 9.0625 
Q 20.90625 20.125 20.90625 31.390625 
Q 20.90625 42.671875 17.703125 53.65625 
Q 14.5 64.65625 8.015625 75.875 
z
" id="DejaVuSans-29"/>
     </defs>
     <g transform="translate(205.042813 330.144062)scale(0.1 -0.1)">
      <use xlink:href="#DejaVuSans-54"/>
      <use x="61.037109" xlink:href="#DejaVuSans-69"/>
      <use x="88.820312" xlink:href="#DejaVuSans-6d"/>
      <use x="186.232422" xlink:href="#DejaVuSans-65"/>
      <use x="247.755859" xlink:href="#DejaVuSans-20"/>
      <use x="279.542969" xlink:href="#DejaVuSans-28"/>
      <use x="318.556641" xlink:href="#DejaVuSans-73"/>
      <use x="370.65625" xlink:href="#DejaVuSans-29"/>
     </g>
    </g>
   </g>
   <g id="matplotlib.axis_2">
    <g id="ytick_1">
     <g id="line2d_13">
      <path clip-path="url(#p9172714251)" d="M 46.965625 301.8675 
L 404.085625 301.8675 
" style="fill:none;stroke:#b0b0b0;stroke-linecap:square;stroke-width:0.8;"/>
     </g>
     <g id="line2d_14">
      <defs>
       <path d="M 0 0 
L -3.5 0 
" id="mf21ceb92da" style="stroke:#000000;stroke-width:0.8;"/>
      </defs>
      <g>
       <use style="stroke:#000000;stroke-width:0.8;" x="46.965625" xlink:href="#mf21ceb92da" y="301.8675"/>
      </g>
     </g>
     <g id="text_8">
      <!-- 0 -->
      <g transform="translate(33.603125 305.666719)scale(0.1 -0.1)">
       <use xlink:href="#DejaVuSans-30"/>
      </g>
     </g>
    </g>
    <g id="ytick_2">
     <g id="line2d_15">
      <path clip-path="url(#p9172714251)" d="M 46.965625 268.6035 
L 404.085625 268.6035 
" style="fill:none;stroke:#b0b0b0;stroke-linecap:square;stroke-width:0.8;"/>
     </g>
     <g id="line2d_16">
      <g>
       <use style="stroke:#000000;stroke-width:0.8;" x="46.965625" xlink:href="#mf21ceb92da" y="268.6035"/>
      </g>
     </g>
     <g id="text_9">
      <!-- 25 -->
      <g transform="translate(27.240625 272.402719)scale(0.1 -0.1)">
       <use xlink:href="#DejaVuSans-32"/>
       <use x="63.623047" xlink:href="#DejaVuSans-35"/>
      </g>
     </g>
    </g>
    <g id="ytick_3">
     <g id="line2d_17">
      <path clip-path="url(#p9172714251)" d="M 46.965625 235.3395 
L 404.085625 235.3395 
" style="fill:none;stroke:#b0b0b0;stroke-linecap:square;stroke-width:0.8;"/>
     </g>
     <g id="line2d_18">
      <g>
       <use style="stroke:#000000;stroke-width:0.8;" x="46.965625" xlink:href="#mf21ceb92da" y="235.3395"/>
      </g>
     </g>
     <g id="text_10">
      <!-- 50 -->
      <g transform="translate(27.240625 239.138719)scale(0.1 -0.1)">
       <use xlink:href="#DejaVuSans-35"/>
       <use x="63.623047" xlink:href="#DejaVuSans-30"/>
      </g>
     </g>
    </g>
    <g id="ytick_4">
     <g id="line2d_19">
      <path clip-path="url(#p9172714251)" d="M 46.965625 202.0755 
L 404.085625 202.0755 
" style="fill:none;stroke:#b0b0b0;stroke-linecap:square;stroke-width:0.8;"/>
     </g>
     <g id="line2d_20">
      <g>
       <use style="stroke:#000000;stroke-width:0.8;" x="46.965625" xlink:href="#mf21ceb92da" y="202.0755"/>
      </g>
     </g>
     <g id="text_11">
      <!-- 75 -->
      <defs>
       <path d="M 8.203125 72.90625 
L 55.078125 72.90625 
L 55.078125 68.703125 
L 28.609375 0 
L 18.3125 0 
L 43.21875 64.59375 
L 8.203125 64.59375 
z
" id="DejaVuSans-37"/>
      </defs>
      <g transform="translate(27.240625 205.874719)scale(0.1 -0.1)">
       <use xlink:href="#DejaVuSans-37"/>
       <use x="63.623047" xlink:href="#DejaVuSans-35"/>
      </g>
     </g>
    </g>
    <g id="ytick_5">
     <g id="line2d_21">
      <path clip-path="url(#p9172714251)" d="M 46.965625 168.8115 
L 404.085625 168.8115 
" style="fill:none;stroke:#b0b0b0;stroke-linecap:square;stroke-width:0.8;"/>
     </g>
     <g id="line2d_22">
      <g>
       <use style="stroke:#000000;stroke-width:0.8;" x="46.965625" xlink:href="#mf21ceb92da" y="168.8115"/>
      </g>
     </g>
     <g id="text_12">
      <!-- 100 -->
      <g transform="translate(20.878125 172.610719)scale(0.1 -0.1)">
       <use xlink:href="#DejaVuSans-31"/>
       <use x="63.623047" xlink:href="#DejaVuSans-30"/>
       <use x="127.246094" xlink:href="#DejaVuSans-30"/>
      </g>
     </g>
    </g>
    <g id="ytick_6">
     <g id="line2d_23">
      <path clip-path="url(#p9172714251)" d="M 46.965625 135.5475 
L 404.085625 135.5475 
" style="fill:none;stroke:#b0b0b0;stroke-linecap:square;stroke-width:0.8;"/>
     </g>
     <g id="line2d_24">
      <g>
       <use style="stroke:#000000;stroke-width:0.8;" x="46.965625" xlink:href="#mf21ceb92da" y="135.5475"/>
      </g>
     </g>
     <g id="text_13">
      <!-- 125 -->
      <g transform="translate(20.878125 139.346719)scale(0.1 -0.1)">
       <use xlink:href="#DejaVuSans-31"/>
       <use x="63.623047" xlink:href="#DejaVuSans-32"/>
       <use x="127.246094" xlink:href="#DejaVuSans-35"/>
      </g>
     </g>
    </g>
    <g id="ytick_7">
     <g id="line2d_25">
      <path clip-path="url(#p9172714251)" d="M 46.965625 102.2835 
L 404.085625 102.2835 
" style="fill:none;stroke:#b0b0b0;stroke-linecap:square;stroke-width:0.8;"/>
     </g>
     <g id="line2d_26">
      <g>
       <use style="stroke:#000000;stroke-width:0.8;" x="46.965625" xlink:href="#mf21ceb92da" y="102.2835"/>
      </g>
     </g>
     <g id="text_14">
      <!-- 150 -->
      <g transform="translate(20.878125 106.082719)scale(0.1 -0.1)">
       <use xlink:href="#DejaVuSans-31"/>
       <use x="63.623047" xlink:href="#DejaVuSans-35"/>
       <use x="127.246094" xlink:href="#DejaVuSans-30"/>
      </g>
     </g>
    </g>
    <g id="ytick_8">
     <g id="line2d_27">
      <path clip-path="url(#p9172714251)" d="M 46.965625 69.0195 
L 404.085625 69.0195 
" style="fill:none;stroke:#b0b0b0;stroke-linecap:square;stroke-width:0.8;"/>
     </g>
     <g id="line2d_28">
      <g>
       <use style="stroke:#000000;stroke-width:0.8;" x="46.965625" xlink:href="#mf21ceb92da" y="69.0195"/>
      </g>
     </g>
     <g id="text_15">
      <!-- 175 -->
      <g transform="translate(20.878125 72.818719)scale(0.1 -0.1)">
       <use xlink:href="#DejaVuSans-31"/>
       <use x="63.623047" xlink:href="#DejaVuSans-37"/>
       <use x="127.246094" xlink:href="#DejaVuSans-35"/>
      </g>
     </g>
    </g>
    <g id="ytick_9">
     <g id="line2d_29">
      <path clip-path="url(#p9172714251)" d="M 46.965625 35.7555 
L 404.085625 35.7555 
" style="fill:none;stroke:#b0b0b0;stroke-linecap:square;stroke-width:0.8;"/>
     </g>
     <g id="line2d_30">
      <g>
       <use style="stroke:#000000;stroke-width:0.8;" x="46.965625" xlink:href="#mf21ceb92da" y="35.7555"/>
      </g>
     </g>
     <g id="text_16">
      <!-- 200 -->
      <g transform="translate(20.878125 39.554719)scale(0.1 -0.1)">
       <use xlink:href="#DejaVuSans-32"/>
       <use x="63.623047" xlink:href="#DejaVuSans-30"/>
       <use x="127.246094" xlink:href="#DejaVuSans-30"/>
      </g>
     </g>
    </g>
    <g id="text_17">
     <!-- Number of nodes -->
     <defs>
      <path d="M 9.8125 72.90625 
L 23.09375 72.90625 
L 55.421875 11.921875 
L 55.421875 72.90625 
L 64.984375 72.90625 
L 64.984375 0 
L 51.703125 0 
L 19.390625 60.984375 
L 19.390625 0 
L 9.8125 0 
z
" id="DejaVuSans-4e"/>
      <path d="M 8.5 21.578125 
L 8.5 54.6875 
L 17.484375 54.6875 
L 17.484375 21.921875 
Q 17.484375 14.15625 20.5 10.265625 
Q 23.53125 6.390625 29.59375 6.390625 
Q 36.859375 6.390625 41.078125 11.03125 
Q 45.3125 15.671875 45.3125 23.6875 
L 45.3125 54.6875 
L 54.296875 54.6875 
L 54.296875 0 
L 45.3125 0 
L 45.3125 8.40625 
Q 42.046875 3.421875 37.71875 1 
Q 33.40625 -1.421875 27.6875 -1.421875 
Q 18.265625 -1.421875 13.375 4.4375 
Q 8.5 10.296875 8.5 21.578125 
z
M 31.109375 56 
z
" id="DejaVuSans-75"/>
      <path d="M 48.6875 27.296875 
Q 48.6875 37.203125 44.609375 42.84375 
Q 40.53125 48.484375 33.40625 48.484375 
Q 26.265625 48.484375 22.1875 42.84375 
Q 18.109375 37.203125 18.109375 27.296875 
Q 18.109375 17.390625 22.1875 11.75 
Q 26.265625 6.109375 33.40625 6.109375 
Q 40.53125 6.109375 44.609375 11.75 
Q 48.6875 17.390625 48.6875 27.296875 
z
M 18.109375 46.390625 
Q 20.953125 51.265625 25.265625 53.625 
Q 29.59375 56 35.59375 56 
Q 45.5625 56 51.78125 48.09375 
Q 58.015625 40.1875 58.015625 27.296875 
Q 58.015625 14.40625 51.78125 6.484375 
Q 45.5625 -1.421875 35.59375 -1.421875 
Q 29.59375 -1.421875 25.265625 0.953125 
Q 20.953125 3.328125 18.109375 8.203125 
L 18.109375 0 
L 9.078125 0 
L 9.078125 75.984375 
L 18.109375 75.984375 
z
" id="DejaVuSans-62"/>
      <path d="M 41.109375 46.296875 
Q 39.59375 47.171875 37.8125 47.578125 
Q 36.03125 48 33.890625 48 
Q 26.265625 48 22.1875 43.046875 
Q 18.109375 38.09375 18.109375 28.8125 
L 18.109375 0 
L 9.078125 0 
L 9.078125 54.6875 
L 18.109375 54.6875 
L 18.109375 46.1875 
Q 20.953125 51.171875 25.484375 53.578125 
Q 30.03125 56 36.53125 56 
Q 37.453125 56 38.578125 55.875 
Q 39.703125 55.765625 41.0625 55.515625 
z
" id="DejaVuSans-72"/>
      <path d="M 30.609375 48.390625 
Q 23.390625 48.390625 19.1875 42.75 
Q 14.984375 37.109375 14.984375 27.296875 
Q 14.984375 17.484375 19.15625 11.84375 
Q 23.34375 6.203125 30.609375 6.203125 
Q 37.796875 6.203125 41.984375 11.859375 
Q 46.1875 17.53125 46.1875 27.296875 
Q 46.1875 37.015625 41.984375 42.703125 
Q 37.796875 48.390625 30.609375 48.390625 
z
M 30.609375 56 
Q 42.328125 56 49.015625 48.375 
Q 55.71875 40.765625 55.71875 27.296875 
Q 55.71875 13.875 49.015625 6.21875 
Q 42.328125 -1.421875 30.609375 -1.421875 
Q 18.84375 -1.421875 12.171875 6.21875 
Q 5.515625 13.875 5.515625 27.296875 
Q 5.515625 40.765625 12.171875 48.375 
Q 18.84375 56 30.609375 56 
z
" id="DejaVuSans-6f"/>
      <path d="M 37.109375 75.984375 
L 37.109375 68.5 
L 28.515625 68.5 
Q 23.6875 68.5 21.796875 66.546875 
Q 19.921875 64.59375 19.921875 59.515625 
L 19.921875 54.6875 
L 34.71875 54.6875 
L 34.71875 47.703125 
L 19.921875 47.703125 
L 19.921875 0 
L 10.890625 0 
L 10.890625 47.703125 
L 2.296875 47.703125 
L 2.296875 54.6875 
L 10.890625 54.6875 
L 10.890625 58.5 
Q 10.890625 67.625 15.140625 71.796875 
Q 19.390625 75.984375 28.609375 75.984375 
z
" id="DejaVuSans-66"/>
      <path d="M 54.890625 33.015625 
L 54.890625 0 
L 45.90625 0 
L 45.90625 32.71875 
Q 45.90625 40.484375 42.875 44.328125 
Q 39.84375 48.1875 33.796875 48.1875 
Q 26.515625 48.1875 22.3125 43.546875 
Q 18.109375 38.921875 18.109375 30.90625 
L 18.109375 0 
L 9.078125 0 
L 9.078125 54.6875 
L 18.109375 54.6875 
L 18.109375 46.1875 
Q 21.34375 51.125 25.703125 53.5625 
Q 30.078125 56 35.796875 56 
Q 45.21875 56 50.046875 50.171875 
Q 54.890625 44.34375 54.890625 33.015625 
z
" id="DejaVuSans-6e"/>
      <path d="M 45.40625 46.390625 
L 45.40625 75.984375 
L 54.390625 75.984375 
L 54.390625 0 
L 45.40625 0 
L 45.40625 8.203125 
Q 42.578125 3.328125 38.25 0.953125 
Q 33.9375 -1.421875 27.875 -1.421875 
Q 17.96875 -1.421875 11.734375 6.484375 
Q 5.515625 14.40625 5.515625 27.296875 
Q 5.515625 40.1875 11.734375 48.09375 
Q 17.96875 56 27.875 56 
Q 33.9375 56 38.25 53.625 
Q 42.578125 51.265625 45.40625 46.390625 
z
M 14.796875 27.296875 
Q 14.796875 17.390625 18.875 11.75 
Q 22.953125 6.109375 30.078125 6.109375 
Q 37.203125 6.109375 41.296875 11.75 
Q 45.40625 17.390625 45.40625 27.296875 
Q 45.40625 37.203125 41.296875 42.84375 
Q 37.203125 48.484375 30.078125 48.484375 
Q 22.953125 48.484375 18.875 42.84375 
Q 14.796875 37.203125 14.796875 27.296875 
z
" id="DejaVuSans-64"/>
     </defs>
     <g transform="translate(14.798438 211.978687)rotate(-90)scale(0.1 -0.1)">
      <use xlink:href="#DejaVuSans-4e"/>
      <use x="74.804688" xlink:href="#DejaVuSans-75"/>
      <use x="138.183594" xlink:href="#DejaVuSans-6d"/>
      <use x="235.595703" xlink:href="#DejaVuSans-62"/>
      <use x="299.072266" xlink:href="#DejaVuSans-65"/>
      <use x="360.595703" xlink:href="#DejaVuSans-72"/>
      <use x="401.708984" xlink:href="#DejaVuSans-20"/>
      <use x="433.496094" xlink:href="#DejaVuSans-6f"/>
      <use x="494.677734" xlink:href="#DejaVuSans-66"/>
      <use x="529.882812" xlink:href="#DejaVuSans-20"/>
      <use x="561.669922" xlink:href="#DejaVuSans-6e"/>
      <use x="625.048828" xlink:href="#DejaVuSans-6f"/>
      <use x="686.230469" xlink:href="#DejaVuSans-64"/>
      <use x="749.707031" xlink:href="#DejaVuSans-65"/>
      <use x="811.230469" xlink:href="#DejaVuSans-73"/>
     </g>
    </g>
   </g>
   <g id="line2d_31">
    <path clip-path="url(#p9172714251)" d="M 46.965625 291.22302 
L 48.394105 291.22302 
L 49.822585 291.22302 
L 51.251065 288.5619 
L 52.679545 287.23134 
L 56.964985 287.23134 
L 58.393465 285.90078 
L 59.821945 281.9091 
L 61.250425 280.57854 
L 62.678905 280.57854 
L 64.107385 281.9091 
L 65.535865 280.57854 
L 68.392825 280.57854 
L 71.249785 283.23966 
L 76.963705 283.23966 
L 78.392185 284.57022 
L 82.677625 284.57022 
L 84.106105 281.9091 
L 86.963065 281.9091 
L 88.391545 280.57854 
L 91.248505 280.57854 
L 92.676985 284.57022 
L 94.105465 287.23134 
L 96.962425 287.23134 
L 98.390905 288.5619 
L 99.819385 291.22302 
L 106.961785 291.22302 
L 108.390265 292.55358 
L 109.818745 289.89246 
L 111.247225 289.89246 
L 112.675705 291.22302 
L 114.104185 288.5619 
L 116.961145 285.90078 
L 118.389625 283.23966 
L 119.818105 283.23966 
L 122.675065 285.90078 
L 126.960505 285.90078 
L 129.817465 283.23966 
L 131.245945 284.57022 
L 132.674425 283.23966 
L 134.102905 283.23966 
L 138.388345 279.24798 
L 144.102265 279.24798 
L 146.959225 281.9091 
L 148.387705 281.9091 
L 149.816185 280.57854 
L 151.244665 281.9091 
L 152.673145 281.9091 
L 154.101625 280.57854 
L 155.530105 281.9091 
L 156.958585 281.9091 
L 158.387065 283.23966 
L 168.386425 283.23966 
L 169.814905 285.90078 
L 175.528825 285.90078 
L 178.385785 288.5619 
L 179.814265 288.5619 
L 181.242745 289.89246 
L 182.671225 289.89246 
L 184.099705 291.22302 
L 185.528185 291.22302 
L 186.956665 289.89246 
L 189.813625 289.89246 
L 191.242105 287.23134 
L 192.670585 288.5619 
L 194.099065 285.90078 
L 204.098425 285.90078 
L 205.526905 287.23134 
L 206.955385 284.57022 
L 208.383865 284.57022 
L 211.240825 281.9091 
L 215.526265 281.9091 
L 216.954745 283.23966 
L 218.383225 283.23966 
L 219.811705 284.57022 
L 222.668665 281.9091 
L 226.954105 281.9091 
L 228.382585 280.57854 
L 229.811065 280.57854 
L 231.239545 277.91742 
L 232.668025 279.24798 
L 235.524985 279.24798 
L 236.953465 280.57854 
L 238.381945 280.57854 
L 239.810425 279.24798 
L 241.238905 279.24798 
L 242.667385 280.57854 
L 244.095865 284.57022 
L 245.524345 281.9091 
L 246.952825 281.9091 
L 248.381305 280.57854 
L 252.666745 280.57854 
L 254.095225 285.90078 
L 256.952185 288.5619 
L 258.380665 288.5619 
L 259.809145 289.89246 
L 264.094585 289.89246 
L 265.523065 292.55358 
L 266.951545 293.88414 
L 268.380025 293.88414 
L 269.808505 295.2147 
L 271.236985 293.88414 
L 274.093945 293.88414 
L 275.522425 296.54526 
L 276.950905 296.54526 
L 278.379385 299.20638 
L 282.664825 299.20638 
L 285.521785 296.54526 
L 286.950265 297.87582 
L 288.378745 297.87582 
L 289.807225 296.54526 
L 301.235065 296.54526 
L 302.663545 295.2147 
L 305.520505 295.2147 
L 306.948985 293.88414 
L 309.805945 293.88414 
L 311.234425 289.89246 
L 312.662905 287.23134 
L 314.091385 285.90078 
L 315.519865 285.90078 
L 316.948345 284.57022 
L 319.805305 284.57022 
L 321.233785 283.23966 
L 324.090745 283.23966 
L 325.519225 284.57022 
L 328.376185 279.24798 
L 329.804665 280.57854 
L 331.233145 277.91742 
L 332.661625 279.24798 
L 335.518585 276.58686 
L 338.375545 276.58686 
L 341.232505 273.92574 
L 342.660985 273.92574 
L 344.089465 272.59518 
L 345.517945 272.59518 
L 346.946425 276.58686 
L 348.374905 277.91742 
L 349.803385 276.58686 
L 352.660345 276.58686 
L 354.088825 279.24798 
L 358.374265 283.23966 
L 359.802745 281.9091 
L 361.231225 281.9091 
L 365.516665 285.90078 
L 366.945145 288.5619 
L 368.373625 287.23134 
L 369.802105 289.89246 
L 375.516025 295.2147 
L 376.944505 295.2147 
L 378.372985 293.88414 
L 379.801465 295.2147 
L 381.229945 295.2147 
L 382.658425 293.88414 
L 385.515385 293.88414 
L 386.943865 295.2147 
L 402.657145 295.2147 
L 402.657145 295.2147 
" style="fill:none;stroke:#008000;stroke-linecap:square;stroke-width:1.5;"/>
   </g>
   <g id="patch_3">
    <path d="M 46.965625 301.8675 
L 46.965625 35.7555 
" style="fill:none;stroke:#000000;stroke-linecap:square;stroke-linejoin:miter;stroke-width:0.8;"/>
   </g>
   <g id="patch_4">
    <path d="M 404.085625 301.8675 
L 404.085625 35.7555 
" style="fill:none;stroke:#000000;stroke-linecap:square;stroke-linejoin:miter;stroke-width:0.8;"/>
   </g>
   <g id="patch_5">
    <path d="M 46.965625 301.8675 
L 404.085625 301.8675 
" style="fill:none;stroke:#000000;stroke-linecap:square;stroke-linejoin:miter;stroke-width:0.8;"/>
   </g>
   <g id="patch_6">
    <path d="M 46.965625 35.7555 
L 404.085625 35.7555 
" style="fill:none;stroke:#000000;stroke-linecap:square;stroke-linejoin:miter;stroke-width:0.8;"/>
   </g>
   <g id="text_18">
    <!-- inertia max (x,y): (68.0,  17.0) -->
    <defs>
     <path d="M 18.3125 70.21875 
L 18.3125 54.6875 
L 36.8125 54.6875 
L 36.8125 47.703125 
L 18.3125 47.703125 
L 18.3125 18.015625 
Q 18.3125 11.328125 20.140625 9.421875 
Q 21.96875 7.515625 27.59375 7.515625 
L 36.8125 7.515625 
L 36.8125 0 
L 27.59375 0 
Q 17.1875 0 13.234375 3.875 
Q 9.28125 7.765625 9.28125 18.015625 
L 9.28125 47.703125 
L 2.6875 47.703125 
L 2.6875 54.6875 
L 9.28125 54.6875 
L 9.28125 70.21875 
z
" id="DejaVuSans-74"/>
     <path d="M 34.28125 27.484375 
Q 23.390625 27.484375 19.1875 25 
Q 14.984375 22.515625 14.984375 16.5 
Q 14.984375 11.71875 18.140625 8.90625 
Q 21.296875 6.109375 26.703125 6.109375 
Q 34.1875 6.109375 38.703125 11.40625 
Q 43.21875 16.703125 43.21875 25.484375 
L 43.21875 27.484375 
z
M 52.203125 31.203125 
L 52.203125 0 
L 43.21875 0 
L 43.21875 8.296875 
Q 40.140625 3.328125 35.546875 0.953125 
Q 30.953125 -1.421875 24.3125 -1.421875 
Q 15.921875 -1.421875 10.953125 3.296875 
Q 6 8.015625 6 15.921875 
Q 6 25.140625 12.171875 29.828125 
Q 18.359375 34.515625 30.609375 34.515625 
L 43.21875 34.515625 
L 43.21875 35.40625 
Q 43.21875 41.609375 39.140625 45 
Q 35.0625 48.390625 27.6875 48.390625 
Q 23 48.390625 18.546875 47.265625 
Q 14.109375 46.140625 10.015625 43.890625 
L 10.015625 52.203125 
Q 14.9375 54.109375 19.578125 55.046875 
Q 24.21875 56 28.609375 56 
Q 40.484375 56 46.34375 49.84375 
Q 52.203125 43.703125 52.203125 31.203125 
z
" id="DejaVuSans-61"/>
     <path d="M 54.890625 54.6875 
L 35.109375 28.078125 
L 55.90625 0 
L 45.3125 0 
L 29.390625 21.484375 
L 13.484375 0 
L 2.875 0 
L 24.125 28.609375 
L 4.6875 54.6875 
L 15.28125 54.6875 
L 29.78125 35.203125 
L 44.28125 54.6875 
z
" id="DejaVuSans-78"/>
     <path d="M 11.71875 12.40625 
L 22.015625 12.40625 
L 22.015625 4 
L 14.015625 -11.625 
L 7.71875 -11.625 
L 11.71875 4 
z
" id="DejaVuSans-2c"/>
     <path d="M 32.171875 -5.078125 
Q 28.375 -14.84375 24.75 -17.8125 
Q 21.140625 -20.796875 15.09375 -20.796875 
L 7.90625 -20.796875 
L 7.90625 -13.28125 
L 13.1875 -13.28125 
Q 16.890625 -13.28125 18.9375 -11.515625 
Q 21 -9.765625 23.484375 -3.21875 
L 25.09375 0.875 
L 2.984375 54.6875 
L 12.5 54.6875 
L 29.59375 11.921875 
L 46.6875 54.6875 
L 56.203125 54.6875 
z
" id="DejaVuSans-79"/>
     <path d="M 11.71875 12.40625 
L 22.015625 12.40625 
L 22.015625 0 
L 11.71875 0 
z
M 11.71875 51.703125 
L 22.015625 51.703125 
L 22.015625 39.3125 
L 11.71875 39.3125 
z
" id="DejaVuSans-3a"/>
     <path d="M 33.015625 40.375 
Q 26.375 40.375 22.484375 35.828125 
Q 18.609375 31.296875 18.609375 23.390625 
Q 18.609375 15.53125 22.484375 10.953125 
Q 26.375 6.390625 33.015625 6.390625 
Q 39.65625 6.390625 43.53125 10.953125 
Q 47.40625 15.53125 47.40625 23.390625 
Q 47.40625 31.296875 43.53125 35.828125 
Q 39.65625 40.375 33.015625 40.375 
z
M 52.59375 71.296875 
L 52.59375 62.3125 
Q 48.875 64.0625 45.09375 64.984375 
Q 41.3125 65.921875 37.59375 65.921875 
Q 27.828125 65.921875 22.671875 59.328125 
Q 17.53125 52.734375 16.796875 39.40625 
Q 19.671875 43.65625 24.015625 45.921875 
Q 28.375 48.1875 33.59375 48.1875 
Q 44.578125 48.1875 50.953125 41.515625 
Q 57.328125 34.859375 57.328125 23.390625 
Q 57.328125 12.15625 50.6875 5.359375 
Q 44.046875 -1.421875 33.015625 -1.421875 
Q 20.359375 -1.421875 13.671875 8.265625 
Q 6.984375 17.96875 6.984375 36.375 
Q 6.984375 53.65625 15.1875 63.9375 
Q 23.390625 74.21875 37.203125 74.21875 
Q 40.921875 74.21875 44.703125 73.484375 
Q 48.484375 72.75 52.59375 71.296875 
z
" id="DejaVuSans-36"/>
     <path d="M 31.78125 34.625 
Q 24.75 34.625 20.71875 30.859375 
Q 16.703125 27.09375 16.703125 20.515625 
Q 16.703125 13.921875 20.71875 10.15625 
Q 24.75 6.390625 31.78125 6.390625 
Q 38.8125 6.390625 42.859375 10.171875 
Q 46.921875 13.96875 46.921875 20.515625 
Q 46.921875 27.09375 42.890625 30.859375 
Q 38.875 34.625 31.78125 34.625 
z
M 21.921875 38.8125 
Q 15.578125 40.375 12.03125 44.71875 
Q 8.5 49.078125 8.5 55.328125 
Q 8.5 64.0625 14.71875 69.140625 
Q 20.953125 74.21875 31.78125 74.21875 
Q 42.671875 74.21875 48.875 69.140625 
Q 55.078125 64.0625 55.078125 55.328125 
Q 55.078125 49.078125 51.53125 44.71875 
Q 48 40.375 41.703125 38.8125 
Q 48.828125 37.15625 52.796875 32.3125 
Q 56.78125 27.484375 56.78125 20.515625 
Q 56.78125 9.90625 50.3125 4.234375 
Q 43.84375 -1.421875 31.78125 -1.421875 
Q 19.734375 -1.421875 13.25 4.234375 
Q 6.78125 9.90625 6.78125 20.515625 
Q 6.78125 27.484375 10.78125 32.3125 
Q 14.796875 37.15625 21.921875 38.8125 
z
M 18.3125 54.390625 
Q 18.3125 48.734375 21.84375 45.5625 
Q 25.390625 42.390625 31.78125 42.390625 
Q 38.140625 42.390625 41.71875 45.5625 
Q 45.3125 48.734375 45.3125 54.390625 
Q 45.3125 60.0625 41.71875 63.234375 
Q 38.140625 66.40625 31.78125 66.40625 
Q 25.390625 66.40625 21.84375 63.234375 
Q 18.3125 60.0625 18.3125 54.390625 
z
" id="DejaVuSans-38"/>
     <path d="M 10.6875 12.40625 
L 21 12.40625 
L 21 0 
L 10.6875 0 
z
" id="DejaVuSans-2e"/>
    </defs>
    <g transform="translate(421.941625 268.274062)scale(0.1 -0.1)">
     <use xlink:href="#DejaVuSans-69"/>
     <use x="27.783203" xlink:href="#DejaVuSans-6e"/>
     <use x="91.162109" xlink:href="#DejaVuSans-65"/>
     <use x="152.685547" xlink:href="#DejaVuSans-72"/>
     <use x="193.798828" xlink:href="#DejaVuSans-74"/>
     <use x="233.007812" xlink:href="#DejaVuSans-69"/>
     <use x="260.791016" xlink:href="#DejaVuSans-61"/>
     <use x="322.070312" xlink:href="#DejaVuSans-20"/>
     <use x="353.857422" xlink:href="#DejaVuSans-6d"/>
     <use x="451.269531" xlink:href="#DejaVuSans-61"/>
     <use x="512.548828" xlink:href="#DejaVuSans-78"/>
     <use x="571.728516" xlink:href="#DejaVuSans-20"/>
     <use x="603.515625" xlink:href="#DejaVuSans-28"/>
     <use x="642.529297" xlink:href="#DejaVuSans-78"/>
     <use x="701.708984" xlink:href="#DejaVuSans-2c"/>
     <use x="733.496094" xlink:href="#DejaVuSans-79"/>
     <use x="792.675781" xlink:href="#DejaVuSans-29"/>
     <use x="831.689453" xlink:href="#DejaVuSans-3a"/>
     <use x="865.380859" xlink:href="#DejaVuSans-20"/>
     <use x="897.167969" xlink:href="#DejaVuSans-28"/>
     <use x="936.181641" xlink:href="#DejaVuSans-36"/>
     <use x="999.804688" xlink:href="#DejaVuSans-38"/>
     <use x="1063.427734" xlink:href="#DejaVuSans-2e"/>
     <use x="1095.214844" xlink:href="#DejaVuSans-30"/>
     <use x="1158.837891" xlink:href="#DejaVuSans-2c"/>
     <use x="1190.625" xlink:href="#DejaVuSans-20"/>
     <use x="1222.412109" xlink:href="#DejaVuSans-20"/>
     <use x="1254.199219" xlink:href="#DejaVuSans-31"/>
     <use x="1317.822266" xlink:href="#DejaVuSans-37"/>
     <use x="1381.445312" xlink:href="#DejaVuSans-2e"/>
     <use x="1413.232422" xlink:href="#DejaVuSans-30"/>
     <use x="1476.855469" xlink:href="#DejaVuSans-29"/>
    </g>
    <!-- lb max (x,y): (129.0,  18.0) -->
    <defs>
     <path d="M 9.421875 75.984375 
L 18.40625 75.984375 
L 18.40625 0 
L 9.421875 0 
z
" id="DejaVuSans-6c"/>
     <path d="M 10.984375 1.515625 
L 10.984375 10.5 
Q 14.703125 8.734375 18.5 7.8125 
Q 22.3125 6.890625 25.984375 6.890625 
Q 35.75 6.890625 40.890625 13.453125 
Q 46.046875 20.015625 46.78125 33.40625 
Q 43.953125 29.203125 39.59375 26.953125 
Q 35.25 24.703125 29.984375 24.703125 
Q 19.046875 24.703125 12.671875 31.3125 
Q 6.296875 37.9375 6.296875 49.421875 
Q 6.296875 60.640625 12.9375 67.421875 
Q 19.578125 74.21875 30.609375 74.21875 
Q 43.265625 74.21875 49.921875 64.515625 
Q 56.59375 54.828125 56.59375 36.375 
Q 56.59375 19.140625 48.40625 8.859375 
Q 40.234375 -1.421875 26.421875 -1.421875 
Q 22.703125 -1.421875 18.890625 -0.6875 
Q 15.09375 0.046875 10.984375 1.515625 
z
M 30.609375 32.421875 
Q 37.25 32.421875 41.125 36.953125 
Q 45.015625 41.5 45.015625 49.421875 
Q 45.015625 57.28125 41.125 61.84375 
Q 37.25 66.40625 30.609375 66.40625 
Q 23.96875 66.40625 20.09375 61.84375 
Q 16.21875 57.28125 16.21875 49.421875 
Q 16.21875 41.5 20.09375 36.953125 
Q 23.96875 32.421875 30.609375 32.421875 
z
" id="DejaVuSans-39"/>
    </defs>
    <g transform="translate(421.941625 279.471875)scale(0.1 -0.1)">
     <use xlink:href="#DejaVuSans-6c"/>
     <use x="27.783203" xlink:href="#DejaVuSans-62"/>
     <use x="91.259766" xlink:href="#DejaVuSans-20"/>
     <use x="123.046875" xlink:href="#DejaVuSans-6d"/>
     <use x="220.458984" xlink:href="#DejaVuSans-61"/>
     <use x="281.738281" xlink:href="#DejaVuSans-78"/>
     <use x="340.917969" xlink:href="#DejaVuSans-20"/>
     <use x="372.705078" xlink:href="#DejaVuSans-28"/>
     <use x="411.71875" xlink:href="#DejaVuSans-78"/>
     <use x="470.898438" xlink:href="#DejaVuSans-2c"/>
     <use x="502.685547" xlink:href="#DejaVuSans-79"/>
     <use x="561.865234" xlink:href="#DejaVuSans-29"/>
     <use x="600.878906" xlink:href="#DejaVuSans-3a"/>
     <use x="634.570312" xlink:href="#DejaVuSans-20"/>
     <use x="666.357422" xlink:href="#DejaVuSans-28"/>
     <use x="705.371094" xlink:href="#DejaVuSans-31"/>
     <use x="768.994141" xlink:href="#DejaVuSans-32"/>
     <use x="832.617188" xlink:href="#DejaVuSans-39"/>
     <use x="896.240234" xlink:href="#DejaVuSans-2e"/>
     <use x="928.027344" xlink:href="#DejaVuSans-30"/>
     <use x="991.650391" xlink:href="#DejaVuSans-2c"/>
     <use x="1023.4375" xlink:href="#DejaVuSans-20"/>
     <use x="1055.224609" xlink:href="#DejaVuSans-20"/>
     <use x="1087.011719" xlink:href="#DejaVuSans-31"/>
     <use x="1150.634766" xlink:href="#DejaVuSans-38"/>
     <use x="1214.257812" xlink:href="#DejaVuSans-2e"/>
     <use x="1246.044922" xlink:href="#DejaVuSans-30"/>
     <use x="1309.667969" xlink:href="#DejaVuSans-29"/>
    </g>
    <!-- nb max (x,y): (209.0,  22.0) -->
    <g transform="translate(421.941625 290.669687)scale(0.1 -0.1)">
     <use xlink:href="#DejaVuSans-6e"/>
     <use x="63.378906" xlink:href="#DejaVuSans-62"/>
     <use x="126.855469" xlink:href="#DejaVuSans-20"/>
     <use x="158.642578" xlink:href="#DejaVuSans-6d"/>
     <use x="256.054688" xlink:href="#DejaVuSans-61"/>
     <use x="317.333984" xlink:href="#DejaVuSans-78"/>
     <use x="376.513672" xlink:href="#DejaVuSans-20"/>
     <use x="408.300781" xlink:href="#DejaVuSans-28"/>
     <use x="447.314453" xlink:href="#DejaVuSans-78"/>
     <use x="506.494141" xlink:href="#DejaVuSans-2c"/>
     <use x="538.28125" xlink:href="#DejaVuSans-79"/>
     <use x="597.460938" xlink:href="#DejaVuSans-29"/>
     <use x="636.474609" xlink:href="#DejaVuSans-3a"/>
     <use x="670.166016" xlink:href="#DejaVuSans-20"/>
     <use x="701.953125" xlink:href="#DejaVuSans-28"/>
     <use x="740.966797" xlink:href="#DejaVuSans-32"/>
     <use x="804.589844" xlink:href="#DejaVuSans-30"/>
     <use x="868.212891" xlink:href="#DejaVuSans-39"/>
     <use x="931.835938" xlink:href="#DejaVuSans-2e"/>
     <use x="963.623047" xlink:href="#DejaVuSans-30"/>
     <use x="1027.246094" xlink:href="#DejaVuSans-2c"/>
     <use x="1059.033203" xlink:href="#DejaVuSans-20"/>
     <use x="1090.820312" xlink:href="#DejaVuSans-20"/>
     <use x="1122.607422" xlink:href="#DejaVuSans-32"/>
     <use x="1186.230469" xlink:href="#DejaVuSans-32"/>
     <use x="1249.853516" xlink:href="#DejaVuSans-2e"/>
     <use x="1281.640625" xlink:href="#DejaVuSans-30"/>
     <use x="1345.263672" xlink:href="#DejaVuSans-29"/>
    </g>
    <!-- Mean of discovered per time: 11.6 -->
    <defs>
     <path d="M 9.8125 72.90625 
L 24.515625 72.90625 
L 43.109375 23.296875 
L 61.8125 72.90625 
L 76.515625 72.90625 
L 76.515625 0 
L 66.890625 0 
L 66.890625 64.015625 
L 48.09375 14.015625 
L 38.1875 14.015625 
L 19.390625 64.015625 
L 19.390625 0 
L 9.8125 0 
z
" id="DejaVuSans-4d"/>
     <path d="M 48.78125 52.59375 
L 48.78125 44.1875 
Q 44.96875 46.296875 41.140625 47.34375 
Q 37.3125 48.390625 33.40625 48.390625 
Q 24.65625 48.390625 19.8125 42.84375 
Q 14.984375 37.3125 14.984375 27.296875 
Q 14.984375 17.28125 19.8125 11.734375 
Q 24.65625 6.203125 33.40625 6.203125 
Q 37.3125 6.203125 41.140625 7.25 
Q 44.96875 8.296875 48.78125 10.40625 
L 48.78125 2.09375 
Q 45.015625 0.34375 40.984375 -0.53125 
Q 36.96875 -1.421875 32.421875 -1.421875 
Q 20.0625 -1.421875 12.78125 6.34375 
Q 5.515625 14.109375 5.515625 27.296875 
Q 5.515625 40.671875 12.859375 48.328125 
Q 20.21875 56 33.015625 56 
Q 37.15625 56 41.109375 55.140625 
Q 45.0625 54.296875 48.78125 52.59375 
z
" id="DejaVuSans-63"/>
     <path d="M 2.984375 54.6875 
L 12.5 54.6875 
L 29.59375 8.796875 
L 46.6875 54.6875 
L 56.203125 54.6875 
L 35.6875 0 
L 23.484375 0 
z
" id="DejaVuSans-76"/>
     <path d="M 18.109375 8.203125 
L 18.109375 -20.796875 
L 9.078125 -20.796875 
L 9.078125 54.6875 
L 18.109375 54.6875 
L 18.109375 46.390625 
Q 20.953125 51.265625 25.265625 53.625 
Q 29.59375 56 35.59375 56 
Q 45.5625 56 51.78125 48.09375 
Q 58.015625 40.1875 58.015625 27.296875 
Q 58.015625 14.40625 51.78125 6.484375 
Q 45.5625 -1.421875 35.59375 -1.421875 
Q 29.59375 -1.421875 25.265625 0.953125 
Q 20.953125 3.328125 18.109375 8.203125 
z
M 48.6875 27.296875 
Q 48.6875 37.203125 44.609375 42.84375 
Q 40.53125 48.484375 33.40625 48.484375 
Q 26.265625 48.484375 22.1875 42.84375 
Q 18.109375 37.203125 18.109375 27.296875 
Q 18.109375 17.390625 22.1875 11.75 
Q 26.265625 6.109375 33.40625 6.109375 
Q 40.53125 6.109375 44.609375 11.75 
Q 48.6875 17.390625 48.6875 27.296875 
z
" id="DejaVuSans-70"/>
    </defs>
    <g transform="translate(421.941625 301.8675)scale(0.1 -0.1)">
     <use xlink:href="#DejaVuSans-4d"/>
     <use x="86.279297" xlink:href="#DejaVuSans-65"/>
     <use x="147.802734" xlink:href="#DejaVuSans-61"/>
     <use x="209.082031" xlink:href="#DejaVuSans-6e"/>
     <use x="272.460938" xlink:href="#DejaVuSans-20"/>
     <use x="304.248047" xlink:href="#DejaVuSans-6f"/>
     <use x="365.429688" xlink:href="#DejaVuSans-66"/>
     <use x="400.634766" xlink:href="#DejaVuSans-20"/>
     <use x="432.421875" xlink:href="#DejaVuSans-64"/>
     <use x="495.898438" xlink:href="#DejaVuSans-69"/>
     <use x="523.681641" xlink:href="#DejaVuSans-73"/>
     <use x="575.78125" xlink:href="#DejaVuSans-63"/>
     <use x="630.761719" xlink:href="#DejaVuSans-6f"/>
     <use x="691.943359" xlink:href="#DejaVuSans-76"/>
     <use x="751.123047" xlink:href="#DejaVuSans-65"/>
     <use x="812.646484" xlink:href="#DejaVuSans-72"/>
     <use x="853.728516" xlink:href="#DejaVuSans-65"/>
     <use x="915.251953" xlink:href="#DejaVuSans-64"/>
     <use x="978.728516" xlink:href="#DejaVuSans-20"/>
     <use x="1010.515625" xlink:href="#DejaVuSans-70"/>
     <use x="1073.992188" xlink:href="#DejaVuSans-65"/>
     <use x="1135.515625" xlink:href="#DejaVuSans-72"/>
     <use x="1176.628906" xlink:href="#DejaVuSans-20"/>
     <use x="1208.416016" xlink:href="#DejaVuSans-74"/>
     <use x="1247.625" xlink:href="#DejaVuSans-69"/>
     <use x="1275.408203" xlink:href="#DejaVuSans-6d"/>
     <use x="1372.820312" xlink:href="#DejaVuSans-65"/>
     <use x="1434.34375" xlink:href="#DejaVuSans-3a"/>
     <use x="1468.035156" xlink:href="#DejaVuSans-20"/>
     <use x="1499.822266" xlink:href="#DejaVuSans-31"/>
     <use x="1563.445312" xlink:href="#DejaVuSans-31"/>
     <use x="1627.068359" xlink:href="#DejaVuSans-2e"/>
     <use x="1658.855469" xlink:href="#DejaVuSans-36"/>
    </g>
   </g>
   <g id="text_19">
    <!-- Discovered nodes per time [avg] -->
    <defs>
     <path d="M 19.671875 64.796875 
L 19.671875 8.109375 
L 31.59375 8.109375 
Q 46.6875 8.109375 53.6875 14.9375 
Q 60.6875 21.78125 60.6875 36.53125 
Q 60.6875 51.171875 53.6875 57.984375 
Q 46.6875 64.796875 31.59375 64.796875 
z
M 9.8125 72.90625 
L 30.078125 72.90625 
Q 51.265625 72.90625 61.171875 64.09375 
Q 71.09375 55.28125 71.09375 36.53125 
Q 71.09375 17.671875 61.125 8.828125 
Q 51.171875 0 30.078125 0 
L 9.8125 0 
z
" id="DejaVuSans-44"/>
     <path d="M 8.59375 75.984375 
L 29.296875 75.984375 
L 29.296875 69 
L 17.578125 69 
L 17.578125 -6.203125 
L 29.296875 -6.203125 
L 29.296875 -13.1875 
L 8.59375 -13.1875 
z
" id="DejaVuSans-5b"/>
     <path d="M 45.40625 27.984375 
Q 45.40625 37.75 41.375 43.109375 
Q 37.359375 48.484375 30.078125 48.484375 
Q 22.859375 48.484375 18.828125 43.109375 
Q 14.796875 37.75 14.796875 27.984375 
Q 14.796875 18.265625 18.828125 12.890625 
Q 22.859375 7.515625 30.078125 7.515625 
Q 37.359375 7.515625 41.375 12.890625 
Q 45.40625 18.265625 45.40625 27.984375 
z
M 54.390625 6.78125 
Q 54.390625 -7.171875 48.1875 -13.984375 
Q 42 -20.796875 29.203125 -20.796875 
Q 24.46875 -20.796875 20.265625 -20.09375 
Q 16.0625 -19.390625 12.109375 -17.921875 
L 12.109375 -9.1875 
Q 16.0625 -11.328125 19.921875 -12.34375 
Q 23.78125 -13.375 27.78125 -13.375 
Q 36.625 -13.375 41.015625 -8.765625 
Q 45.40625 -4.15625 45.40625 5.171875 
L 45.40625 9.625 
Q 42.625 4.78125 38.28125 2.390625 
Q 33.9375 0 27.875 0 
Q 17.828125 0 11.671875 7.65625 
Q 5.515625 15.328125 5.515625 27.984375 
Q 5.515625 40.671875 11.671875 48.328125 
Q 17.828125 56 27.875 56 
Q 33.9375 56 38.28125 53.609375 
Q 42.625 51.21875 45.40625 46.390625 
L 45.40625 54.6875 
L 54.390625 54.6875 
z
" id="DejaVuSans-67"/>
     <path d="M 30.421875 75.984375 
L 30.421875 -13.1875 
L 9.71875 -13.1875 
L 9.71875 -6.203125 
L 21.390625 -6.203125 
L 21.390625 69 
L 9.71875 69 
L 9.71875 75.984375 
z
" id="DejaVuSans-5d"/>
    </defs>
    <g transform="translate(126.964375 16.318125)scale(0.12 -0.12)">
     <use xlink:href="#DejaVuSans-44"/>
     <use x="77.001953" xlink:href="#DejaVuSans-69"/>
     <use x="104.785156" xlink:href="#DejaVuSans-73"/>
     <use x="156.884766" xlink:href="#DejaVuSans-63"/>
     <use x="211.865234" xlink:href="#DejaVuSans-6f"/>
     <use x="273.046875" xlink:href="#DejaVuSans-76"/>
     <use x="332.226562" xlink:href="#DejaVuSans-65"/>
     <use x="393.75" xlink:href="#DejaVuSans-72"/>
     <use x="434.832031" xlink:href="#DejaVuSans-65"/>
     <use x="496.355469" xlink:href="#DejaVuSans-64"/>
     <use x="559.832031" xlink:href="#DejaVuSans-20"/>
     <use x="591.619141" xlink:href="#DejaVuSans-6e"/>
     <use x="654.998047" xlink:href="#DejaVuSans-6f"/>
     <use x="716.179688" xlink:href="#DejaVuSans-64"/>
     <use x="779.65625" xlink:href="#DejaVuSans-65"/>
     <use x="841.179688" xlink:href="#DejaVuSans-73"/>
     <use x="893.279297" xlink:href="#DejaVuSans-20"/>
     <use x="925.066406" xlink:href="#DejaVuSans-70"/>
     <use x="988.542969" xlink:href="#DejaVuSans-65"/>
     <use x="1050.066406" xlink:href="#DejaVuSans-72"/>
     <use x="1091.179688" xlink:href="#DejaVuSans-20"/>
     <use x="1122.966797" xlink:href="#DejaVuSans-74"/>
     <use x="1162.175781" xlink:href="#DejaVuSans-69"/>
     <use x="1189.958984" xlink:href="#DejaVuSans-6d"/>
     <use x="1287.371094" xlink:href="#DejaVuSans-65"/>
     <use x="1348.894531" xlink:href="#DejaVuSans-20"/>
     <use x="1380.681641" xlink:href="#DejaVuSans-5b"/>
     <use x="1419.695312" xlink:href="#DejaVuSans-61"/>
     <use x="1480.974609" xlink:href="#DejaVuSans-76"/>
     <use x="1540.154297" xlink:href="#DejaVuSans-67"/>
     <use x="1603.630859" xlink:href="#DejaVuSans-5d"/>
    </g>
    <!-- pso: 180115-190557 -->
    <defs>
     <path d="M 4.890625 31.390625 
L 31.203125 31.390625 
L 31.203125 23.390625 
L 4.890625 23.390625 
z
" id="DejaVuSans-2d"/>
    </defs>
    <g transform="translate(163.016875 29.7555)scale(0.12 -0.12)">
     <use xlink:href="#DejaVuSans-70"/>
     <use x="63.476562" xlink:href="#DejaVuSans-73"/>
     <use x="115.576172" xlink:href="#DejaVuSans-6f"/>
     <use x="176.757812" xlink:href="#DejaVuSans-3a"/>
     <use x="210.449219" xlink:href="#DejaVuSans-20"/>
     <use x="242.236328" xlink:href="#DejaVuSans-31"/>
     <use x="305.859375" xlink:href="#DejaVuSans-38"/>
     <use x="369.482422" xlink:href="#DejaVuSans-30"/>
     <use x="433.105469" xlink:href="#DejaVuSans-31"/>
     <use x="496.728516" xlink:href="#DejaVuSans-31"/>
     <use x="560.351562" xlink:href="#DejaVuSans-35"/>
     <use x="623.974609" xlink:href="#DejaVuSans-2d"/>
     <use x="660.058594" xlink:href="#DejaVuSans-31"/>
     <use x="723.681641" xlink:href="#DejaVuSans-39"/>
     <use x="787.304688" xlink:href="#DejaVuSans-30"/>
     <use x="850.927734" xlink:href="#DejaVuSans-35"/>
     <use x="914.550781" xlink:href="#DejaVuSans-35"/>
     <use x="978.173828" xlink:href="#DejaVuSans-37"/>
    </g>
   </g>
  </g>
 </g>
 <defs>
  <clipPath id="p9172714251">
   <rect height="266.112" width="357.12" x="46.965625" y="35.7555"/>
  </clipPath>
 </defs>
</svg>
