<?xml version="1.0" encoding="utf-8" standalone="no"?>
<!DOCTYPE svg PUBLIC "-//W3C//DTD SVG 1.1//EN"
  "http://www.w3.org/Graphics/SVG/1.1/DTD/svg11.dtd">
<!-- Created with matplotlib (http://matplotlib.org/) -->
<svg height="339pt" version="1.1" viewBox="0 0 573 339" width="573pt" xmlns="http://www.w3.org/2000/svg" xmlns:xlink="http://www.w3.org/1999/xlink">
 <defs>
  <style type="text/css">
*{stroke-linecap:butt;stroke-linejoin:round;}
  </style>
 </defs>
 <g id="figure_1">
  <g id="patch_1">
   <path d="M 0 339.42375 
L 573.686937 339.42375 
L 573.686937 0 
L 0 0 
z
" style="fill:#ffffff;"/>
  </g>
  <g id="axes_1">
   <g id="patch_2">
    <path d="M 46.965625 301.8675 
L 404.085625 301.8675 
L 404.085625 35.7555 
L 46.965625 35.7555 
z
" style="fill:#ffffff;"/>
   </g>
   <g id="PolyCollection_1">
    <defs>
     <path d="M 46.965625 -40.21737 
L 46.965625 -40.21737 
L 47.759225 -40.21737 
L 48.552825 -41.54793 
L 49.346425 -41.54793 
L 50.140025 -41.54793 
L 50.933625 -44.20905 
L 51.727225 -44.20905 
L 52.520825 -44.20905 
L 53.314425 -46.87017 
L 54.108025 -52.19241 
L 54.901625 -52.19241 
L 55.695225 -53.52297 
L 56.488825 -54.85353 
L 57.282425 -57.51465 
L 58.076025 -57.51465 
L 58.869625 -60.17577 
L 59.663225 -62.83689 
L 60.456825 -62.83689 
L 61.250425 -65.49801 
L 62.044025 -65.49801 
L 62.837625 -65.49801 
L 63.631225 -66.82857 
L 64.424825 -70.82025 
L 65.218425 -72.15081 
L 66.012025 -73.48137 
L 66.805625 -74.81193 
L 67.599225 -74.81193 
L 68.392825 -74.81193 
L 69.186425 -74.81193 
L 69.980025 -77.47305 
L 70.773625 -78.80361 
L 71.567225 -80.13417 
L 72.360825 -81.46473 
L 73.154425 -81.46473 
L 73.948025 -81.46473 
L 74.741625 -81.46473 
L 75.535225 -81.46473 
L 76.328825 -82.79529 
L 77.122425 -82.79529 
L 77.916025 -85.45641 
L 78.709625 -85.45641 
L 79.503225 -85.45641 
L 80.296825 -85.45641 
L 81.090425 -85.45641 
L 81.884025 -85.45641 
L 82.677625 -85.45641 
L 83.471225 -85.45641 
L 84.264825 -85.45641 
L 85.058425 -85.45641 
L 85.852025 -85.45641 
L 86.645625 -85.45641 
L 87.439225 -85.45641 
L 88.232825 -85.45641 
L 89.026425 -85.45641 
L 89.820025 -85.45641 
L 90.613625 -85.45641 
L 91.407225 -85.45641 
L 92.200825 -85.45641 
L 92.994425 -85.45641 
L 93.788025 -85.45641 
L 94.581625 -85.45641 
L 95.375225 -85.45641 
L 96.168825 -85.45641 
L 96.962425 -85.45641 
L 97.756025 -85.45641 
L 98.549625 -85.45641 
L 99.343225 -85.45641 
L 100.136825 -85.45641 
L 100.930425 -85.45641 
L 101.724025 -85.45641 
L 102.517625 -85.45641 
L 103.311225 -85.45641 
L 104.104825 -85.45641 
L 104.898425 -85.45641 
L 105.692025 -85.45641 
L 106.485625 -85.45641 
L 107.279225 -85.45641 
L 108.072825 -85.45641 
L 108.866425 -85.45641 
L 109.660025 -85.45641 
L 110.453625 -85.45641 
L 111.247225 -85.45641 
L 112.040825 -85.45641 
L 112.834425 -85.45641 
L 113.628025 -85.45641 
L 114.421625 -85.45641 
L 115.215225 -85.45641 
L 116.008825 -85.45641 
L 116.802425 -85.45641 
L 117.596025 -85.45641 
L 118.389625 -85.45641 
L 119.183225 -85.45641 
L 119.976825 -85.45641 
L 120.770425 -85.45641 
L 121.564025 -85.45641 
L 122.357625 -85.45641 
L 123.151225 -85.45641 
L 123.944825 -85.45641 
L 124.738425 -85.45641 
L 125.532025 -85.45641 
L 126.325625 -85.45641 
L 127.119225 -85.45641 
L 127.912825 -85.45641 
L 128.706425 -85.45641 
L 129.500025 -85.45641 
L 130.293625 -85.45641 
L 131.087225 -85.45641 
L 131.880825 -85.45641 
L 132.674425 -85.45641 
L 133.468025 -85.45641 
L 134.261625 -85.45641 
L 135.055225 -85.45641 
L 135.848825 -85.45641 
L 136.642425 -85.45641 
L 137.436025 -85.45641 
L 138.229625 -85.45641 
L 139.023225 -85.45641 
L 139.816825 -85.45641 
L 140.610425 -85.45641 
L 141.404025 -85.45641 
L 142.197625 -85.45641 
L 142.991225 -85.45641 
L 143.784825 -85.45641 
L 144.578425 -85.45641 
L 145.372025 -85.45641 
L 146.165625 -85.45641 
L 146.959225 -85.45641 
L 147.752825 -85.45641 
L 148.546425 -85.45641 
L 149.340025 -85.45641 
L 150.133625 -85.45641 
L 150.927225 -85.45641 
L 151.720825 -85.45641 
L 152.514425 -85.45641 
L 153.308025 -85.45641 
L 154.101625 -85.45641 
L 154.895225 -85.45641 
L 155.688825 -85.45641 
L 156.482425 -85.45641 
L 157.276025 -85.45641 
L 158.069625 -85.45641 
L 158.863225 -85.45641 
L 159.656825 -85.45641 
L 160.450425 -85.45641 
L 161.244025 -85.45641 
L 162.037625 -85.45641 
L 162.831225 -85.45641 
L 163.624825 -85.45641 
L 164.418425 -85.45641 
L 165.212025 -85.45641 
L 166.005625 -85.45641 
L 166.799225 -85.45641 
L 167.592825 -85.45641 
L 168.386425 -85.45641 
L 169.180025 -85.45641 
L 169.973625 -85.45641 
L 170.767225 -85.45641 
L 171.560825 -85.45641 
L 172.354425 -85.45641 
L 173.148025 -85.45641 
L 173.941625 -85.45641 
L 174.735225 -85.45641 
L 175.528825 -85.45641 
L 176.322425 -85.45641 
L 177.116025 -85.45641 
L 177.909625 -85.45641 
L 178.703225 -85.45641 
L 179.496825 -85.45641 
L 180.290425 -85.45641 
L 181.084025 -85.45641 
L 181.877625 -85.45641 
L 182.671225 -85.45641 
L 183.464825 -85.45641 
L 184.258425 -85.45641 
L 185.052025 -85.45641 
L 185.845625 -85.45641 
L 186.639225 -85.45641 
L 187.432825 -85.45641 
L 188.226425 -85.45641 
L 189.020025 -85.45641 
L 189.813625 -85.45641 
L 190.607225 -85.45641 
L 191.400825 -85.45641 
L 192.194425 -85.45641 
L 192.988025 -85.45641 
L 193.781625 -88.11753 
L 194.575225 -88.11753 
L 195.368825 -88.11753 
L 196.162425 -90.77865 
L 196.956025 -93.43977 
L 197.749625 -98.76201 
L 198.543225 -101.42313 
L 199.336825 -101.42313 
L 200.130425 -102.75369 
L 200.924025 -105.41481 
L 201.717625 -109.40649 
L 202.511225 -113.39817 
L 203.304825 -114.72873 
L 204.098425 -116.05929 
L 204.892025 -118.72041 
L 205.685625 -121.38153 
L 206.479225 -124.04265 
L 207.272825 -125.37321 
L 208.066425 -128.03433 
L 208.860025 -130.69545 
L 209.653625 -136.01769 
L 210.447225 -137.34825 
L 211.240825 -138.67881 
L 212.034425 -141.33993 
L 212.828025 -145.33161 
L 213.621625 -146.66217 
L 214.415225 -147.99273 
L 215.208825 -149.32329 
L 216.002425 -153.31497 
L 216.796025 -157.30665 
L 217.589625 -158.63721 
L 218.383225 -161.29833 
L 219.176825 -163.95945 
L 219.970425 -163.95945 
L 220.764025 -165.29001 
L 221.557625 -165.29001 
L 222.351225 -165.29001 
L 223.144825 -165.29001 
L 223.938425 -165.29001 
L 224.732025 -165.29001 
L 225.525625 -165.29001 
L 226.319225 -165.29001 
L 227.112825 -165.29001 
L 227.906425 -165.29001 
L 228.700025 -165.29001 
L 229.493625 -165.29001 
L 230.287225 -165.29001 
L 231.080825 -165.29001 
L 231.874425 -165.29001 
L 232.668025 -165.29001 
L 233.461625 -165.29001 
L 234.255225 -165.29001 
L 235.048825 -165.29001 
L 235.842425 -165.29001 
L 236.636025 -165.29001 
L 237.429625 -165.29001 
L 238.223225 -165.29001 
L 239.016825 -165.29001 
L 239.810425 -165.29001 
L 240.604025 -165.29001 
L 241.397625 -165.29001 
L 242.191225 -165.29001 
L 242.984825 -165.29001 
L 243.778425 -165.29001 
L 244.572025 -165.29001 
L 245.365625 -165.29001 
L 246.159225 -165.29001 
L 246.952825 -165.29001 
L 247.746425 -165.29001 
L 248.540025 -165.29001 
L 249.333625 -165.29001 
L 250.127225 -165.29001 
L 250.920825 -165.29001 
L 251.714425 -165.29001 
L 252.508025 -165.29001 
L 253.301625 -165.29001 
L 254.095225 -165.29001 
L 254.888825 -165.29001 
L 255.682425 -165.29001 
L 256.476025 -165.29001 
L 257.269625 -165.29001 
L 258.063225 -165.29001 
L 258.856825 -165.29001 
L 259.650425 -165.29001 
L 260.444025 -165.29001 
L 261.237625 -165.29001 
L 262.031225 -165.29001 
L 262.824825 -165.29001 
L 263.618425 -165.29001 
L 264.412025 -165.29001 
L 265.205625 -165.29001 
L 265.999225 -165.29001 
L 266.792825 -165.29001 
L 267.586425 -165.29001 
L 268.380025 -165.29001 
L 269.173625 -165.29001 
L 269.967225 -165.29001 
L 270.760825 -165.29001 
L 271.554425 -165.29001 
L 272.348025 -165.29001 
L 273.141625 -165.29001 
L 273.935225 -165.29001 
L 274.728825 -165.29001 
L 275.522425 -165.29001 
L 276.316025 -165.29001 
L 277.109625 -165.29001 
L 277.903225 -165.29001 
L 278.696825 -165.29001 
L 279.490425 -165.29001 
L 280.284025 -165.29001 
L 281.077625 -165.29001 
L 281.871225 -165.29001 
L 282.664825 -165.29001 
L 283.458425 -165.29001 
L 284.252025 -165.29001 
L 285.045625 -165.29001 
L 285.839225 -165.29001 
L 286.632825 -165.29001 
L 287.426425 -165.29001 
L 288.220025 -165.29001 
L 289.013625 -165.29001 
L 289.807225 -165.29001 
L 290.600825 -165.29001 
L 291.394425 -165.29001 
L 292.188025 -165.29001 
L 292.981625 -165.29001 
L 293.775225 -165.29001 
L 294.568825 -165.29001 
L 295.362425 -165.29001 
L 296.156025 -165.29001 
L 296.949625 -165.29001 
L 297.743225 -165.29001 
L 298.536825 -165.29001 
L 299.330425 -165.29001 
L 300.124025 -165.29001 
L 300.917625 -165.29001 
L 301.711225 -165.29001 
L 302.504825 -165.29001 
L 303.298425 -165.29001 
L 304.092025 -165.29001 
L 304.885625 -165.29001 
L 305.679225 -165.29001 
L 306.472825 -165.29001 
L 307.266425 -165.29001 
L 308.060025 -165.29001 
L 308.853625 -165.29001 
L 309.647225 -165.29001 
L 310.440825 -165.29001 
L 311.234425 -165.29001 
L 312.028025 -165.29001 
L 312.821625 -165.29001 
L 313.615225 -165.29001 
L 314.408825 -165.29001 
L 315.202425 -165.29001 
L 315.996025 -165.29001 
L 316.789625 -165.29001 
L 317.583225 -165.29001 
L 318.376825 -165.29001 
L 319.170425 -165.29001 
L 319.964025 -165.29001 
L 320.757625 -165.29001 
L 321.551225 -165.29001 
L 322.344825 -165.29001 
L 323.138425 -165.29001 
L 323.932025 -165.29001 
L 324.725625 -165.29001 
L 325.519225 -165.29001 
L 326.312825 -165.29001 
L 327.106425 -165.29001 
L 327.900025 -165.29001 
L 328.693625 -165.29001 
L 329.487225 -165.29001 
L 330.280825 -165.29001 
L 331.074425 -165.29001 
L 331.868025 -165.29001 
L 332.661625 -165.29001 
L 333.455225 -165.29001 
L 334.248825 -165.29001 
L 335.042425 -165.29001 
L 335.836025 -165.29001 
L 336.629625 -165.29001 
L 337.423225 -165.29001 
L 338.216825 -165.29001 
L 339.010425 -165.29001 
L 339.804025 -165.29001 
L 340.597625 -165.29001 
L 341.391225 -165.29001 
L 342.184825 -165.29001 
L 342.978425 -165.29001 
L 343.772025 -165.29001 
L 344.565625 -165.29001 
L 345.359225 -165.29001 
L 346.152825 -165.29001 
L 346.946425 -165.29001 
L 347.740025 -165.29001 
L 348.533625 -165.29001 
L 349.327225 -165.29001 
L 350.120825 -165.29001 
L 350.914425 -165.29001 
L 351.708025 -165.29001 
L 352.501625 -165.29001 
L 353.295225 -165.29001 
L 354.088825 -165.29001 
L 354.882425 -165.29001 
L 355.676025 -165.29001 
L 356.469625 -165.29001 
L 357.263225 -165.29001 
L 358.056825 -165.29001 
L 358.850425 -165.29001 
L 359.644025 -165.29001 
L 360.437625 -165.29001 
L 361.231225 -165.29001 
L 362.024825 -165.29001 
L 362.818425 -165.29001 
L 363.612025 -165.29001 
L 364.405625 -165.29001 
L 365.199225 -165.29001 
L 365.992825 -165.29001 
L 366.786425 -165.29001 
L 367.580025 -165.29001 
L 368.373625 -165.29001 
L 369.167225 -165.29001 
L 369.960825 -165.29001 
L 370.754425 -165.29001 
L 371.548025 -165.29001 
L 372.341625 -165.29001 
L 373.135225 -165.29001 
L 373.928825 -165.29001 
L 374.722425 -165.29001 
L 375.516025 -165.29001 
L 376.309625 -165.29001 
L 377.103225 -165.29001 
L 377.896825 -165.29001 
L 378.690425 -165.29001 
L 379.484025 -165.29001 
L 380.277625 -165.29001 
L 381.071225 -165.29001 
L 381.864825 -165.29001 
L 382.658425 -165.29001 
L 383.452025 -165.29001 
L 384.245625 -165.29001 
L 385.039225 -165.29001 
L 385.832825 -165.29001 
L 386.626425 -165.29001 
L 387.420025 -165.29001 
L 388.213625 -165.29001 
L 389.007225 -165.29001 
L 389.800825 -165.29001 
L 390.594425 -165.29001 
L 391.388025 -165.29001 
L 392.181625 -165.29001 
L 392.975225 -165.29001 
L 393.768825 -165.29001 
L 394.562425 -165.29001 
L 395.356025 -165.29001 
L 396.149625 -165.29001 
L 396.943225 -165.29001 
L 397.736825 -165.29001 
L 398.530425 -165.29001 
L 399.324025 -165.29001 
L 400.117625 -165.29001 
L 400.911225 -165.29001 
L 401.704825 -165.29001 
L 402.498425 -165.29001 
L 403.292025 -165.29001 
L 403.292025 -165.29001 
L 403.292025 -165.29001 
L 402.498425 -165.29001 
L 401.704825 -165.29001 
L 400.911225 -165.29001 
L 400.117625 -165.29001 
L 399.324025 -165.29001 
L 398.530425 -165.29001 
L 397.736825 -165.29001 
L 396.943225 -165.29001 
L 396.149625 -165.29001 
L 395.356025 -165.29001 
L 394.562425 -165.29001 
L 393.768825 -165.29001 
L 392.975225 -165.29001 
L 392.181625 -165.29001 
L 391.388025 -165.29001 
L 390.594425 -165.29001 
L 389.800825 -165.29001 
L 389.007225 -165.29001 
L 388.213625 -165.29001 
L 387.420025 -165.29001 
L 386.626425 -165.29001 
L 385.832825 -165.29001 
L 385.039225 -165.29001 
L 384.245625 -165.29001 
L 383.452025 -165.29001 
L 382.658425 -165.29001 
L 381.864825 -165.29001 
L 381.071225 -165.29001 
L 380.277625 -165.29001 
L 379.484025 -165.29001 
L 378.690425 -165.29001 
L 377.896825 -165.29001 
L 377.103225 -165.29001 
L 376.309625 -165.29001 
L 375.516025 -165.29001 
L 374.722425 -165.29001 
L 373.928825 -165.29001 
L 373.135225 -165.29001 
L 372.341625 -165.29001 
L 371.548025 -165.29001 
L 370.754425 -165.29001 
L 369.960825 -165.29001 
L 369.167225 -165.29001 
L 368.373625 -165.29001 
L 367.580025 -165.29001 
L 366.786425 -165.29001 
L 365.992825 -165.29001 
L 365.199225 -165.29001 
L 364.405625 -165.29001 
L 363.612025 -165.29001 
L 362.818425 -165.29001 
L 362.024825 -165.29001 
L 361.231225 -165.29001 
L 360.437625 -165.29001 
L 359.644025 -165.29001 
L 358.850425 -165.29001 
L 358.056825 -165.29001 
L 357.263225 -165.29001 
L 356.469625 -165.29001 
L 355.676025 -165.29001 
L 354.882425 -165.29001 
L 354.088825 -165.29001 
L 353.295225 -165.29001 
L 352.501625 -165.29001 
L 351.708025 -165.29001 
L 350.914425 -165.29001 
L 350.120825 -165.29001 
L 349.327225 -165.29001 
L 348.533625 -165.29001 
L 347.740025 -165.29001 
L 346.946425 -165.29001 
L 346.152825 -165.29001 
L 345.359225 -165.29001 
L 344.565625 -165.29001 
L 343.772025 -165.29001 
L 342.978425 -165.29001 
L 342.184825 -165.29001 
L 341.391225 -165.29001 
L 340.597625 -165.29001 
L 339.804025 -165.29001 
L 339.010425 -165.29001 
L 338.216825 -165.29001 
L 337.423225 -165.29001 
L 336.629625 -165.29001 
L 335.836025 -165.29001 
L 335.042425 -165.29001 
L 334.248825 -165.29001 
L 333.455225 -165.29001 
L 332.661625 -165.29001 
L 331.868025 -165.29001 
L 331.074425 -165.29001 
L 330.280825 -165.29001 
L 329.487225 -165.29001 
L 328.693625 -165.29001 
L 327.900025 -165.29001 
L 327.106425 -165.29001 
L 326.312825 -165.29001 
L 325.519225 -165.29001 
L 324.725625 -165.29001 
L 323.932025 -165.29001 
L 323.138425 -165.29001 
L 322.344825 -165.29001 
L 321.551225 -165.29001 
L 320.757625 -165.29001 
L 319.964025 -165.29001 
L 319.170425 -165.29001 
L 318.376825 -165.29001 
L 317.583225 -165.29001 
L 316.789625 -165.29001 
L 315.996025 -165.29001 
L 315.202425 -165.29001 
L 314.408825 -165.29001 
L 313.615225 -165.29001 
L 312.821625 -165.29001 
L 312.028025 -165.29001 
L 311.234425 -165.29001 
L 310.440825 -165.29001 
L 309.647225 -165.29001 
L 308.853625 -165.29001 
L 308.060025 -165.29001 
L 307.266425 -165.29001 
L 306.472825 -165.29001 
L 305.679225 -165.29001 
L 304.885625 -165.29001 
L 304.092025 -165.29001 
L 303.298425 -165.29001 
L 302.504825 -165.29001 
L 301.711225 -165.29001 
L 300.917625 -165.29001 
L 300.124025 -165.29001 
L 299.330425 -165.29001 
L 298.536825 -165.29001 
L 297.743225 -165.29001 
L 296.949625 -165.29001 
L 296.156025 -165.29001 
L 295.362425 -165.29001 
L 294.568825 -165.29001 
L 293.775225 -165.29001 
L 292.981625 -165.29001 
L 292.188025 -165.29001 
L 291.394425 -165.29001 
L 290.600825 -165.29001 
L 289.807225 -165.29001 
L 289.013625 -165.29001 
L 288.220025 -165.29001 
L 287.426425 -165.29001 
L 286.632825 -165.29001 
L 285.839225 -165.29001 
L 285.045625 -165.29001 
L 284.252025 -165.29001 
L 283.458425 -165.29001 
L 282.664825 -165.29001 
L 281.871225 -165.29001 
L 281.077625 -165.29001 
L 280.284025 -165.29001 
L 279.490425 -165.29001 
L 278.696825 -165.29001 
L 277.903225 -165.29001 
L 277.109625 -165.29001 
L 276.316025 -165.29001 
L 275.522425 -165.29001 
L 274.728825 -165.29001 
L 273.935225 -165.29001 
L 273.141625 -165.29001 
L 272.348025 -165.29001 
L 271.554425 -165.29001 
L 270.760825 -165.29001 
L 269.967225 -165.29001 
L 269.173625 -165.29001 
L 268.380025 -165.29001 
L 267.586425 -165.29001 
L 266.792825 -165.29001 
L 265.999225 -165.29001 
L 265.205625 -165.29001 
L 264.412025 -165.29001 
L 263.618425 -165.29001 
L 262.824825 -165.29001 
L 262.031225 -165.29001 
L 261.237625 -165.29001 
L 260.444025 -165.29001 
L 259.650425 -165.29001 
L 258.856825 -165.29001 
L 258.063225 -165.29001 
L 257.269625 -165.29001 
L 256.476025 -165.29001 
L 255.682425 -165.29001 
L 254.888825 -165.29001 
L 254.095225 -165.29001 
L 253.301625 -165.29001 
L 252.508025 -165.29001 
L 251.714425 -165.29001 
L 250.920825 -165.29001 
L 250.127225 -165.29001 
L 249.333625 -165.29001 
L 248.540025 -165.29001 
L 247.746425 -165.29001 
L 246.952825 -165.29001 
L 246.159225 -165.29001 
L 245.365625 -165.29001 
L 244.572025 -165.29001 
L 243.778425 -165.29001 
L 242.984825 -165.29001 
L 242.191225 -165.29001 
L 241.397625 -165.29001 
L 240.604025 -165.29001 
L 239.810425 -165.29001 
L 239.016825 -165.29001 
L 238.223225 -165.29001 
L 237.429625 -165.29001 
L 236.636025 -165.29001 
L 235.842425 -165.29001 
L 235.048825 -165.29001 
L 234.255225 -165.29001 
L 233.461625 -165.29001 
L 232.668025 -165.29001 
L 231.874425 -165.29001 
L 231.080825 -165.29001 
L 230.287225 -165.29001 
L 229.493625 -165.29001 
L 228.700025 -165.29001 
L 227.906425 -165.29001 
L 227.112825 -165.29001 
L 226.319225 -165.29001 
L 225.525625 -165.29001 
L 224.732025 -165.29001 
L 223.938425 -165.29001 
L 223.144825 -165.29001 
L 222.351225 -165.29001 
L 221.557625 -165.29001 
L 220.764025 -165.29001 
L 219.970425 -163.95945 
L 219.176825 -163.95945 
L 218.383225 -161.29833 
L 217.589625 -158.63721 
L 216.796025 -157.30665 
L 216.002425 -153.31497 
L 215.208825 -149.32329 
L 214.415225 -147.99273 
L 213.621625 -146.66217 
L 212.828025 -145.33161 
L 212.034425 -141.33993 
L 211.240825 -138.67881 
L 210.447225 -137.34825 
L 209.653625 -136.01769 
L 208.860025 -130.69545 
L 208.066425 -128.03433 
L 207.272825 -125.37321 
L 206.479225 -124.04265 
L 205.685625 -121.38153 
L 204.892025 -118.72041 
L 204.098425 -116.05929 
L 203.304825 -114.72873 
L 202.511225 -113.39817 
L 201.717625 -109.40649 
L 200.924025 -105.41481 
L 200.130425 -102.75369 
L 199.336825 -101.42313 
L 198.543225 -101.42313 
L 197.749625 -98.76201 
L 196.956025 -93.43977 
L 196.162425 -90.77865 
L 195.368825 -88.11753 
L 194.575225 -88.11753 
L 193.781625 -88.11753 
L 192.988025 -85.45641 
L 192.194425 -85.45641 
L 191.400825 -85.45641 
L 190.607225 -85.45641 
L 189.813625 -85.45641 
L 189.020025 -85.45641 
L 188.226425 -85.45641 
L 187.432825 -85.45641 
L 186.639225 -85.45641 
L 185.845625 -85.45641 
L 185.052025 -85.45641 
L 184.258425 -85.45641 
L 183.464825 -85.45641 
L 182.671225 -85.45641 
L 181.877625 -85.45641 
L 181.084025 -85.45641 
L 180.290425 -85.45641 
L 179.496825 -85.45641 
L 178.703225 -85.45641 
L 177.909625 -85.45641 
L 177.116025 -85.45641 
L 176.322425 -85.45641 
L 175.528825 -85.45641 
L 174.735225 -85.45641 
L 173.941625 -85.45641 
L 173.148025 -85.45641 
L 172.354425 -85.45641 
L 171.560825 -85.45641 
L 170.767225 -85.45641 
L 169.973625 -85.45641 
L 169.180025 -85.45641 
L 168.386425 -85.45641 
L 167.592825 -85.45641 
L 166.799225 -85.45641 
L 166.005625 -85.45641 
L 165.212025 -85.45641 
L 164.418425 -85.45641 
L 163.624825 -85.45641 
L 162.831225 -85.45641 
L 162.037625 -85.45641 
L 161.244025 -85.45641 
L 160.450425 -85.45641 
L 159.656825 -85.45641 
L 158.863225 -85.45641 
L 158.069625 -85.45641 
L 157.276025 -85.45641 
L 156.482425 -85.45641 
L 155.688825 -85.45641 
L 154.895225 -85.45641 
L 154.101625 -85.45641 
L 153.308025 -85.45641 
L 152.514425 -85.45641 
L 151.720825 -85.45641 
L 150.927225 -85.45641 
L 150.133625 -85.45641 
L 149.340025 -85.45641 
L 148.546425 -85.45641 
L 147.752825 -85.45641 
L 146.959225 -85.45641 
L 146.165625 -85.45641 
L 145.372025 -85.45641 
L 144.578425 -85.45641 
L 143.784825 -85.45641 
L 142.991225 -85.45641 
L 142.197625 -85.45641 
L 141.404025 -85.45641 
L 140.610425 -85.45641 
L 139.816825 -85.45641 
L 139.023225 -85.45641 
L 138.229625 -85.45641 
L 137.436025 -85.45641 
L 136.642425 -85.45641 
L 135.848825 -85.45641 
L 135.055225 -85.45641 
L 134.261625 -85.45641 
L 133.468025 -85.45641 
L 132.674425 -85.45641 
L 131.880825 -85.45641 
L 131.087225 -85.45641 
L 130.293625 -85.45641 
L 129.500025 -85.45641 
L 128.706425 -85.45641 
L 127.912825 -85.45641 
L 127.119225 -85.45641 
L 126.325625 -85.45641 
L 125.532025 -85.45641 
L 124.738425 -85.45641 
L 123.944825 -85.45641 
L 123.151225 -85.45641 
L 122.357625 -85.45641 
L 121.564025 -85.45641 
L 120.770425 -85.45641 
L 119.976825 -85.45641 
L 119.183225 -85.45641 
L 118.389625 -85.45641 
L 117.596025 -85.45641 
L 116.802425 -85.45641 
L 116.008825 -85.45641 
L 115.215225 -85.45641 
L 114.421625 -85.45641 
L 113.628025 -85.45641 
L 112.834425 -85.45641 
L 112.040825 -85.45641 
L 111.247225 -85.45641 
L 110.453625 -85.45641 
L 109.660025 -85.45641 
L 108.866425 -85.45641 
L 108.072825 -85.45641 
L 107.279225 -85.45641 
L 106.485625 -85.45641 
L 105.692025 -85.45641 
L 104.898425 -85.45641 
L 104.104825 -85.45641 
L 103.311225 -85.45641 
L 102.517625 -85.45641 
L 101.724025 -85.45641 
L 100.930425 -85.45641 
L 100.136825 -85.45641 
L 99.343225 -85.45641 
L 98.549625 -85.45641 
L 97.756025 -85.45641 
L 96.962425 -85.45641 
L 96.168825 -85.45641 
L 95.375225 -85.45641 
L 94.581625 -85.45641 
L 93.788025 -85.45641 
L 92.994425 -85.45641 
L 92.200825 -85.45641 
L 91.407225 -85.45641 
L 90.613625 -85.45641 
L 89.820025 -85.45641 
L 89.026425 -85.45641 
L 88.232825 -85.45641 
L 87.439225 -85.45641 
L 86.645625 -85.45641 
L 85.852025 -85.45641 
L 85.058425 -85.45641 
L 84.264825 -85.45641 
L 83.471225 -85.45641 
L 82.677625 -85.45641 
L 81.884025 -85.45641 
L 81.090425 -85.45641 
L 80.296825 -85.45641 
L 79.503225 -85.45641 
L 78.709625 -85.45641 
L 77.916025 -85.45641 
L 77.122425 -82.79529 
L 76.328825 -82.79529 
L 75.535225 -81.46473 
L 74.741625 -81.46473 
L 73.948025 -81.46473 
L 73.154425 -81.46473 
L 72.360825 -81.46473 
L 71.567225 -80.13417 
L 70.773625 -78.80361 
L 69.980025 -77.47305 
L 69.186425 -74.81193 
L 68.392825 -74.81193 
L 67.599225 -74.81193 
L 66.805625 -74.81193 
L 66.012025 -73.48137 
L 65.218425 -72.15081 
L 64.424825 -70.82025 
L 63.631225 -66.82857 
L 62.837625 -65.49801 
L 62.044025 -65.49801 
L 61.250425 -65.49801 
L 60.456825 -62.83689 
L 59.663225 -62.83689 
L 58.869625 -60.17577 
L 58.076025 -57.51465 
L 57.282425 -57.51465 
L 56.488825 -54.85353 
L 55.695225 -53.52297 
L 54.901625 -52.19241 
L 54.108025 -52.19241 
L 53.314425 -46.87017 
L 52.520825 -44.20905 
L 51.727225 -44.20905 
L 50.933625 -44.20905 
L 50.140025 -41.54793 
L 49.346425 -41.54793 
L 48.552825 -41.54793 
L 47.759225 -40.21737 
L 46.965625 -40.21737 
z
" id="mfc8aa58e4d" style="stroke:#adff2f;"/>
    </defs>
    <g clip-path="url(#p711991d9a2)">
     <use style="fill:#adff2f;stroke:#adff2f;" x="0" xlink:href="#mfc8aa58e4d" y="339.42375"/>
    </g>
   </g>
   <g id="matplotlib.axis_1">
    <g id="xtick_1">
     <g id="line2d_1">
      <path clip-path="url(#p711991d9a2)" d="M 46.965625 301.8675 
L 46.965625 35.7555 
" style="fill:none;stroke:#b0b0b0;stroke-linecap:square;stroke-width:0.8;"/>
     </g>
     <g id="line2d_2">
      <defs>
       <path d="M 0 0 
L 0 3.5 
" id="m8341caa8e2" style="stroke:#000000;stroke-width:0.8;"/>
      </defs>
      <g>
       <use style="stroke:#000000;stroke-width:0.8;" x="46.965625" xlink:href="#m8341caa8e2" y="301.8675"/>
      </g>
     </g>
     <g id="text_1">
      <!-- 0 -->
      <defs>
       <path d="M 31.78125 66.40625 
Q 24.171875 66.40625 20.328125 58.90625 
Q 16.5 51.421875 16.5 36.375 
Q 16.5 21.390625 20.328125 13.890625 
Q 24.171875 6.390625 31.78125 6.390625 
Q 39.453125 6.390625 43.28125 13.890625 
Q 47.125 21.390625 47.125 36.375 
Q 47.125 51.421875 43.28125 58.90625 
Q 39.453125 66.40625 31.78125 66.40625 
z
M 31.78125 74.21875 
Q 44.046875 74.21875 50.515625 64.515625 
Q 56.984375 54.828125 56.984375 36.375 
Q 56.984375 17.96875 50.515625 8.265625 
Q 44.046875 -1.421875 31.78125 -1.421875 
Q 19.53125 -1.421875 13.0625 8.265625 
Q 6.59375 17.96875 6.59375 36.375 
Q 6.59375 54.828125 13.0625 64.515625 
Q 19.53125 74.21875 31.78125 74.21875 
z
" id="DejaVuSans-30"/>
      </defs>
      <g transform="translate(43.784375 316.465937)scale(0.1 -0.1)">
       <use xlink:href="#DejaVuSans-30"/>
      </g>
     </g>
    </g>
    <g id="xtick_2">
     <g id="line2d_3">
      <path clip-path="url(#p711991d9a2)" d="M 86.645625 301.8675 
L 86.645625 35.7555 
" style="fill:none;stroke:#b0b0b0;stroke-linecap:square;stroke-width:0.8;"/>
     </g>
     <g id="line2d_4">
      <g>
       <use style="stroke:#000000;stroke-width:0.8;" x="86.645625" xlink:href="#m8341caa8e2" y="301.8675"/>
      </g>
     </g>
     <g id="text_2">
      <!-- 50 -->
      <defs>
       <path d="M 10.796875 72.90625 
L 49.515625 72.90625 
L 49.515625 64.59375 
L 19.828125 64.59375 
L 19.828125 46.734375 
Q 21.96875 47.46875 24.109375 47.828125 
Q 26.265625 48.1875 28.421875 48.1875 
Q 40.625 48.1875 47.75 41.5 
Q 54.890625 34.8125 54.890625 23.390625 
Q 54.890625 11.625 47.5625 5.09375 
Q 40.234375 -1.421875 26.90625 -1.421875 
Q 22.3125 -1.421875 17.546875 -0.640625 
Q 12.796875 0.140625 7.71875 1.703125 
L 7.71875 11.625 
Q 12.109375 9.234375 16.796875 8.0625 
Q 21.484375 6.890625 26.703125 6.890625 
Q 35.15625 6.890625 40.078125 11.328125 
Q 45.015625 15.765625 45.015625 23.390625 
Q 45.015625 31 40.078125 35.4375 
Q 35.15625 39.890625 26.703125 39.890625 
Q 22.75 39.890625 18.8125 39.015625 
Q 14.890625 38.140625 10.796875 36.28125 
z
" id="DejaVuSans-35"/>
      </defs>
      <g transform="translate(80.283125 316.465937)scale(0.1 -0.1)">
       <use xlink:href="#DejaVuSans-35"/>
       <use x="63.623047" xlink:href="#DejaVuSans-30"/>
      </g>
     </g>
    </g>
    <g id="xtick_3">
     <g id="line2d_5">
      <path clip-path="url(#p711991d9a2)" d="M 126.325625 301.8675 
L 126.325625 35.7555 
" style="fill:none;stroke:#b0b0b0;stroke-linecap:square;stroke-width:0.8;"/>
     </g>
     <g id="line2d_6">
      <g>
       <use style="stroke:#000000;stroke-width:0.8;" x="126.325625" xlink:href="#m8341caa8e2" y="301.8675"/>
      </g>
     </g>
     <g id="text_3">
      <!-- 100 -->
      <defs>
       <path d="M 12.40625 8.296875 
L 28.515625 8.296875 
L 28.515625 63.921875 
L 10.984375 60.40625 
L 10.984375 69.390625 
L 28.421875 72.90625 
L 38.28125 72.90625 
L 38.28125 8.296875 
L 54.390625 8.296875 
L 54.390625 0 
L 12.40625 0 
z
" id="DejaVuSans-31"/>
      </defs>
      <g transform="translate(116.781875 316.465937)scale(0.1 -0.1)">
       <use xlink:href="#DejaVuSans-31"/>
       <use x="63.623047" xlink:href="#DejaVuSans-30"/>
       <use x="127.246094" xlink:href="#DejaVuSans-30"/>
      </g>
     </g>
    </g>
    <g id="xtick_4">
     <g id="line2d_7">
      <path clip-path="url(#p711991d9a2)" d="M 166.005625 301.8675 
L 166.005625 35.7555 
" style="fill:none;stroke:#b0b0b0;stroke-linecap:square;stroke-width:0.8;"/>
     </g>
     <g id="line2d_8">
      <g>
       <use style="stroke:#000000;stroke-width:0.8;" x="166.005625" xlink:href="#m8341caa8e2" y="301.8675"/>
      </g>
     </g>
     <g id="text_4">
      <!-- 150 -->
      <g transform="translate(156.461875 316.465937)scale(0.1 -0.1)">
       <use xlink:href="#DejaVuSans-31"/>
       <use x="63.623047" xlink:href="#DejaVuSans-35"/>
       <use x="127.246094" xlink:href="#DejaVuSans-30"/>
      </g>
     </g>
    </g>
    <g id="xtick_5">
     <g id="line2d_9">
      <path clip-path="url(#p711991d9a2)" d="M 205.685625 301.8675 
L 205.685625 35.7555 
" style="fill:none;stroke:#b0b0b0;stroke-linecap:square;stroke-width:0.8;"/>
     </g>
     <g id="line2d_10">
      <g>
       <use style="stroke:#000000;stroke-width:0.8;" x="205.685625" xlink:href="#m8341caa8e2" y="301.8675"/>
      </g>
     </g>
     <g id="text_5">
      <!-- 200 -->
      <defs>
       <path d="M 19.1875 8.296875 
L 53.609375 8.296875 
L 53.609375 0 
L 7.328125 0 
L 7.328125 8.296875 
Q 12.9375 14.109375 22.625 23.890625 
Q 32.328125 33.6875 34.8125 36.53125 
Q 39.546875 41.84375 41.421875 45.53125 
Q 43.3125 49.21875 43.3125 52.78125 
Q 43.3125 58.59375 39.234375 62.25 
Q 35.15625 65.921875 28.609375 65.921875 
Q 23.96875 65.921875 18.8125 64.3125 
Q 13.671875 62.703125 7.8125 59.421875 
L 7.8125 69.390625 
Q 13.765625 71.78125 18.9375 73 
Q 24.125 74.21875 28.421875 74.21875 
Q 39.75 74.21875 46.484375 68.546875 
Q 53.21875 62.890625 53.21875 53.421875 
Q 53.21875 48.921875 51.53125 44.890625 
Q 49.859375 40.875 45.40625 35.40625 
Q 44.1875 33.984375 37.640625 27.21875 
Q 31.109375 20.453125 19.1875 8.296875 
z
" id="DejaVuSans-32"/>
      </defs>
      <g transform="translate(196.141875 316.465937)scale(0.1 -0.1)">
       <use xlink:href="#DejaVuSans-32"/>
       <use x="63.623047" xlink:href="#DejaVuSans-30"/>
       <use x="127.246094" xlink:href="#DejaVuSans-30"/>
      </g>
     </g>
    </g>
    <g id="xtick_6">
     <g id="line2d_11">
      <path clip-path="url(#p711991d9a2)" d="M 245.365625 301.8675 
L 245.365625 35.7555 
" style="fill:none;stroke:#b0b0b0;stroke-linecap:square;stroke-width:0.8;"/>
     </g>
     <g id="line2d_12">
      <g>
       <use style="stroke:#000000;stroke-width:0.8;" x="245.365625" xlink:href="#m8341caa8e2" y="301.8675"/>
      </g>
     </g>
     <g id="text_6">
      <!-- 250 -->
      <g transform="translate(235.821875 316.465937)scale(0.1 -0.1)">
       <use xlink:href="#DejaVuSans-32"/>
       <use x="63.623047" xlink:href="#DejaVuSans-35"/>
       <use x="127.246094" xlink:href="#DejaVuSans-30"/>
      </g>
     </g>
    </g>
    <g id="xtick_7">
     <g id="line2d_13">
      <path clip-path="url(#p711991d9a2)" d="M 285.045625 301.8675 
L 285.045625 35.7555 
" style="fill:none;stroke:#b0b0b0;stroke-linecap:square;stroke-width:0.8;"/>
     </g>
     <g id="line2d_14">
      <g>
       <use style="stroke:#000000;stroke-width:0.8;" x="285.045625" xlink:href="#m8341caa8e2" y="301.8675"/>
      </g>
     </g>
     <g id="text_7">
      <!-- 300 -->
      <defs>
       <path d="M 40.578125 39.3125 
Q 47.65625 37.796875 51.625 33 
Q 55.609375 28.21875 55.609375 21.1875 
Q 55.609375 10.40625 48.1875 4.484375 
Q 40.765625 -1.421875 27.09375 -1.421875 
Q 22.515625 -1.421875 17.65625 -0.515625 
Q 12.796875 0.390625 7.625 2.203125 
L 7.625 11.71875 
Q 11.71875 9.328125 16.59375 8.109375 
Q 21.484375 6.890625 26.8125 6.890625 
Q 36.078125 6.890625 40.9375 10.546875 
Q 45.796875 14.203125 45.796875 21.1875 
Q 45.796875 27.640625 41.28125 31.265625 
Q 36.765625 34.90625 28.71875 34.90625 
L 20.21875 34.90625 
L 20.21875 43.015625 
L 29.109375 43.015625 
Q 36.375 43.015625 40.234375 45.921875 
Q 44.09375 48.828125 44.09375 54.296875 
Q 44.09375 59.90625 40.109375 62.90625 
Q 36.140625 65.921875 28.71875 65.921875 
Q 24.65625 65.921875 20.015625 65.03125 
Q 15.375 64.15625 9.8125 62.3125 
L 9.8125 71.09375 
Q 15.4375 72.65625 20.34375 73.4375 
Q 25.25 74.21875 29.59375 74.21875 
Q 40.828125 74.21875 47.359375 69.109375 
Q 53.90625 64.015625 53.90625 55.328125 
Q 53.90625 49.265625 50.4375 45.09375 
Q 46.96875 40.921875 40.578125 39.3125 
z
" id="DejaVuSans-33"/>
      </defs>
      <g transform="translate(275.501875 316.465937)scale(0.1 -0.1)">
       <use xlink:href="#DejaVuSans-33"/>
       <use x="63.623047" xlink:href="#DejaVuSans-30"/>
       <use x="127.246094" xlink:href="#DejaVuSans-30"/>
      </g>
     </g>
    </g>
    <g id="xtick_8">
     <g id="line2d_15">
      <path clip-path="url(#p711991d9a2)" d="M 324.725625 301.8675 
L 324.725625 35.7555 
" style="fill:none;stroke:#b0b0b0;stroke-linecap:square;stroke-width:0.8;"/>
     </g>
     <g id="line2d_16">
      <g>
       <use style="stroke:#000000;stroke-width:0.8;" x="324.725625" xlink:href="#m8341caa8e2" y="301.8675"/>
      </g>
     </g>
     <g id="text_8">
      <!-- 350 -->
      <g transform="translate(315.181875 316.465937)scale(0.1 -0.1)">
       <use xlink:href="#DejaVuSans-33"/>
       <use x="63.623047" xlink:href="#DejaVuSans-35"/>
       <use x="127.246094" xlink:href="#DejaVuSans-30"/>
      </g>
     </g>
    </g>
    <g id="xtick_9">
     <g id="line2d_17">
      <path clip-path="url(#p711991d9a2)" d="M 364.405625 301.8675 
L 364.405625 35.7555 
" style="fill:none;stroke:#b0b0b0;stroke-linecap:square;stroke-width:0.8;"/>
     </g>
     <g id="line2d_18">
      <g>
       <use style="stroke:#000000;stroke-width:0.8;" x="364.405625" xlink:href="#m8341caa8e2" y="301.8675"/>
      </g>
     </g>
     <g id="text_9">
      <!-- 400 -->
      <defs>
       <path d="M 37.796875 64.3125 
L 12.890625 25.390625 
L 37.796875 25.390625 
z
M 35.203125 72.90625 
L 47.609375 72.90625 
L 47.609375 25.390625 
L 58.015625 25.390625 
L 58.015625 17.1875 
L 47.609375 17.1875 
L 47.609375 0 
L 37.796875 0 
L 37.796875 17.1875 
L 4.890625 17.1875 
L 4.890625 26.703125 
z
" id="DejaVuSans-34"/>
      </defs>
      <g transform="translate(354.861875 316.465937)scale(0.1 -0.1)">
       <use xlink:href="#DejaVuSans-34"/>
       <use x="63.623047" xlink:href="#DejaVuSans-30"/>
       <use x="127.246094" xlink:href="#DejaVuSans-30"/>
      </g>
     </g>
    </g>
    <g id="xtick_10">
     <g id="line2d_19">
      <path clip-path="url(#p711991d9a2)" d="M 404.085625 301.8675 
L 404.085625 35.7555 
" style="fill:none;stroke:#b0b0b0;stroke-linecap:square;stroke-width:0.8;"/>
     </g>
     <g id="line2d_20">
      <g>
       <use style="stroke:#000000;stroke-width:0.8;" x="404.085625" xlink:href="#m8341caa8e2" y="301.8675"/>
      </g>
     </g>
     <g id="text_10">
      <!-- 450 -->
      <g transform="translate(394.541875 316.465937)scale(0.1 -0.1)">
       <use xlink:href="#DejaVuSans-34"/>
       <use x="63.623047" xlink:href="#DejaVuSans-35"/>
       <use x="127.246094" xlink:href="#DejaVuSans-30"/>
      </g>
     </g>
    </g>
    <g id="text_11">
     <!-- Time (s) -->
     <defs>
      <path d="M -0.296875 72.90625 
L 61.375 72.90625 
L 61.375 64.59375 
L 35.5 64.59375 
L 35.5 0 
L 25.59375 0 
L 25.59375 64.59375 
L -0.296875 64.59375 
z
" id="DejaVuSans-54"/>
      <path d="M 9.421875 54.6875 
L 18.40625 54.6875 
L 18.40625 0 
L 9.421875 0 
z
M 9.421875 75.984375 
L 18.40625 75.984375 
L 18.40625 64.59375 
L 9.421875 64.59375 
z
" id="DejaVuSans-69"/>
      <path d="M 52 44.1875 
Q 55.375 50.25 60.0625 53.125 
Q 64.75 56 71.09375 56 
Q 79.640625 56 84.28125 50.015625 
Q 88.921875 44.046875 88.921875 33.015625 
L 88.921875 0 
L 79.890625 0 
L 79.890625 32.71875 
Q 79.890625 40.578125 77.09375 44.375 
Q 74.3125 48.1875 68.609375 48.1875 
Q 61.625 48.1875 57.5625 43.546875 
Q 53.515625 38.921875 53.515625 30.90625 
L 53.515625 0 
L 44.484375 0 
L 44.484375 32.71875 
Q 44.484375 40.625 41.703125 44.40625 
Q 38.921875 48.1875 33.109375 48.1875 
Q 26.21875 48.1875 22.15625 43.53125 
Q 18.109375 38.875 18.109375 30.90625 
L 18.109375 0 
L 9.078125 0 
L 9.078125 54.6875 
L 18.109375 54.6875 
L 18.109375 46.1875 
Q 21.1875 51.21875 25.484375 53.609375 
Q 29.78125 56 35.6875 56 
Q 41.65625 56 45.828125 52.96875 
Q 50 49.953125 52 44.1875 
z
" id="DejaVuSans-6d"/>
      <path d="M 56.203125 29.59375 
L 56.203125 25.203125 
L 14.890625 25.203125 
Q 15.484375 15.921875 20.484375 11.0625 
Q 25.484375 6.203125 34.421875 6.203125 
Q 39.59375 6.203125 44.453125 7.46875 
Q 49.3125 8.734375 54.109375 11.28125 
L 54.109375 2.78125 
Q 49.265625 0.734375 44.1875 -0.34375 
Q 39.109375 -1.421875 33.890625 -1.421875 
Q 20.796875 -1.421875 13.15625 6.1875 
Q 5.515625 13.8125 5.515625 26.8125 
Q 5.515625 40.234375 12.765625 48.109375 
Q 20.015625 56 32.328125 56 
Q 43.359375 56 49.78125 48.890625 
Q 56.203125 41.796875 56.203125 29.59375 
z
M 47.21875 32.234375 
Q 47.125 39.59375 43.09375 43.984375 
Q 39.0625 48.390625 32.421875 48.390625 
Q 24.90625 48.390625 20.390625 44.140625 
Q 15.875 39.890625 15.1875 32.171875 
z
" id="DejaVuSans-65"/>
      <path id="DejaVuSans-20"/>
      <path d="M 31 75.875 
Q 24.46875 64.65625 21.28125 53.65625 
Q 18.109375 42.671875 18.109375 31.390625 
Q 18.109375 20.125 21.3125 9.0625 
Q 24.515625 -2 31 -13.1875 
L 23.1875 -13.1875 
Q 15.875 -1.703125 12.234375 9.375 
Q 8.59375 20.453125 8.59375 31.390625 
Q 8.59375 42.28125 12.203125 53.3125 
Q 15.828125 64.359375 23.1875 75.875 
z
" id="DejaVuSans-28"/>
      <path d="M 44.28125 53.078125 
L 44.28125 44.578125 
Q 40.484375 46.53125 36.375 47.5 
Q 32.28125 48.484375 27.875 48.484375 
Q 21.1875 48.484375 17.84375 46.4375 
Q 14.5 44.390625 14.5 40.28125 
Q 14.5 37.15625 16.890625 35.375 
Q 19.28125 33.59375 26.515625 31.984375 
L 29.59375 31.296875 
Q 39.15625 29.25 43.1875 25.515625 
Q 47.21875 21.78125 47.21875 15.09375 
Q 47.21875 7.46875 41.1875 3.015625 
Q 35.15625 -1.421875 24.609375 -1.421875 
Q 20.21875 -1.421875 15.453125 -0.5625 
Q 10.6875 0.296875 5.421875 2 
L 5.421875 11.28125 
Q 10.40625 8.6875 15.234375 7.390625 
Q 20.0625 6.109375 24.8125 6.109375 
Q 31.15625 6.109375 34.5625 8.28125 
Q 37.984375 10.453125 37.984375 14.40625 
Q 37.984375 18.0625 35.515625 20.015625 
Q 33.0625 21.96875 24.703125 23.78125 
L 21.578125 24.515625 
Q 13.234375 26.265625 9.515625 29.90625 
Q 5.8125 33.546875 5.8125 39.890625 
Q 5.8125 47.609375 11.28125 51.796875 
Q 16.75 56 26.8125 56 
Q 31.78125 56 36.171875 55.265625 
Q 40.578125 54.546875 44.28125 53.078125 
z
" id="DejaVuSans-73"/>
      <path d="M 8.015625 75.875 
L 15.828125 75.875 
Q 23.140625 64.359375 26.78125 53.3125 
Q 30.421875 42.28125 30.421875 31.390625 
Q 30.421875 20.453125 26.78125 9.375 
Q 23.140625 -1.703125 15.828125 -13.1875 
L 8.015625 -13.1875 
Q 14.5 -2 17.703125 9.0625 
Q 20.90625 20.125 20.90625 31.390625 
Q 20.90625 42.671875 17.703125 53.65625 
Q 14.5 64.65625 8.015625 75.875 
z
" id="DejaVuSans-29"/>
     </defs>
     <g transform="translate(205.042813 330.144062)scale(0.1 -0.1)">
      <use xlink:href="#DejaVuSans-54"/>
      <use x="61.037109" xlink:href="#DejaVuSans-69"/>
      <use x="88.820312" xlink:href="#DejaVuSans-6d"/>
      <use x="186.232422" xlink:href="#DejaVuSans-65"/>
      <use x="247.755859" xlink:href="#DejaVuSans-20"/>
      <use x="279.542969" xlink:href="#DejaVuSans-28"/>
      <use x="318.556641" xlink:href="#DejaVuSans-73"/>
      <use x="370.65625" xlink:href="#DejaVuSans-29"/>
     </g>
    </g>
   </g>
   <g id="matplotlib.axis_2">
    <g id="ytick_1">
     <g id="line2d_21">
      <path clip-path="url(#p711991d9a2)" d="M 46.965625 301.8675 
L 404.085625 301.8675 
" style="fill:none;stroke:#b0b0b0;stroke-linecap:square;stroke-width:0.8;"/>
     </g>
     <g id="line2d_22">
      <defs>
       <path d="M 0 0 
L -3.5 0 
" id="m0da61ec1e4" style="stroke:#000000;stroke-width:0.8;"/>
      </defs>
      <g>
       <use style="stroke:#000000;stroke-width:0.8;" x="46.965625" xlink:href="#m0da61ec1e4" y="301.8675"/>
      </g>
     </g>
     <g id="text_12">
      <!-- 0 -->
      <g transform="translate(33.603125 305.666719)scale(0.1 -0.1)">
       <use xlink:href="#DejaVuSans-30"/>
      </g>
     </g>
    </g>
    <g id="ytick_2">
     <g id="line2d_23">
      <path clip-path="url(#p711991d9a2)" d="M 46.965625 268.6035 
L 404.085625 268.6035 
" style="fill:none;stroke:#b0b0b0;stroke-linecap:square;stroke-width:0.8;"/>
     </g>
     <g id="line2d_24">
      <g>
       <use style="stroke:#000000;stroke-width:0.8;" x="46.965625" xlink:href="#m0da61ec1e4" y="268.6035"/>
      </g>
     </g>
     <g id="text_13">
      <!-- 25 -->
      <g transform="translate(27.240625 272.402719)scale(0.1 -0.1)">
       <use xlink:href="#DejaVuSans-32"/>
       <use x="63.623047" xlink:href="#DejaVuSans-35"/>
      </g>
     </g>
    </g>
    <g id="ytick_3">
     <g id="line2d_25">
      <path clip-path="url(#p711991d9a2)" d="M 46.965625 235.3395 
L 404.085625 235.3395 
" style="fill:none;stroke:#b0b0b0;stroke-linecap:square;stroke-width:0.8;"/>
     </g>
     <g id="line2d_26">
      <g>
       <use style="stroke:#000000;stroke-width:0.8;" x="46.965625" xlink:href="#m0da61ec1e4" y="235.3395"/>
      </g>
     </g>
     <g id="text_14">
      <!-- 50 -->
      <g transform="translate(27.240625 239.138719)scale(0.1 -0.1)">
       <use xlink:href="#DejaVuSans-35"/>
       <use x="63.623047" xlink:href="#DejaVuSans-30"/>
      </g>
     </g>
    </g>
    <g id="ytick_4">
     <g id="line2d_27">
      <path clip-path="url(#p711991d9a2)" d="M 46.965625 202.0755 
L 404.085625 202.0755 
" style="fill:none;stroke:#b0b0b0;stroke-linecap:square;stroke-width:0.8;"/>
     </g>
     <g id="line2d_28">
      <g>
       <use style="stroke:#000000;stroke-width:0.8;" x="46.965625" xlink:href="#m0da61ec1e4" y="202.0755"/>
      </g>
     </g>
     <g id="text_15">
      <!-- 75 -->
      <defs>
       <path d="M 8.203125 72.90625 
L 55.078125 72.90625 
L 55.078125 68.703125 
L 28.609375 0 
L 18.3125 0 
L 43.21875 64.59375 
L 8.203125 64.59375 
z
" id="DejaVuSans-37"/>
      </defs>
      <g transform="translate(27.240625 205.874719)scale(0.1 -0.1)">
       <use xlink:href="#DejaVuSans-37"/>
       <use x="63.623047" xlink:href="#DejaVuSans-35"/>
      </g>
     </g>
    </g>
    <g id="ytick_5">
     <g id="line2d_29">
      <path clip-path="url(#p711991d9a2)" d="M 46.965625 168.8115 
L 404.085625 168.8115 
" style="fill:none;stroke:#b0b0b0;stroke-linecap:square;stroke-width:0.8;"/>
     </g>
     <g id="line2d_30">
      <g>
       <use style="stroke:#000000;stroke-width:0.8;" x="46.965625" xlink:href="#m0da61ec1e4" y="168.8115"/>
      </g>
     </g>
     <g id="text_16">
      <!-- 100 -->
      <g transform="translate(20.878125 172.610719)scale(0.1 -0.1)">
       <use xlink:href="#DejaVuSans-31"/>
       <use x="63.623047" xlink:href="#DejaVuSans-30"/>
       <use x="127.246094" xlink:href="#DejaVuSans-30"/>
      </g>
     </g>
    </g>
    <g id="ytick_6">
     <g id="line2d_31">
      <path clip-path="url(#p711991d9a2)" d="M 46.965625 135.5475 
L 404.085625 135.5475 
" style="fill:none;stroke:#b0b0b0;stroke-linecap:square;stroke-width:0.8;"/>
     </g>
     <g id="line2d_32">
      <g>
       <use style="stroke:#000000;stroke-width:0.8;" x="46.965625" xlink:href="#m0da61ec1e4" y="135.5475"/>
      </g>
     </g>
     <g id="text_17">
      <!-- 125 -->
      <g transform="translate(20.878125 139.346719)scale(0.1 -0.1)">
       <use xlink:href="#DejaVuSans-31"/>
       <use x="63.623047" xlink:href="#DejaVuSans-32"/>
       <use x="127.246094" xlink:href="#DejaVuSans-35"/>
      </g>
     </g>
    </g>
    <g id="ytick_7">
     <g id="line2d_33">
      <path clip-path="url(#p711991d9a2)" d="M 46.965625 102.2835 
L 404.085625 102.2835 
" style="fill:none;stroke:#b0b0b0;stroke-linecap:square;stroke-width:0.8;"/>
     </g>
     <g id="line2d_34">
      <g>
       <use style="stroke:#000000;stroke-width:0.8;" x="46.965625" xlink:href="#m0da61ec1e4" y="102.2835"/>
      </g>
     </g>
     <g id="text_18">
      <!-- 150 -->
      <g transform="translate(20.878125 106.082719)scale(0.1 -0.1)">
       <use xlink:href="#DejaVuSans-31"/>
       <use x="63.623047" xlink:href="#DejaVuSans-35"/>
       <use x="127.246094" xlink:href="#DejaVuSans-30"/>
      </g>
     </g>
    </g>
    <g id="ytick_8">
     <g id="line2d_35">
      <path clip-path="url(#p711991d9a2)" d="M 46.965625 69.0195 
L 404.085625 69.0195 
" style="fill:none;stroke:#b0b0b0;stroke-linecap:square;stroke-width:0.8;"/>
     </g>
     <g id="line2d_36">
      <g>
       <use style="stroke:#000000;stroke-width:0.8;" x="46.965625" xlink:href="#m0da61ec1e4" y="69.0195"/>
      </g>
     </g>
     <g id="text_19">
      <!-- 175 -->
      <g transform="translate(20.878125 72.818719)scale(0.1 -0.1)">
       <use xlink:href="#DejaVuSans-31"/>
       <use x="63.623047" xlink:href="#DejaVuSans-37"/>
       <use x="127.246094" xlink:href="#DejaVuSans-35"/>
      </g>
     </g>
    </g>
    <g id="ytick_9">
     <g id="line2d_37">
      <path clip-path="url(#p711991d9a2)" d="M 46.965625 35.7555 
L 404.085625 35.7555 
" style="fill:none;stroke:#b0b0b0;stroke-linecap:square;stroke-width:0.8;"/>
     </g>
     <g id="line2d_38">
      <g>
       <use style="stroke:#000000;stroke-width:0.8;" x="46.965625" xlink:href="#m0da61ec1e4" y="35.7555"/>
      </g>
     </g>
     <g id="text_20">
      <!-- 200 -->
      <g transform="translate(20.878125 39.554719)scale(0.1 -0.1)">
       <use xlink:href="#DejaVuSans-32"/>
       <use x="63.623047" xlink:href="#DejaVuSans-30"/>
       <use x="127.246094" xlink:href="#DejaVuSans-30"/>
      </g>
     </g>
    </g>
    <g id="text_21">
     <!-- Number of nodes (accumulated) -->
     <defs>
      <path d="M 9.8125 72.90625 
L 23.09375 72.90625 
L 55.421875 11.921875 
L 55.421875 72.90625 
L 64.984375 72.90625 
L 64.984375 0 
L 51.703125 0 
L 19.390625 60.984375 
L 19.390625 0 
L 9.8125 0 
z
" id="DejaVuSans-4e"/>
      <path d="M 8.5 21.578125 
L 8.5 54.6875 
L 17.484375 54.6875 
L 17.484375 21.921875 
Q 17.484375 14.15625 20.5 10.265625 
Q 23.53125 6.390625 29.59375 6.390625 
Q 36.859375 6.390625 41.078125 11.03125 
Q 45.3125 15.671875 45.3125 23.6875 
L 45.3125 54.6875 
L 54.296875 54.6875 
L 54.296875 0 
L 45.3125 0 
L 45.3125 8.40625 
Q 42.046875 3.421875 37.71875 1 
Q 33.40625 -1.421875 27.6875 -1.421875 
Q 18.265625 -1.421875 13.375 4.4375 
Q 8.5 10.296875 8.5 21.578125 
z
M 31.109375 56 
z
" id="DejaVuSans-75"/>
      <path d="M 48.6875 27.296875 
Q 48.6875 37.203125 44.609375 42.84375 
Q 40.53125 48.484375 33.40625 48.484375 
Q 26.265625 48.484375 22.1875 42.84375 
Q 18.109375 37.203125 18.109375 27.296875 
Q 18.109375 17.390625 22.1875 11.75 
Q 26.265625 6.109375 33.40625 6.109375 
Q 40.53125 6.109375 44.609375 11.75 
Q 48.6875 17.390625 48.6875 27.296875 
z
M 18.109375 46.390625 
Q 20.953125 51.265625 25.265625 53.625 
Q 29.59375 56 35.59375 56 
Q 45.5625 56 51.78125 48.09375 
Q 58.015625 40.1875 58.015625 27.296875 
Q 58.015625 14.40625 51.78125 6.484375 
Q 45.5625 -1.421875 35.59375 -1.421875 
Q 29.59375 -1.421875 25.265625 0.953125 
Q 20.953125 3.328125 18.109375 8.203125 
L 18.109375 0 
L 9.078125 0 
L 9.078125 75.984375 
L 18.109375 75.984375 
z
" id="DejaVuSans-62"/>
      <path d="M 41.109375 46.296875 
Q 39.59375 47.171875 37.8125 47.578125 
Q 36.03125 48 33.890625 48 
Q 26.265625 48 22.1875 43.046875 
Q 18.109375 38.09375 18.109375 28.8125 
L 18.109375 0 
L 9.078125 0 
L 9.078125 54.6875 
L 18.109375 54.6875 
L 18.109375 46.1875 
Q 20.953125 51.171875 25.484375 53.578125 
Q 30.03125 56 36.53125 56 
Q 37.453125 56 38.578125 55.875 
Q 39.703125 55.765625 41.0625 55.515625 
z
" id="DejaVuSans-72"/>
      <path d="M 30.609375 48.390625 
Q 23.390625 48.390625 19.1875 42.75 
Q 14.984375 37.109375 14.984375 27.296875 
Q 14.984375 17.484375 19.15625 11.84375 
Q 23.34375 6.203125 30.609375 6.203125 
Q 37.796875 6.203125 41.984375 11.859375 
Q 46.1875 17.53125 46.1875 27.296875 
Q 46.1875 37.015625 41.984375 42.703125 
Q 37.796875 48.390625 30.609375 48.390625 
z
M 30.609375 56 
Q 42.328125 56 49.015625 48.375 
Q 55.71875 40.765625 55.71875 27.296875 
Q 55.71875 13.875 49.015625 6.21875 
Q 42.328125 -1.421875 30.609375 -1.421875 
Q 18.84375 -1.421875 12.171875 6.21875 
Q 5.515625 13.875 5.515625 27.296875 
Q 5.515625 40.765625 12.171875 48.375 
Q 18.84375 56 30.609375 56 
z
" id="DejaVuSans-6f"/>
      <path d="M 37.109375 75.984375 
L 37.109375 68.5 
L 28.515625 68.5 
Q 23.6875 68.5 21.796875 66.546875 
Q 19.921875 64.59375 19.921875 59.515625 
L 19.921875 54.6875 
L 34.71875 54.6875 
L 34.71875 47.703125 
L 19.921875 47.703125 
L 19.921875 0 
L 10.890625 0 
L 10.890625 47.703125 
L 2.296875 47.703125 
L 2.296875 54.6875 
L 10.890625 54.6875 
L 10.890625 58.5 
Q 10.890625 67.625 15.140625 71.796875 
Q 19.390625 75.984375 28.609375 75.984375 
z
" id="DejaVuSans-66"/>
      <path d="M 54.890625 33.015625 
L 54.890625 0 
L 45.90625 0 
L 45.90625 32.71875 
Q 45.90625 40.484375 42.875 44.328125 
Q 39.84375 48.1875 33.796875 48.1875 
Q 26.515625 48.1875 22.3125 43.546875 
Q 18.109375 38.921875 18.109375 30.90625 
L 18.109375 0 
L 9.078125 0 
L 9.078125 54.6875 
L 18.109375 54.6875 
L 18.109375 46.1875 
Q 21.34375 51.125 25.703125 53.5625 
Q 30.078125 56 35.796875 56 
Q 45.21875 56 50.046875 50.171875 
Q 54.890625 44.34375 54.890625 33.015625 
z
" id="DejaVuSans-6e"/>
      <path d="M 45.40625 46.390625 
L 45.40625 75.984375 
L 54.390625 75.984375 
L 54.390625 0 
L 45.40625 0 
L 45.40625 8.203125 
Q 42.578125 3.328125 38.25 0.953125 
Q 33.9375 -1.421875 27.875 -1.421875 
Q 17.96875 -1.421875 11.734375 6.484375 
Q 5.515625 14.40625 5.515625 27.296875 
Q 5.515625 40.1875 11.734375 48.09375 
Q 17.96875 56 27.875 56 
Q 33.9375 56 38.25 53.625 
Q 42.578125 51.265625 45.40625 46.390625 
z
M 14.796875 27.296875 
Q 14.796875 17.390625 18.875 11.75 
Q 22.953125 6.109375 30.078125 6.109375 
Q 37.203125 6.109375 41.296875 11.75 
Q 45.40625 17.390625 45.40625 27.296875 
Q 45.40625 37.203125 41.296875 42.84375 
Q 37.203125 48.484375 30.078125 48.484375 
Q 22.953125 48.484375 18.875 42.84375 
Q 14.796875 37.203125 14.796875 27.296875 
z
" id="DejaVuSans-64"/>
      <path d="M 34.28125 27.484375 
Q 23.390625 27.484375 19.1875 25 
Q 14.984375 22.515625 14.984375 16.5 
Q 14.984375 11.71875 18.140625 8.90625 
Q 21.296875 6.109375 26.703125 6.109375 
Q 34.1875 6.109375 38.703125 11.40625 
Q 43.21875 16.703125 43.21875 25.484375 
L 43.21875 27.484375 
z
M 52.203125 31.203125 
L 52.203125 0 
L 43.21875 0 
L 43.21875 8.296875 
Q 40.140625 3.328125 35.546875 0.953125 
Q 30.953125 -1.421875 24.3125 -1.421875 
Q 15.921875 -1.421875 10.953125 3.296875 
Q 6 8.015625 6 15.921875 
Q 6 25.140625 12.171875 29.828125 
Q 18.359375 34.515625 30.609375 34.515625 
L 43.21875 34.515625 
L 43.21875 35.40625 
Q 43.21875 41.609375 39.140625 45 
Q 35.0625 48.390625 27.6875 48.390625 
Q 23 48.390625 18.546875 47.265625 
Q 14.109375 46.140625 10.015625 43.890625 
L 10.015625 52.203125 
Q 14.9375 54.109375 19.578125 55.046875 
Q 24.21875 56 28.609375 56 
Q 40.484375 56 46.34375 49.84375 
Q 52.203125 43.703125 52.203125 31.203125 
z
" id="DejaVuSans-61"/>
      <path d="M 48.78125 52.59375 
L 48.78125 44.1875 
Q 44.96875 46.296875 41.140625 47.34375 
Q 37.3125 48.390625 33.40625 48.390625 
Q 24.65625 48.390625 19.8125 42.84375 
Q 14.984375 37.3125 14.984375 27.296875 
Q 14.984375 17.28125 19.8125 11.734375 
Q 24.65625 6.203125 33.40625 6.203125 
Q 37.3125 6.203125 41.140625 7.25 
Q 44.96875 8.296875 48.78125 10.40625 
L 48.78125 2.09375 
Q 45.015625 0.34375 40.984375 -0.53125 
Q 36.96875 -1.421875 32.421875 -1.421875 
Q 20.0625 -1.421875 12.78125 6.34375 
Q 5.515625 14.109375 5.515625 27.296875 
Q 5.515625 40.671875 12.859375 48.328125 
Q 20.21875 56 33.015625 56 
Q 37.15625 56 41.109375 55.140625 
Q 45.0625 54.296875 48.78125 52.59375 
z
" id="DejaVuSans-63"/>
      <path d="M 9.421875 75.984375 
L 18.40625 75.984375 
L 18.40625 0 
L 9.421875 0 
z
" id="DejaVuSans-6c"/>
      <path d="M 18.3125 70.21875 
L 18.3125 54.6875 
L 36.8125 54.6875 
L 36.8125 47.703125 
L 18.3125 47.703125 
L 18.3125 18.015625 
Q 18.3125 11.328125 20.140625 9.421875 
Q 21.96875 7.515625 27.59375 7.515625 
L 36.8125 7.515625 
L 36.8125 0 
L 27.59375 0 
Q 17.1875 0 13.234375 3.875 
Q 9.28125 7.765625 9.28125 18.015625 
L 9.28125 47.703125 
L 2.6875 47.703125 
L 2.6875 54.6875 
L 9.28125 54.6875 
L 9.28125 70.21875 
z
" id="DejaVuSans-74"/>
     </defs>
     <g transform="translate(14.798438 249.903687)rotate(-90)scale(0.1 -0.1)">
      <use xlink:href="#DejaVuSans-4e"/>
      <use x="74.804688" xlink:href="#DejaVuSans-75"/>
      <use x="138.183594" xlink:href="#DejaVuSans-6d"/>
      <use x="235.595703" xlink:href="#DejaVuSans-62"/>
      <use x="299.072266" xlink:href="#DejaVuSans-65"/>
      <use x="360.595703" xlink:href="#DejaVuSans-72"/>
      <use x="401.708984" xlink:href="#DejaVuSans-20"/>
      <use x="433.496094" xlink:href="#DejaVuSans-6f"/>
      <use x="494.677734" xlink:href="#DejaVuSans-66"/>
      <use x="529.882812" xlink:href="#DejaVuSans-20"/>
      <use x="561.669922" xlink:href="#DejaVuSans-6e"/>
      <use x="625.048828" xlink:href="#DejaVuSans-6f"/>
      <use x="686.230469" xlink:href="#DejaVuSans-64"/>
      <use x="749.707031" xlink:href="#DejaVuSans-65"/>
      <use x="811.230469" xlink:href="#DejaVuSans-73"/>
      <use x="863.330078" xlink:href="#DejaVuSans-20"/>
      <use x="895.117188" xlink:href="#DejaVuSans-28"/>
      <use x="934.130859" xlink:href="#DejaVuSans-61"/>
      <use x="995.410156" xlink:href="#DejaVuSans-63"/>
      <use x="1050.390625" xlink:href="#DejaVuSans-63"/>
      <use x="1105.371094" xlink:href="#DejaVuSans-75"/>
      <use x="1168.75" xlink:href="#DejaVuSans-6d"/>
      <use x="1266.162109" xlink:href="#DejaVuSans-75"/>
      <use x="1329.541016" xlink:href="#DejaVuSans-6c"/>
      <use x="1357.324219" xlink:href="#DejaVuSans-61"/>
      <use x="1418.603516" xlink:href="#DejaVuSans-74"/>
      <use x="1457.8125" xlink:href="#DejaVuSans-65"/>
      <use x="1519.335938" xlink:href="#DejaVuSans-64"/>
      <use x="1582.8125" xlink:href="#DejaVuSans-29"/>
     </g>
    </g>
   </g>
   <g id="line2d_39">
    <path clip-path="url(#p711991d9a2)" d="M 46.965625 299.20638 
L 47.759225 299.20638 
L 48.552825 297.87582 
L 50.140025 297.87582 
L 50.933625 295.2147 
L 52.520825 295.2147 
L 53.314425 292.55358 
L 54.108025 287.23134 
L 54.901625 287.23134 
L 56.488825 284.57022 
L 57.282425 281.9091 
L 58.076025 281.9091 
L 59.663225 276.58686 
L 60.456825 276.58686 
L 61.250425 273.92574 
L 62.837625 273.92574 
L 63.631225 272.59518 
L 64.424825 268.6035 
L 66.805625 264.61182 
L 69.186425 264.61182 
L 69.980025 261.9507 
L 72.360825 257.95902 
L 75.535225 257.95902 
L 76.328825 256.62846 
L 77.122425 256.62846 
L 77.916025 253.96734 
L 192.988025 253.96734 
L 193.781625 251.30622 
L 195.368825 251.30622 
L 196.956025 245.98398 
L 197.749625 240.66174 
L 198.543225 238.00062 
L 199.336825 238.00062 
L 200.130425 236.67006 
L 200.924025 234.00894 
L 202.511225 226.02558 
L 204.098425 223.36446 
L 206.479225 215.3811 
L 207.272825 214.05054 
L 208.860025 208.7283 
L 209.653625 203.40606 
L 211.240825 200.74494 
L 212.034425 198.08382 
L 212.828025 194.09214 
L 215.208825 190.10046 
L 216.796025 182.1171 
L 217.589625 180.78654 
L 219.176825 175.4643 
L 219.970425 175.4643 
L 220.764025 174.13374 
L 403.292025 174.13374 
L 403.292025 174.13374 
" style="fill:none;stroke:#008000;stroke-linecap:square;stroke-width:1.5;"/>
   </g>
   <g id="patch_3">
    <path d="M 46.965625 301.8675 
L 46.965625 35.7555 
" style="fill:none;stroke:#000000;stroke-linecap:square;stroke-linejoin:miter;stroke-width:0.8;"/>
   </g>
   <g id="patch_4">
    <path d="M 404.085625 301.8675 
L 404.085625 35.7555 
" style="fill:none;stroke:#000000;stroke-linecap:square;stroke-linejoin:miter;stroke-width:0.8;"/>
   </g>
   <g id="patch_5">
    <path d="M 46.965625 301.8675 
L 404.085625 301.8675 
" style="fill:none;stroke:#000000;stroke-linecap:square;stroke-linejoin:miter;stroke-width:0.8;"/>
   </g>
   <g id="patch_6">
    <path d="M 46.965625 35.7555 
L 404.085625 35.7555 
" style="fill:none;stroke:#000000;stroke-linecap:square;stroke-linejoin:miter;stroke-width:0.8;"/>
   </g>
   <g id="text_22">
    <!-- % discovered (avg): 48.00 % -->
    <defs>
     <path d="M 72.703125 32.078125 
Q 68.453125 32.078125 66.03125 28.46875 
Q 63.625 24.859375 63.625 18.40625 
Q 63.625 12.0625 66.03125 8.421875 
Q 68.453125 4.78125 72.703125 4.78125 
Q 76.859375 4.78125 79.265625 8.421875 
Q 81.6875 12.0625 81.6875 18.40625 
Q 81.6875 24.8125 79.265625 28.4375 
Q 76.859375 32.078125 72.703125 32.078125 
z
M 72.703125 38.28125 
Q 80.421875 38.28125 84.953125 32.90625 
Q 89.5 27.546875 89.5 18.40625 
Q 89.5 9.28125 84.9375 3.921875 
Q 80.375 -1.421875 72.703125 -1.421875 
Q 64.890625 -1.421875 60.34375 3.921875 
Q 55.8125 9.28125 55.8125 18.40625 
Q 55.8125 27.59375 60.375 32.9375 
Q 64.9375 38.28125 72.703125 38.28125 
z
M 22.3125 68.015625 
Q 18.109375 68.015625 15.6875 64.375 
Q 13.28125 60.75 13.28125 54.390625 
Q 13.28125 47.953125 15.671875 44.328125 
Q 18.0625 40.71875 22.3125 40.71875 
Q 26.5625 40.71875 28.96875 44.328125 
Q 31.390625 47.953125 31.390625 54.390625 
Q 31.390625 60.6875 28.953125 64.34375 
Q 26.515625 68.015625 22.3125 68.015625 
z
M 66.40625 74.21875 
L 74.21875 74.21875 
L 28.609375 -1.421875 
L 20.796875 -1.421875 
z
M 22.3125 74.21875 
Q 30.03125 74.21875 34.609375 68.875 
Q 39.203125 63.53125 39.203125 54.390625 
Q 39.203125 45.171875 34.640625 39.84375 
Q 30.078125 34.515625 22.3125 34.515625 
Q 14.546875 34.515625 10.03125 39.859375 
Q 5.515625 45.21875 5.515625 54.390625 
Q 5.515625 63.484375 10.046875 68.84375 
Q 14.59375 74.21875 22.3125 74.21875 
z
" id="DejaVuSans-25"/>
     <path d="M 2.984375 54.6875 
L 12.5 54.6875 
L 29.59375 8.796875 
L 46.6875 54.6875 
L 56.203125 54.6875 
L 35.6875 0 
L 23.484375 0 
z
" id="DejaVuSans-76"/>
     <path d="M 45.40625 27.984375 
Q 45.40625 37.75 41.375 43.109375 
Q 37.359375 48.484375 30.078125 48.484375 
Q 22.859375 48.484375 18.828125 43.109375 
Q 14.796875 37.75 14.796875 27.984375 
Q 14.796875 18.265625 18.828125 12.890625 
Q 22.859375 7.515625 30.078125 7.515625 
Q 37.359375 7.515625 41.375 12.890625 
Q 45.40625 18.265625 45.40625 27.984375 
z
M 54.390625 6.78125 
Q 54.390625 -7.171875 48.1875 -13.984375 
Q 42 -20.796875 29.203125 -20.796875 
Q 24.46875 -20.796875 20.265625 -20.09375 
Q 16.0625 -19.390625 12.109375 -17.921875 
L 12.109375 -9.1875 
Q 16.0625 -11.328125 19.921875 -12.34375 
Q 23.78125 -13.375 27.78125 -13.375 
Q 36.625 -13.375 41.015625 -8.765625 
Q 45.40625 -4.15625 45.40625 5.171875 
L 45.40625 9.625 
Q 42.625 4.78125 38.28125 2.390625 
Q 33.9375 0 27.875 0 
Q 17.828125 0 11.671875 7.65625 
Q 5.515625 15.328125 5.515625 27.984375 
Q 5.515625 40.671875 11.671875 48.328125 
Q 17.828125 56 27.875 56 
Q 33.9375 56 38.28125 53.609375 
Q 42.625 51.21875 45.40625 46.390625 
L 45.40625 54.6875 
L 54.390625 54.6875 
z
" id="DejaVuSans-67"/>
     <path d="M 11.71875 12.40625 
L 22.015625 12.40625 
L 22.015625 0 
L 11.71875 0 
z
M 11.71875 51.703125 
L 22.015625 51.703125 
L 22.015625 39.3125 
L 11.71875 39.3125 
z
" id="DejaVuSans-3a"/>
     <path d="M 31.78125 34.625 
Q 24.75 34.625 20.71875 30.859375 
Q 16.703125 27.09375 16.703125 20.515625 
Q 16.703125 13.921875 20.71875 10.15625 
Q 24.75 6.390625 31.78125 6.390625 
Q 38.8125 6.390625 42.859375 10.171875 
Q 46.921875 13.96875 46.921875 20.515625 
Q 46.921875 27.09375 42.890625 30.859375 
Q 38.875 34.625 31.78125 34.625 
z
M 21.921875 38.8125 
Q 15.578125 40.375 12.03125 44.71875 
Q 8.5 49.078125 8.5 55.328125 
Q 8.5 64.0625 14.71875 69.140625 
Q 20.953125 74.21875 31.78125 74.21875 
Q 42.671875 74.21875 48.875 69.140625 
Q 55.078125 64.0625 55.078125 55.328125 
Q 55.078125 49.078125 51.53125 44.71875 
Q 48 40.375 41.703125 38.8125 
Q 48.828125 37.15625 52.796875 32.3125 
Q 56.78125 27.484375 56.78125 20.515625 
Q 56.78125 9.90625 50.3125 4.234375 
Q 43.84375 -1.421875 31.78125 -1.421875 
Q 19.734375 -1.421875 13.25 4.234375 
Q 6.78125 9.90625 6.78125 20.515625 
Q 6.78125 27.484375 10.78125 32.3125 
Q 14.796875 37.15625 21.921875 38.8125 
z
M 18.3125 54.390625 
Q 18.3125 48.734375 21.84375 45.5625 
Q 25.390625 42.390625 31.78125 42.390625 
Q 38.140625 42.390625 41.71875 45.5625 
Q 45.3125 48.734375 45.3125 54.390625 
Q 45.3125 60.0625 41.71875 63.234375 
Q 38.140625 66.40625 31.78125 66.40625 
Q 25.390625 66.40625 21.84375 63.234375 
Q 18.3125 60.0625 18.3125 54.390625 
z
" id="DejaVuSans-38"/>
     <path d="M 10.6875 12.40625 
L 21 12.40625 
L 21 0 
L 10.6875 0 
z
" id="DejaVuSans-2e"/>
    </defs>
    <g transform="translate(421.941625 279.471875)scale(0.1 -0.1)">
     <use xlink:href="#DejaVuSans-25"/>
     <use x="95.019531" xlink:href="#DejaVuSans-20"/>
     <use x="126.806641" xlink:href="#DejaVuSans-64"/>
     <use x="190.283203" xlink:href="#DejaVuSans-69"/>
     <use x="218.066406" xlink:href="#DejaVuSans-73"/>
     <use x="270.166016" xlink:href="#DejaVuSans-63"/>
     <use x="325.146484" xlink:href="#DejaVuSans-6f"/>
     <use x="386.328125" xlink:href="#DejaVuSans-76"/>
     <use x="445.507812" xlink:href="#DejaVuSans-65"/>
     <use x="507.03125" xlink:href="#DejaVuSans-72"/>
     <use x="548.113281" xlink:href="#DejaVuSans-65"/>
     <use x="609.636719" xlink:href="#DejaVuSans-64"/>
     <use x="673.113281" xlink:href="#DejaVuSans-20"/>
     <use x="704.900391" xlink:href="#DejaVuSans-28"/>
     <use x="743.914062" xlink:href="#DejaVuSans-61"/>
     <use x="805.193359" xlink:href="#DejaVuSans-76"/>
     <use x="864.373047" xlink:href="#DejaVuSans-67"/>
     <use x="927.849609" xlink:href="#DejaVuSans-29"/>
     <use x="966.863281" xlink:href="#DejaVuSans-3a"/>
     <use x="1000.554688" xlink:href="#DejaVuSans-20"/>
     <use x="1032.341797" xlink:href="#DejaVuSans-34"/>
     <use x="1095.964844" xlink:href="#DejaVuSans-38"/>
     <use x="1159.587891" xlink:href="#DejaVuSans-2e"/>
     <use x="1191.375" xlink:href="#DejaVuSans-30"/>
     <use x="1254.998047" xlink:href="#DejaVuSans-30"/>
     <use x="1318.621094" xlink:href="#DejaVuSans-20"/>
     <use x="1350.408203" xlink:href="#DejaVuSans-25"/>
    </g>
    <!-- Total discovered (avg): 96.0 -->
    <defs>
     <path d="M 10.984375 1.515625 
L 10.984375 10.5 
Q 14.703125 8.734375 18.5 7.8125 
Q 22.3125 6.890625 25.984375 6.890625 
Q 35.75 6.890625 40.890625 13.453125 
Q 46.046875 20.015625 46.78125 33.40625 
Q 43.953125 29.203125 39.59375 26.953125 
Q 35.25 24.703125 29.984375 24.703125 
Q 19.046875 24.703125 12.671875 31.3125 
Q 6.296875 37.9375 6.296875 49.421875 
Q 6.296875 60.640625 12.9375 67.421875 
Q 19.578125 74.21875 30.609375 74.21875 
Q 43.265625 74.21875 49.921875 64.515625 
Q 56.59375 54.828125 56.59375 36.375 
Q 56.59375 19.140625 48.40625 8.859375 
Q 40.234375 -1.421875 26.421875 -1.421875 
Q 22.703125 -1.421875 18.890625 -0.6875 
Q 15.09375 0.046875 10.984375 1.515625 
z
M 30.609375 32.421875 
Q 37.25 32.421875 41.125 36.953125 
Q 45.015625 41.5 45.015625 49.421875 
Q 45.015625 57.28125 41.125 61.84375 
Q 37.25 66.40625 30.609375 66.40625 
Q 23.96875 66.40625 20.09375 61.84375 
Q 16.21875 57.28125 16.21875 49.421875 
Q 16.21875 41.5 20.09375 36.953125 
Q 23.96875 32.421875 30.609375 32.421875 
z
" id="DejaVuSans-39"/>
     <path d="M 33.015625 40.375 
Q 26.375 40.375 22.484375 35.828125 
Q 18.609375 31.296875 18.609375 23.390625 
Q 18.609375 15.53125 22.484375 10.953125 
Q 26.375 6.390625 33.015625 6.390625 
Q 39.65625 6.390625 43.53125 10.953125 
Q 47.40625 15.53125 47.40625 23.390625 
Q 47.40625 31.296875 43.53125 35.828125 
Q 39.65625 40.375 33.015625 40.375 
z
M 52.59375 71.296875 
L 52.59375 62.3125 
Q 48.875 64.0625 45.09375 64.984375 
Q 41.3125 65.921875 37.59375 65.921875 
Q 27.828125 65.921875 22.671875 59.328125 
Q 17.53125 52.734375 16.796875 39.40625 
Q 19.671875 43.65625 24.015625 45.921875 
Q 28.375 48.1875 33.59375 48.1875 
Q 44.578125 48.1875 50.953125 41.515625 
Q 57.328125 34.859375 57.328125 23.390625 
Q 57.328125 12.15625 50.6875 5.359375 
Q 44.046875 -1.421875 33.015625 -1.421875 
Q 20.359375 -1.421875 13.671875 8.265625 
Q 6.984375 17.96875 6.984375 36.375 
Q 6.984375 53.65625 15.1875 63.9375 
Q 23.390625 74.21875 37.203125 74.21875 
Q 40.921875 74.21875 44.703125 73.484375 
Q 48.484375 72.75 52.59375 71.296875 
z
" id="DejaVuSans-36"/>
    </defs>
    <g transform="translate(421.941625 290.669687)scale(0.1 -0.1)">
     <use xlink:href="#DejaVuSans-54"/>
     <use x="60.818359" xlink:href="#DejaVuSans-6f"/>
     <use x="122" xlink:href="#DejaVuSans-74"/>
     <use x="161.208984" xlink:href="#DejaVuSans-61"/>
     <use x="222.488281" xlink:href="#DejaVuSans-6c"/>
     <use x="250.271484" xlink:href="#DejaVuSans-20"/>
     <use x="282.058594" xlink:href="#DejaVuSans-64"/>
     <use x="345.535156" xlink:href="#DejaVuSans-69"/>
     <use x="373.318359" xlink:href="#DejaVuSans-73"/>
     <use x="425.417969" xlink:href="#DejaVuSans-63"/>
     <use x="480.398438" xlink:href="#DejaVuSans-6f"/>
     <use x="541.580078" xlink:href="#DejaVuSans-76"/>
     <use x="600.759766" xlink:href="#DejaVuSans-65"/>
     <use x="662.283203" xlink:href="#DejaVuSans-72"/>
     <use x="703.365234" xlink:href="#DejaVuSans-65"/>
     <use x="764.888672" xlink:href="#DejaVuSans-64"/>
     <use x="828.365234" xlink:href="#DejaVuSans-20"/>
     <use x="860.152344" xlink:href="#DejaVuSans-28"/>
     <use x="899.166016" xlink:href="#DejaVuSans-61"/>
     <use x="960.445312" xlink:href="#DejaVuSans-76"/>
     <use x="1019.625" xlink:href="#DejaVuSans-67"/>
     <use x="1083.101562" xlink:href="#DejaVuSans-29"/>
     <use x="1122.115234" xlink:href="#DejaVuSans-3a"/>
     <use x="1155.806641" xlink:href="#DejaVuSans-20"/>
     <use x="1187.59375" xlink:href="#DejaVuSans-39"/>
     <use x="1251.216797" xlink:href="#DejaVuSans-36"/>
     <use x="1314.839844" xlink:href="#DejaVuSans-2e"/>
     <use x="1346.626953" xlink:href="#DejaVuSans-30"/>
    </g>
    <!-- dev: 0.00 -->
    <g transform="translate(421.941625 301.8675)scale(0.1 -0.1)">
     <use xlink:href="#DejaVuSans-64"/>
     <use x="63.476562" xlink:href="#DejaVuSans-65"/>
     <use x="125" xlink:href="#DejaVuSans-76"/>
     <use x="184.101562" xlink:href="#DejaVuSans-3a"/>
     <use x="217.792969" xlink:href="#DejaVuSans-20"/>
     <use x="249.580078" xlink:href="#DejaVuSans-30"/>
     <use x="313.203125" xlink:href="#DejaVuSans-2e"/>
     <use x="344.990234" xlink:href="#DejaVuSans-30"/>
     <use x="408.613281" xlink:href="#DejaVuSans-30"/>
    </g>
   </g>
   <g id="text_23">
    <!-- Discovered nodes per time (accumulated) [avg] -->
    <defs>
     <path d="M 19.671875 64.796875 
L 19.671875 8.109375 
L 31.59375 8.109375 
Q 46.6875 8.109375 53.6875 14.9375 
Q 60.6875 21.78125 60.6875 36.53125 
Q 60.6875 51.171875 53.6875 57.984375 
Q 46.6875 64.796875 31.59375 64.796875 
z
M 9.8125 72.90625 
L 30.078125 72.90625 
Q 51.265625 72.90625 61.171875 64.09375 
Q 71.09375 55.28125 71.09375 36.53125 
Q 71.09375 17.671875 61.125 8.828125 
Q 51.171875 0 30.078125 0 
L 9.8125 0 
z
" id="DejaVuSans-44"/>
     <path d="M 18.109375 8.203125 
L 18.109375 -20.796875 
L 9.078125 -20.796875 
L 9.078125 54.6875 
L 18.109375 54.6875 
L 18.109375 46.390625 
Q 20.953125 51.265625 25.265625 53.625 
Q 29.59375 56 35.59375 56 
Q 45.5625 56 51.78125 48.09375 
Q 58.015625 40.1875 58.015625 27.296875 
Q 58.015625 14.40625 51.78125 6.484375 
Q 45.5625 -1.421875 35.59375 -1.421875 
Q 29.59375 -1.421875 25.265625 0.953125 
Q 20.953125 3.328125 18.109375 8.203125 
z
M 48.6875 27.296875 
Q 48.6875 37.203125 44.609375 42.84375 
Q 40.53125 48.484375 33.40625 48.484375 
Q 26.265625 48.484375 22.1875 42.84375 
Q 18.109375 37.203125 18.109375 27.296875 
Q 18.109375 17.390625 22.1875 11.75 
Q 26.265625 6.109375 33.40625 6.109375 
Q 40.53125 6.109375 44.609375 11.75 
Q 48.6875 17.390625 48.6875 27.296875 
z
" id="DejaVuSans-70"/>
     <path d="M 8.59375 75.984375 
L 29.296875 75.984375 
L 29.296875 69 
L 17.578125 69 
L 17.578125 -6.203125 
L 29.296875 -6.203125 
L 29.296875 -13.1875 
L 8.59375 -13.1875 
z
" id="DejaVuSans-5b"/>
     <path d="M 30.421875 75.984375 
L 30.421875 -13.1875 
L 9.71875 -13.1875 
L 9.71875 -6.203125 
L 21.390625 -6.203125 
L 21.390625 69 
L 9.71875 69 
L 9.71875 75.984375 
z
" id="DejaVuSans-5d"/>
    </defs>
    <g transform="translate(81.454375 16.318125)scale(0.12 -0.12)">
     <use xlink:href="#DejaVuSans-44"/>
     <use x="77.001953" xlink:href="#DejaVuSans-69"/>
     <use x="104.785156" xlink:href="#DejaVuSans-73"/>
     <use x="156.884766" xlink:href="#DejaVuSans-63"/>
     <use x="211.865234" xlink:href="#DejaVuSans-6f"/>
     <use x="273.046875" xlink:href="#DejaVuSans-76"/>
     <use x="332.226562" xlink:href="#DejaVuSans-65"/>
     <use x="393.75" xlink:href="#DejaVuSans-72"/>
     <use x="434.832031" xlink:href="#DejaVuSans-65"/>
     <use x="496.355469" xlink:href="#DejaVuSans-64"/>
     <use x="559.832031" xlink:href="#DejaVuSans-20"/>
     <use x="591.619141" xlink:href="#DejaVuSans-6e"/>
     <use x="654.998047" xlink:href="#DejaVuSans-6f"/>
     <use x="716.179688" xlink:href="#DejaVuSans-64"/>
     <use x="779.65625" xlink:href="#DejaVuSans-65"/>
     <use x="841.179688" xlink:href="#DejaVuSans-73"/>
     <use x="893.279297" xlink:href="#DejaVuSans-20"/>
     <use x="925.066406" xlink:href="#DejaVuSans-70"/>
     <use x="988.542969" xlink:href="#DejaVuSans-65"/>
     <use x="1050.066406" xlink:href="#DejaVuSans-72"/>
     <use x="1091.179688" xlink:href="#DejaVuSans-20"/>
     <use x="1122.966797" xlink:href="#DejaVuSans-74"/>
     <use x="1162.175781" xlink:href="#DejaVuSans-69"/>
     <use x="1189.958984" xlink:href="#DejaVuSans-6d"/>
     <use x="1287.371094" xlink:href="#DejaVuSans-65"/>
     <use x="1348.894531" xlink:href="#DejaVuSans-20"/>
     <use x="1380.681641" xlink:href="#DejaVuSans-28"/>
     <use x="1419.695312" xlink:href="#DejaVuSans-61"/>
     <use x="1480.974609" xlink:href="#DejaVuSans-63"/>
     <use x="1535.955078" xlink:href="#DejaVuSans-63"/>
     <use x="1590.935547" xlink:href="#DejaVuSans-75"/>
     <use x="1654.314453" xlink:href="#DejaVuSans-6d"/>
     <use x="1751.726562" xlink:href="#DejaVuSans-75"/>
     <use x="1815.105469" xlink:href="#DejaVuSans-6c"/>
     <use x="1842.888672" xlink:href="#DejaVuSans-61"/>
     <use x="1904.167969" xlink:href="#DejaVuSans-74"/>
     <use x="1943.376953" xlink:href="#DejaVuSans-65"/>
     <use x="2004.900391" xlink:href="#DejaVuSans-64"/>
     <use x="2068.376953" xlink:href="#DejaVuSans-29"/>
     <use x="2107.390625" xlink:href="#DejaVuSans-20"/>
     <use x="2139.177734" xlink:href="#DejaVuSans-5b"/>
     <use x="2178.191406" xlink:href="#DejaVuSans-61"/>
     <use x="2239.470703" xlink:href="#DejaVuSans-76"/>
     <use x="2298.650391" xlink:href="#DejaVuSans-67"/>
     <use x="2362.126953" xlink:href="#DejaVuSans-5d"/>
    </g>
    <!-- lawn mower -->
    <defs>
     <path d="M 4.203125 54.6875 
L 13.1875 54.6875 
L 24.421875 12.015625 
L 35.59375 54.6875 
L 46.1875 54.6875 
L 57.421875 12.015625 
L 68.609375 54.6875 
L 77.59375 54.6875 
L 63.28125 0 
L 52.6875 0 
L 40.921875 44.828125 
L 29.109375 0 
L 18.5 0 
z
" id="DejaVuSans-77"/>
    </defs>
    <g transform="translate(188.984688 29.7555)scale(0.12 -0.12)">
     <use xlink:href="#DejaVuSans-6c"/>
     <use x="27.783203" xlink:href="#DejaVuSans-61"/>
     <use x="89.0625" xlink:href="#DejaVuSans-77"/>
     <use x="170.849609" xlink:href="#DejaVuSans-6e"/>
     <use x="234.228516" xlink:href="#DejaVuSans-20"/>
     <use x="266.015625" xlink:href="#DejaVuSans-6d"/>
     <use x="363.427734" xlink:href="#DejaVuSans-6f"/>
     <use x="424.609375" xlink:href="#DejaVuSans-77"/>
     <use x="506.396484" xlink:href="#DejaVuSans-65"/>
     <use x="567.919922" xlink:href="#DejaVuSans-72"/>
    </g>
   </g>
  </g>
 </g>
 <defs>
  <clipPath id="p711991d9a2">
   <rect height="266.112" width="357.12" x="46.965625" y="35.7555"/>
  </clipPath>
 </defs>
</svg>
