<?xml version="1.0" encoding="utf-8" standalone="no"?>
<!DOCTYPE svg PUBLIC "-//W3C//DTD SVG 1.1//EN"
  "http://www.w3.org/Graphics/SVG/1.1/DTD/svg11.dtd">
<!-- Created with matplotlib (http://matplotlib.org/) -->
<svg height="352pt" version="1.1" viewBox="0 0 491 352" width="491pt" xmlns="http://www.w3.org/2000/svg" xmlns:xlink="http://www.w3.org/1999/xlink">
 <defs>
  <style type="text/css">
*{stroke-linecap:butt;stroke-linejoin:round;}
  </style>
 </defs>
 <g id="figure_1">
  <g id="patch_1">
   <path d="M 0 352.861125 
L 491.671775 352.861125 
L 491.671775 0 
L 0 0 
z
" style="fill:#ffffff;"/>
  </g>
  <g id="axes_1">
   <g id="patch_2">
    <path d="M 40.603125 315.304875 
L 397.723125 315.304875 
L 397.723125 49.192875 
L 40.603125 49.192875 
z
" style="fill:#ffffff;"/>
   </g>
   <g id="matplotlib.axis_1">
    <g id="xtick_1">
     <g id="line2d_1">
      <path clip-path="url(#p3663ec02b3)" d="M 40.603125 315.304875 
L 40.603125 49.192875 
" style="fill:none;stroke:#b0b0b0;stroke-linecap:square;stroke-width:0.8;"/>
     </g>
     <g id="line2d_2">
      <defs>
       <path d="M 0 0 
L 0 3.5 
" id="m7b20b5fac8" style="stroke:#000000;stroke-width:0.8;"/>
      </defs>
      <g>
       <use style="stroke:#000000;stroke-width:0.8;" x="40.603125" xlink:href="#m7b20b5fac8" y="315.304875"/>
      </g>
     </g>
     <g id="text_1">
      <!-- 0 -->
      <defs>
       <path d="M 31.78125 66.40625 
Q 24.171875 66.40625 20.328125 58.90625 
Q 16.5 51.421875 16.5 36.375 
Q 16.5 21.390625 20.328125 13.890625 
Q 24.171875 6.390625 31.78125 6.390625 
Q 39.453125 6.390625 43.28125 13.890625 
Q 47.125 21.390625 47.125 36.375 
Q 47.125 51.421875 43.28125 58.90625 
Q 39.453125 66.40625 31.78125 66.40625 
z
M 31.78125 74.21875 
Q 44.046875 74.21875 50.515625 64.515625 
Q 56.984375 54.828125 56.984375 36.375 
Q 56.984375 17.96875 50.515625 8.265625 
Q 44.046875 -1.421875 31.78125 -1.421875 
Q 19.53125 -1.421875 13.0625 8.265625 
Q 6.59375 17.96875 6.59375 36.375 
Q 6.59375 54.828125 13.0625 64.515625 
Q 19.53125 74.21875 31.78125 74.21875 
z
" id="DejaVuSans-30"/>
      </defs>
      <g transform="translate(37.421875 329.903312)scale(0.1 -0.1)">
       <use xlink:href="#DejaVuSans-30"/>
      </g>
     </g>
    </g>
    <g id="xtick_2">
     <g id="line2d_3">
      <path clip-path="url(#p3663ec02b3)" d="M 84.341031 315.304875 
L 84.341031 49.192875 
" style="fill:none;stroke:#b0b0b0;stroke-linecap:square;stroke-width:0.8;"/>
     </g>
     <g id="line2d_4">
      <g>
       <use style="stroke:#000000;stroke-width:0.8;" x="84.341031" xlink:href="#m7b20b5fac8" y="315.304875"/>
      </g>
     </g>
     <g id="text_2">
      <!-- 200 -->
      <defs>
       <path d="M 19.1875 8.296875 
L 53.609375 8.296875 
L 53.609375 0 
L 7.328125 0 
L 7.328125 8.296875 
Q 12.9375 14.109375 22.625 23.890625 
Q 32.328125 33.6875 34.8125 36.53125 
Q 39.546875 41.84375 41.421875 45.53125 
Q 43.3125 49.21875 43.3125 52.78125 
Q 43.3125 58.59375 39.234375 62.25 
Q 35.15625 65.921875 28.609375 65.921875 
Q 23.96875 65.921875 18.8125 64.3125 
Q 13.671875 62.703125 7.8125 59.421875 
L 7.8125 69.390625 
Q 13.765625 71.78125 18.9375 73 
Q 24.125 74.21875 28.421875 74.21875 
Q 39.75 74.21875 46.484375 68.546875 
Q 53.21875 62.890625 53.21875 53.421875 
Q 53.21875 48.921875 51.53125 44.890625 
Q 49.859375 40.875 45.40625 35.40625 
Q 44.1875 33.984375 37.640625 27.21875 
Q 31.109375 20.453125 19.1875 8.296875 
z
" id="DejaVuSans-32"/>
      </defs>
      <g transform="translate(74.797281 329.903312)scale(0.1 -0.1)">
       <use xlink:href="#DejaVuSans-32"/>
       <use x="63.623047" xlink:href="#DejaVuSans-30"/>
       <use x="127.246094" xlink:href="#DejaVuSans-30"/>
      </g>
     </g>
    </g>
    <g id="xtick_3">
     <g id="line2d_5">
      <path clip-path="url(#p3663ec02b3)" d="M 128.078936 315.304875 
L 128.078936 49.192875 
" style="fill:none;stroke:#b0b0b0;stroke-linecap:square;stroke-width:0.8;"/>
     </g>
     <g id="line2d_6">
      <g>
       <use style="stroke:#000000;stroke-width:0.8;" x="128.078936" xlink:href="#m7b20b5fac8" y="315.304875"/>
      </g>
     </g>
     <g id="text_3">
      <!-- 400 -->
      <defs>
       <path d="M 37.796875 64.3125 
L 12.890625 25.390625 
L 37.796875 25.390625 
z
M 35.203125 72.90625 
L 47.609375 72.90625 
L 47.609375 25.390625 
L 58.015625 25.390625 
L 58.015625 17.1875 
L 47.609375 17.1875 
L 47.609375 0 
L 37.796875 0 
L 37.796875 17.1875 
L 4.890625 17.1875 
L 4.890625 26.703125 
z
" id="DejaVuSans-34"/>
      </defs>
      <g transform="translate(118.535186 329.903312)scale(0.1 -0.1)">
       <use xlink:href="#DejaVuSans-34"/>
       <use x="63.623047" xlink:href="#DejaVuSans-30"/>
       <use x="127.246094" xlink:href="#DejaVuSans-30"/>
      </g>
     </g>
    </g>
    <g id="xtick_4">
     <g id="line2d_7">
      <path clip-path="url(#p3663ec02b3)" d="M 171.816842 315.304875 
L 171.816842 49.192875 
" style="fill:none;stroke:#b0b0b0;stroke-linecap:square;stroke-width:0.8;"/>
     </g>
     <g id="line2d_8">
      <g>
       <use style="stroke:#000000;stroke-width:0.8;" x="171.816842" xlink:href="#m7b20b5fac8" y="315.304875"/>
      </g>
     </g>
     <g id="text_4">
      <!-- 600 -->
      <defs>
       <path d="M 33.015625 40.375 
Q 26.375 40.375 22.484375 35.828125 
Q 18.609375 31.296875 18.609375 23.390625 
Q 18.609375 15.53125 22.484375 10.953125 
Q 26.375 6.390625 33.015625 6.390625 
Q 39.65625 6.390625 43.53125 10.953125 
Q 47.40625 15.53125 47.40625 23.390625 
Q 47.40625 31.296875 43.53125 35.828125 
Q 39.65625 40.375 33.015625 40.375 
z
M 52.59375 71.296875 
L 52.59375 62.3125 
Q 48.875 64.0625 45.09375 64.984375 
Q 41.3125 65.921875 37.59375 65.921875 
Q 27.828125 65.921875 22.671875 59.328125 
Q 17.53125 52.734375 16.796875 39.40625 
Q 19.671875 43.65625 24.015625 45.921875 
Q 28.375 48.1875 33.59375 48.1875 
Q 44.578125 48.1875 50.953125 41.515625 
Q 57.328125 34.859375 57.328125 23.390625 
Q 57.328125 12.15625 50.6875 5.359375 
Q 44.046875 -1.421875 33.015625 -1.421875 
Q 20.359375 -1.421875 13.671875 8.265625 
Q 6.984375 17.96875 6.984375 36.375 
Q 6.984375 53.65625 15.1875 63.9375 
Q 23.390625 74.21875 37.203125 74.21875 
Q 40.921875 74.21875 44.703125 73.484375 
Q 48.484375 72.75 52.59375 71.296875 
z
" id="DejaVuSans-36"/>
      </defs>
      <g transform="translate(162.273092 329.903312)scale(0.1 -0.1)">
       <use xlink:href="#DejaVuSans-36"/>
       <use x="63.623047" xlink:href="#DejaVuSans-30"/>
       <use x="127.246094" xlink:href="#DejaVuSans-30"/>
      </g>
     </g>
    </g>
    <g id="xtick_5">
     <g id="line2d_9">
      <path clip-path="url(#p3663ec02b3)" d="M 215.554748 315.304875 
L 215.554748 49.192875 
" style="fill:none;stroke:#b0b0b0;stroke-linecap:square;stroke-width:0.8;"/>
     </g>
     <g id="line2d_10">
      <g>
       <use style="stroke:#000000;stroke-width:0.8;" x="215.554748" xlink:href="#m7b20b5fac8" y="315.304875"/>
      </g>
     </g>
     <g id="text_5">
      <!-- 800 -->
      <defs>
       <path d="M 31.78125 34.625 
Q 24.75 34.625 20.71875 30.859375 
Q 16.703125 27.09375 16.703125 20.515625 
Q 16.703125 13.921875 20.71875 10.15625 
Q 24.75 6.390625 31.78125 6.390625 
Q 38.8125 6.390625 42.859375 10.171875 
Q 46.921875 13.96875 46.921875 20.515625 
Q 46.921875 27.09375 42.890625 30.859375 
Q 38.875 34.625 31.78125 34.625 
z
M 21.921875 38.8125 
Q 15.578125 40.375 12.03125 44.71875 
Q 8.5 49.078125 8.5 55.328125 
Q 8.5 64.0625 14.71875 69.140625 
Q 20.953125 74.21875 31.78125 74.21875 
Q 42.671875 74.21875 48.875 69.140625 
Q 55.078125 64.0625 55.078125 55.328125 
Q 55.078125 49.078125 51.53125 44.71875 
Q 48 40.375 41.703125 38.8125 
Q 48.828125 37.15625 52.796875 32.3125 
Q 56.78125 27.484375 56.78125 20.515625 
Q 56.78125 9.90625 50.3125 4.234375 
Q 43.84375 -1.421875 31.78125 -1.421875 
Q 19.734375 -1.421875 13.25 4.234375 
Q 6.78125 9.90625 6.78125 20.515625 
Q 6.78125 27.484375 10.78125 32.3125 
Q 14.796875 37.15625 21.921875 38.8125 
z
M 18.3125 54.390625 
Q 18.3125 48.734375 21.84375 45.5625 
Q 25.390625 42.390625 31.78125 42.390625 
Q 38.140625 42.390625 41.71875 45.5625 
Q 45.3125 48.734375 45.3125 54.390625 
Q 45.3125 60.0625 41.71875 63.234375 
Q 38.140625 66.40625 31.78125 66.40625 
Q 25.390625 66.40625 21.84375 63.234375 
Q 18.3125 60.0625 18.3125 54.390625 
z
" id="DejaVuSans-38"/>
      </defs>
      <g transform="translate(206.010998 329.903312)scale(0.1 -0.1)">
       <use xlink:href="#DejaVuSans-38"/>
       <use x="63.623047" xlink:href="#DejaVuSans-30"/>
       <use x="127.246094" xlink:href="#DejaVuSans-30"/>
      </g>
     </g>
    </g>
    <g id="xtick_6">
     <g id="line2d_11">
      <path clip-path="url(#p3663ec02b3)" d="M 259.292653 315.304875 
L 259.292653 49.192875 
" style="fill:none;stroke:#b0b0b0;stroke-linecap:square;stroke-width:0.8;"/>
     </g>
     <g id="line2d_12">
      <g>
       <use style="stroke:#000000;stroke-width:0.8;" x="259.292653" xlink:href="#m7b20b5fac8" y="315.304875"/>
      </g>
     </g>
     <g id="text_6">
      <!-- 1000 -->
      <defs>
       <path d="M 12.40625 8.296875 
L 28.515625 8.296875 
L 28.515625 63.921875 
L 10.984375 60.40625 
L 10.984375 69.390625 
L 28.421875 72.90625 
L 38.28125 72.90625 
L 38.28125 8.296875 
L 54.390625 8.296875 
L 54.390625 0 
L 12.40625 0 
z
" id="DejaVuSans-31"/>
      </defs>
      <g transform="translate(246.567653 329.903312)scale(0.1 -0.1)">
       <use xlink:href="#DejaVuSans-31"/>
       <use x="63.623047" xlink:href="#DejaVuSans-30"/>
       <use x="127.246094" xlink:href="#DejaVuSans-30"/>
       <use x="190.869141" xlink:href="#DejaVuSans-30"/>
      </g>
     </g>
    </g>
    <g id="xtick_7">
     <g id="line2d_13">
      <path clip-path="url(#p3663ec02b3)" d="M 303.030559 315.304875 
L 303.030559 49.192875 
" style="fill:none;stroke:#b0b0b0;stroke-linecap:square;stroke-width:0.8;"/>
     </g>
     <g id="line2d_14">
      <g>
       <use style="stroke:#000000;stroke-width:0.8;" x="303.030559" xlink:href="#m7b20b5fac8" y="315.304875"/>
      </g>
     </g>
     <g id="text_7">
      <!-- 1200 -->
      <g transform="translate(290.305559 329.903312)scale(0.1 -0.1)">
       <use xlink:href="#DejaVuSans-31"/>
       <use x="63.623047" xlink:href="#DejaVuSans-32"/>
       <use x="127.246094" xlink:href="#DejaVuSans-30"/>
       <use x="190.869141" xlink:href="#DejaVuSans-30"/>
      </g>
     </g>
    </g>
    <g id="xtick_8">
     <g id="line2d_15">
      <path clip-path="url(#p3663ec02b3)" d="M 346.768465 315.304875 
L 346.768465 49.192875 
" style="fill:none;stroke:#b0b0b0;stroke-linecap:square;stroke-width:0.8;"/>
     </g>
     <g id="line2d_16">
      <g>
       <use style="stroke:#000000;stroke-width:0.8;" x="346.768465" xlink:href="#m7b20b5fac8" y="315.304875"/>
      </g>
     </g>
     <g id="text_8">
      <!-- 1400 -->
      <g transform="translate(334.043465 329.903312)scale(0.1 -0.1)">
       <use xlink:href="#DejaVuSans-31"/>
       <use x="63.623047" xlink:href="#DejaVuSans-34"/>
       <use x="127.246094" xlink:href="#DejaVuSans-30"/>
       <use x="190.869141" xlink:href="#DejaVuSans-30"/>
      </g>
     </g>
    </g>
    <g id="xtick_9">
     <g id="line2d_17">
      <path clip-path="url(#p3663ec02b3)" d="M 390.506371 315.304875 
L 390.506371 49.192875 
" style="fill:none;stroke:#b0b0b0;stroke-linecap:square;stroke-width:0.8;"/>
     </g>
     <g id="line2d_18">
      <g>
       <use style="stroke:#000000;stroke-width:0.8;" x="390.506371" xlink:href="#m7b20b5fac8" y="315.304875"/>
      </g>
     </g>
     <g id="text_9">
      <!-- 1600 -->
      <g transform="translate(377.781371 329.903312)scale(0.1 -0.1)">
       <use xlink:href="#DejaVuSans-31"/>
       <use x="63.623047" xlink:href="#DejaVuSans-36"/>
       <use x="127.246094" xlink:href="#DejaVuSans-30"/>
       <use x="190.869141" xlink:href="#DejaVuSans-30"/>
      </g>
     </g>
    </g>
    <g id="text_10">
     <!-- Time(s) -->
     <defs>
      <path d="M -0.296875 72.90625 
L 61.375 72.90625 
L 61.375 64.59375 
L 35.5 64.59375 
L 35.5 0 
L 25.59375 0 
L 25.59375 64.59375 
L -0.296875 64.59375 
z
" id="DejaVuSans-54"/>
      <path d="M 9.421875 54.6875 
L 18.40625 54.6875 
L 18.40625 0 
L 9.421875 0 
z
M 9.421875 75.984375 
L 18.40625 75.984375 
L 18.40625 64.59375 
L 9.421875 64.59375 
z
" id="DejaVuSans-69"/>
      <path d="M 52 44.1875 
Q 55.375 50.25 60.0625 53.125 
Q 64.75 56 71.09375 56 
Q 79.640625 56 84.28125 50.015625 
Q 88.921875 44.046875 88.921875 33.015625 
L 88.921875 0 
L 79.890625 0 
L 79.890625 32.71875 
Q 79.890625 40.578125 77.09375 44.375 
Q 74.3125 48.1875 68.609375 48.1875 
Q 61.625 48.1875 57.5625 43.546875 
Q 53.515625 38.921875 53.515625 30.90625 
L 53.515625 0 
L 44.484375 0 
L 44.484375 32.71875 
Q 44.484375 40.625 41.703125 44.40625 
Q 38.921875 48.1875 33.109375 48.1875 
Q 26.21875 48.1875 22.15625 43.53125 
Q 18.109375 38.875 18.109375 30.90625 
L 18.109375 0 
L 9.078125 0 
L 9.078125 54.6875 
L 18.109375 54.6875 
L 18.109375 46.1875 
Q 21.1875 51.21875 25.484375 53.609375 
Q 29.78125 56 35.6875 56 
Q 41.65625 56 45.828125 52.96875 
Q 50 49.953125 52 44.1875 
z
" id="DejaVuSans-6d"/>
      <path d="M 56.203125 29.59375 
L 56.203125 25.203125 
L 14.890625 25.203125 
Q 15.484375 15.921875 20.484375 11.0625 
Q 25.484375 6.203125 34.421875 6.203125 
Q 39.59375 6.203125 44.453125 7.46875 
Q 49.3125 8.734375 54.109375 11.28125 
L 54.109375 2.78125 
Q 49.265625 0.734375 44.1875 -0.34375 
Q 39.109375 -1.421875 33.890625 -1.421875 
Q 20.796875 -1.421875 13.15625 6.1875 
Q 5.515625 13.8125 5.515625 26.8125 
Q 5.515625 40.234375 12.765625 48.109375 
Q 20.015625 56 32.328125 56 
Q 43.359375 56 49.78125 48.890625 
Q 56.203125 41.796875 56.203125 29.59375 
z
M 47.21875 32.234375 
Q 47.125 39.59375 43.09375 43.984375 
Q 39.0625 48.390625 32.421875 48.390625 
Q 24.90625 48.390625 20.390625 44.140625 
Q 15.875 39.890625 15.1875 32.171875 
z
" id="DejaVuSans-65"/>
      <path d="M 31 75.875 
Q 24.46875 64.65625 21.28125 53.65625 
Q 18.109375 42.671875 18.109375 31.390625 
Q 18.109375 20.125 21.3125 9.0625 
Q 24.515625 -2 31 -13.1875 
L 23.1875 -13.1875 
Q 15.875 -1.703125 12.234375 9.375 
Q 8.59375 20.453125 8.59375 31.390625 
Q 8.59375 42.28125 12.203125 53.3125 
Q 15.828125 64.359375 23.1875 75.875 
z
" id="DejaVuSans-28"/>
      <path d="M 44.28125 53.078125 
L 44.28125 44.578125 
Q 40.484375 46.53125 36.375 47.5 
Q 32.28125 48.484375 27.875 48.484375 
Q 21.1875 48.484375 17.84375 46.4375 
Q 14.5 44.390625 14.5 40.28125 
Q 14.5 37.15625 16.890625 35.375 
Q 19.28125 33.59375 26.515625 31.984375 
L 29.59375 31.296875 
Q 39.15625 29.25 43.1875 25.515625 
Q 47.21875 21.78125 47.21875 15.09375 
Q 47.21875 7.46875 41.1875 3.015625 
Q 35.15625 -1.421875 24.609375 -1.421875 
Q 20.21875 -1.421875 15.453125 -0.5625 
Q 10.6875 0.296875 5.421875 2 
L 5.421875 11.28125 
Q 10.40625 8.6875 15.234375 7.390625 
Q 20.0625 6.109375 24.8125 6.109375 
Q 31.15625 6.109375 34.5625 8.28125 
Q 37.984375 10.453125 37.984375 14.40625 
Q 37.984375 18.0625 35.515625 20.015625 
Q 33.0625 21.96875 24.703125 23.78125 
L 21.578125 24.515625 
Q 13.234375 26.265625 9.515625 29.90625 
Q 5.8125 33.546875 5.8125 39.890625 
Q 5.8125 47.609375 11.28125 51.796875 
Q 16.75 56 26.8125 56 
Q 31.78125 56 36.171875 55.265625 
Q 40.578125 54.546875 44.28125 53.078125 
z
" id="DejaVuSans-73"/>
      <path d="M 8.015625 75.875 
L 15.828125 75.875 
Q 23.140625 64.359375 26.78125 53.3125 
Q 30.421875 42.28125 30.421875 31.390625 
Q 30.421875 20.453125 26.78125 9.375 
Q 23.140625 -1.703125 15.828125 -13.1875 
L 8.015625 -13.1875 
Q 14.5 -2 17.703125 9.0625 
Q 20.90625 20.125 20.90625 31.390625 
Q 20.90625 42.671875 17.703125 53.65625 
Q 14.5 64.65625 8.015625 75.875 
z
" id="DejaVuSans-29"/>
     </defs>
     <g transform="translate(200.269375 343.581437)scale(0.1 -0.1)">
      <use xlink:href="#DejaVuSans-54"/>
      <use x="61.037109" xlink:href="#DejaVuSans-69"/>
      <use x="88.820312" xlink:href="#DejaVuSans-6d"/>
      <use x="186.232422" xlink:href="#DejaVuSans-65"/>
      <use x="247.755859" xlink:href="#DejaVuSans-28"/>
      <use x="286.769531" xlink:href="#DejaVuSans-73"/>
      <use x="338.869141" xlink:href="#DejaVuSans-29"/>
     </g>
    </g>
   </g>
   <g id="matplotlib.axis_2">
    <g id="ytick_1">
     <g id="line2d_19">
      <path clip-path="url(#p3663ec02b3)" d="M 40.603125 303.208875 
L 397.723125 303.208875 
" style="fill:none;stroke:#b0b0b0;stroke-linecap:square;stroke-width:0.8;"/>
     </g>
     <g id="line2d_20">
      <defs>
       <path d="M 0 0 
L -3.5 0 
" id="md58b4fe489" style="stroke:#000000;stroke-width:0.8;"/>
      </defs>
      <g>
       <use style="stroke:#000000;stroke-width:0.8;" x="40.603125" xlink:href="#md58b4fe489" y="303.208875"/>
      </g>
     </g>
     <g id="text_11">
      <!-- 0 -->
      <g transform="translate(27.240625 307.008094)scale(0.1 -0.1)">
       <use xlink:href="#DejaVuSans-30"/>
      </g>
     </g>
    </g>
    <g id="ytick_2">
     <g id="line2d_21">
      <path clip-path="url(#p3663ec02b3)" d="M 40.603125 271.377296 
L 397.723125 271.377296 
" style="fill:none;stroke:#b0b0b0;stroke-linecap:square;stroke-width:0.8;"/>
     </g>
     <g id="line2d_22">
      <g>
       <use style="stroke:#000000;stroke-width:0.8;" x="40.603125" xlink:href="#md58b4fe489" y="271.377296"/>
      </g>
     </g>
     <g id="text_12">
      <!-- 5 -->
      <defs>
       <path d="M 10.796875 72.90625 
L 49.515625 72.90625 
L 49.515625 64.59375 
L 19.828125 64.59375 
L 19.828125 46.734375 
Q 21.96875 47.46875 24.109375 47.828125 
Q 26.265625 48.1875 28.421875 48.1875 
Q 40.625 48.1875 47.75 41.5 
Q 54.890625 34.8125 54.890625 23.390625 
Q 54.890625 11.625 47.5625 5.09375 
Q 40.234375 -1.421875 26.90625 -1.421875 
Q 22.3125 -1.421875 17.546875 -0.640625 
Q 12.796875 0.140625 7.71875 1.703125 
L 7.71875 11.625 
Q 12.109375 9.234375 16.796875 8.0625 
Q 21.484375 6.890625 26.703125 6.890625 
Q 35.15625 6.890625 40.078125 11.328125 
Q 45.015625 15.765625 45.015625 23.390625 
Q 45.015625 31 40.078125 35.4375 
Q 35.15625 39.890625 26.703125 39.890625 
Q 22.75 39.890625 18.8125 39.015625 
Q 14.890625 38.140625 10.796875 36.28125 
z
" id="DejaVuSans-35"/>
      </defs>
      <g transform="translate(27.240625 275.176515)scale(0.1 -0.1)">
       <use xlink:href="#DejaVuSans-35"/>
      </g>
     </g>
    </g>
    <g id="ytick_3">
     <g id="line2d_23">
      <path clip-path="url(#p3663ec02b3)" d="M 40.603125 239.545717 
L 397.723125 239.545717 
" style="fill:none;stroke:#b0b0b0;stroke-linecap:square;stroke-width:0.8;"/>
     </g>
     <g id="line2d_24">
      <g>
       <use style="stroke:#000000;stroke-width:0.8;" x="40.603125" xlink:href="#md58b4fe489" y="239.545717"/>
      </g>
     </g>
     <g id="text_13">
      <!-- 10 -->
      <g transform="translate(20.878125 243.344936)scale(0.1 -0.1)">
       <use xlink:href="#DejaVuSans-31"/>
       <use x="63.623047" xlink:href="#DejaVuSans-30"/>
      </g>
     </g>
    </g>
    <g id="ytick_4">
     <g id="line2d_25">
      <path clip-path="url(#p3663ec02b3)" d="M 40.603125 207.714138 
L 397.723125 207.714138 
" style="fill:none;stroke:#b0b0b0;stroke-linecap:square;stroke-width:0.8;"/>
     </g>
     <g id="line2d_26">
      <g>
       <use style="stroke:#000000;stroke-width:0.8;" x="40.603125" xlink:href="#md58b4fe489" y="207.714138"/>
      </g>
     </g>
     <g id="text_14">
      <!-- 15 -->
      <g transform="translate(20.878125 211.513357)scale(0.1 -0.1)">
       <use xlink:href="#DejaVuSans-31"/>
       <use x="63.623047" xlink:href="#DejaVuSans-35"/>
      </g>
     </g>
    </g>
    <g id="ytick_5">
     <g id="line2d_27">
      <path clip-path="url(#p3663ec02b3)" d="M 40.603125 175.882559 
L 397.723125 175.882559 
" style="fill:none;stroke:#b0b0b0;stroke-linecap:square;stroke-width:0.8;"/>
     </g>
     <g id="line2d_28">
      <g>
       <use style="stroke:#000000;stroke-width:0.8;" x="40.603125" xlink:href="#md58b4fe489" y="175.882559"/>
      </g>
     </g>
     <g id="text_15">
      <!-- 20 -->
      <g transform="translate(20.878125 179.681778)scale(0.1 -0.1)">
       <use xlink:href="#DejaVuSans-32"/>
       <use x="63.623047" xlink:href="#DejaVuSans-30"/>
      </g>
     </g>
    </g>
    <g id="ytick_6">
     <g id="line2d_29">
      <path clip-path="url(#p3663ec02b3)" d="M 40.603125 144.05098 
L 397.723125 144.05098 
" style="fill:none;stroke:#b0b0b0;stroke-linecap:square;stroke-width:0.8;"/>
     </g>
     <g id="line2d_30">
      <g>
       <use style="stroke:#000000;stroke-width:0.8;" x="40.603125" xlink:href="#md58b4fe489" y="144.05098"/>
      </g>
     </g>
     <g id="text_16">
      <!-- 25 -->
      <g transform="translate(20.878125 147.850199)scale(0.1 -0.1)">
       <use xlink:href="#DejaVuSans-32"/>
       <use x="63.623047" xlink:href="#DejaVuSans-35"/>
      </g>
     </g>
    </g>
    <g id="ytick_7">
     <g id="line2d_31">
      <path clip-path="url(#p3663ec02b3)" d="M 40.603125 112.219401 
L 397.723125 112.219401 
" style="fill:none;stroke:#b0b0b0;stroke-linecap:square;stroke-width:0.8;"/>
     </g>
     <g id="line2d_32">
      <g>
       <use style="stroke:#000000;stroke-width:0.8;" x="40.603125" xlink:href="#md58b4fe489" y="112.219401"/>
      </g>
     </g>
     <g id="text_17">
      <!-- 30 -->
      <defs>
       <path d="M 40.578125 39.3125 
Q 47.65625 37.796875 51.625 33 
Q 55.609375 28.21875 55.609375 21.1875 
Q 55.609375 10.40625 48.1875 4.484375 
Q 40.765625 -1.421875 27.09375 -1.421875 
Q 22.515625 -1.421875 17.65625 -0.515625 
Q 12.796875 0.390625 7.625 2.203125 
L 7.625 11.71875 
Q 11.71875 9.328125 16.59375 8.109375 
Q 21.484375 6.890625 26.8125 6.890625 
Q 36.078125 6.890625 40.9375 10.546875 
Q 45.796875 14.203125 45.796875 21.1875 
Q 45.796875 27.640625 41.28125 31.265625 
Q 36.765625 34.90625 28.71875 34.90625 
L 20.21875 34.90625 
L 20.21875 43.015625 
L 29.109375 43.015625 
Q 36.375 43.015625 40.234375 45.921875 
Q 44.09375 48.828125 44.09375 54.296875 
Q 44.09375 59.90625 40.109375 62.90625 
Q 36.140625 65.921875 28.71875 65.921875 
Q 24.65625 65.921875 20.015625 65.03125 
Q 15.375 64.15625 9.8125 62.3125 
L 9.8125 71.09375 
Q 15.4375 72.65625 20.34375 73.4375 
Q 25.25 74.21875 29.59375 74.21875 
Q 40.828125 74.21875 47.359375 69.109375 
Q 53.90625 64.015625 53.90625 55.328125 
Q 53.90625 49.265625 50.4375 45.09375 
Q 46.96875 40.921875 40.578125 39.3125 
z
" id="DejaVuSans-33"/>
      </defs>
      <g transform="translate(20.878125 116.01862)scale(0.1 -0.1)">
       <use xlink:href="#DejaVuSans-33"/>
       <use x="63.623047" xlink:href="#DejaVuSans-30"/>
      </g>
     </g>
    </g>
    <g id="ytick_8">
     <g id="line2d_33">
      <path clip-path="url(#p3663ec02b3)" d="M 40.603125 80.387822 
L 397.723125 80.387822 
" style="fill:none;stroke:#b0b0b0;stroke-linecap:square;stroke-width:0.8;"/>
     </g>
     <g id="line2d_34">
      <g>
       <use style="stroke:#000000;stroke-width:0.8;" x="40.603125" xlink:href="#md58b4fe489" y="80.387822"/>
      </g>
     </g>
     <g id="text_18">
      <!-- 35 -->
      <g transform="translate(20.878125 84.187041)scale(0.1 -0.1)">
       <use xlink:href="#DejaVuSans-33"/>
       <use x="63.623047" xlink:href="#DejaVuSans-35"/>
      </g>
     </g>
    </g>
    <g id="text_19">
     <!-- Discovered Nodes -->
     <defs>
      <path d="M 19.671875 64.796875 
L 19.671875 8.109375 
L 31.59375 8.109375 
Q 46.6875 8.109375 53.6875 14.9375 
Q 60.6875 21.78125 60.6875 36.53125 
Q 60.6875 51.171875 53.6875 57.984375 
Q 46.6875 64.796875 31.59375 64.796875 
z
M 9.8125 72.90625 
L 30.078125 72.90625 
Q 51.265625 72.90625 61.171875 64.09375 
Q 71.09375 55.28125 71.09375 36.53125 
Q 71.09375 17.671875 61.125 8.828125 
Q 51.171875 0 30.078125 0 
L 9.8125 0 
z
" id="DejaVuSans-44"/>
      <path d="M 48.78125 52.59375 
L 48.78125 44.1875 
Q 44.96875 46.296875 41.140625 47.34375 
Q 37.3125 48.390625 33.40625 48.390625 
Q 24.65625 48.390625 19.8125 42.84375 
Q 14.984375 37.3125 14.984375 27.296875 
Q 14.984375 17.28125 19.8125 11.734375 
Q 24.65625 6.203125 33.40625 6.203125 
Q 37.3125 6.203125 41.140625 7.25 
Q 44.96875 8.296875 48.78125 10.40625 
L 48.78125 2.09375 
Q 45.015625 0.34375 40.984375 -0.53125 
Q 36.96875 -1.421875 32.421875 -1.421875 
Q 20.0625 -1.421875 12.78125 6.34375 
Q 5.515625 14.109375 5.515625 27.296875 
Q 5.515625 40.671875 12.859375 48.328125 
Q 20.21875 56 33.015625 56 
Q 37.15625 56 41.109375 55.140625 
Q 45.0625 54.296875 48.78125 52.59375 
z
" id="DejaVuSans-63"/>
      <path d="M 30.609375 48.390625 
Q 23.390625 48.390625 19.1875 42.75 
Q 14.984375 37.109375 14.984375 27.296875 
Q 14.984375 17.484375 19.15625 11.84375 
Q 23.34375 6.203125 30.609375 6.203125 
Q 37.796875 6.203125 41.984375 11.859375 
Q 46.1875 17.53125 46.1875 27.296875 
Q 46.1875 37.015625 41.984375 42.703125 
Q 37.796875 48.390625 30.609375 48.390625 
z
M 30.609375 56 
Q 42.328125 56 49.015625 48.375 
Q 55.71875 40.765625 55.71875 27.296875 
Q 55.71875 13.875 49.015625 6.21875 
Q 42.328125 -1.421875 30.609375 -1.421875 
Q 18.84375 -1.421875 12.171875 6.21875 
Q 5.515625 13.875 5.515625 27.296875 
Q 5.515625 40.765625 12.171875 48.375 
Q 18.84375 56 30.609375 56 
z
" id="DejaVuSans-6f"/>
      <path d="M 2.984375 54.6875 
L 12.5 54.6875 
L 29.59375 8.796875 
L 46.6875 54.6875 
L 56.203125 54.6875 
L 35.6875 0 
L 23.484375 0 
z
" id="DejaVuSans-76"/>
      <path d="M 41.109375 46.296875 
Q 39.59375 47.171875 37.8125 47.578125 
Q 36.03125 48 33.890625 48 
Q 26.265625 48 22.1875 43.046875 
Q 18.109375 38.09375 18.109375 28.8125 
L 18.109375 0 
L 9.078125 0 
L 9.078125 54.6875 
L 18.109375 54.6875 
L 18.109375 46.1875 
Q 20.953125 51.171875 25.484375 53.578125 
Q 30.03125 56 36.53125 56 
Q 37.453125 56 38.578125 55.875 
Q 39.703125 55.765625 41.0625 55.515625 
z
" id="DejaVuSans-72"/>
      <path d="M 45.40625 46.390625 
L 45.40625 75.984375 
L 54.390625 75.984375 
L 54.390625 0 
L 45.40625 0 
L 45.40625 8.203125 
Q 42.578125 3.328125 38.25 0.953125 
Q 33.9375 -1.421875 27.875 -1.421875 
Q 17.96875 -1.421875 11.734375 6.484375 
Q 5.515625 14.40625 5.515625 27.296875 
Q 5.515625 40.1875 11.734375 48.09375 
Q 17.96875 56 27.875 56 
Q 33.9375 56 38.25 53.625 
Q 42.578125 51.265625 45.40625 46.390625 
z
M 14.796875 27.296875 
Q 14.796875 17.390625 18.875 11.75 
Q 22.953125 6.109375 30.078125 6.109375 
Q 37.203125 6.109375 41.296875 11.75 
Q 45.40625 17.390625 45.40625 27.296875 
Q 45.40625 37.203125 41.296875 42.84375 
Q 37.203125 48.484375 30.078125 48.484375 
Q 22.953125 48.484375 18.875 42.84375 
Q 14.796875 37.203125 14.796875 27.296875 
z
" id="DejaVuSans-64"/>
      <path id="DejaVuSans-20"/>
      <path d="M 9.8125 72.90625 
L 23.09375 72.90625 
L 55.421875 11.921875 
L 55.421875 72.90625 
L 64.984375 72.90625 
L 64.984375 0 
L 51.703125 0 
L 19.390625 60.984375 
L 19.390625 0 
L 9.8125 0 
z
" id="DejaVuSans-4e"/>
     </defs>
     <g transform="translate(14.798438 227.486375)rotate(-90)scale(0.1 -0.1)">
      <use xlink:href="#DejaVuSans-44"/>
      <use x="77.001953" xlink:href="#DejaVuSans-69"/>
      <use x="104.785156" xlink:href="#DejaVuSans-73"/>
      <use x="156.884766" xlink:href="#DejaVuSans-63"/>
      <use x="211.865234" xlink:href="#DejaVuSans-6f"/>
      <use x="273.046875" xlink:href="#DejaVuSans-76"/>
      <use x="332.226562" xlink:href="#DejaVuSans-65"/>
      <use x="393.75" xlink:href="#DejaVuSans-72"/>
      <use x="434.832031" xlink:href="#DejaVuSans-65"/>
      <use x="496.355469" xlink:href="#DejaVuSans-64"/>
      <use x="559.832031" xlink:href="#DejaVuSans-20"/>
      <use x="591.619141" xlink:href="#DejaVuSans-4e"/>
      <use x="666.423828" xlink:href="#DejaVuSans-6f"/>
      <use x="727.605469" xlink:href="#DejaVuSans-64"/>
      <use x="791.082031" xlink:href="#DejaVuSans-65"/>
      <use x="852.605469" xlink:href="#DejaVuSans-73"/>
     </g>
    </g>
   </g>
   <g id="line2d_35">
    <path clip-path="url(#p3663ec02b3)" d="M 40.603125 303.208875 
L 73.406554 303.208875 
L 73.625244 296.842559 
L 74.500002 296.842559 
L 74.718691 290.476243 
L 80.18593 290.476243 
L 80.404619 296.842559 
L 81.716756 296.842559 
L 81.935446 303.208875 
L 123.049077 303.208875 
L 123.267767 296.842559 
L 127.641557 296.842559 
L 128.078936 284.109928 
L 128.953695 284.109928 
L 129.172384 277.743612 
L 129.609763 277.743612 
L 129.828453 284.109928 
L 132.234037 284.109928 
L 132.452727 290.476243 
L 133.108796 290.476243 
L 133.327485 296.842559 
L 134.858312 296.842559 
L 135.077001 303.208875 
L 190.405452 303.208875 
L 190.624142 296.842559 
L 191.936279 296.842559 
L 192.154968 290.476243 
L 197.840896 290.476243 
L 198.059586 296.842559 
L 201.121239 296.842559 
L 201.339928 303.208875 
L 225.177087 303.208875 
L 225.395777 296.842559 
L 233.04991 296.842559 
L 233.2686 303.208875 
L 242.45356 303.208875 
L 242.672249 296.842559 
L 244.859145 296.842559 
L 245.077834 290.476243 
L 246.171282 290.476243 
L 246.389971 296.842559 
L 247.04604 296.842559 
L 247.264729 290.476243 
L 264.978581 290.476243 
L 265.197271 284.109928 
L 265.41596 284.109928 
L 265.63465 290.476243 
L 266.290718 290.476243 
L 266.509408 284.109928 
L 266.946787 284.109928 
L 267.165477 290.476243 
L 267.821545 290.476243 
L 268.040235 284.109928 
L 268.477614 284.109928 
L 268.696303 290.476243 
L 269.133682 290.476243 
L 269.352372 284.109928 
L 270.22713 284.109928 
L 270.445819 290.476243 
L 270.664509 284.109928 
L 275.256989 284.109928 
L 275.475679 277.743612 
L 275.913058 277.743612 
L 276.131747 284.109928 
L 276.569126 284.109928 
L 276.787816 277.743612 
L 277.443884 277.743612 
L 277.662574 284.109928 
L 277.881263 284.109928 
L 278.099953 277.743612 
L 292.970841 277.743612 
L 293.18953 284.109928 
L 293.40822 284.109928 
L 293.626909 277.743612 
L 294.064289 277.743612 
L 294.282978 284.109928 
L 295.157736 284.109928 
L 295.376426 290.476243 
L 295.595115 290.476243 
L 295.813805 284.109928 
L 296.469873 284.109928 
L 296.688563 290.476243 
L 297.344631 290.476243 
L 297.563321 284.109928 
L 297.78201 284.109928 
L 298.0007 290.476243 
L 330.36675 290.476243 
L 330.58544 296.842559 
L 348.517981 296.842559 
L 348.736671 303.208875 
L 348.95536 303.208875 
L 349.17405 296.842559 
L 349.830118 296.842559 
L 350.048808 303.208875 
L 350.486187 303.208875 
L 350.704876 296.842559 
L 351.142255 296.842559 
L 351.360945 303.208875 
L 352.017014 303.208875 
L 352.235703 296.842559 
L 352.673082 296.842559 
L 352.891772 303.208875 
L 353.76653 303.208875 
L 353.985219 296.842559 
L 354.203909 303.208875 
L 390.72506 303.208875 
L 390.94375 296.842559 
L 391.162439 296.842559 
L 391.381129 303.208875 
L 392.037197 303.208875 
L 392.255887 296.842559 
L 392.911955 296.842559 
L 393.130645 303.208875 
L 393.349334 303.208875 
L 393.568024 296.842559 
L 394.442782 296.842559 
L 394.661472 303.208875 
L 394.880161 303.208875 
L 395.098851 296.842559 
L 397.504435 296.842559 
L 397.504435 296.842559 
" style="fill:none;stroke:#008000;stroke-linecap:square;stroke-width:1.5;"/>
   </g>
   <g id="line2d_36">
    <path clip-path="url(#p3663ec02b3)" d="M 40.603125 303.208875 
L 71.438349 303.208875 
L 71.657038 296.842559 
L 76.249518 296.842559 
L 76.468208 303.208875 
L 81.279377 303.208875 
L 81.498067 296.842559 
L 87.183995 296.842559 
L 87.402684 303.208875 
L 94.619439 303.208875 
L 94.838128 296.842559 
L 99.649298 296.842559 
L 99.867987 290.476243 
L 100.086677 290.476243 
L 100.305366 284.109928 
L 101.617503 284.109928 
L 101.836193 277.743612 
L 102.054883 284.109928 
L 103.585709 284.109928 
L 103.804399 277.743612 
L 104.460467 277.743612 
L 104.679157 284.109928 
L 106.209984 284.109928 
L 106.428673 290.476243 
L 107.303431 290.476243 
L 107.522121 296.842559 
L 108.178189 296.842559 
L 108.396879 303.208875 
L 163.50664 303.208875 
L 163.72533 296.842559 
L 164.381398 296.842559 
L 164.600088 290.476243 
L 166.130914 290.476243 
L 166.349604 284.109928 
L 167.005672 284.109928 
L 167.224362 277.743612 
L 167.661741 277.743612 
L 167.880431 284.109928 
L 169.192568 284.109928 
L 169.411257 277.743612 
L 174.222427 277.743612 
L 174.441116 284.109928 
L 177.721459 284.109928 
L 177.940149 290.476243 
L 178.377528 290.476243 
L 178.596217 296.842559 
L 179.689665 296.842559 
L 179.908355 303.208875 
L 193.029726 303.208875 
L 193.248416 296.842559 
L 193.467105 284.109928 
L 194.779243 284.109928 
L 194.997932 277.743612 
L 198.278275 277.743612 
L 198.496965 284.109928 
L 199.590412 284.109928 
L 199.809102 290.476243 
L 200.902549 290.476243 
L 201.121239 296.842559 
L 202.433376 296.842559 
L 202.652066 303.208875 
L 212.055715 303.208875 
L 212.274405 296.842559 
L 212.493094 296.842559 
L 212.930473 284.109928 
L 217.304264 284.109928 
L 217.741643 296.842559 
L 220.584607 296.842559 
L 220.803296 284.109928 
L 232.612531 284.109928 
L 232.831221 290.476243 
L 233.04991 290.476243 
L 233.2686 284.109928 
L 237.423701 284.109928 
L 237.64239 290.476243 
L 239.173217 290.476243 
L 239.610596 277.743612 
L 241.141423 277.743612 
L 241.360112 284.109928 
L 242.016181 284.109928 
L 242.23487 277.743612 
L 244.640455 277.743612 
L 244.859145 284.109928 
L 245.077834 284.109928 
L 245.296524 277.743612 
L 245.733903 277.743612 
L 245.952592 284.109928 
L 263.447755 284.109928 
L 263.666444 290.476243 
L 264.103823 290.476243 
L 264.322513 284.109928 
L 264.541202 284.109928 
L 264.759892 290.476243 
L 298.875458 290.476243 
L 299.094148 284.109928 
L 299.750216 284.109928 
L 299.968906 290.476243 
L 300.187595 284.109928 
L 319.213584 284.109928 
L 319.432274 290.476243 
L 358.35901 290.476243 
L 358.577699 284.109928 
L 397.504435 284.109928 
L 397.504435 284.109928 
" style="fill:none;stroke:#0000ff;stroke-linecap:square;stroke-width:1.5;"/>
   </g>
   <g id="line2d_37">
    <path clip-path="url(#p3663ec02b3)" d="M 40.603125 303.208875 
L 71.875728 303.208875 
L 72.094417 296.842559 
L 74.062623 296.842559 
L 74.281312 290.476243 
L 74.937381 290.476243 
L 75.15607 277.743612 
L 75.37476 277.743612 
L 75.812139 265.01098 
L 76.030829 265.01098 
L 76.249518 258.644664 
L 77.999034 258.644664 
L 78.217724 265.01098 
L 78.655103 265.01098 
L 79.092482 252.278349 
L 79.311172 252.278349 
L 79.529861 258.644664 
L 81.935446 258.644664 
L 82.154135 252.278349 
L 82.372825 277.743612 
L 83.684962 277.743612 
L 83.903652 284.109928 
L 84.997099 284.109928 
L 85.215789 290.476243 
L 85.434478 303.208875 
L 112.989359 303.208875 
L 113.426738 290.476243 
L 114.520186 290.476243 
L 114.738875 284.109928 
L 116.051012 284.109928 
L 116.269702 277.743612 
L 116.92577 277.743612 
L 117.14446 271.377296 
L 117.363149 277.743612 
L 117.581839 277.743612 
L 117.800529 271.377296 
L 118.019218 271.377296 
L 118.237908 265.01098 
L 119.112666 265.01098 
L 119.331355 258.644664 
L 119.768734 258.644664 
L 119.987424 265.01098 
L 120.424803 265.01098 
L 120.643492 258.644664 
L 121.080871 258.644664 
L 121.299561 265.01098 
L 121.518251 265.01098 
L 121.73694 271.377296 
L 121.95563 284.109928 
L 124.142525 284.109928 
L 124.579904 296.842559 
L 126.54811 296.842559 
L 126.766799 290.476243 
L 128.297626 290.476243 
L 128.516315 277.743612 
L 130.265832 277.743612 
L 130.484521 284.109928 
L 133.327485 284.109928 
L 133.546175 290.476243 
L 135.51438 290.476243 
L 135.73307 303.208875 
L 166.568293 303.208875 
L 166.786983 296.842559 
L 167.224362 296.842559 
L 167.443052 290.476243 
L 168.09912 290.476243 
L 168.31781 284.109928 
L 170.723394 284.109928 
L 170.942084 277.743612 
L 171.160773 277.743612 
L 171.598153 258.644664 
L 171.816842 252.278349 
L 172.91029 252.278349 
L 173.128979 258.644664 
L 173.347669 258.644664 
L 173.566358 265.01098 
L 179.470976 265.01098 
L 179.908355 277.743612 
L 180.127044 277.743612 
L 180.345734 284.109928 
L 180.564423 284.109928 
L 181.220492 303.208875 
L 211.618336 303.208875 
L 211.837026 296.842559 
L 212.055715 296.842559 
L 212.274405 290.476243 
L 212.930473 290.476243 
L 213.149163 284.109928 
L 213.586542 284.109928 
L 213.805232 277.743612 
L 214.023921 277.743612 
L 214.242611 271.377296 
L 215.554748 271.377296 
L 215.773437 265.01098 
L 215.992127 265.01098 
L 216.210816 258.644664 
L 219.05378 258.644664 
L 219.27247 252.278349 
L 219.928538 252.278349 
L 220.147228 258.644664 
L 220.365917 258.644664 
L 220.803296 271.377296 
L 223.208881 271.377296 
L 223.427571 265.01098 
L 224.521018 265.01098 
L 224.739708 277.743612 
L 226.707914 277.743612 
L 227.145293 290.476243 
L 228.23874 290.476243 
L 228.45743 284.109928 
L 229.550878 284.109928 
L 229.769567 277.743612 
L 229.988257 277.743612 
L 230.425636 265.01098 
L 230.644325 265.01098 
L 230.863015 258.644664 
L 231.519083 258.644664 
L 231.737773 265.01098 
L 231.956462 265.01098 
L 232.175152 258.644664 
L 232.612531 258.644664 
L 232.831221 252.278349 
L 233.487289 252.278349 
L 233.705979 245.912033 
L 234.143358 245.912033 
L 234.362047 239.545717 
L 234.580737 245.912033 
L 235.892874 245.912033 
L 236.111563 252.278349 
L 236.986322 252.278349 
L 237.205011 258.644664 
L 238.298459 258.644664 
L 238.517148 265.01098 
L 238.954527 265.01098 
L 239.173217 271.377296 
L 240.266664 271.377296 
L 240.704044 284.109928 
L 241.360112 284.109928 
L 241.578802 271.377296 
L 242.672249 271.377296 
L 242.890939 265.01098 
L 243.109628 265.01098 
L 243.547007 252.278349 
L 243.984386 252.278349 
L 244.203076 245.912033 
L 244.640455 245.912033 
L 244.859145 239.545717 
L 245.077834 245.912033 
L 290.346567 245.912033 
L 290.565256 252.278349 
L 290.783946 252.278349 
L 291.002635 245.912033 
L 291.221325 245.912033 
L 291.440014 252.278349 
L 310.903382 252.278349 
L 311.122072 245.912033 
L 311.340761 252.278349 
L 311.559451 252.278349 
L 311.77814 245.912033 
L 311.99683 245.912033 
L 312.215519 239.545717 
L 312.434209 245.912033 
L 312.652898 245.912033 
L 312.871588 239.545717 
L 313.090277 245.912033 
L 313.308967 245.912033 
L 313.527657 239.545717 
L 314.402415 239.545717 
L 314.621104 233.179401 
L 314.839794 233.179401 
L 315.058483 226.813086 
L 317.026689 226.813086 
L 317.245379 233.179401 
L 317.464068 233.179401 
L 317.682758 226.813086 
L 318.557516 226.813086 
L 318.776205 233.179401 
L 318.994895 226.813086 
L 324.680822 226.813086 
L 324.899512 233.179401 
L 325.336891 233.179401 
L 325.555581 226.813086 
L 326.211649 245.912033 
L 326.430339 233.179401 
L 326.867718 233.179401 
L 327.086407 239.545717 
L 327.305097 239.545717 
L 327.523786 245.912033 
L 327.742476 245.912033 
L 328.179855 233.179401 
L 328.398544 239.545717 
L 328.835924 239.545717 
L 329.054613 245.912033 
L 329.273303 245.912033 
L 329.491992 239.545717 
L 330.148061 239.545717 
L 330.36675 245.912033 
L 330.804129 245.912033 
L 331.022819 239.545717 
L 331.460198 239.545717 
L 331.678887 245.912033 
L 332.334956 245.912033 
L 332.553646 239.545717 
L 332.991025 239.545717 
L 333.209714 245.912033 
L 334.084472 245.912033 
L 334.303162 239.545717 
L 334.521851 245.912033 
L 344.58157 245.912033 
L 344.800259 239.545717 
L 350.704876 239.545717 
L 350.923566 245.912033 
L 366.887901 245.912033 
L 367.106591 252.278349 
L 367.76266 252.278349 
L 367.981349 245.912033 
L 368.200039 252.278349 
L 376.510241 252.278349 
L 376.72893 258.644664 
L 377.384999 258.644664 
L 377.603688 252.278349 
L 377.822378 252.278349 
L 378.041067 258.644664 
L 394.224093 258.644664 
L 394.442782 252.278349 
L 397.504435 252.278349 
L 397.504435 252.278349 
" style="fill:none;stroke:#ff0000;stroke-linecap:square;stroke-width:1.5;"/>
   </g>
   <g id="line2d_38">
    <path clip-path="url(#p3663ec02b3)" d="M 40.603125 303.208875 
L 107.9595 303.208875 
L 108.178189 290.476243 
L 108.396879 290.476243 
L 108.615568 284.109928 
L 109.709016 284.109928 
L 109.927706 277.743612 
L 110.365085 277.743612 
L 110.583774 258.644664 
L 110.802464 258.644664 
L 111.021153 252.278349 
L 111.677222 252.278349 
L 111.895911 245.912033 
L 113.208048 245.912033 
L 113.426738 239.545717 
L 113.864117 239.545717 
L 114.082807 245.912033 
L 114.520186 245.912033 
L 114.738875 239.545717 
L 114.957565 239.545717 
L 115.176254 245.912033 
L 115.394944 245.912033 
L 115.613633 239.545717 
L 115.832323 245.912033 
L 116.269702 265.01098 
L 116.488391 265.01098 
L 116.92577 277.743612 
L 117.14446 277.743612 
L 117.363149 284.109928 
L 117.581839 284.109928 
L 117.800529 290.476243 
L 118.019218 290.476243 
L 118.237908 296.842559 
L 119.550045 296.842559 
L 119.768734 303.208875 
L 133.546175 303.208875 
L 133.764864 296.842559 
L 135.51438 296.842559 
L 135.73307 290.476243 
L 135.951759 290.476243 
L 136.170449 284.109928 
L 137.045207 284.109928 
L 137.263897 290.476243 
L 137.919965 290.476243 
L 138.138655 284.109928 
L 138.357344 271.377296 
L 138.576034 271.377296 
L 138.794723 265.01098 
L 140.981619 265.01098 
L 141.200308 271.377296 
L 141.418998 271.377296 
L 141.637687 265.01098 
L 142.075066 265.01098 
L 142.293756 258.644664 
L 142.731135 258.644664 
L 143.168514 245.912033 
L 143.387203 245.912033 
L 143.824582 233.179401 
L 144.261961 233.179401 
L 144.480651 207.714138 
L 144.699341 207.714138 
L 144.91803 201.347822 
L 145.355409 182.248875 
L 145.574099 175.882559 
L 145.792788 175.882559 
L 146.230167 163.149928 
L 146.448857 163.149928 
L 146.667546 156.783612 
L 147.323615 156.783612 
L 147.542304 144.05098 
L 147.760994 150.417296 
L 147.979683 150.417296 
L 148.417063 131.318349 
L 148.854442 131.318349 
L 149.073131 118.585717 
L 149.291821 124.952033 
L 149.7292 112.219401 
L 150.166579 112.219401 
L 150.385268 118.585717 
L 150.603958 118.585717 
L 150.822647 124.952033 
L 151.260026 124.952033 
L 151.478716 137.684664 
L 152.353474 137.684664 
L 152.572164 144.05098 
L 152.790853 156.783612 
L 153.009543 156.783612 
L 153.228232 163.149928 
L 153.446922 163.149928 
L 153.665611 182.248875 
L 154.10299 194.981507 
L 154.32168 194.981507 
L 154.540369 201.347822 
L 154.759059 214.080454 
L 155.196438 214.080454 
L 155.415127 220.44677 
L 156.071196 252.278349 
L 156.289886 258.644664 
L 156.508575 258.644664 
L 156.727265 265.01098 
L 157.820712 265.01098 
L 158.039402 271.377296 
L 158.69547 271.377296 
L 158.91416 277.743612 
L 159.351539 277.743612 
L 159.570228 284.109928 
L 159.788918 284.109928 
L 160.007608 290.476243 
L 160.226297 303.208875 
L 167.880431 303.208875 
L 168.755189 277.743612 
L 168.973878 277.743612 
L 169.192568 271.377296 
L 169.848636 271.377296 
L 170.504705 239.545717 
L 170.723394 233.179401 
L 172.472911 131.318349 
L 172.6916 137.684664 
L 172.91029 131.318349 
L 173.128979 118.585717 
L 173.347669 118.585717 
L 173.566358 124.952033 
L 173.785048 118.585717 
L 174.003737 105.853086 
L 174.222427 112.219401 
L 174.441116 99.48677 
L 174.659806 99.48677 
L 174.878495 105.853086 
L 175.097185 99.48677 
L 175.315875 99.48677 
L 175.534564 105.853086 
L 175.753254 118.585717 
L 176.409322 118.585717 
L 176.628012 124.952033 
L 177.721459 124.952033 
L 178.158838 144.05098 
L 179.033597 144.05098 
L 179.470976 156.783612 
L 179.689665 156.783612 
L 179.908355 175.882559 
L 180.127044 182.248875 
L 180.783113 182.248875 
L 181.001802 194.981507 
L 181.220492 194.981507 
L 181.657871 207.714138 
L 181.87656 207.714138 
L 182.313939 226.813086 
L 182.532629 226.813086 
L 182.970008 245.912033 
L 183.188698 245.912033 
L 183.407387 258.644664 
L 183.626077 258.644664 
L 183.844766 265.01098 
L 184.282145 265.01098 
L 184.500835 271.377296 
L 185.375593 271.377296 
L 185.594282 277.743612 
L 185.812972 277.743612 
L 186.031661 284.109928 
L 186.46904 284.109928 
L 186.68773 290.476243 
L 187.343799 290.476243 
L 187.781178 303.208875 
L 272.195336 303.208875 
L 272.414025 296.842559 
L 273.288783 296.842559 
L 273.726162 284.109928 
L 273.944852 271.377296 
L 274.163541 271.377296 
L 274.60092 258.644664 
L 274.81961 258.644664 
L 275.0383 239.545717 
L 275.256989 239.545717 
L 275.913058 220.44677 
L 276.787816 175.882559 
L 277.006505 169.516243 
L 277.225195 169.516243 
L 277.443884 163.149928 
L 277.662574 163.149928 
L 277.881263 144.05098 
L 278.099953 144.05098 
L 278.974711 99.48677 
L 279.193401 99.48677 
L 279.41209 93.120454 
L 279.63078 93.120454 
L 279.849469 86.754138 
L 280.068159 93.120454 
L 282.473743 93.120454 
L 282.692433 86.754138 
L 283.129812 86.754138 
L 283.567191 99.48677 
L 283.785881 93.120454 
L 284.00457 93.120454 
L 284.22326 86.754138 
L 284.441949 86.754138 
L 284.660639 93.120454 
L 285.316707 93.120454 
L 285.535397 86.754138 
L 285.972776 86.754138 
L 286.191465 93.120454 
L 286.410155 93.120454 
L 286.628845 86.754138 
L 287.066224 86.754138 
L 287.284913 80.387822 
L 296.032494 80.387822 
L 296.251184 74.021507 
L 298.0007 74.021507 
L 298.21939 80.387822 
L 302.59318 80.387822 
L 302.81187 86.754138 
L 303.249249 86.754138 
L 303.467938 80.387822 
L 303.905317 80.387822 
L 304.124007 86.754138 
L 304.998765 86.754138 
L 305.217454 80.387822 
L 305.654834 80.387822 
L 305.873523 86.754138 
L 306.092213 86.754138 
L 306.310902 80.387822 
L 312.434209 80.387822 
L 312.652898 74.021507 
L 313.090277 74.021507 
L 313.308967 86.754138 
L 313.746346 86.754138 
L 313.965036 80.387822 
L 322.931306 80.387822 
L 323.149996 86.754138 
L 323.368685 86.754138 
L 323.587375 80.387822 
L 324.243443 80.387822 
L 324.462133 86.754138 
L 325.336891 86.754138 
L 325.555581 74.021507 
L 325.99296 86.754138 
L 326.430339 86.754138 
L 326.649028 93.120454 
L 326.867718 93.120454 
L 327.086407 86.754138 
L 327.305097 86.754138 
L 327.523786 93.120454 
L 327.742476 93.120454 
L 327.961165 99.48677 
L 328.179855 99.48677 
L 328.617234 86.754138 
L 328.835924 86.754138 
L 329.054613 93.120454 
L 329.273303 93.120454 
L 329.491992 99.48677 
L 329.710682 99.48677 
L 330.148061 86.754138 
L 330.36675 93.120454 
L 330.58544 86.754138 
L 330.804129 93.120454 
L 331.022819 105.853086 
L 331.241508 105.853086 
L 331.678887 86.754138 
L 331.897577 86.754138 
L 332.334956 99.48677 
L 332.553646 99.48677 
L 332.991025 86.754138 
L 333.428404 86.754138 
L 333.865783 99.48677 
L 334.084472 93.120454 
L 334.303162 93.120454 
L 334.521851 86.754138 
L 334.95923 86.754138 
L 335.396609 99.48677 
L 335.615299 93.120454 
L 335.833988 93.120454 
L 336.052678 86.754138 
L 336.490057 86.754138 
L 336.708747 93.120454 
L 337.146126 93.120454 
L 337.364815 86.754138 
L 345.675017 86.754138 
L 345.893707 93.120454 
L 355.297356 93.120454 
L 355.516046 86.754138 
L 355.734736 93.120454 
L 356.609494 93.120454 
L 356.828183 86.754138 
L 357.046873 86.754138 
L 357.265562 93.120454 
L 357.921631 93.120454 
L 358.14032 80.387822 
L 358.35901 86.754138 
L 358.577699 86.754138 
L 358.796389 93.120454 
L 359.233768 93.120454 
L 359.671147 80.387822 
L 359.889837 80.387822 
L 360.327216 93.120454 
L 360.545905 93.120454 
L 360.983284 80.387822 
L 361.420663 80.387822 
L 361.858042 93.120454 
L 362.076732 86.754138 
L 362.295421 86.754138 
L 362.514111 80.387822 
L 363.17018 80.387822 
L 363.388869 86.754138 
L 363.607559 86.754138 
L 363.826248 80.387822 
L 364.701006 80.387822 
L 364.919696 86.754138 
L 365.138385 86.754138 
L 365.357075 80.387822 
L 366.013143 80.387822 
L 366.231833 74.021507 
L 366.450522 86.754138 
L 366.669212 86.754138 
L 366.887901 80.387822 
L 367.106591 80.387822 
L 367.54397 67.655191 
L 369.512176 67.655191 
L 369.730865 74.021507 
L 370.168244 74.021507 
L 370.605623 61.288875 
L 372.13645 61.288875 
L 372.35514 67.655191 
L 373.229898 67.655191 
L 373.448587 61.288875 
L 373.667277 67.655191 
L 374.323345 67.655191 
L 374.542035 61.288875 
L 374.979414 61.288875 
L 375.198104 67.655191 
L 375.854172 67.655191 
L 376.072862 61.288875 
L 376.291551 61.288875 
L 376.510241 67.655191 
L 377.384999 67.655191 
L 377.603688 61.288875 
L 377.822378 67.655191 
L 379.353205 67.655191 
L 379.571894 61.288875 
L 379.790584 67.655191 
L 380.665342 67.655191 
L 380.884031 61.288875 
L 381.102721 61.288875 
L 381.32141 67.655191 
L 382.196168 67.655191 
L 382.414858 61.288875 
L 382.633548 61.288875 
L 382.852237 67.655191 
L 383.508306 67.655191 
L 383.726995 61.288875 
L 384.164374 61.288875 
L 384.383064 67.655191 
L 385.039132 67.655191 
L 385.257822 61.288875 
L 385.695201 61.288875 
L 385.91389 74.021507 
L 386.569959 74.021507 
L 386.788649 61.288875 
L 387.007338 67.655191 
L 387.226028 67.655191 
L 387.444717 74.021507 
L 387.882096 74.021507 
L 388.100786 67.655191 
L 388.756854 67.655191 
L 388.975544 74.021507 
L 389.412923 74.021507 
L 389.631612 67.655191 
L 390.287681 67.655191 
L 390.506371 74.021507 
L 390.94375 74.021507 
L 391.162439 67.655191 
L 391.599818 67.655191 
L 391.818508 74.021507 
L 392.474576 74.021507 
L 392.693266 67.655191 
L 393.130645 67.655191 
L 393.349334 74.021507 
L 394.005403 74.021507 
L 394.224093 67.655191 
L 394.661472 67.655191 
L 394.880161 74.021507 
L 395.53623 74.021507 
L 395.754919 67.655191 
L 395.973609 67.655191 
L 396.410988 80.387822 
L 397.067056 80.387822 
L 397.285746 74.021507 
L 397.504435 74.021507 
L 397.504435 74.021507 
" style="fill:none;stroke:#00ffff;stroke-linecap:square;stroke-width:1.5;"/>
   </g>
   <g id="line2d_39">
    <path clip-path="url(#p3663ec02b3)" d="M 40.603125 303.208875 
L 183.188698 303.208875 
L 183.407387 296.842559 
L 190.186762 296.842559 
L 190.405452 303.208875 
L 207.244546 303.208875 
L 207.463235 296.842559 
L 214.4613 296.842559 
L 214.67999 303.208875 
L 222.334123 303.208875 
L 222.552813 296.842559 
L 229.332188 296.842559 
L 229.550878 303.208875 
L 231.956462 303.208875 
L 232.175152 296.842559 
L 306.310902 296.842559 
L 306.529592 303.208875 
L 306.748281 296.842559 
L 307.40435 296.842559 
L 307.623039 303.208875 
L 397.504435 303.208875 
L 397.504435 303.208875 
" style="fill:none;stroke:#ff00ff;stroke-linecap:square;stroke-width:1.5;"/>
   </g>
   <g id="line2d_40">
    <path clip-path="url(#p3663ec02b3)" d="M 40.603125 303.208875 
L 293.18953 303.208875 
L 293.40822 296.842559 
L 296.032494 296.842559 
L 296.251184 290.476243 
L 296.688563 290.476243 
L 296.907252 284.109928 
L 298.21939 284.109928 
L 298.438079 277.743612 
L 300.624974 277.743612 
L 300.843664 271.377296 
L 301.281043 271.377296 
L 301.499732 265.01098 
L 303.030559 265.01098 
L 303.249249 258.644664 
L 303.467938 265.01098 
L 303.905317 265.01098 
L 304.124007 258.644664 
L 304.780075 258.644664 
L 304.998765 252.278349 
L 306.092213 252.278349 
L 306.310902 245.912033 
L 307.40435 245.912033 
L 307.623039 239.545717 
L 307.841729 245.912033 
L 308.060418 245.912033 
L 308.279108 252.278349 
L 308.935176 252.278349 
L 309.153866 245.912033 
L 310.684693 245.912033 
L 310.903382 252.278349 
L 311.340761 252.278349 
L 311.559451 245.912033 
L 312.434209 245.912033 
L 312.652898 239.545717 
L 313.090277 239.545717 
L 313.308967 245.912033 
L 313.527657 245.912033 
L 313.965036 233.179401 
L 315.277173 233.179401 
L 315.495862 226.813086 
L 316.151931 226.813086 
L 316.37062 233.179401 
L 316.58931 233.179401 
L 316.807999 226.813086 
L 317.682758 226.813086 
L 317.901447 233.179401 
L 318.120137 226.813086 
L 324.024754 226.813086 
L 324.243443 233.179401 
L 324.462133 226.813086 
L 325.118202 226.813086 
L 325.336891 233.179401 
L 325.99296 233.179401 
L 326.211649 226.813086 
L 326.430339 239.545717 
L 326.867718 239.545717 
L 327.086407 233.179401 
L 327.523786 233.179401 
L 327.742476 239.545717 
L 327.961165 239.545717 
L 328.179855 245.912033 
L 328.398544 239.545717 
L 329.273303 239.545717 
L 329.491992 245.912033 
L 329.929371 245.912033 
L 330.148061 239.545717 
L 330.804129 239.545717 
L 331.022819 245.912033 
L 331.460198 245.912033 
L 331.678887 239.545717 
L 332.116266 239.545717 
L 332.334956 245.912033 
L 332.991025 245.912033 
L 333.209714 239.545717 
L 333.428404 239.545717 
L 333.647093 245.912033 
L 343.925501 245.912033 
L 344.144191 239.545717 
L 344.36288 239.545717 
L 344.58157 245.912033 
L 345.018949 245.912033 
L 345.237638 239.545717 
L 350.048808 239.545717 
L 350.267497 245.912033 
L 350.486187 245.912033 
L 350.704876 239.545717 
L 351.142255 239.545717 
L 351.360945 245.912033 
L 366.231833 245.912033 
L 366.450522 252.278349 
L 366.669212 245.912033 
L 367.325281 245.912033 
L 367.54397 252.278349 
L 376.94762 252.278349 
L 377.166309 258.644664 
L 393.786713 258.644664 
L 394.005403 252.278349 
L 394.224093 258.644664 
L 394.661472 258.644664 
L 394.880161 252.278349 
L 397.504435 252.278349 
L 397.504435 252.278349 
" style="fill:none;stroke:#000000;stroke-linecap:square;stroke-width:1.5;"/>
   </g>
   <g id="patch_3">
    <path d="M 40.603125 315.304875 
L 40.603125 49.192875 
" style="fill:none;stroke:#000000;stroke-linecap:square;stroke-linejoin:miter;stroke-width:0.8;"/>
   </g>
   <g id="patch_4">
    <path d="M 397.723125 315.304875 
L 397.723125 49.192875 
" style="fill:none;stroke:#000000;stroke-linecap:square;stroke-linejoin:miter;stroke-width:0.8;"/>
   </g>
   <g id="patch_5">
    <path d="M 40.603125 315.304875 
L 397.723125 315.304875 
" style="fill:none;stroke:#000000;stroke-linecap:square;stroke-linejoin:miter;stroke-width:0.8;"/>
   </g>
   <g id="patch_6">
    <path d="M 40.603125 49.192875 
L 397.723125 49.192875 
" style="fill:none;stroke:#000000;stroke-linecap:square;stroke-linejoin:miter;stroke-width:0.8;"/>
   </g>
   <g id="text_20">
    <!-- Discovered nodes per time -->
    <defs>
     <path d="M 54.890625 33.015625 
L 54.890625 0 
L 45.90625 0 
L 45.90625 32.71875 
Q 45.90625 40.484375 42.875 44.328125 
Q 39.84375 48.1875 33.796875 48.1875 
Q 26.515625 48.1875 22.3125 43.546875 
Q 18.109375 38.921875 18.109375 30.90625 
L 18.109375 0 
L 9.078125 0 
L 9.078125 54.6875 
L 18.109375 54.6875 
L 18.109375 46.1875 
Q 21.34375 51.125 25.703125 53.5625 
Q 30.078125 56 35.796875 56 
Q 45.21875 56 50.046875 50.171875 
Q 54.890625 44.34375 54.890625 33.015625 
z
" id="DejaVuSans-6e"/>
     <path d="M 18.109375 8.203125 
L 18.109375 -20.796875 
L 9.078125 -20.796875 
L 9.078125 54.6875 
L 18.109375 54.6875 
L 18.109375 46.390625 
Q 20.953125 51.265625 25.265625 53.625 
Q 29.59375 56 35.59375 56 
Q 45.5625 56 51.78125 48.09375 
Q 58.015625 40.1875 58.015625 27.296875 
Q 58.015625 14.40625 51.78125 6.484375 
Q 45.5625 -1.421875 35.59375 -1.421875 
Q 29.59375 -1.421875 25.265625 0.953125 
Q 20.953125 3.328125 18.109375 8.203125 
z
M 48.6875 27.296875 
Q 48.6875 37.203125 44.609375 42.84375 
Q 40.53125 48.484375 33.40625 48.484375 
Q 26.265625 48.484375 22.1875 42.84375 
Q 18.109375 37.203125 18.109375 27.296875 
Q 18.109375 17.390625 22.1875 11.75 
Q 26.265625 6.109375 33.40625 6.109375 
Q 40.53125 6.109375 44.609375 11.75 
Q 48.6875 17.390625 48.6875 27.296875 
z
" id="DejaVuSans-70"/>
     <path d="M 18.3125 70.21875 
L 18.3125 54.6875 
L 36.8125 54.6875 
L 36.8125 47.703125 
L 18.3125 47.703125 
L 18.3125 18.015625 
Q 18.3125 11.328125 20.140625 9.421875 
Q 21.96875 7.515625 27.59375 7.515625 
L 36.8125 7.515625 
L 36.8125 0 
L 27.59375 0 
Q 17.1875 0 13.234375 3.875 
Q 9.28125 7.765625 9.28125 18.015625 
L 9.28125 47.703125 
L 2.6875 47.703125 
L 2.6875 54.6875 
L 9.28125 54.6875 
L 9.28125 70.21875 
z
" id="DejaVuSans-74"/>
    </defs>
    <g transform="translate(138.227813 16.318125)scale(0.12 -0.12)">
     <use xlink:href="#DejaVuSans-44"/>
     <use x="77.001953" xlink:href="#DejaVuSans-69"/>
     <use x="104.785156" xlink:href="#DejaVuSans-73"/>
     <use x="156.884766" xlink:href="#DejaVuSans-63"/>
     <use x="211.865234" xlink:href="#DejaVuSans-6f"/>
     <use x="273.046875" xlink:href="#DejaVuSans-76"/>
     <use x="332.226562" xlink:href="#DejaVuSans-65"/>
     <use x="393.75" xlink:href="#DejaVuSans-72"/>
     <use x="434.832031" xlink:href="#DejaVuSans-65"/>
     <use x="496.355469" xlink:href="#DejaVuSans-64"/>
     <use x="559.832031" xlink:href="#DejaVuSans-20"/>
     <use x="591.619141" xlink:href="#DejaVuSans-6e"/>
     <use x="654.998047" xlink:href="#DejaVuSans-6f"/>
     <use x="716.179688" xlink:href="#DejaVuSans-64"/>
     <use x="779.65625" xlink:href="#DejaVuSans-65"/>
     <use x="841.179688" xlink:href="#DejaVuSans-73"/>
     <use x="893.279297" xlink:href="#DejaVuSans-20"/>
     <use x="925.066406" xlink:href="#DejaVuSans-70"/>
     <use x="988.542969" xlink:href="#DejaVuSans-65"/>
     <use x="1050.066406" xlink:href="#DejaVuSans-72"/>
     <use x="1091.179688" xlink:href="#DejaVuSans-20"/>
     <use x="1122.966797" xlink:href="#DejaVuSans-74"/>
     <use x="1162.175781" xlink:href="#DejaVuSans-69"/>
     <use x="1189.958984" xlink:href="#DejaVuSans-6d"/>
     <use x="1287.371094" xlink:href="#DejaVuSans-65"/>
    </g>
    <!--  -->
    <g transform="translate(219.163125 29.7555)scale(0.12 -0.12)"/>
    <!--  -->
    <g transform="translate(219.163125 43.192875)scale(0.12 -0.12)"/>
   </g>
   <g id="legend_1">
    <g id="patch_7">
     <path d="M 411.865525 139.939385 
L 482.471775 139.939385 
Q 484.471775 139.939385 484.471775 137.939385 
L 484.471775 50.870635 
Q 484.471775 48.870635 482.471775 48.870635 
L 411.865525 48.870635 
Q 409.865525 48.870635 409.865525 50.870635 
L 409.865525 137.939385 
Q 409.865525 139.939385 411.865525 139.939385 
z
" style="fill:#ffffff;opacity:0.8;stroke:#cccccc;stroke-linejoin:miter;"/>
    </g>
    <g id="line2d_41">
     <path d="M 413.865525 56.969072 
L 433.865525 56.969072 
" style="fill:none;stroke:#008000;stroke-linecap:square;stroke-width:1.5;"/>
    </g>
    <g id="line2d_42"/>
    <g id="text_21">
     <!-- drone 0 -->
     <g transform="translate(441.865525 60.469072)scale(0.1 -0.1)">
      <use xlink:href="#DejaVuSans-64"/>
      <use x="63.476562" xlink:href="#DejaVuSans-72"/>
      <use x="104.558594" xlink:href="#DejaVuSans-6f"/>
      <use x="165.740234" xlink:href="#DejaVuSans-6e"/>
      <use x="229.119141" xlink:href="#DejaVuSans-65"/>
      <use x="290.642578" xlink:href="#DejaVuSans-20"/>
      <use x="322.429688" xlink:href="#DejaVuSans-30"/>
     </g>
    </g>
    <g id="line2d_43">
     <path d="M 413.865525 71.647197 
L 433.865525 71.647197 
" style="fill:none;stroke:#0000ff;stroke-linecap:square;stroke-width:1.5;"/>
    </g>
    <g id="line2d_44"/>
    <g id="text_22">
     <!-- drone 1 -->
     <g transform="translate(441.865525 75.147197)scale(0.1 -0.1)">
      <use xlink:href="#DejaVuSans-64"/>
      <use x="63.476562" xlink:href="#DejaVuSans-72"/>
      <use x="104.558594" xlink:href="#DejaVuSans-6f"/>
      <use x="165.740234" xlink:href="#DejaVuSans-6e"/>
      <use x="229.119141" xlink:href="#DejaVuSans-65"/>
      <use x="290.642578" xlink:href="#DejaVuSans-20"/>
      <use x="322.429688" xlink:href="#DejaVuSans-31"/>
     </g>
    </g>
    <g id="line2d_45">
     <path d="M 413.865525 86.325322 
L 433.865525 86.325322 
" style="fill:none;stroke:#ff0000;stroke-linecap:square;stroke-width:1.5;"/>
    </g>
    <g id="line2d_46"/>
    <g id="text_23">
     <!-- drone 2 -->
     <g transform="translate(441.865525 89.825322)scale(0.1 -0.1)">
      <use xlink:href="#DejaVuSans-64"/>
      <use x="63.476562" xlink:href="#DejaVuSans-72"/>
      <use x="104.558594" xlink:href="#DejaVuSans-6f"/>
      <use x="165.740234" xlink:href="#DejaVuSans-6e"/>
      <use x="229.119141" xlink:href="#DejaVuSans-65"/>
      <use x="290.642578" xlink:href="#DejaVuSans-20"/>
      <use x="322.429688" xlink:href="#DejaVuSans-32"/>
     </g>
    </g>
    <g id="line2d_47">
     <path d="M 413.865525 101.003447 
L 433.865525 101.003447 
" style="fill:none;stroke:#00ffff;stroke-linecap:square;stroke-width:1.5;"/>
    </g>
    <g id="line2d_48"/>
    <g id="text_24">
     <!-- drone 3 -->
     <g transform="translate(441.865525 104.503447)scale(0.1 -0.1)">
      <use xlink:href="#DejaVuSans-64"/>
      <use x="63.476562" xlink:href="#DejaVuSans-72"/>
      <use x="104.558594" xlink:href="#DejaVuSans-6f"/>
      <use x="165.740234" xlink:href="#DejaVuSans-6e"/>
      <use x="229.119141" xlink:href="#DejaVuSans-65"/>
      <use x="290.642578" xlink:href="#DejaVuSans-20"/>
      <use x="322.429688" xlink:href="#DejaVuSans-33"/>
     </g>
    </g>
    <g id="line2d_49">
     <path d="M 413.865525 115.681572 
L 433.865525 115.681572 
" style="fill:none;stroke:#ff00ff;stroke-linecap:square;stroke-width:1.5;"/>
    </g>
    <g id="line2d_50"/>
    <g id="text_25">
     <!-- drone 4 -->
     <g transform="translate(441.865525 119.181572)scale(0.1 -0.1)">
      <use xlink:href="#DejaVuSans-64"/>
      <use x="63.476562" xlink:href="#DejaVuSans-72"/>
      <use x="104.558594" xlink:href="#DejaVuSans-6f"/>
      <use x="165.740234" xlink:href="#DejaVuSans-6e"/>
      <use x="229.119141" xlink:href="#DejaVuSans-65"/>
      <use x="290.642578" xlink:href="#DejaVuSans-20"/>
      <use x="322.429688" xlink:href="#DejaVuSans-34"/>
     </g>
    </g>
    <g id="line2d_51">
     <path d="M 413.865525 130.359697 
L 433.865525 130.359697 
" style="fill:none;stroke:#000000;stroke-linecap:square;stroke-width:1.5;"/>
    </g>
    <g id="line2d_52"/>
    <g id="text_26">
     <!-- drone 5 -->
     <g transform="translate(441.865525 133.859697)scale(0.1 -0.1)">
      <use xlink:href="#DejaVuSans-64"/>
      <use x="63.476562" xlink:href="#DejaVuSans-72"/>
      <use x="104.558594" xlink:href="#DejaVuSans-6f"/>
      <use x="165.740234" xlink:href="#DejaVuSans-6e"/>
      <use x="229.119141" xlink:href="#DejaVuSans-65"/>
      <use x="290.642578" xlink:href="#DejaVuSans-20"/>
      <use x="322.429688" xlink:href="#DejaVuSans-35"/>
     </g>
    </g>
   </g>
  </g>
 </g>
 <defs>
  <clipPath id="p3663ec02b3">
   <rect height="266.112" width="357.12" x="40.603125" y="49.192875"/>
  </clipPath>
 </defs>
</svg>
