<?xml version="1.0" encoding="utf-8" standalone="no"?>
<!DOCTYPE svg PUBLIC "-//W3C//DTD SVG 1.1//EN"
  "http://www.w3.org/Graphics/SVG/1.1/DTD/svg11.dtd">
<!-- Created with matplotlib (http://matplotlib.org/) -->
<svg height="352pt" version="1.1" viewBox="0 0 491 352" width="491pt" xmlns="http://www.w3.org/2000/svg" xmlns:xlink="http://www.w3.org/1999/xlink">
 <defs>
  <style type="text/css">
*{stroke-linecap:butt;stroke-linejoin:round;}
  </style>
 </defs>
 <g id="figure_1">
  <g id="patch_1">
   <path d="M 0 352.861125 
L 491.671775 352.861125 
L 491.671775 0 
L 0 0 
z
" style="fill:#ffffff;"/>
  </g>
  <g id="axes_1">
   <g id="patch_2">
    <path d="M 40.603125 315.304875 
L 397.723125 315.304875 
L 397.723125 49.192875 
L 40.603125 49.192875 
z
" style="fill:#ffffff;"/>
   </g>
   <g id="matplotlib.axis_1">
    <g id="xtick_1">
     <g id="line2d_1">
      <path clip-path="url(#pd89b342052)" d="M 40.603125 315.304875 
L 40.603125 49.192875 
" style="fill:none;stroke:#b0b0b0;stroke-linecap:square;stroke-width:0.8;"/>
     </g>
     <g id="line2d_2">
      <defs>
       <path d="M 0 0 
L 0 3.5 
" id="m58bb73c1f4" style="stroke:#000000;stroke-width:0.8;"/>
      </defs>
      <g>
       <use style="stroke:#000000;stroke-width:0.8;" x="40.603125" xlink:href="#m58bb73c1f4" y="315.304875"/>
      </g>
     </g>
     <g id="text_1">
      <!-- 0 -->
      <defs>
       <path d="M 31.78125 66.40625 
Q 24.171875 66.40625 20.328125 58.90625 
Q 16.5 51.421875 16.5 36.375 
Q 16.5 21.390625 20.328125 13.890625 
Q 24.171875 6.390625 31.78125 6.390625 
Q 39.453125 6.390625 43.28125 13.890625 
Q 47.125 21.390625 47.125 36.375 
Q 47.125 51.421875 43.28125 58.90625 
Q 39.453125 66.40625 31.78125 66.40625 
z
M 31.78125 74.21875 
Q 44.046875 74.21875 50.515625 64.515625 
Q 56.984375 54.828125 56.984375 36.375 
Q 56.984375 17.96875 50.515625 8.265625 
Q 44.046875 -1.421875 31.78125 -1.421875 
Q 19.53125 -1.421875 13.0625 8.265625 
Q 6.59375 17.96875 6.59375 36.375 
Q 6.59375 54.828125 13.0625 64.515625 
Q 19.53125 74.21875 31.78125 74.21875 
z
" id="DejaVuSans-30"/>
      </defs>
      <g transform="translate(37.421875 329.903312)scale(0.1 -0.1)">
       <use xlink:href="#DejaVuSans-30"/>
      </g>
     </g>
    </g>
    <g id="xtick_2">
     <g id="line2d_3">
      <path clip-path="url(#pd89b342052)" d="M 84.341031 315.304875 
L 84.341031 49.192875 
" style="fill:none;stroke:#b0b0b0;stroke-linecap:square;stroke-width:0.8;"/>
     </g>
     <g id="line2d_4">
      <g>
       <use style="stroke:#000000;stroke-width:0.8;" x="84.341031" xlink:href="#m58bb73c1f4" y="315.304875"/>
      </g>
     </g>
     <g id="text_2">
      <!-- 200 -->
      <defs>
       <path d="M 19.1875 8.296875 
L 53.609375 8.296875 
L 53.609375 0 
L 7.328125 0 
L 7.328125 8.296875 
Q 12.9375 14.109375 22.625 23.890625 
Q 32.328125 33.6875 34.8125 36.53125 
Q 39.546875 41.84375 41.421875 45.53125 
Q 43.3125 49.21875 43.3125 52.78125 
Q 43.3125 58.59375 39.234375 62.25 
Q 35.15625 65.921875 28.609375 65.921875 
Q 23.96875 65.921875 18.8125 64.3125 
Q 13.671875 62.703125 7.8125 59.421875 
L 7.8125 69.390625 
Q 13.765625 71.78125 18.9375 73 
Q 24.125 74.21875 28.421875 74.21875 
Q 39.75 74.21875 46.484375 68.546875 
Q 53.21875 62.890625 53.21875 53.421875 
Q 53.21875 48.921875 51.53125 44.890625 
Q 49.859375 40.875 45.40625 35.40625 
Q 44.1875 33.984375 37.640625 27.21875 
Q 31.109375 20.453125 19.1875 8.296875 
z
" id="DejaVuSans-32"/>
      </defs>
      <g transform="translate(74.797281 329.903312)scale(0.1 -0.1)">
       <use xlink:href="#DejaVuSans-32"/>
       <use x="63.623047" xlink:href="#DejaVuSans-30"/>
       <use x="127.246094" xlink:href="#DejaVuSans-30"/>
      </g>
     </g>
    </g>
    <g id="xtick_3">
     <g id="line2d_5">
      <path clip-path="url(#pd89b342052)" d="M 128.078936 315.304875 
L 128.078936 49.192875 
" style="fill:none;stroke:#b0b0b0;stroke-linecap:square;stroke-width:0.8;"/>
     </g>
     <g id="line2d_6">
      <g>
       <use style="stroke:#000000;stroke-width:0.8;" x="128.078936" xlink:href="#m58bb73c1f4" y="315.304875"/>
      </g>
     </g>
     <g id="text_3">
      <!-- 400 -->
      <defs>
       <path d="M 37.796875 64.3125 
L 12.890625 25.390625 
L 37.796875 25.390625 
z
M 35.203125 72.90625 
L 47.609375 72.90625 
L 47.609375 25.390625 
L 58.015625 25.390625 
L 58.015625 17.1875 
L 47.609375 17.1875 
L 47.609375 0 
L 37.796875 0 
L 37.796875 17.1875 
L 4.890625 17.1875 
L 4.890625 26.703125 
z
" id="DejaVuSans-34"/>
      </defs>
      <g transform="translate(118.535186 329.903312)scale(0.1 -0.1)">
       <use xlink:href="#DejaVuSans-34"/>
       <use x="63.623047" xlink:href="#DejaVuSans-30"/>
       <use x="127.246094" xlink:href="#DejaVuSans-30"/>
      </g>
     </g>
    </g>
    <g id="xtick_4">
     <g id="line2d_7">
      <path clip-path="url(#pd89b342052)" d="M 171.816842 315.304875 
L 171.816842 49.192875 
" style="fill:none;stroke:#b0b0b0;stroke-linecap:square;stroke-width:0.8;"/>
     </g>
     <g id="line2d_8">
      <g>
       <use style="stroke:#000000;stroke-width:0.8;" x="171.816842" xlink:href="#m58bb73c1f4" y="315.304875"/>
      </g>
     </g>
     <g id="text_4">
      <!-- 600 -->
      <defs>
       <path d="M 33.015625 40.375 
Q 26.375 40.375 22.484375 35.828125 
Q 18.609375 31.296875 18.609375 23.390625 
Q 18.609375 15.53125 22.484375 10.953125 
Q 26.375 6.390625 33.015625 6.390625 
Q 39.65625 6.390625 43.53125 10.953125 
Q 47.40625 15.53125 47.40625 23.390625 
Q 47.40625 31.296875 43.53125 35.828125 
Q 39.65625 40.375 33.015625 40.375 
z
M 52.59375 71.296875 
L 52.59375 62.3125 
Q 48.875 64.0625 45.09375 64.984375 
Q 41.3125 65.921875 37.59375 65.921875 
Q 27.828125 65.921875 22.671875 59.328125 
Q 17.53125 52.734375 16.796875 39.40625 
Q 19.671875 43.65625 24.015625 45.921875 
Q 28.375 48.1875 33.59375 48.1875 
Q 44.578125 48.1875 50.953125 41.515625 
Q 57.328125 34.859375 57.328125 23.390625 
Q 57.328125 12.15625 50.6875 5.359375 
Q 44.046875 -1.421875 33.015625 -1.421875 
Q 20.359375 -1.421875 13.671875 8.265625 
Q 6.984375 17.96875 6.984375 36.375 
Q 6.984375 53.65625 15.1875 63.9375 
Q 23.390625 74.21875 37.203125 74.21875 
Q 40.921875 74.21875 44.703125 73.484375 
Q 48.484375 72.75 52.59375 71.296875 
z
" id="DejaVuSans-36"/>
      </defs>
      <g transform="translate(162.273092 329.903312)scale(0.1 -0.1)">
       <use xlink:href="#DejaVuSans-36"/>
       <use x="63.623047" xlink:href="#DejaVuSans-30"/>
       <use x="127.246094" xlink:href="#DejaVuSans-30"/>
      </g>
     </g>
    </g>
    <g id="xtick_5">
     <g id="line2d_9">
      <path clip-path="url(#pd89b342052)" d="M 215.554748 315.304875 
L 215.554748 49.192875 
" style="fill:none;stroke:#b0b0b0;stroke-linecap:square;stroke-width:0.8;"/>
     </g>
     <g id="line2d_10">
      <g>
       <use style="stroke:#000000;stroke-width:0.8;" x="215.554748" xlink:href="#m58bb73c1f4" y="315.304875"/>
      </g>
     </g>
     <g id="text_5">
      <!-- 800 -->
      <defs>
       <path d="M 31.78125 34.625 
Q 24.75 34.625 20.71875 30.859375 
Q 16.703125 27.09375 16.703125 20.515625 
Q 16.703125 13.921875 20.71875 10.15625 
Q 24.75 6.390625 31.78125 6.390625 
Q 38.8125 6.390625 42.859375 10.171875 
Q 46.921875 13.96875 46.921875 20.515625 
Q 46.921875 27.09375 42.890625 30.859375 
Q 38.875 34.625 31.78125 34.625 
z
M 21.921875 38.8125 
Q 15.578125 40.375 12.03125 44.71875 
Q 8.5 49.078125 8.5 55.328125 
Q 8.5 64.0625 14.71875 69.140625 
Q 20.953125 74.21875 31.78125 74.21875 
Q 42.671875 74.21875 48.875 69.140625 
Q 55.078125 64.0625 55.078125 55.328125 
Q 55.078125 49.078125 51.53125 44.71875 
Q 48 40.375 41.703125 38.8125 
Q 48.828125 37.15625 52.796875 32.3125 
Q 56.78125 27.484375 56.78125 20.515625 
Q 56.78125 9.90625 50.3125 4.234375 
Q 43.84375 -1.421875 31.78125 -1.421875 
Q 19.734375 -1.421875 13.25 4.234375 
Q 6.78125 9.90625 6.78125 20.515625 
Q 6.78125 27.484375 10.78125 32.3125 
Q 14.796875 37.15625 21.921875 38.8125 
z
M 18.3125 54.390625 
Q 18.3125 48.734375 21.84375 45.5625 
Q 25.390625 42.390625 31.78125 42.390625 
Q 38.140625 42.390625 41.71875 45.5625 
Q 45.3125 48.734375 45.3125 54.390625 
Q 45.3125 60.0625 41.71875 63.234375 
Q 38.140625 66.40625 31.78125 66.40625 
Q 25.390625 66.40625 21.84375 63.234375 
Q 18.3125 60.0625 18.3125 54.390625 
z
" id="DejaVuSans-38"/>
      </defs>
      <g transform="translate(206.010998 329.903312)scale(0.1 -0.1)">
       <use xlink:href="#DejaVuSans-38"/>
       <use x="63.623047" xlink:href="#DejaVuSans-30"/>
       <use x="127.246094" xlink:href="#DejaVuSans-30"/>
      </g>
     </g>
    </g>
    <g id="xtick_6">
     <g id="line2d_11">
      <path clip-path="url(#pd89b342052)" d="M 259.292653 315.304875 
L 259.292653 49.192875 
" style="fill:none;stroke:#b0b0b0;stroke-linecap:square;stroke-width:0.8;"/>
     </g>
     <g id="line2d_12">
      <g>
       <use style="stroke:#000000;stroke-width:0.8;" x="259.292653" xlink:href="#m58bb73c1f4" y="315.304875"/>
      </g>
     </g>
     <g id="text_6">
      <!-- 1000 -->
      <defs>
       <path d="M 12.40625 8.296875 
L 28.515625 8.296875 
L 28.515625 63.921875 
L 10.984375 60.40625 
L 10.984375 69.390625 
L 28.421875 72.90625 
L 38.28125 72.90625 
L 38.28125 8.296875 
L 54.390625 8.296875 
L 54.390625 0 
L 12.40625 0 
z
" id="DejaVuSans-31"/>
      </defs>
      <g transform="translate(246.567653 329.903312)scale(0.1 -0.1)">
       <use xlink:href="#DejaVuSans-31"/>
       <use x="63.623047" xlink:href="#DejaVuSans-30"/>
       <use x="127.246094" xlink:href="#DejaVuSans-30"/>
       <use x="190.869141" xlink:href="#DejaVuSans-30"/>
      </g>
     </g>
    </g>
    <g id="xtick_7">
     <g id="line2d_13">
      <path clip-path="url(#pd89b342052)" d="M 303.030559 315.304875 
L 303.030559 49.192875 
" style="fill:none;stroke:#b0b0b0;stroke-linecap:square;stroke-width:0.8;"/>
     </g>
     <g id="line2d_14">
      <g>
       <use style="stroke:#000000;stroke-width:0.8;" x="303.030559" xlink:href="#m58bb73c1f4" y="315.304875"/>
      </g>
     </g>
     <g id="text_7">
      <!-- 1200 -->
      <g transform="translate(290.305559 329.903312)scale(0.1 -0.1)">
       <use xlink:href="#DejaVuSans-31"/>
       <use x="63.623047" xlink:href="#DejaVuSans-32"/>
       <use x="127.246094" xlink:href="#DejaVuSans-30"/>
       <use x="190.869141" xlink:href="#DejaVuSans-30"/>
      </g>
     </g>
    </g>
    <g id="xtick_8">
     <g id="line2d_15">
      <path clip-path="url(#pd89b342052)" d="M 346.768465 315.304875 
L 346.768465 49.192875 
" style="fill:none;stroke:#b0b0b0;stroke-linecap:square;stroke-width:0.8;"/>
     </g>
     <g id="line2d_16">
      <g>
       <use style="stroke:#000000;stroke-width:0.8;" x="346.768465" xlink:href="#m58bb73c1f4" y="315.304875"/>
      </g>
     </g>
     <g id="text_8">
      <!-- 1400 -->
      <g transform="translate(334.043465 329.903312)scale(0.1 -0.1)">
       <use xlink:href="#DejaVuSans-31"/>
       <use x="63.623047" xlink:href="#DejaVuSans-34"/>
       <use x="127.246094" xlink:href="#DejaVuSans-30"/>
       <use x="190.869141" xlink:href="#DejaVuSans-30"/>
      </g>
     </g>
    </g>
    <g id="xtick_9">
     <g id="line2d_17">
      <path clip-path="url(#pd89b342052)" d="M 390.506371 315.304875 
L 390.506371 49.192875 
" style="fill:none;stroke:#b0b0b0;stroke-linecap:square;stroke-width:0.8;"/>
     </g>
     <g id="line2d_18">
      <g>
       <use style="stroke:#000000;stroke-width:0.8;" x="390.506371" xlink:href="#m58bb73c1f4" y="315.304875"/>
      </g>
     </g>
     <g id="text_9">
      <!-- 1600 -->
      <g transform="translate(377.781371 329.903312)scale(0.1 -0.1)">
       <use xlink:href="#DejaVuSans-31"/>
       <use x="63.623047" xlink:href="#DejaVuSans-36"/>
       <use x="127.246094" xlink:href="#DejaVuSans-30"/>
       <use x="190.869141" xlink:href="#DejaVuSans-30"/>
      </g>
     </g>
    </g>
    <g id="text_10">
     <!-- Time(s) -->
     <defs>
      <path d="M -0.296875 72.90625 
L 61.375 72.90625 
L 61.375 64.59375 
L 35.5 64.59375 
L 35.5 0 
L 25.59375 0 
L 25.59375 64.59375 
L -0.296875 64.59375 
z
" id="DejaVuSans-54"/>
      <path d="M 9.421875 54.6875 
L 18.40625 54.6875 
L 18.40625 0 
L 9.421875 0 
z
M 9.421875 75.984375 
L 18.40625 75.984375 
L 18.40625 64.59375 
L 9.421875 64.59375 
z
" id="DejaVuSans-69"/>
      <path d="M 52 44.1875 
Q 55.375 50.25 60.0625 53.125 
Q 64.75 56 71.09375 56 
Q 79.640625 56 84.28125 50.015625 
Q 88.921875 44.046875 88.921875 33.015625 
L 88.921875 0 
L 79.890625 0 
L 79.890625 32.71875 
Q 79.890625 40.578125 77.09375 44.375 
Q 74.3125 48.1875 68.609375 48.1875 
Q 61.625 48.1875 57.5625 43.546875 
Q 53.515625 38.921875 53.515625 30.90625 
L 53.515625 0 
L 44.484375 0 
L 44.484375 32.71875 
Q 44.484375 40.625 41.703125 44.40625 
Q 38.921875 48.1875 33.109375 48.1875 
Q 26.21875 48.1875 22.15625 43.53125 
Q 18.109375 38.875 18.109375 30.90625 
L 18.109375 0 
L 9.078125 0 
L 9.078125 54.6875 
L 18.109375 54.6875 
L 18.109375 46.1875 
Q 21.1875 51.21875 25.484375 53.609375 
Q 29.78125 56 35.6875 56 
Q 41.65625 56 45.828125 52.96875 
Q 50 49.953125 52 44.1875 
z
" id="DejaVuSans-6d"/>
      <path d="M 56.203125 29.59375 
L 56.203125 25.203125 
L 14.890625 25.203125 
Q 15.484375 15.921875 20.484375 11.0625 
Q 25.484375 6.203125 34.421875 6.203125 
Q 39.59375 6.203125 44.453125 7.46875 
Q 49.3125 8.734375 54.109375 11.28125 
L 54.109375 2.78125 
Q 49.265625 0.734375 44.1875 -0.34375 
Q 39.109375 -1.421875 33.890625 -1.421875 
Q 20.796875 -1.421875 13.15625 6.1875 
Q 5.515625 13.8125 5.515625 26.8125 
Q 5.515625 40.234375 12.765625 48.109375 
Q 20.015625 56 32.328125 56 
Q 43.359375 56 49.78125 48.890625 
Q 56.203125 41.796875 56.203125 29.59375 
z
M 47.21875 32.234375 
Q 47.125 39.59375 43.09375 43.984375 
Q 39.0625 48.390625 32.421875 48.390625 
Q 24.90625 48.390625 20.390625 44.140625 
Q 15.875 39.890625 15.1875 32.171875 
z
" id="DejaVuSans-65"/>
      <path d="M 31 75.875 
Q 24.46875 64.65625 21.28125 53.65625 
Q 18.109375 42.671875 18.109375 31.390625 
Q 18.109375 20.125 21.3125 9.0625 
Q 24.515625 -2 31 -13.1875 
L 23.1875 -13.1875 
Q 15.875 -1.703125 12.234375 9.375 
Q 8.59375 20.453125 8.59375 31.390625 
Q 8.59375 42.28125 12.203125 53.3125 
Q 15.828125 64.359375 23.1875 75.875 
z
" id="DejaVuSans-28"/>
      <path d="M 44.28125 53.078125 
L 44.28125 44.578125 
Q 40.484375 46.53125 36.375 47.5 
Q 32.28125 48.484375 27.875 48.484375 
Q 21.1875 48.484375 17.84375 46.4375 
Q 14.5 44.390625 14.5 40.28125 
Q 14.5 37.15625 16.890625 35.375 
Q 19.28125 33.59375 26.515625 31.984375 
L 29.59375 31.296875 
Q 39.15625 29.25 43.1875 25.515625 
Q 47.21875 21.78125 47.21875 15.09375 
Q 47.21875 7.46875 41.1875 3.015625 
Q 35.15625 -1.421875 24.609375 -1.421875 
Q 20.21875 -1.421875 15.453125 -0.5625 
Q 10.6875 0.296875 5.421875 2 
L 5.421875 11.28125 
Q 10.40625 8.6875 15.234375 7.390625 
Q 20.0625 6.109375 24.8125 6.109375 
Q 31.15625 6.109375 34.5625 8.28125 
Q 37.984375 10.453125 37.984375 14.40625 
Q 37.984375 18.0625 35.515625 20.015625 
Q 33.0625 21.96875 24.703125 23.78125 
L 21.578125 24.515625 
Q 13.234375 26.265625 9.515625 29.90625 
Q 5.8125 33.546875 5.8125 39.890625 
Q 5.8125 47.609375 11.28125 51.796875 
Q 16.75 56 26.8125 56 
Q 31.78125 56 36.171875 55.265625 
Q 40.578125 54.546875 44.28125 53.078125 
z
" id="DejaVuSans-73"/>
      <path d="M 8.015625 75.875 
L 15.828125 75.875 
Q 23.140625 64.359375 26.78125 53.3125 
Q 30.421875 42.28125 30.421875 31.390625 
Q 30.421875 20.453125 26.78125 9.375 
Q 23.140625 -1.703125 15.828125 -13.1875 
L 8.015625 -13.1875 
Q 14.5 -2 17.703125 9.0625 
Q 20.90625 20.125 20.90625 31.390625 
Q 20.90625 42.671875 17.703125 53.65625 
Q 14.5 64.65625 8.015625 75.875 
z
" id="DejaVuSans-29"/>
     </defs>
     <g transform="translate(200.269375 343.581437)scale(0.1 -0.1)">
      <use xlink:href="#DejaVuSans-54"/>
      <use x="61.037109" xlink:href="#DejaVuSans-69"/>
      <use x="88.820312" xlink:href="#DejaVuSans-6d"/>
      <use x="186.232422" xlink:href="#DejaVuSans-65"/>
      <use x="247.755859" xlink:href="#DejaVuSans-28"/>
      <use x="286.769531" xlink:href="#DejaVuSans-73"/>
      <use x="338.869141" xlink:href="#DejaVuSans-29"/>
     </g>
    </g>
   </g>
   <g id="matplotlib.axis_2">
    <g id="ytick_1">
     <g id="line2d_19">
      <path clip-path="url(#pd89b342052)" d="M 40.603125 303.208875 
L 397.723125 303.208875 
" style="fill:none;stroke:#b0b0b0;stroke-linecap:square;stroke-width:0.8;"/>
     </g>
     <g id="line2d_20">
      <defs>
       <path d="M 0 0 
L -3.5 0 
" id="med4a71c448" style="stroke:#000000;stroke-width:0.8;"/>
      </defs>
      <g>
       <use style="stroke:#000000;stroke-width:0.8;" x="40.603125" xlink:href="#med4a71c448" y="303.208875"/>
      </g>
     </g>
     <g id="text_11">
      <!-- 0 -->
      <g transform="translate(27.240625 307.008094)scale(0.1 -0.1)">
       <use xlink:href="#DejaVuSans-30"/>
      </g>
     </g>
    </g>
    <g id="ytick_2">
     <g id="line2d_21">
      <path clip-path="url(#pd89b342052)" d="M 40.603125 260.008875 
L 397.723125 260.008875 
" style="fill:none;stroke:#b0b0b0;stroke-linecap:square;stroke-width:0.8;"/>
     </g>
     <g id="line2d_22">
      <g>
       <use style="stroke:#000000;stroke-width:0.8;" x="40.603125" xlink:href="#med4a71c448" y="260.008875"/>
      </g>
     </g>
     <g id="text_12">
      <!-- 5 -->
      <defs>
       <path d="M 10.796875 72.90625 
L 49.515625 72.90625 
L 49.515625 64.59375 
L 19.828125 64.59375 
L 19.828125 46.734375 
Q 21.96875 47.46875 24.109375 47.828125 
Q 26.265625 48.1875 28.421875 48.1875 
Q 40.625 48.1875 47.75 41.5 
Q 54.890625 34.8125 54.890625 23.390625 
Q 54.890625 11.625 47.5625 5.09375 
Q 40.234375 -1.421875 26.90625 -1.421875 
Q 22.3125 -1.421875 17.546875 -0.640625 
Q 12.796875 0.140625 7.71875 1.703125 
L 7.71875 11.625 
Q 12.109375 9.234375 16.796875 8.0625 
Q 21.484375 6.890625 26.703125 6.890625 
Q 35.15625 6.890625 40.078125 11.328125 
Q 45.015625 15.765625 45.015625 23.390625 
Q 45.015625 31 40.078125 35.4375 
Q 35.15625 39.890625 26.703125 39.890625 
Q 22.75 39.890625 18.8125 39.015625 
Q 14.890625 38.140625 10.796875 36.28125 
z
" id="DejaVuSans-35"/>
      </defs>
      <g transform="translate(27.240625 263.808094)scale(0.1 -0.1)">
       <use xlink:href="#DejaVuSans-35"/>
      </g>
     </g>
    </g>
    <g id="ytick_3">
     <g id="line2d_23">
      <path clip-path="url(#pd89b342052)" d="M 40.603125 216.808875 
L 397.723125 216.808875 
" style="fill:none;stroke:#b0b0b0;stroke-linecap:square;stroke-width:0.8;"/>
     </g>
     <g id="line2d_24">
      <g>
       <use style="stroke:#000000;stroke-width:0.8;" x="40.603125" xlink:href="#med4a71c448" y="216.808875"/>
      </g>
     </g>
     <g id="text_13">
      <!-- 10 -->
      <g transform="translate(20.878125 220.608094)scale(0.1 -0.1)">
       <use xlink:href="#DejaVuSans-31"/>
       <use x="63.623047" xlink:href="#DejaVuSans-30"/>
      </g>
     </g>
    </g>
    <g id="ytick_4">
     <g id="line2d_25">
      <path clip-path="url(#pd89b342052)" d="M 40.603125 173.608875 
L 397.723125 173.608875 
" style="fill:none;stroke:#b0b0b0;stroke-linecap:square;stroke-width:0.8;"/>
     </g>
     <g id="line2d_26">
      <g>
       <use style="stroke:#000000;stroke-width:0.8;" x="40.603125" xlink:href="#med4a71c448" y="173.608875"/>
      </g>
     </g>
     <g id="text_14">
      <!-- 15 -->
      <g transform="translate(20.878125 177.408094)scale(0.1 -0.1)">
       <use xlink:href="#DejaVuSans-31"/>
       <use x="63.623047" xlink:href="#DejaVuSans-35"/>
      </g>
     </g>
    </g>
    <g id="ytick_5">
     <g id="line2d_27">
      <path clip-path="url(#pd89b342052)" d="M 40.603125 130.408875 
L 397.723125 130.408875 
" style="fill:none;stroke:#b0b0b0;stroke-linecap:square;stroke-width:0.8;"/>
     </g>
     <g id="line2d_28">
      <g>
       <use style="stroke:#000000;stroke-width:0.8;" x="40.603125" xlink:href="#med4a71c448" y="130.408875"/>
      </g>
     </g>
     <g id="text_15">
      <!-- 20 -->
      <g transform="translate(20.878125 134.208094)scale(0.1 -0.1)">
       <use xlink:href="#DejaVuSans-32"/>
       <use x="63.623047" xlink:href="#DejaVuSans-30"/>
      </g>
     </g>
    </g>
    <g id="ytick_6">
     <g id="line2d_29">
      <path clip-path="url(#pd89b342052)" d="M 40.603125 87.208875 
L 397.723125 87.208875 
" style="fill:none;stroke:#b0b0b0;stroke-linecap:square;stroke-width:0.8;"/>
     </g>
     <g id="line2d_30">
      <g>
       <use style="stroke:#000000;stroke-width:0.8;" x="40.603125" xlink:href="#med4a71c448" y="87.208875"/>
      </g>
     </g>
     <g id="text_16">
      <!-- 25 -->
      <g transform="translate(20.878125 91.008094)scale(0.1 -0.1)">
       <use xlink:href="#DejaVuSans-32"/>
       <use x="63.623047" xlink:href="#DejaVuSans-35"/>
      </g>
     </g>
    </g>
    <g id="text_17">
     <!-- Discovered Nodes -->
     <defs>
      <path d="M 19.671875 64.796875 
L 19.671875 8.109375 
L 31.59375 8.109375 
Q 46.6875 8.109375 53.6875 14.9375 
Q 60.6875 21.78125 60.6875 36.53125 
Q 60.6875 51.171875 53.6875 57.984375 
Q 46.6875 64.796875 31.59375 64.796875 
z
M 9.8125 72.90625 
L 30.078125 72.90625 
Q 51.265625 72.90625 61.171875 64.09375 
Q 71.09375 55.28125 71.09375 36.53125 
Q 71.09375 17.671875 61.125 8.828125 
Q 51.171875 0 30.078125 0 
L 9.8125 0 
z
" id="DejaVuSans-44"/>
      <path d="M 48.78125 52.59375 
L 48.78125 44.1875 
Q 44.96875 46.296875 41.140625 47.34375 
Q 37.3125 48.390625 33.40625 48.390625 
Q 24.65625 48.390625 19.8125 42.84375 
Q 14.984375 37.3125 14.984375 27.296875 
Q 14.984375 17.28125 19.8125 11.734375 
Q 24.65625 6.203125 33.40625 6.203125 
Q 37.3125 6.203125 41.140625 7.25 
Q 44.96875 8.296875 48.78125 10.40625 
L 48.78125 2.09375 
Q 45.015625 0.34375 40.984375 -0.53125 
Q 36.96875 -1.421875 32.421875 -1.421875 
Q 20.0625 -1.421875 12.78125 6.34375 
Q 5.515625 14.109375 5.515625 27.296875 
Q 5.515625 40.671875 12.859375 48.328125 
Q 20.21875 56 33.015625 56 
Q 37.15625 56 41.109375 55.140625 
Q 45.0625 54.296875 48.78125 52.59375 
z
" id="DejaVuSans-63"/>
      <path d="M 30.609375 48.390625 
Q 23.390625 48.390625 19.1875 42.75 
Q 14.984375 37.109375 14.984375 27.296875 
Q 14.984375 17.484375 19.15625 11.84375 
Q 23.34375 6.203125 30.609375 6.203125 
Q 37.796875 6.203125 41.984375 11.859375 
Q 46.1875 17.53125 46.1875 27.296875 
Q 46.1875 37.015625 41.984375 42.703125 
Q 37.796875 48.390625 30.609375 48.390625 
z
M 30.609375 56 
Q 42.328125 56 49.015625 48.375 
Q 55.71875 40.765625 55.71875 27.296875 
Q 55.71875 13.875 49.015625 6.21875 
Q 42.328125 -1.421875 30.609375 -1.421875 
Q 18.84375 -1.421875 12.171875 6.21875 
Q 5.515625 13.875 5.515625 27.296875 
Q 5.515625 40.765625 12.171875 48.375 
Q 18.84375 56 30.609375 56 
z
" id="DejaVuSans-6f"/>
      <path d="M 2.984375 54.6875 
L 12.5 54.6875 
L 29.59375 8.796875 
L 46.6875 54.6875 
L 56.203125 54.6875 
L 35.6875 0 
L 23.484375 0 
z
" id="DejaVuSans-76"/>
      <path d="M 41.109375 46.296875 
Q 39.59375 47.171875 37.8125 47.578125 
Q 36.03125 48 33.890625 48 
Q 26.265625 48 22.1875 43.046875 
Q 18.109375 38.09375 18.109375 28.8125 
L 18.109375 0 
L 9.078125 0 
L 9.078125 54.6875 
L 18.109375 54.6875 
L 18.109375 46.1875 
Q 20.953125 51.171875 25.484375 53.578125 
Q 30.03125 56 36.53125 56 
Q 37.453125 56 38.578125 55.875 
Q 39.703125 55.765625 41.0625 55.515625 
z
" id="DejaVuSans-72"/>
      <path d="M 45.40625 46.390625 
L 45.40625 75.984375 
L 54.390625 75.984375 
L 54.390625 0 
L 45.40625 0 
L 45.40625 8.203125 
Q 42.578125 3.328125 38.25 0.953125 
Q 33.9375 -1.421875 27.875 -1.421875 
Q 17.96875 -1.421875 11.734375 6.484375 
Q 5.515625 14.40625 5.515625 27.296875 
Q 5.515625 40.1875 11.734375 48.09375 
Q 17.96875 56 27.875 56 
Q 33.9375 56 38.25 53.625 
Q 42.578125 51.265625 45.40625 46.390625 
z
M 14.796875 27.296875 
Q 14.796875 17.390625 18.875 11.75 
Q 22.953125 6.109375 30.078125 6.109375 
Q 37.203125 6.109375 41.296875 11.75 
Q 45.40625 17.390625 45.40625 27.296875 
Q 45.40625 37.203125 41.296875 42.84375 
Q 37.203125 48.484375 30.078125 48.484375 
Q 22.953125 48.484375 18.875 42.84375 
Q 14.796875 37.203125 14.796875 27.296875 
z
" id="DejaVuSans-64"/>
      <path id="DejaVuSans-20"/>
      <path d="M 9.8125 72.90625 
L 23.09375 72.90625 
L 55.421875 11.921875 
L 55.421875 72.90625 
L 64.984375 72.90625 
L 64.984375 0 
L 51.703125 0 
L 19.390625 60.984375 
L 19.390625 0 
L 9.8125 0 
z
" id="DejaVuSans-4e"/>
     </defs>
     <g transform="translate(14.798438 227.486375)rotate(-90)scale(0.1 -0.1)">
      <use xlink:href="#DejaVuSans-44"/>
      <use x="77.001953" xlink:href="#DejaVuSans-69"/>
      <use x="104.785156" xlink:href="#DejaVuSans-73"/>
      <use x="156.884766" xlink:href="#DejaVuSans-63"/>
      <use x="211.865234" xlink:href="#DejaVuSans-6f"/>
      <use x="273.046875" xlink:href="#DejaVuSans-76"/>
      <use x="332.226562" xlink:href="#DejaVuSans-65"/>
      <use x="393.75" xlink:href="#DejaVuSans-72"/>
      <use x="434.832031" xlink:href="#DejaVuSans-65"/>
      <use x="496.355469" xlink:href="#DejaVuSans-64"/>
      <use x="559.832031" xlink:href="#DejaVuSans-20"/>
      <use x="591.619141" xlink:href="#DejaVuSans-4e"/>
      <use x="666.423828" xlink:href="#DejaVuSans-6f"/>
      <use x="727.605469" xlink:href="#DejaVuSans-64"/>
      <use x="791.082031" xlink:href="#DejaVuSans-65"/>
      <use x="852.605469" xlink:href="#DejaVuSans-73"/>
     </g>
    </g>
   </g>
   <g id="line2d_31">
    <path clip-path="url(#pd89b342052)" d="M 40.603125 303.208875 
L 74.062623 303.208875 
L 74.281312 294.568875 
L 75.37476 294.568875 
L 75.59345 285.928875 
L 78.217724 285.928875 
L 78.436413 277.288875 
L 79.529861 277.288875 
L 79.748551 285.928875 
L 81.060688 285.928875 
L 81.279377 294.568875 
L 82.372825 294.568875 
L 82.591514 285.928875 
L 82.810204 294.568875 
L 86.090547 294.568875 
L 86.309236 303.208875 
L 124.361214 303.208875 
L 124.798593 285.928875 
L 128.516315 285.928875 
L 128.735005 277.288875 
L 128.953695 277.288875 
L 129.172384 268.648875 
L 129.609763 268.648875 
L 129.828453 260.008875 
L 130.265832 260.008875 
L 130.484521 268.648875 
L 130.9219 268.648875 
L 131.14059 277.288875 
L 134.639622 277.288875 
L 134.858312 294.568875 
L 135.295691 294.568875 
L 135.51438 303.208875 
L 191.28021 303.208875 
L 191.4989 294.568875 
L 191.717589 277.288875 
L 193.029726 277.288875 
L 193.248416 268.648875 
L 194.779243 268.648875 
L 194.997932 277.288875 
L 200.68386 277.288875 
L 200.902549 285.928875 
L 201.121239 285.928875 
L 201.339928 294.568875 
L 202.214687 294.568875 
L 202.433376 303.208875 
L 222.771502 303.208875 
L 222.990192 294.568875 
L 224.958398 294.568875 
L 225.395777 268.648875 
L 226.051845 268.648875 
L 226.270535 260.008875 
L 230.425636 260.008875 
L 230.863015 277.288875 
L 231.737773 277.288875 
L 231.956462 285.928875 
L 235.236805 285.928875 
L 235.674184 303.208875 
L 240.047975 303.208875 
L 240.266664 294.568875 
L 240.704044 294.568875 
L 240.922733 285.928875 
L 244.421766 285.928875 
L 244.640455 294.568875 
L 245.296524 294.568875 
L 245.515213 303.208875 
L 276.569126 303.208875 
L 276.787816 294.568875 
L 279.193401 294.568875 
L 279.41209 285.928875 
L 280.942917 285.928875 
L 281.380296 268.648875 
L 282.473743 268.648875 
L 282.692433 260.008875 
L 283.348502 260.008875 
L 283.567191 251.368875 
L 284.00457 251.368875 
L 284.441949 234.088875 
L 285.316707 234.088875 
L 285.754086 251.368875 
L 285.972776 251.368875 
L 286.191465 234.088875 
L 286.847534 234.088875 
L 287.066224 251.368875 
L 287.284913 242.728875 
L 287.722292 242.728875 
L 287.940982 234.088875 
L 288.159671 242.728875 
L 311.559451 242.728875 
L 311.77814 234.088875 
L 311.99683 242.728875 
L 312.871588 242.728875 
L 313.090277 234.088875 
L 313.527657 234.088875 
L 313.746346 242.728875 
L 314.183725 242.728875 
L 314.402415 234.088875 
L 315.058483 234.088875 
L 315.277173 242.728875 
L 315.495862 242.728875 
L 315.714552 234.088875 
L 322.712617 234.088875 
L 322.931306 242.728875 
L 323.149996 242.728875 
L 323.368685 234.088875 
L 323.806064 234.088875 
L 324.024754 242.728875 
L 324.899512 242.728875 
L 325.118202 234.088875 
L 325.336891 242.728875 
L 326.211649 242.728875 
L 326.430339 234.088875 
L 327.086407 234.088875 
L 327.305097 242.728875 
L 327.523786 234.088875 
L 360.983284 234.088875 
L 361.201974 242.728875 
L 361.639353 242.728875 
L 361.858042 234.088875 
L 362.076732 242.728875 
L 392.037197 242.728875 
L 392.255887 251.368875 
L 392.474576 242.728875 
L 393.349334 242.728875 
L 393.568024 251.368875 
L 394.224093 251.368875 
L 394.442782 242.728875 
L 394.661472 251.368875 
L 397.504435 251.368875 
L 397.504435 251.368875 
" style="fill:none;stroke:#008000;stroke-linecap:square;stroke-width:1.5;"/>
   </g>
   <g id="line2d_32">
    <path clip-path="url(#pd89b342052)" d="M 40.603125 303.208875 
L 69.251453 303.208875 
L 69.470143 294.568875 
L 75.812139 294.568875 
L 76.030829 303.208875 
L 79.748551 303.208875 
L 79.96724 294.568875 
L 86.309236 294.568875 
L 86.527926 303.208875 
L 93.307301 303.208875 
L 93.525991 294.568875 
L 98.55585 294.568875 
L 98.993229 277.288875 
L 100.305366 277.288875 
L 100.524056 268.648875 
L 100.742745 277.288875 
L 103.36702 277.288875 
L 103.585709 285.928875 
L 105.991294 285.928875 
L 106.209984 294.568875 
L 107.303431 294.568875 
L 107.522121 303.208875 
L 164.162709 303.208875 
L 164.381398 294.568875 
L 164.600088 294.568875 
L 164.818777 285.928875 
L 165.912225 285.928875 
L 166.130914 277.288875 
L 167.005672 277.288875 
L 167.224362 268.648875 
L 167.443052 268.648875 
L 167.661741 277.288875 
L 169.192568 277.288875 
L 169.411257 268.648875 
L 174.441116 268.648875 
L 174.659806 277.288875 
L 177.065391 277.288875 
L 177.28408 285.928875 
L 178.377528 285.928875 
L 178.596217 294.568875 
L 178.814907 294.568875 
L 179.033597 303.208875 
L 192.592347 303.208875 
L 193.248416 277.288875 
L 193.685795 277.288875 
L 193.904484 268.648875 
L 197.403517 268.648875 
L 197.622206 277.288875 
L 198.496965 277.288875 
L 198.715654 285.928875 
L 200.027791 285.928875 
L 200.246481 294.568875 
L 201.339928 294.568875 
L 201.558618 303.208875 
L 211.399647 303.208875 
L 211.618336 294.568875 
L 211.837026 294.568875 
L 212.055715 277.288875 
L 216.210816 277.288875 
L 216.429506 294.568875 
L 219.928538 294.568875 
L 220.147228 277.288875 
L 224.521018 277.288875 
L 224.739708 285.928875 
L 225.395777 285.928875 
L 225.614466 277.288875 
L 230.206946 277.288875 
L 230.425636 285.928875 
L 230.644325 285.928875 
L 230.863015 277.288875 
L 231.081704 277.288875 
L 231.300394 285.928875 
L 232.393841 285.928875 
L 232.612531 277.288875 
L 235.455495 277.288875 
L 235.674184 285.928875 
L 236.111563 285.928875 
L 236.330253 294.568875 
L 236.548943 285.928875 
L 238.298459 285.928875 
L 238.735838 268.648875 
L 239.829285 268.648875 
L 240.047975 277.288875 
L 241.141423 277.288875 
L 241.360112 285.928875 
L 245.733903 285.928875 
L 245.952592 303.208875 
L 278.537332 303.208875 
L 278.756022 294.568875 
L 281.161606 294.568875 
L 281.380296 285.928875 
L 282.692433 285.928875 
L 283.129812 268.648875 
L 283.785881 268.648875 
L 284.00457 260.008875 
L 285.098018 260.008875 
L 285.316707 251.368875 
L 286.191465 251.368875 
L 286.628845 234.088875 
L 287.722292 234.088875 
L 287.940982 242.728875 
L 312.434209 242.728875 
L 312.652898 234.088875 
L 312.871588 234.088875 
L 313.090277 242.728875 
L 313.746346 242.728875 
L 313.965036 234.088875 
L 314.402415 234.088875 
L 314.621104 242.728875 
L 315.058483 242.728875 
L 315.277173 234.088875 
L 316.151931 234.088875 
L 316.37062 242.728875 
L 316.58931 234.088875 
L 323.368685 234.088875 
L 323.587375 242.728875 
L 324.243443 242.728875 
L 324.462133 234.088875 
L 324.680822 234.088875 
L 324.899512 242.728875 
L 325.555581 242.728875 
L 325.77427 234.088875 
L 326.430339 234.088875 
L 326.649028 242.728875 
L 326.867718 242.728875 
L 327.086407 234.088875 
L 360.545905 234.088875 
L 360.764595 242.728875 
L 360.983284 234.088875 
L 361.639353 234.088875 
L 361.858042 242.728875 
L 392.911955 242.728875 
L 393.130645 251.368875 
L 393.568024 251.368875 
L 393.786713 242.728875 
L 394.005403 242.728875 
L 394.224093 251.368875 
L 397.504435 251.368875 
L 397.504435 251.368875 
" style="fill:none;stroke:#0000ff;stroke-linecap:square;stroke-width:1.5;"/>
   </g>
   <g id="line2d_33">
    <path clip-path="url(#pd89b342052)" d="M 40.603125 303.208875 
L 72.969175 303.208875 
L 73.187865 294.568875 
L 74.937381 294.568875 
L 75.15607 285.928875 
L 76.249518 285.928875 
L 76.686897 268.648875 
L 76.905587 251.368875 
L 77.124276 251.368875 
L 77.342966 242.728875 
L 79.311172 242.728875 
L 79.529861 234.088875 
L 80.18593 234.088875 
L 80.404619 216.808875 
L 81.060688 216.808875 
L 81.498067 234.088875 
L 83.466273 234.088875 
L 83.684962 260.008875 
L 83.903652 268.648875 
L 84.122341 260.008875 
L 85.653168 260.008875 
L 85.871857 268.648875 
L 86.090547 268.648875 
L 86.309236 277.288875 
L 86.527926 277.288875 
L 86.965305 303.208875 
L 113.645428 303.208875 
L 113.864117 294.568875 
L 114.520186 294.568875 
L 114.738875 285.928875 
L 115.394944 285.928875 
L 115.613633 277.288875 
L 115.832323 277.288875 
L 116.051012 268.648875 
L 117.14446 268.648875 
L 117.581839 251.368875 
L 118.456597 251.368875 
L 118.675287 260.008875 
L 119.112666 260.008875 
L 119.331355 268.648875 
L 119.550045 268.648875 
L 119.768734 277.288875 
L 119.987424 251.368875 
L 120.424803 251.368875 
L 120.643492 260.008875 
L 121.518251 260.008875 
L 121.73694 268.648875 
L 122.393009 268.648875 
L 122.611698 260.008875 
L 122.830388 268.648875 
L 123.486456 268.648875 
L 123.705146 277.288875 
L 124.798593 277.288875 
L 125.017283 285.928875 
L 126.985489 285.928875 
L 127.204178 277.288875 
L 129.172384 277.288875 
L 129.609763 260.008875 
L 129.828453 268.648875 
L 130.265832 251.368875 
L 131.359279 251.368875 
L 131.577969 242.728875 
L 131.796658 242.728875 
L 132.015348 251.368875 
L 133.108796 251.368875 
L 133.327485 260.008875 
L 133.546175 260.008875 
L 133.983554 277.288875 
L 134.202243 277.288875 
L 134.420933 285.928875 
L 136.389138 285.928875 
L 136.607828 294.568875 
L 137.045207 294.568875 
L 137.263897 303.208875 
L 165.256156 303.208875 
L 165.474846 294.568875 
L 166.568293 294.568875 
L 166.786983 285.928875 
L 167.661741 285.928875 
L 168.31781 260.008875 
L 168.755189 234.088875 
L 170.286015 234.088875 
L 170.723394 251.368875 
L 173.128979 251.368875 
L 173.347669 242.728875 
L 177.065391 242.728875 
L 177.721459 285.928875 
L 178.596217 285.928875 
L 178.814907 294.568875 
L 180.127044 294.568875 
L 180.345734 303.208875 
L 207.463235 303.208875 
L 207.681925 294.568875 
L 208.119304 294.568875 
L 208.337993 285.928875 
L 208.556683 268.648875 
L 209.212751 268.648875 
L 209.431441 260.008875 
L 210.08751 260.008875 
L 210.306199 251.368875 
L 210.743578 251.368875 
L 210.962268 242.728875 
L 214.4613 242.728875 
L 214.67999 234.088875 
L 215.773437 234.088875 
L 216.210816 251.368875 
L 216.648195 251.368875 
L 216.866885 260.008875 
L 219.709849 260.008875 
L 219.928538 268.648875 
L 220.365917 268.648875 
L 220.584607 285.928875 
L 221.021986 285.928875 
L 221.240676 294.568875 
L 222.115434 294.568875 
L 222.334123 303.208875 
L 222.771502 303.208875 
L 222.990192 294.568875 
L 224.521018 294.568875 
L 224.958398 277.288875 
L 225.177087 277.288875 
L 225.395777 268.648875 
L 226.270535 268.648875 
L 226.489224 242.728875 
L 228.45743 242.728875 
L 228.676119 234.088875 
L 229.332188 234.088875 
L 229.550878 216.808875 
L 229.769567 225.448875 
L 230.644325 225.448875 
L 230.863015 234.088875 
L 231.300394 234.088875 
L 231.519083 242.728875 
L 232.831221 242.728875 
L 233.04991 251.368875 
L 233.705979 251.368875 
L 233.924668 260.008875 
L 234.143358 260.008875 
L 234.362047 268.648875 
L 235.236805 268.648875 
L 235.455495 277.288875 
L 235.674184 277.288875 
L 235.892874 285.928875 
L 237.205011 285.928875 
L 237.423701 277.288875 
L 239.173217 277.288875 
L 239.391906 268.648875 
L 239.610596 268.648875 
L 239.829285 251.368875 
L 240.266664 251.368875 
L 240.485354 242.728875 
L 245.952592 242.728875 
L 246.171282 251.368875 
L 257.324448 251.368875 
L 257.543137 242.728875 
L 257.761827 242.728875 
L 257.980516 251.368875 
L 258.417895 251.368875 
L 258.636585 242.728875 
L 260.167412 242.728875 
L 260.386101 234.088875 
L 260.604791 234.088875 
L 260.82348 225.448875 
L 271.320578 225.448875 
L 271.539267 234.088875 
L 273.726162 234.088875 
L 273.944852 225.448875 
L 276.350437 225.448875 
L 276.569126 216.808875 
L 277.225195 216.808875 
L 277.443884 225.448875 
L 278.756022 225.448875 
L 278.974711 234.088875 
L 284.660639 234.088875 
L 284.879328 242.728875 
L 285.316707 242.728875 
L 285.535397 234.088875 
L 285.972776 234.088875 
L 286.410155 251.368875 
L 286.628845 251.368875 
L 287.066224 234.088875 
L 287.503603 234.088875 
L 287.722292 242.728875 
L 312.215519 242.728875 
L 312.434209 234.088875 
L 312.652898 234.088875 
L 312.871588 242.728875 
L 313.527657 242.728875 
L 313.746346 234.088875 
L 314.183725 234.088875 
L 314.402415 242.728875 
L 315.058483 242.728875 
L 315.277173 234.088875 
L 315.933241 234.088875 
L 316.151931 242.728875 
L 316.37062 242.728875 
L 316.58931 234.088875 
L 322.056548 234.088875 
L 322.275238 242.728875 
L 322.493927 234.088875 
L 323.368685 234.088875 
L 323.587375 242.728875 
L 324.243443 242.728875 
L 324.462133 234.088875 
L 324.680822 242.728875 
L 325.555581 242.728875 
L 325.77427 234.088875 
L 326.211649 234.088875 
L 326.430339 242.728875 
L 326.867718 242.728875 
L 327.086407 234.088875 
L 361.420663 234.088875 
L 361.639353 242.728875 
L 392.693266 242.728875 
L 392.911955 251.368875 
L 393.349334 251.368875 
L 393.568024 242.728875 
L 394.005403 242.728875 
L 394.224093 251.368875 
L 397.504435 251.368875 
L 397.504435 251.368875 
" style="fill:none;stroke:#ff0000;stroke-linecap:square;stroke-width:1.5;"/>
   </g>
   <g id="line2d_34">
    <path clip-path="url(#pd89b342052)" d="M 40.603125 303.208875 
L 107.522121 303.208875 
L 107.9595 285.928875 
L 108.178189 285.928875 
L 108.396879 277.288875 
L 109.052947 277.288875 
L 109.271637 285.928875 
L 109.490326 285.928875 
L 109.709016 277.288875 
L 110.146395 277.288875 
L 110.365085 268.648875 
L 110.802464 268.648875 
L 111.021153 216.808875 
L 111.239843 216.808875 
L 111.677222 190.888875 
L 111.895911 182.248875 
L 112.55198 182.248875 
L 112.770669 190.888875 
L 112.989359 190.888875 
L 113.208048 199.528875 
L 113.645428 182.248875 
L 114.082807 182.248875 
L 114.301496 173.608875 
L 114.520186 182.248875 
L 114.738875 173.608875 
L 114.957565 182.248875 
L 115.394944 216.808875 
L 116.707081 216.808875 
L 117.14446 234.088875 
L 117.363149 234.088875 
L 117.581839 242.728875 
L 117.800529 268.648875 
L 118.456597 268.648875 
L 118.675287 277.288875 
L 119.331355 277.288875 
L 119.768734 294.568875 
L 120.862182 294.568875 
L 121.080871 303.208875 
L 132.452727 303.208875 
L 132.671416 294.568875 
L 134.639622 294.568875 
L 134.858312 285.928875 
L 135.51438 285.928875 
L 135.73307 294.568875 
L 137.045207 294.568875 
L 137.263897 285.928875 
L 140.32555 285.928875 
L 140.54424 294.568875 
L 142.731135 294.568875 
L 142.949824 285.928875 
L 143.387203 285.928875 
L 143.605893 277.288875 
L 143.824582 260.008875 
L 144.043272 260.008875 
L 144.261961 251.368875 
L 144.480651 251.368875 
L 144.699341 242.728875 
L 144.91803 225.448875 
L 145.13672 225.448875 
L 145.792788 199.528875 
L 146.011478 182.248875 
L 146.230167 182.248875 
L 146.448857 173.608875 
L 146.667546 156.328875 
L 146.886236 156.328875 
L 147.104925 147.688875 
L 148.198373 147.688875 
L 148.417063 139.048875 
L 149.073131 139.048875 
L 149.291821 147.688875 
L 149.51051 139.048875 
L 149.7292 147.688875 
L 150.603958 147.688875 
L 150.822647 156.328875 
L 151.260026 156.328875 
L 151.478716 164.968875 
L 151.697405 164.968875 
L 152.134785 208.168875 
L 152.353474 208.168875 
L 152.572164 216.808875 
L 153.009543 216.808875 
L 153.446922 234.088875 
L 153.665611 234.088875 
L 153.884301 251.368875 
L 154.32168 251.368875 
L 154.540369 260.008875 
L 155.196438 260.008875 
L 155.633817 277.288875 
L 157.164644 277.288875 
L 157.383333 285.928875 
L 160.444987 285.928875 
L 160.663676 294.568875 
L 161.101055 294.568875 
L 161.319745 303.208875 
L 168.536499 303.208875 
L 168.973878 285.928875 
L 171.160773 285.928875 
L 171.379463 277.288875 
L 171.598153 277.288875 
L 171.816842 268.648875 
L 172.035532 268.648875 
L 172.472911 242.728875 
L 172.6916 234.088875 
L 172.91029 234.088875 
L 173.128979 225.448875 
L 173.347669 225.448875 
L 173.566358 208.168875 
L 173.785048 208.168875 
L 174.003737 199.528875 
L 174.441116 164.968875 
L 174.878495 164.968875 
L 175.097185 147.688875 
L 175.315875 147.688875 
L 175.753254 130.408875 
L 175.971943 130.408875 
L 176.190633 121.768875 
L 176.409322 130.408875 
L 177.28408 130.408875 
L 177.50277 139.048875 
L 178.377528 139.048875 
L 178.814907 156.328875 
L 179.470976 156.328875 
L 179.689665 173.608875 
L 179.908355 173.608875 
L 180.345734 190.888875 
L 180.564423 190.888875 
L 180.783113 208.168875 
L 181.220492 208.168875 
L 181.657871 234.088875 
L 182.751319 234.088875 
L 182.970008 242.728875 
L 183.188698 242.728875 
L 183.626077 260.008875 
L 184.719524 260.008875 
L 184.938214 268.648875 
L 185.375593 268.648875 
L 186.031661 294.568875 
L 187.125109 294.568875 
L 187.343799 303.208875 
L 225.614466 303.208875 
L 226.051845 277.288875 
L 226.270535 277.288875 
L 226.926603 251.368875 
L 227.363982 251.368875 
L 227.582672 242.728875 
L 228.020051 216.808875 
L 228.45743 216.808875 
L 229.550878 173.608875 
L 229.988257 173.608875 
L 230.206946 156.328875 
L 230.863015 156.328875 
L 231.081704 139.048875 
L 231.300394 139.048875 
L 231.519083 130.408875 
L 231.737773 130.408875 
L 232.175152 113.128875 
L 232.393841 113.128875 
L 232.831221 139.048875 
L 233.487289 139.048875 
L 233.924668 173.608875 
L 234.143358 173.608875 
L 234.362047 190.888875 
L 234.580737 190.888875 
L 234.799426 182.248875 
L 235.018116 190.888875 
L 236.111563 190.888875 
L 236.548943 208.168875 
L 236.986322 208.168875 
L 237.64239 234.088875 
L 237.86108 234.088875 
L 238.079769 242.728875 
L 238.298459 260.008875 
L 239.391906 260.008875 
L 239.610596 268.648875 
L 240.047975 268.648875 
L 240.266664 277.288875 
L 241.141423 277.288875 
L 241.578802 260.008875 
L 242.016181 260.008875 
L 242.23487 251.368875 
L 242.890939 208.168875 
L 243.109628 208.168875 
L 243.328318 190.888875 
L 243.547007 190.888875 
L 243.765697 173.608875 
L 244.203076 173.608875 
L 244.640455 156.328875 
L 244.859145 130.408875 
L 245.077834 130.408875 
L 245.515213 113.128875 
L 248.358177 113.128875 
L 248.576867 121.768875 
L 248.795556 113.128875 
L 249.670314 113.128875 
L 249.889004 121.768875 
L 250.326383 121.768875 
L 250.545072 113.128875 
L 250.763762 113.128875 
L 250.982451 121.768875 
L 256.668379 121.768875 
L 256.887069 113.128875 
L 257.105758 121.768875 
L 257.761827 121.768875 
L 257.980516 113.128875 
L 265.41596 113.128875 
L 265.63465 95.848875 
L 271.539267 95.848875 
L 271.976646 78.568875 
L 272.632715 78.568875 
L 272.851404 69.928875 
L 276.131747 69.928875 
L 276.350437 78.568875 
L 285.972776 78.568875 
L 286.191465 69.928875 
L 286.410155 69.928875 
L 286.847534 87.208875 
L 287.066224 87.208875 
L 287.284913 78.568875 
L 287.503603 78.568875 
L 287.722292 69.928875 
L 288.159671 87.208875 
L 289.034429 87.208875 
L 289.253119 78.568875 
L 289.471808 78.568875 
L 289.690498 87.208875 
L 289.909187 87.208875 
L 290.127877 95.848875 
L 290.565256 78.568875 
L 290.783946 78.568875 
L 291.002635 87.208875 
L 291.221325 104.488875 
L 291.440014 104.488875 
L 292.096083 78.568875 
L 292.314772 87.208875 
L 292.533462 87.208875 
L 292.752151 95.848875 
L 293.18953 95.848875 
L 293.626909 78.568875 
L 293.845599 78.568875 
L 294.064289 87.208875 
L 294.939047 87.208875 
L 295.157736 78.568875 
L 295.376426 78.568875 
L 295.595115 87.208875 
L 295.813805 87.208875 
L 296.032494 95.848875 
L 296.251184 95.848875 
L 296.688563 78.568875 
L 296.907252 78.568875 
L 297.344631 95.848875 
L 297.78201 95.848875 
L 298.0007 78.568875 
L 298.438079 78.568875 
L 298.656769 87.208875 
L 299.312837 87.208875 
L 299.531527 78.568875 
L 299.750216 78.568875 
L 299.968906 87.208875 
L 300.624974 87.208875 
L 301.062353 69.928875 
L 301.281043 69.928875 
L 301.499732 78.568875 
L 302.374491 78.568875 
L 302.59318 69.928875 
L 302.81187 69.928875 
L 303.030559 78.568875 
L 303.686628 78.568875 
L 303.905317 69.928875 
L 304.342696 69.928875 
L 304.561386 87.208875 
L 304.998765 87.208875 
L 305.217454 78.568875 
L 305.436144 87.208875 
L 316.807999 87.208875 
L 317.245379 69.928875 
L 317.464068 78.568875 
L 317.682758 78.568875 
L 317.901447 87.208875 
L 318.338826 87.208875 
L 318.557516 69.928875 
L 318.776205 69.928875 
L 319.213584 87.208875 
L 319.650963 87.208875 
L 319.869653 78.568875 
L 325.99296 78.568875 
L 326.211649 69.928875 
L 326.430339 69.928875 
L 326.649028 78.568875 
L 327.086407 78.568875 
L 327.305097 69.928875 
L 330.36675 69.928875 
L 330.58544 61.288875 
L 332.553646 61.288875 
L 332.772335 69.928875 
L 333.209714 69.928875 
L 333.428404 61.288875 
L 333.647093 61.288875 
L 333.865783 69.928875 
L 339.333021 69.928875 
L 339.55171 61.288875 
L 339.7704 61.288875 
L 339.989089 69.928875 
L 340.426469 69.928875 
L 340.645158 61.288875 
L 341.738606 61.288875 
L 341.957295 69.928875 
L 342.175985 69.928875 
L 342.394674 61.288875 
L 342.832053 61.288875 
L 343.050743 69.928875 
L 350.267497 69.928875 
L 350.486187 78.568875 
L 350.704876 78.568875 
L 350.923566 87.208875 
L 351.142255 78.568875 
L 351.360945 78.568875 
L 351.579634 69.928875 
L 352.017014 87.208875 
L 358.577699 87.208875 
L 358.796389 78.568875 
L 359.233768 78.568875 
L 359.452458 87.208875 
L 359.671147 87.208875 
L 359.889837 78.568875 
L 362.514111 78.568875 
L 362.7328 87.208875 
L 362.95149 87.208875 
L 363.17018 78.568875 
L 363.826248 78.568875 
L 364.044938 87.208875 
L 364.263627 87.208875 
L 364.482317 78.568875 
L 364.701006 78.568875 
L 364.919696 69.928875 
L 365.357075 87.208875 
L 365.575764 78.568875 
L 366.013143 78.568875 
L 366.231833 69.928875 
L 373.885966 69.928875 
L 374.104656 78.568875 
L 378.041067 78.568875 
L 378.259757 69.928875 
L 378.478446 69.928875 
L 378.697136 95.848875 
L 378.915826 95.848875 
L 379.134515 87.208875 
L 379.353205 87.208875 
L 379.571894 69.928875 
L 379.790584 78.568875 
L 380.009273 78.568875 
L 380.446652 95.848875 
L 380.665342 95.848875 
L 380.884031 78.568875 
L 390.506371 78.568875 
L 390.72506 87.208875 
L 390.94375 87.208875 
L 391.162439 78.568875 
L 391.599818 78.568875 
L 391.818508 87.208875 
L 394.224093 87.208875 
L 394.442782 78.568875 
L 394.880161 78.568875 
L 395.098851 87.208875 
L 397.504435 87.208875 
L 397.504435 87.208875 
" style="fill:none;stroke:#00ffff;stroke-linecap:square;stroke-width:1.5;"/>
   </g>
   <g id="line2d_35">
    <path clip-path="url(#pd89b342052)" d="M 40.603125 303.208875 
L 205.27634 303.208875 
L 205.495029 294.568875 
L 206.369788 294.568875 
L 206.588477 285.928875 
L 215.992127 285.928875 
L 216.210816 294.568875 
L 219.928538 294.568875 
L 220.147228 303.208875 
L 251.201141 303.208875 
L 251.41983 294.568875 
L 254.481484 294.568875 
L 254.700173 285.928875 
L 257.980516 285.928875 
L 258.199206 294.568875 
L 258.636585 294.568875 
L 258.855274 285.928875 
L 259.511343 285.928875 
L 259.730033 294.568875 
L 348.517981 294.568875 
L 348.736671 303.208875 
L 349.17405 303.208875 
L 349.392739 294.568875 
L 349.611429 294.568875 
L 349.830118 303.208875 
L 397.504435 303.208875 
L 397.504435 303.208875 
" style="fill:none;stroke:#ff00ff;stroke-linecap:square;stroke-width:1.5;"/>
   </g>
   <g id="line2d_36">
    <path clip-path="url(#pd89b342052)" d="M 40.603125 303.208875 
L 284.00457 303.208875 
L 284.22326 294.568875 
L 326.649028 294.568875 
L 326.867718 285.928875 
L 354.203909 285.928875 
L 354.422598 277.288875 
L 355.297356 277.288875 
L 355.516046 268.648875 
L 370.824313 268.648875 
L 371.043003 260.008875 
L 397.504435 260.008875 
L 397.504435 260.008875 
" style="fill:none;stroke:#000000;stroke-linecap:square;stroke-width:1.5;"/>
   </g>
   <g id="patch_3">
    <path d="M 40.603125 315.304875 
L 40.603125 49.192875 
" style="fill:none;stroke:#000000;stroke-linecap:square;stroke-linejoin:miter;stroke-width:0.8;"/>
   </g>
   <g id="patch_4">
    <path d="M 397.723125 315.304875 
L 397.723125 49.192875 
" style="fill:none;stroke:#000000;stroke-linecap:square;stroke-linejoin:miter;stroke-width:0.8;"/>
   </g>
   <g id="patch_5">
    <path d="M 40.603125 315.304875 
L 397.723125 315.304875 
" style="fill:none;stroke:#000000;stroke-linecap:square;stroke-linejoin:miter;stroke-width:0.8;"/>
   </g>
   <g id="patch_6">
    <path d="M 40.603125 49.192875 
L 397.723125 49.192875 
" style="fill:none;stroke:#000000;stroke-linecap:square;stroke-linejoin:miter;stroke-width:0.8;"/>
   </g>
   <g id="text_18">
    <!-- Discovered nodes per time -->
    <defs>
     <path d="M 54.890625 33.015625 
L 54.890625 0 
L 45.90625 0 
L 45.90625 32.71875 
Q 45.90625 40.484375 42.875 44.328125 
Q 39.84375 48.1875 33.796875 48.1875 
Q 26.515625 48.1875 22.3125 43.546875 
Q 18.109375 38.921875 18.109375 30.90625 
L 18.109375 0 
L 9.078125 0 
L 9.078125 54.6875 
L 18.109375 54.6875 
L 18.109375 46.1875 
Q 21.34375 51.125 25.703125 53.5625 
Q 30.078125 56 35.796875 56 
Q 45.21875 56 50.046875 50.171875 
Q 54.890625 44.34375 54.890625 33.015625 
z
" id="DejaVuSans-6e"/>
     <path d="M 18.109375 8.203125 
L 18.109375 -20.796875 
L 9.078125 -20.796875 
L 9.078125 54.6875 
L 18.109375 54.6875 
L 18.109375 46.390625 
Q 20.953125 51.265625 25.265625 53.625 
Q 29.59375 56 35.59375 56 
Q 45.5625 56 51.78125 48.09375 
Q 58.015625 40.1875 58.015625 27.296875 
Q 58.015625 14.40625 51.78125 6.484375 
Q 45.5625 -1.421875 35.59375 -1.421875 
Q 29.59375 -1.421875 25.265625 0.953125 
Q 20.953125 3.328125 18.109375 8.203125 
z
M 48.6875 27.296875 
Q 48.6875 37.203125 44.609375 42.84375 
Q 40.53125 48.484375 33.40625 48.484375 
Q 26.265625 48.484375 22.1875 42.84375 
Q 18.109375 37.203125 18.109375 27.296875 
Q 18.109375 17.390625 22.1875 11.75 
Q 26.265625 6.109375 33.40625 6.109375 
Q 40.53125 6.109375 44.609375 11.75 
Q 48.6875 17.390625 48.6875 27.296875 
z
" id="DejaVuSans-70"/>
     <path d="M 18.3125 70.21875 
L 18.3125 54.6875 
L 36.8125 54.6875 
L 36.8125 47.703125 
L 18.3125 47.703125 
L 18.3125 18.015625 
Q 18.3125 11.328125 20.140625 9.421875 
Q 21.96875 7.515625 27.59375 7.515625 
L 36.8125 7.515625 
L 36.8125 0 
L 27.59375 0 
Q 17.1875 0 13.234375 3.875 
Q 9.28125 7.765625 9.28125 18.015625 
L 9.28125 47.703125 
L 2.6875 47.703125 
L 2.6875 54.6875 
L 9.28125 54.6875 
L 9.28125 70.21875 
z
" id="DejaVuSans-74"/>
    </defs>
    <g transform="translate(138.227813 16.318125)scale(0.12 -0.12)">
     <use xlink:href="#DejaVuSans-44"/>
     <use x="77.001953" xlink:href="#DejaVuSans-69"/>
     <use x="104.785156" xlink:href="#DejaVuSans-73"/>
     <use x="156.884766" xlink:href="#DejaVuSans-63"/>
     <use x="211.865234" xlink:href="#DejaVuSans-6f"/>
     <use x="273.046875" xlink:href="#DejaVuSans-76"/>
     <use x="332.226562" xlink:href="#DejaVuSans-65"/>
     <use x="393.75" xlink:href="#DejaVuSans-72"/>
     <use x="434.832031" xlink:href="#DejaVuSans-65"/>
     <use x="496.355469" xlink:href="#DejaVuSans-64"/>
     <use x="559.832031" xlink:href="#DejaVuSans-20"/>
     <use x="591.619141" xlink:href="#DejaVuSans-6e"/>
     <use x="654.998047" xlink:href="#DejaVuSans-6f"/>
     <use x="716.179688" xlink:href="#DejaVuSans-64"/>
     <use x="779.65625" xlink:href="#DejaVuSans-65"/>
     <use x="841.179688" xlink:href="#DejaVuSans-73"/>
     <use x="893.279297" xlink:href="#DejaVuSans-20"/>
     <use x="925.066406" xlink:href="#DejaVuSans-70"/>
     <use x="988.542969" xlink:href="#DejaVuSans-65"/>
     <use x="1050.066406" xlink:href="#DejaVuSans-72"/>
     <use x="1091.179688" xlink:href="#DejaVuSans-20"/>
     <use x="1122.966797" xlink:href="#DejaVuSans-74"/>
     <use x="1162.175781" xlink:href="#DejaVuSans-69"/>
     <use x="1189.958984" xlink:href="#DejaVuSans-6d"/>
     <use x="1287.371094" xlink:href="#DejaVuSans-65"/>
    </g>
    <!--  -->
    <g transform="translate(219.163125 29.7555)scale(0.12 -0.12)"/>
    <!--  -->
    <g transform="translate(219.163125 43.192875)scale(0.12 -0.12)"/>
   </g>
   <g id="legend_1">
    <g id="patch_7">
     <path d="M 411.865525 139.939385 
L 482.471775 139.939385 
Q 484.471775 139.939385 484.471775 137.939385 
L 484.471775 50.870635 
Q 484.471775 48.870635 482.471775 48.870635 
L 411.865525 48.870635 
Q 409.865525 48.870635 409.865525 50.870635 
L 409.865525 137.939385 
Q 409.865525 139.939385 411.865525 139.939385 
z
" style="fill:#ffffff;opacity:0.8;stroke:#cccccc;stroke-linejoin:miter;"/>
    </g>
    <g id="line2d_37">
     <path d="M 413.865525 56.969072 
L 433.865525 56.969072 
" style="fill:none;stroke:#008000;stroke-linecap:square;stroke-width:1.5;"/>
    </g>
    <g id="line2d_38"/>
    <g id="text_19">
     <!-- drone 0 -->
     <g transform="translate(441.865525 60.469072)scale(0.1 -0.1)">
      <use xlink:href="#DejaVuSans-64"/>
      <use x="63.476562" xlink:href="#DejaVuSans-72"/>
      <use x="104.558594" xlink:href="#DejaVuSans-6f"/>
      <use x="165.740234" xlink:href="#DejaVuSans-6e"/>
      <use x="229.119141" xlink:href="#DejaVuSans-65"/>
      <use x="290.642578" xlink:href="#DejaVuSans-20"/>
      <use x="322.429688" xlink:href="#DejaVuSans-30"/>
     </g>
    </g>
    <g id="line2d_39">
     <path d="M 413.865525 71.647197 
L 433.865525 71.647197 
" style="fill:none;stroke:#0000ff;stroke-linecap:square;stroke-width:1.5;"/>
    </g>
    <g id="line2d_40"/>
    <g id="text_20">
     <!-- drone 1 -->
     <g transform="translate(441.865525 75.147197)scale(0.1 -0.1)">
      <use xlink:href="#DejaVuSans-64"/>
      <use x="63.476562" xlink:href="#DejaVuSans-72"/>
      <use x="104.558594" xlink:href="#DejaVuSans-6f"/>
      <use x="165.740234" xlink:href="#DejaVuSans-6e"/>
      <use x="229.119141" xlink:href="#DejaVuSans-65"/>
      <use x="290.642578" xlink:href="#DejaVuSans-20"/>
      <use x="322.429688" xlink:href="#DejaVuSans-31"/>
     </g>
    </g>
    <g id="line2d_41">
     <path d="M 413.865525 86.325322 
L 433.865525 86.325322 
" style="fill:none;stroke:#ff0000;stroke-linecap:square;stroke-width:1.5;"/>
    </g>
    <g id="line2d_42"/>
    <g id="text_21">
     <!-- drone 2 -->
     <g transform="translate(441.865525 89.825322)scale(0.1 -0.1)">
      <use xlink:href="#DejaVuSans-64"/>
      <use x="63.476562" xlink:href="#DejaVuSans-72"/>
      <use x="104.558594" xlink:href="#DejaVuSans-6f"/>
      <use x="165.740234" xlink:href="#DejaVuSans-6e"/>
      <use x="229.119141" xlink:href="#DejaVuSans-65"/>
      <use x="290.642578" xlink:href="#DejaVuSans-20"/>
      <use x="322.429688" xlink:href="#DejaVuSans-32"/>
     </g>
    </g>
    <g id="line2d_43">
     <path d="M 413.865525 101.003447 
L 433.865525 101.003447 
" style="fill:none;stroke:#00ffff;stroke-linecap:square;stroke-width:1.5;"/>
    </g>
    <g id="line2d_44"/>
    <g id="text_22">
     <!-- drone 3 -->
     <defs>
      <path d="M 40.578125 39.3125 
Q 47.65625 37.796875 51.625 33 
Q 55.609375 28.21875 55.609375 21.1875 
Q 55.609375 10.40625 48.1875 4.484375 
Q 40.765625 -1.421875 27.09375 -1.421875 
Q 22.515625 -1.421875 17.65625 -0.515625 
Q 12.796875 0.390625 7.625 2.203125 
L 7.625 11.71875 
Q 11.71875 9.328125 16.59375 8.109375 
Q 21.484375 6.890625 26.8125 6.890625 
Q 36.078125 6.890625 40.9375 10.546875 
Q 45.796875 14.203125 45.796875 21.1875 
Q 45.796875 27.640625 41.28125 31.265625 
Q 36.765625 34.90625 28.71875 34.90625 
L 20.21875 34.90625 
L 20.21875 43.015625 
L 29.109375 43.015625 
Q 36.375 43.015625 40.234375 45.921875 
Q 44.09375 48.828125 44.09375 54.296875 
Q 44.09375 59.90625 40.109375 62.90625 
Q 36.140625 65.921875 28.71875 65.921875 
Q 24.65625 65.921875 20.015625 65.03125 
Q 15.375 64.15625 9.8125 62.3125 
L 9.8125 71.09375 
Q 15.4375 72.65625 20.34375 73.4375 
Q 25.25 74.21875 29.59375 74.21875 
Q 40.828125 74.21875 47.359375 69.109375 
Q 53.90625 64.015625 53.90625 55.328125 
Q 53.90625 49.265625 50.4375 45.09375 
Q 46.96875 40.921875 40.578125 39.3125 
z
" id="DejaVuSans-33"/>
     </defs>
     <g transform="translate(441.865525 104.503447)scale(0.1 -0.1)">
      <use xlink:href="#DejaVuSans-64"/>
      <use x="63.476562" xlink:href="#DejaVuSans-72"/>
      <use x="104.558594" xlink:href="#DejaVuSans-6f"/>
      <use x="165.740234" xlink:href="#DejaVuSans-6e"/>
      <use x="229.119141" xlink:href="#DejaVuSans-65"/>
      <use x="290.642578" xlink:href="#DejaVuSans-20"/>
      <use x="322.429688" xlink:href="#DejaVuSans-33"/>
     </g>
    </g>
    <g id="line2d_45">
     <path d="M 413.865525 115.681572 
L 433.865525 115.681572 
" style="fill:none;stroke:#ff00ff;stroke-linecap:square;stroke-width:1.5;"/>
    </g>
    <g id="line2d_46"/>
    <g id="text_23">
     <!-- drone 4 -->
     <g transform="translate(441.865525 119.181572)scale(0.1 -0.1)">
      <use xlink:href="#DejaVuSans-64"/>
      <use x="63.476562" xlink:href="#DejaVuSans-72"/>
      <use x="104.558594" xlink:href="#DejaVuSans-6f"/>
      <use x="165.740234" xlink:href="#DejaVuSans-6e"/>
      <use x="229.119141" xlink:href="#DejaVuSans-65"/>
      <use x="290.642578" xlink:href="#DejaVuSans-20"/>
      <use x="322.429688" xlink:href="#DejaVuSans-34"/>
     </g>
    </g>
    <g id="line2d_47">
     <path d="M 413.865525 130.359697 
L 433.865525 130.359697 
" style="fill:none;stroke:#000000;stroke-linecap:square;stroke-width:1.5;"/>
    </g>
    <g id="line2d_48"/>
    <g id="text_24">
     <!-- drone 5 -->
     <g transform="translate(441.865525 133.859697)scale(0.1 -0.1)">
      <use xlink:href="#DejaVuSans-64"/>
      <use x="63.476562" xlink:href="#DejaVuSans-72"/>
      <use x="104.558594" xlink:href="#DejaVuSans-6f"/>
      <use x="165.740234" xlink:href="#DejaVuSans-6e"/>
      <use x="229.119141" xlink:href="#DejaVuSans-65"/>
      <use x="290.642578" xlink:href="#DejaVuSans-20"/>
      <use x="322.429688" xlink:href="#DejaVuSans-35"/>
     </g>
    </g>
   </g>
  </g>
 </g>
 <defs>
  <clipPath id="pd89b342052">
   <rect height="266.112" width="357.12" x="40.603125" y="49.192875"/>
  </clipPath>
 </defs>
</svg>
