<?xml version="1.0" encoding="utf-8" standalone="no"?>
<!DOCTYPE svg PUBLIC "-//W3C//DTD SVG 1.1//EN"
  "http://www.w3.org/Graphics/SVG/1.1/DTD/svg11.dtd">
<!-- Created with matplotlib (http://matplotlib.org/) -->
<svg height="352pt" version="1.1" viewBox="0 0 491 352" width="491pt" xmlns="http://www.w3.org/2000/svg" xmlns:xlink="http://www.w3.org/1999/xlink">
 <defs>
  <style type="text/css">
*{stroke-linecap:butt;stroke-linejoin:round;}
  </style>
 </defs>
 <g id="figure_1">
  <g id="patch_1">
   <path d="M 0 352.861125 
L 491.671775 352.861125 
L 491.671775 0 
L 0 0 
z
" style="fill:#ffffff;"/>
  </g>
  <g id="axes_1">
   <g id="patch_2">
    <path d="M 40.603125 315.304875 
L 397.723125 315.304875 
L 397.723125 49.192875 
L 40.603125 49.192875 
z
" style="fill:#ffffff;"/>
   </g>
   <g id="matplotlib.axis_1">
    <g id="xtick_1">
     <g id="line2d_1">
      <path clip-path="url(#p8b8a95468c)" d="M 40.603125 315.304875 
L 40.603125 49.192875 
" style="fill:none;stroke:#b0b0b0;stroke-linecap:square;stroke-width:0.8;"/>
     </g>
     <g id="line2d_2">
      <defs>
       <path d="M 0 0 
L 0 3.5 
" id="m1226e8a43e" style="stroke:#000000;stroke-width:0.8;"/>
      </defs>
      <g>
       <use style="stroke:#000000;stroke-width:0.8;" x="40.603125" xlink:href="#m1226e8a43e" y="315.304875"/>
      </g>
     </g>
     <g id="text_1">
      <!-- 0 -->
      <defs>
       <path d="M 31.78125 66.40625 
Q 24.171875 66.40625 20.328125 58.90625 
Q 16.5 51.421875 16.5 36.375 
Q 16.5 21.390625 20.328125 13.890625 
Q 24.171875 6.390625 31.78125 6.390625 
Q 39.453125 6.390625 43.28125 13.890625 
Q 47.125 21.390625 47.125 36.375 
Q 47.125 51.421875 43.28125 58.90625 
Q 39.453125 66.40625 31.78125 66.40625 
z
M 31.78125 74.21875 
Q 44.046875 74.21875 50.515625 64.515625 
Q 56.984375 54.828125 56.984375 36.375 
Q 56.984375 17.96875 50.515625 8.265625 
Q 44.046875 -1.421875 31.78125 -1.421875 
Q 19.53125 -1.421875 13.0625 8.265625 
Q 6.59375 17.96875 6.59375 36.375 
Q 6.59375 54.828125 13.0625 64.515625 
Q 19.53125 74.21875 31.78125 74.21875 
z
" id="DejaVuSans-30"/>
      </defs>
      <g transform="translate(37.421875 329.903312)scale(0.1 -0.1)">
       <use xlink:href="#DejaVuSans-30"/>
      </g>
     </g>
    </g>
    <g id="xtick_2">
     <g id="line2d_3">
      <path clip-path="url(#p8b8a95468c)" d="M 80.283125 315.304875 
L 80.283125 49.192875 
" style="fill:none;stroke:#b0b0b0;stroke-linecap:square;stroke-width:0.8;"/>
     </g>
     <g id="line2d_4">
      <g>
       <use style="stroke:#000000;stroke-width:0.8;" x="80.283125" xlink:href="#m1226e8a43e" y="315.304875"/>
      </g>
     </g>
     <g id="text_2">
      <!-- 50 -->
      <defs>
       <path d="M 10.796875 72.90625 
L 49.515625 72.90625 
L 49.515625 64.59375 
L 19.828125 64.59375 
L 19.828125 46.734375 
Q 21.96875 47.46875 24.109375 47.828125 
Q 26.265625 48.1875 28.421875 48.1875 
Q 40.625 48.1875 47.75 41.5 
Q 54.890625 34.8125 54.890625 23.390625 
Q 54.890625 11.625 47.5625 5.09375 
Q 40.234375 -1.421875 26.90625 -1.421875 
Q 22.3125 -1.421875 17.546875 -0.640625 
Q 12.796875 0.140625 7.71875 1.703125 
L 7.71875 11.625 
Q 12.109375 9.234375 16.796875 8.0625 
Q 21.484375 6.890625 26.703125 6.890625 
Q 35.15625 6.890625 40.078125 11.328125 
Q 45.015625 15.765625 45.015625 23.390625 
Q 45.015625 31 40.078125 35.4375 
Q 35.15625 39.890625 26.703125 39.890625 
Q 22.75 39.890625 18.8125 39.015625 
Q 14.890625 38.140625 10.796875 36.28125 
z
" id="DejaVuSans-35"/>
      </defs>
      <g transform="translate(73.920625 329.903312)scale(0.1 -0.1)">
       <use xlink:href="#DejaVuSans-35"/>
       <use x="63.623047" xlink:href="#DejaVuSans-30"/>
      </g>
     </g>
    </g>
    <g id="xtick_3">
     <g id="line2d_5">
      <path clip-path="url(#p8b8a95468c)" d="M 119.963125 315.304875 
L 119.963125 49.192875 
" style="fill:none;stroke:#b0b0b0;stroke-linecap:square;stroke-width:0.8;"/>
     </g>
     <g id="line2d_6">
      <g>
       <use style="stroke:#000000;stroke-width:0.8;" x="119.963125" xlink:href="#m1226e8a43e" y="315.304875"/>
      </g>
     </g>
     <g id="text_3">
      <!-- 100 -->
      <defs>
       <path d="M 12.40625 8.296875 
L 28.515625 8.296875 
L 28.515625 63.921875 
L 10.984375 60.40625 
L 10.984375 69.390625 
L 28.421875 72.90625 
L 38.28125 72.90625 
L 38.28125 8.296875 
L 54.390625 8.296875 
L 54.390625 0 
L 12.40625 0 
z
" id="DejaVuSans-31"/>
      </defs>
      <g transform="translate(110.419375 329.903312)scale(0.1 -0.1)">
       <use xlink:href="#DejaVuSans-31"/>
       <use x="63.623047" xlink:href="#DejaVuSans-30"/>
       <use x="127.246094" xlink:href="#DejaVuSans-30"/>
      </g>
     </g>
    </g>
    <g id="xtick_4">
     <g id="line2d_7">
      <path clip-path="url(#p8b8a95468c)" d="M 159.643125 315.304875 
L 159.643125 49.192875 
" style="fill:none;stroke:#b0b0b0;stroke-linecap:square;stroke-width:0.8;"/>
     </g>
     <g id="line2d_8">
      <g>
       <use style="stroke:#000000;stroke-width:0.8;" x="159.643125" xlink:href="#m1226e8a43e" y="315.304875"/>
      </g>
     </g>
     <g id="text_4">
      <!-- 150 -->
      <g transform="translate(150.099375 329.903312)scale(0.1 -0.1)">
       <use xlink:href="#DejaVuSans-31"/>
       <use x="63.623047" xlink:href="#DejaVuSans-35"/>
       <use x="127.246094" xlink:href="#DejaVuSans-30"/>
      </g>
     </g>
    </g>
    <g id="xtick_5">
     <g id="line2d_9">
      <path clip-path="url(#p8b8a95468c)" d="M 199.323125 315.304875 
L 199.323125 49.192875 
" style="fill:none;stroke:#b0b0b0;stroke-linecap:square;stroke-width:0.8;"/>
     </g>
     <g id="line2d_10">
      <g>
       <use style="stroke:#000000;stroke-width:0.8;" x="199.323125" xlink:href="#m1226e8a43e" y="315.304875"/>
      </g>
     </g>
     <g id="text_5">
      <!-- 200 -->
      <defs>
       <path d="M 19.1875 8.296875 
L 53.609375 8.296875 
L 53.609375 0 
L 7.328125 0 
L 7.328125 8.296875 
Q 12.9375 14.109375 22.625 23.890625 
Q 32.328125 33.6875 34.8125 36.53125 
Q 39.546875 41.84375 41.421875 45.53125 
Q 43.3125 49.21875 43.3125 52.78125 
Q 43.3125 58.59375 39.234375 62.25 
Q 35.15625 65.921875 28.609375 65.921875 
Q 23.96875 65.921875 18.8125 64.3125 
Q 13.671875 62.703125 7.8125 59.421875 
L 7.8125 69.390625 
Q 13.765625 71.78125 18.9375 73 
Q 24.125 74.21875 28.421875 74.21875 
Q 39.75 74.21875 46.484375 68.546875 
Q 53.21875 62.890625 53.21875 53.421875 
Q 53.21875 48.921875 51.53125 44.890625 
Q 49.859375 40.875 45.40625 35.40625 
Q 44.1875 33.984375 37.640625 27.21875 
Q 31.109375 20.453125 19.1875 8.296875 
z
" id="DejaVuSans-32"/>
      </defs>
      <g transform="translate(189.779375 329.903312)scale(0.1 -0.1)">
       <use xlink:href="#DejaVuSans-32"/>
       <use x="63.623047" xlink:href="#DejaVuSans-30"/>
       <use x="127.246094" xlink:href="#DejaVuSans-30"/>
      </g>
     </g>
    </g>
    <g id="xtick_6">
     <g id="line2d_11">
      <path clip-path="url(#p8b8a95468c)" d="M 239.003125 315.304875 
L 239.003125 49.192875 
" style="fill:none;stroke:#b0b0b0;stroke-linecap:square;stroke-width:0.8;"/>
     </g>
     <g id="line2d_12">
      <g>
       <use style="stroke:#000000;stroke-width:0.8;" x="239.003125" xlink:href="#m1226e8a43e" y="315.304875"/>
      </g>
     </g>
     <g id="text_6">
      <!-- 250 -->
      <g transform="translate(229.459375 329.903312)scale(0.1 -0.1)">
       <use xlink:href="#DejaVuSans-32"/>
       <use x="63.623047" xlink:href="#DejaVuSans-35"/>
       <use x="127.246094" xlink:href="#DejaVuSans-30"/>
      </g>
     </g>
    </g>
    <g id="xtick_7">
     <g id="line2d_13">
      <path clip-path="url(#p8b8a95468c)" d="M 278.683125 315.304875 
L 278.683125 49.192875 
" style="fill:none;stroke:#b0b0b0;stroke-linecap:square;stroke-width:0.8;"/>
     </g>
     <g id="line2d_14">
      <g>
       <use style="stroke:#000000;stroke-width:0.8;" x="278.683125" xlink:href="#m1226e8a43e" y="315.304875"/>
      </g>
     </g>
     <g id="text_7">
      <!-- 300 -->
      <defs>
       <path d="M 40.578125 39.3125 
Q 47.65625 37.796875 51.625 33 
Q 55.609375 28.21875 55.609375 21.1875 
Q 55.609375 10.40625 48.1875 4.484375 
Q 40.765625 -1.421875 27.09375 -1.421875 
Q 22.515625 -1.421875 17.65625 -0.515625 
Q 12.796875 0.390625 7.625 2.203125 
L 7.625 11.71875 
Q 11.71875 9.328125 16.59375 8.109375 
Q 21.484375 6.890625 26.8125 6.890625 
Q 36.078125 6.890625 40.9375 10.546875 
Q 45.796875 14.203125 45.796875 21.1875 
Q 45.796875 27.640625 41.28125 31.265625 
Q 36.765625 34.90625 28.71875 34.90625 
L 20.21875 34.90625 
L 20.21875 43.015625 
L 29.109375 43.015625 
Q 36.375 43.015625 40.234375 45.921875 
Q 44.09375 48.828125 44.09375 54.296875 
Q 44.09375 59.90625 40.109375 62.90625 
Q 36.140625 65.921875 28.71875 65.921875 
Q 24.65625 65.921875 20.015625 65.03125 
Q 15.375 64.15625 9.8125 62.3125 
L 9.8125 71.09375 
Q 15.4375 72.65625 20.34375 73.4375 
Q 25.25 74.21875 29.59375 74.21875 
Q 40.828125 74.21875 47.359375 69.109375 
Q 53.90625 64.015625 53.90625 55.328125 
Q 53.90625 49.265625 50.4375 45.09375 
Q 46.96875 40.921875 40.578125 39.3125 
z
" id="DejaVuSans-33"/>
      </defs>
      <g transform="translate(269.139375 329.903312)scale(0.1 -0.1)">
       <use xlink:href="#DejaVuSans-33"/>
       <use x="63.623047" xlink:href="#DejaVuSans-30"/>
       <use x="127.246094" xlink:href="#DejaVuSans-30"/>
      </g>
     </g>
    </g>
    <g id="xtick_8">
     <g id="line2d_15">
      <path clip-path="url(#p8b8a95468c)" d="M 318.363125 315.304875 
L 318.363125 49.192875 
" style="fill:none;stroke:#b0b0b0;stroke-linecap:square;stroke-width:0.8;"/>
     </g>
     <g id="line2d_16">
      <g>
       <use style="stroke:#000000;stroke-width:0.8;" x="318.363125" xlink:href="#m1226e8a43e" y="315.304875"/>
      </g>
     </g>
     <g id="text_8">
      <!-- 350 -->
      <g transform="translate(308.819375 329.903312)scale(0.1 -0.1)">
       <use xlink:href="#DejaVuSans-33"/>
       <use x="63.623047" xlink:href="#DejaVuSans-35"/>
       <use x="127.246094" xlink:href="#DejaVuSans-30"/>
      </g>
     </g>
    </g>
    <g id="xtick_9">
     <g id="line2d_17">
      <path clip-path="url(#p8b8a95468c)" d="M 358.043125 315.304875 
L 358.043125 49.192875 
" style="fill:none;stroke:#b0b0b0;stroke-linecap:square;stroke-width:0.8;"/>
     </g>
     <g id="line2d_18">
      <g>
       <use style="stroke:#000000;stroke-width:0.8;" x="358.043125" xlink:href="#m1226e8a43e" y="315.304875"/>
      </g>
     </g>
     <g id="text_9">
      <!-- 400 -->
      <defs>
       <path d="M 37.796875 64.3125 
L 12.890625 25.390625 
L 37.796875 25.390625 
z
M 35.203125 72.90625 
L 47.609375 72.90625 
L 47.609375 25.390625 
L 58.015625 25.390625 
L 58.015625 17.1875 
L 47.609375 17.1875 
L 47.609375 0 
L 37.796875 0 
L 37.796875 17.1875 
L 4.890625 17.1875 
L 4.890625 26.703125 
z
" id="DejaVuSans-34"/>
      </defs>
      <g transform="translate(348.499375 329.903312)scale(0.1 -0.1)">
       <use xlink:href="#DejaVuSans-34"/>
       <use x="63.623047" xlink:href="#DejaVuSans-30"/>
       <use x="127.246094" xlink:href="#DejaVuSans-30"/>
      </g>
     </g>
    </g>
    <g id="xtick_10">
     <g id="line2d_19">
      <path clip-path="url(#p8b8a95468c)" d="M 397.723125 315.304875 
L 397.723125 49.192875 
" style="fill:none;stroke:#b0b0b0;stroke-linecap:square;stroke-width:0.8;"/>
     </g>
     <g id="line2d_20">
      <g>
       <use style="stroke:#000000;stroke-width:0.8;" x="397.723125" xlink:href="#m1226e8a43e" y="315.304875"/>
      </g>
     </g>
     <g id="text_10">
      <!-- 450 -->
      <g transform="translate(388.179375 329.903312)scale(0.1 -0.1)">
       <use xlink:href="#DejaVuSans-34"/>
       <use x="63.623047" xlink:href="#DejaVuSans-35"/>
       <use x="127.246094" xlink:href="#DejaVuSans-30"/>
      </g>
     </g>
    </g>
    <g id="text_11">
     <!-- Time(s) -->
     <defs>
      <path d="M -0.296875 72.90625 
L 61.375 72.90625 
L 61.375 64.59375 
L 35.5 64.59375 
L 35.5 0 
L 25.59375 0 
L 25.59375 64.59375 
L -0.296875 64.59375 
z
" id="DejaVuSans-54"/>
      <path d="M 9.421875 54.6875 
L 18.40625 54.6875 
L 18.40625 0 
L 9.421875 0 
z
M 9.421875 75.984375 
L 18.40625 75.984375 
L 18.40625 64.59375 
L 9.421875 64.59375 
z
" id="DejaVuSans-69"/>
      <path d="M 52 44.1875 
Q 55.375 50.25 60.0625 53.125 
Q 64.75 56 71.09375 56 
Q 79.640625 56 84.28125 50.015625 
Q 88.921875 44.046875 88.921875 33.015625 
L 88.921875 0 
L 79.890625 0 
L 79.890625 32.71875 
Q 79.890625 40.578125 77.09375 44.375 
Q 74.3125 48.1875 68.609375 48.1875 
Q 61.625 48.1875 57.5625 43.546875 
Q 53.515625 38.921875 53.515625 30.90625 
L 53.515625 0 
L 44.484375 0 
L 44.484375 32.71875 
Q 44.484375 40.625 41.703125 44.40625 
Q 38.921875 48.1875 33.109375 48.1875 
Q 26.21875 48.1875 22.15625 43.53125 
Q 18.109375 38.875 18.109375 30.90625 
L 18.109375 0 
L 9.078125 0 
L 9.078125 54.6875 
L 18.109375 54.6875 
L 18.109375 46.1875 
Q 21.1875 51.21875 25.484375 53.609375 
Q 29.78125 56 35.6875 56 
Q 41.65625 56 45.828125 52.96875 
Q 50 49.953125 52 44.1875 
z
" id="DejaVuSans-6d"/>
      <path d="M 56.203125 29.59375 
L 56.203125 25.203125 
L 14.890625 25.203125 
Q 15.484375 15.921875 20.484375 11.0625 
Q 25.484375 6.203125 34.421875 6.203125 
Q 39.59375 6.203125 44.453125 7.46875 
Q 49.3125 8.734375 54.109375 11.28125 
L 54.109375 2.78125 
Q 49.265625 0.734375 44.1875 -0.34375 
Q 39.109375 -1.421875 33.890625 -1.421875 
Q 20.796875 -1.421875 13.15625 6.1875 
Q 5.515625 13.8125 5.515625 26.8125 
Q 5.515625 40.234375 12.765625 48.109375 
Q 20.015625 56 32.328125 56 
Q 43.359375 56 49.78125 48.890625 
Q 56.203125 41.796875 56.203125 29.59375 
z
M 47.21875 32.234375 
Q 47.125 39.59375 43.09375 43.984375 
Q 39.0625 48.390625 32.421875 48.390625 
Q 24.90625 48.390625 20.390625 44.140625 
Q 15.875 39.890625 15.1875 32.171875 
z
" id="DejaVuSans-65"/>
      <path d="M 31 75.875 
Q 24.46875 64.65625 21.28125 53.65625 
Q 18.109375 42.671875 18.109375 31.390625 
Q 18.109375 20.125 21.3125 9.0625 
Q 24.515625 -2 31 -13.1875 
L 23.1875 -13.1875 
Q 15.875 -1.703125 12.234375 9.375 
Q 8.59375 20.453125 8.59375 31.390625 
Q 8.59375 42.28125 12.203125 53.3125 
Q 15.828125 64.359375 23.1875 75.875 
z
" id="DejaVuSans-28"/>
      <path d="M 44.28125 53.078125 
L 44.28125 44.578125 
Q 40.484375 46.53125 36.375 47.5 
Q 32.28125 48.484375 27.875 48.484375 
Q 21.1875 48.484375 17.84375 46.4375 
Q 14.5 44.390625 14.5 40.28125 
Q 14.5 37.15625 16.890625 35.375 
Q 19.28125 33.59375 26.515625 31.984375 
L 29.59375 31.296875 
Q 39.15625 29.25 43.1875 25.515625 
Q 47.21875 21.78125 47.21875 15.09375 
Q 47.21875 7.46875 41.1875 3.015625 
Q 35.15625 -1.421875 24.609375 -1.421875 
Q 20.21875 -1.421875 15.453125 -0.5625 
Q 10.6875 0.296875 5.421875 2 
L 5.421875 11.28125 
Q 10.40625 8.6875 15.234375 7.390625 
Q 20.0625 6.109375 24.8125 6.109375 
Q 31.15625 6.109375 34.5625 8.28125 
Q 37.984375 10.453125 37.984375 14.40625 
Q 37.984375 18.0625 35.515625 20.015625 
Q 33.0625 21.96875 24.703125 23.78125 
L 21.578125 24.515625 
Q 13.234375 26.265625 9.515625 29.90625 
Q 5.8125 33.546875 5.8125 39.890625 
Q 5.8125 47.609375 11.28125 51.796875 
Q 16.75 56 26.8125 56 
Q 31.78125 56 36.171875 55.265625 
Q 40.578125 54.546875 44.28125 53.078125 
z
" id="DejaVuSans-73"/>
      <path d="M 8.015625 75.875 
L 15.828125 75.875 
Q 23.140625 64.359375 26.78125 53.3125 
Q 30.421875 42.28125 30.421875 31.390625 
Q 30.421875 20.453125 26.78125 9.375 
Q 23.140625 -1.703125 15.828125 -13.1875 
L 8.015625 -13.1875 
Q 14.5 -2 17.703125 9.0625 
Q 20.90625 20.125 20.90625 31.390625 
Q 20.90625 42.671875 17.703125 53.65625 
Q 14.5 64.65625 8.015625 75.875 
z
" id="DejaVuSans-29"/>
     </defs>
     <g transform="translate(200.269375 343.581437)scale(0.1 -0.1)">
      <use xlink:href="#DejaVuSans-54"/>
      <use x="61.037109" xlink:href="#DejaVuSans-69"/>
      <use x="88.820312" xlink:href="#DejaVuSans-6d"/>
      <use x="186.232422" xlink:href="#DejaVuSans-65"/>
      <use x="247.755859" xlink:href="#DejaVuSans-28"/>
      <use x="286.769531" xlink:href="#DejaVuSans-73"/>
      <use x="338.869141" xlink:href="#DejaVuSans-29"/>
     </g>
    </g>
   </g>
   <g id="matplotlib.axis_2">
    <g id="ytick_1">
     <g id="line2d_21">
      <path clip-path="url(#p8b8a95468c)" d="M 40.603125 303.208875 
L 397.723125 303.208875 
" style="fill:none;stroke:#b0b0b0;stroke-linecap:square;stroke-width:0.8;"/>
     </g>
     <g id="line2d_22">
      <defs>
       <path d="M 0 0 
L -3.5 0 
" id="ma4fee489ab" style="stroke:#000000;stroke-width:0.8;"/>
      </defs>
      <g>
       <use style="stroke:#000000;stroke-width:0.8;" x="40.603125" xlink:href="#ma4fee489ab" y="303.208875"/>
      </g>
     </g>
     <g id="text_12">
      <!-- 0 -->
      <g transform="translate(27.240625 307.008094)scale(0.1 -0.1)">
       <use xlink:href="#DejaVuSans-30"/>
      </g>
     </g>
    </g>
    <g id="ytick_2">
     <g id="line2d_23">
      <path clip-path="url(#p8b8a95468c)" d="M 40.603125 270.952875 
L 397.723125 270.952875 
" style="fill:none;stroke:#b0b0b0;stroke-linecap:square;stroke-width:0.8;"/>
     </g>
     <g id="line2d_24">
      <g>
       <use style="stroke:#000000;stroke-width:0.8;" x="40.603125" xlink:href="#ma4fee489ab" y="270.952875"/>
      </g>
     </g>
     <g id="text_13">
      <!-- 2 -->
      <g transform="translate(27.240625 274.752094)scale(0.1 -0.1)">
       <use xlink:href="#DejaVuSans-32"/>
      </g>
     </g>
    </g>
    <g id="ytick_3">
     <g id="line2d_25">
      <path clip-path="url(#p8b8a95468c)" d="M 40.603125 238.696875 
L 397.723125 238.696875 
" style="fill:none;stroke:#b0b0b0;stroke-linecap:square;stroke-width:0.8;"/>
     </g>
     <g id="line2d_26">
      <g>
       <use style="stroke:#000000;stroke-width:0.8;" x="40.603125" xlink:href="#ma4fee489ab" y="238.696875"/>
      </g>
     </g>
     <g id="text_14">
      <!-- 4 -->
      <g transform="translate(27.240625 242.496094)scale(0.1 -0.1)">
       <use xlink:href="#DejaVuSans-34"/>
      </g>
     </g>
    </g>
    <g id="ytick_4">
     <g id="line2d_27">
      <path clip-path="url(#p8b8a95468c)" d="M 40.603125 206.440875 
L 397.723125 206.440875 
" style="fill:none;stroke:#b0b0b0;stroke-linecap:square;stroke-width:0.8;"/>
     </g>
     <g id="line2d_28">
      <g>
       <use style="stroke:#000000;stroke-width:0.8;" x="40.603125" xlink:href="#ma4fee489ab" y="206.440875"/>
      </g>
     </g>
     <g id="text_15">
      <!-- 6 -->
      <defs>
       <path d="M 33.015625 40.375 
Q 26.375 40.375 22.484375 35.828125 
Q 18.609375 31.296875 18.609375 23.390625 
Q 18.609375 15.53125 22.484375 10.953125 
Q 26.375 6.390625 33.015625 6.390625 
Q 39.65625 6.390625 43.53125 10.953125 
Q 47.40625 15.53125 47.40625 23.390625 
Q 47.40625 31.296875 43.53125 35.828125 
Q 39.65625 40.375 33.015625 40.375 
z
M 52.59375 71.296875 
L 52.59375 62.3125 
Q 48.875 64.0625 45.09375 64.984375 
Q 41.3125 65.921875 37.59375 65.921875 
Q 27.828125 65.921875 22.671875 59.328125 
Q 17.53125 52.734375 16.796875 39.40625 
Q 19.671875 43.65625 24.015625 45.921875 
Q 28.375 48.1875 33.59375 48.1875 
Q 44.578125 48.1875 50.953125 41.515625 
Q 57.328125 34.859375 57.328125 23.390625 
Q 57.328125 12.15625 50.6875 5.359375 
Q 44.046875 -1.421875 33.015625 -1.421875 
Q 20.359375 -1.421875 13.671875 8.265625 
Q 6.984375 17.96875 6.984375 36.375 
Q 6.984375 53.65625 15.1875 63.9375 
Q 23.390625 74.21875 37.203125 74.21875 
Q 40.921875 74.21875 44.703125 73.484375 
Q 48.484375 72.75 52.59375 71.296875 
z
" id="DejaVuSans-36"/>
      </defs>
      <g transform="translate(27.240625 210.240094)scale(0.1 -0.1)">
       <use xlink:href="#DejaVuSans-36"/>
      </g>
     </g>
    </g>
    <g id="ytick_5">
     <g id="line2d_29">
      <path clip-path="url(#p8b8a95468c)" d="M 40.603125 174.184875 
L 397.723125 174.184875 
" style="fill:none;stroke:#b0b0b0;stroke-linecap:square;stroke-width:0.8;"/>
     </g>
     <g id="line2d_30">
      <g>
       <use style="stroke:#000000;stroke-width:0.8;" x="40.603125" xlink:href="#ma4fee489ab" y="174.184875"/>
      </g>
     </g>
     <g id="text_16">
      <!-- 8 -->
      <defs>
       <path d="M 31.78125 34.625 
Q 24.75 34.625 20.71875 30.859375 
Q 16.703125 27.09375 16.703125 20.515625 
Q 16.703125 13.921875 20.71875 10.15625 
Q 24.75 6.390625 31.78125 6.390625 
Q 38.8125 6.390625 42.859375 10.171875 
Q 46.921875 13.96875 46.921875 20.515625 
Q 46.921875 27.09375 42.890625 30.859375 
Q 38.875 34.625 31.78125 34.625 
z
M 21.921875 38.8125 
Q 15.578125 40.375 12.03125 44.71875 
Q 8.5 49.078125 8.5 55.328125 
Q 8.5 64.0625 14.71875 69.140625 
Q 20.953125 74.21875 31.78125 74.21875 
Q 42.671875 74.21875 48.875 69.140625 
Q 55.078125 64.0625 55.078125 55.328125 
Q 55.078125 49.078125 51.53125 44.71875 
Q 48 40.375 41.703125 38.8125 
Q 48.828125 37.15625 52.796875 32.3125 
Q 56.78125 27.484375 56.78125 20.515625 
Q 56.78125 9.90625 50.3125 4.234375 
Q 43.84375 -1.421875 31.78125 -1.421875 
Q 19.734375 -1.421875 13.25 4.234375 
Q 6.78125 9.90625 6.78125 20.515625 
Q 6.78125 27.484375 10.78125 32.3125 
Q 14.796875 37.15625 21.921875 38.8125 
z
M 18.3125 54.390625 
Q 18.3125 48.734375 21.84375 45.5625 
Q 25.390625 42.390625 31.78125 42.390625 
Q 38.140625 42.390625 41.71875 45.5625 
Q 45.3125 48.734375 45.3125 54.390625 
Q 45.3125 60.0625 41.71875 63.234375 
Q 38.140625 66.40625 31.78125 66.40625 
Q 25.390625 66.40625 21.84375 63.234375 
Q 18.3125 60.0625 18.3125 54.390625 
z
" id="DejaVuSans-38"/>
      </defs>
      <g transform="translate(27.240625 177.984094)scale(0.1 -0.1)">
       <use xlink:href="#DejaVuSans-38"/>
      </g>
     </g>
    </g>
    <g id="ytick_6">
     <g id="line2d_31">
      <path clip-path="url(#p8b8a95468c)" d="M 40.603125 141.928875 
L 397.723125 141.928875 
" style="fill:none;stroke:#b0b0b0;stroke-linecap:square;stroke-width:0.8;"/>
     </g>
     <g id="line2d_32">
      <g>
       <use style="stroke:#000000;stroke-width:0.8;" x="40.603125" xlink:href="#ma4fee489ab" y="141.928875"/>
      </g>
     </g>
     <g id="text_17">
      <!-- 10 -->
      <g transform="translate(20.878125 145.728094)scale(0.1 -0.1)">
       <use xlink:href="#DejaVuSans-31"/>
       <use x="63.623047" xlink:href="#DejaVuSans-30"/>
      </g>
     </g>
    </g>
    <g id="ytick_7">
     <g id="line2d_33">
      <path clip-path="url(#p8b8a95468c)" d="M 40.603125 109.672875 
L 397.723125 109.672875 
" style="fill:none;stroke:#b0b0b0;stroke-linecap:square;stroke-width:0.8;"/>
     </g>
     <g id="line2d_34">
      <g>
       <use style="stroke:#000000;stroke-width:0.8;" x="40.603125" xlink:href="#ma4fee489ab" y="109.672875"/>
      </g>
     </g>
     <g id="text_18">
      <!-- 12 -->
      <g transform="translate(20.878125 113.472094)scale(0.1 -0.1)">
       <use xlink:href="#DejaVuSans-31"/>
       <use x="63.623047" xlink:href="#DejaVuSans-32"/>
      </g>
     </g>
    </g>
    <g id="ytick_8">
     <g id="line2d_35">
      <path clip-path="url(#p8b8a95468c)" d="M 40.603125 77.416875 
L 397.723125 77.416875 
" style="fill:none;stroke:#b0b0b0;stroke-linecap:square;stroke-width:0.8;"/>
     </g>
     <g id="line2d_36">
      <g>
       <use style="stroke:#000000;stroke-width:0.8;" x="40.603125" xlink:href="#ma4fee489ab" y="77.416875"/>
      </g>
     </g>
     <g id="text_19">
      <!-- 14 -->
      <g transform="translate(20.878125 81.216094)scale(0.1 -0.1)">
       <use xlink:href="#DejaVuSans-31"/>
       <use x="63.623047" xlink:href="#DejaVuSans-34"/>
      </g>
     </g>
    </g>
    <g id="text_20">
     <!-- Discovered Nodes -->
     <defs>
      <path d="M 19.671875 64.796875 
L 19.671875 8.109375 
L 31.59375 8.109375 
Q 46.6875 8.109375 53.6875 14.9375 
Q 60.6875 21.78125 60.6875 36.53125 
Q 60.6875 51.171875 53.6875 57.984375 
Q 46.6875 64.796875 31.59375 64.796875 
z
M 9.8125 72.90625 
L 30.078125 72.90625 
Q 51.265625 72.90625 61.171875 64.09375 
Q 71.09375 55.28125 71.09375 36.53125 
Q 71.09375 17.671875 61.125 8.828125 
Q 51.171875 0 30.078125 0 
L 9.8125 0 
z
" id="DejaVuSans-44"/>
      <path d="M 48.78125 52.59375 
L 48.78125 44.1875 
Q 44.96875 46.296875 41.140625 47.34375 
Q 37.3125 48.390625 33.40625 48.390625 
Q 24.65625 48.390625 19.8125 42.84375 
Q 14.984375 37.3125 14.984375 27.296875 
Q 14.984375 17.28125 19.8125 11.734375 
Q 24.65625 6.203125 33.40625 6.203125 
Q 37.3125 6.203125 41.140625 7.25 
Q 44.96875 8.296875 48.78125 10.40625 
L 48.78125 2.09375 
Q 45.015625 0.34375 40.984375 -0.53125 
Q 36.96875 -1.421875 32.421875 -1.421875 
Q 20.0625 -1.421875 12.78125 6.34375 
Q 5.515625 14.109375 5.515625 27.296875 
Q 5.515625 40.671875 12.859375 48.328125 
Q 20.21875 56 33.015625 56 
Q 37.15625 56 41.109375 55.140625 
Q 45.0625 54.296875 48.78125 52.59375 
z
" id="DejaVuSans-63"/>
      <path d="M 30.609375 48.390625 
Q 23.390625 48.390625 19.1875 42.75 
Q 14.984375 37.109375 14.984375 27.296875 
Q 14.984375 17.484375 19.15625 11.84375 
Q 23.34375 6.203125 30.609375 6.203125 
Q 37.796875 6.203125 41.984375 11.859375 
Q 46.1875 17.53125 46.1875 27.296875 
Q 46.1875 37.015625 41.984375 42.703125 
Q 37.796875 48.390625 30.609375 48.390625 
z
M 30.609375 56 
Q 42.328125 56 49.015625 48.375 
Q 55.71875 40.765625 55.71875 27.296875 
Q 55.71875 13.875 49.015625 6.21875 
Q 42.328125 -1.421875 30.609375 -1.421875 
Q 18.84375 -1.421875 12.171875 6.21875 
Q 5.515625 13.875 5.515625 27.296875 
Q 5.515625 40.765625 12.171875 48.375 
Q 18.84375 56 30.609375 56 
z
" id="DejaVuSans-6f"/>
      <path d="M 2.984375 54.6875 
L 12.5 54.6875 
L 29.59375 8.796875 
L 46.6875 54.6875 
L 56.203125 54.6875 
L 35.6875 0 
L 23.484375 0 
z
" id="DejaVuSans-76"/>
      <path d="M 41.109375 46.296875 
Q 39.59375 47.171875 37.8125 47.578125 
Q 36.03125 48 33.890625 48 
Q 26.265625 48 22.1875 43.046875 
Q 18.109375 38.09375 18.109375 28.8125 
L 18.109375 0 
L 9.078125 0 
L 9.078125 54.6875 
L 18.109375 54.6875 
L 18.109375 46.1875 
Q 20.953125 51.171875 25.484375 53.578125 
Q 30.03125 56 36.53125 56 
Q 37.453125 56 38.578125 55.875 
Q 39.703125 55.765625 41.0625 55.515625 
z
" id="DejaVuSans-72"/>
      <path d="M 45.40625 46.390625 
L 45.40625 75.984375 
L 54.390625 75.984375 
L 54.390625 0 
L 45.40625 0 
L 45.40625 8.203125 
Q 42.578125 3.328125 38.25 0.953125 
Q 33.9375 -1.421875 27.875 -1.421875 
Q 17.96875 -1.421875 11.734375 6.484375 
Q 5.515625 14.40625 5.515625 27.296875 
Q 5.515625 40.1875 11.734375 48.09375 
Q 17.96875 56 27.875 56 
Q 33.9375 56 38.25 53.625 
Q 42.578125 51.265625 45.40625 46.390625 
z
M 14.796875 27.296875 
Q 14.796875 17.390625 18.875 11.75 
Q 22.953125 6.109375 30.078125 6.109375 
Q 37.203125 6.109375 41.296875 11.75 
Q 45.40625 17.390625 45.40625 27.296875 
Q 45.40625 37.203125 41.296875 42.84375 
Q 37.203125 48.484375 30.078125 48.484375 
Q 22.953125 48.484375 18.875 42.84375 
Q 14.796875 37.203125 14.796875 27.296875 
z
" id="DejaVuSans-64"/>
      <path id="DejaVuSans-20"/>
      <path d="M 9.8125 72.90625 
L 23.09375 72.90625 
L 55.421875 11.921875 
L 55.421875 72.90625 
L 64.984375 72.90625 
L 64.984375 0 
L 51.703125 0 
L 19.390625 60.984375 
L 19.390625 0 
L 9.8125 0 
z
" id="DejaVuSans-4e"/>
     </defs>
     <g transform="translate(14.798438 227.486375)rotate(-90)scale(0.1 -0.1)">
      <use xlink:href="#DejaVuSans-44"/>
      <use x="77.001953" xlink:href="#DejaVuSans-69"/>
      <use x="104.785156" xlink:href="#DejaVuSans-73"/>
      <use x="156.884766" xlink:href="#DejaVuSans-63"/>
      <use x="211.865234" xlink:href="#DejaVuSans-6f"/>
      <use x="273.046875" xlink:href="#DejaVuSans-76"/>
      <use x="332.226562" xlink:href="#DejaVuSans-65"/>
      <use x="393.75" xlink:href="#DejaVuSans-72"/>
      <use x="434.832031" xlink:href="#DejaVuSans-65"/>
      <use x="496.355469" xlink:href="#DejaVuSans-64"/>
      <use x="559.832031" xlink:href="#DejaVuSans-20"/>
      <use x="591.619141" xlink:href="#DejaVuSans-4e"/>
      <use x="666.423828" xlink:href="#DejaVuSans-6f"/>
      <use x="727.605469" xlink:href="#DejaVuSans-64"/>
      <use x="791.082031" xlink:href="#DejaVuSans-65"/>
      <use x="852.605469" xlink:href="#DejaVuSans-73"/>
     </g>
    </g>
   </g>
   <g id="line2d_37">
    <path clip-path="url(#p8b8a95468c)" d="M 40.603125 303.208875 
L 70.759925 303.208875 
L 71.553525 287.080875 
L 76.315125 287.080875 
L 77.108725 270.952875 
L 84.251125 270.952875 
L 85.044725 287.080875 
L 90.599925 287.080875 
L 91.393525 270.952875 
L 101.710325 270.952875 
L 102.503925 287.080875 
L 113.614325 287.080875 
L 114.407925 303.208875 
L 117.582325 303.208875 
L 118.375925 287.080875 
L 120.756725 287.080875 
L 121.550325 270.952875 
L 124.724725 270.952875 
L 125.518325 254.824875 
L 129.486325 254.824875 
L 130.279925 238.696875 
L 132.660725 238.696875 
L 133.454325 222.568875 
L 137.422325 222.568875 
L 138.215925 206.440875 
L 142.183925 206.440875 
L 142.977525 222.568875 
L 145.358325 222.568875 
L 146.151925 238.696875 
L 146.945525 238.696875 
L 147.739125 254.824875 
L 150.913525 254.824875 
L 151.707125 238.696875 
L 154.087925 238.696875 
L 154.881525 222.568875 
L 156.468725 222.568875 
L 157.262325 238.696875 
L 161.230325 238.696875 
L 162.023925 222.568875 
L 173.134325 222.568875 
L 173.927925 238.696875 
L 177.895925 238.696875 
L 178.689525 254.824875 
L 180.276725 254.824875 
L 181.070325 270.952875 
L 183.451125 270.952875 
L 184.244725 287.080875 
L 187.419125 287.080875 
L 189.006325 254.824875 
L 196.148725 254.824875 
L 196.942325 238.696875 
L 197.735925 254.824875 
L 200.116725 254.824875 
L 200.910325 222.568875 
L 204.084725 222.568875 
L 204.878325 206.440875 
L 211.227125 206.440875 
L 212.020725 222.568875 
L 215.988725 222.568875 
L 216.782325 238.696875 
L 219.163125 238.696875 
L 219.956725 254.824875 
L 221.543925 254.824875 
L 223.131125 287.080875 
L 228.686325 287.080875 
L 229.479925 303.208875 
L 237.415925 303.208875 
L 238.209525 287.080875 
L 239.003125 254.824875 
L 239.796725 238.696875 
L 244.558325 238.696875 
L 245.351925 222.568875 
L 246.145525 222.568875 
L 246.939125 238.696875 
L 249.319925 238.696875 
L 250.907125 270.952875 
L 258.843125 270.952875 
L 259.636725 287.080875 
L 269.953525 287.080875 
L 270.747125 303.208875 
L 396.929525 303.208875 
L 396.929525 303.208875 
" style="fill:none;stroke:#008000;stroke-linecap:square;stroke-width:1.5;"/>
   </g>
   <g id="line2d_38">
    <path clip-path="url(#p8b8a95468c)" d="M 40.603125 303.208875 
L 53.300725 303.208875 
L 54.094325 287.080875 
L 56.475125 287.080875 
L 57.268725 270.952875 
L 63.617525 270.952875 
L 64.411125 254.824875 
L 65.204725 254.824875 
L 65.998325 238.696875 
L 73.934325 238.696875 
L 74.727925 190.312875 
L 75.521525 174.184875 
L 76.315125 141.928875 
L 77.902325 141.928875 
L 78.695925 158.056875 
L 79.489525 141.928875 
L 81.076725 141.928875 
L 81.870325 158.056875 
L 85.838325 158.056875 
L 86.631925 141.928875 
L 87.425525 141.928875 
L 88.219125 158.056875 
L 90.599925 158.056875 
L 91.393525 141.928875 
L 92.980725 141.928875 
L 93.774325 158.056875 
L 94.567925 158.056875 
L 95.361525 141.928875 
L 96.155125 141.928875 
L 96.948725 93.544875 
L 100.916725 174.184875 
L 104.091125 174.184875 
L 104.884725 158.056875 
L 107.265525 158.056875 
L 108.059125 174.184875 
L 112.820725 174.184875 
L 113.614325 190.312875 
L 115.201525 190.312875 
L 115.995125 141.928875 
L 116.788725 141.928875 
L 117.582325 125.800875 
L 119.169525 125.800875 
L 119.963125 109.672875 
L 121.550325 109.672875 
L 122.343925 125.800875 
L 123.137525 125.800875 
L 123.931125 109.672875 
L 124.724725 125.800875 
L 125.518325 125.800875 
L 126.311925 109.672875 
L 127.105525 125.800875 
L 128.692725 125.800875 
L 129.486325 109.672875 
L 130.279925 109.672875 
L 131.073525 93.544875 
L 131.867125 93.544875 
L 132.660725 109.672875 
L 133.454325 93.544875 
L 134.247925 109.672875 
L 135.041525 93.544875 
L 135.835125 109.672875 
L 137.422325 109.672875 
L 138.215925 125.800875 
L 140.596725 125.800875 
L 142.183925 93.544875 
L 142.977525 141.928875 
L 144.564725 141.928875 
L 146.151925 174.184875 
L 146.945525 158.056875 
L 149.326325 158.056875 
L 150.119925 141.928875 
L 150.913525 141.928875 
L 151.707125 125.800875 
L 152.500725 141.928875 
L 154.087925 141.928875 
L 155.675125 174.184875 
L 157.262325 174.184875 
L 158.055925 190.312875 
L 161.230325 190.312875 
L 162.023925 206.440875 
L 163.611125 206.440875 
L 164.404725 190.312875 
L 165.991925 190.312875 
L 167.579125 222.568875 
L 169.959925 222.568875 
L 170.753525 238.696875 
L 175.515125 238.696875 
L 177.102325 270.952875 
L 177.895925 254.824875 
L 180.276725 254.824875 
L 181.070325 270.952875 
L 185.038325 270.952875 
L 185.831925 254.824875 
L 186.625525 270.952875 
L 199.323125 270.952875 
L 200.116725 287.080875 
L 202.497525 287.080875 
L 203.291125 303.208875 
L 204.084725 303.208875 
L 204.878325 287.080875 
L 207.259125 287.080875 
L 208.052725 303.208875 
L 392.167925 303.208875 
L 392.961525 287.080875 
L 396.135925 287.080875 
L 396.929525 270.952875 
L 396.929525 270.952875 
" style="fill:none;stroke:#0000ff;stroke-linecap:square;stroke-width:1.5;"/>
   </g>
   <g id="line2d_39">
    <path clip-path="url(#p8b8a95468c)" d="M 40.603125 303.208875 
L 46.951925 303.208875 
L 47.745525 287.080875 
L 49.332725 287.080875 
L 50.126325 270.952875 
L 50.919925 270.952875 
L 51.713525 254.824875 
L 58.062325 254.824875 
L 58.855925 238.696875 
L 59.649525 238.696875 
L 60.443125 222.568875 
L 61.236725 222.568875 
L 62.030325 206.440875 
L 64.411125 206.440875 
L 65.204725 190.312875 
L 65.998325 190.312875 
L 66.791925 158.056875 
L 69.172725 158.056875 
L 69.966325 174.184875 
L 70.759925 158.056875 
L 71.553525 125.800875 
L 72.347125 125.800875 
L 73.140725 109.672875 
L 74.727925 109.672875 
L 75.521525 125.800875 
L 76.315125 109.672875 
L 77.902325 109.672875 
L 78.695925 125.800875 
L 79.489525 125.800875 
L 80.283125 141.928875 
L 82.663925 141.928875 
L 83.457525 158.056875 
L 85.044725 158.056875 
L 85.838325 174.184875 
L 87.425525 238.696875 
L 88.219125 254.824875 
L 89.012725 238.696875 
L 91.393525 238.696875 
L 92.187125 254.824875 
L 95.361525 254.824875 
L 96.155125 270.952875 
L 96.948725 270.952875 
L 97.742325 287.080875 
L 110.439925 287.080875 
L 111.233525 303.208875 
L 239.796725 303.208875 
L 241.383925 270.952875 
L 248.526325 270.952875 
L 249.319925 287.080875 
L 258.049525 287.080875 
L 258.843125 303.208875 
L 396.929525 303.208875 
L 396.929525 303.208875 
" style="fill:none;stroke:#ff0000;stroke-linecap:square;stroke-width:1.5;"/>
   </g>
   <g id="line2d_40">
    <path clip-path="url(#p8b8a95468c)" d="M 40.603125 303.208875 
L 53.300725 303.208875 
L 54.094325 287.080875 
L 55.681525 287.080875 
L 56.475125 270.952875 
L 66.791925 270.952875 
L 67.585525 287.080875 
L 69.966325 287.080875 
L 70.759925 270.952875 
L 73.140725 270.952875 
L 73.934325 254.824875 
L 78.695925 254.824875 
L 79.489525 270.952875 
L 89.806325 270.952875 
L 90.599925 287.080875 
L 91.393525 287.080875 
L 92.187125 303.208875 
L 396.929525 303.208875 
L 396.929525 303.208875 
" style="fill:none;stroke:#00ffff;stroke-linecap:square;stroke-width:1.5;"/>
   </g>
   <g id="line2d_41">
    <path clip-path="url(#p8b8a95468c)" d="M 40.603125 303.208875 
L 46.951925 303.208875 
L 47.745525 287.080875 
L 50.126325 287.080875 
L 50.919925 270.952875 
L 53.300725 270.952875 
L 54.094325 254.824875 
L 59.649525 254.824875 
L 60.443125 270.952875 
L 64.411125 270.952875 
L 65.204725 287.080875 
L 69.966325 287.080875 
L 70.759925 270.952875 
L 74.727925 270.952875 
L 75.521525 287.080875 
L 76.315125 287.080875 
L 77.108725 303.208875 
L 396.929525 303.208875 
L 396.929525 303.208875 
" style="fill:none;stroke:#ff00ff;stroke-linecap:square;stroke-width:1.5;"/>
   </g>
   <g id="line2d_42">
    <path clip-path="url(#p8b8a95468c)" d="M 40.603125 303.208875 
L 190.593525 303.208875 
L 191.387125 287.080875 
L 192.180725 254.824875 
L 194.561525 254.824875 
L 195.355125 238.696875 
L 196.148725 238.696875 
L 198.529525 190.312875 
L 199.323125 158.056875 
L 200.116725 141.928875 
L 204.084725 141.928875 
L 204.878325 158.056875 
L 206.465525 125.800875 
L 207.259125 125.800875 
L 208.052725 93.544875 
L 208.846325 93.544875 
L 209.639925 109.672875 
L 212.020725 61.288875 
L 212.814325 61.288875 
L 213.607925 93.544875 
L 215.195125 125.800875 
L 215.988725 109.672875 
L 220.750325 109.672875 
L 221.543925 125.800875 
L 222.337525 125.800875 
L 223.924725 158.056875 
L 226.305525 158.056875 
L 227.099125 174.184875 
L 227.892725 222.568875 
L 231.067125 222.568875 
L 231.860725 238.696875 
L 232.654325 238.696875 
L 233.447925 270.952875 
L 234.241525 287.080875 
L 236.622325 287.080875 
L 237.415925 303.208875 
L 374.708725 303.208875 
L 375.502325 287.080875 
L 381.057525 287.080875 
L 381.851125 238.696875 
L 382.644725 222.568875 
L 385.819125 222.568875 
L 386.612725 190.312875 
L 387.406325 190.312875 
L 388.199925 158.056875 
L 389.787125 158.056875 
L 390.580725 141.928875 
L 391.374325 141.928875 
L 392.167925 125.800875 
L 392.961525 125.800875 
L 393.755125 109.672875 
L 394.548725 125.800875 
L 396.929525 125.800875 
L 396.929525 125.800875 
" style="fill:none;stroke:#000000;stroke-linecap:square;stroke-width:1.5;"/>
   </g>
   <g id="patch_3">
    <path d="M 40.603125 315.304875 
L 40.603125 49.192875 
" style="fill:none;stroke:#000000;stroke-linecap:square;stroke-linejoin:miter;stroke-width:0.8;"/>
   </g>
   <g id="patch_4">
    <path d="M 397.723125 315.304875 
L 397.723125 49.192875 
" style="fill:none;stroke:#000000;stroke-linecap:square;stroke-linejoin:miter;stroke-width:0.8;"/>
   </g>
   <g id="patch_5">
    <path d="M 40.603125 315.304875 
L 397.723125 315.304875 
" style="fill:none;stroke:#000000;stroke-linecap:square;stroke-linejoin:miter;stroke-width:0.8;"/>
   </g>
   <g id="patch_6">
    <path d="M 40.603125 49.192875 
L 397.723125 49.192875 
" style="fill:none;stroke:#000000;stroke-linecap:square;stroke-linejoin:miter;stroke-width:0.8;"/>
   </g>
   <g id="text_21">
    <!-- Discovered nodes per time -->
    <defs>
     <path d="M 54.890625 33.015625 
L 54.890625 0 
L 45.90625 0 
L 45.90625 32.71875 
Q 45.90625 40.484375 42.875 44.328125 
Q 39.84375 48.1875 33.796875 48.1875 
Q 26.515625 48.1875 22.3125 43.546875 
Q 18.109375 38.921875 18.109375 30.90625 
L 18.109375 0 
L 9.078125 0 
L 9.078125 54.6875 
L 18.109375 54.6875 
L 18.109375 46.1875 
Q 21.34375 51.125 25.703125 53.5625 
Q 30.078125 56 35.796875 56 
Q 45.21875 56 50.046875 50.171875 
Q 54.890625 44.34375 54.890625 33.015625 
z
" id="DejaVuSans-6e"/>
     <path d="M 18.109375 8.203125 
L 18.109375 -20.796875 
L 9.078125 -20.796875 
L 9.078125 54.6875 
L 18.109375 54.6875 
L 18.109375 46.390625 
Q 20.953125 51.265625 25.265625 53.625 
Q 29.59375 56 35.59375 56 
Q 45.5625 56 51.78125 48.09375 
Q 58.015625 40.1875 58.015625 27.296875 
Q 58.015625 14.40625 51.78125 6.484375 
Q 45.5625 -1.421875 35.59375 -1.421875 
Q 29.59375 -1.421875 25.265625 0.953125 
Q 20.953125 3.328125 18.109375 8.203125 
z
M 48.6875 27.296875 
Q 48.6875 37.203125 44.609375 42.84375 
Q 40.53125 48.484375 33.40625 48.484375 
Q 26.265625 48.484375 22.1875 42.84375 
Q 18.109375 37.203125 18.109375 27.296875 
Q 18.109375 17.390625 22.1875 11.75 
Q 26.265625 6.109375 33.40625 6.109375 
Q 40.53125 6.109375 44.609375 11.75 
Q 48.6875 17.390625 48.6875 27.296875 
z
" id="DejaVuSans-70"/>
     <path d="M 18.3125 70.21875 
L 18.3125 54.6875 
L 36.8125 54.6875 
L 36.8125 47.703125 
L 18.3125 47.703125 
L 18.3125 18.015625 
Q 18.3125 11.328125 20.140625 9.421875 
Q 21.96875 7.515625 27.59375 7.515625 
L 36.8125 7.515625 
L 36.8125 0 
L 27.59375 0 
Q 17.1875 0 13.234375 3.875 
Q 9.28125 7.765625 9.28125 18.015625 
L 9.28125 47.703125 
L 2.6875 47.703125 
L 2.6875 54.6875 
L 9.28125 54.6875 
L 9.28125 70.21875 
z
" id="DejaVuSans-74"/>
    </defs>
    <g transform="translate(138.227813 16.318125)scale(0.12 -0.12)">
     <use xlink:href="#DejaVuSans-44"/>
     <use x="77.001953" xlink:href="#DejaVuSans-69"/>
     <use x="104.785156" xlink:href="#DejaVuSans-73"/>
     <use x="156.884766" xlink:href="#DejaVuSans-63"/>
     <use x="211.865234" xlink:href="#DejaVuSans-6f"/>
     <use x="273.046875" xlink:href="#DejaVuSans-76"/>
     <use x="332.226562" xlink:href="#DejaVuSans-65"/>
     <use x="393.75" xlink:href="#DejaVuSans-72"/>
     <use x="434.832031" xlink:href="#DejaVuSans-65"/>
     <use x="496.355469" xlink:href="#DejaVuSans-64"/>
     <use x="559.832031" xlink:href="#DejaVuSans-20"/>
     <use x="591.619141" xlink:href="#DejaVuSans-6e"/>
     <use x="654.998047" xlink:href="#DejaVuSans-6f"/>
     <use x="716.179688" xlink:href="#DejaVuSans-64"/>
     <use x="779.65625" xlink:href="#DejaVuSans-65"/>
     <use x="841.179688" xlink:href="#DejaVuSans-73"/>
     <use x="893.279297" xlink:href="#DejaVuSans-20"/>
     <use x="925.066406" xlink:href="#DejaVuSans-70"/>
     <use x="988.542969" xlink:href="#DejaVuSans-65"/>
     <use x="1050.066406" xlink:href="#DejaVuSans-72"/>
     <use x="1091.179688" xlink:href="#DejaVuSans-20"/>
     <use x="1122.966797" xlink:href="#DejaVuSans-74"/>
     <use x="1162.175781" xlink:href="#DejaVuSans-69"/>
     <use x="1189.958984" xlink:href="#DejaVuSans-6d"/>
     <use x="1287.371094" xlink:href="#DejaVuSans-65"/>
    </g>
    <!--  -->
    <g transform="translate(219.163125 29.7555)scale(0.12 -0.12)"/>
    <!--  -->
    <g transform="translate(219.163125 43.192875)scale(0.12 -0.12)"/>
   </g>
   <g id="legend_1">
    <g id="patch_7">
     <path d="M 411.865525 139.939385 
L 482.471775 139.939385 
Q 484.471775 139.939385 484.471775 137.939385 
L 484.471775 50.870635 
Q 484.471775 48.870635 482.471775 48.870635 
L 411.865525 48.870635 
Q 409.865525 48.870635 409.865525 50.870635 
L 409.865525 137.939385 
Q 409.865525 139.939385 411.865525 139.939385 
z
" style="fill:#ffffff;opacity:0.8;stroke:#cccccc;stroke-linejoin:miter;"/>
    </g>
    <g id="line2d_43">
     <path d="M 413.865525 56.969072 
L 433.865525 56.969072 
" style="fill:none;stroke:#008000;stroke-linecap:square;stroke-width:1.5;"/>
    </g>
    <g id="line2d_44"/>
    <g id="text_22">
     <!-- drone 0 -->
     <g transform="translate(441.865525 60.469072)scale(0.1 -0.1)">
      <use xlink:href="#DejaVuSans-64"/>
      <use x="63.476562" xlink:href="#DejaVuSans-72"/>
      <use x="104.558594" xlink:href="#DejaVuSans-6f"/>
      <use x="165.740234" xlink:href="#DejaVuSans-6e"/>
      <use x="229.119141" xlink:href="#DejaVuSans-65"/>
      <use x="290.642578" xlink:href="#DejaVuSans-20"/>
      <use x="322.429688" xlink:href="#DejaVuSans-30"/>
     </g>
    </g>
    <g id="line2d_45">
     <path d="M 413.865525 71.647197 
L 433.865525 71.647197 
" style="fill:none;stroke:#0000ff;stroke-linecap:square;stroke-width:1.5;"/>
    </g>
    <g id="line2d_46"/>
    <g id="text_23">
     <!-- drone 1 -->
     <g transform="translate(441.865525 75.147197)scale(0.1 -0.1)">
      <use xlink:href="#DejaVuSans-64"/>
      <use x="63.476562" xlink:href="#DejaVuSans-72"/>
      <use x="104.558594" xlink:href="#DejaVuSans-6f"/>
      <use x="165.740234" xlink:href="#DejaVuSans-6e"/>
      <use x="229.119141" xlink:href="#DejaVuSans-65"/>
      <use x="290.642578" xlink:href="#DejaVuSans-20"/>
      <use x="322.429688" xlink:href="#DejaVuSans-31"/>
     </g>
    </g>
    <g id="line2d_47">
     <path d="M 413.865525 86.325322 
L 433.865525 86.325322 
" style="fill:none;stroke:#ff0000;stroke-linecap:square;stroke-width:1.5;"/>
    </g>
    <g id="line2d_48"/>
    <g id="text_24">
     <!-- drone 2 -->
     <g transform="translate(441.865525 89.825322)scale(0.1 -0.1)">
      <use xlink:href="#DejaVuSans-64"/>
      <use x="63.476562" xlink:href="#DejaVuSans-72"/>
      <use x="104.558594" xlink:href="#DejaVuSans-6f"/>
      <use x="165.740234" xlink:href="#DejaVuSans-6e"/>
      <use x="229.119141" xlink:href="#DejaVuSans-65"/>
      <use x="290.642578" xlink:href="#DejaVuSans-20"/>
      <use x="322.429688" xlink:href="#DejaVuSans-32"/>
     </g>
    </g>
    <g id="line2d_49">
     <path d="M 413.865525 101.003447 
L 433.865525 101.003447 
" style="fill:none;stroke:#00ffff;stroke-linecap:square;stroke-width:1.5;"/>
    </g>
    <g id="line2d_50"/>
    <g id="text_25">
     <!-- drone 3 -->
     <g transform="translate(441.865525 104.503447)scale(0.1 -0.1)">
      <use xlink:href="#DejaVuSans-64"/>
      <use x="63.476562" xlink:href="#DejaVuSans-72"/>
      <use x="104.558594" xlink:href="#DejaVuSans-6f"/>
      <use x="165.740234" xlink:href="#DejaVuSans-6e"/>
      <use x="229.119141" xlink:href="#DejaVuSans-65"/>
      <use x="290.642578" xlink:href="#DejaVuSans-20"/>
      <use x="322.429688" xlink:href="#DejaVuSans-33"/>
     </g>
    </g>
    <g id="line2d_51">
     <path d="M 413.865525 115.681572 
L 433.865525 115.681572 
" style="fill:none;stroke:#ff00ff;stroke-linecap:square;stroke-width:1.5;"/>
    </g>
    <g id="line2d_52"/>
    <g id="text_26">
     <!-- drone 4 -->
     <g transform="translate(441.865525 119.181572)scale(0.1 -0.1)">
      <use xlink:href="#DejaVuSans-64"/>
      <use x="63.476562" xlink:href="#DejaVuSans-72"/>
      <use x="104.558594" xlink:href="#DejaVuSans-6f"/>
      <use x="165.740234" xlink:href="#DejaVuSans-6e"/>
      <use x="229.119141" xlink:href="#DejaVuSans-65"/>
      <use x="290.642578" xlink:href="#DejaVuSans-20"/>
      <use x="322.429688" xlink:href="#DejaVuSans-34"/>
     </g>
    </g>
    <g id="line2d_53">
     <path d="M 413.865525 130.359697 
L 433.865525 130.359697 
" style="fill:none;stroke:#000000;stroke-linecap:square;stroke-width:1.5;"/>
    </g>
    <g id="line2d_54"/>
    <g id="text_27">
     <!-- drone 5 -->
     <g transform="translate(441.865525 133.859697)scale(0.1 -0.1)">
      <use xlink:href="#DejaVuSans-64"/>
      <use x="63.476562" xlink:href="#DejaVuSans-72"/>
      <use x="104.558594" xlink:href="#DejaVuSans-6f"/>
      <use x="165.740234" xlink:href="#DejaVuSans-6e"/>
      <use x="229.119141" xlink:href="#DejaVuSans-65"/>
      <use x="290.642578" xlink:href="#DejaVuSans-20"/>
      <use x="322.429688" xlink:href="#DejaVuSans-35"/>
     </g>
    </g>
   </g>
  </g>
 </g>
 <defs>
  <clipPath id="p8b8a95468c">
   <rect height="266.112" width="357.12" x="40.603125" y="49.192875"/>
  </clipPath>
 </defs>
</svg>
