<?xml version="1.0" encoding="utf-8" standalone="no"?>
<!DOCTYPE svg PUBLIC "-//W3C//DTD SVG 1.1//EN"
  "http://www.w3.org/Graphics/SVG/1.1/DTD/svg11.dtd">
<!-- Created with matplotlib (http://matplotlib.org/) -->
<svg height="352pt" version="1.1" viewBox="0 0 491 352" width="491pt" xmlns="http://www.w3.org/2000/svg" xmlns:xlink="http://www.w3.org/1999/xlink">
 <defs>
  <style type="text/css">
*{stroke-linecap:butt;stroke-linejoin:round;}
  </style>
 </defs>
 <g id="figure_1">
  <g id="patch_1">
   <path d="M 0 352.861125 
L 491.671775 352.861125 
L 491.671775 0 
L 0 0 
z
" style="fill:#ffffff;"/>
  </g>
  <g id="axes_1">
   <g id="patch_2">
    <path d="M 40.603125 315.304875 
L 397.723125 315.304875 
L 397.723125 49.192875 
L 40.603125 49.192875 
z
" style="fill:#ffffff;"/>
   </g>
   <g id="matplotlib.axis_1">
    <g id="xtick_1">
     <g id="line2d_1">
      <path clip-path="url(#pf61831ec82)" d="M 40.603125 315.304875 
L 40.603125 49.192875 
" style="fill:none;stroke:#b0b0b0;stroke-linecap:square;stroke-width:0.8;"/>
     </g>
     <g id="line2d_2">
      <defs>
       <path d="M 0 0 
L 0 3.5 
" id="m0859ef063f" style="stroke:#000000;stroke-width:0.8;"/>
      </defs>
      <g>
       <use style="stroke:#000000;stroke-width:0.8;" x="40.603125" xlink:href="#m0859ef063f" y="315.304875"/>
      </g>
     </g>
     <g id="text_1">
      <!-- 0 -->
      <defs>
       <path d="M 31.78125 66.40625 
Q 24.171875 66.40625 20.328125 58.90625 
Q 16.5 51.421875 16.5 36.375 
Q 16.5 21.390625 20.328125 13.890625 
Q 24.171875 6.390625 31.78125 6.390625 
Q 39.453125 6.390625 43.28125 13.890625 
Q 47.125 21.390625 47.125 36.375 
Q 47.125 51.421875 43.28125 58.90625 
Q 39.453125 66.40625 31.78125 66.40625 
z
M 31.78125 74.21875 
Q 44.046875 74.21875 50.515625 64.515625 
Q 56.984375 54.828125 56.984375 36.375 
Q 56.984375 17.96875 50.515625 8.265625 
Q 44.046875 -1.421875 31.78125 -1.421875 
Q 19.53125 -1.421875 13.0625 8.265625 
Q 6.59375 17.96875 6.59375 36.375 
Q 6.59375 54.828125 13.0625 64.515625 
Q 19.53125 74.21875 31.78125 74.21875 
z
" id="DejaVuSans-30"/>
      </defs>
      <g transform="translate(37.421875 329.903312)scale(0.1 -0.1)">
       <use xlink:href="#DejaVuSans-30"/>
      </g>
     </g>
    </g>
    <g id="xtick_2">
     <g id="line2d_3">
      <path clip-path="url(#pf61831ec82)" d="M 84.341031 315.304875 
L 84.341031 49.192875 
" style="fill:none;stroke:#b0b0b0;stroke-linecap:square;stroke-width:0.8;"/>
     </g>
     <g id="line2d_4">
      <g>
       <use style="stroke:#000000;stroke-width:0.8;" x="84.341031" xlink:href="#m0859ef063f" y="315.304875"/>
      </g>
     </g>
     <g id="text_2">
      <!-- 200 -->
      <defs>
       <path d="M 19.1875 8.296875 
L 53.609375 8.296875 
L 53.609375 0 
L 7.328125 0 
L 7.328125 8.296875 
Q 12.9375 14.109375 22.625 23.890625 
Q 32.328125 33.6875 34.8125 36.53125 
Q 39.546875 41.84375 41.421875 45.53125 
Q 43.3125 49.21875 43.3125 52.78125 
Q 43.3125 58.59375 39.234375 62.25 
Q 35.15625 65.921875 28.609375 65.921875 
Q 23.96875 65.921875 18.8125 64.3125 
Q 13.671875 62.703125 7.8125 59.421875 
L 7.8125 69.390625 
Q 13.765625 71.78125 18.9375 73 
Q 24.125 74.21875 28.421875 74.21875 
Q 39.75 74.21875 46.484375 68.546875 
Q 53.21875 62.890625 53.21875 53.421875 
Q 53.21875 48.921875 51.53125 44.890625 
Q 49.859375 40.875 45.40625 35.40625 
Q 44.1875 33.984375 37.640625 27.21875 
Q 31.109375 20.453125 19.1875 8.296875 
z
" id="DejaVuSans-32"/>
      </defs>
      <g transform="translate(74.797281 329.903312)scale(0.1 -0.1)">
       <use xlink:href="#DejaVuSans-32"/>
       <use x="63.623047" xlink:href="#DejaVuSans-30"/>
       <use x="127.246094" xlink:href="#DejaVuSans-30"/>
      </g>
     </g>
    </g>
    <g id="xtick_3">
     <g id="line2d_5">
      <path clip-path="url(#pf61831ec82)" d="M 128.078936 315.304875 
L 128.078936 49.192875 
" style="fill:none;stroke:#b0b0b0;stroke-linecap:square;stroke-width:0.8;"/>
     </g>
     <g id="line2d_6">
      <g>
       <use style="stroke:#000000;stroke-width:0.8;" x="128.078936" xlink:href="#m0859ef063f" y="315.304875"/>
      </g>
     </g>
     <g id="text_3">
      <!-- 400 -->
      <defs>
       <path d="M 37.796875 64.3125 
L 12.890625 25.390625 
L 37.796875 25.390625 
z
M 35.203125 72.90625 
L 47.609375 72.90625 
L 47.609375 25.390625 
L 58.015625 25.390625 
L 58.015625 17.1875 
L 47.609375 17.1875 
L 47.609375 0 
L 37.796875 0 
L 37.796875 17.1875 
L 4.890625 17.1875 
L 4.890625 26.703125 
z
" id="DejaVuSans-34"/>
      </defs>
      <g transform="translate(118.535186 329.903312)scale(0.1 -0.1)">
       <use xlink:href="#DejaVuSans-34"/>
       <use x="63.623047" xlink:href="#DejaVuSans-30"/>
       <use x="127.246094" xlink:href="#DejaVuSans-30"/>
      </g>
     </g>
    </g>
    <g id="xtick_4">
     <g id="line2d_7">
      <path clip-path="url(#pf61831ec82)" d="M 171.816842 315.304875 
L 171.816842 49.192875 
" style="fill:none;stroke:#b0b0b0;stroke-linecap:square;stroke-width:0.8;"/>
     </g>
     <g id="line2d_8">
      <g>
       <use style="stroke:#000000;stroke-width:0.8;" x="171.816842" xlink:href="#m0859ef063f" y="315.304875"/>
      </g>
     </g>
     <g id="text_4">
      <!-- 600 -->
      <defs>
       <path d="M 33.015625 40.375 
Q 26.375 40.375 22.484375 35.828125 
Q 18.609375 31.296875 18.609375 23.390625 
Q 18.609375 15.53125 22.484375 10.953125 
Q 26.375 6.390625 33.015625 6.390625 
Q 39.65625 6.390625 43.53125 10.953125 
Q 47.40625 15.53125 47.40625 23.390625 
Q 47.40625 31.296875 43.53125 35.828125 
Q 39.65625 40.375 33.015625 40.375 
z
M 52.59375 71.296875 
L 52.59375 62.3125 
Q 48.875 64.0625 45.09375 64.984375 
Q 41.3125 65.921875 37.59375 65.921875 
Q 27.828125 65.921875 22.671875 59.328125 
Q 17.53125 52.734375 16.796875 39.40625 
Q 19.671875 43.65625 24.015625 45.921875 
Q 28.375 48.1875 33.59375 48.1875 
Q 44.578125 48.1875 50.953125 41.515625 
Q 57.328125 34.859375 57.328125 23.390625 
Q 57.328125 12.15625 50.6875 5.359375 
Q 44.046875 -1.421875 33.015625 -1.421875 
Q 20.359375 -1.421875 13.671875 8.265625 
Q 6.984375 17.96875 6.984375 36.375 
Q 6.984375 53.65625 15.1875 63.9375 
Q 23.390625 74.21875 37.203125 74.21875 
Q 40.921875 74.21875 44.703125 73.484375 
Q 48.484375 72.75 52.59375 71.296875 
z
" id="DejaVuSans-36"/>
      </defs>
      <g transform="translate(162.273092 329.903312)scale(0.1 -0.1)">
       <use xlink:href="#DejaVuSans-36"/>
       <use x="63.623047" xlink:href="#DejaVuSans-30"/>
       <use x="127.246094" xlink:href="#DejaVuSans-30"/>
      </g>
     </g>
    </g>
    <g id="xtick_5">
     <g id="line2d_9">
      <path clip-path="url(#pf61831ec82)" d="M 215.554748 315.304875 
L 215.554748 49.192875 
" style="fill:none;stroke:#b0b0b0;stroke-linecap:square;stroke-width:0.8;"/>
     </g>
     <g id="line2d_10">
      <g>
       <use style="stroke:#000000;stroke-width:0.8;" x="215.554748" xlink:href="#m0859ef063f" y="315.304875"/>
      </g>
     </g>
     <g id="text_5">
      <!-- 800 -->
      <defs>
       <path d="M 31.78125 34.625 
Q 24.75 34.625 20.71875 30.859375 
Q 16.703125 27.09375 16.703125 20.515625 
Q 16.703125 13.921875 20.71875 10.15625 
Q 24.75 6.390625 31.78125 6.390625 
Q 38.8125 6.390625 42.859375 10.171875 
Q 46.921875 13.96875 46.921875 20.515625 
Q 46.921875 27.09375 42.890625 30.859375 
Q 38.875 34.625 31.78125 34.625 
z
M 21.921875 38.8125 
Q 15.578125 40.375 12.03125 44.71875 
Q 8.5 49.078125 8.5 55.328125 
Q 8.5 64.0625 14.71875 69.140625 
Q 20.953125 74.21875 31.78125 74.21875 
Q 42.671875 74.21875 48.875 69.140625 
Q 55.078125 64.0625 55.078125 55.328125 
Q 55.078125 49.078125 51.53125 44.71875 
Q 48 40.375 41.703125 38.8125 
Q 48.828125 37.15625 52.796875 32.3125 
Q 56.78125 27.484375 56.78125 20.515625 
Q 56.78125 9.90625 50.3125 4.234375 
Q 43.84375 -1.421875 31.78125 -1.421875 
Q 19.734375 -1.421875 13.25 4.234375 
Q 6.78125 9.90625 6.78125 20.515625 
Q 6.78125 27.484375 10.78125 32.3125 
Q 14.796875 37.15625 21.921875 38.8125 
z
M 18.3125 54.390625 
Q 18.3125 48.734375 21.84375 45.5625 
Q 25.390625 42.390625 31.78125 42.390625 
Q 38.140625 42.390625 41.71875 45.5625 
Q 45.3125 48.734375 45.3125 54.390625 
Q 45.3125 60.0625 41.71875 63.234375 
Q 38.140625 66.40625 31.78125 66.40625 
Q 25.390625 66.40625 21.84375 63.234375 
Q 18.3125 60.0625 18.3125 54.390625 
z
" id="DejaVuSans-38"/>
      </defs>
      <g transform="translate(206.010998 329.903312)scale(0.1 -0.1)">
       <use xlink:href="#DejaVuSans-38"/>
       <use x="63.623047" xlink:href="#DejaVuSans-30"/>
       <use x="127.246094" xlink:href="#DejaVuSans-30"/>
      </g>
     </g>
    </g>
    <g id="xtick_6">
     <g id="line2d_11">
      <path clip-path="url(#pf61831ec82)" d="M 259.292653 315.304875 
L 259.292653 49.192875 
" style="fill:none;stroke:#b0b0b0;stroke-linecap:square;stroke-width:0.8;"/>
     </g>
     <g id="line2d_12">
      <g>
       <use style="stroke:#000000;stroke-width:0.8;" x="259.292653" xlink:href="#m0859ef063f" y="315.304875"/>
      </g>
     </g>
     <g id="text_6">
      <!-- 1000 -->
      <defs>
       <path d="M 12.40625 8.296875 
L 28.515625 8.296875 
L 28.515625 63.921875 
L 10.984375 60.40625 
L 10.984375 69.390625 
L 28.421875 72.90625 
L 38.28125 72.90625 
L 38.28125 8.296875 
L 54.390625 8.296875 
L 54.390625 0 
L 12.40625 0 
z
" id="DejaVuSans-31"/>
      </defs>
      <g transform="translate(246.567653 329.903312)scale(0.1 -0.1)">
       <use xlink:href="#DejaVuSans-31"/>
       <use x="63.623047" xlink:href="#DejaVuSans-30"/>
       <use x="127.246094" xlink:href="#DejaVuSans-30"/>
       <use x="190.869141" xlink:href="#DejaVuSans-30"/>
      </g>
     </g>
    </g>
    <g id="xtick_7">
     <g id="line2d_13">
      <path clip-path="url(#pf61831ec82)" d="M 303.030559 315.304875 
L 303.030559 49.192875 
" style="fill:none;stroke:#b0b0b0;stroke-linecap:square;stroke-width:0.8;"/>
     </g>
     <g id="line2d_14">
      <g>
       <use style="stroke:#000000;stroke-width:0.8;" x="303.030559" xlink:href="#m0859ef063f" y="315.304875"/>
      </g>
     </g>
     <g id="text_7">
      <!-- 1200 -->
      <g transform="translate(290.305559 329.903312)scale(0.1 -0.1)">
       <use xlink:href="#DejaVuSans-31"/>
       <use x="63.623047" xlink:href="#DejaVuSans-32"/>
       <use x="127.246094" xlink:href="#DejaVuSans-30"/>
       <use x="190.869141" xlink:href="#DejaVuSans-30"/>
      </g>
     </g>
    </g>
    <g id="xtick_8">
     <g id="line2d_15">
      <path clip-path="url(#pf61831ec82)" d="M 346.768465 315.304875 
L 346.768465 49.192875 
" style="fill:none;stroke:#b0b0b0;stroke-linecap:square;stroke-width:0.8;"/>
     </g>
     <g id="line2d_16">
      <g>
       <use style="stroke:#000000;stroke-width:0.8;" x="346.768465" xlink:href="#m0859ef063f" y="315.304875"/>
      </g>
     </g>
     <g id="text_8">
      <!-- 1400 -->
      <g transform="translate(334.043465 329.903312)scale(0.1 -0.1)">
       <use xlink:href="#DejaVuSans-31"/>
       <use x="63.623047" xlink:href="#DejaVuSans-34"/>
       <use x="127.246094" xlink:href="#DejaVuSans-30"/>
       <use x="190.869141" xlink:href="#DejaVuSans-30"/>
      </g>
     </g>
    </g>
    <g id="xtick_9">
     <g id="line2d_17">
      <path clip-path="url(#pf61831ec82)" d="M 390.506371 315.304875 
L 390.506371 49.192875 
" style="fill:none;stroke:#b0b0b0;stroke-linecap:square;stroke-width:0.8;"/>
     </g>
     <g id="line2d_18">
      <g>
       <use style="stroke:#000000;stroke-width:0.8;" x="390.506371" xlink:href="#m0859ef063f" y="315.304875"/>
      </g>
     </g>
     <g id="text_9">
      <!-- 1600 -->
      <g transform="translate(377.781371 329.903312)scale(0.1 -0.1)">
       <use xlink:href="#DejaVuSans-31"/>
       <use x="63.623047" xlink:href="#DejaVuSans-36"/>
       <use x="127.246094" xlink:href="#DejaVuSans-30"/>
       <use x="190.869141" xlink:href="#DejaVuSans-30"/>
      </g>
     </g>
    </g>
    <g id="text_10">
     <!-- Time(s) -->
     <defs>
      <path d="M -0.296875 72.90625 
L 61.375 72.90625 
L 61.375 64.59375 
L 35.5 64.59375 
L 35.5 0 
L 25.59375 0 
L 25.59375 64.59375 
L -0.296875 64.59375 
z
" id="DejaVuSans-54"/>
      <path d="M 9.421875 54.6875 
L 18.40625 54.6875 
L 18.40625 0 
L 9.421875 0 
z
M 9.421875 75.984375 
L 18.40625 75.984375 
L 18.40625 64.59375 
L 9.421875 64.59375 
z
" id="DejaVuSans-69"/>
      <path d="M 52 44.1875 
Q 55.375 50.25 60.0625 53.125 
Q 64.75 56 71.09375 56 
Q 79.640625 56 84.28125 50.015625 
Q 88.921875 44.046875 88.921875 33.015625 
L 88.921875 0 
L 79.890625 0 
L 79.890625 32.71875 
Q 79.890625 40.578125 77.09375 44.375 
Q 74.3125 48.1875 68.609375 48.1875 
Q 61.625 48.1875 57.5625 43.546875 
Q 53.515625 38.921875 53.515625 30.90625 
L 53.515625 0 
L 44.484375 0 
L 44.484375 32.71875 
Q 44.484375 40.625 41.703125 44.40625 
Q 38.921875 48.1875 33.109375 48.1875 
Q 26.21875 48.1875 22.15625 43.53125 
Q 18.109375 38.875 18.109375 30.90625 
L 18.109375 0 
L 9.078125 0 
L 9.078125 54.6875 
L 18.109375 54.6875 
L 18.109375 46.1875 
Q 21.1875 51.21875 25.484375 53.609375 
Q 29.78125 56 35.6875 56 
Q 41.65625 56 45.828125 52.96875 
Q 50 49.953125 52 44.1875 
z
" id="DejaVuSans-6d"/>
      <path d="M 56.203125 29.59375 
L 56.203125 25.203125 
L 14.890625 25.203125 
Q 15.484375 15.921875 20.484375 11.0625 
Q 25.484375 6.203125 34.421875 6.203125 
Q 39.59375 6.203125 44.453125 7.46875 
Q 49.3125 8.734375 54.109375 11.28125 
L 54.109375 2.78125 
Q 49.265625 0.734375 44.1875 -0.34375 
Q 39.109375 -1.421875 33.890625 -1.421875 
Q 20.796875 -1.421875 13.15625 6.1875 
Q 5.515625 13.8125 5.515625 26.8125 
Q 5.515625 40.234375 12.765625 48.109375 
Q 20.015625 56 32.328125 56 
Q 43.359375 56 49.78125 48.890625 
Q 56.203125 41.796875 56.203125 29.59375 
z
M 47.21875 32.234375 
Q 47.125 39.59375 43.09375 43.984375 
Q 39.0625 48.390625 32.421875 48.390625 
Q 24.90625 48.390625 20.390625 44.140625 
Q 15.875 39.890625 15.1875 32.171875 
z
" id="DejaVuSans-65"/>
      <path d="M 31 75.875 
Q 24.46875 64.65625 21.28125 53.65625 
Q 18.109375 42.671875 18.109375 31.390625 
Q 18.109375 20.125 21.3125 9.0625 
Q 24.515625 -2 31 -13.1875 
L 23.1875 -13.1875 
Q 15.875 -1.703125 12.234375 9.375 
Q 8.59375 20.453125 8.59375 31.390625 
Q 8.59375 42.28125 12.203125 53.3125 
Q 15.828125 64.359375 23.1875 75.875 
z
" id="DejaVuSans-28"/>
      <path d="M 44.28125 53.078125 
L 44.28125 44.578125 
Q 40.484375 46.53125 36.375 47.5 
Q 32.28125 48.484375 27.875 48.484375 
Q 21.1875 48.484375 17.84375 46.4375 
Q 14.5 44.390625 14.5 40.28125 
Q 14.5 37.15625 16.890625 35.375 
Q 19.28125 33.59375 26.515625 31.984375 
L 29.59375 31.296875 
Q 39.15625 29.25 43.1875 25.515625 
Q 47.21875 21.78125 47.21875 15.09375 
Q 47.21875 7.46875 41.1875 3.015625 
Q 35.15625 -1.421875 24.609375 -1.421875 
Q 20.21875 -1.421875 15.453125 -0.5625 
Q 10.6875 0.296875 5.421875 2 
L 5.421875 11.28125 
Q 10.40625 8.6875 15.234375 7.390625 
Q 20.0625 6.109375 24.8125 6.109375 
Q 31.15625 6.109375 34.5625 8.28125 
Q 37.984375 10.453125 37.984375 14.40625 
Q 37.984375 18.0625 35.515625 20.015625 
Q 33.0625 21.96875 24.703125 23.78125 
L 21.578125 24.515625 
Q 13.234375 26.265625 9.515625 29.90625 
Q 5.8125 33.546875 5.8125 39.890625 
Q 5.8125 47.609375 11.28125 51.796875 
Q 16.75 56 26.8125 56 
Q 31.78125 56 36.171875 55.265625 
Q 40.578125 54.546875 44.28125 53.078125 
z
" id="DejaVuSans-73"/>
      <path d="M 8.015625 75.875 
L 15.828125 75.875 
Q 23.140625 64.359375 26.78125 53.3125 
Q 30.421875 42.28125 30.421875 31.390625 
Q 30.421875 20.453125 26.78125 9.375 
Q 23.140625 -1.703125 15.828125 -13.1875 
L 8.015625 -13.1875 
Q 14.5 -2 17.703125 9.0625 
Q 20.90625 20.125 20.90625 31.390625 
Q 20.90625 42.671875 17.703125 53.65625 
Q 14.5 64.65625 8.015625 75.875 
z
" id="DejaVuSans-29"/>
     </defs>
     <g transform="translate(200.269375 343.581437)scale(0.1 -0.1)">
      <use xlink:href="#DejaVuSans-54"/>
      <use x="61.037109" xlink:href="#DejaVuSans-69"/>
      <use x="88.820312" xlink:href="#DejaVuSans-6d"/>
      <use x="186.232422" xlink:href="#DejaVuSans-65"/>
      <use x="247.755859" xlink:href="#DejaVuSans-28"/>
      <use x="286.769531" xlink:href="#DejaVuSans-73"/>
      <use x="338.869141" xlink:href="#DejaVuSans-29"/>
     </g>
    </g>
   </g>
   <g id="matplotlib.axis_2">
    <g id="ytick_1">
     <g id="line2d_19">
      <path clip-path="url(#pf61831ec82)" d="M 40.603125 303.208875 
L 397.723125 303.208875 
" style="fill:none;stroke:#b0b0b0;stroke-linecap:square;stroke-width:0.8;"/>
     </g>
     <g id="line2d_20">
      <defs>
       <path d="M 0 0 
L -3.5 0 
" id="mb42b7c7596" style="stroke:#000000;stroke-width:0.8;"/>
      </defs>
      <g>
       <use style="stroke:#000000;stroke-width:0.8;" x="40.603125" xlink:href="#mb42b7c7596" y="303.208875"/>
      </g>
     </g>
     <g id="text_11">
      <!-- 0 -->
      <g transform="translate(27.240625 307.008094)scale(0.1 -0.1)">
       <use xlink:href="#DejaVuSans-30"/>
      </g>
     </g>
    </g>
    <g id="ytick_2">
     <g id="line2d_21">
      <path clip-path="url(#pf61831ec82)" d="M 40.603125 260.008875 
L 397.723125 260.008875 
" style="fill:none;stroke:#b0b0b0;stroke-linecap:square;stroke-width:0.8;"/>
     </g>
     <g id="line2d_22">
      <g>
       <use style="stroke:#000000;stroke-width:0.8;" x="40.603125" xlink:href="#mb42b7c7596" y="260.008875"/>
      </g>
     </g>
     <g id="text_12">
      <!-- 10 -->
      <g transform="translate(20.878125 263.808094)scale(0.1 -0.1)">
       <use xlink:href="#DejaVuSans-31"/>
       <use x="63.623047" xlink:href="#DejaVuSans-30"/>
      </g>
     </g>
    </g>
    <g id="ytick_3">
     <g id="line2d_23">
      <path clip-path="url(#pf61831ec82)" d="M 40.603125 216.808875 
L 397.723125 216.808875 
" style="fill:none;stroke:#b0b0b0;stroke-linecap:square;stroke-width:0.8;"/>
     </g>
     <g id="line2d_24">
      <g>
       <use style="stroke:#000000;stroke-width:0.8;" x="40.603125" xlink:href="#mb42b7c7596" y="216.808875"/>
      </g>
     </g>
     <g id="text_13">
      <!-- 20 -->
      <g transform="translate(20.878125 220.608094)scale(0.1 -0.1)">
       <use xlink:href="#DejaVuSans-32"/>
       <use x="63.623047" xlink:href="#DejaVuSans-30"/>
      </g>
     </g>
    </g>
    <g id="ytick_4">
     <g id="line2d_25">
      <path clip-path="url(#pf61831ec82)" d="M 40.603125 173.608875 
L 397.723125 173.608875 
" style="fill:none;stroke:#b0b0b0;stroke-linecap:square;stroke-width:0.8;"/>
     </g>
     <g id="line2d_26">
      <g>
       <use style="stroke:#000000;stroke-width:0.8;" x="40.603125" xlink:href="#mb42b7c7596" y="173.608875"/>
      </g>
     </g>
     <g id="text_14">
      <!-- 30 -->
      <defs>
       <path d="M 40.578125 39.3125 
Q 47.65625 37.796875 51.625 33 
Q 55.609375 28.21875 55.609375 21.1875 
Q 55.609375 10.40625 48.1875 4.484375 
Q 40.765625 -1.421875 27.09375 -1.421875 
Q 22.515625 -1.421875 17.65625 -0.515625 
Q 12.796875 0.390625 7.625 2.203125 
L 7.625 11.71875 
Q 11.71875 9.328125 16.59375 8.109375 
Q 21.484375 6.890625 26.8125 6.890625 
Q 36.078125 6.890625 40.9375 10.546875 
Q 45.796875 14.203125 45.796875 21.1875 
Q 45.796875 27.640625 41.28125 31.265625 
Q 36.765625 34.90625 28.71875 34.90625 
L 20.21875 34.90625 
L 20.21875 43.015625 
L 29.109375 43.015625 
Q 36.375 43.015625 40.234375 45.921875 
Q 44.09375 48.828125 44.09375 54.296875 
Q 44.09375 59.90625 40.109375 62.90625 
Q 36.140625 65.921875 28.71875 65.921875 
Q 24.65625 65.921875 20.015625 65.03125 
Q 15.375 64.15625 9.8125 62.3125 
L 9.8125 71.09375 
Q 15.4375 72.65625 20.34375 73.4375 
Q 25.25 74.21875 29.59375 74.21875 
Q 40.828125 74.21875 47.359375 69.109375 
Q 53.90625 64.015625 53.90625 55.328125 
Q 53.90625 49.265625 50.4375 45.09375 
Q 46.96875 40.921875 40.578125 39.3125 
z
" id="DejaVuSans-33"/>
      </defs>
      <g transform="translate(20.878125 177.408094)scale(0.1 -0.1)">
       <use xlink:href="#DejaVuSans-33"/>
       <use x="63.623047" xlink:href="#DejaVuSans-30"/>
      </g>
     </g>
    </g>
    <g id="ytick_5">
     <g id="line2d_27">
      <path clip-path="url(#pf61831ec82)" d="M 40.603125 130.408875 
L 397.723125 130.408875 
" style="fill:none;stroke:#b0b0b0;stroke-linecap:square;stroke-width:0.8;"/>
     </g>
     <g id="line2d_28">
      <g>
       <use style="stroke:#000000;stroke-width:0.8;" x="40.603125" xlink:href="#mb42b7c7596" y="130.408875"/>
      </g>
     </g>
     <g id="text_15">
      <!-- 40 -->
      <g transform="translate(20.878125 134.208094)scale(0.1 -0.1)">
       <use xlink:href="#DejaVuSans-34"/>
       <use x="63.623047" xlink:href="#DejaVuSans-30"/>
      </g>
     </g>
    </g>
    <g id="ytick_6">
     <g id="line2d_29">
      <path clip-path="url(#pf61831ec82)" d="M 40.603125 87.208875 
L 397.723125 87.208875 
" style="fill:none;stroke:#b0b0b0;stroke-linecap:square;stroke-width:0.8;"/>
     </g>
     <g id="line2d_30">
      <g>
       <use style="stroke:#000000;stroke-width:0.8;" x="40.603125" xlink:href="#mb42b7c7596" y="87.208875"/>
      </g>
     </g>
     <g id="text_16">
      <!-- 50 -->
      <defs>
       <path d="M 10.796875 72.90625 
L 49.515625 72.90625 
L 49.515625 64.59375 
L 19.828125 64.59375 
L 19.828125 46.734375 
Q 21.96875 47.46875 24.109375 47.828125 
Q 26.265625 48.1875 28.421875 48.1875 
Q 40.625 48.1875 47.75 41.5 
Q 54.890625 34.8125 54.890625 23.390625 
Q 54.890625 11.625 47.5625 5.09375 
Q 40.234375 -1.421875 26.90625 -1.421875 
Q 22.3125 -1.421875 17.546875 -0.640625 
Q 12.796875 0.140625 7.71875 1.703125 
L 7.71875 11.625 
Q 12.109375 9.234375 16.796875 8.0625 
Q 21.484375 6.890625 26.703125 6.890625 
Q 35.15625 6.890625 40.078125 11.328125 
Q 45.015625 15.765625 45.015625 23.390625 
Q 45.015625 31 40.078125 35.4375 
Q 35.15625 39.890625 26.703125 39.890625 
Q 22.75 39.890625 18.8125 39.015625 
Q 14.890625 38.140625 10.796875 36.28125 
z
" id="DejaVuSans-35"/>
      </defs>
      <g transform="translate(20.878125 91.008094)scale(0.1 -0.1)">
       <use xlink:href="#DejaVuSans-35"/>
       <use x="63.623047" xlink:href="#DejaVuSans-30"/>
      </g>
     </g>
    </g>
    <g id="text_17">
     <!-- Discovered Nodes -->
     <defs>
      <path d="M 19.671875 64.796875 
L 19.671875 8.109375 
L 31.59375 8.109375 
Q 46.6875 8.109375 53.6875 14.9375 
Q 60.6875 21.78125 60.6875 36.53125 
Q 60.6875 51.171875 53.6875 57.984375 
Q 46.6875 64.796875 31.59375 64.796875 
z
M 9.8125 72.90625 
L 30.078125 72.90625 
Q 51.265625 72.90625 61.171875 64.09375 
Q 71.09375 55.28125 71.09375 36.53125 
Q 71.09375 17.671875 61.125 8.828125 
Q 51.171875 0 30.078125 0 
L 9.8125 0 
z
" id="DejaVuSans-44"/>
      <path d="M 48.78125 52.59375 
L 48.78125 44.1875 
Q 44.96875 46.296875 41.140625 47.34375 
Q 37.3125 48.390625 33.40625 48.390625 
Q 24.65625 48.390625 19.8125 42.84375 
Q 14.984375 37.3125 14.984375 27.296875 
Q 14.984375 17.28125 19.8125 11.734375 
Q 24.65625 6.203125 33.40625 6.203125 
Q 37.3125 6.203125 41.140625 7.25 
Q 44.96875 8.296875 48.78125 10.40625 
L 48.78125 2.09375 
Q 45.015625 0.34375 40.984375 -0.53125 
Q 36.96875 -1.421875 32.421875 -1.421875 
Q 20.0625 -1.421875 12.78125 6.34375 
Q 5.515625 14.109375 5.515625 27.296875 
Q 5.515625 40.671875 12.859375 48.328125 
Q 20.21875 56 33.015625 56 
Q 37.15625 56 41.109375 55.140625 
Q 45.0625 54.296875 48.78125 52.59375 
z
" id="DejaVuSans-63"/>
      <path d="M 30.609375 48.390625 
Q 23.390625 48.390625 19.1875 42.75 
Q 14.984375 37.109375 14.984375 27.296875 
Q 14.984375 17.484375 19.15625 11.84375 
Q 23.34375 6.203125 30.609375 6.203125 
Q 37.796875 6.203125 41.984375 11.859375 
Q 46.1875 17.53125 46.1875 27.296875 
Q 46.1875 37.015625 41.984375 42.703125 
Q 37.796875 48.390625 30.609375 48.390625 
z
M 30.609375 56 
Q 42.328125 56 49.015625 48.375 
Q 55.71875 40.765625 55.71875 27.296875 
Q 55.71875 13.875 49.015625 6.21875 
Q 42.328125 -1.421875 30.609375 -1.421875 
Q 18.84375 -1.421875 12.171875 6.21875 
Q 5.515625 13.875 5.515625 27.296875 
Q 5.515625 40.765625 12.171875 48.375 
Q 18.84375 56 30.609375 56 
z
" id="DejaVuSans-6f"/>
      <path d="M 2.984375 54.6875 
L 12.5 54.6875 
L 29.59375 8.796875 
L 46.6875 54.6875 
L 56.203125 54.6875 
L 35.6875 0 
L 23.484375 0 
z
" id="DejaVuSans-76"/>
      <path d="M 41.109375 46.296875 
Q 39.59375 47.171875 37.8125 47.578125 
Q 36.03125 48 33.890625 48 
Q 26.265625 48 22.1875 43.046875 
Q 18.109375 38.09375 18.109375 28.8125 
L 18.109375 0 
L 9.078125 0 
L 9.078125 54.6875 
L 18.109375 54.6875 
L 18.109375 46.1875 
Q 20.953125 51.171875 25.484375 53.578125 
Q 30.03125 56 36.53125 56 
Q 37.453125 56 38.578125 55.875 
Q 39.703125 55.765625 41.0625 55.515625 
z
" id="DejaVuSans-72"/>
      <path d="M 45.40625 46.390625 
L 45.40625 75.984375 
L 54.390625 75.984375 
L 54.390625 0 
L 45.40625 0 
L 45.40625 8.203125 
Q 42.578125 3.328125 38.25 0.953125 
Q 33.9375 -1.421875 27.875 -1.421875 
Q 17.96875 -1.421875 11.734375 6.484375 
Q 5.515625 14.40625 5.515625 27.296875 
Q 5.515625 40.1875 11.734375 48.09375 
Q 17.96875 56 27.875 56 
Q 33.9375 56 38.25 53.625 
Q 42.578125 51.265625 45.40625 46.390625 
z
M 14.796875 27.296875 
Q 14.796875 17.390625 18.875 11.75 
Q 22.953125 6.109375 30.078125 6.109375 
Q 37.203125 6.109375 41.296875 11.75 
Q 45.40625 17.390625 45.40625 27.296875 
Q 45.40625 37.203125 41.296875 42.84375 
Q 37.203125 48.484375 30.078125 48.484375 
Q 22.953125 48.484375 18.875 42.84375 
Q 14.796875 37.203125 14.796875 27.296875 
z
" id="DejaVuSans-64"/>
      <path id="DejaVuSans-20"/>
      <path d="M 9.8125 72.90625 
L 23.09375 72.90625 
L 55.421875 11.921875 
L 55.421875 72.90625 
L 64.984375 72.90625 
L 64.984375 0 
L 51.703125 0 
L 19.390625 60.984375 
L 19.390625 0 
L 9.8125 0 
z
" id="DejaVuSans-4e"/>
     </defs>
     <g transform="translate(14.798438 227.486375)rotate(-90)scale(0.1 -0.1)">
      <use xlink:href="#DejaVuSans-44"/>
      <use x="77.001953" xlink:href="#DejaVuSans-69"/>
      <use x="104.785156" xlink:href="#DejaVuSans-73"/>
      <use x="156.884766" xlink:href="#DejaVuSans-63"/>
      <use x="211.865234" xlink:href="#DejaVuSans-6f"/>
      <use x="273.046875" xlink:href="#DejaVuSans-76"/>
      <use x="332.226562" xlink:href="#DejaVuSans-65"/>
      <use x="393.75" xlink:href="#DejaVuSans-72"/>
      <use x="434.832031" xlink:href="#DejaVuSans-65"/>
      <use x="496.355469" xlink:href="#DejaVuSans-64"/>
      <use x="559.832031" xlink:href="#DejaVuSans-20"/>
      <use x="591.619141" xlink:href="#DejaVuSans-4e"/>
      <use x="666.423828" xlink:href="#DejaVuSans-6f"/>
      <use x="727.605469" xlink:href="#DejaVuSans-64"/>
      <use x="791.082031" xlink:href="#DejaVuSans-65"/>
      <use x="852.605469" xlink:href="#DejaVuSans-73"/>
     </g>
    </g>
   </g>
   <g id="line2d_31">
    <path clip-path="url(#pf61831ec82)" d="M 40.603125 303.208875 
L 121.299561 303.208875 
L 121.518251 294.568875 
L 122.393009 294.568875 
L 122.611698 290.248875 
L 125.017283 290.248875 
L 125.235973 285.928875 
L 125.454662 285.928875 
L 125.673352 290.248875 
L 127.204178 290.248875 
L 127.641557 298.888875 
L 128.516315 298.888875 
L 128.735005 303.208875 
L 198.278275 303.208875 
L 198.496965 298.888875 
L 201.121239 298.888875 
L 201.558618 290.248875 
L 202.870755 290.248875 
L 203.089445 294.568875 
L 208.775372 294.568875 
L 208.994062 298.888875 
L 212.493094 298.888875 
L 212.711784 294.568875 
L 213.586542 294.568875 
L 213.805232 298.888875 
L 253.388036 298.888875 
L 253.606726 303.208875 
L 254.044105 303.208875 
L 254.262794 298.888875 
L 255.356242 298.888875 
L 255.574931 303.208875 
L 256.44969 303.208875 
L 256.668379 298.888875 
L 257.324448 298.888875 
L 257.543137 303.208875 
L 258.855274 303.208875 
L 259.073964 298.888875 
L 259.511343 298.888875 
L 259.730033 303.208875 
L 397.504435 303.208875 
L 397.504435 303.208875 
" style="fill:none;stroke:#008000;stroke-linecap:square;stroke-width:1.5;"/>
   </g>
   <g id="line2d_32">
    <path clip-path="url(#pf61831ec82)" d="M 40.603125 303.208875 
L 104.679157 303.208875 
L 104.897846 298.888875 
L 105.553915 298.888875 
L 105.772604 294.568875 
L 106.209984 294.568875 
L 106.428673 290.248875 
L 107.303431 290.248875 
L 107.522121 285.928875 
L 107.74081 285.928875 
L 107.9595 281.608875 
L 108.178189 281.608875 
L 108.396879 285.928875 
L 108.615568 277.288875 
L 108.834258 281.608875 
L 112.55198 281.608875 
L 112.770669 285.928875 
L 114.301496 285.928875 
L 114.738875 298.888875 
L 114.957565 303.208875 
L 115.394944 303.208875 
L 116.051012 290.248875 
L 118.456597 290.248875 
L 118.675287 285.928875 
L 119.112666 285.928875 
L 119.331355 281.608875 
L 119.550045 281.608875 
L 119.768734 285.928875 
L 120.643492 285.928875 
L 120.862182 281.608875 
L 121.080871 281.608875 
L 121.299561 277.288875 
L 121.95563 277.288875 
L 122.174319 272.968875 
L 122.611698 272.968875 
L 122.830388 277.288875 
L 124.142525 277.288875 
L 124.361214 285.928875 
L 124.579904 285.928875 
L 124.798593 294.568875 
L 125.017283 290.248875 
L 127.422868 290.248875 
L 127.641557 298.888875 
L 127.860247 298.888875 
L 128.078936 303.208875 
L 151.697405 303.208875 
L 151.916095 298.888875 
L 152.790853 298.888875 
L 153.009543 294.568875 
L 155.196438 294.568875 
L 155.415127 298.888875 
L 160.226297 298.888875 
L 160.444987 303.208875 
L 168.536499 303.208875 
L 168.755189 298.888875 
L 169.848636 298.888875 
L 170.067326 294.568875 
L 172.472911 294.568875 
L 172.6916 290.248875 
L 176.190633 290.248875 
L 176.409322 294.568875 
L 177.28408 294.568875 
L 177.50277 298.888875 
L 179.252286 298.888875 
L 179.470976 303.208875 
L 201.339928 303.208875 
L 201.558618 294.568875 
L 203.308134 294.568875 
L 203.745513 285.928875 
L 205.495029 285.928875 
L 205.932409 277.288875 
L 206.588477 277.288875 
L 206.807167 281.608875 
L 207.681925 281.608875 
L 207.900614 285.928875 
L 208.337993 285.928875 
L 208.556683 281.608875 
L 213.805232 281.608875 
L 214.023921 285.928875 
L 215.554748 285.928875 
L 215.773437 277.288875 
L 215.992127 277.288875 
L 216.210816 281.608875 
L 217.741643 281.608875 
L 217.960333 285.928875 
L 219.05378 285.928875 
L 219.27247 281.608875 
L 220.147228 281.608875 
L 220.365917 285.928875 
L 221.240676 285.928875 
L 221.459365 281.608875 
L 222.115434 281.608875 
L 222.334123 285.928875 
L 222.552813 285.928875 
L 222.771502 281.608875 
L 222.990192 281.608875 
L 223.208881 285.928875 
L 223.427571 285.928875 
L 223.64626 281.608875 
L 225.395777 281.608875 
L 225.614466 285.928875 
L 225.833156 281.608875 
L 227.801361 281.608875 
L 228.020051 277.288875 
L 228.45743 277.288875 
L 228.676119 281.608875 
L 247.04604 281.608875 
L 247.264729 277.288875 
L 247.483419 277.288875 
L 247.702108 281.608875 
L 248.795556 281.608875 
L 249.014246 277.288875 
L 249.889004 277.288875 
L 250.107693 281.608875 
L 250.763762 281.608875 
L 250.982451 277.288875 
L 252.513278 277.288875 
L 252.731968 281.608875 
L 252.950657 277.288875 
L 264.978581 277.288875 
L 265.197271 272.968875 
L 265.41596 272.968875 
L 265.63465 277.288875 
L 266.290718 277.288875 
L 266.509408 272.968875 
L 266.728097 272.968875 
L 266.946787 277.288875 
L 267.165477 272.968875 
L 267.821545 272.968875 
L 268.040235 277.288875 
L 268.477614 277.288875 
L 268.696303 272.968875 
L 268.914993 272.968875 
L 269.133682 268.648875 
L 269.352372 272.968875 
L 269.789751 272.968875 
L 270.00844 268.648875 
L 270.22713 268.648875 
L 270.445819 264.328875 
L 270.664509 268.648875 
L 274.163541 268.648875 
L 274.382231 264.328875 
L 276.569126 264.328875 
L 276.787816 255.688875 
L 277.443884 255.688875 
L 277.662574 260.008875 
L 281.817675 260.008875 
L 282.036364 255.688875 
L 282.255054 255.688875 
L 282.473743 260.008875 
L 287.503603 260.008875 
L 287.722292 264.328875 
L 287.940982 264.328875 
L 288.378361 255.688875 
L 289.909187 255.688875 
L 290.127877 260.008875 
L 291.221325 260.008875 
L 291.440014 264.328875 
L 291.877393 264.328875 
L 292.096083 260.008875 
L 293.845599 260.008875 
L 294.064289 255.688875 
L 296.251184 255.688875 
L 296.469873 251.368875 
L 296.907252 260.008875 
L 297.344631 260.008875 
L 297.563321 264.328875 
L 301.937112 264.328875 
L 302.155801 268.648875 
L 305.654834 268.648875 
L 305.873523 277.288875 
L 306.529592 277.288875 
L 306.748281 281.608875 
L 307.623039 281.608875 
L 307.841729 285.928875 
L 309.372555 285.928875 
L 309.809935 294.568875 
L 312.215519 294.568875 
L 312.434209 298.888875 
L 312.652898 298.888875 
L 312.871588 303.208875 
L 397.504435 303.208875 
L 397.504435 303.208875 
" style="fill:none;stroke:#0000ff;stroke-linecap:square;stroke-width:1.5;"/>
   </g>
   <g id="line2d_33">
    <path clip-path="url(#pf61831ec82)" d="M 40.603125 303.208875 
L 69.688832 303.208875 
L 69.907522 298.888875 
L 70.78228 298.888875 
L 71.000969 294.568875 
L 71.438349 294.568875 
L 71.657038 290.248875 
L 72.313107 290.248875 
L 72.531796 285.928875 
L 72.969175 285.928875 
L 73.187865 281.608875 
L 74.062623 281.608875 
L 74.500002 268.648875 
L 74.937381 268.648875 
L 75.15607 264.328875 
L 75.37476 264.328875 
L 75.59345 260.008875 
L 75.812139 247.048875 
L 76.030829 247.048875 
L 76.468208 255.688875 
L 76.905587 255.688875 
L 77.124276 260.008875 
L 77.342966 260.008875 
L 77.561655 264.328875 
L 78.436413 264.328875 
L 78.873792 272.968875 
L 79.529861 272.968875 
L 79.748551 268.648875 
L 79.96724 268.648875 
L 80.18593 272.968875 
L 80.841998 272.968875 
L 81.279377 281.608875 
L 81.716756 281.608875 
L 82.154135 290.248875 
L 82.810204 290.248875 
L 83.028894 294.568875 
L 83.247583 294.568875 
L 83.684962 303.208875 
L 109.709016 303.208875 
L 109.927706 298.888875 
L 110.802464 298.888875 
L 111.458532 285.928875 
L 112.770669 285.928875 
L 112.989359 281.608875 
L 113.208048 281.608875 
L 114.082807 251.368875 
L 114.301496 247.048875 
L 114.520186 251.368875 
L 114.957565 242.728875 
L 115.176254 242.728875 
L 115.394944 238.408875 
L 115.832323 238.408875 
L 116.269702 225.448875 
L 117.363149 225.448875 
L 118.019218 238.408875 
L 118.237908 238.408875 
L 118.456597 251.368875 
L 118.675287 255.688875 
L 119.331355 255.688875 
L 119.550045 260.008875 
L 119.768734 268.648875 
L 119.987424 264.328875 
L 120.206113 264.328875 
L 120.643492 277.288875 
L 120.862182 277.288875 
L 121.080871 281.608875 
L 121.518251 281.608875 
L 121.73694 290.248875 
L 121.95563 290.248875 
L 122.393009 298.888875 
L 122.611698 298.888875 
L 122.830388 303.208875 
L 126.54811 303.208875 
L 127.204178 290.248875 
L 127.641557 290.248875 
L 128.078936 281.608875 
L 129.172384 281.608875 
L 129.391074 272.968875 
L 129.828453 272.968875 
L 130.047142 277.288875 
L 130.703211 277.288875 
L 131.359279 264.328875 
L 133.108796 264.328875 
L 133.327485 260.008875 
L 133.546175 264.328875 
L 133.764864 264.328875 
L 133.983554 260.008875 
L 134.202243 260.008875 
L 134.420933 264.328875 
L 134.639622 272.968875 
L 135.077001 272.968875 
L 135.295691 264.328875 
L 135.51438 264.328875 
L 135.73307 255.688875 
L 135.951759 260.008875 
L 137.045207 260.008875 
L 137.263897 255.688875 
L 137.482586 255.688875 
L 137.919965 264.328875 
L 138.357344 264.328875 
L 138.576034 255.688875 
L 139.013413 264.328875 
L 139.232102 264.328875 
L 139.450792 260.008875 
L 139.888171 260.008875 
L 140.10686 255.688875 
L 140.54424 255.688875 
L 140.762929 251.368875 
L 140.981619 255.688875 
L 141.200308 251.368875 
L 141.418998 255.688875 
L 141.856377 247.048875 
L 142.075066 247.048875 
L 142.293756 242.728875 
L 142.731135 242.728875 
L 142.949824 247.048875 
L 143.168514 247.048875 
L 143.387203 251.368875 
L 143.605893 247.048875 
L 143.824582 247.048875 
L 144.480651 234.088875 
L 144.699341 238.408875 
L 145.13672 238.408875 
L 145.355409 242.728875 
L 146.011478 242.728875 
L 146.230167 247.048875 
L 146.448857 247.048875 
L 146.667546 255.688875 
L 147.323615 255.688875 
L 147.542304 251.368875 
L 147.979683 251.368875 
L 148.417063 260.008875 
L 148.854442 260.008875 
L 149.073131 268.648875 
L 149.291821 268.648875 
L 149.51051 272.968875 
L 150.385268 272.968875 
L 150.603958 281.608875 
L 150.822647 281.608875 
L 151.041337 285.928875 
L 151.260026 285.928875 
L 151.478716 290.248875 
L 151.916095 290.248875 
L 152.353474 298.888875 
L 154.10299 298.888875 
L 154.32168 303.208875 
L 170.067326 303.208875 
L 170.286015 298.888875 
L 171.379463 298.888875 
L 171.598153 294.568875 
L 173.347669 294.568875 
L 173.566358 290.248875 
L 174.222427 290.248875 
L 174.441116 285.928875 
L 174.878495 285.928875 
L 175.097185 281.608875 
L 175.753254 281.608875 
L 175.971943 277.288875 
L 176.846701 277.288875 
L 177.065391 281.608875 
L 177.28408 277.288875 
L 178.377528 277.288875 
L 178.596217 268.648875 
L 179.252286 268.648875 
L 179.470976 264.328875 
L 179.908355 264.328875 
L 180.127044 260.008875 
L 180.345734 251.368875 
L 181.220492 251.368875 
L 181.657871 264.328875 
L 182.09525 255.688875 
L 182.313939 255.688875 
L 182.532629 260.008875 
L 183.188698 260.008875 
L 183.407387 255.688875 
L 184.063456 255.688875 
L 184.719524 242.728875 
L 185.156903 242.728875 
L 185.375593 247.048875 
L 185.812972 247.048875 
L 186.031661 242.728875 
L 186.46904 251.368875 
L 186.68773 247.048875 
L 186.90642 247.048875 
L 187.125109 242.728875 
L 187.343799 242.728875 
L 187.562488 247.048875 
L 187.781178 247.048875 
L 188.218557 238.408875 
L 188.437246 242.728875 
L 188.655936 242.728875 
L 188.874625 238.408875 
L 189.312004 238.408875 
L 189.530694 234.088875 
L 189.749383 234.088875 
L 189.968073 225.448875 
L 190.405452 234.088875 
L 190.624142 234.088875 
L 190.842831 229.768875 
L 192.592347 229.768875 
L 192.811037 225.448875 
L 193.248416 225.448875 
L 193.467105 221.128875 
L 193.685795 225.448875 
L 193.904484 225.448875 
L 194.123174 229.768875 
L 194.779243 229.768875 
L 194.997932 234.088875 
L 195.216622 229.768875 
L 201.995997 229.768875 
L 202.214687 225.448875 
L 202.433376 229.768875 
L 202.870755 229.768875 
L 203.089445 225.448875 
L 203.308134 229.768875 
L 203.526824 229.768875 
L 203.745513 234.088875 
L 204.182892 234.088875 
L 204.620271 225.448875 
L 204.838961 229.768875 
L 205.495029 229.768875 
L 205.932409 238.408875 
L 206.588477 238.408875 
L 206.807167 229.768875 
L 207.681925 229.768875 
L 207.900614 242.728875 
L 208.119304 238.408875 
L 208.994062 238.408875 
L 209.431441 229.768875 
L 210.08751 242.728875 
L 210.306199 242.728875 
L 210.524889 238.408875 
L 212.274405 238.408875 
L 212.493094 242.728875 
L 212.711784 242.728875 
L 212.930473 234.088875 
L 213.149163 234.088875 
L 213.367852 238.408875 
L 214.67999 238.408875 
L 214.898679 234.088875 
L 215.554748 234.088875 
L 215.773437 238.408875 
L 216.648195 238.408875 
L 216.866885 234.088875 
L 217.960333 234.088875 
L 218.179022 238.408875 
L 218.616401 238.408875 
L 218.835091 234.088875 
L 220.365917 234.088875 
L 220.584607 238.408875 
L 220.803296 234.088875 
L 222.990192 234.088875 
L 223.208881 238.408875 
L 223.427571 234.088875 
L 224.739708 234.088875 
L 224.958398 238.408875 
L 225.177087 238.408875 
L 225.395777 234.088875 
L 225.614466 238.408875 
L 225.833156 234.088875 
L 226.707914 234.088875 
L 226.926603 238.408875 
L 227.145293 238.408875 
L 227.363982 229.768875 
L 227.801361 229.768875 
L 228.020051 234.088875 
L 228.676119 234.088875 
L 228.894809 238.408875 
L 229.113499 238.408875 
L 229.332188 229.768875 
L 229.988257 229.768875 
L 230.206946 234.088875 
L 230.425636 234.088875 
L 230.644325 229.768875 
L 230.863015 238.408875 
L 231.300394 229.768875 
L 232.175152 229.768875 
L 232.393841 234.088875 
L 233.2686 234.088875 
L 233.487289 229.768875 
L 233.705979 229.768875 
L 234.143358 238.408875 
L 234.580737 229.768875 
L 234.799426 234.088875 
L 235.236805 234.088875 
L 235.455495 229.768875 
L 235.674184 229.768875 
L 235.892874 238.408875 
L 236.548943 238.408875 
L 236.767632 229.768875 
L 236.986322 234.088875 
L 237.205011 234.088875 
L 237.423701 229.768875 
L 237.64239 229.768875 
L 238.079769 242.728875 
L 238.298459 242.728875 
L 238.517148 238.408875 
L 238.954527 238.408875 
L 239.173217 229.768875 
L 239.610596 229.768875 
L 240.047975 242.728875 
L 240.266664 238.408875 
L 240.704044 238.408875 
L 240.922733 234.088875 
L 241.141423 238.408875 
L 241.360112 238.408875 
L 241.578802 234.088875 
L 242.016181 242.728875 
L 242.23487 238.408875 
L 242.890939 238.408875 
L 243.109628 234.088875 
L 243.328318 234.088875 
L 243.547007 229.768875 
L 243.765697 229.768875 
L 244.203076 238.408875 
L 245.077834 238.408875 
L 245.515213 229.768875 
L 245.952592 229.768875 
L 246.389971 238.408875 
L 247.04604 238.408875 
L 247.264729 234.088875 
L 247.483419 234.088875 
L 247.702108 229.768875 
L 247.920798 229.768875 
L 248.139488 234.088875 
L 248.576867 234.088875 
L 248.795556 242.728875 
L 249.232935 242.728875 
L 249.451625 238.408875 
L 249.670314 238.408875 
L 249.889004 234.088875 
L 250.545072 234.088875 
L 250.763762 238.408875 
L 250.982451 238.408875 
L 251.201141 242.728875 
L 251.63852 242.728875 
L 252.075899 234.088875 
L 252.513278 234.088875 
L 252.731968 238.408875 
L 252.950657 238.408875 
L 253.169347 242.728875 
L 254.044105 242.728875 
L 254.481484 234.088875 
L 254.700173 238.408875 
L 254.918863 238.408875 
L 255.137552 242.728875 
L 255.356242 238.408875 
L 255.793621 238.408875 
L 256.012311 242.728875 
L 256.44969 242.728875 
L 256.668379 238.408875 
L 258.199206 238.408875 
L 258.417895 234.088875 
L 258.636585 238.408875 
L 258.855274 238.408875 
L 259.073964 234.088875 
L 259.511343 234.088875 
L 259.730033 238.408875 
L 260.82348 238.408875 
L 261.04217 234.088875 
L 261.479549 234.088875 
L 261.698238 238.408875 
L 261.916928 234.088875 
L 262.135617 234.088875 
L 262.354307 238.408875 
L 263.010375 238.408875 
L 263.229065 234.088875 
L 263.447755 234.088875 
L 263.666444 238.408875 
L 264.103823 238.408875 
L 264.322513 234.088875 
L 264.541202 238.408875 
L 267.384166 238.408875 
L 267.602856 242.728875 
L 267.821545 238.408875 
L 268.258924 238.408875 
L 268.477614 242.728875 
L 268.696303 238.408875 
L 269.571061 238.408875 
L 269.789751 242.728875 
L 270.664509 242.728875 
L 270.883198 238.408875 
L 271.539267 238.408875 
L 271.757957 242.728875 
L 273.070094 242.728875 
L 273.288783 238.408875 
L 273.507473 238.408875 
L 273.726162 242.728875 
L 274.163541 242.728875 
L 274.382231 247.048875 
L 274.60092 247.048875 
L 274.81961 242.728875 
L 275.256989 242.728875 
L 275.475679 238.408875 
L 275.694368 242.728875 
L 275.913058 242.728875 
L 276.131747 247.048875 
L 276.787816 247.048875 
L 277.006505 242.728875 
L 278.099953 242.728875 
L 278.318642 247.048875 
L 279.193401 247.048875 
L 279.41209 242.728875 
L 279.63078 242.728875 
L 279.849469 247.048875 
L 286.410155 247.048875 
L 286.847534 255.688875 
L 287.284913 255.688875 
L 287.503603 251.368875 
L 297.78201 251.368875 
L 298.21939 242.728875 
L 304.342696 242.728875 
L 304.561386 238.408875 
L 312.434209 238.408875 
L 312.652898 234.088875 
L 315.495862 234.088875 
L 315.714552 238.408875 
L 322.712617 238.408875 
L 322.931306 234.088875 
L 324.462133 234.088875 
L 324.680822 238.408875 
L 324.899512 238.408875 
L 325.118202 234.088875 
L 325.336891 242.728875 
L 333.647093 242.728875 
L 333.865783 238.408875 
L 335.615299 238.408875 
L 335.833988 242.728875 
L 341.082537 242.728875 
L 341.301227 247.048875 
L 342.394674 247.048875 
L 342.613364 251.368875 
L 347.643223 251.368875 
L 347.861913 247.048875 
L 350.048808 247.048875 
L 350.267497 242.728875 
L 352.235703 242.728875 
L 352.454393 238.408875 
L 353.76653 238.408875 
L 353.985219 242.728875 
L 358.796389 242.728875 
L 359.015078 238.408875 
L 359.452458 238.408875 
L 359.671147 234.088875 
L 364.919696 234.088875 
L 365.138385 229.768875 
L 365.575764 229.768875 
L 365.794454 234.088875 
L 366.887901 234.088875 
L 367.106591 238.408875 
L 368.856107 238.408875 
L 369.074797 234.088875 
L 371.261692 234.088875 
L 371.480382 229.768875 
L 384.601753 229.768875 
L 384.820443 234.088875 
L 385.695201 234.088875 
L 385.91389 229.768875 
L 388.100786 229.768875 
L 388.319475 225.448875 
L 390.068992 225.448875 
L 390.287681 229.768875 
L 397.504435 229.768875 
L 397.504435 229.768875 
" style="fill:none;stroke:#ff0000;stroke-linecap:square;stroke-width:1.5;"/>
   </g>
   <g id="line2d_34">
    <path clip-path="url(#pf61831ec82)" d="M 40.603125 303.208875 
L 168.755189 303.208875 
L 168.973878 298.888875 
L 178.158838 298.888875 
L 178.377528 303.208875 
L 178.814907 303.208875 
L 179.033597 298.888875 
L 180.345734 298.888875 
L 180.564423 303.208875 
L 181.220492 303.208875 
L 181.439181 298.888875 
L 182.532629 298.888875 
L 182.751319 303.208875 
L 183.407387 303.208875 
L 183.626077 298.888875 
L 184.500835 298.888875 
L 184.719524 303.208875 
L 185.594282 303.208875 
L 185.812972 298.888875 
L 186.68773 298.888875 
L 186.90642 303.208875 
L 187.781178 303.208875 
L 187.999867 298.888875 
L 188.655936 298.888875 
L 188.874625 303.208875 
L 189.749383 303.208875 
L 189.968073 298.888875 
L 190.842831 298.888875 
L 191.061521 303.208875 
L 192.154968 303.208875 
L 192.373658 298.888875 
L 192.811037 298.888875 
L 193.029726 303.208875 
L 194.341864 303.208875 
L 194.560553 298.888875 
L 194.779243 298.888875 
L 194.997932 303.208875 
L 196.528759 303.208875 
L 196.747448 298.888875 
L 196.966138 303.208875 
L 397.504435 303.208875 
L 397.504435 303.208875 
" style="fill:none;stroke:#00ffff;stroke-linecap:square;stroke-width:1.5;"/>
   </g>
   <g id="line2d_35">
    <path clip-path="url(#pf61831ec82)" d="M 40.603125 303.208875 
L 105.335225 303.208875 
L 105.553915 298.888875 
L 105.991294 298.888875 
L 106.428673 285.928875 
L 106.647363 285.928875 
L 106.866052 281.608875 
L 108.178189 281.608875 
L 108.615568 290.248875 
L 109.709016 290.248875 
L 109.927706 298.888875 
L 111.895911 298.888875 
L 112.114601 303.208875 
L 113.208048 303.208875 
L 113.645428 294.568875 
L 113.864117 294.568875 
L 114.082807 290.248875 
L 114.738875 290.248875 
L 114.957565 285.928875 
L 115.176254 285.928875 
L 116.269702 238.408875 
L 116.92577 203.848875 
L 117.14446 199.528875 
L 117.363149 186.568875 
L 117.581839 186.568875 
L 117.800529 182.248875 
L 118.019218 173.608875 
L 118.237908 173.608875 
L 118.675287 164.968875 
L 118.893976 164.968875 
L 119.768734 113.128875 
L 119.987424 117.448875 
L 120.424803 91.528875 
L 120.643492 91.528875 
L 120.862182 82.888875 
L 121.299561 82.888875 
L 121.73694 95.848875 
L 121.95563 95.848875 
L 122.174319 100.168875 
L 122.611698 121.768875 
L 123.705146 169.288875 
L 124.142525 199.528875 
L 124.361214 203.848875 
L 124.798593 216.808875 
L 125.017283 216.808875 
L 125.235973 229.768875 
L 125.454662 234.088875 
L 125.673352 234.088875 
L 125.892041 242.728875 
L 126.110731 242.728875 
L 126.766799 285.928875 
L 126.985489 285.928875 
L 127.204178 290.248875 
L 127.641557 290.248875 
L 127.860247 294.568875 
L 128.297626 294.568875 
L 128.735005 303.208875 
L 193.904484 303.208875 
L 194.123174 298.888875 
L 194.341864 285.928875 
L 194.560553 285.928875 
L 194.779243 272.968875 
L 195.216622 264.328875 
L 195.654001 264.328875 
L 195.87269 260.008875 
L 196.310069 247.048875 
L 196.528759 247.048875 
L 196.966138 234.088875 
L 197.184827 229.768875 
L 197.403517 221.128875 
L 197.622206 221.128875 
L 197.840896 216.808875 
L 198.278275 190.888875 
L 198.496965 186.568875 
L 200.902549 91.528875 
L 201.121239 95.848875 
L 201.339928 95.848875 
L 201.558618 108.808875 
L 201.777307 113.128875 
L 201.995997 108.808875 
L 202.433376 117.448875 
L 202.652066 113.128875 
L 202.870755 117.448875 
L 203.308134 117.448875 
L 203.745513 126.088875 
L 203.964203 126.088875 
L 204.182892 139.048875 
L 204.620271 139.048875 
L 204.838961 143.368875 
L 207.025856 143.368875 
L 207.244546 147.688875 
L 208.556683 147.688875 
L 208.994062 156.328875 
L 209.212751 156.328875 
L 209.650131 147.688875 
L 209.86882 147.688875 
L 210.08751 143.368875 
L 210.524889 113.128875 
L 210.743578 113.128875 
L 210.962268 108.808875 
L 211.180957 100.168875 
L 211.837026 100.168875 
L 212.055715 113.128875 
L 212.274405 108.808875 
L 212.493094 113.128875 
L 212.711784 108.808875 
L 212.930473 100.168875 
L 213.149163 100.168875 
L 213.586542 91.528875 
L 214.023921 108.808875 
L 214.242611 104.488875 
L 214.4613 104.488875 
L 214.67999 108.808875 
L 214.898679 108.808875 
L 215.554748 87.208875 
L 215.992127 95.848875 
L 216.210816 95.848875 
L 216.866885 108.808875 
L 217.522954 95.848875 
L 217.741643 87.208875 
L 217.960333 91.528875 
L 218.179022 91.528875 
L 218.397712 87.208875 
L 218.616401 100.168875 
L 218.835091 95.848875 
L 219.05378 108.808875 
L 219.27247 104.488875 
L 219.491159 104.488875 
L 219.709849 87.208875 
L 219.928538 87.208875 
L 220.147228 91.528875 
L 220.365917 87.208875 
L 220.584607 91.528875 
L 220.803296 100.168875 
L 221.021986 95.848875 
L 221.240676 95.848875 
L 221.459365 100.168875 
L 221.678055 95.848875 
L 221.896744 82.888875 
L 222.115434 87.208875 
L 222.334123 87.208875 
L 222.552813 91.528875 
L 222.771502 91.528875 
L 222.990192 95.848875 
L 223.208881 91.528875 
L 223.427571 91.528875 
L 223.64626 95.848875 
L 223.86495 82.888875 
L 224.083639 82.888875 
L 224.302329 95.848875 
L 224.521018 91.528875 
L 225.177087 91.528875 
L 225.395777 87.208875 
L 225.614466 87.208875 
L 226.051845 78.568875 
L 226.489224 78.568875 
L 226.707914 69.928875 
L 226.926603 78.568875 
L 227.145293 78.568875 
L 227.363982 74.248875 
L 228.676119 74.248875 
L 229.113499 87.208875 
L 229.332188 87.208875 
L 229.769567 95.848875 
L 230.425636 95.848875 
L 230.644325 104.488875 
L 231.081704 104.488875 
L 231.300394 108.808875 
L 231.737773 121.768875 
L 231.956462 126.088875 
L 233.924668 126.088875 
L 234.143358 130.408875 
L 234.362047 139.048875 
L 234.580737 139.048875 
L 235.236805 113.128875 
L 235.455495 113.128875 
L 235.674184 91.528875 
L 236.330253 65.608875 
L 236.548943 69.928875 
L 236.767632 69.928875 
L 236.986322 74.248875 
L 237.205011 65.608875 
L 237.86108 78.568875 
L 238.954527 78.568875 
L 239.173217 82.888875 
L 239.610596 82.888875 
L 240.266664 104.488875 
L 240.704044 104.488875 
L 240.922733 113.128875 
L 241.360112 113.128875 
L 241.578802 117.448875 
L 242.23487 117.448875 
L 242.672249 126.088875 
L 243.109628 126.088875 
L 243.328318 130.408875 
L 243.547007 130.408875 
L 243.765697 139.048875 
L 244.421766 139.048875 
L 244.859145 147.688875 
L 245.296524 147.688875 
L 245.952592 117.448875 
L 246.389971 74.248875 
L 247.04604 61.288875 
L 247.264729 69.928875 
L 247.702108 69.928875 
L 247.920798 65.608875 
L 248.139488 65.608875 
L 248.358177 61.288875 
L 249.014246 61.288875 
L 249.232935 65.608875 
L 249.670314 65.608875 
L 249.889004 69.928875 
L 250.545072 91.528875 
L 250.763762 91.528875 
L 250.982451 95.848875 
L 251.63852 95.848875 
L 252.294589 117.448875 
L 252.731968 117.448875 
L 252.950657 126.088875 
L 253.169347 126.088875 
L 253.388036 130.408875 
L 253.825415 130.408875 
L 254.044105 134.728875 
L 254.700173 134.728875 
L 254.918863 139.048875 
L 255.137552 139.048875 
L 255.356242 143.368875 
L 255.574931 143.368875 
L 256.012311 134.728875 
L 256.668379 108.808875 
L 257.105758 82.888875 
L 257.324448 82.888875 
L 257.543137 78.568875 
L 257.761827 87.208875 
L 257.980516 78.568875 
L 258.199206 78.568875 
L 258.417895 87.208875 
L 258.636585 78.568875 
L 259.511343 78.568875 
L 259.730033 91.528875 
L 259.948722 95.848875 
L 260.167412 91.528875 
L 260.386101 82.888875 
L 260.604791 87.208875 
L 261.04217 87.208875 
L 261.260859 82.888875 
L 261.479549 74.248875 
L 261.916928 95.848875 
L 262.135617 91.528875 
L 262.354307 91.528875 
L 262.791686 82.888875 
L 263.010375 87.208875 
L 263.447755 87.208875 
L 263.666444 74.248875 
L 263.885134 95.848875 
L 264.103823 100.168875 
L 264.322513 91.528875 
L 264.541202 95.848875 
L 264.759892 82.888875 
L 264.978581 87.208875 
L 265.853339 87.208875 
L 266.072029 100.168875 
L 266.290718 95.848875 
L 266.509408 95.848875 
L 266.946787 82.888875 
L 267.165477 91.528875 
L 267.602856 82.888875 
L 268.040235 91.528875 
L 268.477614 91.528875 
L 268.696303 87.208875 
L 268.914993 91.528875 
L 269.133682 87.208875 
L 269.352372 91.528875 
L 269.789751 82.888875 
L 270.00844 82.888875 
L 270.22713 91.528875 
L 270.445819 91.528875 
L 270.664509 87.208875 
L 270.883198 87.208875 
L 271.101888 95.848875 
L 271.320578 87.208875 
L 271.539267 91.528875 
L 271.976646 82.888875 
L 272.195336 91.528875 
L 272.414025 91.528875 
L 272.632715 87.208875 
L 273.070094 87.208875 
L 273.288783 95.848875 
L 273.507473 91.528875 
L 273.726162 91.528875 
L 273.944852 87.208875 
L 274.163541 87.208875 
L 274.382231 95.848875 
L 274.60092 87.208875 
L 274.81961 91.528875 
L 275.0383 87.208875 
L 275.256989 87.208875 
L 275.475679 100.168875 
L 275.694368 95.848875 
L 275.913058 95.848875 
L 276.131747 91.528875 
L 276.350437 95.848875 
L 276.569126 91.528875 
L 276.787816 82.888875 
L 277.006505 91.528875 
L 277.225195 87.208875 
L 277.443884 91.528875 
L 277.881263 104.488875 
L 278.099953 100.168875 
L 278.318642 91.528875 
L 278.537332 95.848875 
L 278.974711 87.208875 
L 279.63078 100.168875 
L 280.068159 91.528875 
L 280.286848 95.848875 
L 282.036364 95.848875 
L 282.255054 100.168875 
L 285.535397 100.168875 
L 285.754086 95.848875 
L 289.034429 95.848875 
L 289.253119 100.168875 
L 289.471808 100.168875 
L 289.690498 95.848875 
L 290.783946 95.848875 
L 291.002635 87.208875 
L 291.658704 87.208875 
L 291.877393 82.888875 
L 296.907252 82.888875 
L 297.125942 87.208875 
L 299.094148 87.208875 
L 299.312837 91.528875 
L 300.624974 91.528875 
L 300.843664 87.208875 
L 306.310902 87.208875 
L 306.529592 82.888875 
L 308.935176 82.888875 
L 309.153866 78.568875 
L 309.591245 78.568875 
L 309.809935 74.248875 
L 310.028624 78.568875 
L 313.090277 78.568875 
L 313.308967 82.888875 
L 314.621104 82.888875 
L 314.839794 87.208875 
L 318.120137 87.208875 
L 318.338826 82.888875 
L 319.650963 82.888875 
L 319.869653 87.208875 
L 322.056548 87.208875 
L 322.275238 82.888875 
L 329.273303 82.888875 
L 329.929371 69.928875 
L 333.428404 69.928875 
L 333.647093 74.248875 
L 334.521851 74.248875 
L 334.740541 78.568875 
L 334.95923 78.568875 
L 335.17792 74.248875 
L 336.271367 74.248875 
L 336.490057 78.568875 
L 338.020884 78.568875 
L 338.239573 74.248875 
L 344.800259 74.248875 
L 345.018949 69.928875 
L 346.112396 69.928875 
L 346.331086 65.608875 
L 349.17405 65.608875 
L 349.392739 69.928875 
L 349.830118 69.928875 
L 350.048808 74.248875 
L 355.734736 74.248875 
L 355.953425 78.568875 
L 357.484252 78.568875 
L 357.702941 82.888875 
L 369.512176 82.888875 
L 369.730865 78.568875 
L 372.13645 78.568875 
L 372.35514 82.888875 
L 373.448587 82.888875 
L 373.667277 87.208875 
L 376.291551 87.208875 
L 376.510241 91.528875 
L 376.72893 91.528875 
L 376.94762 87.208875 
L 377.166309 87.208875 
L 377.384999 91.528875 
L 382.852237 91.528875 
L 383.070927 87.208875 
L 383.289616 87.208875 
L 383.508306 82.888875 
L 387.007338 82.888875 
L 387.226028 87.208875 
L 393.568024 87.208875 
L 393.786713 91.528875 
L 394.224093 91.528875 
L 394.442782 95.848875 
L 394.661472 95.848875 
L 394.880161 100.168875 
L 395.098851 100.168875 
L 395.31754 104.488875 
L 397.504435 104.488875 
L 397.504435 104.488875 
" style="fill:none;stroke:#ff00ff;stroke-linecap:square;stroke-width:1.5;"/>
   </g>
   <g id="line2d_36">
    <path clip-path="url(#pf61831ec82)" d="M 40.603125 303.208875 
L 171.160773 303.208875 
L 171.379463 298.888875 
L 180.783113 298.888875 
L 181.001802 303.208875 
L 181.220492 303.208875 
L 181.439181 298.888875 
L 182.970008 298.888875 
L 183.188698 303.208875 
L 183.407387 303.208875 
L 183.626077 298.888875 
L 185.156903 298.888875 
L 185.375593 303.208875 
L 185.594282 303.208875 
L 185.812972 298.888875 
L 187.125109 298.888875 
L 187.343799 303.208875 
L 187.781178 303.208875 
L 187.999867 298.888875 
L 189.312004 298.888875 
L 189.530694 303.208875 
L 189.749383 303.208875 
L 189.968073 298.888875 
L 191.28021 298.888875 
L 191.4989 303.208875 
L 191.936279 303.208875 
L 192.154968 298.888875 
L 193.467105 298.888875 
L 193.685795 303.208875 
L 194.341864 303.208875 
L 194.560553 298.888875 
L 195.435311 298.888875 
L 195.654001 303.208875 
L 196.528759 303.208875 
L 196.747448 298.888875 
L 197.403517 298.888875 
L 197.622206 303.208875 
L 198.715654 303.208875 
L 198.934344 298.888875 
L 199.590412 298.888875 
L 199.809102 303.208875 
L 200.902549 303.208875 
L 201.121239 298.888875 
L 201.558618 298.888875 
L 201.777307 303.208875 
L 202.870755 303.208875 
L 203.089445 298.888875 
L 203.745513 298.888875 
L 203.964203 303.208875 
L 205.05765 303.208875 
L 205.27634 298.888875 
L 205.932409 298.888875 
L 206.151098 303.208875 
L 207.244546 303.208875 
L 207.463235 298.888875 
L 208.119304 298.888875 
L 208.337993 303.208875 
L 209.431441 303.208875 
L 209.650131 298.888875 
L 210.08751 298.888875 
L 210.306199 303.208875 
L 211.399647 303.208875 
L 211.618336 298.888875 
L 212.274405 298.888875 
L 212.493094 303.208875 
L 213.586542 303.208875 
L 213.805232 298.888875 
L 214.4613 298.888875 
L 214.67999 303.208875 
L 215.773437 303.208875 
L 215.992127 298.888875 
L 216.648195 298.888875 
L 216.866885 303.208875 
L 217.960333 303.208875 
L 218.179022 298.888875 
L 218.616401 298.888875 
L 218.835091 303.208875 
L 219.928538 303.208875 
L 220.147228 298.888875 
L 220.803296 298.888875 
L 221.021986 303.208875 
L 222.115434 303.208875 
L 222.334123 298.888875 
L 222.990192 298.888875 
L 223.208881 303.208875 
L 224.302329 303.208875 
L 224.521018 298.888875 
L 225.177087 298.888875 
L 225.395777 303.208875 
L 226.489224 303.208875 
L 226.707914 298.888875 
L 227.363982 298.888875 
L 227.582672 303.208875 
L 228.676119 303.208875 
L 228.894809 298.888875 
L 229.332188 298.888875 
L 229.550878 303.208875 
L 230.644325 303.208875 
L 230.863015 298.888875 
L 231.519083 298.888875 
L 231.737773 303.208875 
L 232.831221 303.208875 
L 233.04991 298.888875 
L 233.705979 298.888875 
L 233.924668 303.208875 
L 235.018116 303.208875 
L 235.236805 298.888875 
L 235.674184 298.888875 
L 235.892874 303.208875 
L 237.205011 303.208875 
L 237.423701 298.888875 
L 237.64239 298.888875 
L 237.86108 303.208875 
L 239.610596 303.208875 
L 239.829285 298.888875 
L 240.047975 303.208875 
L 397.504435 303.208875 
L 397.504435 303.208875 
" style="fill:none;stroke:#000000;stroke-linecap:square;stroke-width:1.5;"/>
   </g>
   <g id="patch_3">
    <path d="M 40.603125 315.304875 
L 40.603125 49.192875 
" style="fill:none;stroke:#000000;stroke-linecap:square;stroke-linejoin:miter;stroke-width:0.8;"/>
   </g>
   <g id="patch_4">
    <path d="M 397.723125 315.304875 
L 397.723125 49.192875 
" style="fill:none;stroke:#000000;stroke-linecap:square;stroke-linejoin:miter;stroke-width:0.8;"/>
   </g>
   <g id="patch_5">
    <path d="M 40.603125 315.304875 
L 397.723125 315.304875 
" style="fill:none;stroke:#000000;stroke-linecap:square;stroke-linejoin:miter;stroke-width:0.8;"/>
   </g>
   <g id="patch_6">
    <path d="M 40.603125 49.192875 
L 397.723125 49.192875 
" style="fill:none;stroke:#000000;stroke-linecap:square;stroke-linejoin:miter;stroke-width:0.8;"/>
   </g>
   <g id="text_18">
    <!-- Discovered nodes per time -->
    <defs>
     <path d="M 54.890625 33.015625 
L 54.890625 0 
L 45.90625 0 
L 45.90625 32.71875 
Q 45.90625 40.484375 42.875 44.328125 
Q 39.84375 48.1875 33.796875 48.1875 
Q 26.515625 48.1875 22.3125 43.546875 
Q 18.109375 38.921875 18.109375 30.90625 
L 18.109375 0 
L 9.078125 0 
L 9.078125 54.6875 
L 18.109375 54.6875 
L 18.109375 46.1875 
Q 21.34375 51.125 25.703125 53.5625 
Q 30.078125 56 35.796875 56 
Q 45.21875 56 50.046875 50.171875 
Q 54.890625 44.34375 54.890625 33.015625 
z
" id="DejaVuSans-6e"/>
     <path d="M 18.109375 8.203125 
L 18.109375 -20.796875 
L 9.078125 -20.796875 
L 9.078125 54.6875 
L 18.109375 54.6875 
L 18.109375 46.390625 
Q 20.953125 51.265625 25.265625 53.625 
Q 29.59375 56 35.59375 56 
Q 45.5625 56 51.78125 48.09375 
Q 58.015625 40.1875 58.015625 27.296875 
Q 58.015625 14.40625 51.78125 6.484375 
Q 45.5625 -1.421875 35.59375 -1.421875 
Q 29.59375 -1.421875 25.265625 0.953125 
Q 20.953125 3.328125 18.109375 8.203125 
z
M 48.6875 27.296875 
Q 48.6875 37.203125 44.609375 42.84375 
Q 40.53125 48.484375 33.40625 48.484375 
Q 26.265625 48.484375 22.1875 42.84375 
Q 18.109375 37.203125 18.109375 27.296875 
Q 18.109375 17.390625 22.1875 11.75 
Q 26.265625 6.109375 33.40625 6.109375 
Q 40.53125 6.109375 44.609375 11.75 
Q 48.6875 17.390625 48.6875 27.296875 
z
" id="DejaVuSans-70"/>
     <path d="M 18.3125 70.21875 
L 18.3125 54.6875 
L 36.8125 54.6875 
L 36.8125 47.703125 
L 18.3125 47.703125 
L 18.3125 18.015625 
Q 18.3125 11.328125 20.140625 9.421875 
Q 21.96875 7.515625 27.59375 7.515625 
L 36.8125 7.515625 
L 36.8125 0 
L 27.59375 0 
Q 17.1875 0 13.234375 3.875 
Q 9.28125 7.765625 9.28125 18.015625 
L 9.28125 47.703125 
L 2.6875 47.703125 
L 2.6875 54.6875 
L 9.28125 54.6875 
L 9.28125 70.21875 
z
" id="DejaVuSans-74"/>
    </defs>
    <g transform="translate(138.227813 16.318125)scale(0.12 -0.12)">
     <use xlink:href="#DejaVuSans-44"/>
     <use x="77.001953" xlink:href="#DejaVuSans-69"/>
     <use x="104.785156" xlink:href="#DejaVuSans-73"/>
     <use x="156.884766" xlink:href="#DejaVuSans-63"/>
     <use x="211.865234" xlink:href="#DejaVuSans-6f"/>
     <use x="273.046875" xlink:href="#DejaVuSans-76"/>
     <use x="332.226562" xlink:href="#DejaVuSans-65"/>
     <use x="393.75" xlink:href="#DejaVuSans-72"/>
     <use x="434.832031" xlink:href="#DejaVuSans-65"/>
     <use x="496.355469" xlink:href="#DejaVuSans-64"/>
     <use x="559.832031" xlink:href="#DejaVuSans-20"/>
     <use x="591.619141" xlink:href="#DejaVuSans-6e"/>
     <use x="654.998047" xlink:href="#DejaVuSans-6f"/>
     <use x="716.179688" xlink:href="#DejaVuSans-64"/>
     <use x="779.65625" xlink:href="#DejaVuSans-65"/>
     <use x="841.179688" xlink:href="#DejaVuSans-73"/>
     <use x="893.279297" xlink:href="#DejaVuSans-20"/>
     <use x="925.066406" xlink:href="#DejaVuSans-70"/>
     <use x="988.542969" xlink:href="#DejaVuSans-65"/>
     <use x="1050.066406" xlink:href="#DejaVuSans-72"/>
     <use x="1091.179688" xlink:href="#DejaVuSans-20"/>
     <use x="1122.966797" xlink:href="#DejaVuSans-74"/>
     <use x="1162.175781" xlink:href="#DejaVuSans-69"/>
     <use x="1189.958984" xlink:href="#DejaVuSans-6d"/>
     <use x="1287.371094" xlink:href="#DejaVuSans-65"/>
    </g>
    <!--  -->
    <g transform="translate(219.163125 29.7555)scale(0.12 -0.12)"/>
    <!--  -->
    <g transform="translate(219.163125 43.192875)scale(0.12 -0.12)"/>
   </g>
   <g id="legend_1">
    <g id="patch_7">
     <path d="M 411.865525 139.939385 
L 482.471775 139.939385 
Q 484.471775 139.939385 484.471775 137.939385 
L 484.471775 50.870635 
Q 484.471775 48.870635 482.471775 48.870635 
L 411.865525 48.870635 
Q 409.865525 48.870635 409.865525 50.870635 
L 409.865525 137.939385 
Q 409.865525 139.939385 411.865525 139.939385 
z
" style="fill:#ffffff;opacity:0.8;stroke:#cccccc;stroke-linejoin:miter;"/>
    </g>
    <g id="line2d_37">
     <path d="M 413.865525 56.969072 
L 433.865525 56.969072 
" style="fill:none;stroke:#008000;stroke-linecap:square;stroke-width:1.5;"/>
    </g>
    <g id="line2d_38"/>
    <g id="text_19">
     <!-- drone 0 -->
     <g transform="translate(441.865525 60.469072)scale(0.1 -0.1)">
      <use xlink:href="#DejaVuSans-64"/>
      <use x="63.476562" xlink:href="#DejaVuSans-72"/>
      <use x="104.558594" xlink:href="#DejaVuSans-6f"/>
      <use x="165.740234" xlink:href="#DejaVuSans-6e"/>
      <use x="229.119141" xlink:href="#DejaVuSans-65"/>
      <use x="290.642578" xlink:href="#DejaVuSans-20"/>
      <use x="322.429688" xlink:href="#DejaVuSans-30"/>
     </g>
    </g>
    <g id="line2d_39">
     <path d="M 413.865525 71.647197 
L 433.865525 71.647197 
" style="fill:none;stroke:#0000ff;stroke-linecap:square;stroke-width:1.5;"/>
    </g>
    <g id="line2d_40"/>
    <g id="text_20">
     <!-- drone 1 -->
     <g transform="translate(441.865525 75.147197)scale(0.1 -0.1)">
      <use xlink:href="#DejaVuSans-64"/>
      <use x="63.476562" xlink:href="#DejaVuSans-72"/>
      <use x="104.558594" xlink:href="#DejaVuSans-6f"/>
      <use x="165.740234" xlink:href="#DejaVuSans-6e"/>
      <use x="229.119141" xlink:href="#DejaVuSans-65"/>
      <use x="290.642578" xlink:href="#DejaVuSans-20"/>
      <use x="322.429688" xlink:href="#DejaVuSans-31"/>
     </g>
    </g>
    <g id="line2d_41">
     <path d="M 413.865525 86.325322 
L 433.865525 86.325322 
" style="fill:none;stroke:#ff0000;stroke-linecap:square;stroke-width:1.5;"/>
    </g>
    <g id="line2d_42"/>
    <g id="text_21">
     <!-- drone 2 -->
     <g transform="translate(441.865525 89.825322)scale(0.1 -0.1)">
      <use xlink:href="#DejaVuSans-64"/>
      <use x="63.476562" xlink:href="#DejaVuSans-72"/>
      <use x="104.558594" xlink:href="#DejaVuSans-6f"/>
      <use x="165.740234" xlink:href="#DejaVuSans-6e"/>
      <use x="229.119141" xlink:href="#DejaVuSans-65"/>
      <use x="290.642578" xlink:href="#DejaVuSans-20"/>
      <use x="322.429688" xlink:href="#DejaVuSans-32"/>
     </g>
    </g>
    <g id="line2d_43">
     <path d="M 413.865525 101.003447 
L 433.865525 101.003447 
" style="fill:none;stroke:#00ffff;stroke-linecap:square;stroke-width:1.5;"/>
    </g>
    <g id="line2d_44"/>
    <g id="text_22">
     <!-- drone 3 -->
     <g transform="translate(441.865525 104.503447)scale(0.1 -0.1)">
      <use xlink:href="#DejaVuSans-64"/>
      <use x="63.476562" xlink:href="#DejaVuSans-72"/>
      <use x="104.558594" xlink:href="#DejaVuSans-6f"/>
      <use x="165.740234" xlink:href="#DejaVuSans-6e"/>
      <use x="229.119141" xlink:href="#DejaVuSans-65"/>
      <use x="290.642578" xlink:href="#DejaVuSans-20"/>
      <use x="322.429688" xlink:href="#DejaVuSans-33"/>
     </g>
    </g>
    <g id="line2d_45">
     <path d="M 413.865525 115.681572 
L 433.865525 115.681572 
" style="fill:none;stroke:#ff00ff;stroke-linecap:square;stroke-width:1.5;"/>
    </g>
    <g id="line2d_46"/>
    <g id="text_23">
     <!-- drone 4 -->
     <g transform="translate(441.865525 119.181572)scale(0.1 -0.1)">
      <use xlink:href="#DejaVuSans-64"/>
      <use x="63.476562" xlink:href="#DejaVuSans-72"/>
      <use x="104.558594" xlink:href="#DejaVuSans-6f"/>
      <use x="165.740234" xlink:href="#DejaVuSans-6e"/>
      <use x="229.119141" xlink:href="#DejaVuSans-65"/>
      <use x="290.642578" xlink:href="#DejaVuSans-20"/>
      <use x="322.429688" xlink:href="#DejaVuSans-34"/>
     </g>
    </g>
    <g id="line2d_47">
     <path d="M 413.865525 130.359697 
L 433.865525 130.359697 
" style="fill:none;stroke:#000000;stroke-linecap:square;stroke-width:1.5;"/>
    </g>
    <g id="line2d_48"/>
    <g id="text_24">
     <!-- drone 5 -->
     <g transform="translate(441.865525 133.859697)scale(0.1 -0.1)">
      <use xlink:href="#DejaVuSans-64"/>
      <use x="63.476562" xlink:href="#DejaVuSans-72"/>
      <use x="104.558594" xlink:href="#DejaVuSans-6f"/>
      <use x="165.740234" xlink:href="#DejaVuSans-6e"/>
      <use x="229.119141" xlink:href="#DejaVuSans-65"/>
      <use x="290.642578" xlink:href="#DejaVuSans-20"/>
      <use x="322.429688" xlink:href="#DejaVuSans-35"/>
     </g>
    </g>
   </g>
  </g>
 </g>
 <defs>
  <clipPath id="pf61831ec82">
   <rect height="266.112" width="357.12" x="40.603125" y="49.192875"/>
  </clipPath>
 </defs>
</svg>
