<?xml version="1.0" encoding="utf-8" standalone="no"?>
<!DOCTYPE svg PUBLIC "-//W3C//DTD SVG 1.1//EN"
  "http://www.w3.org/Graphics/SVG/1.1/DTD/svg11.dtd">
<!-- Created with matplotlib (http://matplotlib.org/) -->
<svg height="352pt" version="1.1" viewBox="0 0 491 352" width="491pt" xmlns="http://www.w3.org/2000/svg" xmlns:xlink="http://www.w3.org/1999/xlink">
 <defs>
  <style type="text/css">
*{stroke-linecap:butt;stroke-linejoin:round;}
  </style>
 </defs>
 <g id="figure_1">
  <g id="patch_1">
   <path d="M 0 352.861125 
L 491.671775 352.861125 
L 491.671775 0 
L 0 0 
z
" style="fill:#ffffff;"/>
  </g>
  <g id="axes_1">
   <g id="patch_2">
    <path d="M 40.603125 315.304875 
L 397.723125 315.304875 
L 397.723125 49.192875 
L 40.603125 49.192875 
z
" style="fill:#ffffff;"/>
   </g>
   <g id="matplotlib.axis_1">
    <g id="xtick_1">
     <g id="line2d_1">
      <path clip-path="url(#p487e3a2c53)" d="M 40.603125 315.304875 
L 40.603125 49.192875 
" style="fill:none;stroke:#b0b0b0;stroke-linecap:square;stroke-width:0.8;"/>
     </g>
     <g id="line2d_2">
      <defs>
       <path d="M 0 0 
L 0 3.5 
" id="m06a778ab2d" style="stroke:#000000;stroke-width:0.8;"/>
      </defs>
      <g>
       <use style="stroke:#000000;stroke-width:0.8;" x="40.603125" xlink:href="#m06a778ab2d" y="315.304875"/>
      </g>
     </g>
     <g id="text_1">
      <!-- 0 -->
      <defs>
       <path d="M 31.78125 66.40625 
Q 24.171875 66.40625 20.328125 58.90625 
Q 16.5 51.421875 16.5 36.375 
Q 16.5 21.390625 20.328125 13.890625 
Q 24.171875 6.390625 31.78125 6.390625 
Q 39.453125 6.390625 43.28125 13.890625 
Q 47.125 21.390625 47.125 36.375 
Q 47.125 51.421875 43.28125 58.90625 
Q 39.453125 66.40625 31.78125 66.40625 
z
M 31.78125 74.21875 
Q 44.046875 74.21875 50.515625 64.515625 
Q 56.984375 54.828125 56.984375 36.375 
Q 56.984375 17.96875 50.515625 8.265625 
Q 44.046875 -1.421875 31.78125 -1.421875 
Q 19.53125 -1.421875 13.0625 8.265625 
Q 6.59375 17.96875 6.59375 36.375 
Q 6.59375 54.828125 13.0625 64.515625 
Q 19.53125 74.21875 31.78125 74.21875 
z
" id="DejaVuSans-30"/>
      </defs>
      <g transform="translate(37.421875 329.903312)scale(0.1 -0.1)">
       <use xlink:href="#DejaVuSans-30"/>
      </g>
     </g>
    </g>
    <g id="xtick_2">
     <g id="line2d_3">
      <path clip-path="url(#p487e3a2c53)" d="M 84.341031 315.304875 
L 84.341031 49.192875 
" style="fill:none;stroke:#b0b0b0;stroke-linecap:square;stroke-width:0.8;"/>
     </g>
     <g id="line2d_4">
      <g>
       <use style="stroke:#000000;stroke-width:0.8;" x="84.341031" xlink:href="#m06a778ab2d" y="315.304875"/>
      </g>
     </g>
     <g id="text_2">
      <!-- 200 -->
      <defs>
       <path d="M 19.1875 8.296875 
L 53.609375 8.296875 
L 53.609375 0 
L 7.328125 0 
L 7.328125 8.296875 
Q 12.9375 14.109375 22.625 23.890625 
Q 32.328125 33.6875 34.8125 36.53125 
Q 39.546875 41.84375 41.421875 45.53125 
Q 43.3125 49.21875 43.3125 52.78125 
Q 43.3125 58.59375 39.234375 62.25 
Q 35.15625 65.921875 28.609375 65.921875 
Q 23.96875 65.921875 18.8125 64.3125 
Q 13.671875 62.703125 7.8125 59.421875 
L 7.8125 69.390625 
Q 13.765625 71.78125 18.9375 73 
Q 24.125 74.21875 28.421875 74.21875 
Q 39.75 74.21875 46.484375 68.546875 
Q 53.21875 62.890625 53.21875 53.421875 
Q 53.21875 48.921875 51.53125 44.890625 
Q 49.859375 40.875 45.40625 35.40625 
Q 44.1875 33.984375 37.640625 27.21875 
Q 31.109375 20.453125 19.1875 8.296875 
z
" id="DejaVuSans-32"/>
      </defs>
      <g transform="translate(74.797281 329.903312)scale(0.1 -0.1)">
       <use xlink:href="#DejaVuSans-32"/>
       <use x="63.623047" xlink:href="#DejaVuSans-30"/>
       <use x="127.246094" xlink:href="#DejaVuSans-30"/>
      </g>
     </g>
    </g>
    <g id="xtick_3">
     <g id="line2d_5">
      <path clip-path="url(#p487e3a2c53)" d="M 128.078936 315.304875 
L 128.078936 49.192875 
" style="fill:none;stroke:#b0b0b0;stroke-linecap:square;stroke-width:0.8;"/>
     </g>
     <g id="line2d_6">
      <g>
       <use style="stroke:#000000;stroke-width:0.8;" x="128.078936" xlink:href="#m06a778ab2d" y="315.304875"/>
      </g>
     </g>
     <g id="text_3">
      <!-- 400 -->
      <defs>
       <path d="M 37.796875 64.3125 
L 12.890625 25.390625 
L 37.796875 25.390625 
z
M 35.203125 72.90625 
L 47.609375 72.90625 
L 47.609375 25.390625 
L 58.015625 25.390625 
L 58.015625 17.1875 
L 47.609375 17.1875 
L 47.609375 0 
L 37.796875 0 
L 37.796875 17.1875 
L 4.890625 17.1875 
L 4.890625 26.703125 
z
" id="DejaVuSans-34"/>
      </defs>
      <g transform="translate(118.535186 329.903312)scale(0.1 -0.1)">
       <use xlink:href="#DejaVuSans-34"/>
       <use x="63.623047" xlink:href="#DejaVuSans-30"/>
       <use x="127.246094" xlink:href="#DejaVuSans-30"/>
      </g>
     </g>
    </g>
    <g id="xtick_4">
     <g id="line2d_7">
      <path clip-path="url(#p487e3a2c53)" d="M 171.816842 315.304875 
L 171.816842 49.192875 
" style="fill:none;stroke:#b0b0b0;stroke-linecap:square;stroke-width:0.8;"/>
     </g>
     <g id="line2d_8">
      <g>
       <use style="stroke:#000000;stroke-width:0.8;" x="171.816842" xlink:href="#m06a778ab2d" y="315.304875"/>
      </g>
     </g>
     <g id="text_4">
      <!-- 600 -->
      <defs>
       <path d="M 33.015625 40.375 
Q 26.375 40.375 22.484375 35.828125 
Q 18.609375 31.296875 18.609375 23.390625 
Q 18.609375 15.53125 22.484375 10.953125 
Q 26.375 6.390625 33.015625 6.390625 
Q 39.65625 6.390625 43.53125 10.953125 
Q 47.40625 15.53125 47.40625 23.390625 
Q 47.40625 31.296875 43.53125 35.828125 
Q 39.65625 40.375 33.015625 40.375 
z
M 52.59375 71.296875 
L 52.59375 62.3125 
Q 48.875 64.0625 45.09375 64.984375 
Q 41.3125 65.921875 37.59375 65.921875 
Q 27.828125 65.921875 22.671875 59.328125 
Q 17.53125 52.734375 16.796875 39.40625 
Q 19.671875 43.65625 24.015625 45.921875 
Q 28.375 48.1875 33.59375 48.1875 
Q 44.578125 48.1875 50.953125 41.515625 
Q 57.328125 34.859375 57.328125 23.390625 
Q 57.328125 12.15625 50.6875 5.359375 
Q 44.046875 -1.421875 33.015625 -1.421875 
Q 20.359375 -1.421875 13.671875 8.265625 
Q 6.984375 17.96875 6.984375 36.375 
Q 6.984375 53.65625 15.1875 63.9375 
Q 23.390625 74.21875 37.203125 74.21875 
Q 40.921875 74.21875 44.703125 73.484375 
Q 48.484375 72.75 52.59375 71.296875 
z
" id="DejaVuSans-36"/>
      </defs>
      <g transform="translate(162.273092 329.903312)scale(0.1 -0.1)">
       <use xlink:href="#DejaVuSans-36"/>
       <use x="63.623047" xlink:href="#DejaVuSans-30"/>
       <use x="127.246094" xlink:href="#DejaVuSans-30"/>
      </g>
     </g>
    </g>
    <g id="xtick_5">
     <g id="line2d_9">
      <path clip-path="url(#p487e3a2c53)" d="M 215.554748 315.304875 
L 215.554748 49.192875 
" style="fill:none;stroke:#b0b0b0;stroke-linecap:square;stroke-width:0.8;"/>
     </g>
     <g id="line2d_10">
      <g>
       <use style="stroke:#000000;stroke-width:0.8;" x="215.554748" xlink:href="#m06a778ab2d" y="315.304875"/>
      </g>
     </g>
     <g id="text_5">
      <!-- 800 -->
      <defs>
       <path d="M 31.78125 34.625 
Q 24.75 34.625 20.71875 30.859375 
Q 16.703125 27.09375 16.703125 20.515625 
Q 16.703125 13.921875 20.71875 10.15625 
Q 24.75 6.390625 31.78125 6.390625 
Q 38.8125 6.390625 42.859375 10.171875 
Q 46.921875 13.96875 46.921875 20.515625 
Q 46.921875 27.09375 42.890625 30.859375 
Q 38.875 34.625 31.78125 34.625 
z
M 21.921875 38.8125 
Q 15.578125 40.375 12.03125 44.71875 
Q 8.5 49.078125 8.5 55.328125 
Q 8.5 64.0625 14.71875 69.140625 
Q 20.953125 74.21875 31.78125 74.21875 
Q 42.671875 74.21875 48.875 69.140625 
Q 55.078125 64.0625 55.078125 55.328125 
Q 55.078125 49.078125 51.53125 44.71875 
Q 48 40.375 41.703125 38.8125 
Q 48.828125 37.15625 52.796875 32.3125 
Q 56.78125 27.484375 56.78125 20.515625 
Q 56.78125 9.90625 50.3125 4.234375 
Q 43.84375 -1.421875 31.78125 -1.421875 
Q 19.734375 -1.421875 13.25 4.234375 
Q 6.78125 9.90625 6.78125 20.515625 
Q 6.78125 27.484375 10.78125 32.3125 
Q 14.796875 37.15625 21.921875 38.8125 
z
M 18.3125 54.390625 
Q 18.3125 48.734375 21.84375 45.5625 
Q 25.390625 42.390625 31.78125 42.390625 
Q 38.140625 42.390625 41.71875 45.5625 
Q 45.3125 48.734375 45.3125 54.390625 
Q 45.3125 60.0625 41.71875 63.234375 
Q 38.140625 66.40625 31.78125 66.40625 
Q 25.390625 66.40625 21.84375 63.234375 
Q 18.3125 60.0625 18.3125 54.390625 
z
" id="DejaVuSans-38"/>
      </defs>
      <g transform="translate(206.010998 329.903312)scale(0.1 -0.1)">
       <use xlink:href="#DejaVuSans-38"/>
       <use x="63.623047" xlink:href="#DejaVuSans-30"/>
       <use x="127.246094" xlink:href="#DejaVuSans-30"/>
      </g>
     </g>
    </g>
    <g id="xtick_6">
     <g id="line2d_11">
      <path clip-path="url(#p487e3a2c53)" d="M 259.292653 315.304875 
L 259.292653 49.192875 
" style="fill:none;stroke:#b0b0b0;stroke-linecap:square;stroke-width:0.8;"/>
     </g>
     <g id="line2d_12">
      <g>
       <use style="stroke:#000000;stroke-width:0.8;" x="259.292653" xlink:href="#m06a778ab2d" y="315.304875"/>
      </g>
     </g>
     <g id="text_6">
      <!-- 1000 -->
      <defs>
       <path d="M 12.40625 8.296875 
L 28.515625 8.296875 
L 28.515625 63.921875 
L 10.984375 60.40625 
L 10.984375 69.390625 
L 28.421875 72.90625 
L 38.28125 72.90625 
L 38.28125 8.296875 
L 54.390625 8.296875 
L 54.390625 0 
L 12.40625 0 
z
" id="DejaVuSans-31"/>
      </defs>
      <g transform="translate(246.567653 329.903312)scale(0.1 -0.1)">
       <use xlink:href="#DejaVuSans-31"/>
       <use x="63.623047" xlink:href="#DejaVuSans-30"/>
       <use x="127.246094" xlink:href="#DejaVuSans-30"/>
       <use x="190.869141" xlink:href="#DejaVuSans-30"/>
      </g>
     </g>
    </g>
    <g id="xtick_7">
     <g id="line2d_13">
      <path clip-path="url(#p487e3a2c53)" d="M 303.030559 315.304875 
L 303.030559 49.192875 
" style="fill:none;stroke:#b0b0b0;stroke-linecap:square;stroke-width:0.8;"/>
     </g>
     <g id="line2d_14">
      <g>
       <use style="stroke:#000000;stroke-width:0.8;" x="303.030559" xlink:href="#m06a778ab2d" y="315.304875"/>
      </g>
     </g>
     <g id="text_7">
      <!-- 1200 -->
      <g transform="translate(290.305559 329.903312)scale(0.1 -0.1)">
       <use xlink:href="#DejaVuSans-31"/>
       <use x="63.623047" xlink:href="#DejaVuSans-32"/>
       <use x="127.246094" xlink:href="#DejaVuSans-30"/>
       <use x="190.869141" xlink:href="#DejaVuSans-30"/>
      </g>
     </g>
    </g>
    <g id="xtick_8">
     <g id="line2d_15">
      <path clip-path="url(#p487e3a2c53)" d="M 346.768465 315.304875 
L 346.768465 49.192875 
" style="fill:none;stroke:#b0b0b0;stroke-linecap:square;stroke-width:0.8;"/>
     </g>
     <g id="line2d_16">
      <g>
       <use style="stroke:#000000;stroke-width:0.8;" x="346.768465" xlink:href="#m06a778ab2d" y="315.304875"/>
      </g>
     </g>
     <g id="text_8">
      <!-- 1400 -->
      <g transform="translate(334.043465 329.903312)scale(0.1 -0.1)">
       <use xlink:href="#DejaVuSans-31"/>
       <use x="63.623047" xlink:href="#DejaVuSans-34"/>
       <use x="127.246094" xlink:href="#DejaVuSans-30"/>
       <use x="190.869141" xlink:href="#DejaVuSans-30"/>
      </g>
     </g>
    </g>
    <g id="xtick_9">
     <g id="line2d_17">
      <path clip-path="url(#p487e3a2c53)" d="M 390.506371 315.304875 
L 390.506371 49.192875 
" style="fill:none;stroke:#b0b0b0;stroke-linecap:square;stroke-width:0.8;"/>
     </g>
     <g id="line2d_18">
      <g>
       <use style="stroke:#000000;stroke-width:0.8;" x="390.506371" xlink:href="#m06a778ab2d" y="315.304875"/>
      </g>
     </g>
     <g id="text_9">
      <!-- 1600 -->
      <g transform="translate(377.781371 329.903312)scale(0.1 -0.1)">
       <use xlink:href="#DejaVuSans-31"/>
       <use x="63.623047" xlink:href="#DejaVuSans-36"/>
       <use x="127.246094" xlink:href="#DejaVuSans-30"/>
       <use x="190.869141" xlink:href="#DejaVuSans-30"/>
      </g>
     </g>
    </g>
    <g id="text_10">
     <!-- Time(s) -->
     <defs>
      <path d="M -0.296875 72.90625 
L 61.375 72.90625 
L 61.375 64.59375 
L 35.5 64.59375 
L 35.5 0 
L 25.59375 0 
L 25.59375 64.59375 
L -0.296875 64.59375 
z
" id="DejaVuSans-54"/>
      <path d="M 9.421875 54.6875 
L 18.40625 54.6875 
L 18.40625 0 
L 9.421875 0 
z
M 9.421875 75.984375 
L 18.40625 75.984375 
L 18.40625 64.59375 
L 9.421875 64.59375 
z
" id="DejaVuSans-69"/>
      <path d="M 52 44.1875 
Q 55.375 50.25 60.0625 53.125 
Q 64.75 56 71.09375 56 
Q 79.640625 56 84.28125 50.015625 
Q 88.921875 44.046875 88.921875 33.015625 
L 88.921875 0 
L 79.890625 0 
L 79.890625 32.71875 
Q 79.890625 40.578125 77.09375 44.375 
Q 74.3125 48.1875 68.609375 48.1875 
Q 61.625 48.1875 57.5625 43.546875 
Q 53.515625 38.921875 53.515625 30.90625 
L 53.515625 0 
L 44.484375 0 
L 44.484375 32.71875 
Q 44.484375 40.625 41.703125 44.40625 
Q 38.921875 48.1875 33.109375 48.1875 
Q 26.21875 48.1875 22.15625 43.53125 
Q 18.109375 38.875 18.109375 30.90625 
L 18.109375 0 
L 9.078125 0 
L 9.078125 54.6875 
L 18.109375 54.6875 
L 18.109375 46.1875 
Q 21.1875 51.21875 25.484375 53.609375 
Q 29.78125 56 35.6875 56 
Q 41.65625 56 45.828125 52.96875 
Q 50 49.953125 52 44.1875 
z
" id="DejaVuSans-6d"/>
      <path d="M 56.203125 29.59375 
L 56.203125 25.203125 
L 14.890625 25.203125 
Q 15.484375 15.921875 20.484375 11.0625 
Q 25.484375 6.203125 34.421875 6.203125 
Q 39.59375 6.203125 44.453125 7.46875 
Q 49.3125 8.734375 54.109375 11.28125 
L 54.109375 2.78125 
Q 49.265625 0.734375 44.1875 -0.34375 
Q 39.109375 -1.421875 33.890625 -1.421875 
Q 20.796875 -1.421875 13.15625 6.1875 
Q 5.515625 13.8125 5.515625 26.8125 
Q 5.515625 40.234375 12.765625 48.109375 
Q 20.015625 56 32.328125 56 
Q 43.359375 56 49.78125 48.890625 
Q 56.203125 41.796875 56.203125 29.59375 
z
M 47.21875 32.234375 
Q 47.125 39.59375 43.09375 43.984375 
Q 39.0625 48.390625 32.421875 48.390625 
Q 24.90625 48.390625 20.390625 44.140625 
Q 15.875 39.890625 15.1875 32.171875 
z
" id="DejaVuSans-65"/>
      <path d="M 31 75.875 
Q 24.46875 64.65625 21.28125 53.65625 
Q 18.109375 42.671875 18.109375 31.390625 
Q 18.109375 20.125 21.3125 9.0625 
Q 24.515625 -2 31 -13.1875 
L 23.1875 -13.1875 
Q 15.875 -1.703125 12.234375 9.375 
Q 8.59375 20.453125 8.59375 31.390625 
Q 8.59375 42.28125 12.203125 53.3125 
Q 15.828125 64.359375 23.1875 75.875 
z
" id="DejaVuSans-28"/>
      <path d="M 44.28125 53.078125 
L 44.28125 44.578125 
Q 40.484375 46.53125 36.375 47.5 
Q 32.28125 48.484375 27.875 48.484375 
Q 21.1875 48.484375 17.84375 46.4375 
Q 14.5 44.390625 14.5 40.28125 
Q 14.5 37.15625 16.890625 35.375 
Q 19.28125 33.59375 26.515625 31.984375 
L 29.59375 31.296875 
Q 39.15625 29.25 43.1875 25.515625 
Q 47.21875 21.78125 47.21875 15.09375 
Q 47.21875 7.46875 41.1875 3.015625 
Q 35.15625 -1.421875 24.609375 -1.421875 
Q 20.21875 -1.421875 15.453125 -0.5625 
Q 10.6875 0.296875 5.421875 2 
L 5.421875 11.28125 
Q 10.40625 8.6875 15.234375 7.390625 
Q 20.0625 6.109375 24.8125 6.109375 
Q 31.15625 6.109375 34.5625 8.28125 
Q 37.984375 10.453125 37.984375 14.40625 
Q 37.984375 18.0625 35.515625 20.015625 
Q 33.0625 21.96875 24.703125 23.78125 
L 21.578125 24.515625 
Q 13.234375 26.265625 9.515625 29.90625 
Q 5.8125 33.546875 5.8125 39.890625 
Q 5.8125 47.609375 11.28125 51.796875 
Q 16.75 56 26.8125 56 
Q 31.78125 56 36.171875 55.265625 
Q 40.578125 54.546875 44.28125 53.078125 
z
" id="DejaVuSans-73"/>
      <path d="M 8.015625 75.875 
L 15.828125 75.875 
Q 23.140625 64.359375 26.78125 53.3125 
Q 30.421875 42.28125 30.421875 31.390625 
Q 30.421875 20.453125 26.78125 9.375 
Q 23.140625 -1.703125 15.828125 -13.1875 
L 8.015625 -13.1875 
Q 14.5 -2 17.703125 9.0625 
Q 20.90625 20.125 20.90625 31.390625 
Q 20.90625 42.671875 17.703125 53.65625 
Q 14.5 64.65625 8.015625 75.875 
z
" id="DejaVuSans-29"/>
     </defs>
     <g transform="translate(200.269375 343.581437)scale(0.1 -0.1)">
      <use xlink:href="#DejaVuSans-54"/>
      <use x="61.037109" xlink:href="#DejaVuSans-69"/>
      <use x="88.820312" xlink:href="#DejaVuSans-6d"/>
      <use x="186.232422" xlink:href="#DejaVuSans-65"/>
      <use x="247.755859" xlink:href="#DejaVuSans-28"/>
      <use x="286.769531" xlink:href="#DejaVuSans-73"/>
      <use x="338.869141" xlink:href="#DejaVuSans-29"/>
     </g>
    </g>
   </g>
   <g id="matplotlib.axis_2">
    <g id="ytick_1">
     <g id="line2d_19">
      <path clip-path="url(#p487e3a2c53)" d="M 40.603125 303.208875 
L 397.723125 303.208875 
" style="fill:none;stroke:#b0b0b0;stroke-linecap:square;stroke-width:0.8;"/>
     </g>
     <g id="line2d_20">
      <defs>
       <path d="M 0 0 
L -3.5 0 
" id="mfb72a5858a" style="stroke:#000000;stroke-width:0.8;"/>
      </defs>
      <g>
       <use style="stroke:#000000;stroke-width:0.8;" x="40.603125" xlink:href="#mfb72a5858a" y="303.208875"/>
      </g>
     </g>
     <g id="text_11">
      <!-- 0 -->
      <g transform="translate(27.240625 307.008094)scale(0.1 -0.1)">
       <use xlink:href="#DejaVuSans-30"/>
      </g>
     </g>
    </g>
    <g id="ytick_2">
     <g id="line2d_21">
      <path clip-path="url(#p487e3a2c53)" d="M 40.603125 246.94841 
L 397.723125 246.94841 
" style="fill:none;stroke:#b0b0b0;stroke-linecap:square;stroke-width:0.8;"/>
     </g>
     <g id="line2d_22">
      <g>
       <use style="stroke:#000000;stroke-width:0.8;" x="40.603125" xlink:href="#mfb72a5858a" y="246.94841"/>
      </g>
     </g>
     <g id="text_12">
      <!-- 10 -->
      <g transform="translate(20.878125 250.747629)scale(0.1 -0.1)">
       <use xlink:href="#DejaVuSans-31"/>
       <use x="63.623047" xlink:href="#DejaVuSans-30"/>
      </g>
     </g>
    </g>
    <g id="ytick_3">
     <g id="line2d_23">
      <path clip-path="url(#p487e3a2c53)" d="M 40.603125 190.687945 
L 397.723125 190.687945 
" style="fill:none;stroke:#b0b0b0;stroke-linecap:square;stroke-width:0.8;"/>
     </g>
     <g id="line2d_24">
      <g>
       <use style="stroke:#000000;stroke-width:0.8;" x="40.603125" xlink:href="#mfb72a5858a" y="190.687945"/>
      </g>
     </g>
     <g id="text_13">
      <!-- 20 -->
      <g transform="translate(20.878125 194.487164)scale(0.1 -0.1)">
       <use xlink:href="#DejaVuSans-32"/>
       <use x="63.623047" xlink:href="#DejaVuSans-30"/>
      </g>
     </g>
    </g>
    <g id="ytick_4">
     <g id="line2d_25">
      <path clip-path="url(#p487e3a2c53)" d="M 40.603125 134.42748 
L 397.723125 134.42748 
" style="fill:none;stroke:#b0b0b0;stroke-linecap:square;stroke-width:0.8;"/>
     </g>
     <g id="line2d_26">
      <g>
       <use style="stroke:#000000;stroke-width:0.8;" x="40.603125" xlink:href="#mfb72a5858a" y="134.42748"/>
      </g>
     </g>
     <g id="text_14">
      <!-- 30 -->
      <defs>
       <path d="M 40.578125 39.3125 
Q 47.65625 37.796875 51.625 33 
Q 55.609375 28.21875 55.609375 21.1875 
Q 55.609375 10.40625 48.1875 4.484375 
Q 40.765625 -1.421875 27.09375 -1.421875 
Q 22.515625 -1.421875 17.65625 -0.515625 
Q 12.796875 0.390625 7.625 2.203125 
L 7.625 11.71875 
Q 11.71875 9.328125 16.59375 8.109375 
Q 21.484375 6.890625 26.8125 6.890625 
Q 36.078125 6.890625 40.9375 10.546875 
Q 45.796875 14.203125 45.796875 21.1875 
Q 45.796875 27.640625 41.28125 31.265625 
Q 36.765625 34.90625 28.71875 34.90625 
L 20.21875 34.90625 
L 20.21875 43.015625 
L 29.109375 43.015625 
Q 36.375 43.015625 40.234375 45.921875 
Q 44.09375 48.828125 44.09375 54.296875 
Q 44.09375 59.90625 40.109375 62.90625 
Q 36.140625 65.921875 28.71875 65.921875 
Q 24.65625 65.921875 20.015625 65.03125 
Q 15.375 64.15625 9.8125 62.3125 
L 9.8125 71.09375 
Q 15.4375 72.65625 20.34375 73.4375 
Q 25.25 74.21875 29.59375 74.21875 
Q 40.828125 74.21875 47.359375 69.109375 
Q 53.90625 64.015625 53.90625 55.328125 
Q 53.90625 49.265625 50.4375 45.09375 
Q 46.96875 40.921875 40.578125 39.3125 
z
" id="DejaVuSans-33"/>
      </defs>
      <g transform="translate(20.878125 138.226698)scale(0.1 -0.1)">
       <use xlink:href="#DejaVuSans-33"/>
       <use x="63.623047" xlink:href="#DejaVuSans-30"/>
      </g>
     </g>
    </g>
    <g id="ytick_5">
     <g id="line2d_27">
      <path clip-path="url(#p487e3a2c53)" d="M 40.603125 78.167015 
L 397.723125 78.167015 
" style="fill:none;stroke:#b0b0b0;stroke-linecap:square;stroke-width:0.8;"/>
     </g>
     <g id="line2d_28">
      <g>
       <use style="stroke:#000000;stroke-width:0.8;" x="40.603125" xlink:href="#mfb72a5858a" y="78.167015"/>
      </g>
     </g>
     <g id="text_15">
      <!-- 40 -->
      <g transform="translate(20.878125 81.966233)scale(0.1 -0.1)">
       <use xlink:href="#DejaVuSans-34"/>
       <use x="63.623047" xlink:href="#DejaVuSans-30"/>
      </g>
     </g>
    </g>
    <g id="text_16">
     <!-- Discovered Nodes -->
     <defs>
      <path d="M 19.671875 64.796875 
L 19.671875 8.109375 
L 31.59375 8.109375 
Q 46.6875 8.109375 53.6875 14.9375 
Q 60.6875 21.78125 60.6875 36.53125 
Q 60.6875 51.171875 53.6875 57.984375 
Q 46.6875 64.796875 31.59375 64.796875 
z
M 9.8125 72.90625 
L 30.078125 72.90625 
Q 51.265625 72.90625 61.171875 64.09375 
Q 71.09375 55.28125 71.09375 36.53125 
Q 71.09375 17.671875 61.125 8.828125 
Q 51.171875 0 30.078125 0 
L 9.8125 0 
z
" id="DejaVuSans-44"/>
      <path d="M 48.78125 52.59375 
L 48.78125 44.1875 
Q 44.96875 46.296875 41.140625 47.34375 
Q 37.3125 48.390625 33.40625 48.390625 
Q 24.65625 48.390625 19.8125 42.84375 
Q 14.984375 37.3125 14.984375 27.296875 
Q 14.984375 17.28125 19.8125 11.734375 
Q 24.65625 6.203125 33.40625 6.203125 
Q 37.3125 6.203125 41.140625 7.25 
Q 44.96875 8.296875 48.78125 10.40625 
L 48.78125 2.09375 
Q 45.015625 0.34375 40.984375 -0.53125 
Q 36.96875 -1.421875 32.421875 -1.421875 
Q 20.0625 -1.421875 12.78125 6.34375 
Q 5.515625 14.109375 5.515625 27.296875 
Q 5.515625 40.671875 12.859375 48.328125 
Q 20.21875 56 33.015625 56 
Q 37.15625 56 41.109375 55.140625 
Q 45.0625 54.296875 48.78125 52.59375 
z
" id="DejaVuSans-63"/>
      <path d="M 30.609375 48.390625 
Q 23.390625 48.390625 19.1875 42.75 
Q 14.984375 37.109375 14.984375 27.296875 
Q 14.984375 17.484375 19.15625 11.84375 
Q 23.34375 6.203125 30.609375 6.203125 
Q 37.796875 6.203125 41.984375 11.859375 
Q 46.1875 17.53125 46.1875 27.296875 
Q 46.1875 37.015625 41.984375 42.703125 
Q 37.796875 48.390625 30.609375 48.390625 
z
M 30.609375 56 
Q 42.328125 56 49.015625 48.375 
Q 55.71875 40.765625 55.71875 27.296875 
Q 55.71875 13.875 49.015625 6.21875 
Q 42.328125 -1.421875 30.609375 -1.421875 
Q 18.84375 -1.421875 12.171875 6.21875 
Q 5.515625 13.875 5.515625 27.296875 
Q 5.515625 40.765625 12.171875 48.375 
Q 18.84375 56 30.609375 56 
z
" id="DejaVuSans-6f"/>
      <path d="M 2.984375 54.6875 
L 12.5 54.6875 
L 29.59375 8.796875 
L 46.6875 54.6875 
L 56.203125 54.6875 
L 35.6875 0 
L 23.484375 0 
z
" id="DejaVuSans-76"/>
      <path d="M 41.109375 46.296875 
Q 39.59375 47.171875 37.8125 47.578125 
Q 36.03125 48 33.890625 48 
Q 26.265625 48 22.1875 43.046875 
Q 18.109375 38.09375 18.109375 28.8125 
L 18.109375 0 
L 9.078125 0 
L 9.078125 54.6875 
L 18.109375 54.6875 
L 18.109375 46.1875 
Q 20.953125 51.171875 25.484375 53.578125 
Q 30.03125 56 36.53125 56 
Q 37.453125 56 38.578125 55.875 
Q 39.703125 55.765625 41.0625 55.515625 
z
" id="DejaVuSans-72"/>
      <path d="M 45.40625 46.390625 
L 45.40625 75.984375 
L 54.390625 75.984375 
L 54.390625 0 
L 45.40625 0 
L 45.40625 8.203125 
Q 42.578125 3.328125 38.25 0.953125 
Q 33.9375 -1.421875 27.875 -1.421875 
Q 17.96875 -1.421875 11.734375 6.484375 
Q 5.515625 14.40625 5.515625 27.296875 
Q 5.515625 40.1875 11.734375 48.09375 
Q 17.96875 56 27.875 56 
Q 33.9375 56 38.25 53.625 
Q 42.578125 51.265625 45.40625 46.390625 
z
M 14.796875 27.296875 
Q 14.796875 17.390625 18.875 11.75 
Q 22.953125 6.109375 30.078125 6.109375 
Q 37.203125 6.109375 41.296875 11.75 
Q 45.40625 17.390625 45.40625 27.296875 
Q 45.40625 37.203125 41.296875 42.84375 
Q 37.203125 48.484375 30.078125 48.484375 
Q 22.953125 48.484375 18.875 42.84375 
Q 14.796875 37.203125 14.796875 27.296875 
z
" id="DejaVuSans-64"/>
      <path id="DejaVuSans-20"/>
      <path d="M 9.8125 72.90625 
L 23.09375 72.90625 
L 55.421875 11.921875 
L 55.421875 72.90625 
L 64.984375 72.90625 
L 64.984375 0 
L 51.703125 0 
L 19.390625 60.984375 
L 19.390625 0 
L 9.8125 0 
z
" id="DejaVuSans-4e"/>
     </defs>
     <g transform="translate(14.798438 227.486375)rotate(-90)scale(0.1 -0.1)">
      <use xlink:href="#DejaVuSans-44"/>
      <use x="77.001953" xlink:href="#DejaVuSans-69"/>
      <use x="104.785156" xlink:href="#DejaVuSans-73"/>
      <use x="156.884766" xlink:href="#DejaVuSans-63"/>
      <use x="211.865234" xlink:href="#DejaVuSans-6f"/>
      <use x="273.046875" xlink:href="#DejaVuSans-76"/>
      <use x="332.226562" xlink:href="#DejaVuSans-65"/>
      <use x="393.75" xlink:href="#DejaVuSans-72"/>
      <use x="434.832031" xlink:href="#DejaVuSans-65"/>
      <use x="496.355469" xlink:href="#DejaVuSans-64"/>
      <use x="559.832031" xlink:href="#DejaVuSans-20"/>
      <use x="591.619141" xlink:href="#DejaVuSans-4e"/>
      <use x="666.423828" xlink:href="#DejaVuSans-6f"/>
      <use x="727.605469" xlink:href="#DejaVuSans-64"/>
      <use x="791.082031" xlink:href="#DejaVuSans-65"/>
      <use x="852.605469" xlink:href="#DejaVuSans-73"/>
     </g>
    </g>
   </g>
   <g id="line2d_29">
    <path clip-path="url(#p487e3a2c53)" d="M 40.603125 303.208875 
L 149.51051 303.208875 
L 149.7292 297.582828 
L 151.478716 297.582828 
L 151.697405 291.956782 
L 152.790853 291.956782 
L 153.228232 275.078642 
L 153.446922 275.078642 
L 153.665611 269.452596 
L 154.10299 269.452596 
L 154.32168 258.200503 
L 154.759059 258.200503 
L 154.977748 252.574456 
L 155.196438 252.574456 
L 155.633817 241.322363 
L 156.508575 241.322363 
L 156.945954 258.200503 
L 157.383333 258.200503 
L 157.602023 263.826549 
L 157.820712 258.200503 
L 158.039402 258.200503 
L 158.258091 252.574456 
L 158.476781 258.200503 
L 158.69547 258.200503 
L 158.91416 263.826549 
L 159.351539 263.826549 
L 159.570228 258.200503 
L 161.101055 258.200503 
L 161.319745 263.826549 
L 161.975813 263.826549 
L 162.194503 269.452596 
L 164.381398 269.452596 
L 164.600088 275.078642 
L 166.349604 275.078642 
L 166.568293 280.704689 
L 167.224362 280.704689 
L 167.661741 291.956782 
L 167.880431 286.330735 
L 168.09912 286.330735 
L 168.31781 280.704689 
L 168.536499 269.452596 
L 169.192568 269.452596 
L 169.411257 263.826549 
L 170.504705 263.826549 
L 170.723394 258.200503 
L 171.379463 258.200503 
L 171.598153 252.574456 
L 172.472911 252.574456 
L 172.91029 241.322363 
L 173.566358 241.322363 
L 173.785048 235.696317 
L 175.315875 235.696317 
L 175.534564 241.322363 
L 178.158838 241.322363 
L 178.377528 246.94841 
L 178.814907 246.94841 
L 179.252286 258.200503 
L 179.470976 252.574456 
L 182.313939 252.574456 
L 182.532629 258.200503 
L 182.970008 258.200503 
L 183.407387 246.94841 
L 183.626077 235.696317 
L 184.938214 235.696317 
L 185.156903 241.322363 
L 185.375593 241.322363 
L 185.594282 235.696317 
L 186.031661 235.696317 
L 186.250351 230.07027 
L 187.125109 230.07027 
L 187.343799 235.696317 
L 188.218557 235.696317 
L 188.655936 246.94841 
L 189.093315 246.94841 
L 189.312004 252.574456 
L 190.842831 252.574456 
L 191.061521 258.200503 
L 193.904484 258.200503 
L 194.123174 263.826549 
L 194.997932 263.826549 
L 195.435311 246.94841 
L 195.654001 246.94841 
L 195.87269 241.322363 
L 196.09138 246.94841 
L 196.310069 230.07027 
L 196.528759 224.444224 
L 197.403517 224.444224 
L 197.622206 218.818177 
L 197.840896 235.696317 
L 198.059586 241.322363 
L 198.934344 241.322363 
L 199.153033 246.94841 
L 200.027791 246.94841 
L 200.246481 252.574456 
L 203.745513 252.574456 
L 203.964203 258.200503 
L 204.620271 258.200503 
L 205.05765 246.94841 
L 205.713719 246.94841 
L 205.932409 241.322363 
L 206.369788 241.322363 
L 206.588477 235.696317 
L 206.807167 241.322363 
L 207.025856 230.07027 
L 207.463235 230.07027 
L 207.681925 246.94841 
L 207.900614 230.07027 
L 208.337993 241.322363 
L 208.775372 241.322363 
L 209.212751 252.574456 
L 209.431441 246.94841 
L 209.650131 246.94841 
L 209.86882 235.696317 
L 210.08751 235.696317 
L 210.306199 230.07027 
L 210.524889 230.07027 
L 210.743578 241.322363 
L 210.962268 241.322363 
L 211.180957 252.574456 
L 211.399647 252.574456 
L 211.618336 246.94841 
L 211.837026 235.696317 
L 212.493094 235.696317 
L 212.711784 230.07027 
L 213.149163 246.94841 
L 213.367852 252.574456 
L 213.586542 246.94841 
L 213.805232 246.94841 
L 214.023921 235.696317 
L 214.898679 235.696317 
L 215.117369 241.322363 
L 215.336058 241.322363 
L 215.554748 246.94841 
L 215.773437 246.94841 
L 215.992127 235.696317 
L 216.429506 235.696317 
L 216.648195 230.07027 
L 216.866885 230.07027 
L 217.085574 235.696317 
L 217.304264 235.696317 
L 217.522954 241.322363 
L 217.741643 235.696317 
L 218.397712 235.696317 
L 218.616401 230.07027 
L 219.05378 230.07027 
L 219.27247 235.696317 
L 219.491159 235.696317 
L 219.709849 241.322363 
L 220.147228 230.07027 
L 221.021986 230.07027 
L 221.240676 235.696317 
L 221.678055 235.696317 
L 221.896744 246.94841 
L 222.115434 230.07027 
L 222.771502 230.07027 
L 222.990192 224.444224 
L 223.208881 224.444224 
L 223.64626 235.696317 
L 223.86495 246.94841 
L 224.083639 241.322363 
L 224.302329 241.322363 
L 224.521018 230.07027 
L 224.739708 230.07027 
L 224.958398 224.444224 
L 225.395777 224.444224 
L 225.614466 230.07027 
L 225.833156 241.322363 
L 226.489224 241.322363 
L 226.926603 230.07027 
L 227.145293 218.818177 
L 227.582672 218.818177 
L 228.020051 235.696317 
L 228.23874 241.322363 
L 228.45743 241.322363 
L 228.676119 246.94841 
L 228.894809 246.94841 
L 229.113499 230.07027 
L 229.332188 224.444224 
L 229.550878 213.192131 
L 230.425636 213.192131 
L 230.644325 207.566084 
L 230.863015 213.192131 
L 231.081704 213.192131 
L 231.519083 224.444224 
L 231.956462 224.444224 
L 232.175152 218.818177 
L 234.143358 218.818177 
L 234.362047 224.444224 
L 235.018116 224.444224 
L 235.236805 218.818177 
L 235.455495 218.818177 
L 235.892874 207.566084 
L 236.111563 213.192131 
L 236.767632 213.192131 
L 236.986322 218.818177 
L 237.205011 218.818177 
L 237.423701 213.192131 
L 237.86108 213.192131 
L 238.298459 224.444224 
L 238.517148 213.192131 
L 238.735838 218.818177 
L 238.954527 213.192131 
L 239.391906 230.07027 
L 239.829285 230.07027 
L 240.047975 224.444224 
L 240.266664 230.07027 
L 240.485354 230.07027 
L 241.141423 213.192131 
L 241.360112 218.818177 
L 242.23487 218.818177 
L 242.45356 230.07027 
L 242.672249 230.07027 
L 242.890939 218.818177 
L 246.389971 218.818177 
L 246.608661 224.444224 
L 246.82735 224.444224 
L 247.04604 218.818177 
L 247.483419 218.818177 
L 247.702108 213.192131 
L 248.139488 213.192131 
L 248.576867 224.444224 
L 249.014246 224.444224 
L 249.232935 218.818177 
L 249.451625 218.818177 
L 249.670314 213.192131 
L 250.326383 213.192131 
L 250.982451 230.07027 
L 251.201141 230.07027 
L 251.41983 224.444224 
L 251.63852 213.192131 
L 252.294589 213.192131 
L 252.950657 230.07027 
L 253.388036 230.07027 
L 254.262794 207.566084 
L 255.137552 230.07027 
L 255.356242 230.07027 
L 255.574931 224.444224 
L 255.793621 224.444224 
L 256.231 213.192131 
L 256.44969 218.818177 
L 256.668379 218.818177 
L 256.887069 224.444224 
L 257.324448 224.444224 
L 257.543137 235.696317 
L 257.761827 230.07027 
L 258.199206 213.192131 
L 258.636585 213.192131 
L 259.073964 224.444224 
L 259.292653 224.444224 
L 259.511343 230.07027 
L 259.730033 230.07027 
L 259.948722 218.818177 
L 261.479549 218.818177 
L 261.698238 224.444224 
L 261.916928 224.444224 
L 262.135617 218.818177 
L 263.666444 218.818177 
L 263.885134 224.444224 
L 264.103823 224.444224 
L 264.322513 218.818177 
L 265.853339 218.818177 
L 266.072029 224.444224 
L 266.290718 218.818177 
L 267.821545 218.818177 
L 268.258924 230.07027 
L 268.477614 224.444224 
L 268.696303 224.444224 
L 268.914993 218.818177 
L 270.00844 218.818177 
L 270.22713 235.696317 
L 270.445819 235.696317 
L 270.664509 224.444224 
L 271.101888 224.444224 
L 271.320578 218.818177 
L 271.757957 218.818177 
L 272.414025 235.696317 
L 272.632715 235.696317 
L 273.070094 224.444224 
L 273.507473 224.444224 
L 273.726162 218.818177 
L 273.944852 230.07027 
L 274.382231 230.07027 
L 274.60092 235.696317 
L 274.81961 230.07027 
L 275.256989 230.07027 
L 275.475679 224.444224 
L 275.694368 224.444224 
L 275.913058 230.07027 
L 276.131747 230.07027 
L 276.569126 241.322363 
L 277.006505 241.322363 
L 277.443884 230.07027 
L 277.881263 230.07027 
L 278.318642 241.322363 
L 297.563321 241.322363 
L 297.78201 235.696317 
L 305.654834 235.696317 
L 305.873523 230.07027 
L 308.060418 230.07027 
L 308.279108 235.696317 
L 311.122072 235.696317 
L 311.340761 241.322363 
L 321.619169 241.322363 
L 321.837859 235.696317 
L 340.645158 235.696317 
L 340.863848 241.322363 
L 341.301227 241.322363 
L 341.519916 246.94841 
L 352.673082 246.94841 
L 352.891772 235.696317 
L 391.818508 235.696317 
L 392.037197 241.322363 
L 396.192298 241.322363 
L 396.410988 246.94841 
L 397.504435 246.94841 
L 397.504435 246.94841 
" style="fill:none;stroke:#008000;stroke-linecap:square;stroke-width:1.5;"/>
   </g>
   <g id="line2d_30">
    <path clip-path="url(#p487e3a2c53)" d="M 40.603125 303.208875 
L 104.460467 303.208875 
L 104.679157 297.582828 
L 105.553915 297.582828 
L 105.772604 291.956782 
L 106.209984 291.956782 
L 106.428673 286.330735 
L 107.303431 286.330735 
L 107.522121 280.704689 
L 107.74081 280.704689 
L 107.9595 275.078642 
L 108.178189 275.078642 
L 108.396879 269.452596 
L 108.615568 275.078642 
L 108.834258 269.452596 
L 109.052947 275.078642 
L 112.55198 275.078642 
L 112.770669 280.704689 
L 114.301496 280.704689 
L 114.520186 297.582828 
L 114.738875 297.582828 
L 114.957565 303.208875 
L 119.987424 303.208875 
L 120.206113 297.582828 
L 124.142525 297.582828 
L 124.361214 291.956782 
L 125.017283 291.956782 
L 125.235973 297.582828 
L 127.422868 297.582828 
L 127.641557 291.956782 
L 128.516315 291.956782 
L 128.735005 297.582828 
L 132.452727 297.582828 
L 132.671416 291.956782 
L 132.890106 291.956782 
L 133.108796 286.330735 
L 133.327485 291.956782 
L 133.546175 291.956782 
L 133.764864 286.330735 
L 135.51438 286.330735 
L 135.73307 280.704689 
L 135.951759 286.330735 
L 136.170449 275.078642 
L 136.389138 275.078642 
L 136.607828 269.452596 
L 137.701276 269.452596 
L 137.919965 275.078642 
L 138.138655 286.330735 
L 139.013413 286.330735 
L 139.450792 275.078642 
L 140.10686 275.078642 
L 140.32555 280.704689 
L 140.762929 280.704689 
L 140.981619 286.330735 
L 141.637687 286.330735 
L 141.856377 291.956782 
L 142.731135 291.956782 
L 142.949824 286.330735 
L 143.168514 291.956782 
L 143.824582 291.956782 
L 144.043272 297.582828 
L 144.261961 286.330735 
L 145.13672 286.330735 
L 145.355409 280.704689 
L 146.230167 280.704689 
L 146.448857 275.078642 
L 147.979683 275.078642 
L 148.198373 280.704689 
L 148.417063 280.704689 
L 148.635752 286.330735 
L 149.7292 286.330735 
L 149.947889 297.582828 
L 153.446922 297.582828 
L 153.665611 291.956782 
L 154.10299 291.956782 
L 154.32168 286.330735 
L 155.196438 286.330735 
L 155.415127 275.078642 
L 158.69547 275.078642 
L 158.91416 280.704689 
L 159.132849 280.704689 
L 159.351539 286.330735 
L 163.50664 286.330735 
L 163.72533 269.452596 
L 165.256156 269.452596 
L 165.474846 263.826549 
L 167.224362 263.826549 
L 167.443052 258.200503 
L 175.971943 258.200503 
L 176.190633 263.826549 
L 176.628012 263.826549 
L 176.846701 269.452596 
L 177.065391 269.452596 
L 177.28408 263.826549 
L 178.377528 263.826549 
L 178.596217 269.452596 
L 178.814907 269.452596 
L 179.033597 263.826549 
L 180.127044 263.826549 
L 180.345734 269.452596 
L 181.657871 269.452596 
L 181.87656 263.826549 
L 182.532629 263.826549 
L 182.751319 269.452596 
L 183.844766 269.452596 
L 184.063456 263.826549 
L 184.500835 263.826549 
L 184.719524 269.452596 
L 186.031661 269.452596 
L 186.250351 263.826549 
L 186.68773 263.826549 
L 186.90642 269.452596 
L 188.218557 269.452596 
L 188.437246 263.826549 
L 188.655936 263.826549 
L 189.093315 275.078642 
L 189.530694 275.078642 
L 189.749383 269.452596 
L 190.624142 269.452596 
L 190.842831 275.078642 
L 192.154968 275.078642 
L 192.373658 269.452596 
L 192.592347 269.452596 
L 192.811037 275.078642 
L 220.803296 275.078642 
L 221.021986 280.704689 
L 221.459365 280.704689 
L 221.678055 275.078642 
L 221.896744 280.704689 
L 222.115434 280.704689 
L 222.334123 275.078642 
L 222.771502 275.078642 
L 222.990192 280.704689 
L 223.64626 280.704689 
L 223.86495 286.330735 
L 224.083639 280.704689 
L 224.302329 280.704689 
L 224.521018 275.078642 
L 224.739708 275.078642 
L 224.958398 280.704689 
L 225.833156 280.704689 
L 226.051845 286.330735 
L 226.489224 286.330735 
L 226.707914 280.704689 
L 227.801361 280.704689 
L 228.020051 286.330735 
L 228.894809 286.330735 
L 229.113499 280.704689 
L 229.988257 280.704689 
L 230.206946 286.330735 
L 231.081704 286.330735 
L 231.300394 280.704689 
L 231.956462 280.704689 
L 232.175152 286.330735 
L 233.2686 286.330735 
L 233.487289 280.704689 
L 233.924668 280.704689 
L 234.143358 286.330735 
L 234.799426 286.330735 
L 235.018116 291.956782 
L 235.236805 291.956782 
L 235.674184 280.704689 
L 236.111563 280.704689 
L 236.330253 286.330735 
L 236.548943 286.330735 
L 236.767632 291.956782 
L 236.986322 291.956782 
L 237.205011 286.330735 
L 237.64239 286.330735 
L 237.86108 291.956782 
L 238.079769 280.704689 
L 238.298459 286.330735 
L 238.517148 286.330735 
L 238.735838 291.956782 
L 238.954527 291.956782 
L 239.173217 286.330735 
L 239.829285 286.330735 
L 240.047975 280.704689 
L 240.485354 291.956782 
L 240.922733 291.956782 
L 241.360112 280.704689 
L 241.578802 280.704689 
L 241.797491 286.330735 
L 242.016181 286.330735 
L 242.23487 280.704689 
L 242.45356 280.704689 
L 242.890939 291.956782 
L 243.328318 280.704689 
L 244.859145 280.704689 
L 245.077834 286.330735 
L 245.296524 280.704689 
L 245.952592 280.704689 
L 246.171282 275.078642 
L 246.389971 275.078642 
L 246.608661 280.704689 
L 247.04604 280.704689 
L 247.264729 275.078642 
L 247.483419 280.704689 
L 247.920798 280.704689 
L 248.139488 275.078642 
L 248.576867 275.078642 
L 248.795556 280.704689 
L 249.014246 280.704689 
L 249.232935 275.078642 
L 252.513278 275.078642 
L 252.731968 269.452596 
L 253.169347 269.452596 
L 253.388036 275.078642 
L 254.262794 275.078642 
L 254.481484 269.452596 
L 254.700173 269.452596 
L 254.918863 263.826549 
L 255.137552 269.452596 
L 255.574931 269.452596 
L 255.793621 275.078642 
L 256.231 275.078642 
L 256.44969 269.452596 
L 256.668379 269.452596 
L 256.887069 263.826549 
L 257.324448 263.826549 
L 257.543137 269.452596 
L 258.855274 269.452596 
L 259.073964 263.826549 
L 259.511343 263.826549 
L 259.730033 269.452596 
L 260.82348 269.452596 
L 261.04217 263.826549 
L 261.698238 263.826549 
L 261.916928 269.452596 
L 262.135617 269.452596 
L 262.354307 275.078642 
L 262.791686 275.078642 
L 263.229065 263.826549 
L 263.885134 263.826549 
L 264.322513 275.078642 
L 264.978581 275.078642 
L 265.197271 263.826549 
L 266.072029 263.826549 
L 266.290718 275.078642 
L 267.165477 275.078642 
L 267.384166 263.826549 
L 268.258924 263.826549 
L 268.477614 275.078642 
L 268.914993 275.078642 
L 269.133682 280.704689 
L 269.352372 269.452596 
L 269.571061 269.452596 
L 269.789751 263.826549 
L 270.22713 263.826549 
L 270.664509 275.078642 
L 270.883198 275.078642 
L 271.101888 280.704689 
L 271.320578 280.704689 
L 271.539267 269.452596 
L 271.757957 269.452596 
L 271.976646 263.826549 
L 272.195336 263.826549 
L 272.632715 275.078642 
L 272.851404 275.078642 
L 273.070094 280.704689 
L 273.288783 280.704689 
L 273.726162 269.452596 
L 274.60092 269.452596 
L 275.0383 280.704689 
L 275.475679 280.704689 
L 275.694368 275.078642 
L 275.913058 275.078642 
L 276.131747 269.452596 
L 276.787816 269.452596 
L 277.225195 280.704689 
L 277.662574 280.704689 
L 277.881263 275.078642 
L 278.099953 275.078642 
L 278.318642 269.452596 
L 278.974711 269.452596 
L 279.193401 280.704689 
L 279.41209 280.704689 
L 279.63078 275.078642 
L 287.722292 275.078642 
L 287.940982 269.452596 
L 288.378361 269.452596 
L 288.59705 275.078642 
L 292.533462 275.078642 
L 292.752151 269.452596 
L 311.77814 269.452596 
L 311.99683 275.078642 
L 315.495862 275.078642 
L 315.714552 269.452596 
L 317.901447 269.452596 
L 318.120137 263.826549 
L 366.013143 263.826549 
L 366.231833 269.452596 
L 368.856107 269.452596 
L 369.074797 275.078642 
L 380.009273 275.078642 
L 380.227963 269.452596 
L 382.633548 269.452596 
L 382.852237 275.078642 
L 385.039132 275.078642 
L 385.257822 269.452596 
L 387.663407 269.452596 
L 387.882096 275.078642 
L 397.504435 275.078642 
L 397.504435 275.078642 
" style="fill:none;stroke:#0000ff;stroke-linecap:square;stroke-width:1.5;"/>
   </g>
   <g id="line2d_31">
    <path clip-path="url(#p487e3a2c53)" d="M 40.603125 303.208875 
L 71.438349 303.208875 
L 71.657038 297.582828 
L 72.313107 297.582828 
L 72.531796 291.956782 
L 73.406554 291.956782 
L 73.625244 286.330735 
L 74.281312 286.330735 
L 74.500002 280.704689 
L 74.937381 280.704689 
L 75.15607 275.078642 
L 75.59345 275.078642 
L 76.030829 258.200503 
L 76.905587 258.200503 
L 77.124276 252.574456 
L 77.342966 252.574456 
L 77.561655 246.94841 
L 78.436413 246.94841 
L 78.655103 252.574456 
L 79.748551 252.574456 
L 79.96724 263.826549 
L 82.154135 263.826549 
L 82.591514 275.078642 
L 83.028894 275.078642 
L 83.247583 280.704689 
L 83.466273 280.704689 
L 83.684962 286.330735 
L 84.341031 286.330735 
L 84.55972 291.956782 
L 84.77841 303.208875 
L 112.114601 303.208875 
L 112.33329 291.956782 
L 112.55198 291.956782 
L 112.770669 286.330735 
L 114.082807 286.330735 
L 114.520186 269.452596 
L 114.738875 263.826549 
L 114.957565 263.826549 
L 115.176254 258.200503 
L 115.613633 258.200503 
L 116.269702 230.07027 
L 116.488391 224.444224 
L 116.707081 213.192131 
L 116.92577 213.192131 
L 117.14446 207.566084 
L 117.363149 196.313991 
L 117.800529 196.313991 
L 118.456597 213.192131 
L 118.893976 213.192131 
L 119.331355 224.444224 
L 119.768734 224.444224 
L 119.987424 230.07027 
L 120.206113 224.444224 
L 120.424803 230.07027 
L 120.643492 230.07027 
L 120.862182 235.696317 
L 121.299561 235.696317 
L 121.518251 241.322363 
L 121.73694 258.200503 
L 122.174319 269.452596 
L 122.611698 269.452596 
L 123.049077 280.704689 
L 123.267767 280.704689 
L 123.486456 286.330735 
L 123.705146 280.704689 
L 123.923835 280.704689 
L 124.142525 286.330735 
L 124.798593 286.330735 
L 125.235973 303.208875 
L 126.766799 303.208875 
L 126.985489 297.582828 
L 127.204178 286.330735 
L 128.297626 286.330735 
L 128.735005 269.452596 
L 128.953695 275.078642 
L 129.172384 269.452596 
L 129.609763 269.452596 
L 129.828453 263.826549 
L 130.047142 263.826549 
L 130.265832 258.200503 
L 130.484521 241.322363 
L 130.703211 246.94841 
L 131.14059 246.94841 
L 131.359279 235.696317 
L 131.796658 235.696317 
L 132.015348 224.444224 
L 132.234037 230.07027 
L 132.452727 230.07027 
L 132.671416 224.444224 
L 135.295691 224.444224 
L 135.73307 241.322363 
L 136.826518 241.322363 
L 137.045207 246.94841 
L 137.263897 263.826549 
L 137.482586 291.956782 
L 137.701276 291.956782 
L 137.919965 297.582828 
L 139.013413 297.582828 
L 139.232102 303.208875 
L 182.970008 303.208875 
L 183.188698 291.956782 
L 183.407387 291.956782 
L 183.626077 286.330735 
L 184.063456 286.330735 
L 184.282145 280.704689 
L 184.719524 258.200503 
L 186.031661 258.200503 
L 186.250351 252.574456 
L 186.46904 252.574456 
L 186.68773 246.94841 
L 186.90642 252.574456 
L 187.125109 241.322363 
L 187.343799 241.322363 
L 187.781178 230.07027 
L 188.437246 230.07027 
L 188.874625 218.818177 
L 189.093315 218.818177 
L 189.312004 230.07027 
L 193.685795 230.07027 
L 193.904484 224.444224 
L 194.123174 230.07027 
L 195.654001 230.07027 
L 195.87269 235.696317 
L 196.528759 235.696317 
L 196.747448 246.94841 
L 197.184827 235.696317 
L 197.622206 235.696317 
L 197.840896 241.322363 
L 198.059586 241.322363 
L 198.496965 218.818177 
L 198.934344 218.818177 
L 199.153033 230.07027 
L 199.371723 230.07027 
L 199.590412 235.696317 
L 199.809102 224.444224 
L 200.027791 235.696317 
L 200.246481 235.696317 
L 200.68386 218.818177 
L 201.121239 218.818177 
L 201.339928 224.444224 
L 202.433376 224.444224 
L 202.652066 218.818177 
L 203.526824 218.818177 
L 203.745513 224.444224 
L 204.182892 224.444224 
L 204.620271 213.192131 
L 204.838961 218.818177 
L 205.495029 218.818177 
L 205.713719 224.444224 
L 205.932409 224.444224 
L 206.151098 230.07027 
L 206.369788 224.444224 
L 206.807167 207.566084 
L 207.025856 207.566084 
L 207.463235 218.818177 
L 207.681925 218.818177 
L 207.900614 224.444224 
L 208.119304 224.444224 
L 208.337993 230.07027 
L 208.556683 224.444224 
L 208.775372 207.566084 
L 208.994062 207.566084 
L 209.212751 213.192131 
L 209.431441 213.192131 
L 209.650131 218.818177 
L 209.86882 218.818177 
L 210.08751 224.444224 
L 210.306199 224.444224 
L 210.524889 230.07027 
L 210.743578 213.192131 
L 210.962268 213.192131 
L 211.180957 218.818177 
L 211.399647 218.818177 
L 211.618336 213.192131 
L 211.837026 218.818177 
L 212.055715 218.818177 
L 212.274405 224.444224 
L 212.493094 224.444224 
L 212.711784 213.192131 
L 212.930473 213.192131 
L 213.149163 218.818177 
L 213.586542 218.818177 
L 213.805232 213.192131 
L 214.023921 213.192131 
L 214.242611 218.818177 
L 214.4613 218.818177 
L 214.67999 213.192131 
L 214.898679 213.192131 
L 215.117369 218.818177 
L 215.554748 218.818177 
L 215.992127 207.566084 
L 216.210816 213.192131 
L 217.085574 213.192131 
L 217.304264 218.818177 
L 217.741643 218.818177 
L 217.960333 207.566084 
L 218.179022 207.566084 
L 218.397712 213.192131 
L 219.27247 213.192131 
L 219.491159 218.818177 
L 219.709849 218.818177 
L 220.147228 207.566084 
L 220.365917 207.566084 
L 220.584607 213.192131 
L 221.459365 213.192131 
L 221.678055 218.818177 
L 221.896744 213.192131 
L 222.115434 213.192131 
L 222.334123 207.566084 
L 222.552813 207.566084 
L 222.771502 213.192131 
L 223.427571 213.192131 
L 223.64626 218.818177 
L 223.86495 218.818177 
L 224.083639 213.192131 
L 224.302329 213.192131 
L 224.521018 207.566084 
L 224.739708 207.566084 
L 225.177087 218.818177 
L 225.395777 213.192131 
L 225.614466 213.192131 
L 225.833156 218.818177 
L 226.051845 213.192131 
L 226.270535 213.192131 
L 226.489224 207.566084 
L 226.926603 207.566084 
L 227.363982 224.444224 
L 227.582672 224.444224 
L 228.23874 207.566084 
L 228.894809 207.566084 
L 229.113499 213.192131 
L 229.550878 235.696317 
L 229.988257 224.444224 
L 230.206946 207.566084 
L 230.425636 207.566084 
L 230.644325 213.192131 
L 230.863015 213.192131 
L 231.081704 218.818177 
L 231.300394 218.818177 
L 231.519083 224.444224 
L 231.737773 235.696317 
L 231.956462 235.696317 
L 232.175152 230.07027 
L 232.612531 213.192131 
L 232.831221 213.192131 
L 233.04991 218.818177 
L 233.487289 218.818177 
L 234.143358 235.696317 
L 234.799426 218.818177 
L 235.236805 218.818177 
L 235.455495 213.192131 
L 235.674184 224.444224 
L 235.892874 218.818177 
L 236.330253 230.07027 
L 236.767632 230.07027 
L 237.423701 213.192131 
L 237.64239 224.444224 
L 238.954527 224.444224 
L 239.391906 213.192131 
L 239.610596 224.444224 
L 240.922733 224.444224 
L 241.141423 218.818177 
L 241.360112 218.818177 
L 241.578802 224.444224 
L 242.672249 224.444224 
L 242.890939 218.818177 
L 243.328318 218.818177 
L 243.547007 224.444224 
L 243.984386 224.444224 
L 244.203076 230.07027 
L 244.640455 230.07027 
L 244.859145 224.444224 
L 245.077834 224.444224 
L 245.296524 218.818177 
L 245.515213 224.444224 
L 245.733903 224.444224 
L 245.952592 230.07027 
L 247.04604 230.07027 
L 247.264729 218.818177 
L 247.702108 218.818177 
L 247.920798 230.07027 
L 249.014246 230.07027 
L 249.232935 224.444224 
L 249.451625 224.444224 
L 249.670314 218.818177 
L 249.889004 224.444224 
L 250.107693 224.444224 
L 250.326383 230.07027 
L 250.545072 230.07027 
L 250.763762 224.444224 
L 250.982451 230.07027 
L 251.201141 224.444224 
L 252.294589 224.444224 
L 252.513278 218.818177 
L 253.388036 218.818177 
L 253.606726 224.444224 
L 254.044105 224.444224 
L 254.262794 218.818177 
L 255.356242 218.818177 
L 255.574931 224.444224 
L 256.012311 224.444224 
L 256.231 218.818177 
L 257.543137 218.818177 
L 257.761827 224.444224 
L 258.199206 224.444224 
L 258.417895 218.818177 
L 258.855274 218.818177 
L 259.073964 224.444224 
L 259.292653 224.444224 
L 259.511343 218.818177 
L 259.730033 224.444224 
L 260.386101 224.444224 
L 260.604791 218.818177 
L 260.82348 218.818177 
L 261.04217 224.444224 
L 261.479549 224.444224 
L 261.698238 230.07027 
L 261.916928 224.444224 
L 262.791686 224.444224 
L 263.010375 218.818177 
L 263.229065 224.444224 
L 263.447755 224.444224 
L 263.666444 230.07027 
L 264.103823 230.07027 
L 264.322513 224.444224 
L 264.541202 224.444224 
L 264.759892 218.818177 
L 264.978581 218.818177 
L 265.197271 224.444224 
L 265.41596 224.444224 
L 265.853339 235.696317 
L 266.072029 230.07027 
L 266.290718 230.07027 
L 266.728097 218.818177 
L 267.165477 218.818177 
L 267.384166 224.444224 
L 267.602856 224.444224 
L 267.821545 235.696317 
L 268.040235 235.696317 
L 268.258924 230.07027 
L 268.477614 230.07027 
L 268.914993 218.818177 
L 269.133682 218.818177 
L 269.352372 224.444224 
L 269.571061 224.444224 
L 269.789751 230.07027 
L 270.00844 230.07027 
L 270.22713 235.696317 
L 270.445819 224.444224 
L 270.883198 224.444224 
L 271.101888 218.818177 
L 271.320578 224.444224 
L 271.539267 224.444224 
L 271.757957 230.07027 
L 272.414025 230.07027 
L 272.632715 224.444224 
L 273.070094 224.444224 
L 273.288783 218.818177 
L 273.726162 230.07027 
L 274.81961 230.07027 
L 275.0383 224.444224 
L 275.256989 224.444224 
L 275.475679 230.07027 
L 276.787816 230.07027 
L 277.225195 218.818177 
L 277.662574 230.07027 
L 277.881263 230.07027 
L 278.099953 235.696317 
L 278.537332 235.696317 
L 278.974711 224.444224 
L 279.41209 224.444224 
L 279.63078 230.07027 
L 279.849469 230.07027 
L 280.068159 235.696317 
L 280.286848 224.444224 
L 280.942917 224.444224 
L 281.161606 230.07027 
L 284.00457 230.07027 
L 284.22326 235.696317 
L 307.18566 235.696317 
L 307.40435 230.07027 
L 310.247314 230.07027 
L 310.466003 224.444224 
L 312.434209 224.444224 
L 312.652898 218.818177 
L 319.432274 218.818177 
L 319.650963 224.444224 
L 321.18179 224.444224 
L 321.40048 235.696317 
L 321.837859 235.696317 
L 322.056548 230.07027 
L 323.368685 230.07027 
L 323.806064 241.322363 
L 330.148061 241.322363 
L 330.58544 230.07027 
L 344.144191 230.07027 
L 344.36288 224.444224 
L 344.800259 224.444224 
L 345.018949 218.818177 
L 348.517981 218.818177 
L 348.736671 224.444224 
L 348.95536 224.444224 
L 349.17405 218.818177 
L 350.486187 218.818177 
L 350.704876 213.192131 
L 353.76653 213.192131 
L 353.985219 207.566084 
L 355.734736 207.566084 
L 355.953425 213.192131 
L 356.172115 213.192131 
L 356.390804 218.818177 
L 361.858042 218.818177 
L 362.076732 213.192131 
L 362.7328 213.192131 
L 362.95149 218.818177 
L 365.138385 218.818177 
L 365.357075 213.192131 
L 373.229898 213.192131 
L 373.448587 207.566084 
L 380.665342 207.566084 
L 380.884031 201.940038 
L 381.758789 201.940038 
L 381.977479 207.566084 
L 384.820443 207.566084 
L 385.039132 213.192131 
L 385.257822 213.192131 
L 385.476511 218.818177 
L 388.756854 218.818177 
L 388.975544 224.444224 
L 390.72506 224.444224 
L 390.94375 230.07027 
L 393.568024 230.07027 
L 393.786713 224.444224 
L 397.504435 224.444224 
L 397.504435 224.444224 
" style="fill:none;stroke:#ff0000;stroke-linecap:square;stroke-width:1.5;"/>
   </g>
   <g id="line2d_32">
    <path clip-path="url(#p487e3a2c53)" d="M 40.603125 303.208875 
L 397.504435 303.208875 
L 397.504435 303.208875 
" style="fill:none;stroke:#00ffff;stroke-linecap:square;stroke-width:1.5;"/>
   </g>
   <g id="line2d_33">
    <path clip-path="url(#p487e3a2c53)" d="M 40.603125 303.208875 
L 108.396879 303.208875 
L 108.615568 297.582828 
L 109.271637 297.582828 
L 109.490326 291.956782 
L 110.365085 291.956782 
L 110.583774 297.582828 
L 113.208048 297.582828 
L 113.426738 303.208875 
L 115.613633 303.208875 
L 115.832323 297.582828 
L 116.051012 297.582828 
L 116.269702 291.956782 
L 116.707081 291.956782 
L 116.92577 286.330735 
L 117.800529 286.330735 
L 118.237908 275.078642 
L 118.456597 263.826549 
L 118.675287 263.826549 
L 119.112666 246.94841 
L 119.550045 235.696317 
L 120.643492 179.435852 
L 120.862182 179.435852 
L 121.299561 162.557712 
L 121.518251 156.931666 
L 121.73694 156.931666 
L 122.174319 145.679573 
L 122.393009 145.679573 
L 122.830388 162.557712 
L 123.049077 162.557712 
L 123.267767 156.931666 
L 123.486456 156.931666 
L 123.705146 162.557712 
L 123.923835 162.557712 
L 124.142525 168.183759 
L 124.361214 162.557712 
L 124.579904 162.557712 
L 124.798593 168.183759 
L 125.235973 185.061898 
L 125.454662 179.435852 
L 126.54811 230.07027 
L 126.766799 235.696317 
L 127.204178 235.696317 
L 127.641557 246.94841 
L 127.860247 258.200503 
L 128.078936 280.704689 
L 128.297626 286.330735 
L 128.516315 286.330735 
L 128.953695 303.208875 
L 159.132849 303.208875 
L 159.351539 297.582828 
L 159.570228 297.582828 
L 159.788918 291.956782 
L 162.631882 291.956782 
L 162.850571 297.582828 
L 163.069261 297.582828 
L 163.28795 303.208875 
L 193.685795 303.208875 
L 194.123174 286.330735 
L 194.560553 275.078642 
L 194.997932 246.94841 
L 195.216622 241.322363 
L 195.654001 224.444224 
L 196.09138 224.444224 
L 196.310069 218.818177 
L 196.528759 201.940038 
L 197.184827 201.940038 
L 197.403517 196.313991 
L 197.840896 179.435852 
L 198.059586 173.809805 
L 198.496965 173.809805 
L 198.715654 168.183759 
L 199.153033 168.183759 
L 199.371723 173.809805 
L 199.590412 173.809805 
L 199.809102 162.557712 
L 200.246481 162.557712 
L 200.46517 173.809805 
L 202.214687 173.809805 
L 202.433376 179.435852 
L 202.652066 179.435852 
L 202.870755 185.061898 
L 203.089445 196.313991 
L 203.308134 196.313991 
L 203.526824 201.940038 
L 203.745513 201.940038 
L 203.964203 207.566084 
L 205.495029 207.566084 
L 205.932409 218.818177 
L 206.588477 218.818177 
L 206.807167 224.444224 
L 207.244546 224.444224 
L 207.463235 218.818177 
L 207.681925 218.818177 
L 207.900614 224.444224 
L 208.119304 235.696317 
L 208.775372 235.696317 
L 209.212751 218.818177 
L 209.431441 213.192131 
L 210.08751 185.061898 
L 210.962268 162.557712 
L 211.399647 162.557712 
L 211.618336 156.931666 
L 212.055715 173.809805 
L 212.274405 179.435852 
L 212.493094 173.809805 
L 212.711784 185.061898 
L 212.930473 179.435852 
L 213.149163 179.435852 
L 213.586542 168.183759 
L 213.805232 156.931666 
L 214.023921 162.557712 
L 214.242611 173.809805 
L 214.4613 173.809805 
L 214.67999 185.061898 
L 214.898679 185.061898 
L 215.117369 179.435852 
L 215.336058 179.435852 
L 215.554748 173.809805 
L 215.773437 156.931666 
L 215.992127 156.931666 
L 216.210816 162.557712 
L 216.866885 190.687945 
L 217.085574 179.435852 
L 217.304264 179.435852 
L 217.522954 173.809805 
L 217.960333 145.679573 
L 218.179022 145.679573 
L 218.397712 162.557712 
L 218.616401 168.183759 
L 218.835091 185.061898 
L 219.27247 185.061898 
L 219.928538 151.305619 
L 220.365917 151.305619 
L 220.803296 162.557712 
L 221.240676 179.435852 
L 221.459365 179.435852 
L 221.896744 151.305619 
L 222.115434 145.679573 
L 222.334123 156.931666 
L 222.552813 156.931666 
L 222.771502 162.557712 
L 222.990192 162.557712 
L 223.208881 173.809805 
L 223.427571 173.809805 
L 223.86495 162.557712 
L 224.083639 145.679573 
L 224.521018 145.679573 
L 224.958398 162.557712 
L 225.177087 168.183759 
L 225.614466 168.183759 
L 226.051845 156.931666 
L 226.270535 145.679573 
L 226.489224 145.679573 
L 226.707914 140.053526 
L 226.926603 140.053526 
L 227.363982 151.305619 
L 227.582672 151.305619 
L 227.801361 145.679573 
L 228.676119 145.679573 
L 228.894809 151.305619 
L 229.550878 151.305619 
L 229.769567 156.931666 
L 229.988257 156.931666 
L 230.206946 162.557712 
L 230.644325 179.435852 
L 231.081704 190.687945 
L 231.737773 190.687945 
L 232.175152 201.940038 
L 232.393841 201.940038 
L 232.612531 213.192131 
L 234.362047 213.192131 
L 235.018116 185.061898 
L 235.236805 190.687945 
L 235.455495 151.305619 
L 235.892874 134.42748 
L 236.111563 140.053526 
L 237.423701 140.053526 
L 237.64239 145.679573 
L 238.079769 145.679573 
L 239.173217 173.809805 
L 239.829285 173.809805 
L 240.266664 185.061898 
L 240.485354 173.809805 
L 241.578802 173.809805 
L 241.797491 179.435852 
L 242.016181 173.809805 
L 242.23487 179.435852 
L 242.672249 179.435852 
L 242.890939 185.061898 
L 243.984386 185.061898 
L 244.640455 213.192131 
L 245.077834 213.192131 
L 245.733903 173.809805 
L 245.952592 179.435852 
L 246.171282 162.557712 
L 246.389971 162.557712 
L 246.82735 145.679573 
L 247.04604 162.557712 
L 247.264729 168.183759 
L 247.483419 179.435852 
L 247.702108 179.435852 
L 247.920798 173.809805 
L 248.139488 162.557712 
L 248.358177 134.42748 
L 248.576867 134.42748 
L 249.232935 162.557712 
L 249.451625 162.557712 
L 249.889004 173.809805 
L 250.107693 162.557712 
L 250.326383 140.053526 
L 250.545072 140.053526 
L 250.763762 145.679573 
L 250.982451 145.679573 
L 251.201141 151.305619 
L 251.41983 162.557712 
L 251.63852 162.557712 
L 251.85721 168.183759 
L 252.075899 168.183759 
L 252.731968 140.053526 
L 252.950657 145.679573 
L 253.169347 145.679573 
L 253.388036 156.931666 
L 253.825415 156.931666 
L 254.044105 168.183759 
L 254.262794 168.183759 
L 254.700173 134.42748 
L 255.793621 162.557712 
L 256.012311 162.557712 
L 256.44969 173.809805 
L 256.887069 134.42748 
L 257.105758 134.42748 
L 257.761827 162.557712 
L 257.980516 162.557712 
L 258.417895 173.809805 
L 258.636585 173.809805 
L 258.855274 145.679573 
L 259.073964 134.42748 
L 259.292653 134.42748 
L 259.948722 162.557712 
L 260.167412 162.557712 
L 260.604791 173.809805 
L 261.04217 145.679573 
L 261.260859 128.801433 
L 261.479549 128.801433 
L 261.916928 117.54934 
L 262.354307 95.045154 
L 262.572996 100.671201 
L 262.791686 95.045154 
L 263.229065 95.045154 
L 263.447755 111.923294 
L 263.666444 111.923294 
L 264.322513 128.801433 
L 264.759892 128.801433 
L 264.978581 123.175387 
L 265.41596 123.175387 
L 265.63465 128.801433 
L 265.853339 128.801433 
L 266.072029 134.42748 
L 266.290718 134.42748 
L 266.509408 140.053526 
L 266.946787 140.053526 
L 267.165477 145.679573 
L 267.602856 145.679573 
L 267.821545 151.305619 
L 268.914993 151.305619 
L 269.133682 145.679573 
L 269.571061 156.931666 
L 270.22713 156.931666 
L 270.664509 179.435852 
L 271.101888 145.679573 
L 271.539267 134.42748 
L 271.976646 117.54934 
L 272.195336 117.54934 
L 272.414025 111.923294 
L 272.632715 117.54934 
L 272.851404 111.923294 
L 273.944852 111.923294 
L 274.163541 117.54934 
L 274.382231 117.54934 
L 274.60092 123.175387 
L 274.81961 123.175387 
L 275.694368 100.671201 
L 276.131747 111.923294 
L 276.350437 111.923294 
L 276.787816 123.175387 
L 277.006505 117.54934 
L 277.225195 117.54934 
L 277.443884 111.923294 
L 277.662574 100.671201 
L 278.099953 100.671201 
L 278.318642 111.923294 
L 278.537332 111.923294 
L 278.756022 123.175387 
L 278.974711 117.54934 
L 279.193401 117.54934 
L 279.41209 100.671201 
L 279.63078 100.671201 
L 279.849469 106.297247 
L 282.911123 106.297247 
L 283.348502 95.045154 
L 285.972776 95.045154 
L 286.191465 89.419108 
L 290.127877 89.419108 
L 290.346567 95.045154 
L 290.565256 95.045154 
L 290.783946 100.671201 
L 291.440014 100.671201 
L 291.658704 106.297247 
L 295.376426 106.297247 
L 295.595115 100.671201 
L 298.438079 100.671201 
L 298.656769 95.045154 
L 301.062353 95.045154 
L 301.281043 89.419108 
L 305.654834 89.419108 
L 305.873523 95.045154 
L 309.153866 95.045154 
L 309.372555 89.419108 
L 309.809935 89.419108 
L 310.028624 95.045154 
L 312.215519 95.045154 
L 312.434209 89.419108 
L 314.183725 89.419108 
L 314.402415 83.793061 
L 319.213584 83.793061 
L 319.432274 89.419108 
L 319.650963 89.419108 
L 319.869653 83.793061 
L 324.462133 83.793061 
L 324.680822 78.167015 
L 327.305097 78.167015 
L 327.523786 83.793061 
L 336.052678 83.793061 
L 336.271367 78.167015 
L 336.927436 78.167015 
L 337.146126 83.793061 
L 342.175985 83.793061 
L 342.394674 89.419108 
L 345.893707 89.419108 
L 346.112396 83.793061 
L 351.798324 83.793061 
L 352.017014 78.167015 
L 354.641288 78.167015 
L 354.859977 72.540968 
L 355.078667 72.540968 
L 355.297356 78.167015 
L 360.327216 78.167015 
L 360.545905 72.540968 
L 362.295421 72.540968 
L 362.514111 66.914922 
L 364.263627 66.914922 
L 364.482317 72.540968 
L 364.919696 72.540968 
L 365.138385 78.167015 
L 366.013143 78.167015 
L 366.231833 83.793061 
L 378.915826 83.793061 
L 379.134515 89.419108 
L 381.102721 89.419108 
L 381.32141 83.793061 
L 381.758789 83.793061 
L 381.977479 78.167015 
L 386.569959 78.167015 
L 387.007338 66.914922 
L 390.506371 66.914922 
L 390.72506 61.288875 
L 393.349334 61.288875 
L 393.568024 66.914922 
L 393.786713 66.914922 
L 394.005403 72.540968 
L 395.53623 72.540968 
L 395.754919 66.914922 
L 397.285746 66.914922 
L 397.504435 72.540968 
L 397.504435 72.540968 
" style="fill:none;stroke:#ff00ff;stroke-linecap:square;stroke-width:1.5;"/>
   </g>
   <g id="line2d_34">
    <path clip-path="url(#p487e3a2c53)" d="M 40.603125 303.208875 
L 127.860247 303.208875 
L 128.078936 297.582828 
L 130.047142 297.582828 
L 130.265832 291.956782 
L 131.796658 291.956782 
L 132.015348 286.330735 
L 132.890106 286.330735 
L 133.108796 291.956782 
L 133.327485 291.956782 
L 133.546175 286.330735 
L 133.983554 286.330735 
L 134.202243 280.704689 
L 134.858312 280.704689 
L 135.077001 291.956782 
L 137.919965 291.956782 
L 138.357344 303.208875 
L 183.626077 303.208875 
L 183.844766 297.582828 
L 187.343799 297.582828 
L 187.781178 286.330735 
L 188.218557 286.330735 
L 188.437246 291.956782 
L 191.936279 291.956782 
L 192.154968 280.704689 
L 194.560553 280.704689 
L 194.779243 286.330735 
L 200.902549 286.330735 
L 201.121239 291.956782 
L 211.180957 291.956782 
L 211.618336 303.208875 
L 226.270535 303.208875 
L 226.489224 297.582828 
L 226.926603 297.582828 
L 227.145293 291.956782 
L 227.801361 291.956782 
L 228.020051 286.330735 
L 228.676119 286.330735 
L 228.894809 280.704689 
L 229.550878 280.704689 
L 229.769567 275.078642 
L 230.644325 275.078642 
L 230.863015 280.704689 
L 236.986322 280.704689 
L 237.205011 286.330735 
L 238.517148 286.330735 
L 238.735838 280.704689 
L 240.047975 280.704689 
L 240.266664 275.078642 
L 240.922733 275.078642 
L 241.141423 280.704689 
L 241.360112 280.704689 
L 241.578802 275.078642 
L 242.23487 275.078642 
L 242.45356 280.704689 
L 243.328318 280.704689 
L 243.547007 275.078642 
L 244.421766 275.078642 
L 244.640455 280.704689 
L 245.515213 280.704689 
L 245.733903 275.078642 
L 245.952592 275.078642 
L 246.171282 269.452596 
L 247.483419 269.452596 
L 247.702108 263.826549 
L 250.982451 263.826549 
L 251.201141 258.200503 
L 251.41983 246.94841 
L 253.388036 246.94841 
L 253.606726 241.322363 
L 253.825415 241.322363 
L 254.044105 230.07027 
L 254.262794 230.07027 
L 254.481484 224.444224 
L 255.356242 224.444224 
L 255.574931 218.818177 
L 257.105758 218.818177 
L 257.324448 213.192131 
L 257.543137 218.818177 
L 257.980516 207.566084 
L 258.855274 207.566084 
L 259.292653 196.313991 
L 259.511343 201.940038 
L 260.167412 201.940038 
L 260.386101 196.313991 
L 260.82348 196.313991 
L 261.260859 185.061898 
L 261.479549 185.061898 
L 261.698238 179.435852 
L 261.916928 179.435852 
L 262.135617 185.061898 
L 262.354307 196.313991 
L 264.541202 196.313991 
L 264.759892 201.940038 
L 265.197271 201.940038 
L 265.41596 196.313991 
L 265.63465 201.940038 
L 267.602856 201.940038 
L 267.821545 207.566084 
L 268.258924 207.566084 
L 268.696303 218.818177 
L 270.00844 218.818177 
L 270.22713 213.192131 
L 271.101888 213.192131 
L 271.320578 190.687945 
L 271.757957 179.435852 
L 271.976646 179.435852 
L 272.195336 173.809805 
L 272.632715 185.061898 
L 272.851404 185.061898 
L 273.070094 190.687945 
L 273.288783 190.687945 
L 273.507473 196.313991 
L 273.726162 196.313991 
L 274.382231 213.192131 
L 275.256989 213.192131 
L 275.475679 218.818177 
L 275.694368 218.818177 
L 275.913058 224.444224 
L 276.131747 224.444224 
L 276.350437 230.07027 
L 276.569126 230.07027 
L 276.787816 235.696317 
L 277.662574 235.696317 
L 277.881263 241.322363 
L 278.537332 241.322363 
L 278.756022 246.94841 
L 279.193401 246.94841 
L 279.63078 235.696317 
L 280.505538 185.061898 
L 280.942917 156.931666 
L 281.161606 151.305619 
L 281.817675 151.305619 
L 282.255054 140.053526 
L 282.473743 140.053526 
L 282.692433 145.679573 
L 283.129812 134.42748 
L 283.348502 123.175387 
L 283.785881 123.175387 
L 284.00457 117.54934 
L 284.441949 100.671201 
L 284.879328 89.419108 
L 287.722292 89.419108 
L 287.940982 95.045154 
L 292.314772 95.045154 
L 292.533462 100.671201 
L 294.064289 100.671201 
L 294.282978 106.297247 
L 296.032494 106.297247 
L 296.251184 100.671201 
L 301.062353 100.671201 
L 301.281043 89.419108 
L 306.529592 89.419108 
L 306.748281 95.045154 
L 309.372555 95.045154 
L 309.591245 89.419108 
L 309.809935 95.045154 
L 311.122072 95.045154 
L 311.340761 89.419108 
L 312.652898 89.419108 
L 312.871588 83.793061 
L 318.776205 83.793061 
L 318.994895 89.419108 
L 319.432274 89.419108 
L 319.650963 83.793061 
L 323.587375 83.793061 
L 323.806064 78.167015 
L 327.086407 78.167015 
L 327.305097 83.793061 
L 336.271367 83.793061 
L 336.490057 78.167015 
L 336.708747 78.167015 
L 336.927436 83.793061 
L 342.175985 83.793061 
L 342.394674 89.419108 
L 346.331086 89.419108 
L 346.549775 83.793061 
L 353.76653 83.793061 
L 353.985219 78.167015 
L 354.422598 78.167015 
L 354.641288 72.540968 
L 354.859977 72.540968 
L 355.078667 78.167015 
L 359.889837 78.167015 
L 360.108526 72.540968 
L 362.514111 72.540968 
L 362.7328 66.914922 
L 364.482317 66.914922 
L 364.701006 72.540968 
L 365.138385 72.540968 
L 365.357075 78.167015 
L 366.013143 78.167015 
L 366.231833 83.793061 
L 378.915826 83.793061 
L 379.134515 89.419108 
L 380.884031 89.419108 
L 381.102721 83.793061 
L 381.758789 83.793061 
L 381.977479 78.167015 
L 386.569959 78.167015 
L 387.007338 66.914922 
L 390.506371 66.914922 
L 390.72506 61.288875 
L 393.568024 61.288875 
L 394.005403 72.540968 
L 395.31754 72.540968 
L 395.53623 66.914922 
L 397.285746 66.914922 
L 397.504435 72.540968 
L 397.504435 72.540968 
" style="fill:none;stroke:#000000;stroke-linecap:square;stroke-width:1.5;"/>
   </g>
   <g id="patch_3">
    <path d="M 40.603125 315.304875 
L 40.603125 49.192875 
" style="fill:none;stroke:#000000;stroke-linecap:square;stroke-linejoin:miter;stroke-width:0.8;"/>
   </g>
   <g id="patch_4">
    <path d="M 397.723125 315.304875 
L 397.723125 49.192875 
" style="fill:none;stroke:#000000;stroke-linecap:square;stroke-linejoin:miter;stroke-width:0.8;"/>
   </g>
   <g id="patch_5">
    <path d="M 40.603125 315.304875 
L 397.723125 315.304875 
" style="fill:none;stroke:#000000;stroke-linecap:square;stroke-linejoin:miter;stroke-width:0.8;"/>
   </g>
   <g id="patch_6">
    <path d="M 40.603125 49.192875 
L 397.723125 49.192875 
" style="fill:none;stroke:#000000;stroke-linecap:square;stroke-linejoin:miter;stroke-width:0.8;"/>
   </g>
   <g id="text_17">
    <!-- Discovered nodes per time -->
    <defs>
     <path d="M 54.890625 33.015625 
L 54.890625 0 
L 45.90625 0 
L 45.90625 32.71875 
Q 45.90625 40.484375 42.875 44.328125 
Q 39.84375 48.1875 33.796875 48.1875 
Q 26.515625 48.1875 22.3125 43.546875 
Q 18.109375 38.921875 18.109375 30.90625 
L 18.109375 0 
L 9.078125 0 
L 9.078125 54.6875 
L 18.109375 54.6875 
L 18.109375 46.1875 
Q 21.34375 51.125 25.703125 53.5625 
Q 30.078125 56 35.796875 56 
Q 45.21875 56 50.046875 50.171875 
Q 54.890625 44.34375 54.890625 33.015625 
z
" id="DejaVuSans-6e"/>
     <path d="M 18.109375 8.203125 
L 18.109375 -20.796875 
L 9.078125 -20.796875 
L 9.078125 54.6875 
L 18.109375 54.6875 
L 18.109375 46.390625 
Q 20.953125 51.265625 25.265625 53.625 
Q 29.59375 56 35.59375 56 
Q 45.5625 56 51.78125 48.09375 
Q 58.015625 40.1875 58.015625 27.296875 
Q 58.015625 14.40625 51.78125 6.484375 
Q 45.5625 -1.421875 35.59375 -1.421875 
Q 29.59375 -1.421875 25.265625 0.953125 
Q 20.953125 3.328125 18.109375 8.203125 
z
M 48.6875 27.296875 
Q 48.6875 37.203125 44.609375 42.84375 
Q 40.53125 48.484375 33.40625 48.484375 
Q 26.265625 48.484375 22.1875 42.84375 
Q 18.109375 37.203125 18.109375 27.296875 
Q 18.109375 17.390625 22.1875 11.75 
Q 26.265625 6.109375 33.40625 6.109375 
Q 40.53125 6.109375 44.609375 11.75 
Q 48.6875 17.390625 48.6875 27.296875 
z
" id="DejaVuSans-70"/>
     <path d="M 18.3125 70.21875 
L 18.3125 54.6875 
L 36.8125 54.6875 
L 36.8125 47.703125 
L 18.3125 47.703125 
L 18.3125 18.015625 
Q 18.3125 11.328125 20.140625 9.421875 
Q 21.96875 7.515625 27.59375 7.515625 
L 36.8125 7.515625 
L 36.8125 0 
L 27.59375 0 
Q 17.1875 0 13.234375 3.875 
Q 9.28125 7.765625 9.28125 18.015625 
L 9.28125 47.703125 
L 2.6875 47.703125 
L 2.6875 54.6875 
L 9.28125 54.6875 
L 9.28125 70.21875 
z
" id="DejaVuSans-74"/>
    </defs>
    <g transform="translate(138.227813 16.318125)scale(0.12 -0.12)">
     <use xlink:href="#DejaVuSans-44"/>
     <use x="77.001953" xlink:href="#DejaVuSans-69"/>
     <use x="104.785156" xlink:href="#DejaVuSans-73"/>
     <use x="156.884766" xlink:href="#DejaVuSans-63"/>
     <use x="211.865234" xlink:href="#DejaVuSans-6f"/>
     <use x="273.046875" xlink:href="#DejaVuSans-76"/>
     <use x="332.226562" xlink:href="#DejaVuSans-65"/>
     <use x="393.75" xlink:href="#DejaVuSans-72"/>
     <use x="434.832031" xlink:href="#DejaVuSans-65"/>
     <use x="496.355469" xlink:href="#DejaVuSans-64"/>
     <use x="559.832031" xlink:href="#DejaVuSans-20"/>
     <use x="591.619141" xlink:href="#DejaVuSans-6e"/>
     <use x="654.998047" xlink:href="#DejaVuSans-6f"/>
     <use x="716.179688" xlink:href="#DejaVuSans-64"/>
     <use x="779.65625" xlink:href="#DejaVuSans-65"/>
     <use x="841.179688" xlink:href="#DejaVuSans-73"/>
     <use x="893.279297" xlink:href="#DejaVuSans-20"/>
     <use x="925.066406" xlink:href="#DejaVuSans-70"/>
     <use x="988.542969" xlink:href="#DejaVuSans-65"/>
     <use x="1050.066406" xlink:href="#DejaVuSans-72"/>
     <use x="1091.179688" xlink:href="#DejaVuSans-20"/>
     <use x="1122.966797" xlink:href="#DejaVuSans-74"/>
     <use x="1162.175781" xlink:href="#DejaVuSans-69"/>
     <use x="1189.958984" xlink:href="#DejaVuSans-6d"/>
     <use x="1287.371094" xlink:href="#DejaVuSans-65"/>
    </g>
    <!--  -->
    <g transform="translate(219.163125 29.7555)scale(0.12 -0.12)"/>
    <!--  -->
    <g transform="translate(219.163125 43.192875)scale(0.12 -0.12)"/>
   </g>
   <g id="legend_1">
    <g id="patch_7">
     <path d="M 411.865525 139.939385 
L 482.471775 139.939385 
Q 484.471775 139.939385 484.471775 137.939385 
L 484.471775 50.870635 
Q 484.471775 48.870635 482.471775 48.870635 
L 411.865525 48.870635 
Q 409.865525 48.870635 409.865525 50.870635 
L 409.865525 137.939385 
Q 409.865525 139.939385 411.865525 139.939385 
z
" style="fill:#ffffff;opacity:0.8;stroke:#cccccc;stroke-linejoin:miter;"/>
    </g>
    <g id="line2d_35">
     <path d="M 413.865525 56.969072 
L 433.865525 56.969072 
" style="fill:none;stroke:#008000;stroke-linecap:square;stroke-width:1.5;"/>
    </g>
    <g id="line2d_36"/>
    <g id="text_18">
     <!-- drone 0 -->
     <g transform="translate(441.865525 60.469072)scale(0.1 -0.1)">
      <use xlink:href="#DejaVuSans-64"/>
      <use x="63.476562" xlink:href="#DejaVuSans-72"/>
      <use x="104.558594" xlink:href="#DejaVuSans-6f"/>
      <use x="165.740234" xlink:href="#DejaVuSans-6e"/>
      <use x="229.119141" xlink:href="#DejaVuSans-65"/>
      <use x="290.642578" xlink:href="#DejaVuSans-20"/>
      <use x="322.429688" xlink:href="#DejaVuSans-30"/>
     </g>
    </g>
    <g id="line2d_37">
     <path d="M 413.865525 71.647197 
L 433.865525 71.647197 
" style="fill:none;stroke:#0000ff;stroke-linecap:square;stroke-width:1.5;"/>
    </g>
    <g id="line2d_38"/>
    <g id="text_19">
     <!-- drone 1 -->
     <g transform="translate(441.865525 75.147197)scale(0.1 -0.1)">
      <use xlink:href="#DejaVuSans-64"/>
      <use x="63.476562" xlink:href="#DejaVuSans-72"/>
      <use x="104.558594" xlink:href="#DejaVuSans-6f"/>
      <use x="165.740234" xlink:href="#DejaVuSans-6e"/>
      <use x="229.119141" xlink:href="#DejaVuSans-65"/>
      <use x="290.642578" xlink:href="#DejaVuSans-20"/>
      <use x="322.429688" xlink:href="#DejaVuSans-31"/>
     </g>
    </g>
    <g id="line2d_39">
     <path d="M 413.865525 86.325322 
L 433.865525 86.325322 
" style="fill:none;stroke:#ff0000;stroke-linecap:square;stroke-width:1.5;"/>
    </g>
    <g id="line2d_40"/>
    <g id="text_20">
     <!-- drone 2 -->
     <g transform="translate(441.865525 89.825322)scale(0.1 -0.1)">
      <use xlink:href="#DejaVuSans-64"/>
      <use x="63.476562" xlink:href="#DejaVuSans-72"/>
      <use x="104.558594" xlink:href="#DejaVuSans-6f"/>
      <use x="165.740234" xlink:href="#DejaVuSans-6e"/>
      <use x="229.119141" xlink:href="#DejaVuSans-65"/>
      <use x="290.642578" xlink:href="#DejaVuSans-20"/>
      <use x="322.429688" xlink:href="#DejaVuSans-32"/>
     </g>
    </g>
    <g id="line2d_41">
     <path d="M 413.865525 101.003447 
L 433.865525 101.003447 
" style="fill:none;stroke:#00ffff;stroke-linecap:square;stroke-width:1.5;"/>
    </g>
    <g id="line2d_42"/>
    <g id="text_21">
     <!-- drone 3 -->
     <g transform="translate(441.865525 104.503447)scale(0.1 -0.1)">
      <use xlink:href="#DejaVuSans-64"/>
      <use x="63.476562" xlink:href="#DejaVuSans-72"/>
      <use x="104.558594" xlink:href="#DejaVuSans-6f"/>
      <use x="165.740234" xlink:href="#DejaVuSans-6e"/>
      <use x="229.119141" xlink:href="#DejaVuSans-65"/>
      <use x="290.642578" xlink:href="#DejaVuSans-20"/>
      <use x="322.429688" xlink:href="#DejaVuSans-33"/>
     </g>
    </g>
    <g id="line2d_43">
     <path d="M 413.865525 115.681572 
L 433.865525 115.681572 
" style="fill:none;stroke:#ff00ff;stroke-linecap:square;stroke-width:1.5;"/>
    </g>
    <g id="line2d_44"/>
    <g id="text_22">
     <!-- drone 4 -->
     <g transform="translate(441.865525 119.181572)scale(0.1 -0.1)">
      <use xlink:href="#DejaVuSans-64"/>
      <use x="63.476562" xlink:href="#DejaVuSans-72"/>
      <use x="104.558594" xlink:href="#DejaVuSans-6f"/>
      <use x="165.740234" xlink:href="#DejaVuSans-6e"/>
      <use x="229.119141" xlink:href="#DejaVuSans-65"/>
      <use x="290.642578" xlink:href="#DejaVuSans-20"/>
      <use x="322.429688" xlink:href="#DejaVuSans-34"/>
     </g>
    </g>
    <g id="line2d_45">
     <path d="M 413.865525 130.359697 
L 433.865525 130.359697 
" style="fill:none;stroke:#000000;stroke-linecap:square;stroke-width:1.5;"/>
    </g>
    <g id="line2d_46"/>
    <g id="text_23">
     <!-- drone 5 -->
     <defs>
      <path d="M 10.796875 72.90625 
L 49.515625 72.90625 
L 49.515625 64.59375 
L 19.828125 64.59375 
L 19.828125 46.734375 
Q 21.96875 47.46875 24.109375 47.828125 
Q 26.265625 48.1875 28.421875 48.1875 
Q 40.625 48.1875 47.75 41.5 
Q 54.890625 34.8125 54.890625 23.390625 
Q 54.890625 11.625 47.5625 5.09375 
Q 40.234375 -1.421875 26.90625 -1.421875 
Q 22.3125 -1.421875 17.546875 -0.640625 
Q 12.796875 0.140625 7.71875 1.703125 
L 7.71875 11.625 
Q 12.109375 9.234375 16.796875 8.0625 
Q 21.484375 6.890625 26.703125 6.890625 
Q 35.15625 6.890625 40.078125 11.328125 
Q 45.015625 15.765625 45.015625 23.390625 
Q 45.015625 31 40.078125 35.4375 
Q 35.15625 39.890625 26.703125 39.890625 
Q 22.75 39.890625 18.8125 39.015625 
Q 14.890625 38.140625 10.796875 36.28125 
z
" id="DejaVuSans-35"/>
     </defs>
     <g transform="translate(441.865525 133.859697)scale(0.1 -0.1)">
      <use xlink:href="#DejaVuSans-64"/>
      <use x="63.476562" xlink:href="#DejaVuSans-72"/>
      <use x="104.558594" xlink:href="#DejaVuSans-6f"/>
      <use x="165.740234" xlink:href="#DejaVuSans-6e"/>
      <use x="229.119141" xlink:href="#DejaVuSans-65"/>
      <use x="290.642578" xlink:href="#DejaVuSans-20"/>
      <use x="322.429688" xlink:href="#DejaVuSans-35"/>
     </g>
    </g>
   </g>
  </g>
 </g>
 <defs>
  <clipPath id="p487e3a2c53">
   <rect height="266.112" width="357.12" x="40.603125" y="49.192875"/>
  </clipPath>
 </defs>
</svg>
