<?xml version="1.0" encoding="utf-8" standalone="no"?>
<!DOCTYPE svg PUBLIC "-//W3C//DTD SVG 1.1//EN"
  "http://www.w3.org/Graphics/SVG/1.1/DTD/svg11.dtd">
<!-- Created with matplotlib (http://matplotlib.org/) -->
<svg height="352pt" version="1.1" viewBox="0 0 537 352" width="537pt" xmlns="http://www.w3.org/2000/svg" xmlns:xlink="http://www.w3.org/1999/xlink">
 <defs>
  <style type="text/css">
*{stroke-linecap:butt;stroke-linejoin:round;}
  </style>
 </defs>
 <g id="figure_1">
  <g id="patch_1">
   <path d="M 0 352.861125 
L 537.147702 352.861125 
L 537.147702 0 
L 0 0 
z
" style="fill:#ffffff;"/>
  </g>
  <g id="axes_1">
   <g id="patch_2">
    <path d="M 40.603125 315.304875 
L 397.723125 315.304875 
L 397.723125 49.192875 
L 40.603125 49.192875 
z
" style="fill:#ffffff;"/>
   </g>
   <g id="matplotlib.axis_1">
    <g id="xtick_1">
     <g id="line2d_1">
      <path clip-path="url(#pfd77ca3495)" d="M 40.603125 315.304875 
L 40.603125 49.192875 
" style="fill:none;stroke:#b0b0b0;stroke-linecap:square;stroke-width:0.8;"/>
     </g>
     <g id="line2d_2">
      <defs>
       <path d="M 0 0 
L 0 3.5 
" id="m925ec96859" style="stroke:#000000;stroke-width:0.8;"/>
      </defs>
      <g>
       <use style="stroke:#000000;stroke-width:0.8;" x="40.603125" xlink:href="#m925ec96859" y="315.304875"/>
      </g>
     </g>
     <g id="text_1">
      <!-- 0 -->
      <defs>
       <path d="M 31.78125 66.40625 
Q 24.171875 66.40625 20.328125 58.90625 
Q 16.5 51.421875 16.5 36.375 
Q 16.5 21.390625 20.328125 13.890625 
Q 24.171875 6.390625 31.78125 6.390625 
Q 39.453125 6.390625 43.28125 13.890625 
Q 47.125 21.390625 47.125 36.375 
Q 47.125 51.421875 43.28125 58.90625 
Q 39.453125 66.40625 31.78125 66.40625 
z
M 31.78125 74.21875 
Q 44.046875 74.21875 50.515625 64.515625 
Q 56.984375 54.828125 56.984375 36.375 
Q 56.984375 17.96875 50.515625 8.265625 
Q 44.046875 -1.421875 31.78125 -1.421875 
Q 19.53125 -1.421875 13.0625 8.265625 
Q 6.59375 17.96875 6.59375 36.375 
Q 6.59375 54.828125 13.0625 64.515625 
Q 19.53125 74.21875 31.78125 74.21875 
z
" id="DejaVuSans-30"/>
      </defs>
      <g transform="translate(37.421875 329.903312)scale(0.1 -0.1)">
       <use xlink:href="#DejaVuSans-30"/>
      </g>
     </g>
    </g>
    <g id="xtick_2">
     <g id="line2d_3">
      <path clip-path="url(#pfd77ca3495)" d="M 84.341031 315.304875 
L 84.341031 49.192875 
" style="fill:none;stroke:#b0b0b0;stroke-linecap:square;stroke-width:0.8;"/>
     </g>
     <g id="line2d_4">
      <g>
       <use style="stroke:#000000;stroke-width:0.8;" x="84.341031" xlink:href="#m925ec96859" y="315.304875"/>
      </g>
     </g>
     <g id="text_2">
      <!-- 200 -->
      <defs>
       <path d="M 19.1875 8.296875 
L 53.609375 8.296875 
L 53.609375 0 
L 7.328125 0 
L 7.328125 8.296875 
Q 12.9375 14.109375 22.625 23.890625 
Q 32.328125 33.6875 34.8125 36.53125 
Q 39.546875 41.84375 41.421875 45.53125 
Q 43.3125 49.21875 43.3125 52.78125 
Q 43.3125 58.59375 39.234375 62.25 
Q 35.15625 65.921875 28.609375 65.921875 
Q 23.96875 65.921875 18.8125 64.3125 
Q 13.671875 62.703125 7.8125 59.421875 
L 7.8125 69.390625 
Q 13.765625 71.78125 18.9375 73 
Q 24.125 74.21875 28.421875 74.21875 
Q 39.75 74.21875 46.484375 68.546875 
Q 53.21875 62.890625 53.21875 53.421875 
Q 53.21875 48.921875 51.53125 44.890625 
Q 49.859375 40.875 45.40625 35.40625 
Q 44.1875 33.984375 37.640625 27.21875 
Q 31.109375 20.453125 19.1875 8.296875 
z
" id="DejaVuSans-32"/>
      </defs>
      <g transform="translate(74.797281 329.903312)scale(0.1 -0.1)">
       <use xlink:href="#DejaVuSans-32"/>
       <use x="63.623047" xlink:href="#DejaVuSans-30"/>
       <use x="127.246094" xlink:href="#DejaVuSans-30"/>
      </g>
     </g>
    </g>
    <g id="xtick_3">
     <g id="line2d_5">
      <path clip-path="url(#pfd77ca3495)" d="M 128.078936 315.304875 
L 128.078936 49.192875 
" style="fill:none;stroke:#b0b0b0;stroke-linecap:square;stroke-width:0.8;"/>
     </g>
     <g id="line2d_6">
      <g>
       <use style="stroke:#000000;stroke-width:0.8;" x="128.078936" xlink:href="#m925ec96859" y="315.304875"/>
      </g>
     </g>
     <g id="text_3">
      <!-- 400 -->
      <defs>
       <path d="M 37.796875 64.3125 
L 12.890625 25.390625 
L 37.796875 25.390625 
z
M 35.203125 72.90625 
L 47.609375 72.90625 
L 47.609375 25.390625 
L 58.015625 25.390625 
L 58.015625 17.1875 
L 47.609375 17.1875 
L 47.609375 0 
L 37.796875 0 
L 37.796875 17.1875 
L 4.890625 17.1875 
L 4.890625 26.703125 
z
" id="DejaVuSans-34"/>
      </defs>
      <g transform="translate(118.535186 329.903312)scale(0.1 -0.1)">
       <use xlink:href="#DejaVuSans-34"/>
       <use x="63.623047" xlink:href="#DejaVuSans-30"/>
       <use x="127.246094" xlink:href="#DejaVuSans-30"/>
      </g>
     </g>
    </g>
    <g id="xtick_4">
     <g id="line2d_7">
      <path clip-path="url(#pfd77ca3495)" d="M 171.816842 315.304875 
L 171.816842 49.192875 
" style="fill:none;stroke:#b0b0b0;stroke-linecap:square;stroke-width:0.8;"/>
     </g>
     <g id="line2d_8">
      <g>
       <use style="stroke:#000000;stroke-width:0.8;" x="171.816842" xlink:href="#m925ec96859" y="315.304875"/>
      </g>
     </g>
     <g id="text_4">
      <!-- 600 -->
      <defs>
       <path d="M 33.015625 40.375 
Q 26.375 40.375 22.484375 35.828125 
Q 18.609375 31.296875 18.609375 23.390625 
Q 18.609375 15.53125 22.484375 10.953125 
Q 26.375 6.390625 33.015625 6.390625 
Q 39.65625 6.390625 43.53125 10.953125 
Q 47.40625 15.53125 47.40625 23.390625 
Q 47.40625 31.296875 43.53125 35.828125 
Q 39.65625 40.375 33.015625 40.375 
z
M 52.59375 71.296875 
L 52.59375 62.3125 
Q 48.875 64.0625 45.09375 64.984375 
Q 41.3125 65.921875 37.59375 65.921875 
Q 27.828125 65.921875 22.671875 59.328125 
Q 17.53125 52.734375 16.796875 39.40625 
Q 19.671875 43.65625 24.015625 45.921875 
Q 28.375 48.1875 33.59375 48.1875 
Q 44.578125 48.1875 50.953125 41.515625 
Q 57.328125 34.859375 57.328125 23.390625 
Q 57.328125 12.15625 50.6875 5.359375 
Q 44.046875 -1.421875 33.015625 -1.421875 
Q 20.359375 -1.421875 13.671875 8.265625 
Q 6.984375 17.96875 6.984375 36.375 
Q 6.984375 53.65625 15.1875 63.9375 
Q 23.390625 74.21875 37.203125 74.21875 
Q 40.921875 74.21875 44.703125 73.484375 
Q 48.484375 72.75 52.59375 71.296875 
z
" id="DejaVuSans-36"/>
      </defs>
      <g transform="translate(162.273092 329.903312)scale(0.1 -0.1)">
       <use xlink:href="#DejaVuSans-36"/>
       <use x="63.623047" xlink:href="#DejaVuSans-30"/>
       <use x="127.246094" xlink:href="#DejaVuSans-30"/>
      </g>
     </g>
    </g>
    <g id="xtick_5">
     <g id="line2d_9">
      <path clip-path="url(#pfd77ca3495)" d="M 215.554748 315.304875 
L 215.554748 49.192875 
" style="fill:none;stroke:#b0b0b0;stroke-linecap:square;stroke-width:0.8;"/>
     </g>
     <g id="line2d_10">
      <g>
       <use style="stroke:#000000;stroke-width:0.8;" x="215.554748" xlink:href="#m925ec96859" y="315.304875"/>
      </g>
     </g>
     <g id="text_5">
      <!-- 800 -->
      <defs>
       <path d="M 31.78125 34.625 
Q 24.75 34.625 20.71875 30.859375 
Q 16.703125 27.09375 16.703125 20.515625 
Q 16.703125 13.921875 20.71875 10.15625 
Q 24.75 6.390625 31.78125 6.390625 
Q 38.8125 6.390625 42.859375 10.171875 
Q 46.921875 13.96875 46.921875 20.515625 
Q 46.921875 27.09375 42.890625 30.859375 
Q 38.875 34.625 31.78125 34.625 
z
M 21.921875 38.8125 
Q 15.578125 40.375 12.03125 44.71875 
Q 8.5 49.078125 8.5 55.328125 
Q 8.5 64.0625 14.71875 69.140625 
Q 20.953125 74.21875 31.78125 74.21875 
Q 42.671875 74.21875 48.875 69.140625 
Q 55.078125 64.0625 55.078125 55.328125 
Q 55.078125 49.078125 51.53125 44.71875 
Q 48 40.375 41.703125 38.8125 
Q 48.828125 37.15625 52.796875 32.3125 
Q 56.78125 27.484375 56.78125 20.515625 
Q 56.78125 9.90625 50.3125 4.234375 
Q 43.84375 -1.421875 31.78125 -1.421875 
Q 19.734375 -1.421875 13.25 4.234375 
Q 6.78125 9.90625 6.78125 20.515625 
Q 6.78125 27.484375 10.78125 32.3125 
Q 14.796875 37.15625 21.921875 38.8125 
z
M 18.3125 54.390625 
Q 18.3125 48.734375 21.84375 45.5625 
Q 25.390625 42.390625 31.78125 42.390625 
Q 38.140625 42.390625 41.71875 45.5625 
Q 45.3125 48.734375 45.3125 54.390625 
Q 45.3125 60.0625 41.71875 63.234375 
Q 38.140625 66.40625 31.78125 66.40625 
Q 25.390625 66.40625 21.84375 63.234375 
Q 18.3125 60.0625 18.3125 54.390625 
z
" id="DejaVuSans-38"/>
      </defs>
      <g transform="translate(206.010998 329.903312)scale(0.1 -0.1)">
       <use xlink:href="#DejaVuSans-38"/>
       <use x="63.623047" xlink:href="#DejaVuSans-30"/>
       <use x="127.246094" xlink:href="#DejaVuSans-30"/>
      </g>
     </g>
    </g>
    <g id="xtick_6">
     <g id="line2d_11">
      <path clip-path="url(#pfd77ca3495)" d="M 259.292653 315.304875 
L 259.292653 49.192875 
" style="fill:none;stroke:#b0b0b0;stroke-linecap:square;stroke-width:0.8;"/>
     </g>
     <g id="line2d_12">
      <g>
       <use style="stroke:#000000;stroke-width:0.8;" x="259.292653" xlink:href="#m925ec96859" y="315.304875"/>
      </g>
     </g>
     <g id="text_6">
      <!-- 1000 -->
      <defs>
       <path d="M 12.40625 8.296875 
L 28.515625 8.296875 
L 28.515625 63.921875 
L 10.984375 60.40625 
L 10.984375 69.390625 
L 28.421875 72.90625 
L 38.28125 72.90625 
L 38.28125 8.296875 
L 54.390625 8.296875 
L 54.390625 0 
L 12.40625 0 
z
" id="DejaVuSans-31"/>
      </defs>
      <g transform="translate(246.567653 329.903312)scale(0.1 -0.1)">
       <use xlink:href="#DejaVuSans-31"/>
       <use x="63.623047" xlink:href="#DejaVuSans-30"/>
       <use x="127.246094" xlink:href="#DejaVuSans-30"/>
       <use x="190.869141" xlink:href="#DejaVuSans-30"/>
      </g>
     </g>
    </g>
    <g id="xtick_7">
     <g id="line2d_13">
      <path clip-path="url(#pfd77ca3495)" d="M 303.030559 315.304875 
L 303.030559 49.192875 
" style="fill:none;stroke:#b0b0b0;stroke-linecap:square;stroke-width:0.8;"/>
     </g>
     <g id="line2d_14">
      <g>
       <use style="stroke:#000000;stroke-width:0.8;" x="303.030559" xlink:href="#m925ec96859" y="315.304875"/>
      </g>
     </g>
     <g id="text_7">
      <!-- 1200 -->
      <g transform="translate(290.305559 329.903312)scale(0.1 -0.1)">
       <use xlink:href="#DejaVuSans-31"/>
       <use x="63.623047" xlink:href="#DejaVuSans-32"/>
       <use x="127.246094" xlink:href="#DejaVuSans-30"/>
       <use x="190.869141" xlink:href="#DejaVuSans-30"/>
      </g>
     </g>
    </g>
    <g id="xtick_8">
     <g id="line2d_15">
      <path clip-path="url(#pfd77ca3495)" d="M 346.768465 315.304875 
L 346.768465 49.192875 
" style="fill:none;stroke:#b0b0b0;stroke-linecap:square;stroke-width:0.8;"/>
     </g>
     <g id="line2d_16">
      <g>
       <use style="stroke:#000000;stroke-width:0.8;" x="346.768465" xlink:href="#m925ec96859" y="315.304875"/>
      </g>
     </g>
     <g id="text_8">
      <!-- 1400 -->
      <g transform="translate(334.043465 329.903312)scale(0.1 -0.1)">
       <use xlink:href="#DejaVuSans-31"/>
       <use x="63.623047" xlink:href="#DejaVuSans-34"/>
       <use x="127.246094" xlink:href="#DejaVuSans-30"/>
       <use x="190.869141" xlink:href="#DejaVuSans-30"/>
      </g>
     </g>
    </g>
    <g id="xtick_9">
     <g id="line2d_17">
      <path clip-path="url(#pfd77ca3495)" d="M 390.506371 315.304875 
L 390.506371 49.192875 
" style="fill:none;stroke:#b0b0b0;stroke-linecap:square;stroke-width:0.8;"/>
     </g>
     <g id="line2d_18">
      <g>
       <use style="stroke:#000000;stroke-width:0.8;" x="390.506371" xlink:href="#m925ec96859" y="315.304875"/>
      </g>
     </g>
     <g id="text_9">
      <!-- 1600 -->
      <g transform="translate(377.781371 329.903312)scale(0.1 -0.1)">
       <use xlink:href="#DejaVuSans-31"/>
       <use x="63.623047" xlink:href="#DejaVuSans-36"/>
       <use x="127.246094" xlink:href="#DejaVuSans-30"/>
       <use x="190.869141" xlink:href="#DejaVuSans-30"/>
      </g>
     </g>
    </g>
    <g id="text_10">
     <!-- Time(s) -->
     <defs>
      <path d="M -0.296875 72.90625 
L 61.375 72.90625 
L 61.375 64.59375 
L 35.5 64.59375 
L 35.5 0 
L 25.59375 0 
L 25.59375 64.59375 
L -0.296875 64.59375 
z
" id="DejaVuSans-54"/>
      <path d="M 9.421875 54.6875 
L 18.40625 54.6875 
L 18.40625 0 
L 9.421875 0 
z
M 9.421875 75.984375 
L 18.40625 75.984375 
L 18.40625 64.59375 
L 9.421875 64.59375 
z
" id="DejaVuSans-69"/>
      <path d="M 52 44.1875 
Q 55.375 50.25 60.0625 53.125 
Q 64.75 56 71.09375 56 
Q 79.640625 56 84.28125 50.015625 
Q 88.921875 44.046875 88.921875 33.015625 
L 88.921875 0 
L 79.890625 0 
L 79.890625 32.71875 
Q 79.890625 40.578125 77.09375 44.375 
Q 74.3125 48.1875 68.609375 48.1875 
Q 61.625 48.1875 57.5625 43.546875 
Q 53.515625 38.921875 53.515625 30.90625 
L 53.515625 0 
L 44.484375 0 
L 44.484375 32.71875 
Q 44.484375 40.625 41.703125 44.40625 
Q 38.921875 48.1875 33.109375 48.1875 
Q 26.21875 48.1875 22.15625 43.53125 
Q 18.109375 38.875 18.109375 30.90625 
L 18.109375 0 
L 9.078125 0 
L 9.078125 54.6875 
L 18.109375 54.6875 
L 18.109375 46.1875 
Q 21.1875 51.21875 25.484375 53.609375 
Q 29.78125 56 35.6875 56 
Q 41.65625 56 45.828125 52.96875 
Q 50 49.953125 52 44.1875 
z
" id="DejaVuSans-6d"/>
      <path d="M 56.203125 29.59375 
L 56.203125 25.203125 
L 14.890625 25.203125 
Q 15.484375 15.921875 20.484375 11.0625 
Q 25.484375 6.203125 34.421875 6.203125 
Q 39.59375 6.203125 44.453125 7.46875 
Q 49.3125 8.734375 54.109375 11.28125 
L 54.109375 2.78125 
Q 49.265625 0.734375 44.1875 -0.34375 
Q 39.109375 -1.421875 33.890625 -1.421875 
Q 20.796875 -1.421875 13.15625 6.1875 
Q 5.515625 13.8125 5.515625 26.8125 
Q 5.515625 40.234375 12.765625 48.109375 
Q 20.015625 56 32.328125 56 
Q 43.359375 56 49.78125 48.890625 
Q 56.203125 41.796875 56.203125 29.59375 
z
M 47.21875 32.234375 
Q 47.125 39.59375 43.09375 43.984375 
Q 39.0625 48.390625 32.421875 48.390625 
Q 24.90625 48.390625 20.390625 44.140625 
Q 15.875 39.890625 15.1875 32.171875 
z
" id="DejaVuSans-65"/>
      <path d="M 31 75.875 
Q 24.46875 64.65625 21.28125 53.65625 
Q 18.109375 42.671875 18.109375 31.390625 
Q 18.109375 20.125 21.3125 9.0625 
Q 24.515625 -2 31 -13.1875 
L 23.1875 -13.1875 
Q 15.875 -1.703125 12.234375 9.375 
Q 8.59375 20.453125 8.59375 31.390625 
Q 8.59375 42.28125 12.203125 53.3125 
Q 15.828125 64.359375 23.1875 75.875 
z
" id="DejaVuSans-28"/>
      <path d="M 44.28125 53.078125 
L 44.28125 44.578125 
Q 40.484375 46.53125 36.375 47.5 
Q 32.28125 48.484375 27.875 48.484375 
Q 21.1875 48.484375 17.84375 46.4375 
Q 14.5 44.390625 14.5 40.28125 
Q 14.5 37.15625 16.890625 35.375 
Q 19.28125 33.59375 26.515625 31.984375 
L 29.59375 31.296875 
Q 39.15625 29.25 43.1875 25.515625 
Q 47.21875 21.78125 47.21875 15.09375 
Q 47.21875 7.46875 41.1875 3.015625 
Q 35.15625 -1.421875 24.609375 -1.421875 
Q 20.21875 -1.421875 15.453125 -0.5625 
Q 10.6875 0.296875 5.421875 2 
L 5.421875 11.28125 
Q 10.40625 8.6875 15.234375 7.390625 
Q 20.0625 6.109375 24.8125 6.109375 
Q 31.15625 6.109375 34.5625 8.28125 
Q 37.984375 10.453125 37.984375 14.40625 
Q 37.984375 18.0625 35.515625 20.015625 
Q 33.0625 21.96875 24.703125 23.78125 
L 21.578125 24.515625 
Q 13.234375 26.265625 9.515625 29.90625 
Q 5.8125 33.546875 5.8125 39.890625 
Q 5.8125 47.609375 11.28125 51.796875 
Q 16.75 56 26.8125 56 
Q 31.78125 56 36.171875 55.265625 
Q 40.578125 54.546875 44.28125 53.078125 
z
" id="DejaVuSans-73"/>
      <path d="M 8.015625 75.875 
L 15.828125 75.875 
Q 23.140625 64.359375 26.78125 53.3125 
Q 30.421875 42.28125 30.421875 31.390625 
Q 30.421875 20.453125 26.78125 9.375 
Q 23.140625 -1.703125 15.828125 -13.1875 
L 8.015625 -13.1875 
Q 14.5 -2 17.703125 9.0625 
Q 20.90625 20.125 20.90625 31.390625 
Q 20.90625 42.671875 17.703125 53.65625 
Q 14.5 64.65625 8.015625 75.875 
z
" id="DejaVuSans-29"/>
     </defs>
     <g transform="translate(200.269375 343.581437)scale(0.1 -0.1)">
      <use xlink:href="#DejaVuSans-54"/>
      <use x="61.037109" xlink:href="#DejaVuSans-69"/>
      <use x="88.820312" xlink:href="#DejaVuSans-6d"/>
      <use x="186.232422" xlink:href="#DejaVuSans-65"/>
      <use x="247.755859" xlink:href="#DejaVuSans-28"/>
      <use x="286.769531" xlink:href="#DejaVuSans-73"/>
      <use x="338.869141" xlink:href="#DejaVuSans-29"/>
     </g>
    </g>
   </g>
   <g id="matplotlib.axis_2">
    <g id="ytick_1">
     <g id="line2d_19">
      <path clip-path="url(#pfd77ca3495)" d="M 40.603125 303.208875 
L 397.723125 303.208875 
" style="fill:none;stroke:#b0b0b0;stroke-linecap:square;stroke-width:0.8;"/>
     </g>
     <g id="line2d_20">
      <defs>
       <path d="M 0 0 
L -3.5 0 
" id="mca5c99adf5" style="stroke:#000000;stroke-width:0.8;"/>
      </defs>
      <g>
       <use style="stroke:#000000;stroke-width:0.8;" x="40.603125" xlink:href="#mca5c99adf5" y="303.208875"/>
      </g>
     </g>
     <g id="text_11">
      <!-- 0 -->
      <g transform="translate(27.240625 307.008094)scale(0.1 -0.1)">
       <use xlink:href="#DejaVuSans-30"/>
      </g>
     </g>
    </g>
    <g id="ytick_2">
     <g id="line2d_21">
      <path clip-path="url(#pfd77ca3495)" d="M 40.603125 269.135636 
L 397.723125 269.135636 
" style="fill:none;stroke:#b0b0b0;stroke-linecap:square;stroke-width:0.8;"/>
     </g>
     <g id="line2d_22">
      <g>
       <use style="stroke:#000000;stroke-width:0.8;" x="40.603125" xlink:href="#mca5c99adf5" y="269.135636"/>
      </g>
     </g>
     <g id="text_12">
      <!-- 10 -->
      <g transform="translate(20.878125 272.934854)scale(0.1 -0.1)">
       <use xlink:href="#DejaVuSans-31"/>
       <use x="63.623047" xlink:href="#DejaVuSans-30"/>
      </g>
     </g>
    </g>
    <g id="ytick_3">
     <g id="line2d_23">
      <path clip-path="url(#pfd77ca3495)" d="M 40.603125 235.062396 
L 397.723125 235.062396 
" style="fill:none;stroke:#b0b0b0;stroke-linecap:square;stroke-width:0.8;"/>
     </g>
     <g id="line2d_24">
      <g>
       <use style="stroke:#000000;stroke-width:0.8;" x="40.603125" xlink:href="#mca5c99adf5" y="235.062396"/>
      </g>
     </g>
     <g id="text_13">
      <!-- 20 -->
      <g transform="translate(20.878125 238.861615)scale(0.1 -0.1)">
       <use xlink:href="#DejaVuSans-32"/>
       <use x="63.623047" xlink:href="#DejaVuSans-30"/>
      </g>
     </g>
    </g>
    <g id="ytick_4">
     <g id="line2d_25">
      <path clip-path="url(#pfd77ca3495)" d="M 40.603125 200.989157 
L 397.723125 200.989157 
" style="fill:none;stroke:#b0b0b0;stroke-linecap:square;stroke-width:0.8;"/>
     </g>
     <g id="line2d_26">
      <g>
       <use style="stroke:#000000;stroke-width:0.8;" x="40.603125" xlink:href="#mca5c99adf5" y="200.989157"/>
      </g>
     </g>
     <g id="text_14">
      <!-- 30 -->
      <defs>
       <path d="M 40.578125 39.3125 
Q 47.65625 37.796875 51.625 33 
Q 55.609375 28.21875 55.609375 21.1875 
Q 55.609375 10.40625 48.1875 4.484375 
Q 40.765625 -1.421875 27.09375 -1.421875 
Q 22.515625 -1.421875 17.65625 -0.515625 
Q 12.796875 0.390625 7.625 2.203125 
L 7.625 11.71875 
Q 11.71875 9.328125 16.59375 8.109375 
Q 21.484375 6.890625 26.8125 6.890625 
Q 36.078125 6.890625 40.9375 10.546875 
Q 45.796875 14.203125 45.796875 21.1875 
Q 45.796875 27.640625 41.28125 31.265625 
Q 36.765625 34.90625 28.71875 34.90625 
L 20.21875 34.90625 
L 20.21875 43.015625 
L 29.109375 43.015625 
Q 36.375 43.015625 40.234375 45.921875 
Q 44.09375 48.828125 44.09375 54.296875 
Q 44.09375 59.90625 40.109375 62.90625 
Q 36.140625 65.921875 28.71875 65.921875 
Q 24.65625 65.921875 20.015625 65.03125 
Q 15.375 64.15625 9.8125 62.3125 
L 9.8125 71.09375 
Q 15.4375 72.65625 20.34375 73.4375 
Q 25.25 74.21875 29.59375 74.21875 
Q 40.828125 74.21875 47.359375 69.109375 
Q 53.90625 64.015625 53.90625 55.328125 
Q 53.90625 49.265625 50.4375 45.09375 
Q 46.96875 40.921875 40.578125 39.3125 
z
" id="DejaVuSans-33"/>
      </defs>
      <g transform="translate(20.878125 204.788375)scale(0.1 -0.1)">
       <use xlink:href="#DejaVuSans-33"/>
       <use x="63.623047" xlink:href="#DejaVuSans-30"/>
      </g>
     </g>
    </g>
    <g id="ytick_5">
     <g id="line2d_27">
      <path clip-path="url(#pfd77ca3495)" d="M 40.603125 166.915917 
L 397.723125 166.915917 
" style="fill:none;stroke:#b0b0b0;stroke-linecap:square;stroke-width:0.8;"/>
     </g>
     <g id="line2d_28">
      <g>
       <use style="stroke:#000000;stroke-width:0.8;" x="40.603125" xlink:href="#mca5c99adf5" y="166.915917"/>
      </g>
     </g>
     <g id="text_15">
      <!-- 40 -->
      <g transform="translate(20.878125 170.715136)scale(0.1 -0.1)">
       <use xlink:href="#DejaVuSans-34"/>
       <use x="63.623047" xlink:href="#DejaVuSans-30"/>
      </g>
     </g>
    </g>
    <g id="ytick_6">
     <g id="line2d_29">
      <path clip-path="url(#pfd77ca3495)" d="M 40.603125 132.842678 
L 397.723125 132.842678 
" style="fill:none;stroke:#b0b0b0;stroke-linecap:square;stroke-width:0.8;"/>
     </g>
     <g id="line2d_30">
      <g>
       <use style="stroke:#000000;stroke-width:0.8;" x="40.603125" xlink:href="#mca5c99adf5" y="132.842678"/>
      </g>
     </g>
     <g id="text_16">
      <!-- 50 -->
      <defs>
       <path d="M 10.796875 72.90625 
L 49.515625 72.90625 
L 49.515625 64.59375 
L 19.828125 64.59375 
L 19.828125 46.734375 
Q 21.96875 47.46875 24.109375 47.828125 
Q 26.265625 48.1875 28.421875 48.1875 
Q 40.625 48.1875 47.75 41.5 
Q 54.890625 34.8125 54.890625 23.390625 
Q 54.890625 11.625 47.5625 5.09375 
Q 40.234375 -1.421875 26.90625 -1.421875 
Q 22.3125 -1.421875 17.546875 -0.640625 
Q 12.796875 0.140625 7.71875 1.703125 
L 7.71875 11.625 
Q 12.109375 9.234375 16.796875 8.0625 
Q 21.484375 6.890625 26.703125 6.890625 
Q 35.15625 6.890625 40.078125 11.328125 
Q 45.015625 15.765625 45.015625 23.390625 
Q 45.015625 31 40.078125 35.4375 
Q 35.15625 39.890625 26.703125 39.890625 
Q 22.75 39.890625 18.8125 39.015625 
Q 14.890625 38.140625 10.796875 36.28125 
z
" id="DejaVuSans-35"/>
      </defs>
      <g transform="translate(20.878125 136.641897)scale(0.1 -0.1)">
       <use xlink:href="#DejaVuSans-35"/>
       <use x="63.623047" xlink:href="#DejaVuSans-30"/>
      </g>
     </g>
    </g>
    <g id="ytick_7">
     <g id="line2d_31">
      <path clip-path="url(#pfd77ca3495)" d="M 40.603125 98.769438 
L 397.723125 98.769438 
" style="fill:none;stroke:#b0b0b0;stroke-linecap:square;stroke-width:0.8;"/>
     </g>
     <g id="line2d_32">
      <g>
       <use style="stroke:#000000;stroke-width:0.8;" x="40.603125" xlink:href="#mca5c99adf5" y="98.769438"/>
      </g>
     </g>
     <g id="text_17">
      <!-- 60 -->
      <g transform="translate(20.878125 102.568657)scale(0.1 -0.1)">
       <use xlink:href="#DejaVuSans-36"/>
       <use x="63.623047" xlink:href="#DejaVuSans-30"/>
      </g>
     </g>
    </g>
    <g id="ytick_8">
     <g id="line2d_33">
      <path clip-path="url(#pfd77ca3495)" d="M 40.603125 64.696199 
L 397.723125 64.696199 
" style="fill:none;stroke:#b0b0b0;stroke-linecap:square;stroke-width:0.8;"/>
     </g>
     <g id="line2d_34">
      <g>
       <use style="stroke:#000000;stroke-width:0.8;" x="40.603125" xlink:href="#mca5c99adf5" y="64.696199"/>
      </g>
     </g>
     <g id="text_18">
      <!-- 70 -->
      <defs>
       <path d="M 8.203125 72.90625 
L 55.078125 72.90625 
L 55.078125 68.703125 
L 28.609375 0 
L 18.3125 0 
L 43.21875 64.59375 
L 8.203125 64.59375 
z
" id="DejaVuSans-37"/>
      </defs>
      <g transform="translate(20.878125 68.495418)scale(0.1 -0.1)">
       <use xlink:href="#DejaVuSans-37"/>
       <use x="63.623047" xlink:href="#DejaVuSans-30"/>
      </g>
     </g>
    </g>
    <g id="text_19">
     <!-- Number of nodes -->
     <defs>
      <path d="M 9.8125 72.90625 
L 23.09375 72.90625 
L 55.421875 11.921875 
L 55.421875 72.90625 
L 64.984375 72.90625 
L 64.984375 0 
L 51.703125 0 
L 19.390625 60.984375 
L 19.390625 0 
L 9.8125 0 
z
" id="DejaVuSans-4e"/>
      <path d="M 8.5 21.578125 
L 8.5 54.6875 
L 17.484375 54.6875 
L 17.484375 21.921875 
Q 17.484375 14.15625 20.5 10.265625 
Q 23.53125 6.390625 29.59375 6.390625 
Q 36.859375 6.390625 41.078125 11.03125 
Q 45.3125 15.671875 45.3125 23.6875 
L 45.3125 54.6875 
L 54.296875 54.6875 
L 54.296875 0 
L 45.3125 0 
L 45.3125 8.40625 
Q 42.046875 3.421875 37.71875 1 
Q 33.40625 -1.421875 27.6875 -1.421875 
Q 18.265625 -1.421875 13.375 4.4375 
Q 8.5 10.296875 8.5 21.578125 
z
M 31.109375 56 
z
" id="DejaVuSans-75"/>
      <path d="M 48.6875 27.296875 
Q 48.6875 37.203125 44.609375 42.84375 
Q 40.53125 48.484375 33.40625 48.484375 
Q 26.265625 48.484375 22.1875 42.84375 
Q 18.109375 37.203125 18.109375 27.296875 
Q 18.109375 17.390625 22.1875 11.75 
Q 26.265625 6.109375 33.40625 6.109375 
Q 40.53125 6.109375 44.609375 11.75 
Q 48.6875 17.390625 48.6875 27.296875 
z
M 18.109375 46.390625 
Q 20.953125 51.265625 25.265625 53.625 
Q 29.59375 56 35.59375 56 
Q 45.5625 56 51.78125 48.09375 
Q 58.015625 40.1875 58.015625 27.296875 
Q 58.015625 14.40625 51.78125 6.484375 
Q 45.5625 -1.421875 35.59375 -1.421875 
Q 29.59375 -1.421875 25.265625 0.953125 
Q 20.953125 3.328125 18.109375 8.203125 
L 18.109375 0 
L 9.078125 0 
L 9.078125 75.984375 
L 18.109375 75.984375 
z
" id="DejaVuSans-62"/>
      <path d="M 41.109375 46.296875 
Q 39.59375 47.171875 37.8125 47.578125 
Q 36.03125 48 33.890625 48 
Q 26.265625 48 22.1875 43.046875 
Q 18.109375 38.09375 18.109375 28.8125 
L 18.109375 0 
L 9.078125 0 
L 9.078125 54.6875 
L 18.109375 54.6875 
L 18.109375 46.1875 
Q 20.953125 51.171875 25.484375 53.578125 
Q 30.03125 56 36.53125 56 
Q 37.453125 56 38.578125 55.875 
Q 39.703125 55.765625 41.0625 55.515625 
z
" id="DejaVuSans-72"/>
      <path id="DejaVuSans-20"/>
      <path d="M 30.609375 48.390625 
Q 23.390625 48.390625 19.1875 42.75 
Q 14.984375 37.109375 14.984375 27.296875 
Q 14.984375 17.484375 19.15625 11.84375 
Q 23.34375 6.203125 30.609375 6.203125 
Q 37.796875 6.203125 41.984375 11.859375 
Q 46.1875 17.53125 46.1875 27.296875 
Q 46.1875 37.015625 41.984375 42.703125 
Q 37.796875 48.390625 30.609375 48.390625 
z
M 30.609375 56 
Q 42.328125 56 49.015625 48.375 
Q 55.71875 40.765625 55.71875 27.296875 
Q 55.71875 13.875 49.015625 6.21875 
Q 42.328125 -1.421875 30.609375 -1.421875 
Q 18.84375 -1.421875 12.171875 6.21875 
Q 5.515625 13.875 5.515625 27.296875 
Q 5.515625 40.765625 12.171875 48.375 
Q 18.84375 56 30.609375 56 
z
" id="DejaVuSans-6f"/>
      <path d="M 37.109375 75.984375 
L 37.109375 68.5 
L 28.515625 68.5 
Q 23.6875 68.5 21.796875 66.546875 
Q 19.921875 64.59375 19.921875 59.515625 
L 19.921875 54.6875 
L 34.71875 54.6875 
L 34.71875 47.703125 
L 19.921875 47.703125 
L 19.921875 0 
L 10.890625 0 
L 10.890625 47.703125 
L 2.296875 47.703125 
L 2.296875 54.6875 
L 10.890625 54.6875 
L 10.890625 58.5 
Q 10.890625 67.625 15.140625 71.796875 
Q 19.390625 75.984375 28.609375 75.984375 
z
" id="DejaVuSans-66"/>
      <path d="M 54.890625 33.015625 
L 54.890625 0 
L 45.90625 0 
L 45.90625 32.71875 
Q 45.90625 40.484375 42.875 44.328125 
Q 39.84375 48.1875 33.796875 48.1875 
Q 26.515625 48.1875 22.3125 43.546875 
Q 18.109375 38.921875 18.109375 30.90625 
L 18.109375 0 
L 9.078125 0 
L 9.078125 54.6875 
L 18.109375 54.6875 
L 18.109375 46.1875 
Q 21.34375 51.125 25.703125 53.5625 
Q 30.078125 56 35.796875 56 
Q 45.21875 56 50.046875 50.171875 
Q 54.890625 44.34375 54.890625 33.015625 
z
" id="DejaVuSans-6e"/>
      <path d="M 45.40625 46.390625 
L 45.40625 75.984375 
L 54.390625 75.984375 
L 54.390625 0 
L 45.40625 0 
L 45.40625 8.203125 
Q 42.578125 3.328125 38.25 0.953125 
Q 33.9375 -1.421875 27.875 -1.421875 
Q 17.96875 -1.421875 11.734375 6.484375 
Q 5.515625 14.40625 5.515625 27.296875 
Q 5.515625 40.1875 11.734375 48.09375 
Q 17.96875 56 27.875 56 
Q 33.9375 56 38.25 53.625 
Q 42.578125 51.265625 45.40625 46.390625 
z
M 14.796875 27.296875 
Q 14.796875 17.390625 18.875 11.75 
Q 22.953125 6.109375 30.078125 6.109375 
Q 37.203125 6.109375 41.296875 11.75 
Q 45.40625 17.390625 45.40625 27.296875 
Q 45.40625 37.203125 41.296875 42.84375 
Q 37.203125 48.484375 30.078125 48.484375 
Q 22.953125 48.484375 18.875 42.84375 
Q 14.796875 37.203125 14.796875 27.296875 
z
" id="DejaVuSans-64"/>
     </defs>
     <g transform="translate(14.798438 225.416062)rotate(-90)scale(0.1 -0.1)">
      <use xlink:href="#DejaVuSans-4e"/>
      <use x="74.804688" xlink:href="#DejaVuSans-75"/>
      <use x="138.183594" xlink:href="#DejaVuSans-6d"/>
      <use x="235.595703" xlink:href="#DejaVuSans-62"/>
      <use x="299.072266" xlink:href="#DejaVuSans-65"/>
      <use x="360.595703" xlink:href="#DejaVuSans-72"/>
      <use x="401.708984" xlink:href="#DejaVuSans-20"/>
      <use x="433.496094" xlink:href="#DejaVuSans-6f"/>
      <use x="494.677734" xlink:href="#DejaVuSans-66"/>
      <use x="529.882812" xlink:href="#DejaVuSans-20"/>
      <use x="561.669922" xlink:href="#DejaVuSans-6e"/>
      <use x="625.048828" xlink:href="#DejaVuSans-6f"/>
      <use x="686.230469" xlink:href="#DejaVuSans-64"/>
      <use x="749.707031" xlink:href="#DejaVuSans-65"/>
      <use x="811.230469" xlink:href="#DejaVuSans-73"/>
     </g>
    </g>
   </g>
   <g id="line2d_35">
    <path clip-path="url(#pfd77ca3495)" d="M 40.603125 303.208875 
L 71.438349 303.208875 
L 71.657038 299.801551 
L 72.313107 299.801551 
L 72.531796 296.394227 
L 73.406554 296.394227 
L 73.625244 292.986903 
L 74.281312 292.986903 
L 74.500002 289.579579 
L 74.937381 289.579579 
L 75.15607 286.172255 
L 75.59345 286.172255 
L 76.030829 275.950283 
L 76.905587 275.950283 
L 77.124276 272.54296 
L 77.342966 272.54296 
L 77.561655 269.135636 
L 78.436413 269.135636 
L 78.655103 272.54296 
L 79.748551 272.54296 
L 79.96724 279.357607 
L 82.154135 279.357607 
L 82.591514 286.172255 
L 83.028894 286.172255 
L 83.247583 289.579579 
L 83.466273 289.579579 
L 83.684962 292.986903 
L 84.341031 292.986903 
L 84.55972 296.394227 
L 84.77841 303.208875 
L 104.460467 303.208875 
L 104.679157 299.801551 
L 105.553915 299.801551 
L 105.772604 296.394227 
L 106.209984 296.394227 
L 106.428673 292.986903 
L 107.303431 292.986903 
L 107.522121 289.579579 
L 107.74081 289.579579 
L 107.9595 286.172255 
L 108.178189 286.172255 
L 108.396879 282.764931 
L 108.615568 282.764931 
L 108.834258 279.357607 
L 109.052947 282.764931 
L 109.271637 282.764931 
L 109.490326 279.357607 
L 110.365085 279.357607 
L 110.583774 282.764931 
L 112.114601 282.764931 
L 112.33329 275.950283 
L 113.208048 275.950283 
L 113.426738 279.357607 
L 114.082807 279.357607 
L 114.301496 272.54296 
L 114.520186 279.357607 
L 114.738875 275.950283 
L 114.957565 279.357607 
L 115.176254 275.950283 
L 115.613633 275.950283 
L 116.051012 255.50634 
L 116.488391 248.691692 
L 116.92577 238.46972 
L 117.14446 235.062396 
L 117.800529 235.062396 
L 118.456597 224.840424 
L 118.675287 224.840424 
L 118.893976 218.025776 
L 119.331355 218.025776 
L 119.550045 214.618452 
L 120.206113 194.174509 
L 120.424803 197.581833 
L 120.643492 197.581833 
L 120.862182 200.989157 
L 121.299561 200.989157 
L 121.518251 204.396481 
L 121.73694 214.618452 
L 122.174319 221.4331 
L 122.611698 221.4331 
L 123.049077 228.247748 
L 123.267767 228.247748 
L 123.486456 231.655072 
L 123.705146 228.247748 
L 123.923835 228.247748 
L 124.142525 231.655072 
L 124.361214 228.247748 
L 124.798593 228.247748 
L 125.235973 241.877044 
L 126.110731 241.877044 
L 126.32942 252.099016 
L 126.766799 258.913664 
L 126.985489 255.50634 
L 127.204178 248.691692 
L 127.422868 252.099016 
L 127.641557 252.099016 
L 128.297626 272.54296 
L 128.516315 265.728312 
L 128.953695 279.357607 
L 129.172384 275.950283 
L 129.609763 275.950283 
L 129.828453 272.54296 
L 130.047142 272.54296 
L 130.484521 255.50634 
L 130.703211 258.913664 
L 131.14059 258.913664 
L 131.359279 252.099016 
L 131.796658 252.099016 
L 132.015348 241.877044 
L 132.234037 245.284368 
L 132.452727 245.284368 
L 132.671416 238.46972 
L 133.108796 238.46972 
L 133.327485 241.877044 
L 133.764864 235.062396 
L 133.983554 235.062396 
L 134.202243 231.655072 
L 134.858312 231.655072 
L 135.077001 238.46972 
L 135.295691 238.46972 
L 135.51438 245.284368 
L 135.73307 245.284368 
L 135.951759 248.691692 
L 136.170449 241.877044 
L 136.389138 241.877044 
L 136.607828 238.46972 
L 136.826518 238.46972 
L 137.045207 241.877044 
L 137.263897 252.099016 
L 137.482586 269.135636 
L 137.701276 269.135636 
L 138.357344 289.579579 
L 139.232102 289.579579 
L 139.450792 286.172255 
L 140.10686 286.172255 
L 140.32555 289.579579 
L 140.762929 289.579579 
L 140.981619 292.986903 
L 141.637687 292.986903 
L 141.856377 296.394227 
L 142.731135 296.394227 
L 142.949824 292.986903 
L 143.168514 296.394227 
L 143.824582 296.394227 
L 144.043272 299.801551 
L 144.261961 292.986903 
L 145.13672 292.986903 
L 145.355409 289.579579 
L 146.230167 289.579579 
L 146.448857 286.172255 
L 147.979683 286.172255 
L 148.198373 289.579579 
L 148.417063 289.579579 
L 148.635752 292.986903 
L 149.51051 292.986903 
L 149.7292 289.579579 
L 149.947889 296.394227 
L 151.478716 296.394227 
L 151.697405 292.986903 
L 152.790853 292.986903 
L 153.228232 282.764931 
L 153.446922 282.764931 
L 153.665611 275.950283 
L 154.10299 275.950283 
L 154.32168 265.728312 
L 154.759059 265.728312 
L 154.977748 262.320988 
L 155.196438 262.320988 
L 155.415127 252.099016 
L 155.633817 248.691692 
L 156.508575 248.691692 
L 156.945954 258.913664 
L 157.383333 258.913664 
L 157.602023 262.320988 
L 157.820712 258.913664 
L 158.039402 258.913664 
L 158.258091 255.50634 
L 158.476781 258.913664 
L 158.69547 258.913664 
L 158.91416 265.728312 
L 159.351539 265.728312 
L 159.788918 258.913664 
L 161.101055 258.913664 
L 161.319745 262.320988 
L 161.975813 262.320988 
L 162.194503 265.728312 
L 162.631882 265.728312 
L 162.850571 269.135636 
L 163.069261 269.135636 
L 163.28795 272.54296 
L 163.50664 272.54296 
L 163.72533 262.320988 
L 164.381398 262.320988 
L 164.600088 265.728312 
L 165.256156 265.728312 
L 165.474846 262.320988 
L 166.349604 262.320988 
L 166.568293 265.728312 
L 167.443052 265.728312 
L 167.661741 269.135636 
L 167.880431 265.728312 
L 168.09912 265.728312 
L 168.31781 262.320988 
L 168.536499 255.50634 
L 169.192568 255.50634 
L 169.411257 252.099016 
L 170.504705 252.099016 
L 170.723394 248.691692 
L 171.379463 248.691692 
L 171.598153 245.284368 
L 172.472911 245.284368 
L 172.91029 238.46972 
L 173.566358 238.46972 
L 173.785048 235.062396 
L 175.315875 235.062396 
L 175.534564 238.46972 
L 175.971943 238.46972 
L 176.190633 241.877044 
L 176.628012 241.877044 
L 176.846701 245.284368 
L 177.065391 245.284368 
L 177.28408 241.877044 
L 178.158838 241.877044 
L 178.596217 248.691692 
L 179.033597 248.691692 
L 179.252286 252.099016 
L 179.470976 248.691692 
L 180.127044 248.691692 
L 180.345734 252.099016 
L 181.657871 252.099016 
L 181.87656 248.691692 
L 182.313939 248.691692 
L 182.751319 255.50634 
L 182.970008 255.50634 
L 183.188698 245.284368 
L 183.407387 241.877044 
L 183.626077 231.655072 
L 184.282145 221.4331 
L 184.719524 211.211129 
L 184.938214 211.211129 
L 185.156903 214.618452 
L 185.375593 214.618452 
L 185.594282 211.211129 
L 186.031661 211.211129 
L 186.250351 200.989157 
L 186.46904 200.989157 
L 186.68773 197.581833 
L 186.90642 204.396481 
L 187.125109 197.581833 
L 187.343799 200.989157 
L 187.781178 187.359861 
L 188.218557 187.359861 
L 188.437246 190.767185 
L 188.874625 190.767185 
L 189.093315 194.174509 
L 189.312004 204.396481 
L 189.530694 204.396481 
L 189.749383 200.989157 
L 190.624142 200.989157 
L 191.061521 207.803805 
L 191.936279 207.803805 
L 192.373658 197.581833 
L 192.592347 197.581833 
L 192.811037 200.989157 
L 193.685795 200.989157 
L 193.904484 190.767185 
L 194.123174 194.174509 
L 194.560553 187.359861 
L 195.216622 163.508593 
L 195.435311 153.286621 
L 195.654001 149.879298 
L 195.87269 149.879298 
L 196.09138 153.286621 
L 196.528759 129.435354 
L 196.747448 136.250002 
L 197.184827 129.435354 
L 197.403517 129.435354 
L 197.622206 126.02803 
L 197.840896 139.657326 
L 198.059586 143.06465 
L 198.496965 129.435354 
L 198.934344 129.435354 
L 199.153033 139.657326 
L 199.371723 139.657326 
L 199.590412 143.06465 
L 199.809102 136.250002 
L 200.246481 146.471974 
L 200.68386 136.250002 
L 200.902549 136.250002 
L 201.339928 143.06465 
L 202.433376 143.06465 
L 202.652066 139.657326 
L 203.526824 139.657326 
L 203.964203 146.471974 
L 204.182892 146.471974 
L 204.620271 139.657326 
L 204.838961 139.657326 
L 205.05765 136.250002 
L 205.495029 136.250002 
L 205.713719 143.06465 
L 205.932409 143.06465 
L 206.151098 146.471974 
L 206.369788 143.06465 
L 206.588477 132.842678 
L 206.807167 136.250002 
L 207.025856 129.435354 
L 207.244546 132.842678 
L 207.463235 132.842678 
L 207.681925 143.06465 
L 207.900614 139.657326 
L 208.337993 156.693945 
L 208.556683 153.286621 
L 208.775372 143.06465 
L 208.994062 139.657326 
L 209.212751 143.06465 
L 209.431441 136.250002 
L 209.650131 136.250002 
L 209.86882 129.435354 
L 210.08751 132.842678 
L 210.306199 129.435354 
L 210.524889 132.842678 
L 210.743578 129.435354 
L 210.962268 129.435354 
L 211.180957 139.657326 
L 211.399647 143.06465 
L 211.837026 136.250002 
L 212.055715 136.250002 
L 212.274405 139.657326 
L 212.493094 139.657326 
L 212.711784 129.435354 
L 213.367852 146.471974 
L 213.805232 139.657326 
L 214.023921 132.842678 
L 214.242611 136.250002 
L 214.4613 136.250002 
L 214.67999 132.842678 
L 214.898679 132.842678 
L 215.117369 139.657326 
L 215.336058 139.657326 
L 215.554748 143.06465 
L 215.773437 139.657326 
L 215.992127 129.435354 
L 216.210816 132.842678 
L 216.429506 132.842678 
L 216.648195 129.435354 
L 216.866885 129.435354 
L 217.522954 139.657326 
L 217.741643 136.250002 
L 217.960333 129.435354 
L 218.179022 129.435354 
L 218.397712 132.842678 
L 218.616401 129.435354 
L 219.05378 129.435354 
L 219.709849 139.657326 
L 220.147228 126.02803 
L 220.365917 126.02803 
L 220.584607 129.435354 
L 220.803296 129.435354 
L 221.240676 136.250002 
L 221.678055 136.250002 
L 221.896744 143.06465 
L 222.334123 126.02803 
L 222.552813 126.02803 
L 222.771502 129.435354 
L 223.208881 129.435354 
L 223.427571 132.842678 
L 223.86495 149.879298 
L 224.083639 139.657326 
L 224.302329 139.657326 
L 224.521018 126.02803 
L 224.739708 126.02803 
L 225.177087 132.842678 
L 225.395777 129.435354 
L 225.614466 132.842678 
L 225.833156 143.06465 
L 226.270535 143.06465 
L 226.926603 126.02803 
L 227.145293 122.620706 
L 227.363982 126.02803 
L 227.582672 126.02803 
L 227.801361 129.435354 
L 228.45743 129.435354 
L 228.676119 132.842678 
L 228.894809 129.435354 
L 229.113499 119.213382 
L 229.332188 122.620706 
L 229.550878 122.620706 
L 230.206946 105.584086 
L 230.644325 105.584086 
L 231.081704 115.806058 
L 231.300394 115.806058 
L 231.737773 129.435354 
L 231.956462 129.435354 
L 232.175152 126.02803 
L 232.393841 119.213382 
L 232.831221 119.213382 
L 233.04991 122.620706 
L 233.2686 122.620706 
L 233.487289 119.213382 
L 233.924668 126.02803 
L 234.143358 132.842678 
L 234.362047 132.842678 
L 234.799426 122.620706 
L 235.018116 126.02803 
L 235.236805 122.620706 
L 235.455495 115.806058 
L 235.674184 115.806058 
L 235.892874 108.99141 
L 236.330253 122.620706 
L 236.548943 122.620706 
L 236.767632 126.02803 
L 236.986322 126.02803 
L 237.205011 122.620706 
L 237.423701 115.806058 
L 237.86108 126.02803 
L 238.079769 122.620706 
L 238.298459 129.435354 
L 238.517148 122.620706 
L 238.735838 126.02803 
L 238.954527 122.620706 
L 239.391906 122.620706 
L 239.610596 129.435354 
L 239.829285 129.435354 
L 240.047975 122.620706 
L 240.485354 129.435354 
L 240.922733 122.620706 
L 241.141423 115.806058 
L 241.578802 115.806058 
L 241.797491 119.213382 
L 242.016181 119.213382 
L 242.23487 115.806058 
L 242.45356 126.02803 
L 242.672249 129.435354 
L 243.109628 119.213382 
L 243.328318 115.806058 
L 243.984386 115.806058 
L 244.203076 119.213382 
L 244.421766 119.213382 
L 244.640455 126.02803 
L 244.859145 122.620706 
L 245.077834 126.02803 
L 245.296524 115.806058 
L 245.515213 119.213382 
L 245.733903 115.806058 
L 245.952592 119.213382 
L 246.171282 112.398734 
L 246.389971 112.398734 
L 246.608661 119.213382 
L 246.82735 119.213382 
L 247.04604 115.806058 
L 247.264729 105.584086 
L 247.483419 108.99141 
L 247.702108 102.176762 
L 247.920798 108.99141 
L 248.139488 105.584086 
L 248.795556 115.806058 
L 249.014246 115.806058 
L 249.232935 105.584086 
L 249.451625 105.584086 
L 249.670314 98.769438 
L 249.889004 102.176762 
L 250.107693 102.176762 
L 250.545072 108.99141 
L 250.763762 108.99141 
L 250.982451 115.806058 
L 251.85721 91.95479 
L 252.731968 91.95479 
L 252.950657 95.362114 
L 253.169347 95.362114 
L 253.388036 98.769438 
L 253.825415 91.95479 
L 254.262794 74.918171 
L 254.481484 71.510847 
L 254.700173 74.918171 
L 254.918863 74.918171 
L 255.137552 81.732819 
L 255.356242 81.732819 
L 255.574931 78.325495 
L 255.793621 81.732819 
L 256.012311 78.325495 
L 256.231 71.510847 
L 257.105758 71.510847 
L 257.324448 68.103523 
L 257.543137 81.732819 
L 257.761827 78.325495 
L 257.980516 68.103523 
L 258.417895 61.288875 
L 258.636585 61.288875 
L 259.073964 68.103523 
L 259.511343 68.103523 
L 259.730033 74.918171 
L 259.948722 68.103523 
L 260.386101 68.103523 
L 260.604791 64.696199 
L 261.479549 64.696199 
L 261.698238 71.510847 
L 261.916928 71.510847 
L 262.135617 68.103523 
L 262.354307 71.510847 
L 262.791686 71.510847 
L 263.010375 64.696199 
L 263.447755 64.696199 
L 264.103823 74.918171 
L 264.322513 71.510847 
L 264.541202 71.510847 
L 264.759892 68.103523 
L 264.978581 68.103523 
L 265.197271 64.696199 
L 265.41596 64.696199 
L 265.853339 71.510847 
L 266.072029 71.510847 
L 266.290718 74.918171 
L 266.728097 68.103523 
L 267.165477 68.103523 
L 267.384166 64.696199 
L 267.602856 64.696199 
L 268.040235 74.918171 
L 268.258924 74.918171 
L 268.477614 81.732819 
L 268.696303 81.732819 
L 268.914993 74.918171 
L 269.133682 78.325495 
L 269.352372 74.918171 
L 270.00844 74.918171 
L 270.22713 85.140143 
L 270.664509 78.325495 
L 271.101888 78.325495 
L 271.320578 74.918171 
L 271.539267 68.103523 
L 271.757957 71.510847 
L 271.976646 71.510847 
L 272.195336 74.918171 
L 272.414025 81.732819 
L 272.632715 81.732819 
L 272.851404 78.325495 
L 273.070094 78.325495 
L 273.288783 74.918171 
L 273.507473 74.918171 
L 273.726162 71.510847 
L 273.944852 78.325495 
L 274.163541 78.325495 
L 274.60092 85.140143 
L 275.256989 85.140143 
L 275.475679 88.547467 
L 275.694368 85.140143 
L 275.913058 91.95479 
L 276.131747 88.547467 
L 276.569126 98.769438 
L 276.787816 102.176762 
L 277.006505 102.176762 
L 277.225195 98.769438 
L 277.443884 98.769438 
L 277.662574 102.176762 
L 277.881263 102.176762 
L 278.099953 108.99141 
L 278.756022 108.99141 
L 278.974711 105.584086 
L 279.193401 112.398734 
L 279.63078 105.584086 
L 279.849469 98.769438 
L 280.068159 98.769438 
L 280.286848 85.140143 
L 280.942917 85.140143 
L 281.161606 88.547467 
L 284.00457 88.547467 
L 284.22326 91.95479 
L 287.722292 91.95479 
L 287.940982 88.547467 
L 288.378361 88.547467 
L 288.59705 91.95479 
L 292.533462 91.95479 
L 292.752151 88.547467 
L 297.563321 88.547467 
L 297.78201 85.140143 
L 305.654834 85.140143 
L 305.873523 81.732819 
L 307.18566 81.732819 
L 307.40435 78.325495 
L 308.060418 78.325495 
L 308.279108 81.732819 
L 310.247314 81.732819 
L 310.466003 78.325495 
L 311.122072 78.325495 
L 311.340761 81.732819 
L 311.77814 81.732819 
L 311.99683 85.140143 
L 312.434209 85.140143 
L 312.652898 81.732819 
L 315.495862 81.732819 
L 315.714552 78.325495 
L 317.901447 78.325495 
L 318.120137 74.918171 
L 319.432274 74.918171 
L 319.650963 78.325495 
L 321.18179 78.325495 
L 321.40048 85.140143 
L 321.619169 85.140143 
L 322.056548 78.325495 
L 323.368685 78.325495 
L 323.806064 85.140143 
L 330.148061 85.140143 
L 330.58544 78.325495 
L 340.645158 78.325495 
L 340.863848 81.732819 
L 341.301227 81.732819 
L 341.519916 85.140143 
L 344.144191 85.140143 
L 344.36288 81.732819 
L 344.800259 81.732819 
L 345.018949 78.325495 
L 348.517981 78.325495 
L 348.736671 81.732819 
L 348.95536 81.732819 
L 349.17405 78.325495 
L 350.486187 78.325495 
L 350.704876 74.918171 
L 352.673082 74.918171 
L 352.891772 68.103523 
L 353.76653 68.103523 
L 353.985219 64.696199 
L 355.734736 64.696199 
L 355.953425 68.103523 
L 356.172115 68.103523 
L 356.390804 71.510847 
L 361.858042 71.510847 
L 362.076732 68.103523 
L 362.7328 68.103523 
L 362.95149 71.510847 
L 365.138385 71.510847 
L 365.357075 68.103523 
L 366.013143 68.103523 
L 366.231833 71.510847 
L 368.856107 71.510847 
L 369.074797 74.918171 
L 373.229898 74.918171 
L 373.448587 71.510847 
L 380.009273 71.510847 
L 380.227963 68.103523 
L 382.633548 68.103523 
L 382.852237 71.510847 
L 384.820443 71.510847 
L 385.039132 74.918171 
L 385.257822 71.510847 
L 385.476511 74.918171 
L 387.663407 74.918171 
L 387.882096 78.325495 
L 388.756854 78.325495 
L 388.975544 81.732819 
L 390.72506 81.732819 
L 390.94375 85.140143 
L 391.818508 85.140143 
L 392.037197 88.547467 
L 393.568024 88.547467 
L 393.786713 85.140143 
L 396.192298 85.140143 
L 396.410988 88.547467 
L 397.504435 88.547467 
L 397.504435 88.547467 
" style="fill:none;stroke:#008000;stroke-linecap:square;stroke-width:1.5;"/>
   </g>
   <g id="patch_3">
    <path d="M 40.603125 315.304875 
L 40.603125 49.192875 
" style="fill:none;stroke:#000000;stroke-linecap:square;stroke-linejoin:miter;stroke-width:0.8;"/>
   </g>
   <g id="patch_4">
    <path d="M 397.723125 315.304875 
L 397.723125 49.192875 
" style="fill:none;stroke:#000000;stroke-linecap:square;stroke-linejoin:miter;stroke-width:0.8;"/>
   </g>
   <g id="patch_5">
    <path d="M 40.603125 315.304875 
L 397.723125 315.304875 
" style="fill:none;stroke:#000000;stroke-linecap:square;stroke-linejoin:miter;stroke-width:0.8;"/>
   </g>
   <g id="patch_6">
    <path d="M 40.603125 49.192875 
L 397.723125 49.192875 
" style="fill:none;stroke:#000000;stroke-linecap:square;stroke-linejoin:miter;stroke-width:0.8;"/>
   </g>
   <g id="text_20">
    <!-- Total discovered: 31.50 % -->
    <defs>
     <path d="M 18.3125 70.21875 
L 18.3125 54.6875 
L 36.8125 54.6875 
L 36.8125 47.703125 
L 18.3125 47.703125 
L 18.3125 18.015625 
Q 18.3125 11.328125 20.140625 9.421875 
Q 21.96875 7.515625 27.59375 7.515625 
L 36.8125 7.515625 
L 36.8125 0 
L 27.59375 0 
Q 17.1875 0 13.234375 3.875 
Q 9.28125 7.765625 9.28125 18.015625 
L 9.28125 47.703125 
L 2.6875 47.703125 
L 2.6875 54.6875 
L 9.28125 54.6875 
L 9.28125 70.21875 
z
" id="DejaVuSans-74"/>
     <path d="M 34.28125 27.484375 
Q 23.390625 27.484375 19.1875 25 
Q 14.984375 22.515625 14.984375 16.5 
Q 14.984375 11.71875 18.140625 8.90625 
Q 21.296875 6.109375 26.703125 6.109375 
Q 34.1875 6.109375 38.703125 11.40625 
Q 43.21875 16.703125 43.21875 25.484375 
L 43.21875 27.484375 
z
M 52.203125 31.203125 
L 52.203125 0 
L 43.21875 0 
L 43.21875 8.296875 
Q 40.140625 3.328125 35.546875 0.953125 
Q 30.953125 -1.421875 24.3125 -1.421875 
Q 15.921875 -1.421875 10.953125 3.296875 
Q 6 8.015625 6 15.921875 
Q 6 25.140625 12.171875 29.828125 
Q 18.359375 34.515625 30.609375 34.515625 
L 43.21875 34.515625 
L 43.21875 35.40625 
Q 43.21875 41.609375 39.140625 45 
Q 35.0625 48.390625 27.6875 48.390625 
Q 23 48.390625 18.546875 47.265625 
Q 14.109375 46.140625 10.015625 43.890625 
L 10.015625 52.203125 
Q 14.9375 54.109375 19.578125 55.046875 
Q 24.21875 56 28.609375 56 
Q 40.484375 56 46.34375 49.84375 
Q 52.203125 43.703125 52.203125 31.203125 
z
" id="DejaVuSans-61"/>
     <path d="M 9.421875 75.984375 
L 18.40625 75.984375 
L 18.40625 0 
L 9.421875 0 
z
" id="DejaVuSans-6c"/>
     <path d="M 48.78125 52.59375 
L 48.78125 44.1875 
Q 44.96875 46.296875 41.140625 47.34375 
Q 37.3125 48.390625 33.40625 48.390625 
Q 24.65625 48.390625 19.8125 42.84375 
Q 14.984375 37.3125 14.984375 27.296875 
Q 14.984375 17.28125 19.8125 11.734375 
Q 24.65625 6.203125 33.40625 6.203125 
Q 37.3125 6.203125 41.140625 7.25 
Q 44.96875 8.296875 48.78125 10.40625 
L 48.78125 2.09375 
Q 45.015625 0.34375 40.984375 -0.53125 
Q 36.96875 -1.421875 32.421875 -1.421875 
Q 20.0625 -1.421875 12.78125 6.34375 
Q 5.515625 14.109375 5.515625 27.296875 
Q 5.515625 40.671875 12.859375 48.328125 
Q 20.21875 56 33.015625 56 
Q 37.15625 56 41.109375 55.140625 
Q 45.0625 54.296875 48.78125 52.59375 
z
" id="DejaVuSans-63"/>
     <path d="M 2.984375 54.6875 
L 12.5 54.6875 
L 29.59375 8.796875 
L 46.6875 54.6875 
L 56.203125 54.6875 
L 35.6875 0 
L 23.484375 0 
z
" id="DejaVuSans-76"/>
     <path d="M 11.71875 12.40625 
L 22.015625 12.40625 
L 22.015625 0 
L 11.71875 0 
z
M 11.71875 51.703125 
L 22.015625 51.703125 
L 22.015625 39.3125 
L 11.71875 39.3125 
z
" id="DejaVuSans-3a"/>
     <path d="M 10.6875 12.40625 
L 21 12.40625 
L 21 0 
L 10.6875 0 
z
" id="DejaVuSans-2e"/>
     <path d="M 72.703125 32.078125 
Q 68.453125 32.078125 66.03125 28.46875 
Q 63.625 24.859375 63.625 18.40625 
Q 63.625 12.0625 66.03125 8.421875 
Q 68.453125 4.78125 72.703125 4.78125 
Q 76.859375 4.78125 79.265625 8.421875 
Q 81.6875 12.0625 81.6875 18.40625 
Q 81.6875 24.8125 79.265625 28.4375 
Q 76.859375 32.078125 72.703125 32.078125 
z
M 72.703125 38.28125 
Q 80.421875 38.28125 84.953125 32.90625 
Q 89.5 27.546875 89.5 18.40625 
Q 89.5 9.28125 84.9375 3.921875 
Q 80.375 -1.421875 72.703125 -1.421875 
Q 64.890625 -1.421875 60.34375 3.921875 
Q 55.8125 9.28125 55.8125 18.40625 
Q 55.8125 27.59375 60.375 32.9375 
Q 64.9375 38.28125 72.703125 38.28125 
z
M 22.3125 68.015625 
Q 18.109375 68.015625 15.6875 64.375 
Q 13.28125 60.75 13.28125 54.390625 
Q 13.28125 47.953125 15.671875 44.328125 
Q 18.0625 40.71875 22.3125 40.71875 
Q 26.5625 40.71875 28.96875 44.328125 
Q 31.390625 47.953125 31.390625 54.390625 
Q 31.390625 60.6875 28.953125 64.34375 
Q 26.515625 68.015625 22.3125 68.015625 
z
M 66.40625 74.21875 
L 74.21875 74.21875 
L 28.609375 -1.421875 
L 20.796875 -1.421875 
z
M 22.3125 74.21875 
Q 30.03125 74.21875 34.609375 68.875 
Q 39.203125 63.53125 39.203125 54.390625 
Q 39.203125 45.171875 34.640625 39.84375 
Q 30.078125 34.515625 22.3125 34.515625 
Q 14.546875 34.515625 10.03125 39.859375 
Q 5.515625 45.21875 5.515625 54.390625 
Q 5.515625 63.484375 10.046875 68.84375 
Q 14.59375 74.21875 22.3125 74.21875 
z
" id="DejaVuSans-25"/>
    </defs>
    <g transform="translate(399.253952 292.011062)scale(0.1 -0.1)">
     <use xlink:href="#DejaVuSans-54"/>
     <use x="60.818359" xlink:href="#DejaVuSans-6f"/>
     <use x="122" xlink:href="#DejaVuSans-74"/>
     <use x="161.208984" xlink:href="#DejaVuSans-61"/>
     <use x="222.488281" xlink:href="#DejaVuSans-6c"/>
     <use x="250.271484" xlink:href="#DejaVuSans-20"/>
     <use x="282.058594" xlink:href="#DejaVuSans-64"/>
     <use x="345.535156" xlink:href="#DejaVuSans-69"/>
     <use x="373.318359" xlink:href="#DejaVuSans-73"/>
     <use x="425.417969" xlink:href="#DejaVuSans-63"/>
     <use x="480.398438" xlink:href="#DejaVuSans-6f"/>
     <use x="541.580078" xlink:href="#DejaVuSans-76"/>
     <use x="600.759766" xlink:href="#DejaVuSans-65"/>
     <use x="662.283203" xlink:href="#DejaVuSans-72"/>
     <use x="703.365234" xlink:href="#DejaVuSans-65"/>
     <use x="764.888672" xlink:href="#DejaVuSans-64"/>
     <use x="828.365234" xlink:href="#DejaVuSans-3a"/>
     <use x="862.056641" xlink:href="#DejaVuSans-20"/>
     <use x="893.84375" xlink:href="#DejaVuSans-33"/>
     <use x="957.466797" xlink:href="#DejaVuSans-31"/>
     <use x="1021.089844" xlink:href="#DejaVuSans-2e"/>
     <use x="1052.876953" xlink:href="#DejaVuSans-35"/>
     <use x="1116.5" xlink:href="#DejaVuSans-30"/>
     <use x="1180.123047" xlink:href="#DejaVuSans-20"/>
     <use x="1211.910156" xlink:href="#DejaVuSans-25"/>
    </g>
    <!-- Total: 63 nodes -->
    <g transform="translate(399.253952 303.208875)scale(0.1 -0.1)">
     <use xlink:href="#DejaVuSans-54"/>
     <use x="60.818359" xlink:href="#DejaVuSans-6f"/>
     <use x="122" xlink:href="#DejaVuSans-74"/>
     <use x="161.208984" xlink:href="#DejaVuSans-61"/>
     <use x="222.488281" xlink:href="#DejaVuSans-6c"/>
     <use x="250.271484" xlink:href="#DejaVuSans-3a"/>
     <use x="283.962891" xlink:href="#DejaVuSans-20"/>
     <use x="315.75" xlink:href="#DejaVuSans-36"/>
     <use x="379.373047" xlink:href="#DejaVuSans-33"/>
     <use x="442.996094" xlink:href="#DejaVuSans-20"/>
     <use x="474.783203" xlink:href="#DejaVuSans-6e"/>
     <use x="538.162109" xlink:href="#DejaVuSans-6f"/>
     <use x="599.34375" xlink:href="#DejaVuSans-64"/>
     <use x="662.820312" xlink:href="#DejaVuSans-65"/>
     <use x="724.34375" xlink:href="#DejaVuSans-73"/>
    </g>
   </g>
   <g id="text_21">
    <!-- Discovered nodes per time -->
    <defs>
     <path d="M 19.671875 64.796875 
L 19.671875 8.109375 
L 31.59375 8.109375 
Q 46.6875 8.109375 53.6875 14.9375 
Q 60.6875 21.78125 60.6875 36.53125 
Q 60.6875 51.171875 53.6875 57.984375 
Q 46.6875 64.796875 31.59375 64.796875 
z
M 9.8125 72.90625 
L 30.078125 72.90625 
Q 51.265625 72.90625 61.171875 64.09375 
Q 71.09375 55.28125 71.09375 36.53125 
Q 71.09375 17.671875 61.125 8.828125 
Q 51.171875 0 30.078125 0 
L 9.8125 0 
z
" id="DejaVuSans-44"/>
     <path d="M 18.109375 8.203125 
L 18.109375 -20.796875 
L 9.078125 -20.796875 
L 9.078125 54.6875 
L 18.109375 54.6875 
L 18.109375 46.390625 
Q 20.953125 51.265625 25.265625 53.625 
Q 29.59375 56 35.59375 56 
Q 45.5625 56 51.78125 48.09375 
Q 58.015625 40.1875 58.015625 27.296875 
Q 58.015625 14.40625 51.78125 6.484375 
Q 45.5625 -1.421875 35.59375 -1.421875 
Q 29.59375 -1.421875 25.265625 0.953125 
Q 20.953125 3.328125 18.109375 8.203125 
z
M 48.6875 27.296875 
Q 48.6875 37.203125 44.609375 42.84375 
Q 40.53125 48.484375 33.40625 48.484375 
Q 26.265625 48.484375 22.1875 42.84375 
Q 18.109375 37.203125 18.109375 27.296875 
Q 18.109375 17.390625 22.1875 11.75 
Q 26.265625 6.109375 33.40625 6.109375 
Q 40.53125 6.109375 44.609375 11.75 
Q 48.6875 17.390625 48.6875 27.296875 
z
" id="DejaVuSans-70"/>
    </defs>
    <g transform="translate(138.227813 16.318125)scale(0.12 -0.12)">
     <use xlink:href="#DejaVuSans-44"/>
     <use x="77.001953" xlink:href="#DejaVuSans-69"/>
     <use x="104.785156" xlink:href="#DejaVuSans-73"/>
     <use x="156.884766" xlink:href="#DejaVuSans-63"/>
     <use x="211.865234" xlink:href="#DejaVuSans-6f"/>
     <use x="273.046875" xlink:href="#DejaVuSans-76"/>
     <use x="332.226562" xlink:href="#DejaVuSans-65"/>
     <use x="393.75" xlink:href="#DejaVuSans-72"/>
     <use x="434.832031" xlink:href="#DejaVuSans-65"/>
     <use x="496.355469" xlink:href="#DejaVuSans-64"/>
     <use x="559.832031" xlink:href="#DejaVuSans-20"/>
     <use x="591.619141" xlink:href="#DejaVuSans-6e"/>
     <use x="654.998047" xlink:href="#DejaVuSans-6f"/>
     <use x="716.179688" xlink:href="#DejaVuSans-64"/>
     <use x="779.65625" xlink:href="#DejaVuSans-65"/>
     <use x="841.179688" xlink:href="#DejaVuSans-73"/>
     <use x="893.279297" xlink:href="#DejaVuSans-20"/>
     <use x="925.066406" xlink:href="#DejaVuSans-70"/>
     <use x="988.542969" xlink:href="#DejaVuSans-65"/>
     <use x="1050.066406" xlink:href="#DejaVuSans-72"/>
     <use x="1091.179688" xlink:href="#DejaVuSans-20"/>
     <use x="1122.966797" xlink:href="#DejaVuSans-74"/>
     <use x="1162.175781" xlink:href="#DejaVuSans-69"/>
     <use x="1189.958984" xlink:href="#DejaVuSans-6d"/>
     <use x="1287.371094" xlink:href="#DejaVuSans-65"/>
    </g>
    <!--  -->
    <g transform="translate(219.163125 29.7555)scale(0.12 -0.12)"/>
    <!--  -->
    <g transform="translate(219.163125 43.192875)scale(0.12 -0.12)"/>
   </g>
  </g>
 </g>
 <defs>
  <clipPath id="pfd77ca3495">
   <rect height="266.112" width="357.12" x="40.603125" y="49.192875"/>
  </clipPath>
 </defs>
</svg>
