<?xml version="1.0" encoding="utf-8" standalone="no"?>
<!DOCTYPE svg PUBLIC "-//W3C//DTD SVG 1.1//EN"
  "http://www.w3.org/Graphics/SVG/1.1/DTD/svg11.dtd">
<!-- Created with matplotlib (http://matplotlib.org/) -->
<svg height="352pt" version="1.1" viewBox="0 0 491 352" width="491pt" xmlns="http://www.w3.org/2000/svg" xmlns:xlink="http://www.w3.org/1999/xlink">
 <defs>
  <style type="text/css">
*{stroke-linecap:butt;stroke-linejoin:round;}
  </style>
 </defs>
 <g id="figure_1">
  <g id="patch_1">
   <path d="M 0 352.861125 
L 491.671775 352.861125 
L 491.671775 0 
L 0 0 
z
" style="fill:#ffffff;"/>
  </g>
  <g id="axes_1">
   <g id="patch_2">
    <path d="M 40.603125 315.304875 
L 397.723125 315.304875 
L 397.723125 49.192875 
L 40.603125 49.192875 
z
" style="fill:#ffffff;"/>
   </g>
   <g id="matplotlib.axis_1">
    <g id="xtick_1">
     <g id="line2d_1">
      <path clip-path="url(#pd2cef63844)" d="M 40.603125 315.304875 
L 40.603125 49.192875 
" style="fill:none;stroke:#b0b0b0;stroke-linecap:square;stroke-width:0.8;"/>
     </g>
     <g id="line2d_2">
      <defs>
       <path d="M 0 0 
L 0 3.5 
" id="m299b136d8a" style="stroke:#000000;stroke-width:0.8;"/>
      </defs>
      <g>
       <use style="stroke:#000000;stroke-width:0.8;" x="40.603125" xlink:href="#m299b136d8a" y="315.304875"/>
      </g>
     </g>
     <g id="text_1">
      <!-- 0 -->
      <defs>
       <path d="M 31.78125 66.40625 
Q 24.171875 66.40625 20.328125 58.90625 
Q 16.5 51.421875 16.5 36.375 
Q 16.5 21.390625 20.328125 13.890625 
Q 24.171875 6.390625 31.78125 6.390625 
Q 39.453125 6.390625 43.28125 13.890625 
Q 47.125 21.390625 47.125 36.375 
Q 47.125 51.421875 43.28125 58.90625 
Q 39.453125 66.40625 31.78125 66.40625 
z
M 31.78125 74.21875 
Q 44.046875 74.21875 50.515625 64.515625 
Q 56.984375 54.828125 56.984375 36.375 
Q 56.984375 17.96875 50.515625 8.265625 
Q 44.046875 -1.421875 31.78125 -1.421875 
Q 19.53125 -1.421875 13.0625 8.265625 
Q 6.59375 17.96875 6.59375 36.375 
Q 6.59375 54.828125 13.0625 64.515625 
Q 19.53125 74.21875 31.78125 74.21875 
z
" id="DejaVuSans-30"/>
      </defs>
      <g transform="translate(37.421875 329.903312)scale(0.1 -0.1)">
       <use xlink:href="#DejaVuSans-30"/>
      </g>
     </g>
    </g>
    <g id="xtick_2">
     <g id="line2d_3">
      <path clip-path="url(#pd2cef63844)" d="M 84.341031 315.304875 
L 84.341031 49.192875 
" style="fill:none;stroke:#b0b0b0;stroke-linecap:square;stroke-width:0.8;"/>
     </g>
     <g id="line2d_4">
      <g>
       <use style="stroke:#000000;stroke-width:0.8;" x="84.341031" xlink:href="#m299b136d8a" y="315.304875"/>
      </g>
     </g>
     <g id="text_2">
      <!-- 200 -->
      <defs>
       <path d="M 19.1875 8.296875 
L 53.609375 8.296875 
L 53.609375 0 
L 7.328125 0 
L 7.328125 8.296875 
Q 12.9375 14.109375 22.625 23.890625 
Q 32.328125 33.6875 34.8125 36.53125 
Q 39.546875 41.84375 41.421875 45.53125 
Q 43.3125 49.21875 43.3125 52.78125 
Q 43.3125 58.59375 39.234375 62.25 
Q 35.15625 65.921875 28.609375 65.921875 
Q 23.96875 65.921875 18.8125 64.3125 
Q 13.671875 62.703125 7.8125 59.421875 
L 7.8125 69.390625 
Q 13.765625 71.78125 18.9375 73 
Q 24.125 74.21875 28.421875 74.21875 
Q 39.75 74.21875 46.484375 68.546875 
Q 53.21875 62.890625 53.21875 53.421875 
Q 53.21875 48.921875 51.53125 44.890625 
Q 49.859375 40.875 45.40625 35.40625 
Q 44.1875 33.984375 37.640625 27.21875 
Q 31.109375 20.453125 19.1875 8.296875 
z
" id="DejaVuSans-32"/>
      </defs>
      <g transform="translate(74.797281 329.903312)scale(0.1 -0.1)">
       <use xlink:href="#DejaVuSans-32"/>
       <use x="63.623047" xlink:href="#DejaVuSans-30"/>
       <use x="127.246094" xlink:href="#DejaVuSans-30"/>
      </g>
     </g>
    </g>
    <g id="xtick_3">
     <g id="line2d_5">
      <path clip-path="url(#pd2cef63844)" d="M 128.078936 315.304875 
L 128.078936 49.192875 
" style="fill:none;stroke:#b0b0b0;stroke-linecap:square;stroke-width:0.8;"/>
     </g>
     <g id="line2d_6">
      <g>
       <use style="stroke:#000000;stroke-width:0.8;" x="128.078936" xlink:href="#m299b136d8a" y="315.304875"/>
      </g>
     </g>
     <g id="text_3">
      <!-- 400 -->
      <defs>
       <path d="M 37.796875 64.3125 
L 12.890625 25.390625 
L 37.796875 25.390625 
z
M 35.203125 72.90625 
L 47.609375 72.90625 
L 47.609375 25.390625 
L 58.015625 25.390625 
L 58.015625 17.1875 
L 47.609375 17.1875 
L 47.609375 0 
L 37.796875 0 
L 37.796875 17.1875 
L 4.890625 17.1875 
L 4.890625 26.703125 
z
" id="DejaVuSans-34"/>
      </defs>
      <g transform="translate(118.535186 329.903312)scale(0.1 -0.1)">
       <use xlink:href="#DejaVuSans-34"/>
       <use x="63.623047" xlink:href="#DejaVuSans-30"/>
       <use x="127.246094" xlink:href="#DejaVuSans-30"/>
      </g>
     </g>
    </g>
    <g id="xtick_4">
     <g id="line2d_7">
      <path clip-path="url(#pd2cef63844)" d="M 171.816842 315.304875 
L 171.816842 49.192875 
" style="fill:none;stroke:#b0b0b0;stroke-linecap:square;stroke-width:0.8;"/>
     </g>
     <g id="line2d_8">
      <g>
       <use style="stroke:#000000;stroke-width:0.8;" x="171.816842" xlink:href="#m299b136d8a" y="315.304875"/>
      </g>
     </g>
     <g id="text_4">
      <!-- 600 -->
      <defs>
       <path d="M 33.015625 40.375 
Q 26.375 40.375 22.484375 35.828125 
Q 18.609375 31.296875 18.609375 23.390625 
Q 18.609375 15.53125 22.484375 10.953125 
Q 26.375 6.390625 33.015625 6.390625 
Q 39.65625 6.390625 43.53125 10.953125 
Q 47.40625 15.53125 47.40625 23.390625 
Q 47.40625 31.296875 43.53125 35.828125 
Q 39.65625 40.375 33.015625 40.375 
z
M 52.59375 71.296875 
L 52.59375 62.3125 
Q 48.875 64.0625 45.09375 64.984375 
Q 41.3125 65.921875 37.59375 65.921875 
Q 27.828125 65.921875 22.671875 59.328125 
Q 17.53125 52.734375 16.796875 39.40625 
Q 19.671875 43.65625 24.015625 45.921875 
Q 28.375 48.1875 33.59375 48.1875 
Q 44.578125 48.1875 50.953125 41.515625 
Q 57.328125 34.859375 57.328125 23.390625 
Q 57.328125 12.15625 50.6875 5.359375 
Q 44.046875 -1.421875 33.015625 -1.421875 
Q 20.359375 -1.421875 13.671875 8.265625 
Q 6.984375 17.96875 6.984375 36.375 
Q 6.984375 53.65625 15.1875 63.9375 
Q 23.390625 74.21875 37.203125 74.21875 
Q 40.921875 74.21875 44.703125 73.484375 
Q 48.484375 72.75 52.59375 71.296875 
z
" id="DejaVuSans-36"/>
      </defs>
      <g transform="translate(162.273092 329.903312)scale(0.1 -0.1)">
       <use xlink:href="#DejaVuSans-36"/>
       <use x="63.623047" xlink:href="#DejaVuSans-30"/>
       <use x="127.246094" xlink:href="#DejaVuSans-30"/>
      </g>
     </g>
    </g>
    <g id="xtick_5">
     <g id="line2d_9">
      <path clip-path="url(#pd2cef63844)" d="M 215.554748 315.304875 
L 215.554748 49.192875 
" style="fill:none;stroke:#b0b0b0;stroke-linecap:square;stroke-width:0.8;"/>
     </g>
     <g id="line2d_10">
      <g>
       <use style="stroke:#000000;stroke-width:0.8;" x="215.554748" xlink:href="#m299b136d8a" y="315.304875"/>
      </g>
     </g>
     <g id="text_5">
      <!-- 800 -->
      <defs>
       <path d="M 31.78125 34.625 
Q 24.75 34.625 20.71875 30.859375 
Q 16.703125 27.09375 16.703125 20.515625 
Q 16.703125 13.921875 20.71875 10.15625 
Q 24.75 6.390625 31.78125 6.390625 
Q 38.8125 6.390625 42.859375 10.171875 
Q 46.921875 13.96875 46.921875 20.515625 
Q 46.921875 27.09375 42.890625 30.859375 
Q 38.875 34.625 31.78125 34.625 
z
M 21.921875 38.8125 
Q 15.578125 40.375 12.03125 44.71875 
Q 8.5 49.078125 8.5 55.328125 
Q 8.5 64.0625 14.71875 69.140625 
Q 20.953125 74.21875 31.78125 74.21875 
Q 42.671875 74.21875 48.875 69.140625 
Q 55.078125 64.0625 55.078125 55.328125 
Q 55.078125 49.078125 51.53125 44.71875 
Q 48 40.375 41.703125 38.8125 
Q 48.828125 37.15625 52.796875 32.3125 
Q 56.78125 27.484375 56.78125 20.515625 
Q 56.78125 9.90625 50.3125 4.234375 
Q 43.84375 -1.421875 31.78125 -1.421875 
Q 19.734375 -1.421875 13.25 4.234375 
Q 6.78125 9.90625 6.78125 20.515625 
Q 6.78125 27.484375 10.78125 32.3125 
Q 14.796875 37.15625 21.921875 38.8125 
z
M 18.3125 54.390625 
Q 18.3125 48.734375 21.84375 45.5625 
Q 25.390625 42.390625 31.78125 42.390625 
Q 38.140625 42.390625 41.71875 45.5625 
Q 45.3125 48.734375 45.3125 54.390625 
Q 45.3125 60.0625 41.71875 63.234375 
Q 38.140625 66.40625 31.78125 66.40625 
Q 25.390625 66.40625 21.84375 63.234375 
Q 18.3125 60.0625 18.3125 54.390625 
z
" id="DejaVuSans-38"/>
      </defs>
      <g transform="translate(206.010998 329.903312)scale(0.1 -0.1)">
       <use xlink:href="#DejaVuSans-38"/>
       <use x="63.623047" xlink:href="#DejaVuSans-30"/>
       <use x="127.246094" xlink:href="#DejaVuSans-30"/>
      </g>
     </g>
    </g>
    <g id="xtick_6">
     <g id="line2d_11">
      <path clip-path="url(#pd2cef63844)" d="M 259.292653 315.304875 
L 259.292653 49.192875 
" style="fill:none;stroke:#b0b0b0;stroke-linecap:square;stroke-width:0.8;"/>
     </g>
     <g id="line2d_12">
      <g>
       <use style="stroke:#000000;stroke-width:0.8;" x="259.292653" xlink:href="#m299b136d8a" y="315.304875"/>
      </g>
     </g>
     <g id="text_6">
      <!-- 1000 -->
      <defs>
       <path d="M 12.40625 8.296875 
L 28.515625 8.296875 
L 28.515625 63.921875 
L 10.984375 60.40625 
L 10.984375 69.390625 
L 28.421875 72.90625 
L 38.28125 72.90625 
L 38.28125 8.296875 
L 54.390625 8.296875 
L 54.390625 0 
L 12.40625 0 
z
" id="DejaVuSans-31"/>
      </defs>
      <g transform="translate(246.567653 329.903312)scale(0.1 -0.1)">
       <use xlink:href="#DejaVuSans-31"/>
       <use x="63.623047" xlink:href="#DejaVuSans-30"/>
       <use x="127.246094" xlink:href="#DejaVuSans-30"/>
       <use x="190.869141" xlink:href="#DejaVuSans-30"/>
      </g>
     </g>
    </g>
    <g id="xtick_7">
     <g id="line2d_13">
      <path clip-path="url(#pd2cef63844)" d="M 303.030559 315.304875 
L 303.030559 49.192875 
" style="fill:none;stroke:#b0b0b0;stroke-linecap:square;stroke-width:0.8;"/>
     </g>
     <g id="line2d_14">
      <g>
       <use style="stroke:#000000;stroke-width:0.8;" x="303.030559" xlink:href="#m299b136d8a" y="315.304875"/>
      </g>
     </g>
     <g id="text_7">
      <!-- 1200 -->
      <g transform="translate(290.305559 329.903312)scale(0.1 -0.1)">
       <use xlink:href="#DejaVuSans-31"/>
       <use x="63.623047" xlink:href="#DejaVuSans-32"/>
       <use x="127.246094" xlink:href="#DejaVuSans-30"/>
       <use x="190.869141" xlink:href="#DejaVuSans-30"/>
      </g>
     </g>
    </g>
    <g id="xtick_8">
     <g id="line2d_15">
      <path clip-path="url(#pd2cef63844)" d="M 346.768465 315.304875 
L 346.768465 49.192875 
" style="fill:none;stroke:#b0b0b0;stroke-linecap:square;stroke-width:0.8;"/>
     </g>
     <g id="line2d_16">
      <g>
       <use style="stroke:#000000;stroke-width:0.8;" x="346.768465" xlink:href="#m299b136d8a" y="315.304875"/>
      </g>
     </g>
     <g id="text_8">
      <!-- 1400 -->
      <g transform="translate(334.043465 329.903312)scale(0.1 -0.1)">
       <use xlink:href="#DejaVuSans-31"/>
       <use x="63.623047" xlink:href="#DejaVuSans-34"/>
       <use x="127.246094" xlink:href="#DejaVuSans-30"/>
       <use x="190.869141" xlink:href="#DejaVuSans-30"/>
      </g>
     </g>
    </g>
    <g id="xtick_9">
     <g id="line2d_17">
      <path clip-path="url(#pd2cef63844)" d="M 390.506371 315.304875 
L 390.506371 49.192875 
" style="fill:none;stroke:#b0b0b0;stroke-linecap:square;stroke-width:0.8;"/>
     </g>
     <g id="line2d_18">
      <g>
       <use style="stroke:#000000;stroke-width:0.8;" x="390.506371" xlink:href="#m299b136d8a" y="315.304875"/>
      </g>
     </g>
     <g id="text_9">
      <!-- 1600 -->
      <g transform="translate(377.781371 329.903312)scale(0.1 -0.1)">
       <use xlink:href="#DejaVuSans-31"/>
       <use x="63.623047" xlink:href="#DejaVuSans-36"/>
       <use x="127.246094" xlink:href="#DejaVuSans-30"/>
       <use x="190.869141" xlink:href="#DejaVuSans-30"/>
      </g>
     </g>
    </g>
    <g id="text_10">
     <!-- Time(s) -->
     <defs>
      <path d="M -0.296875 72.90625 
L 61.375 72.90625 
L 61.375 64.59375 
L 35.5 64.59375 
L 35.5 0 
L 25.59375 0 
L 25.59375 64.59375 
L -0.296875 64.59375 
z
" id="DejaVuSans-54"/>
      <path d="M 9.421875 54.6875 
L 18.40625 54.6875 
L 18.40625 0 
L 9.421875 0 
z
M 9.421875 75.984375 
L 18.40625 75.984375 
L 18.40625 64.59375 
L 9.421875 64.59375 
z
" id="DejaVuSans-69"/>
      <path d="M 52 44.1875 
Q 55.375 50.25 60.0625 53.125 
Q 64.75 56 71.09375 56 
Q 79.640625 56 84.28125 50.015625 
Q 88.921875 44.046875 88.921875 33.015625 
L 88.921875 0 
L 79.890625 0 
L 79.890625 32.71875 
Q 79.890625 40.578125 77.09375 44.375 
Q 74.3125 48.1875 68.609375 48.1875 
Q 61.625 48.1875 57.5625 43.546875 
Q 53.515625 38.921875 53.515625 30.90625 
L 53.515625 0 
L 44.484375 0 
L 44.484375 32.71875 
Q 44.484375 40.625 41.703125 44.40625 
Q 38.921875 48.1875 33.109375 48.1875 
Q 26.21875 48.1875 22.15625 43.53125 
Q 18.109375 38.875 18.109375 30.90625 
L 18.109375 0 
L 9.078125 0 
L 9.078125 54.6875 
L 18.109375 54.6875 
L 18.109375 46.1875 
Q 21.1875 51.21875 25.484375 53.609375 
Q 29.78125 56 35.6875 56 
Q 41.65625 56 45.828125 52.96875 
Q 50 49.953125 52 44.1875 
z
" id="DejaVuSans-6d"/>
      <path d="M 56.203125 29.59375 
L 56.203125 25.203125 
L 14.890625 25.203125 
Q 15.484375 15.921875 20.484375 11.0625 
Q 25.484375 6.203125 34.421875 6.203125 
Q 39.59375 6.203125 44.453125 7.46875 
Q 49.3125 8.734375 54.109375 11.28125 
L 54.109375 2.78125 
Q 49.265625 0.734375 44.1875 -0.34375 
Q 39.109375 -1.421875 33.890625 -1.421875 
Q 20.796875 -1.421875 13.15625 6.1875 
Q 5.515625 13.8125 5.515625 26.8125 
Q 5.515625 40.234375 12.765625 48.109375 
Q 20.015625 56 32.328125 56 
Q 43.359375 56 49.78125 48.890625 
Q 56.203125 41.796875 56.203125 29.59375 
z
M 47.21875 32.234375 
Q 47.125 39.59375 43.09375 43.984375 
Q 39.0625 48.390625 32.421875 48.390625 
Q 24.90625 48.390625 20.390625 44.140625 
Q 15.875 39.890625 15.1875 32.171875 
z
" id="DejaVuSans-65"/>
      <path d="M 31 75.875 
Q 24.46875 64.65625 21.28125 53.65625 
Q 18.109375 42.671875 18.109375 31.390625 
Q 18.109375 20.125 21.3125 9.0625 
Q 24.515625 -2 31 -13.1875 
L 23.1875 -13.1875 
Q 15.875 -1.703125 12.234375 9.375 
Q 8.59375 20.453125 8.59375 31.390625 
Q 8.59375 42.28125 12.203125 53.3125 
Q 15.828125 64.359375 23.1875 75.875 
z
" id="DejaVuSans-28"/>
      <path d="M 44.28125 53.078125 
L 44.28125 44.578125 
Q 40.484375 46.53125 36.375 47.5 
Q 32.28125 48.484375 27.875 48.484375 
Q 21.1875 48.484375 17.84375 46.4375 
Q 14.5 44.390625 14.5 40.28125 
Q 14.5 37.15625 16.890625 35.375 
Q 19.28125 33.59375 26.515625 31.984375 
L 29.59375 31.296875 
Q 39.15625 29.25 43.1875 25.515625 
Q 47.21875 21.78125 47.21875 15.09375 
Q 47.21875 7.46875 41.1875 3.015625 
Q 35.15625 -1.421875 24.609375 -1.421875 
Q 20.21875 -1.421875 15.453125 -0.5625 
Q 10.6875 0.296875 5.421875 2 
L 5.421875 11.28125 
Q 10.40625 8.6875 15.234375 7.390625 
Q 20.0625 6.109375 24.8125 6.109375 
Q 31.15625 6.109375 34.5625 8.28125 
Q 37.984375 10.453125 37.984375 14.40625 
Q 37.984375 18.0625 35.515625 20.015625 
Q 33.0625 21.96875 24.703125 23.78125 
L 21.578125 24.515625 
Q 13.234375 26.265625 9.515625 29.90625 
Q 5.8125 33.546875 5.8125 39.890625 
Q 5.8125 47.609375 11.28125 51.796875 
Q 16.75 56 26.8125 56 
Q 31.78125 56 36.171875 55.265625 
Q 40.578125 54.546875 44.28125 53.078125 
z
" id="DejaVuSans-73"/>
      <path d="M 8.015625 75.875 
L 15.828125 75.875 
Q 23.140625 64.359375 26.78125 53.3125 
Q 30.421875 42.28125 30.421875 31.390625 
Q 30.421875 20.453125 26.78125 9.375 
Q 23.140625 -1.703125 15.828125 -13.1875 
L 8.015625 -13.1875 
Q 14.5 -2 17.703125 9.0625 
Q 20.90625 20.125 20.90625 31.390625 
Q 20.90625 42.671875 17.703125 53.65625 
Q 14.5 64.65625 8.015625 75.875 
z
" id="DejaVuSans-29"/>
     </defs>
     <g transform="translate(200.269375 343.581437)scale(0.1 -0.1)">
      <use xlink:href="#DejaVuSans-54"/>
      <use x="61.037109" xlink:href="#DejaVuSans-69"/>
      <use x="88.820312" xlink:href="#DejaVuSans-6d"/>
      <use x="186.232422" xlink:href="#DejaVuSans-65"/>
      <use x="247.755859" xlink:href="#DejaVuSans-28"/>
      <use x="286.769531" xlink:href="#DejaVuSans-73"/>
      <use x="338.869141" xlink:href="#DejaVuSans-29"/>
     </g>
    </g>
   </g>
   <g id="matplotlib.axis_2">
    <g id="ytick_1">
     <g id="line2d_19">
      <path clip-path="url(#pd2cef63844)" d="M 40.603125 303.208875 
L 397.723125 303.208875 
" style="fill:none;stroke:#b0b0b0;stroke-linecap:square;stroke-width:0.8;"/>
     </g>
     <g id="line2d_20">
      <defs>
       <path d="M 0 0 
L -3.5 0 
" id="ma1832df6a0" style="stroke:#000000;stroke-width:0.8;"/>
      </defs>
      <g>
       <use style="stroke:#000000;stroke-width:0.8;" x="40.603125" xlink:href="#ma1832df6a0" y="303.208875"/>
      </g>
     </g>
     <g id="text_11">
      <!-- 0 -->
      <g transform="translate(27.240625 307.008094)scale(0.1 -0.1)">
       <use xlink:href="#DejaVuSans-30"/>
      </g>
     </g>
    </g>
    <g id="ytick_2">
     <g id="line2d_21">
      <path clip-path="url(#pd2cef63844)" d="M 40.603125 244.203997 
L 397.723125 244.203997 
" style="fill:none;stroke:#b0b0b0;stroke-linecap:square;stroke-width:0.8;"/>
     </g>
     <g id="line2d_22">
      <g>
       <use style="stroke:#000000;stroke-width:0.8;" x="40.603125" xlink:href="#ma1832df6a0" y="244.203997"/>
      </g>
     </g>
     <g id="text_12">
      <!-- 10 -->
      <g transform="translate(20.878125 248.003216)scale(0.1 -0.1)">
       <use xlink:href="#DejaVuSans-31"/>
       <use x="63.623047" xlink:href="#DejaVuSans-30"/>
      </g>
     </g>
    </g>
    <g id="ytick_3">
     <g id="line2d_23">
      <path clip-path="url(#pd2cef63844)" d="M 40.603125 185.199119 
L 397.723125 185.199119 
" style="fill:none;stroke:#b0b0b0;stroke-linecap:square;stroke-width:0.8;"/>
     </g>
     <g id="line2d_24">
      <g>
       <use style="stroke:#000000;stroke-width:0.8;" x="40.603125" xlink:href="#ma1832df6a0" y="185.199119"/>
      </g>
     </g>
     <g id="text_13">
      <!-- 20 -->
      <g transform="translate(20.878125 188.998338)scale(0.1 -0.1)">
       <use xlink:href="#DejaVuSans-32"/>
       <use x="63.623047" xlink:href="#DejaVuSans-30"/>
      </g>
     </g>
    </g>
    <g id="ytick_4">
     <g id="line2d_25">
      <path clip-path="url(#pd2cef63844)" d="M 40.603125 126.194241 
L 397.723125 126.194241 
" style="fill:none;stroke:#b0b0b0;stroke-linecap:square;stroke-width:0.8;"/>
     </g>
     <g id="line2d_26">
      <g>
       <use style="stroke:#000000;stroke-width:0.8;" x="40.603125" xlink:href="#ma1832df6a0" y="126.194241"/>
      </g>
     </g>
     <g id="text_14">
      <!-- 30 -->
      <defs>
       <path d="M 40.578125 39.3125 
Q 47.65625 37.796875 51.625 33 
Q 55.609375 28.21875 55.609375 21.1875 
Q 55.609375 10.40625 48.1875 4.484375 
Q 40.765625 -1.421875 27.09375 -1.421875 
Q 22.515625 -1.421875 17.65625 -0.515625 
Q 12.796875 0.390625 7.625 2.203125 
L 7.625 11.71875 
Q 11.71875 9.328125 16.59375 8.109375 
Q 21.484375 6.890625 26.8125 6.890625 
Q 36.078125 6.890625 40.9375 10.546875 
Q 45.796875 14.203125 45.796875 21.1875 
Q 45.796875 27.640625 41.28125 31.265625 
Q 36.765625 34.90625 28.71875 34.90625 
L 20.21875 34.90625 
L 20.21875 43.015625 
L 29.109375 43.015625 
Q 36.375 43.015625 40.234375 45.921875 
Q 44.09375 48.828125 44.09375 54.296875 
Q 44.09375 59.90625 40.109375 62.90625 
Q 36.140625 65.921875 28.71875 65.921875 
Q 24.65625 65.921875 20.015625 65.03125 
Q 15.375 64.15625 9.8125 62.3125 
L 9.8125 71.09375 
Q 15.4375 72.65625 20.34375 73.4375 
Q 25.25 74.21875 29.59375 74.21875 
Q 40.828125 74.21875 47.359375 69.109375 
Q 53.90625 64.015625 53.90625 55.328125 
Q 53.90625 49.265625 50.4375 45.09375 
Q 46.96875 40.921875 40.578125 39.3125 
z
" id="DejaVuSans-33"/>
      </defs>
      <g transform="translate(20.878125 129.99346)scale(0.1 -0.1)">
       <use xlink:href="#DejaVuSans-33"/>
       <use x="63.623047" xlink:href="#DejaVuSans-30"/>
      </g>
     </g>
    </g>
    <g id="ytick_5">
     <g id="line2d_27">
      <path clip-path="url(#pd2cef63844)" d="M 40.603125 67.189363 
L 397.723125 67.189363 
" style="fill:none;stroke:#b0b0b0;stroke-linecap:square;stroke-width:0.8;"/>
     </g>
     <g id="line2d_28">
      <g>
       <use style="stroke:#000000;stroke-width:0.8;" x="40.603125" xlink:href="#ma1832df6a0" y="67.189363"/>
      </g>
     </g>
     <g id="text_15">
      <!-- 40 -->
      <g transform="translate(20.878125 70.988582)scale(0.1 -0.1)">
       <use xlink:href="#DejaVuSans-34"/>
       <use x="63.623047" xlink:href="#DejaVuSans-30"/>
      </g>
     </g>
    </g>
    <g id="text_16">
     <!-- Discovered Nodes -->
     <defs>
      <path d="M 19.671875 64.796875 
L 19.671875 8.109375 
L 31.59375 8.109375 
Q 46.6875 8.109375 53.6875 14.9375 
Q 60.6875 21.78125 60.6875 36.53125 
Q 60.6875 51.171875 53.6875 57.984375 
Q 46.6875 64.796875 31.59375 64.796875 
z
M 9.8125 72.90625 
L 30.078125 72.90625 
Q 51.265625 72.90625 61.171875 64.09375 
Q 71.09375 55.28125 71.09375 36.53125 
Q 71.09375 17.671875 61.125 8.828125 
Q 51.171875 0 30.078125 0 
L 9.8125 0 
z
" id="DejaVuSans-44"/>
      <path d="M 48.78125 52.59375 
L 48.78125 44.1875 
Q 44.96875 46.296875 41.140625 47.34375 
Q 37.3125 48.390625 33.40625 48.390625 
Q 24.65625 48.390625 19.8125 42.84375 
Q 14.984375 37.3125 14.984375 27.296875 
Q 14.984375 17.28125 19.8125 11.734375 
Q 24.65625 6.203125 33.40625 6.203125 
Q 37.3125 6.203125 41.140625 7.25 
Q 44.96875 8.296875 48.78125 10.40625 
L 48.78125 2.09375 
Q 45.015625 0.34375 40.984375 -0.53125 
Q 36.96875 -1.421875 32.421875 -1.421875 
Q 20.0625 -1.421875 12.78125 6.34375 
Q 5.515625 14.109375 5.515625 27.296875 
Q 5.515625 40.671875 12.859375 48.328125 
Q 20.21875 56 33.015625 56 
Q 37.15625 56 41.109375 55.140625 
Q 45.0625 54.296875 48.78125 52.59375 
z
" id="DejaVuSans-63"/>
      <path d="M 30.609375 48.390625 
Q 23.390625 48.390625 19.1875 42.75 
Q 14.984375 37.109375 14.984375 27.296875 
Q 14.984375 17.484375 19.15625 11.84375 
Q 23.34375 6.203125 30.609375 6.203125 
Q 37.796875 6.203125 41.984375 11.859375 
Q 46.1875 17.53125 46.1875 27.296875 
Q 46.1875 37.015625 41.984375 42.703125 
Q 37.796875 48.390625 30.609375 48.390625 
z
M 30.609375 56 
Q 42.328125 56 49.015625 48.375 
Q 55.71875 40.765625 55.71875 27.296875 
Q 55.71875 13.875 49.015625 6.21875 
Q 42.328125 -1.421875 30.609375 -1.421875 
Q 18.84375 -1.421875 12.171875 6.21875 
Q 5.515625 13.875 5.515625 27.296875 
Q 5.515625 40.765625 12.171875 48.375 
Q 18.84375 56 30.609375 56 
z
" id="DejaVuSans-6f"/>
      <path d="M 2.984375 54.6875 
L 12.5 54.6875 
L 29.59375 8.796875 
L 46.6875 54.6875 
L 56.203125 54.6875 
L 35.6875 0 
L 23.484375 0 
z
" id="DejaVuSans-76"/>
      <path d="M 41.109375 46.296875 
Q 39.59375 47.171875 37.8125 47.578125 
Q 36.03125 48 33.890625 48 
Q 26.265625 48 22.1875 43.046875 
Q 18.109375 38.09375 18.109375 28.8125 
L 18.109375 0 
L 9.078125 0 
L 9.078125 54.6875 
L 18.109375 54.6875 
L 18.109375 46.1875 
Q 20.953125 51.171875 25.484375 53.578125 
Q 30.03125 56 36.53125 56 
Q 37.453125 56 38.578125 55.875 
Q 39.703125 55.765625 41.0625 55.515625 
z
" id="DejaVuSans-72"/>
      <path d="M 45.40625 46.390625 
L 45.40625 75.984375 
L 54.390625 75.984375 
L 54.390625 0 
L 45.40625 0 
L 45.40625 8.203125 
Q 42.578125 3.328125 38.25 0.953125 
Q 33.9375 -1.421875 27.875 -1.421875 
Q 17.96875 -1.421875 11.734375 6.484375 
Q 5.515625 14.40625 5.515625 27.296875 
Q 5.515625 40.1875 11.734375 48.09375 
Q 17.96875 56 27.875 56 
Q 33.9375 56 38.25 53.625 
Q 42.578125 51.265625 45.40625 46.390625 
z
M 14.796875 27.296875 
Q 14.796875 17.390625 18.875 11.75 
Q 22.953125 6.109375 30.078125 6.109375 
Q 37.203125 6.109375 41.296875 11.75 
Q 45.40625 17.390625 45.40625 27.296875 
Q 45.40625 37.203125 41.296875 42.84375 
Q 37.203125 48.484375 30.078125 48.484375 
Q 22.953125 48.484375 18.875 42.84375 
Q 14.796875 37.203125 14.796875 27.296875 
z
" id="DejaVuSans-64"/>
      <path id="DejaVuSans-20"/>
      <path d="M 9.8125 72.90625 
L 23.09375 72.90625 
L 55.421875 11.921875 
L 55.421875 72.90625 
L 64.984375 72.90625 
L 64.984375 0 
L 51.703125 0 
L 19.390625 60.984375 
L 19.390625 0 
L 9.8125 0 
z
" id="DejaVuSans-4e"/>
     </defs>
     <g transform="translate(14.798438 227.486375)rotate(-90)scale(0.1 -0.1)">
      <use xlink:href="#DejaVuSans-44"/>
      <use x="77.001953" xlink:href="#DejaVuSans-69"/>
      <use x="104.785156" xlink:href="#DejaVuSans-73"/>
      <use x="156.884766" xlink:href="#DejaVuSans-63"/>
      <use x="211.865234" xlink:href="#DejaVuSans-6f"/>
      <use x="273.046875" xlink:href="#DejaVuSans-76"/>
      <use x="332.226562" xlink:href="#DejaVuSans-65"/>
      <use x="393.75" xlink:href="#DejaVuSans-72"/>
      <use x="434.832031" xlink:href="#DejaVuSans-65"/>
      <use x="496.355469" xlink:href="#DejaVuSans-64"/>
      <use x="559.832031" xlink:href="#DejaVuSans-20"/>
      <use x="591.619141" xlink:href="#DejaVuSans-4e"/>
      <use x="666.423828" xlink:href="#DejaVuSans-6f"/>
      <use x="727.605469" xlink:href="#DejaVuSans-64"/>
      <use x="791.082031" xlink:href="#DejaVuSans-65"/>
      <use x="852.605469" xlink:href="#DejaVuSans-73"/>
     </g>
    </g>
   </g>
   <g id="line2d_29">
    <path clip-path="url(#pd2cef63844)" d="M 40.603125 303.208875 
L 50.662843 303.208875 
L 50.881533 297.308387 
L 53.505807 297.308387 
L 53.724497 303.208875 
L 72.531796 303.208875 
L 72.750486 297.308387 
L 74.281312 297.308387 
L 74.500002 291.407899 
L 77.124276 291.407899 
L 77.342966 285.507412 
L 78.217724 285.507412 
L 78.436413 291.407899 
L 78.873792 291.407899 
L 79.092482 285.507412 
L 79.311172 285.507412 
L 79.529861 279.606924 
L 80.404619 279.606924 
L 80.623309 285.507412 
L 81.935446 285.507412 
L 82.154135 273.706436 
L 83.466273 273.706436 
L 83.684962 279.606924 
L 84.77841 279.606924 
L 84.997099 273.706436 
L 86.090547 273.706436 
L 86.527926 285.507412 
L 88.714821 285.507412 
L 89.1522 297.308387 
L 90.901717 297.308387 
L 91.120406 303.208875 
L 94.182059 303.208875 
L 94.400749 297.308387 
L 94.619439 297.308387 
L 94.838128 291.407899 
L 95.712886 291.407899 
L 95.931576 285.507412 
L 96.150265 273.706436 
L 96.587644 273.706436 
L 97.681092 244.203997 
L 98.118471 244.203997 
L 98.337161 250.104485 
L 98.55585 250.104485 
L 99.211919 232.403021 
L 99.649298 232.403021 
L 100.086677 220.602046 
L 100.305366 232.403021 
L 100.742745 208.80107 
L 100.961435 208.80107 
L 101.836193 232.403021 
L 102.054883 232.403021 
L 102.273572 238.303509 
L 102.710951 226.502534 
L 102.929641 214.701558 
L 103.36702 214.701558 
L 103.804399 226.502534 
L 104.241778 226.502534 
L 104.460467 232.403021 
L 104.679157 232.403021 
L 104.897846 244.203997 
L 105.116536 238.303509 
L 105.335225 244.203997 
L 105.772604 244.203997 
L 106.209984 256.004973 
L 106.647363 273.706436 
L 106.866052 279.606924 
L 107.084742 279.606924 
L 107.303431 285.507412 
L 107.74081 285.507412 
L 108.178189 303.208875 
L 112.770669 303.208875 
L 112.989359 297.308387 
L 113.208048 297.308387 
L 113.864117 267.805948 
L 114.082807 267.805948 
L 114.301496 261.90546 
L 114.738875 261.90546 
L 115.176254 232.403021 
L 115.394944 226.502534 
L 116.051012 197.000095 
L 116.269702 197.000095 
L 116.488391 191.099607 
L 116.707081 173.398143 
L 117.363149 173.398143 
L 117.800529 137.995216 
L 118.019218 137.995216 
L 118.237908 126.194241 
L 118.456597 126.194241 
L 118.675287 132.094729 
L 118.893976 126.194241 
L 119.112666 96.691802 
L 119.550045 96.691802 
L 119.768734 102.59229 
L 120.424803 73.089851 
L 120.643492 67.189363 
L 120.862182 73.089851 
L 121.080871 90.791314 
L 121.299561 90.791314 
L 121.73694 108.492777 
L 122.174319 96.691802 
L 122.611698 120.293753 
L 123.049077 120.293753 
L 123.267767 126.194241 
L 123.486456 120.293753 
L 124.142525 137.995216 
L 124.361214 137.995216 
L 124.579904 143.895704 
L 124.798593 155.69668 
L 125.017283 179.298631 
L 125.235973 185.199119 
L 125.454662 185.199119 
L 125.673352 191.099607 
L 126.54811 238.303509 
L 126.766799 238.303509 
L 126.985489 250.104485 
L 127.204178 250.104485 
L 127.641557 261.90546 
L 127.860247 279.606924 
L 128.297626 279.606924 
L 128.516315 297.308387 
L 129.828453 297.308387 
L 130.047142 303.208875 
L 202.870755 303.208875 
L 203.526824 285.507412 
L 203.964203 285.507412 
L 204.182892 279.606924 
L 205.05765 279.606924 
L 205.495029 267.805948 
L 205.713719 267.805948 
L 205.932409 256.004973 
L 206.151098 256.004973 
L 206.369788 250.104485 
L 206.807167 250.104485 
L 207.463235 220.602046 
L 207.900614 220.602046 
L 208.337993 197.000095 
L 208.556683 202.900582 
L 208.994062 185.199119 
L 209.212751 185.199119 
L 209.431441 167.497655 
L 209.86882 167.497655 
L 210.524889 137.995216 
L 210.743578 137.995216 
L 210.962268 132.094729 
L 211.180957 132.094729 
L 211.399647 143.895704 
L 211.618336 143.895704 
L 212.055715 108.492777 
L 212.274405 102.59229 
L 212.493094 90.791314 
L 212.711784 90.791314 
L 212.930473 84.890826 
L 213.367852 84.890826 
L 213.586542 73.089851 
L 213.805232 73.089851 
L 214.023921 78.990338 
L 214.242611 73.089851 
L 214.4613 78.990338 
L 214.898679 78.990338 
L 215.117369 67.189363 
L 215.554748 90.791314 
L 215.773437 90.791314 
L 215.992127 96.691802 
L 216.210816 96.691802 
L 216.429506 108.492777 
L 217.960333 108.492777 
L 218.616401 137.995216 
L 218.835091 137.995216 
L 219.05378 143.895704 
L 219.491159 167.497655 
L 219.709849 167.497655 
L 220.147228 179.298631 
L 220.365917 179.298631 
L 220.803296 191.099607 
L 221.021986 208.80107 
L 221.240676 214.701558 
L 221.459365 214.701558 
L 221.896744 226.502534 
L 222.334123 226.502534 
L 223.208881 250.104485 
L 223.427571 250.104485 
L 223.64626 256.004973 
L 223.86495 273.706436 
L 224.521018 273.706436 
L 225.177087 291.407899 
L 225.614466 291.407899 
L 226.051845 303.208875 
L 229.332188 303.208875 
L 230.206946 261.90546 
L 230.425636 261.90546 
L 230.644325 256.004973 
L 230.863015 238.303509 
L 231.081704 232.403021 
L 231.519083 232.403021 
L 232.175152 202.900582 
L 232.612531 202.900582 
L 232.831221 191.099607 
L 233.04991 167.497655 
L 233.2686 167.497655 
L 233.487289 155.69668 
L 233.705979 155.69668 
L 233.924668 149.796192 
L 234.143358 126.194241 
L 234.362047 120.293753 
L 234.580737 120.293753 
L 234.799426 114.393265 
L 235.018116 114.393265 
L 235.236805 102.59229 
L 235.455495 102.59229 
L 235.674184 96.691802 
L 235.892874 96.691802 
L 236.111563 102.59229 
L 236.548943 126.194241 
L 236.767632 120.293753 
L 236.986322 132.094729 
L 237.205011 132.094729 
L 237.423701 120.293753 
L 237.64239 120.293753 
L 237.86108 96.691802 
L 238.079769 102.59229 
L 238.517148 102.59229 
L 238.735838 96.691802 
L 239.173217 96.691802 
L 239.610596 108.492777 
L 239.829285 108.492777 
L 240.266664 120.293753 
L 240.485354 114.393265 
L 240.704044 120.293753 
L 241.141423 120.293753 
L 241.360112 126.194241 
L 241.797491 108.492777 
L 242.23487 108.492777 
L 242.45356 96.691802 
L 242.672249 96.691802 
L 242.890939 114.393265 
L 243.109628 114.393265 
L 243.547007 126.194241 
L 243.984386 114.393265 
L 245.077834 114.393265 
L 245.296524 108.492777 
L 245.733903 108.492777 
L 246.171282 96.691802 
L 246.389971 96.691802 
L 246.608661 108.492777 
L 246.82735 102.59229 
L 247.04604 102.59229 
L 247.702108 84.890826 
L 248.139488 84.890826 
L 248.358177 90.791314 
L 248.576867 90.791314 
L 248.795556 96.691802 
L 249.232935 78.990338 
L 249.451625 84.890826 
L 250.763762 84.890826 
L 250.982451 78.990338 
L 251.85721 78.990338 
L 252.075899 73.089851 
L 252.294589 78.990338 
L 252.513278 73.089851 
L 252.731968 78.990338 
L 253.825415 78.990338 
L 254.044105 73.089851 
L 254.700173 73.089851 
L 254.918863 78.990338 
L 255.137552 78.990338 
L 255.356242 73.089851 
L 261.698238 73.089851 
L 261.916928 67.189363 
L 262.354307 67.189363 
L 262.572996 73.089851 
L 262.791686 73.089851 
L 263.010375 67.189363 
L 263.229065 67.189363 
L 263.666444 78.990338 
L 264.103823 78.990338 
L 264.322513 73.089851 
L 264.541202 73.089851 
L 264.759892 78.990338 
L 268.258924 78.990338 
L 268.477614 84.890826 
L 268.914993 84.890826 
L 269.133682 78.990338 
L 269.352372 78.990338 
L 269.571061 84.890826 
L 270.00844 84.890826 
L 270.22713 78.990338 
L 270.445819 78.990338 
L 270.664509 84.890826 
L 271.976646 84.890826 
L 272.195336 78.990338 
L 272.414025 84.890826 
L 272.632715 78.990338 
L 273.507473 78.990338 
L 273.726162 84.890826 
L 273.944852 78.990338 
L 274.81961 78.990338 
L 275.0383 84.890826 
L 275.694368 84.890826 
L 275.913058 78.990338 
L 276.131747 84.890826 
L 276.350437 78.990338 
L 277.006505 78.990338 
L 277.225195 84.890826 
L 277.443884 84.890826 
L 277.662574 78.990338 
L 278.537332 78.990338 
L 278.756022 84.890826 
L 279.63078 84.890826 
L 279.849469 78.990338 
L 280.068159 84.890826 
L 280.286848 84.890826 
L 280.505538 90.791314 
L 281.817675 90.791314 
L 282.036364 96.691802 
L 282.255054 96.691802 
L 282.473743 102.59229 
L 282.692433 90.791314 
L 283.129812 90.791314 
L 283.567191 102.59229 
L 284.22326 102.59229 
L 284.441949 96.691802 
L 284.660639 102.59229 
L 287.284913 102.59229 
L 287.503603 108.492777 
L 287.722292 108.492777 
L 287.940982 102.59229 
L 288.59705 102.59229 
L 288.81574 108.492777 
L 289.471808 108.492777 
L 289.690498 102.59229 
L 289.909187 102.59229 
L 290.127877 108.492777 
L 295.157736 108.492777 
L 295.376426 102.59229 
L 295.595115 102.59229 
L 295.813805 108.492777 
L 296.032494 108.492777 
L 296.251184 102.59229 
L 301.281043 102.59229 
L 301.499732 96.691802 
L 301.718422 96.691802 
L 301.937112 114.393265 
L 302.374491 114.393265 
L 302.59318 96.691802 
L 302.81187 90.791314 
L 303.030559 90.791314 
L 303.249249 102.59229 
L 303.467938 102.59229 
L 303.686628 96.691802 
L 304.124007 96.691802 
L 304.342696 102.59229 
L 304.561386 114.393265 
L 304.998765 96.691802 
L 305.873523 96.691802 
L 306.092213 102.59229 
L 306.748281 102.59229 
L 307.18566 84.890826 
L 307.40435 90.791314 
L 307.623039 84.890826 
L 308.060418 102.59229 
L 308.279108 96.691802 
L 308.497797 84.890826 
L 308.716487 84.890826 
L 308.935176 78.990338 
L 309.153866 90.791314 
L 309.372555 90.791314 
L 309.809935 78.990338 
L 310.247314 78.990338 
L 310.466003 84.890826 
L 310.684693 78.990338 
L 310.903382 78.990338 
L 311.340761 67.189363 
L 311.559451 67.189363 
L 311.77814 73.089851 
L 311.99683 67.189363 
L 312.215519 78.990338 
L 312.434209 78.990338 
L 312.652898 67.189363 
L 313.308967 67.189363 
L 313.527657 73.089851 
L 314.183725 73.089851 
L 314.402415 78.990338 
L 314.621104 78.990338 
L 314.839794 84.890826 
L 315.933241 84.890826 
L 316.151931 90.791314 
L 316.37062 84.890826 
L 316.58931 90.791314 
L 318.338826 90.791314 
L 318.557516 84.890826 
L 318.776205 96.691802 
L 319.650963 96.691802 
L 319.869653 90.791314 
L 320.307032 90.791314 
L 320.525721 96.691802 
L 321.40048 96.691802 
L 321.619169 90.791314 
L 322.056548 90.791314 
L 322.275238 96.691802 
L 326.649028 96.691802 
L 326.867718 90.791314 
L 327.305097 90.791314 
L 327.523786 96.691802 
L 327.961165 96.691802 
L 328.179855 90.791314 
L 329.054613 90.791314 
L 329.273303 96.691802 
L 329.491992 90.791314 
L 329.710682 90.791314 
L 329.929371 96.691802 
L 330.148061 96.691802 
L 330.36675 90.791314 
L 330.804129 90.791314 
L 331.022819 96.691802 
L 331.678887 96.691802 
L 331.897577 90.791314 
L 332.116266 96.691802 
L 332.772335 96.691802 
L 332.991025 90.791314 
L 334.95923 90.791314 
L 335.17792 96.691802 
L 335.615299 96.691802 
L 335.833988 90.791314 
L 336.052678 96.691802 
L 336.271367 96.691802 
L 336.490057 102.59229 
L 337.802194 102.59229 
L 338.020884 108.492777 
L 338.239573 108.492777 
L 338.458263 102.59229 
L 338.895642 102.59229 
L 339.114331 108.492777 
L 339.989089 108.492777 
L 340.207779 114.393265 
L 340.863848 114.393265 
L 341.082537 108.492777 
L 341.301227 108.492777 
L 341.519916 114.393265 
L 342.175985 114.393265 
L 342.394674 108.492777 
L 342.832053 108.492777 
L 343.050743 114.393265 
L 343.488122 114.393265 
L 343.706811 120.293753 
L 343.925501 108.492777 
L 344.36288 108.492777 
L 344.800259 120.293753 
L 345.018949 120.293753 
L 345.237638 114.393265 
L 350.267497 114.393265 
L 350.486187 120.293753 
L 350.704876 120.293753 
L 350.923566 114.393265 
L 351.142255 114.393265 
L 351.360945 120.293753 
L 351.798324 120.293753 
L 352.017014 126.194241 
L 352.673082 126.194241 
L 352.891772 120.293753 
L 353.54784 120.293753 
L 353.76653 126.194241 
L 357.484252 126.194241 
L 357.702941 114.393265 
L 358.14032 114.393265 
L 358.35901 120.293753 
L 358.796389 120.293753 
L 359.015078 114.393265 
L 359.889837 114.393265 
L 360.108526 120.293753 
L 360.327216 114.393265 
L 363.17018 114.393265 
L 363.388869 108.492777 
L 363.607559 114.393265 
L 364.044938 114.393265 
L 364.263627 108.492777 
L 371.261692 108.492777 
L 371.480382 114.393265 
L 371.699071 114.393265 
L 371.917761 108.492777 
L 372.573829 108.492777 
L 372.792519 114.393265 
L 373.448587 114.393265 
L 373.667277 108.492777 
L 373.885966 108.492777 
L 374.104656 114.393265 
L 378.697136 114.393265 
L 378.915826 108.492777 
L 379.134515 114.393265 
L 380.009273 114.393265 
L 380.227963 108.492777 
L 380.665342 108.492777 
L 380.884031 114.393265 
L 381.102721 114.393265 
L 381.32141 102.59229 
L 381.5401 102.59229 
L 381.758789 108.492777 
L 382.414858 108.492777 
L 382.852237 96.691802 
L 383.070927 96.691802 
L 383.289616 102.59229 
L 383.726995 102.59229 
L 383.945685 108.492777 
L 384.383064 96.691802 
L 384.601753 96.691802 
L 384.820443 108.492777 
L 385.257822 108.492777 
L 385.476511 102.59229 
L 386.13258 102.59229 
L 386.35127 108.492777 
L 386.569959 108.492777 
L 387.007338 96.691802 
L 387.444717 96.691802 
L 387.663407 90.791314 
L 387.882096 96.691802 
L 388.538165 96.691802 
L 388.975544 84.890826 
L 389.194233 84.890826 
L 389.412923 96.691802 
L 389.631612 96.691802 
L 390.068992 84.890826 
L 390.72506 84.890826 
L 390.94375 96.691802 
L 391.162439 96.691802 
L 391.381129 78.990338 
L 391.818508 67.189363 
L 392.037197 73.089851 
L 392.255887 73.089851 
L 392.474576 84.890826 
L 393.130645 67.189363 
L 393.349334 73.089851 
L 393.568024 73.089851 
L 393.786713 78.990338 
L 394.224093 78.990338 
L 394.442782 73.089851 
L 395.098851 73.089851 
L 395.31754 78.990338 
L 395.754919 78.990338 
L 395.973609 73.089851 
L 396.410988 73.089851 
L 396.629677 78.990338 
L 397.067056 78.990338 
L 397.285746 84.890826 
L 397.504435 78.990338 
L 397.504435 78.990338 
" style="fill:none;stroke:#008000;stroke-linecap:square;stroke-width:1.5;"/>
   </g>
   <g id="line2d_30">
    <path clip-path="url(#pd2cef63844)" d="M 40.603125 303.208875 
L 49.132017 303.208875 
L 49.350706 297.308387 
L 52.849739 297.308387 
L 53.068428 291.407899 
L 55.692702 291.407899 
L 55.911392 297.308387 
L 57.660908 297.308387 
L 57.879598 303.208875 
L 96.368955 303.208875 
L 96.587644 297.308387 
L 97.243713 297.308387 
L 97.462402 291.407899 
L 97.681092 291.407899 
L 97.899781 285.507412 
L 98.118471 285.507412 
L 98.337161 279.606924 
L 100.305366 279.606924 
L 100.524056 273.706436 
L 101.180124 273.706436 
L 101.398814 279.606924 
L 101.617503 273.706436 
L 103.585709 273.706436 
L 103.804399 279.606924 
L 104.241778 279.606924 
L 104.460467 273.706436 
L 104.679157 285.507412 
L 104.897846 285.507412 
L 105.116536 291.407899 
L 106.866052 291.407899 
L 107.084742 297.308387 
L 107.303431 297.308387 
L 107.522121 303.208875 
L 158.039402 303.208875 
L 158.258091 297.308387 
L 159.132849 297.308387 
L 159.351539 285.507412 
L 160.663676 285.507412 
L 160.882366 279.606924 
L 161.757124 279.606924 
L 161.975813 273.706436 
L 162.194503 273.706436 
L 162.413192 267.805948 
L 162.631882 267.805948 
L 162.850571 261.90546 
L 163.069261 261.90546 
L 163.50664 250.104485 
L 163.944019 250.104485 
L 164.162709 244.203997 
L 164.600088 244.203997 
L 164.818777 238.303509 
L 165.037467 226.502534 
L 165.256156 226.502534 
L 165.474846 220.602046 
L 166.349604 220.602046 
L 166.568293 214.701558 
L 166.786983 226.502534 
L 167.661741 226.502534 
L 167.880431 220.602046 
L 168.09912 226.502534 
L 168.536499 226.502534 
L 168.755189 220.602046 
L 168.973878 220.602046 
L 169.192568 226.502534 
L 169.411257 226.502534 
L 169.629947 238.303509 
L 170.942084 238.303509 
L 171.160773 232.403021 
L 172.254221 232.403021 
L 172.472911 238.303509 
L 172.6916 250.104485 
L 174.003737 250.104485 
L 174.222427 261.90546 
L 174.441116 261.90546 
L 174.659806 256.004973 
L 175.753254 256.004973 
L 176.190633 267.805948 
L 176.409322 267.805948 
L 176.628012 273.706436 
L 177.50277 273.706436 
L 177.721459 279.606924 
L 178.158838 279.606924 
L 178.377528 285.507412 
L 179.470976 285.507412 
L 179.689665 291.407899 
L 182.532629 291.407899 
L 182.751319 303.208875 
L 182.970008 291.407899 
L 184.500835 291.407899 
L 184.719524 285.507412 
L 185.375593 285.507412 
L 185.594282 273.706436 
L 186.031661 273.706436 
L 186.250351 261.90546 
L 187.781178 261.90546 
L 187.999867 250.104485 
L 188.655936 250.104485 
L 189.093315 232.403021 
L 189.312004 226.502534 
L 189.749383 226.502534 
L 189.968073 232.403021 
L 190.186762 226.502534 
L 191.061521 226.502534 
L 191.28021 232.403021 
L 191.717589 220.602046 
L 191.936279 226.502534 
L 192.373658 226.502534 
L 192.592347 232.403021 
L 192.811037 226.502534 
L 193.248416 226.502534 
L 193.467105 232.403021 
L 193.904484 232.403021 
L 194.123174 238.303509 
L 194.779243 238.303509 
L 195.216622 250.104485 
L 198.059586 250.104485 
L 198.278275 256.004973 
L 198.496965 256.004973 
L 198.934344 279.606924 
L 199.809102 279.606924 
L 200.027791 285.507412 
L 200.246481 285.507412 
L 200.46517 291.407899 
L 202.214687 291.407899 
L 202.433376 285.507412 
L 203.745513 285.507412 
L 204.182892 273.706436 
L 204.838961 273.706436 
L 205.05765 261.90546 
L 206.151098 261.90546 
L 206.369788 256.004973 
L 206.807167 256.004973 
L 207.025856 238.303509 
L 207.681925 238.303509 
L 208.119304 226.502534 
L 208.337993 226.502534 
L 209.650131 155.69668 
L 209.86882 126.194241 
L 210.08751 132.094729 
L 210.743578 132.094729 
L 210.962268 126.194241 
L 211.180957 126.194241 
L 211.399647 137.995216 
L 211.837026 126.194241 
L 212.274405 126.194241 
L 212.711784 137.995216 
L 212.930473 137.995216 
L 213.586542 120.293753 
L 215.117369 120.293753 
L 215.336058 108.492777 
L 215.773437 120.293753 
L 216.429506 120.293753 
L 216.648195 132.094729 
L 216.866885 132.094729 
L 217.304264 120.293753 
L 217.741643 120.293753 
L 217.960333 126.194241 
L 218.397712 96.691802 
L 219.05378 78.990338 
L 219.27247 84.890826 
L 219.709849 67.189363 
L 219.928538 67.189363 
L 220.147228 84.890826 
L 220.803296 84.890826 
L 221.021986 108.492777 
L 221.459365 120.293753 
L 221.678055 120.293753 
L 221.896744 114.393265 
L 222.334123 114.393265 
L 222.552813 102.59229 
L 222.771502 102.59229 
L 223.208881 114.393265 
L 223.427571 114.393265 
L 223.64626 120.293753 
L 223.86495 120.293753 
L 224.083639 114.393265 
L 224.521018 114.393265 
L 224.739708 126.194241 
L 224.958398 126.194241 
L 225.395777 137.995216 
L 225.614466 149.796192 
L 225.833156 149.796192 
L 226.051845 155.69668 
L 226.926603 155.69668 
L 227.145293 161.597168 
L 227.363982 173.398143 
L 227.582672 173.398143 
L 227.801361 185.199119 
L 228.23874 185.199119 
L 228.45743 191.099607 
L 228.894809 191.099607 
L 229.113499 202.900582 
L 229.332188 202.900582 
L 229.769567 214.701558 
L 229.988257 232.403021 
L 230.206946 232.403021 
L 230.425636 238.303509 
L 230.644325 250.104485 
L 230.863015 250.104485 
L 231.081704 273.706436 
L 231.300394 273.706436 
L 231.519083 279.606924 
L 232.831221 279.606924 
L 233.04991 291.407899 
L 233.2686 291.407899 
L 233.487289 297.308387 
L 234.143358 297.308387 
L 234.362047 303.208875 
L 236.986322 303.208875 
L 237.205011 297.308387 
L 237.423701 297.308387 
L 237.64239 291.407899 
L 237.86108 291.407899 
L 238.298459 279.606924 
L 238.735838 279.606924 
L 238.954527 267.805948 
L 239.173217 267.805948 
L 239.610596 226.502534 
L 239.829285 220.602046 
L 240.047975 208.80107 
L 240.266664 208.80107 
L 240.704044 191.099607 
L 241.141423 191.099607 
L 241.360112 185.199119 
L 241.797491 185.199119 
L 242.016181 167.497655 
L 242.23487 161.597168 
L 242.45356 149.796192 
L 242.672249 149.796192 
L 242.890939 132.094729 
L 243.109628 126.194241 
L 243.328318 114.393265 
L 243.547007 114.393265 
L 243.765697 102.59229 
L 243.984386 102.59229 
L 244.203076 96.691802 
L 244.421766 108.492777 
L 244.640455 108.492777 
L 245.077834 96.691802 
L 245.515213 96.691802 
L 245.733903 90.791314 
L 245.952592 90.791314 
L 246.389971 102.59229 
L 246.608661 96.691802 
L 246.82735 102.59229 
L 247.04604 102.59229 
L 247.264729 96.691802 
L 247.702108 96.691802 
L 247.920798 102.59229 
L 248.358177 90.791314 
L 248.576867 90.791314 
L 248.795556 84.890826 
L 249.232935 84.890826 
L 249.451625 78.990338 
L 250.107693 78.990338 
L 250.326383 84.890826 
L 250.545072 84.890826 
L 250.982451 73.089851 
L 251.63852 73.089851 
L 251.85721 78.990338 
L 252.294589 78.990338 
L 252.513278 73.089851 
L 252.950657 73.089851 
L 253.169347 67.189363 
L 253.388036 73.089851 
L 253.825415 73.089851 
L 254.044105 78.990338 
L 254.481484 67.189363 
L 254.700173 73.089851 
L 254.918863 67.189363 
L 255.137552 73.089851 
L 256.231 73.089851 
L 256.44969 78.990338 
L 256.668379 73.089851 
L 261.698238 73.089851 
L 261.916928 67.189363 
L 262.572996 67.189363 
L 263.010375 78.990338 
L 263.229065 73.089851 
L 263.666444 73.089851 
L 263.885134 67.189363 
L 264.103823 78.990338 
L 264.322513 78.990338 
L 264.541202 73.089851 
L 264.978581 73.089851 
L 265.197271 78.990338 
L 266.290718 78.990338 
L 266.509408 84.890826 
L 266.946787 84.890826 
L 267.165477 78.990338 
L 268.040235 78.990338 
L 268.258924 84.890826 
L 268.696303 84.890826 
L 268.914993 78.990338 
L 269.133682 78.990338 
L 269.352372 84.890826 
L 270.883198 84.890826 
L 271.101888 78.990338 
L 271.539267 90.791314 
L 271.976646 90.791314 
L 272.414025 78.990338 
L 273.070094 78.990338 
L 273.507473 90.791314 
L 273.944852 90.791314 
L 274.163541 84.890826 
L 274.382231 84.890826 
L 274.60092 78.990338 
L 274.81961 78.990338 
L 275.256989 90.791314 
L 275.694368 78.990338 
L 276.350437 78.990338 
L 276.569126 84.890826 
L 277.225195 84.890826 
L 277.443884 78.990338 
L 278.099953 78.990338 
L 278.537332 90.791314 
L 278.974711 90.791314 
L 279.193401 84.890826 
L 279.41209 84.890826 
L 279.63078 78.990338 
L 279.849469 84.890826 
L 280.068159 96.691802 
L 280.286848 96.691802 
L 280.505538 102.59229 
L 280.724227 96.691802 
L 280.942917 84.890826 
L 281.161606 90.791314 
L 281.598985 90.791314 
L 282.036364 102.59229 
L 287.284913 102.59229 
L 287.503603 96.691802 
L 287.940982 96.691802 
L 288.159671 102.59229 
L 289.034429 102.59229 
L 289.253119 96.691802 
L 289.471808 96.691802 
L 289.690498 102.59229 
L 289.909187 102.59229 
L 290.127877 108.492777 
L 290.346567 102.59229 
L 290.783946 102.59229 
L 291.002635 96.691802 
L 291.221325 96.691802 
L 291.658704 108.492777 
L 292.096083 108.492777 
L 292.314772 102.59229 
L 292.533462 102.59229 
L 292.752151 96.691802 
L 292.970841 96.691802 
L 293.18953 108.492777 
L 294.064289 108.492777 
L 294.282978 102.59229 
L 294.720357 102.59229 
L 294.939047 108.492777 
L 295.157736 108.492777 
L 295.376426 102.59229 
L 295.813805 102.59229 
L 296.032494 96.691802 
L 296.251184 102.59229 
L 297.78201 102.59229 
L 298.0007 96.691802 
L 298.21939 102.59229 
L 300.624974 102.59229 
L 300.843664 90.791314 
L 301.499732 90.791314 
L 301.718422 96.691802 
L 301.937112 96.691802 
L 302.155801 90.791314 
L 302.59318 90.791314 
L 302.81187 96.691802 
L 303.030559 96.691802 
L 303.249249 102.59229 
L 303.686628 102.59229 
L 304.124007 114.393265 
L 304.342696 108.492777 
L 304.561386 114.393265 
L 304.780075 108.492777 
L 304.998765 114.393265 
L 305.217454 102.59229 
L 305.436144 102.59229 
L 305.654834 96.691802 
L 305.873523 96.691802 
L 306.092213 90.791314 
L 306.310902 108.492777 
L 306.748281 96.691802 
L 306.966971 102.59229 
L 307.40435 84.890826 
L 307.623039 90.791314 
L 307.841729 84.890826 
L 308.060418 84.890826 
L 308.279108 90.791314 
L 308.497797 102.59229 
L 308.716487 90.791314 
L 308.935176 90.791314 
L 309.372555 73.089851 
L 309.591245 78.990338 
L 309.809935 90.791314 
L 310.028624 90.791314 
L 310.466003 78.990338 
L 311.340761 78.990338 
L 311.559451 90.791314 
L 311.77814 90.791314 
L 312.215519 67.189363 
L 312.434209 67.189363 
L 312.652898 73.089851 
L 313.090277 90.791314 
L 313.746346 73.089851 
L 313.965036 78.990338 
L 314.183725 78.990338 
L 314.402415 84.890826 
L 317.026689 84.890826 
L 317.245379 90.791314 
L 318.994895 90.791314 
L 319.213584 96.691802 
L 319.869653 96.691802 
L 320.088342 102.59229 
L 320.525721 102.59229 
L 320.963101 90.791314 
L 321.18179 96.691802 
L 321.40048 96.691802 
L 321.619169 102.59229 
L 321.837859 102.59229 
L 322.056548 96.691802 
L 322.931306 96.691802 
L 323.149996 102.59229 
L 323.368685 102.59229 
L 323.587375 96.691802 
L 325.118202 96.691802 
L 325.336891 90.791314 
L 325.77427 90.791314 
L 325.99296 96.691802 
L 326.649028 96.691802 
L 326.867718 90.791314 
L 327.742476 90.791314 
L 327.961165 96.691802 
L 328.179855 96.691802 
L 328.398544 90.791314 
L 328.617234 96.691802 
L 329.273303 96.691802 
L 329.491992 90.791314 
L 329.929371 90.791314 
L 330.148061 96.691802 
L 332.334956 96.691802 
L 332.553646 90.791314 
L 332.991025 90.791314 
L 333.428404 102.59229 
L 333.647093 102.59229 
L 333.865783 90.791314 
L 334.740541 90.791314 
L 334.95923 96.691802 
L 335.615299 96.691802 
L 335.833988 90.791314 
L 336.271367 102.59229 
L 336.490057 102.59229 
L 336.708747 96.691802 
L 337.146126 96.691802 
L 337.364815 102.59229 
L 339.55171 102.59229 
L 339.7704 108.492777 
L 340.207779 108.492777 
L 340.426469 102.59229 
L 340.645158 108.492777 
L 340.863848 108.492777 
L 341.082537 114.393265 
L 343.050743 114.393265 
L 343.269432 108.492777 
L 343.706811 108.492777 
L 343.925501 114.393265 
L 344.144191 114.393265 
L 344.36288 120.293753 
L 344.800259 120.293753 
L 345.018949 114.393265 
L 345.675017 114.393265 
L 345.893707 120.293753 
L 346.331086 120.293753 
L 346.549775 114.393265 
L 347.643223 114.393265 
L 347.861913 120.293753 
L 348.080602 114.393265 
L 348.736671 114.393265 
L 348.95536 120.293753 
L 349.611429 120.293753 
L 349.830118 114.393265 
L 350.267497 114.393265 
L 350.486187 120.293753 
L 351.579634 120.293753 
L 351.798324 126.194241 
L 352.017014 120.293753 
L 354.203909 120.293753 
L 354.422598 114.393265 
L 354.859977 126.194241 
L 355.516046 126.194241 
L 355.734736 120.293753 
L 355.953425 120.293753 
L 356.172115 114.393265 
L 356.390804 114.393265 
L 356.828183 126.194241 
L 357.046873 126.194241 
L 357.265562 114.393265 
L 362.295421 114.393265 
L 362.514111 108.492777 
L 362.95149 108.492777 
L 363.17018 114.393265 
L 364.919696 114.393265 
L 365.138385 108.492777 
L 369.949555 108.492777 
L 370.168244 114.393265 
L 370.386934 108.492777 
L 371.480382 108.492777 
L 371.699071 114.393265 
L 372.13645 114.393265 
L 372.35514 108.492777 
L 373.011208 108.492777 
L 373.229898 114.393265 
L 374.104656 114.393265 
L 374.323345 108.492777 
L 374.542035 114.393265 
L 377.822378 114.393265 
L 378.041067 108.492777 
L 378.259757 114.393265 
L 378.478446 108.492777 
L 378.915826 108.492777 
L 379.134515 114.393265 
L 379.353205 114.393265 
L 379.790584 102.59229 
L 380.009273 102.59229 
L 380.227963 108.492777 
L 380.884031 108.492777 
L 381.102721 102.59229 
L 381.32141 102.59229 
L 381.5401 96.691802 
L 381.977479 96.691802 
L 382.414858 108.492777 
L 382.852237 96.691802 
L 383.726995 96.691802 
L 383.945685 102.59229 
L 384.164374 102.59229 
L 384.383064 96.691802 
L 384.601753 102.59229 
L 384.820443 90.791314 
L 385.257822 90.791314 
L 385.695201 102.59229 
L 386.13258 102.59229 
L 386.35127 96.691802 
L 387.007338 96.691802 
L 387.226028 90.791314 
L 387.444717 96.691802 
L 387.663407 90.791314 
L 388.319475 90.791314 
L 388.538165 84.890826 
L 389.850302 84.890826 
L 390.287681 73.089851 
L 390.506371 73.089851 
L 390.94375 84.890826 
L 391.162439 84.890826 
L 391.599818 67.189363 
L 392.037197 78.990338 
L 392.693266 78.990338 
L 392.911955 67.189363 
L 393.130645 67.189363 
L 393.349334 73.089851 
L 393.568024 73.089851 
L 393.786713 78.990338 
L 394.224093 78.990338 
L 394.442782 73.089851 
L 395.973609 73.089851 
L 396.192298 78.990338 
L 396.410988 73.089851 
L 396.629677 78.990338 
L 396.848367 78.990338 
L 397.285746 61.288875 
L 397.504435 61.288875 
L 397.504435 61.288875 
" style="fill:none;stroke:#0000ff;stroke-linecap:square;stroke-width:1.5;"/>
   </g>
   <g id="line2d_31">
    <path clip-path="url(#pd2cef63844)" d="M 40.603125 303.208875 
L 48.257258 303.208875 
L 48.475948 297.308387 
L 50.444154 297.308387 
L 50.662843 291.407899 
L 53.505807 291.407899 
L 53.724497 279.606924 
L 55.474013 279.606924 
L 55.911392 291.407899 
L 57.00484 291.407899 
L 57.223529 285.507412 
L 58.754356 285.507412 
L 58.973045 291.407899 
L 60.066493 291.407899 
L 60.285183 297.308387 
L 64.658973 297.308387 
L 64.877663 303.208875 
L 105.772604 303.208875 
L 105.991294 297.308387 
L 106.428673 297.308387 
L 106.647363 291.407899 
L 107.303431 291.407899 
L 107.522121 285.507412 
L 107.74081 285.507412 
L 107.9595 279.606924 
L 108.615568 279.606924 
L 108.834258 273.706436 
L 109.927706 273.706436 
L 110.146395 279.606924 
L 110.365085 279.606924 
L 110.583774 285.507412 
L 110.802464 285.507412 
L 111.021153 291.407899 
L 111.239843 291.407899 
L 111.458532 297.308387 
L 111.895911 297.308387 
L 112.114601 303.208875 
L 153.228232 303.208875 
L 153.446922 291.407899 
L 154.540369 291.407899 
L 154.759059 279.606924 
L 155.196438 279.606924 
L 155.415127 273.706436 
L 155.633817 273.706436 
L 156.289886 256.004973 
L 156.508575 256.004973 
L 156.945954 244.203997 
L 158.91416 244.203997 
L 159.351539 232.403021 
L 159.570228 220.602046 
L 160.007608 220.602046 
L 160.444987 208.80107 
L 161.101055 208.80107 
L 161.319745 202.900582 
L 161.538434 202.900582 
L 161.757124 185.199119 
L 161.975813 185.199119 
L 162.631882 155.69668 
L 162.850571 155.69668 
L 163.069261 149.796192 
L 163.28795 155.69668 
L 163.72533 155.69668 
L 164.162709 143.895704 
L 165.912225 143.895704 
L 166.130914 137.995216 
L 166.349604 143.895704 
L 166.568293 143.895704 
L 166.786983 149.796192 
L 167.005672 161.597168 
L 167.880431 161.597168 
L 168.31781 179.298631 
L 168.755189 179.298631 
L 168.973878 185.199119 
L 169.192568 185.199119 
L 169.411257 191.099607 
L 169.629947 191.099607 
L 169.848636 197.000095 
L 170.067326 197.000095 
L 170.286015 208.80107 
L 170.504705 208.80107 
L 170.723394 220.602046 
L 171.160773 220.602046 
L 171.598153 232.403021 
L 172.254221 261.90546 
L 172.472911 261.90546 
L 172.6916 267.805948 
L 172.91029 267.805948 
L 173.128979 273.706436 
L 173.566358 273.706436 
L 174.003737 285.507412 
L 174.878495 285.507412 
L 175.097185 291.407899 
L 175.315875 291.407899 
L 175.534564 303.208875 
L 188.874625 303.208875 
L 189.093315 297.308387 
L 189.530694 297.308387 
L 189.749383 291.407899 
L 189.968073 291.407899 
L 190.186762 285.507412 
L 190.624142 285.507412 
L 190.842831 279.606924 
L 191.061521 279.606924 
L 191.4989 267.805948 
L 193.029726 267.805948 
L 193.248416 261.90546 
L 194.997932 261.90546 
L 195.216622 267.805948 
L 195.87269 238.303509 
L 196.966138 238.303509 
L 197.184827 226.502534 
L 197.403517 226.502534 
L 197.622206 214.701558 
L 197.840896 214.701558 
L 198.059586 208.80107 
L 198.278275 208.80107 
L 198.934344 191.099607 
L 199.153033 197.000095 
L 199.371723 191.099607 
L 199.590412 191.099607 
L 199.809102 185.199119 
L 200.246481 185.199119 
L 200.46517 179.298631 
L 201.121239 179.298631 
L 201.339928 185.199119 
L 201.558618 179.298631 
L 201.777307 179.298631 
L 201.995997 185.199119 
L 202.214687 197.000095 
L 202.870755 179.298631 
L 203.526824 179.298631 
L 203.745513 191.099607 
L 203.964203 191.099607 
L 204.182892 197.000095 
L 204.401582 191.099607 
L 204.620271 197.000095 
L 204.838961 191.099607 
L 205.05765 197.000095 
L 205.495029 197.000095 
L 205.932409 208.80107 
L 206.588477 208.80107 
L 206.807167 214.701558 
L 207.244546 214.701558 
L 207.463235 202.900582 
L 208.556683 202.900582 
L 208.775372 197.000095 
L 209.212751 197.000095 
L 209.431441 202.900582 
L 209.650131 202.900582 
L 209.86882 208.80107 
L 211.180957 208.80107 
L 211.399647 214.701558 
L 211.618336 214.701558 
L 211.837026 220.602046 
L 212.055715 220.602046 
L 212.274405 226.502534 
L 212.493094 238.303509 
L 212.930473 238.303509 
L 213.367852 250.104485 
L 214.023921 250.104485 
L 214.242611 256.004973 
L 214.4613 256.004973 
L 214.67999 273.706436 
L 214.898679 273.706436 
L 215.117369 279.606924 
L 215.336058 291.407899 
L 217.960333 291.407899 
L 218.179022 297.308387 
L 218.397712 297.308387 
L 218.616401 303.208875 
L 225.395777 303.208875 
L 225.614466 297.308387 
L 226.051845 297.308387 
L 226.270535 291.407899 
L 226.489224 291.407899 
L 226.707914 285.507412 
L 226.926603 285.507412 
L 228.45743 202.900582 
L 229.550878 202.900582 
L 229.769567 197.000095 
L 229.988257 185.199119 
L 230.425636 185.199119 
L 230.644325 173.398143 
L 230.863015 173.398143 
L 231.081704 167.497655 
L 231.519083 167.497655 
L 232.393841 143.895704 
L 232.612531 155.69668 
L 232.831221 155.69668 
L 233.2686 126.194241 
L 233.705979 137.995216 
L 233.924668 132.094729 
L 234.143358 137.995216 
L 234.799426 120.293753 
L 235.018116 126.194241 
L 235.236805 120.293753 
L 235.455495 126.194241 
L 235.674184 126.194241 
L 235.892874 137.995216 
L 236.111563 137.995216 
L 236.330253 143.895704 
L 236.767632 143.895704 
L 237.423701 126.194241 
L 237.64239 126.194241 
L 237.86108 132.094729 
L 238.298459 132.094729 
L 238.735838 143.895704 
L 238.954527 143.895704 
L 239.391906 132.094729 
L 239.610596 132.094729 
L 239.829285 126.194241 
L 240.047975 132.094729 
L 240.266664 132.094729 
L 240.485354 137.995216 
L 241.141423 137.995216 
L 241.360112 143.895704 
L 241.578802 143.895704 
L 241.797491 132.094729 
L 242.016181 143.895704 
L 242.23487 143.895704 
L 242.45356 149.796192 
L 242.890939 149.796192 
L 243.109628 143.895704 
L 243.547007 126.194241 
L 243.765697 120.293753 
L 244.203076 120.293753 
L 244.421766 114.393265 
L 244.640455 120.293753 
L 244.859145 114.393265 
L 245.296524 114.393265 
L 245.952592 96.691802 
L 246.171282 108.492777 
L 246.389971 96.691802 
L 247.04604 114.393265 
L 247.264729 108.492777 
L 247.483419 108.492777 
L 247.702108 90.791314 
L 247.920798 90.791314 
L 248.139488 84.890826 
L 248.576867 102.59229 
L 248.795556 96.691802 
L 249.232935 78.990338 
L 249.451625 84.890826 
L 249.889004 84.890826 
L 250.326383 73.089851 
L 251.63852 73.089851 
L 251.85721 78.990338 
L 252.075899 73.089851 
L 252.294589 78.990338 
L 252.513278 78.990338 
L 252.731968 73.089851 
L 252.950657 73.089851 
L 253.169347 67.189363 
L 253.388036 78.990338 
L 253.825415 78.990338 
L 254.044105 73.089851 
L 254.262794 73.089851 
L 254.481484 78.990338 
L 254.918863 78.990338 
L 255.137552 73.089851 
L 262.354307 73.089851 
L 262.572996 67.189363 
L 263.666444 67.189363 
L 263.885134 78.990338 
L 264.541202 78.990338 
L 264.759892 73.089851 
L 264.978581 78.990338 
L 267.821545 78.990338 
L 268.040235 84.890826 
L 268.258924 84.890826 
L 268.477614 78.990338 
L 268.914993 78.990338 
L 269.133682 84.890826 
L 270.445819 84.890826 
L 270.664509 78.990338 
L 270.883198 84.890826 
L 271.539267 84.890826 
L 271.757957 78.990338 
L 271.976646 84.890826 
L 272.195336 84.890826 
L 272.414025 78.990338 
L 274.382231 78.990338 
L 274.60092 84.890826 
L 275.0383 84.890826 
L 275.256989 78.990338 
L 275.694368 78.990338 
L 275.913058 84.890826 
L 276.131747 78.990338 
L 276.569126 78.990338 
L 276.787816 84.890826 
L 277.225195 84.890826 
L 277.443884 78.990338 
L 278.099953 78.990338 
L 278.318642 84.890826 
L 278.756022 84.890826 
L 278.974711 78.990338 
L 279.193401 78.990338 
L 279.41209 84.890826 
L 280.286848 84.890826 
L 280.505538 90.791314 
L 280.942917 90.791314 
L 281.161606 96.691802 
L 281.380296 90.791314 
L 282.255054 90.791314 
L 282.473743 102.59229 
L 282.692433 96.691802 
L 282.911123 96.691802 
L 283.129812 90.791314 
L 283.348502 90.791314 
L 283.567191 102.59229 
L 287.284913 102.59229 
L 287.503603 108.492777 
L 287.722292 108.492777 
L 287.940982 102.59229 
L 288.59705 102.59229 
L 288.81574 108.492777 
L 289.471808 108.492777 
L 289.690498 102.59229 
L 289.909187 102.59229 
L 290.127877 108.492777 
L 295.595115 108.492777 
L 295.813805 102.59229 
L 301.499732 102.59229 
L 301.718422 90.791314 
L 301.937112 90.791314 
L 302.155801 96.691802 
L 302.59318 114.393265 
L 303.030559 102.59229 
L 303.249249 90.791314 
L 303.467938 90.791314 
L 303.686628 96.691802 
L 304.342696 96.691802 
L 304.561386 114.393265 
L 304.998765 96.691802 
L 305.217454 90.791314 
L 305.436144 96.691802 
L 305.654834 96.691802 
L 305.873523 102.59229 
L 306.092213 102.59229 
L 306.529592 90.791314 
L 306.966971 90.791314 
L 307.18566 102.59229 
L 307.841729 84.890826 
L 308.279108 84.890826 
L 308.497797 96.691802 
L 308.716487 90.791314 
L 308.935176 90.791314 
L 309.153866 84.890826 
L 309.372555 73.089851 
L 309.591245 84.890826 
L 309.809935 78.990338 
L 310.247314 78.990338 
L 310.466003 84.890826 
L 311.122072 67.189363 
L 311.340761 67.189363 
L 311.559451 73.089851 
L 311.77814 73.089851 
L 311.99683 67.189363 
L 312.215519 73.089851 
L 312.434209 67.189363 
L 312.871588 67.189363 
L 313.090277 73.089851 
L 313.308967 73.089851 
L 313.527657 78.990338 
L 313.746346 73.089851 
L 313.965036 73.089851 
L 314.183725 78.990338 
L 314.621104 78.990338 
L 314.839794 84.890826 
L 315.933241 84.890826 
L 316.151931 90.791314 
L 318.338826 90.791314 
L 318.557516 96.691802 
L 318.776205 90.791314 
L 319.213584 90.791314 
L 319.432274 96.691802 
L 319.869653 96.691802 
L 320.088342 90.791314 
L 320.525721 90.791314 
L 320.963101 102.59229 
L 321.40048 90.791314 
L 321.619169 90.791314 
L 321.837859 96.691802 
L 326.430339 96.691802 
L 326.649028 90.791314 
L 326.867718 96.691802 
L 327.742476 96.691802 
L 327.961165 90.791314 
L 328.398544 90.791314 
L 328.617234 96.691802 
L 329.054613 96.691802 
L 329.273303 90.791314 
L 329.491992 90.791314 
L 329.710682 96.691802 
L 329.929371 90.791314 
L 330.148061 90.791314 
L 330.36675 96.691802 
L 330.58544 90.791314 
L 330.804129 96.691802 
L 331.460198 96.691802 
L 331.678887 90.791314 
L 331.897577 90.791314 
L 332.116266 96.691802 
L 332.334956 90.791314 
L 332.553646 90.791314 
L 332.772335 96.691802 
L 333.209714 96.691802 
L 333.428404 90.791314 
L 334.303162 90.791314 
L 334.521851 96.691802 
L 334.740541 96.691802 
L 334.95923 90.791314 
L 335.615299 90.791314 
L 335.833988 96.691802 
L 336.052678 96.691802 
L 336.271367 102.59229 
L 336.490057 102.59229 
L 336.708747 96.691802 
L 336.927436 102.59229 
L 337.583505 102.59229 
L 337.802194 108.492777 
L 338.020884 108.492777 
L 338.239573 102.59229 
L 338.895642 102.59229 
L 339.114331 108.492777 
L 339.7704 108.492777 
L 339.989089 114.393265 
L 340.207779 108.492777 
L 340.426469 108.492777 
L 340.645158 102.59229 
L 341.082537 114.393265 
L 341.738606 114.393265 
L 341.957295 108.492777 
L 342.394674 108.492777 
L 342.613364 114.393265 
L 343.050743 114.393265 
L 343.269432 108.492777 
L 343.925501 108.492777 
L 344.36288 120.293753 
L 344.58157 120.293753 
L 344.800259 114.393265 
L 350.267497 114.393265 
L 350.486187 120.293753 
L 350.704876 120.293753 
L 350.923566 114.393265 
L 351.142255 120.293753 
L 351.360945 120.293753 
L 351.579634 114.393265 
L 351.798324 120.293753 
L 352.673082 120.293753 
L 352.891772 126.194241 
L 353.110461 126.194241 
L 353.329151 120.293753 
L 353.76653 120.293753 
L 353.985219 126.194241 
L 357.484252 126.194241 
L 357.921631 114.393265 
L 358.14032 114.393265 
L 358.35901 120.293753 
L 359.015078 120.293753 
L 359.233768 114.393265 
L 359.889837 114.393265 
L 360.108526 120.293753 
L 360.327216 114.393265 
L 363.17018 114.393265 
L 363.388869 108.492777 
L 363.607559 114.393265 
L 364.044938 114.393265 
L 364.263627 108.492777 
L 372.13645 108.492777 
L 372.35514 114.393265 
L 372.792519 114.393265 
L 373.011208 108.492777 
L 373.448587 108.492777 
L 373.667277 114.393265 
L 374.323345 114.393265 
L 374.542035 108.492777 
L 374.760725 108.492777 
L 374.979414 114.393265 
L 379.571894 114.393265 
L 379.790584 108.492777 
L 380.665342 108.492777 
L 380.884031 114.393265 
L 381.102721 108.492777 
L 381.5401 108.492777 
L 381.758789 102.59229 
L 382.196168 102.59229 
L 382.414858 108.492777 
L 382.852237 108.492777 
L 383.070927 96.691802 
L 383.726995 96.691802 
L 383.945685 108.492777 
L 384.164374 102.59229 
L 384.383064 102.59229 
L 384.601753 96.691802 
L 384.820443 102.59229 
L 385.257822 102.59229 
L 385.476511 108.492777 
L 385.695201 108.492777 
L 385.91389 102.59229 
L 386.13258 102.59229 
L 386.35127 96.691802 
L 386.569959 102.59229 
L 387.226028 102.59229 
L 387.444717 96.691802 
L 387.663407 96.691802 
L 387.882096 90.791314 
L 388.100786 90.791314 
L 388.319475 96.691802 
L 388.538165 96.691802 
L 388.975544 84.890826 
L 389.631612 84.890826 
L 390.068992 96.691802 
L 390.287681 84.890826 
L 390.506371 84.890826 
L 390.94375 73.089851 
L 391.162439 78.990338 
L 391.381129 78.990338 
L 391.599818 90.791314 
L 392.037197 73.089851 
L 392.255887 67.189363 
L 392.474576 73.089851 
L 392.693266 73.089851 
L 392.911955 78.990338 
L 393.130645 73.089851 
L 393.786713 73.089851 
L 394.005403 67.189363 
L 394.224093 67.189363 
L 394.442782 78.990338 
L 394.661472 78.990338 
L 394.880161 73.089851 
L 395.53623 73.089851 
L 395.754919 78.990338 
L 396.192298 78.990338 
L 396.410988 73.089851 
L 396.629677 78.990338 
L 396.848367 73.089851 
L 397.067056 73.089851 
L 397.285746 84.890826 
L 397.504435 67.189363 
L 397.504435 67.189363 
" style="fill:none;stroke:#ff0000;stroke-linecap:square;stroke-width:1.5;"/>
   </g>
   <g id="line2d_32">
    <path clip-path="url(#pd2cef63844)" d="M 40.603125 303.208875 
L 50.662843 303.208875 
L 50.881533 297.308387 
L 52.19367 297.308387 
L 52.41236 303.208875 
L 55.255323 303.208875 
L 55.474013 297.308387 
L 61.59732 297.308387 
L 61.816009 303.208875 
L 79.529861 303.208875 
L 80.18593 273.706436 
L 80.623309 273.706436 
L 80.841998 261.90546 
L 81.716756 261.90546 
L 81.935446 256.004973 
L 82.154135 256.004973 
L 82.372825 250.104485 
L 82.810204 250.104485 
L 83.028894 244.203997 
L 83.466273 244.203997 
L 83.684962 238.303509 
L 83.903652 244.203997 
L 84.341031 244.203997 
L 84.55972 250.104485 
L 84.997099 250.104485 
L 85.215789 244.203997 
L 85.653168 244.203997 
L 85.871857 250.104485 
L 86.090547 261.90546 
L 86.309236 256.004973 
L 86.527926 261.90546 
L 87.183995 261.90546 
L 87.402684 256.004973 
L 87.621374 261.90546 
L 88.714821 261.90546 
L 88.933511 267.805948 
L 89.37089 267.805948 
L 89.808269 279.606924 
L 90.901717 279.606924 
L 91.120406 273.706436 
L 93.088612 273.706436 
L 94.182059 303.208875 
L 161.101055 303.208875 
L 162.194503 273.706436 
L 163.069261 273.706436 
L 163.28795 267.805948 
L 163.50664 267.805948 
L 163.944019 256.004973 
L 164.600088 256.004973 
L 164.818777 250.104485 
L 166.130914 250.104485 
L 166.349604 232.403021 
L 166.568293 232.403021 
L 166.786983 238.303509 
L 167.661741 238.303509 
L 167.880431 232.403021 
L 168.09912 238.303509 
L 168.31781 232.403021 
L 169.848636 232.403021 
L 170.067326 244.203997 
L 170.286015 244.203997 
L 170.504705 250.104485 
L 170.723394 250.104485 
L 170.942084 244.203997 
L 172.472911 244.203997 
L 172.6916 238.303509 
L 173.347669 238.303509 
L 173.566358 250.104485 
L 173.785048 250.104485 
L 174.003737 256.004973 
L 175.315875 256.004973 
L 175.534564 261.90546 
L 175.971943 261.90546 
L 176.190633 267.805948 
L 176.628012 267.805948 
L 177.065391 279.606924 
L 177.28408 279.606924 
L 177.721459 291.407899 
L 177.940149 291.407899 
L 178.158838 297.308387 
L 178.596217 297.308387 
L 178.814907 303.208875 
L 215.992127 303.208875 
L 216.210816 297.308387 
L 221.240676 297.308387 
L 221.459365 291.407899 
L 226.270535 291.407899 
L 226.489224 297.308387 
L 227.801361 297.308387 
L 228.020051 303.208875 
L 243.547007 303.208875 
L 243.765697 297.308387 
L 244.421766 297.308387 
L 244.640455 291.407899 
L 248.795556 291.407899 
L 249.014246 297.308387 
L 249.232935 297.308387 
L 249.451625 291.407899 
L 250.107693 291.407899 
L 250.326383 297.308387 
L 252.731968 297.308387 
L 252.950657 303.208875 
L 273.507473 303.208875 
L 273.726162 297.308387 
L 275.0383 297.308387 
L 275.256989 291.407899 
L 275.475679 291.407899 
L 275.694368 285.507412 
L 275.913058 285.507412 
L 276.350437 273.706436 
L 276.569126 273.706436 
L 277.006505 256.004973 
L 277.225195 256.004973 
L 277.443884 250.104485 
L 278.974711 250.104485 
L 279.193401 244.203997 
L 279.41209 244.203997 
L 279.63078 238.303509 
L 280.068159 238.303509 
L 280.286848 232.403021 
L 280.505538 232.403021 
L 280.724227 238.303509 
L 280.942917 238.303509 
L 281.161606 232.403021 
L 281.380296 232.403021 
L 281.598985 238.303509 
L 288.378361 238.303509 
L 288.59705 232.403021 
L 292.314772 232.403021 
L 292.533462 238.303509 
L 292.752151 238.303509 
L 292.970841 232.403021 
L 293.40822 232.403021 
L 293.626909 238.303509 
L 293.845599 232.403021 
L 294.064289 232.403021 
L 294.282978 238.303509 
L 294.720357 238.303509 
L 294.939047 232.403021 
L 303.686628 232.403021 
L 303.905317 238.303509 
L 305.654834 238.303509 
L 305.873523 232.403021 
L 306.092213 238.303509 
L 306.966971 238.303509 
L 307.18566 232.403021 
L 307.623039 232.403021 
L 307.841729 238.303509 
L 308.279108 238.303509 
L 308.497797 232.403021 
L 312.434209 232.403021 
L 312.652898 238.303509 
L 312.871588 232.403021 
L 313.746346 232.403021 
L 313.965036 238.303509 
L 314.183725 238.303509 
L 314.402415 244.203997 
L 314.621104 238.303509 
L 315.495862 238.303509 
L 315.714552 244.203997 
L 322.493927 244.203997 
L 322.712617 250.104485 
L 323.368685 250.104485 
L 323.587375 244.203997 
L 323.806064 244.203997 
L 324.024754 250.104485 
L 328.179855 250.104485 
L 328.398544 244.203997 
L 328.617234 250.104485 
L 329.491992 250.104485 
L 329.710682 244.203997 
L 329.929371 244.203997 
L 330.148061 250.104485 
L 330.804129 250.104485 
L 331.022819 244.203997 
L 331.678887 244.203997 
L 331.897577 250.104485 
L 332.334956 250.104485 
L 332.553646 244.203997 
L 333.209714 244.203997 
L 333.428404 250.104485 
L 333.647093 250.104485 
L 333.865783 244.203997 
L 334.521851 244.203997 
L 334.740541 250.104485 
L 335.17792 250.104485 
L 335.396609 244.203997 
L 336.052678 244.203997 
L 336.271367 250.104485 
L 336.708747 250.104485 
L 336.927436 244.203997 
L 337.583505 244.203997 
L 337.802194 250.104485 
L 338.020884 250.104485 
L 338.239573 256.004973 
L 338.458263 250.104485 
L 338.895642 250.104485 
L 339.114331 256.004973 
L 339.7704 256.004973 
L 339.989089 250.104485 
L 340.426469 250.104485 
L 340.645158 256.004973 
L 341.519916 256.004973 
L 341.738606 250.104485 
L 341.957295 256.004973 
L 342.613364 256.004973 
L 342.832053 250.104485 
L 343.050743 256.004973 
L 343.925501 256.004973 
L 344.144191 250.104485 
L 344.800259 250.104485 
L 345.018949 256.004973 
L 345.237638 250.104485 
L 352.891772 250.104485 
L 353.110461 244.203997 
L 353.54784 244.203997 
L 353.76653 238.303509 
L 353.985219 244.203997 
L 355.078667 244.203997 
L 355.297356 238.303509 
L 355.516046 238.303509 
L 355.734736 244.203997 
L 356.609494 244.203997 
L 356.828183 238.303509 
L 357.046873 244.203997 
L 357.921631 244.203997 
L 358.14032 238.303509 
L 358.35901 238.303509 
L 358.577699 244.203997 
L 358.796389 238.303509 
L 359.015078 238.303509 
L 359.233768 244.203997 
L 359.452458 244.203997 
L 359.671147 238.303509 
L 360.764595 238.303509 
L 360.983284 244.203997 
L 361.420663 232.403021 
L 361.639353 238.303509 
L 362.514111 238.303509 
L 362.7328 232.403021 
L 362.95149 232.403021 
L 363.17018 238.303509 
L 364.044938 238.303509 
L 364.263627 232.403021 
L 364.482317 238.303509 
L 365.575764 238.303509 
L 365.794454 232.403021 
L 366.013143 238.303509 
L 369.293486 238.303509 
L 369.512176 232.403021 
L 369.949555 232.403021 
L 370.168244 238.303509 
L 370.386934 238.303509 
L 370.605623 232.403021 
L 377.384999 232.403021 
L 377.603688 226.502534 
L 378.259757 226.502534 
L 378.478446 232.403021 
L 385.476511 232.403021 
L 385.695201 226.502534 
L 388.538165 226.502534 
L 388.756854 220.602046 
L 389.412923 220.602046 
L 389.631612 232.403021 
L 391.162439 232.403021 
L 391.381129 220.602046 
L 391.818508 232.403021 
L 392.255887 232.403021 
L 392.474576 226.502534 
L 397.504435 226.502534 
L 397.504435 226.502534 
" style="fill:none;stroke:#00ffff;stroke-linecap:square;stroke-width:1.5;"/>
   </g>
   <g id="line2d_33">
    <path clip-path="url(#pd2cef63844)" d="M 40.603125 303.208875 
L 59.629114 303.208875 
L 59.847804 297.308387 
L 66.1898 297.308387 
L 66.408489 303.208875 
L 66.845868 303.208875 
L 67.283247 291.407899 
L 71.219659 291.407899 
L 71.657038 303.208875 
L 77.780345 303.208875 
L 77.999034 297.308387 
L 79.529861 297.308387 
L 79.748551 303.208875 
L 152.353474 303.208875 
L 152.572164 297.308387 
L 156.071196 297.308387 
L 156.289886 291.407899 
L 156.945954 291.407899 
L 157.164644 285.507412 
L 157.383333 291.407899 
L 158.69547 291.407899 
L 158.91416 297.308387 
L 160.663676 297.308387 
L 160.882366 291.407899 
L 164.600088 291.407899 
L 164.818777 297.308387 
L 182.970008 297.308387 
L 183.188698 303.208875 
L 192.811037 303.208875 
L 193.029726 297.308387 
L 198.059586 297.308387 
L 198.278275 303.208875 
L 198.715654 303.208875 
L 198.934344 297.308387 
L 200.902549 297.308387 
L 201.121239 291.407899 
L 202.652066 291.407899 
L 202.870755 285.507412 
L 205.495029 285.507412 
L 205.713719 291.407899 
L 206.807167 291.407899 
L 207.025856 297.308387 
L 208.994062 297.308387 
L 209.212751 303.208875 
L 229.769567 303.208875 
L 229.988257 297.308387 
L 232.175152 297.308387 
L 232.393841 291.407899 
L 241.141423 291.407899 
L 241.360112 297.308387 
L 254.918863 297.308387 
L 255.137552 303.208875 
L 255.574931 303.208875 
L 255.793621 297.308387 
L 256.231 297.308387 
L 256.44969 303.208875 
L 397.504435 303.208875 
L 397.504435 303.208875 
" style="fill:none;stroke:#ff00ff;stroke-linecap:square;stroke-width:1.5;"/>
   </g>
   <g id="line2d_34">
    <path clip-path="url(#pd2cef63844)" d="M 40.603125 303.208875 
L 65.97111 303.208875 
L 66.1898 297.308387 
L 67.720627 297.308387 
L 67.939316 291.407899 
L 68.158006 291.407899 
L 68.376695 297.308387 
L 68.814074 297.308387 
L 69.032764 291.407899 
L 74.937381 291.407899 
L 75.15607 297.308387 
L 76.249518 297.308387 
L 76.468208 303.208875 
L 152.134785 303.208875 
L 152.353474 297.308387 
L 154.10299 297.308387 
L 154.32168 291.407899 
L 156.071196 291.407899 
L 156.289886 285.507412 
L 159.788918 285.507412 
L 160.007608 291.407899 
L 163.944019 291.407899 
L 164.162709 297.308387 
L 166.568293 297.308387 
L 166.786983 303.208875 
L 185.812972 303.208875 
L 186.031661 297.308387 
L 188.437246 297.308387 
L 188.655936 291.407899 
L 192.373658 291.407899 
L 192.592347 297.308387 
L 197.840896 297.308387 
L 198.059586 303.208875 
L 207.900614 303.208875 
L 208.119304 297.308387 
L 212.055715 297.308387 
L 212.493094 285.507412 
L 216.648195 285.507412 
L 216.866885 291.407899 
L 220.147228 291.407899 
L 220.365917 285.507412 
L 221.240676 285.507412 
L 221.459365 291.407899 
L 226.270535 291.407899 
L 226.489224 285.507412 
L 226.707914 285.507412 
L 226.926603 291.407899 
L 233.487289 291.407899 
L 233.705979 297.308387 
L 233.924668 291.407899 
L 237.86108 291.407899 
L 238.079769 297.308387 
L 240.485354 297.308387 
L 240.704044 291.407899 
L 241.578802 291.407899 
L 241.797491 297.308387 
L 294.720357 297.308387 
L 294.939047 303.208875 
L 322.493927 303.208875 
L 322.712617 297.308387 
L 328.179855 297.308387 
L 328.398544 291.407899 
L 328.835924 291.407899 
L 329.054613 297.308387 
L 329.491992 297.308387 
L 329.710682 291.407899 
L 397.504435 291.407899 
L 397.504435 291.407899 
" style="fill:none;stroke:#000000;stroke-linecap:square;stroke-width:1.5;"/>
   </g>
   <g id="patch_3">
    <path d="M 40.603125 315.304875 
L 40.603125 49.192875 
" style="fill:none;stroke:#000000;stroke-linecap:square;stroke-linejoin:miter;stroke-width:0.8;"/>
   </g>
   <g id="patch_4">
    <path d="M 397.723125 315.304875 
L 397.723125 49.192875 
" style="fill:none;stroke:#000000;stroke-linecap:square;stroke-linejoin:miter;stroke-width:0.8;"/>
   </g>
   <g id="patch_5">
    <path d="M 40.603125 315.304875 
L 397.723125 315.304875 
" style="fill:none;stroke:#000000;stroke-linecap:square;stroke-linejoin:miter;stroke-width:0.8;"/>
   </g>
   <g id="patch_6">
    <path d="M 40.603125 49.192875 
L 397.723125 49.192875 
" style="fill:none;stroke:#000000;stroke-linecap:square;stroke-linejoin:miter;stroke-width:0.8;"/>
   </g>
   <g id="text_17">
    <!-- Discovered nodes per time -->
    <defs>
     <path d="M 54.890625 33.015625 
L 54.890625 0 
L 45.90625 0 
L 45.90625 32.71875 
Q 45.90625 40.484375 42.875 44.328125 
Q 39.84375 48.1875 33.796875 48.1875 
Q 26.515625 48.1875 22.3125 43.546875 
Q 18.109375 38.921875 18.109375 30.90625 
L 18.109375 0 
L 9.078125 0 
L 9.078125 54.6875 
L 18.109375 54.6875 
L 18.109375 46.1875 
Q 21.34375 51.125 25.703125 53.5625 
Q 30.078125 56 35.796875 56 
Q 45.21875 56 50.046875 50.171875 
Q 54.890625 44.34375 54.890625 33.015625 
z
" id="DejaVuSans-6e"/>
     <path d="M 18.109375 8.203125 
L 18.109375 -20.796875 
L 9.078125 -20.796875 
L 9.078125 54.6875 
L 18.109375 54.6875 
L 18.109375 46.390625 
Q 20.953125 51.265625 25.265625 53.625 
Q 29.59375 56 35.59375 56 
Q 45.5625 56 51.78125 48.09375 
Q 58.015625 40.1875 58.015625 27.296875 
Q 58.015625 14.40625 51.78125 6.484375 
Q 45.5625 -1.421875 35.59375 -1.421875 
Q 29.59375 -1.421875 25.265625 0.953125 
Q 20.953125 3.328125 18.109375 8.203125 
z
M 48.6875 27.296875 
Q 48.6875 37.203125 44.609375 42.84375 
Q 40.53125 48.484375 33.40625 48.484375 
Q 26.265625 48.484375 22.1875 42.84375 
Q 18.109375 37.203125 18.109375 27.296875 
Q 18.109375 17.390625 22.1875 11.75 
Q 26.265625 6.109375 33.40625 6.109375 
Q 40.53125 6.109375 44.609375 11.75 
Q 48.6875 17.390625 48.6875 27.296875 
z
" id="DejaVuSans-70"/>
     <path d="M 18.3125 70.21875 
L 18.3125 54.6875 
L 36.8125 54.6875 
L 36.8125 47.703125 
L 18.3125 47.703125 
L 18.3125 18.015625 
Q 18.3125 11.328125 20.140625 9.421875 
Q 21.96875 7.515625 27.59375 7.515625 
L 36.8125 7.515625 
L 36.8125 0 
L 27.59375 0 
Q 17.1875 0 13.234375 3.875 
Q 9.28125 7.765625 9.28125 18.015625 
L 9.28125 47.703125 
L 2.6875 47.703125 
L 2.6875 54.6875 
L 9.28125 54.6875 
L 9.28125 70.21875 
z
" id="DejaVuSans-74"/>
    </defs>
    <g transform="translate(138.227813 16.318125)scale(0.12 -0.12)">
     <use xlink:href="#DejaVuSans-44"/>
     <use x="77.001953" xlink:href="#DejaVuSans-69"/>
     <use x="104.785156" xlink:href="#DejaVuSans-73"/>
     <use x="156.884766" xlink:href="#DejaVuSans-63"/>
     <use x="211.865234" xlink:href="#DejaVuSans-6f"/>
     <use x="273.046875" xlink:href="#DejaVuSans-76"/>
     <use x="332.226562" xlink:href="#DejaVuSans-65"/>
     <use x="393.75" xlink:href="#DejaVuSans-72"/>
     <use x="434.832031" xlink:href="#DejaVuSans-65"/>
     <use x="496.355469" xlink:href="#DejaVuSans-64"/>
     <use x="559.832031" xlink:href="#DejaVuSans-20"/>
     <use x="591.619141" xlink:href="#DejaVuSans-6e"/>
     <use x="654.998047" xlink:href="#DejaVuSans-6f"/>
     <use x="716.179688" xlink:href="#DejaVuSans-64"/>
     <use x="779.65625" xlink:href="#DejaVuSans-65"/>
     <use x="841.179688" xlink:href="#DejaVuSans-73"/>
     <use x="893.279297" xlink:href="#DejaVuSans-20"/>
     <use x="925.066406" xlink:href="#DejaVuSans-70"/>
     <use x="988.542969" xlink:href="#DejaVuSans-65"/>
     <use x="1050.066406" xlink:href="#DejaVuSans-72"/>
     <use x="1091.179688" xlink:href="#DejaVuSans-20"/>
     <use x="1122.966797" xlink:href="#DejaVuSans-74"/>
     <use x="1162.175781" xlink:href="#DejaVuSans-69"/>
     <use x="1189.958984" xlink:href="#DejaVuSans-6d"/>
     <use x="1287.371094" xlink:href="#DejaVuSans-65"/>
    </g>
    <!--  -->
    <g transform="translate(219.163125 29.7555)scale(0.12 -0.12)"/>
    <!--  -->
    <g transform="translate(219.163125 43.192875)scale(0.12 -0.12)"/>
   </g>
   <g id="legend_1">
    <g id="patch_7">
     <path d="M 411.865525 139.939385 
L 482.471775 139.939385 
Q 484.471775 139.939385 484.471775 137.939385 
L 484.471775 50.870635 
Q 484.471775 48.870635 482.471775 48.870635 
L 411.865525 48.870635 
Q 409.865525 48.870635 409.865525 50.870635 
L 409.865525 137.939385 
Q 409.865525 139.939385 411.865525 139.939385 
z
" style="fill:#ffffff;opacity:0.8;stroke:#cccccc;stroke-linejoin:miter;"/>
    </g>
    <g id="line2d_35">
     <path d="M 413.865525 56.969072 
L 433.865525 56.969072 
" style="fill:none;stroke:#008000;stroke-linecap:square;stroke-width:1.5;"/>
    </g>
    <g id="line2d_36"/>
    <g id="text_18">
     <!-- drone 0 -->
     <g transform="translate(441.865525 60.469072)scale(0.1 -0.1)">
      <use xlink:href="#DejaVuSans-64"/>
      <use x="63.476562" xlink:href="#DejaVuSans-72"/>
      <use x="104.558594" xlink:href="#DejaVuSans-6f"/>
      <use x="165.740234" xlink:href="#DejaVuSans-6e"/>
      <use x="229.119141" xlink:href="#DejaVuSans-65"/>
      <use x="290.642578" xlink:href="#DejaVuSans-20"/>
      <use x="322.429688" xlink:href="#DejaVuSans-30"/>
     </g>
    </g>
    <g id="line2d_37">
     <path d="M 413.865525 71.647197 
L 433.865525 71.647197 
" style="fill:none;stroke:#0000ff;stroke-linecap:square;stroke-width:1.5;"/>
    </g>
    <g id="line2d_38"/>
    <g id="text_19">
     <!-- drone 1 -->
     <g transform="translate(441.865525 75.147197)scale(0.1 -0.1)">
      <use xlink:href="#DejaVuSans-64"/>
      <use x="63.476562" xlink:href="#DejaVuSans-72"/>
      <use x="104.558594" xlink:href="#DejaVuSans-6f"/>
      <use x="165.740234" xlink:href="#DejaVuSans-6e"/>
      <use x="229.119141" xlink:href="#DejaVuSans-65"/>
      <use x="290.642578" xlink:href="#DejaVuSans-20"/>
      <use x="322.429688" xlink:href="#DejaVuSans-31"/>
     </g>
    </g>
    <g id="line2d_39">
     <path d="M 413.865525 86.325322 
L 433.865525 86.325322 
" style="fill:none;stroke:#ff0000;stroke-linecap:square;stroke-width:1.5;"/>
    </g>
    <g id="line2d_40"/>
    <g id="text_20">
     <!-- drone 2 -->
     <g transform="translate(441.865525 89.825322)scale(0.1 -0.1)">
      <use xlink:href="#DejaVuSans-64"/>
      <use x="63.476562" xlink:href="#DejaVuSans-72"/>
      <use x="104.558594" xlink:href="#DejaVuSans-6f"/>
      <use x="165.740234" xlink:href="#DejaVuSans-6e"/>
      <use x="229.119141" xlink:href="#DejaVuSans-65"/>
      <use x="290.642578" xlink:href="#DejaVuSans-20"/>
      <use x="322.429688" xlink:href="#DejaVuSans-32"/>
     </g>
    </g>
    <g id="line2d_41">
     <path d="M 413.865525 101.003447 
L 433.865525 101.003447 
" style="fill:none;stroke:#00ffff;stroke-linecap:square;stroke-width:1.5;"/>
    </g>
    <g id="line2d_42"/>
    <g id="text_21">
     <!-- drone 3 -->
     <g transform="translate(441.865525 104.503447)scale(0.1 -0.1)">
      <use xlink:href="#DejaVuSans-64"/>
      <use x="63.476562" xlink:href="#DejaVuSans-72"/>
      <use x="104.558594" xlink:href="#DejaVuSans-6f"/>
      <use x="165.740234" xlink:href="#DejaVuSans-6e"/>
      <use x="229.119141" xlink:href="#DejaVuSans-65"/>
      <use x="290.642578" xlink:href="#DejaVuSans-20"/>
      <use x="322.429688" xlink:href="#DejaVuSans-33"/>
     </g>
    </g>
    <g id="line2d_43">
     <path d="M 413.865525 115.681572 
L 433.865525 115.681572 
" style="fill:none;stroke:#ff00ff;stroke-linecap:square;stroke-width:1.5;"/>
    </g>
    <g id="line2d_44"/>
    <g id="text_22">
     <!-- drone 4 -->
     <g transform="translate(441.865525 119.181572)scale(0.1 -0.1)">
      <use xlink:href="#DejaVuSans-64"/>
      <use x="63.476562" xlink:href="#DejaVuSans-72"/>
      <use x="104.558594" xlink:href="#DejaVuSans-6f"/>
      <use x="165.740234" xlink:href="#DejaVuSans-6e"/>
      <use x="229.119141" xlink:href="#DejaVuSans-65"/>
      <use x="290.642578" xlink:href="#DejaVuSans-20"/>
      <use x="322.429688" xlink:href="#DejaVuSans-34"/>
     </g>
    </g>
    <g id="line2d_45">
     <path d="M 413.865525 130.359697 
L 433.865525 130.359697 
" style="fill:none;stroke:#000000;stroke-linecap:square;stroke-width:1.5;"/>
    </g>
    <g id="line2d_46"/>
    <g id="text_23">
     <!-- drone 5 -->
     <defs>
      <path d="M 10.796875 72.90625 
L 49.515625 72.90625 
L 49.515625 64.59375 
L 19.828125 64.59375 
L 19.828125 46.734375 
Q 21.96875 47.46875 24.109375 47.828125 
Q 26.265625 48.1875 28.421875 48.1875 
Q 40.625 48.1875 47.75 41.5 
Q 54.890625 34.8125 54.890625 23.390625 
Q 54.890625 11.625 47.5625 5.09375 
Q 40.234375 -1.421875 26.90625 -1.421875 
Q 22.3125 -1.421875 17.546875 -0.640625 
Q 12.796875 0.140625 7.71875 1.703125 
L 7.71875 11.625 
Q 12.109375 9.234375 16.796875 8.0625 
Q 21.484375 6.890625 26.703125 6.890625 
Q 35.15625 6.890625 40.078125 11.328125 
Q 45.015625 15.765625 45.015625 23.390625 
Q 45.015625 31 40.078125 35.4375 
Q 35.15625 39.890625 26.703125 39.890625 
Q 22.75 39.890625 18.8125 39.015625 
Q 14.890625 38.140625 10.796875 36.28125 
z
" id="DejaVuSans-35"/>
     </defs>
     <g transform="translate(441.865525 133.859697)scale(0.1 -0.1)">
      <use xlink:href="#DejaVuSans-64"/>
      <use x="63.476562" xlink:href="#DejaVuSans-72"/>
      <use x="104.558594" xlink:href="#DejaVuSans-6f"/>
      <use x="165.740234" xlink:href="#DejaVuSans-6e"/>
      <use x="229.119141" xlink:href="#DejaVuSans-65"/>
      <use x="290.642578" xlink:href="#DejaVuSans-20"/>
      <use x="322.429688" xlink:href="#DejaVuSans-35"/>
     </g>
    </g>
   </g>
  </g>
 </g>
 <defs>
  <clipPath id="pd2cef63844">
   <rect height="266.112" width="357.12" x="40.603125" y="49.192875"/>
  </clipPath>
 </defs>
</svg>
